<svg xmlns="http://www.w3.org/2000/svg" viewBox="0 0 185.79 138.91"><defs><style>.cls-1{isolation:isolate;}.cls-2{fill:#f18743;}.cls-3{fill:#f4aa82;}.cls-4{fill:#f09665;}.cls-5{fill:#d9d9d9;mix-blend-mode:multiply;}.cls-6{fill:#5b5b5a;}.cls-10,.cls-11,.cls-12,.cls-13,.cls-14,.cls-15,.cls-16,.cls-17,.cls-18,.cls-22,.cls-25,.cls-26,.cls-27,.cls-28,.cls-29,.cls-30,.cls-31,.cls-32,.cls-33,.cls-35,.cls-36,.cls-6,.cls-8,.cls-9{fill-rule:evenodd;}.cls-30,.cls-7{fill:#4d4a81;}.cls-8{fill:#6a6766;}.cls-9{fill:#353230;}.cls-10{fill:#8a8b8c;}.cls-11{fill:#afafb1;}.cls-12{fill:#377d84;}.cls-13{fill:#48abb4;}.cls-14{fill:#ababab;}.cls-15{fill:#969696;}.cls-16{fill:#cdcbcb;}.cls-17,.cls-20{fill:#f6bbc6;}.cls-18{fill:#1f3446;}.cls-19{fill:#f9b233;}.cls-21{fill:#303b45;}.cls-22{fill:#353430;}.cls-23{fill:#eaeaea;}.cls-24{fill:#ebebeb;}.cls-25{fill:#808081;}.cls-26{fill:#36393b;}.cls-27{fill:#66411d;}.cls-28{fill:#946335;}.cls-29{fill:#492e16;}.cls-31{fill:#0a0b0b;}.cls-32{fill:#1f1f20;}.cls-33{fill:#2f2f60;}.cls-34{fill:#ef7967;}.cls-35{fill:#f8fcfc;}.cls-36{fill:#e4eced;}</style></defs><title>G08_07</title><g class="cls-1"><g id="Livello_1" data-name="Livello 1"><polygon class="cls-2" points="185.79 81.39 185.79 86.14 96.32 138.91 96.32 134.16 185.79 81.39"/><polygon class="cls-3" points="96.32 134.16 96.32 138.91 0.22 83.18 0.22 78.43 96.32 134.16"/><polygon class="cls-4" points="96.1 134.18 0 78.45 0 78.18 90.31 26.28 185.79 81.4 96.25 134.27 96.1 134.18"/><ellipse class="cls-5" cx="90.23" cy="78.69" rx="65.41" ry="34.02"/></g><g id="Livello_3" data-name="Livello 3"><path class="cls-6" d="M127.86,43.72c-1.89,1.12-3.62,1.59-5.45,2.81l0,2.43c2-1.75,3.55-2.17,5.8-3.6Z" transform="translate(-6.21 -27.34)"/><path class="cls-6" d="M122.59,43.05a12.87,12.87,0,0,0-.12,3.53c-.64.39-1.25,1-1.91,1.31a30.52,30.52,0,0,1,.85-4.46Z" transform="translate(-6.21 -27.34)"/><path class="cls-7" d="M118.47,38.33c0,.71.51,1.35.48,2.07-.06,1.31-.63,10.51.52,10.4s1,1.41,2,2c.83.44,1.34,1.33,2.16,1.77a3.08,3.08,0,0,0,2.71-.07c.07.08.12.17.19.25a3.36,3.36,0,0,0,3.2,1.18c.9-.24,1.6-1,2.5-1.24,1.12-.3,2.26.24,3.36.6s2.48.51,3.25-.35a2.9,2.9,0,0,0,.37-2.59,8.87,8.87,0,0,1-.5-2.67c.07-1,.67-2,.45-3-.29-1.28-1.9-2.18-1.66-3.47.13-.7.79-1.22.92-1.92.18-.89-.56-1.7-1.3-2.24-2.12-1.56-1.62-2.57-1.82-4.94A9.66,9.66,0,0,0,134,30c-.95-1.51-5.45-4.15-8.55-1.65A7.87,7.87,0,0,0,123.13,32c-.74,2.27-.47,3.36-2.89,4.41C119.4,36.8,118.51,37.41,118.47,38.33Z" transform="translate(-6.21 -27.34)"/><polygon class="cls-8" points="109.28 40.9 109.6 47.74 109.26 57.25 107.45 56.21 107.47 39.86 109.28 40.9"/><polygon class="cls-9" points="109.28 40.9 111.05 39.87 111.03 56.22 109.26 57.25 109.28 40.9"/><polygon class="cls-10" points="124.04 49.46 124.36 56.3 124.02 74.56 122.21 73.52 122.23 48.41 124.04 49.46"/><polygon class="cls-11" points="124.04 49.46 125.81 48.43 125.79 73.53 124.02 74.56 124.04 49.46"/><polygon class="cls-10" points="98.12 47.43 98.44 54.27 98.1 72.53 96.29 71.49 96.31 46.39 98.12 47.43"/><polygon class="cls-11" points="98.12 47.43 99.89 46.4 99.87 71.5 98.1 72.53 98.12 47.43"/><polygon class="cls-10" points="112.88 55.99 113.2 62.83 112.86 81.09 111.05 80.05 111.07 54.95 112.88 55.99"/><polygon class="cls-11" points="112.88 55.99 114.65 54.96 114.63 80.06 112.86 81.09 112.88 55.99"/><polygon class="cls-12" points="111.06 56.59 109.62 55.76 109.61 54.65 111.06 55.49 111.06 56.59"/><path class="cls-10" d="M133.79,70.71a4.67,4.67,0,0,0,0-.52l-1.44-.84a4.18,4.18,0,0,1,0,.61.3.3,0,0,1,0,.1,4,4,0,0,1-.13.58s0,0,0,.06a5.33,5.33,0,0,1-.23.63h0c-.09.21-.2.42-.31.62v0a5.65,5.65,0,0,1-.38.57l0,0c-.13.17-.26.33-.39.47l-.09.1-.34.31-.15.14a5.05,5.05,0,0,1-.5.35l1.43.83a4.11,4.11,0,0,0,.51-.34l.15-.14.24-.21.1-.1.09-.1.1-.11.21-.26.08-.1,0,0,.07-.09c.06-.08.11-.16.16-.24l.14-.22v0c0-.06.07-.12.1-.19l.12-.23.09-.2v0h0a2.44,2.44,0,0,0,.1-.24,2.5,2.5,0,0,0,.09-.25.5.5,0,0,0,0-.13s0,0,0,0l0-.09c0-.11,0-.21.07-.31l0-.18s0-.07,0-.1A.29.29,0,0,1,133.79,70.71Z" transform="translate(-6.21 -27.34)"/><polygon class="cls-10" points="127.61 42.85 126.17 42.01 126.13 27.03 127.57 27.87 127.61 42.85"/><polygon class="cls-13" points="127.57 27.87 126.13 27.03 127.09 26.47 128.53 27.31 127.57 27.87"/><polygon class="cls-13" points="123.51 46.63 109.61 54.65 111.06 55.49 124.95 47.47 123.51 46.63"/><path class="cls-11" d="M134.74,54.65l-1,.56,0,15a5.88,5.88,0,0,1-2.67,4.61l-13.89,8v1.11l13.89-8a8,8,0,0,0,3.62-6.28Z" transform="translate(-6.21 -27.34)"/><path class="cls-10" d="M121.38,64.13a4.67,4.67,0,0,0,0-.52L120,62.77a4.3,4.3,0,0,1,0,.61s0,.06,0,.1c0,.19-.08.39-.14.58a.43.43,0,0,1,0,0c-.07.22-.15.43-.24.64h0c-.1.21-.2.42-.32.62v0a5.57,5.57,0,0,1-.37.57l0,0a4.42,4.42,0,0,1-.39.47l-.09.1-.33.31a1.07,1.07,0,0,0-.16.14,4.1,4.1,0,0,1-.5.35l1.44.83a4.1,4.1,0,0,0,.5-.35l.16-.13.23-.21.1-.11.09-.09.1-.11.22-.26a.86.86,0,0,1,.07-.1.1.1,0,0,1,0,0l.07-.1.15-.23.14-.22v0l.11-.19.11-.23.1-.21h0l.1-.24.09-.25,0-.13,0,0,0-.1c0-.1.05-.2.07-.3a1.06,1.06,0,0,0,0-.19s0-.06,0-.09S121.37,64.16,121.38,64.13Z" transform="translate(-6.21 -27.34)"/><polygon class="cls-10" points="115.2 36.27 113.77 35.43 113.72 20.45 115.16 21.28 115.2 36.27"/><polygon class="cls-13" points="115.16 21.28 113.72 20.45 114.69 19.89 116.13 20.73 115.16 21.28"/><polygon class="cls-13" points="111.1 40.05 97.21 48.07 98.65 48.9 112.54 40.88 111.1 40.05"/><path class="cls-11" d="M122.34,48.06l-1,.56,0,15a5.87,5.87,0,0,1-2.66,4.61l-13.89,8v1.11l13.89-8a8,8,0,0,0,3.63-6.28Z" transform="translate(-6.21 -27.34)"/><path class="cls-14" d="M133.33,76a.57.57,0,0,1,0,.18v0a.65.65,0,0,1-.09.16l0,0a.57.57,0,0,1-.13.14l-.12.09-.1.08-13.48,7.83v2.15l13.47-7.83h0l.09-.06.11-.09h0a.57.57,0,0,0,.11-.11l0,0,0,0,0,0a.42.42,0,0,0,0-.1v0a.14.14,0,0,0,0-.06.31.31,0,0,0,0-.1h0Z" transform="translate(-6.21 -27.34)"/><path class="cls-15" d="M118.84,84.77l-.08,0a2.88,2.88,0,0,1-.59.06h0a2.56,2.56,0,0,1-.62-.07h0a2.17,2.17,0,0,1-.56-.21l-15.62-9a.87.87,0,0,1-.5-.71V77a.85.85,0,0,0,.5.7l15.62,9a1.15,1.15,0,0,0,.25.12l.21.07.1,0h.07l.17,0,.17,0h.53l.22,0,.1,0,.08,0,.15,0a2.48,2.48,0,0,0,.37-.17V84.57A2,2,0,0,1,118.84,84.77Z" transform="translate(-6.21 -27.34)"/><path class="cls-16" d="M132.83,75.34a.74.74,0,0,1,0,1.4l-13.48,7.83a2.69,2.69,0,0,1-2.41,0l-15.62-9c-.66-.39-.67-1,0-1.4l13.47-7.83a2.71,2.71,0,0,1,2.42,0Z" transform="translate(-6.21 -27.34)"/><path class="cls-14" d="M136.07,57.8l0,8.39a2.11,2.11,0,0,1,0,.26h0a1,1,0,0,1-.07.21h0a.52.52,0,0,1-.07.11.85.85,0,0,1-.19.19l1.86-1.09a.55.55,0,0,0,.19-.18l0,0a.41.41,0,0,0,.05-.09h0l0-.07s0,0,0-.06,0,0,0-.06v0h0v0a.13.13,0,0,1,0-.06v-.06a.43.43,0,0,0,0,0v-.06h0l0-8.4Z" transform="translate(-6.21 -27.34)"/><path class="cls-16" d="M135.33,56.09h0l.21.25h0a2.46,2.46,0,0,1,.17.27h0c.05.09.1.19.14.28h0a1.82,1.82,0,0,1,.11.3h0a1.53,1.53,0,0,1,.07.29h0a1.36,1.36,0,0,1,0,.29l1.86-1.09V56.6a.13.13,0,0,0,0-.06v-.12h0a133310987661.55,133310987661.55,0,0,0,0-.12l0-.06s0-.05,0-.07a.43.43,0,0,1,0-.05h0a.14.14,0,0,0,0-.06l0-.07a.14.14,0,0,0,0-.06l0-.05s0,0,0,0h0l0-.06a.36.36,0,0,0,0-.07l0-.07a.25.25,0,0,1,0-.07v0l-.09-.14-.08-.1h0l-.05-.07,0-.06-.05,0,0,0h0l0,0-.06-.05,0,0s0,0-.05,0l0,0h0l0,0-.05,0,0,0-.05,0,0,0h0l-15.61-9,0,0,0,0,0,0,0,0-.05,0h0l0,0h-.4l-.08,0-.1,0-1.86,1.09.17-.07h0a.66.66,0,0,1,.2,0h0a1,1,0,0,1,.23,0h0a1.74,1.74,0,0,1,.25.11l15.61,9a1.77,1.77,0,0,1,.24.17h0A2.13,2.13,0,0,1,135.33,56.09Z" transform="translate(-6.21 -27.34)"/><path class="cls-15" d="M134.86,55.71l-15.61-9c-.67-.38-1.22-.07-1.22.7l0,8.39a2.67,2.67,0,0,0,1.2,2.09l15.62,9c.67.39,1.21.07,1.21-.69l0-8.39A2.65,2.65,0,0,0,134.86,55.71Z" transform="translate(-6.21 -27.34)"/><path class="cls-6" d="M128.57,45.51c3.35,1.93,5.19,4,4.1,4.64s-4.69-.42-8-2.35-5.18-4-4.09-4.65S125.22,43.57,128.57,45.51Z" transform="translate(-6.21 -27.34)"/><path class="cls-17" d="M128.58,38c-.28,1-1.48,3.32-.64,6.08l-6.17,3.16.51-2.57A11.65,11.65,0,0,0,123,39Z" transform="translate(-6.21 -27.34)"/><path class="cls-6" d="M128,43.32c.2.56-.12,1.3.12,1.74.59,1.12,1.89,1.68,3,2.5,2.84,2.12.11,7.45-1.75,11a13,13,0,0,0-1.5,4.86A4.59,4.59,0,0,0,128,65.8c4.73,12.37-10.12,19.94-12.58,11.15-.7-2.5-.31-6.07,2.06-11.45.82-1.86.31-3.23.33-4.16s-.66-2.24-1.16-4.29a7,7,0,0,1-.9-4.44c.25-1.76,1.52-3.79,2.58-5.94a11.78,11.78,0,0,1,1.72-3c.49-.49,1.65-.4,2.59-.64a9.31,9.31,0,0,0,.07,3.19C123.36,45.76,126.5,44.34,128,43.32Z" transform="translate(-6.21 -27.34)"/><path class="cls-17" d="M100.41,79.92c-.85,5.63-.7,11.25-1.24,17.1l2.3,2.74c2.15-8.67,4.56-13.27,4.9-18.34.19-2.94.36-4.83.55-6.28C107.43,70.09,101.05,75.66,100.41,79.92Z" transform="translate(-6.21 -27.34)"/><path class="cls-17" d="M106,76.9c-.37,2.67.17,4.07-.13,6-.85,5.63-.7,11.25-1.23,17.09l2.3,2.75c2.14-8.67,4.56-13.27,4.89-18.34.18-2.67.33-4.48.5-5.87C114,66,106.62,71.3,106,76.9Z" transform="translate(-6.21 -27.34)"/><path class="cls-6" d="M129.41,72.37c-.18,2.39-.86,5.19-2.77,6.72-3.37,2.71-9.83,1.87-14.81,5.58-4.5-2-9.88-4.93-12.13-6.71.6-1.47,1.1-2.94,2.6-3.83,2.54-1.51,12-7.1,14.43-7.35a9.69,9.69,0,0,0,.58-1l-.07-.06c1.18-2.68,0-5.9-.65-8.49a7.7,7.7,0,0,1-1-4.64c.24-1.77,1.38-3.81,2.44-6a13.81,13.81,0,0,1,2.23-3.25,2.46,2.46,0,0,1,1.56-.39c-.92.88-2.06,4.47-2.18,7,2.87-1.14,6.69-3.22,8-4.63.32-.34.41,0,.63-.23,1.37,1.05,1.61,1.49,2.79,2.37a3,3,0,0,1,.73.79,1.84,1.84,0,0,0-2.3-.4c-2.24.81-2.6,4.3-2.46,7.34.09,2.08.72,3.54,2.46,3.63-.85,2-1.52,3.83-1.32,5,.39,2.39,1.57,4.7,1.27,8.39C129.44,72.34,129.43,72.36,129.41,72.37Z" transform="translate(-6.21 -27.34)"/><path class="cls-18" d="M107.91,80c3.32,1.92,5.13,4,4.06,4.61s-4.64-.42-8-2.34-5.13-4-4.06-4.6S104.59,78.07,107.91,80Z" transform="translate(-6.21 -27.34)"/><circle class="cls-19" cx="120.54" cy="6.84" r="4.88"/><path class="cls-20" d="M118.78,35.16a6,6,0,1,0,7-4.77A6,6,0,0,0,118.78,35.16Z" transform="translate(-6.21 -27.34)"/><path class="cls-7" d="M120.12,34.34a1.2,1.2,0,0,1-.65-1,6,6,0,0,1,11.09,4.09,4.73,4.73,0,0,1-.21.76,2,2,0,0,1-.78-.17c-.56-.26-1.81-1-1.24-1.63-.28.31-.39.81-.41,2.2C126.39,34.84,122.19,35.61,120.12,34.34Z" transform="translate(-6.21 -27.34)"/><path class="cls-20" d="M128,37.1a1.83,1.83,0,1,0,2.13-1.45A1.83,1.83,0,0,0,128,37.1Z" transform="translate(-6.21 -27.34)"/><path class="cls-21" d="M107.07,99.11a11.55,11.55,0,0,1,.89,3.51c0,1.3-.51,1.65-.51,1.65a28.2,28.2,0,0,1-3.33.82c-.72,0-1.93,1.19-3.67,1.31s-4,.65-4.2-.73c-.15-.82,2-1.61,4.51-3.32a13.54,13.54,0,0,0,2.88-2.76Z" transform="translate(-6.21 -27.34)"/><path class="cls-21" d="M106.38,93.42c.38,3.53.68,6.23.68,6.23s.09,1.13-1.43,1.2a2,2,0,0,1-2-1.26s-.62-2.54-1.49-6.2Z" transform="translate(-6.21 -27.34)"/><path class="cls-21" d="M111.28,95.65c.38,3.54.77,6.27.77,6.27s0,1.09-1.51,1.17a1.75,1.75,0,0,1-1.8-1.43s-.82-2.37-1.68-6Z" transform="translate(-6.21 -27.34)"/><path class="cls-21" d="M112,101.72s-.14,1.24-1.23,1.17a3.56,3.56,0,0,1-2.06-1.23s.41,1-.54,4.2c-.53,1.78-1.57,6.76.35,7.44,1.37.49,3.28-1.11,3.51-2.13.09-.41.49-4.89.43-5.31C112.28,104.42,112,101.72,112,101.72Z" transform="translate(-6.21 -27.34)"/><path class="cls-22" d="M127.67,44c-1.89,1.12-3.1,1-4.93,2.19l-.57,3c2.09-1.43,4-2.44,6.12-4Z" transform="translate(-6.21 -27.34)"/><path class="cls-22" d="M122.4,43.31c-.12.61.19,1.15.34,2.86-.63.39-1.72,1.63-2.37,2A18.32,18.32,0,0,1,121.68,43Z" transform="translate(-6.21 -27.34)"/><path class="cls-6" d="M128.13,43.31c-1.89,1.12-3.62,1.59-5.45,2.81l-.05,2.43c2-1.76,3.55-2.17,5.8-3.61Z" transform="translate(-6.21 -27.34)"/><path class="cls-6" d="M122.86,42.64a13.27,13.27,0,0,0-.12,3.53c-.63.39-1.25,1-1.91,1.31a31.9,31.9,0,0,1,.85-4.46Z" transform="translate(-6.21 -27.34)"/><circle class="cls-23" cx="117.48" cy="19.34" r="0.68"/><ellipse class="cls-23" cx="121.76" cy="45.93" rx="0.68" ry="0.52" transform="translate(0.22 78.87) rotate(-48.26)"/><path class="cls-24" d="M118.29,67.62l-1-.29s4.89-15.16,10.58-20.22c.67-.59,1.83-1.15,2.53-.58a6.81,6.81,0,0,1,.9.76s-1.48,0-4.14,2.79C123.56,53.87,118.29,67.62,118.29,67.62Z" transform="translate(-6.21 -27.34)"/><path class="cls-24" d="M129.29,67.89s-1.22-.34-2.25-.5c-2.65-.41-10.47-.59-10.47-.59l.88-3.23s7,1.05,9.39,1.05a6.85,6.85,0,0,0,1.63-.16Z" transform="translate(-6.21 -27.34)"/><polygon class="cls-11" points="48.82 42.43 51.11 41.09 51.05 66.98 48.76 68.32 48.82 42.43"/><polygon class="cls-10" points="48.82 42.43 48.76 68.32 46.52 67.03 46.58 41.13 48.82 42.43"/><polygon class="cls-25" points="140.66 59.47 142.96 58.13 142.9 84.02 140.6 85.36 140.66 59.47"/><polygon class="cls-26" points="140.66 59.47 140.6 85.36 138.36 84.06 138.42 58.17 140.66 59.47"/><polygon class="cls-25" points="109.35 74.9 111.65 73.57 111.59 101.96 109.29 103.29 109.35 74.9"/><polygon class="cls-26" points="109.35 74.9 109.29 103.29 107.05 102 107.11 73.61 109.35 74.9"/><polygon class="cls-27" points="111.77 78.75 148.73 57.98 148.71 62.35 112.25 83.53 111.77 78.75"/><path class="cls-28" d="M154.94,85.32l-36.46,21.19L50.37,67.19,86.82,46Q120.9,65.66,154.94,85.32Z" transform="translate(-6.21 -27.34)"/><path class="cls-29" d="M118.48,106.51l0,4.36L50.35,71.55l0-4.36h0Z" transform="translate(-6.21 -27.34)"/><path class="cls-30" d="M66.35,106.19c4.12-.94,7.28-5.3,12.07-8.72l4.24-2.16c.28-4.39,0-5.8-2.07-6.5-3.83-1.32-10.39,2.12-15.4,4.57Z" transform="translate(-6.21 -27.34)"/><path class="cls-31" d="M76,115.32l-3.07,2.35c0,2.82,0,4.21,1.13,4.94,1.33.9,3.57.18,4.93-.45l.36-1.09c1.31-.18,1,.21,2.43-.57,2.36-1.31,5.84-3.34,6.3-5.69.12-.6-.34-1.68-1-1.57l-6.85,1.18Z" transform="translate(-6.21 -27.34)"/><path class="cls-30" d="M71.55,97.07l1.11,21.57h0a.37.37,0,0,0,.2.41c.72.43,3.12-.28,5.34-1.56a11.22,11.22,0,0,0,2.18-1.57l.82-.56,1.24-23.75Z" transform="translate(-6.21 -27.34)"/><path class="cls-32" d="M83.38,119.58l-3.16,2.21c-.09,2.82-.15,4.21.91,5,1.29,1,3.56.32,5-.24l.41-1.08c1.86-.17,1.35.11,3.24-.87,2.29-1.19,5.07-2.86,5.57-4.93.14-.6-.27-1.69-.88-1.62l-6.73.82Z" transform="translate(-6.21 -27.34)"/><path class="cls-30" d="M78.86,95.88c.14,1.94.25,3.89.31,5.84L79.82,123h0a.37.37,0,0,0,.21.3c.72.42,3.11-.28,5.34-1.57s3.34-2.55,2.8-3l.12-23.23C88.42,90.63,78.94,91.63,78.86,95.88Z" transform="translate(-6.21 -27.34)"/><polygon class="cls-11" points="61.01 52.73 63.31 51.39 63.25 82.28 60.95 83.62 61.01 52.73"/><polygon class="cls-10" points="61.01 52.73 60.95 83.62 58.72 82.32 58.77 51.43 61.01 52.73"/><polygon class="cls-26" points="49.61 75.6 49.94 82.44 49.59 100.7 47.78 99.65 47.8 74.55 49.61 75.6"/><polygon class="cls-25" points="49.61 75.6 51.39 74.57 51.36 99.67 49.59 100.7 49.61 75.6"/><polygon class="cls-26" points="64.37 84.15 64.69 91 64.35 109.25 62.54 108.21 62.56 83.11 64.37 84.15"/><polygon class="cls-25" points="64.37 84.15 66.14 83.12 66.12 108.22 64.35 109.25 64.37 84.15"/><path class="cls-25" d="M80.49,105.15l-14.9,8.61a3.1,3.1,0,0,1-.53.24l-.1,0a2.89,2.89,0,0,1-.47.11h0a2.33,2.33,0,0,1-.46,0h0a1.26,1.26,0,0,1-.42-.16h0l1.55.9h0l.15.07.15,0,.1,0h.06l.18,0h.4l.25,0,.11,0,.1,0,.13-.05a3,3,0,0,0,.4-.2L82,106.05Z" transform="translate(-6.21 -27.34)"/><path class="cls-25" d="M82,106.05l-14.89,8.6c-1.58.91-2.87.18-2.88-1.64l0-16.07-1,.6,0,16.07c0,2.48,1.76,3.47,3.91,2.23l14.9-8.6Z" transform="translate(-6.21 -27.34)"/><path class="cls-25" d="M70.83,99.45l-14.9,8.6a3.49,3.49,0,0,1-.53.24l-.1,0a2.08,2.08,0,0,1-.47.1h0a1.4,1.4,0,0,1-.46,0h0a1.5,1.5,0,0,1-.42-.15h0l1.55.89a0,0,0,0,0,0,0l.15.08.15,0,.1,0h.06l.17,0h.41l.25-.06.11,0,.1,0,.12,0a3,3,0,0,0,.4-.2l14.9-8.6Z" transform="translate(-6.21 -27.34)"/><path class="cls-25" d="M72.37,100.35,57.47,109c-1.58.91-2.87.17-2.87-1.64l-.05-16.07-1,.6,0,16.07c0,2.47,1.77,3.47,3.92,2.23l14.9-8.6Z" transform="translate(-6.21 -27.34)"/><polygon class="cls-8" points="60.77 69.06 61.1 75.91 60.75 85.42 58.94 84.37 58.97 68.02 60.77 69.06"/><polygon class="cls-9" points="60.77 69.06 62.55 68.03 62.52 84.39 60.75 85.42 60.77 69.06"/><polygon class="cls-26" points="75.53 77.62 75.86 84.46 75.51 102.72 73.7 101.68 73.73 76.58 75.53 77.62"/><polygon class="cls-25" points="75.53 77.62 77.31 76.59 77.28 101.69 75.51 102.72 75.53 77.62"/><path class="cls-14" d="M84.83,104.21a1,1,0,0,1,0,.17v0a.8.8,0,0,1-.08.16l0,0a1,1,0,0,1-.14.15l-.11.09-.11.07-13.47,7.83v2.16l13.47-7.83h0a.71.71,0,0,0,.09-.07.94.94,0,0,0,.12-.09h0l.11-.12s0,0,0,0l0,0s0,0,0,0a.31.31,0,0,0,0-.1h0v0s0,0,0-.06,0-.07,0-.1v0h0Z" transform="translate(-6.21 -27.34)"/><path class="cls-15" d="M70.34,112.93l-.08,0a2.88,2.88,0,0,1-.59.07h0A3.2,3.2,0,0,1,69,113h0a2.25,2.25,0,0,1-.55-.21l-15.62-9a.82.82,0,0,1-.5-.7v2.15a.86.86,0,0,0,.5.71l15.62,9,.24.11.21.07.11,0h0l0,0,.17,0,.17,0h.53l.22,0,.09,0,.08,0,.15,0a2.06,2.06,0,0,0,.37-.16v-2.16A2,2,0,0,1,70.34,112.93Z" transform="translate(-6.21 -27.34)"/><path class="cls-16" d="M84.32,103.5a.74.74,0,0,1,0,1.4l-13.47,7.83a2.66,2.66,0,0,1-2.41,0l-15.62-9a.74.74,0,0,1,0-1.4l13.47-7.83a2.69,2.69,0,0,1,2.41,0Z" transform="translate(-6.21 -27.34)"/><path class="cls-30" d="M58.67,94.59,56,96c-.95,4.32-.41,7.4,1.58,9.48,2.87,3,8.83,5.25,14.38,4,4.12-.94,7.28-5.3,12.07-8.72l4.24-2.17c.29-4.38,0-5.8-2.07-6.49-3.83-1.32-10.39,2.12-15.4,4.57Z" transform="translate(-6.21 -27.34)"/><path class="cls-17" d="M75,60.54c.41-.55,1.08-.69,2.21-1.68.76-.83,1.36-1,1.71-.87s.49.32,0,1.07l-1.27,1.58,1.56-.12.88-.31,1.91-2c.58-.67.88-.23,1.53.48.94.87-.34,2.21-1.49,3.83-1.17,1.29-.94,1.53-2.63,1.71l-2.63.28-1,1.52L73,64.16a11.32,11.32,0,0,0,1.1-1.32C74.58,61.94,74.47,61.26,75,60.54Z" transform="translate(-6.21 -27.34)"/><path class="cls-33" d="M68.12,75.13,73.3,63c1.29-.59,3.63,1.25,3.93,2.2A138.55,138.55,0,0,1,72.5,82.39c-.77,1.88-1.68,2-3.59,1.34C65.61,82.55,66.89,78.38,68.12,75.13Z" transform="translate(-6.21 -27.34)"/><path class="cls-33" d="M68.66,65.9c4.8,2.76,7.42,5.74,5.87,6.65s-6.71-.61-11.5-3.38-7.42-5.74-5.86-6.65S63.87,63.13,68.66,65.9Z" transform="translate(-6.21 -27.34)"/><path class="cls-17" d="M60.88,56.31c.62,5.22.71,4.13-.56,9.39l6.78,3.17c-.57-7.39.23-8.12,2.3-15.17Z" transform="translate(-6.21 -27.34)"/><circle class="cls-20" cx="60.81" cy="28.81" r="7.26"/><path class="cls-34" d="M71.81,58.27a1.52,1.52,0,0,0-2.3-1.19,2,2,0,0,0-.53,2.1,5.71,5.71,0,0,0,1.21,1.94,33.73,33.73,0,0,1-7.39,3.73l-3.25-4.71a7.8,7.8,0,0,1-1.22-2.27,9.09,9.09,0,0,1,1.51-6.73,9.6,9.6,0,0,1,6.94-3.27c2.13-.17,4.71,1.3,6.09,3C74.68,53,72.66,55.92,71.81,58.27Z" transform="translate(-6.21 -27.34)"/><path class="cls-35" d="M60.85,62.81a7.24,7.24,0,0,0,6.14.8l.56,1.68c-1.66,2.3-7.33,2.16-7.2-.67Z" transform="translate(-6.21 -27.34)"/><path class="cls-33" d="M60.31,64.44c-1.25-.58-1.56-2.12-2.77-2a3.62,3.62,0,0,0-1.15.51c-1.43.76-2.51,3.05-2.83,5.5-1.09,8.57,2.77,9.75,2.33,20.23-.08,2-.64,7.47-1.15,11.13.32,1.52,1.87,2.92,3.48,4l.67-7.16.79,8.11a11,11,0,0,0,3.93,2.47c2.85,1.31,10.57,3,10.51-.35-.08-4.75-1-9.6-.59-15.35.57-8.44,2.59-16.43,1.83-18.28a10.19,10.19,0,0,0-3.56-4.9C69.88,67,69.29,66.4,67.45,65,63.87,66.77,60.69,65.59,60.31,64.44Z" transform="translate(-6.21 -27.34)"/><path class="cls-17" d="M84.63,81.39A11.26,11.26,0,0,0,87.72,78a5,5,0,0,1,1.81-1.7c1-.6,3.43-.2,5.49-.55a1.5,1.5,0,0,1,1.84,1.48c.11,1.25-1.4,2-2.47,3a11.39,11.39,0,0,1-2.72,2c-.86.45-2,.71-2.85,1.17l-2.13,1.55-1.92-3.35.06,0Z" transform="translate(-6.21 -27.34)"/><path class="cls-33" d="M75.13,86.51l10.71-6.68a9.75,9.75,0,0,1,3.38,3.83,155,155,0,0,1-15,11.28c-1.77,1-2.54.54-3.66-1.13C68.62,90.87,72.17,88.35,75.13,86.51Z" transform="translate(-6.21 -27.34)"/><path class="cls-33" d="M73.52,69.83c1.64,1.42,1.76,1.8,2.11,2.81,1.05,3.07.57,9.45.65,14.71-.23,4.33.73,6.94-3.53,7.28-2,.28-2.56-.46-3-2.43L67.23,79.46C66.61,72,71.3,68.82,73.52,69.83Z" transform="translate(-6.21 -27.34)"/><path class="cls-14" d="M68.46,94.89l0,8.39a1,1,0,0,1,0,.26h0a.65.65,0,0,1-.07.21h0l-.07.11a.55.55,0,0,1-.19.18L70,103a.85.85,0,0,0,.19-.19s0,0,0,0l0-.08h0a.14.14,0,0,0,0-.06l0-.07s0,0,0-.06v0h0v0a.11.11,0,0,0,0-.05v-.18h0l0-8.39Z" transform="translate(-6.21 -27.34)"/><path class="cls-16" d="M67.72,93.18h0a1.59,1.59,0,0,1,.2.24h0c.07.09.12.18.18.27h0l.14.28h0c0,.1.08.2.11.29h0c0,.1,0,.2.07.3h0c0,.1,0,.2,0,.29l1.87-1.08v-.06s0,0,0-.06v0s0,0,0-.06v-.06h0a.09.09,0,0,0,0-.05.17.17,0,0,0,0-.07v-.06s0,0,0-.06l0-.06h0l0-.06,0-.06a.14.14,0,0,1,0-.06l0-.06s0,0,0,0h0l0-.06,0-.06a.3.3,0,0,0,0-.08.25.25,0,0,0,0-.07v0h0l-.09-.15-.07-.1h0l-.06-.07a.12.12,0,0,0,0,0l0-.06-.05,0h0l0,0a.12.12,0,0,0,0,0l0-.05-.06,0,0,0h0l0,0,0,0-.06,0,0,0a.1.1,0,0,0-.05,0h0l-15.61-9,0,0,0,0-.05,0,0,0,0,0h-.05l0,0h-.35l-.08,0-.09.05L50.78,83.7a.55.55,0,0,1,.18-.06h.21l.22,0h0a1.34,1.34,0,0,1,.24.12l15.62,9a1.77,1.77,0,0,1,.24.17h0A2.18,2.18,0,0,1,67.72,93.18Z" transform="translate(-6.21 -27.34)"/><path class="cls-15" d="M67.26,92.8l-15.62-9c-.67-.39-1.21-.08-1.21.69l0,8.39A2.68,2.68,0,0,0,51.61,95l15.61,9c.67.38,1.22.07,1.22-.7l0-8.39A2.65,2.65,0,0,0,67.26,92.8Z" transform="translate(-6.21 -27.34)"/><path class="cls-26" d="M63.23,113.61l0-16.07-1.54-.9,0,16.07a3.39,3.39,0,0,0,.47,1.86,1.94,1.94,0,0,0,.67.64l1.54.9A2.72,2.72,0,0,1,63.23,113.61Z" transform="translate(-6.21 -27.34)"/><polygon class="cls-16" points="56.97 70.2 55.43 69.31 56.46 68.71 58.01 69.61 56.97 70.2"/><path class="cls-25" d="M67.14,114.65c-1.58.91-2.87.18-2.88-1.64l0-16.07-1,.6,0,16.07c0,2.48,1.76,3.47,3.91,2.23Z" transform="translate(-6.21 -27.34)"/><path class="cls-26" d="M53.56,107.91l0-16.07L52,90.94,52,107a3.35,3.35,0,0,0,.47,1.85,2,2,0,0,0,.67.65l1.54.9A2.76,2.76,0,0,1,53.56,107.91Z" transform="translate(-6.21 -27.34)"/><polygon class="cls-16" points="47.31 64.5 45.77 63.6 46.8 63 48.34 63.9 47.31 64.5"/><path class="cls-25" d="M57.47,109c-1.58.91-2.87.17-2.87-1.64l-.05-16.07-1,.6,0,16.07c0,2.47,1.77,3.47,3.92,2.23Z" transform="translate(-6.21 -27.34)"/><path class="cls-17" d="M128.78,49.46c-1.59,3.4.27,11.7.95,15.72l3,.62c0-.2.61-.63.62-.84.2-4.19.74-10.4.07-14.14-.28-1.55-1.29-2.78-2.44-2.75A2.83,2.83,0,0,0,128.78,49.46Z" transform="translate(-6.21 -27.34)"/><polygon class="cls-36" points="110.07 27.41 97.96 20.63 103.92 34.66 116.02 41.43 110.07 27.41"/><circle class="cls-20" cx="112.85" cy="34.44" r="2.83"/><circle class="cls-20" cx="101.25" cy="26.98" r="2.83"/><path class="cls-17" d="M131.37,62.56c-3.48-.78-6.47-1.32-10.19-2.08a25.49,25.49,0,0,0-.05,2.65c3.09,1.19,5.79,2.39,9.14,3.37,1.78.52,2.72-.32,3-1.25S133.16,63,131.37,62.56Z" transform="translate(-6.21 -27.34)"/><path class="cls-6" d="M128.58,49.37c-.77,1.63-.83,5.13-.53,8l6.12-.33a40.3,40.3,0,0,0-.57-6.15c-.29-1.6-1.4-3.15-2.58-3.11A3.29,3.29,0,0,0,128.58,49.37Z" transform="translate(-6.21 -27.34)"/></g></g></svg>