<svg xmlns="http://www.w3.org/2000/svg" viewBox="0 0 185.79 158.72"><defs><style>.cls-1{isolation:isolate;}.cls-2{fill:#f18743;}.cls-3{fill:#f4aa82;}.cls-4{fill:#f09665;}.cls-5{fill:#d9d9d9;mix-blend-mode:multiply;}.cls-6{fill:#6673b6;}.cls-7{fill:#f6bbc6;}.cls-8{fill:#4d4a81;}.cls-9{fill:#f0c58a;}.cls-10{fill:#f8f8fc;}.cls-11{fill:#4d4471;}.cls-12{fill:#ef7967;}.cls-13{fill:#2a2f59;}.cls-14{fill:#c6c3e3;}.cls-15{fill:#8782bd;}.cls-16{fill:#5b5b5a;}.cls-17,.cls-21{fill:#303b45;}.cls-18{fill:#dfe5ee;}.cls-19{fill:#242550;}.cls-20{fill:#ebebeb;}.cls-21{opacity:0.5;}.cls-22{fill:#353430;}.cls-23{fill:#eaeaea;}.cls-24,.cls-25,.cls-26,.cls-27{fill:none;}.cls-24{stroke:#fbc01f;}.cls-24,.cls-25{stroke-miterlimit:10;stroke-width:1.03px;}.cls-25{stroke:#4294ce;}.cls-26,.cls-27{stroke:#4d4a81;stroke-linecap:round;stroke-linejoin:round;}.cls-26{stroke-width:3.36px;}.cls-27{stroke-width:3px;}</style></defs><title>G08_16_02</title><g class="cls-1"><g id="Livello_1" data-name="Livello 1"><polygon class="cls-2" points="185.79 101.2 185.79 105.95 96.32 158.72 96.32 153.97 185.79 101.2"/><polygon class="cls-3" points="96.32 153.97 96.32 158.72 0.22 102.99 0.22 98.24 96.32 153.97"/><polygon class="cls-4" points="96.1 153.99 0 98.26 0 97.99 90.31 46.09 185.79 101.21 96.25 154.08 96.1 153.99"/></g><g id="Livello_2" data-name="Livello 2"><ellipse class="cls-5" cx="60.49" cy="98.24" rx="41.1" ry="21.37"/><ellipse class="cls-5" cx="113.26" cy="101.69" rx="51.32" ry="26.68"/><path class="cls-6" d="M102.93,41s3.76,2.29,3,9S107,60.34,107,60.34l6.39,7.14s-1.78,2.35-3.58,1-8.91-7.63-9.35-9.73-1-5.41-1-5.41Z" transform="translate(-6.21 -7.53)"/><path class="cls-7" d="M114.73,69.86a1.92,1.92,0,1,1-1.37-2.35A1.93,1.93,0,0,1,114.73,69.86Z" transform="translate(-6.21 -7.53)"/><path class="cls-8" d="M94.36,104.25a9.92,9.92,0,0,0-.77,3.06,2,2,0,0,0,.6,1.54,26.06,26.06,0,0,0,2.74.6c.63,0,2.7,1.68,4.21,1.79s3.44.56,3.65-.63-7.44-5.94-7.44-5.94Z" transform="translate(-6.21 -7.53)"/><path class="cls-9" d="M94.69,100.61l-.31,4.11s-.09,1,1.23,1a1.74,1.74,0,0,0,1.74-1.09l.93-6.14Z" transform="translate(-6.21 -7.53)"/><path class="cls-9" d="M85.73,104.29,85,108s.24,1.31,1.43,1.13,1.55-1.79,1.55-1.79l.71-3.93Z" transform="translate(-6.21 -7.53)"/><path class="cls-8" d="M85.08,107.39s.35,1.22,1.31,1.16,1.55-1.22,1.55-1.22l-.24,3.81s-.54,5.72-2.2,6.32-1.94-1.75-2-2.56A12,12,0,0,1,85.08,107.39Z" transform="translate(-6.21 -7.53)"/><path class="cls-8" d="M88.25,64.78s.32,6,.63,7.08-.63,15.75-.63,15.75S85,104.93,85.1,105.88s2.84.47,3.47-.48S93.13,90.13,93.76,86s2.52-13.55,2.52-13.55.16,11.5.16,12.44-2,18.11-2,18.11.08.51,1.67.74a1.93,1.93,0,0,0,1.81-.72c.94-1.54,1.25-4.9,1.25-4.9s4.56-19.52,4.25-21.57.63-15.75.63-15.75l-2.52-.94Z" transform="translate(-6.21 -7.53)"/><path class="cls-6" d="M94.25,41.55s5.23-1.68,7.37-1.15a3.89,3.89,0,0,1,3,2.68c.18.72-.71,18.05-.71,18.05s-9.29,7.68-13.23,5.72c-2.83-1.42-3.06-3-3-3.81a9.8,9.8,0,0,0,.08-1.43l2.92-17.68Z" transform="translate(-6.21 -7.53)"/><path class="cls-7" d="M95,76.72a1.93,1.93,0,1,1-1.93-1.93A1.93,1.93,0,0,1,95,76.72Z" transform="translate(-6.21 -7.53)"/><path class="cls-6" d="M99.85,45.7s-7.17-2.72-9.1-1.77a10.6,10.6,0,0,0-4.67,6.57c-.5,2.59-1.21,14.47-.91,15S90.79,75.8,90.79,75.8s2,.69,2.9-.16-2.65-11.17-3-13.79,1.57-9.56,1.57-9.56S100.48,46.91,99.85,45.7Z" transform="translate(-6.21 -7.53)"/><path class="cls-10" d="M95.79,41.54s-1.92.54-2.1,1,1.25,2.5,2.76,3.61A9.86,9.86,0,0,0,99,47.55a8.34,8.34,0,0,0,1.69-5C100.59,39.67,95.79,41.54,95.79,41.54Z" transform="translate(-6.21 -7.53)"/><circle class="cls-7" cx="98.71" cy="34.87" r="5.21" transform="translate(42.24 119.17) rotate(-80.76)"/><path class="cls-7" d="M100.92,37.36l-1.77,5.36h0a3.33,3.33,0,0,1-3.74.39h0a.83.83,0,0,1-.41-.93L96.32,37Z" transform="translate(-6.21 -7.53)"/><path class="cls-8" d="M103,33.65a1.29,1.29,0,0,0,.66-.45l0,0a5.21,5.21,0,0,0-10.13,1.7,5.06,5.06,0,0,0,0,.68,1.64,1.64,0,0,0,.7,0c.52-.13,2-1.37,1.56-2l.57.92a1.28,1.28,0,0,0,.42-1.12A7.74,7.74,0,0,0,103,33.65Z" transform="translate(-6.21 -7.53)"/><path class="cls-7" d="M95.73,35a1.59,1.59,0,1,1-1.59-1.59A1.59,1.59,0,0,1,95.73,35Z" transform="translate(-6.21 -7.53)"/><path class="cls-11" d="M143.24,33.59a1.91,1.91,0,0,0-.68,1.86c.19.51.76.8.95,1.31.35,1-.74,1.83-.79,2.84,0,.77.54,1.43.73,2.18a6.54,6.54,0,0,1,0,2.07,2.2,2.2,0,0,0,.63,1.9,2.34,2.34,0,0,0,2.49-.17,4.55,4.55,0,0,1,2.44-.89c.72.06,1.34.53,2,.6A2.6,2.6,0,0,0,153.29,44a3.38,3.38,0,0,0,.48-2.62,2.43,2.43,0,0,0-1.88-1.77,2.42,2.42,0,0,0,.68-2.84,6,6,0,0,0-2.51-2.13,1.51,1.51,0,0,1-.6-.6,1.63,1.63,0,0,1,0-.9,11.79,11.79,0,0,0,.11-5.12c-.48-2.51-3.4-4.15-5.15-1.61a5.13,5.13,0,0,0-.52,3.25C144.11,31.44,144.62,32.13,143.24,33.59Z" transform="translate(-6.21 -7.53)"/><path class="cls-11" d="M154.76,31.22c.68.18,1.43.53,1.56,1.22.11.53-.21,1.08-.1,1.62.2,1,1.6,1.16,2.17,2,.44.64.3,1.5.53,2.24A7,7,0,0,0,160,40a2.2,2.2,0,0,1,.48,1.94c-.3.83-1.31,1.13-2.2,1.19a4.44,4.44,0,0,0-2.54.54c-.57.43-.85,1.16-1.42,1.59a2.59,2.59,0,0,1-2.61.08,3.35,3.35,0,0,1-1.79-2,2.43,2.43,0,0,1,.65-2.51,2.41,2.41,0,0,1-2.08-2,6,6,0,0,1,1-3.14,1.36,1.36,0,0,0,.19-.83,1.55,1.55,0,0,0-.52-.73,12.05,12.05,0,0,1-2.82-4.28c-.91-2.38.68-5.33,3.52-4.1a5.09,5.09,0,0,1,2.16,2.48C152.88,29.87,152.81,30.72,154.76,31.22Z" transform="translate(-6.21 -7.53)"/><path class="cls-7" d="M138.68,61.65a1.86,1.86,0,1,1-1.93-1.78A1.86,1.86,0,0,1,138.68,61.65Z" transform="translate(-6.21 -7.53)"/><path class="cls-7" d="M138,60.68s4.9-9.12,5.37-9.4S146.27,40,147,37.5a6.45,6.45,0,0,0,.2-1l-.78-.16a6.33,6.33,0,0,0-1.67-.22,4.21,4.21,0,0,0-2.46,1.11A8.17,8.17,0,0,0,141,38.57c.15,2.56.36,6.61-.26,8.2-1.65,4.25-4.06,10.86-4.54,13.4C136,61.37,138,60.68,138,60.68Z" transform="translate(-6.21 -7.53)"/><path class="cls-8" d="M151.19,96.39a9.84,9.84,0,0,1,.75,3c0,1.09-.42,1.39-.42,1.39a23.54,23.54,0,0,1-2.8.68c-.61,0-1.63,1-3.08,1.11s-3.33.54-3.53-.61c-.12-.7,1.67-1.36,3.79-2.79a11.56,11.56,0,0,0,2.41-2.32Z" transform="translate(-6.21 -7.53)"/><path class="cls-8" d="M160.16,99.43s-.12,1-1,1a2.92,2.92,0,0,1-1.72-1l.23,3.68s.52,5.52,2.13,6.1c1.15.41,1.65-1,1.85-1.89a2.37,2.37,0,0,0,0-1.06Z" transform="translate(-6.21 -7.53)"/><path class="cls-7" d="M157.09,80.32s-.91-14.14-.6-15.2.6-6.85.6-6.85l-12.77-4.71-1.6,1.58s.08,12.56-.22,14.54,5.81,27.12,5.81,27.12a1.68,1.68,0,0,0,1.68,1c1.27-.06,1.19-1,1.19-1s-2-18.2-2-19.11.15-12,.15-12,1.82,9.12,2.43,13.07,5.63,20.57,5.63,20.57.34,1.55,1.49,1.73,1.38-1.1,1.38-1.1Z" transform="translate(-6.21 -7.53)"/><path class="cls-9" d="M140.73,69.14a7.93,7.93,0,0,0,8.51,6.68c7.59-.23,10.81-4.38,10.81-4.38S157,57.49,157,56.57s-.81.15-.81.15l-12.58-2.3L142,57.89Z" transform="translate(-6.21 -7.53)"/><path class="cls-7" d="M150.78,96.45l-2.47.35a11.56,11.56,0,0,1-2.41,2.32c-.5.33-1,.63-1.42.89a.29.29,0,0,0,0,.13c0,.32.43.44.75.46a11.32,11.32,0,0,0,4.59-1,2.32,2.32,0,0,0,1-.6,1.77,1.77,0,0,0,.35-1.05A2.1,2.1,0,0,0,150.78,96.45Z" transform="translate(-6.21 -7.53)"/><path class="cls-7" d="M158.11,102.06a18.09,18.09,0,0,0,.69,2.16c.11.27.27.56.55.63a.71.71,0,0,0,.66-.27,2.1,2.1,0,0,0,.4-1.15,11.65,11.65,0,0,0-.14-3.68c-.12-.56-.34-1.18-.88-1.36a1.73,1.73,0,0,0-1.38.34,1.29,1.29,0,0,0-.56.47c-.13.26,0,.52.08.78C157.73,100.68,157.92,101.37,158.11,102.06Z" transform="translate(-6.21 -7.53)"/><path class="cls-6" d="M151.3,35.84s-4.28-1-6.35-.52A3.74,3.74,0,0,0,142,37.91a43.49,43.49,0,0,0-.72,4.43c-.07,2.85,2.74,6.22,2.74,6.22l-2.4,9s10.5,4,13.07,2.74c2.74-1.37,3-2.92,2.87-3.68-.05-.45-1.8-5.85-1.78-6.31l1.39-7.78a4.94,4.94,0,0,0-2-3.88Z" transform="translate(-6.21 -7.53)"/><path class="cls-7" d="M160.38,69.49a1.86,1.86,0,1,0,1.86-1.86A1.86,1.86,0,0,0,160.38,69.49Z" transform="translate(-6.21 -7.53)"/><path class="cls-6" d="M159,43.5a4.42,4.42,0,0,1,.15.48A4.42,4.42,0,0,0,159,43.5Z" transform="translate(-6.21 -7.53)"/><path class="cls-6" d="M155,46.2A4.13,4.13,0,0,1,156.47,44a6.1,6.1,0,0,1,1.54-.69c.25-.08.5-.18.75-.27a4.78,4.78,0,0,1,.19.48A10.24,10.24,0,0,0,154.09,38c-1.94-.77-6.62,1.78-6.62,1.78-.51,1.21,5.87,6.38,5.87,6.38s.55.73,1.28,1.78A7.76,7.76,0,0,1,155,46.2Z" transform="translate(-6.21 -7.53)"/><path class="cls-6" d="M163.38,68.6a.8.8,0,0,0,.12-.15A1.54,1.54,0,0,1,163.38,68.6Z" transform="translate(-6.21 -7.53)"/><path class="cls-6" d="M146,35.09a4.51,4.51,0,0,0-4,1.84,10.23,10.23,0,0,0-.89,1.58l1.24,7.63,0,0c1.9-3.61,3.75-7.69,3.75-7.69Z" transform="translate(-6.21 -7.53)"/><path class="cls-7" d="M149.82,35.84s1.85.51,2,.94-1.2,2.41-2.66,3.48a9.52,9.52,0,0,1-2.41,1.38,8,8,0,0,1-1.64-4.81C145.18,34,149.82,35.84,149.82,35.84Z" transform="translate(-6.21 -7.53)"/><path class="cls-7" d="M142,29.39a5,5,0,1,0,5-5A5,5,0,0,0,142,29.39Z" transform="translate(-6.21 -7.53)"/><path class="cls-7" d="M144.86,31.8,146.57,37h0a3.23,3.23,0,0,0,3.61.37h0a.8.8,0,0,0,.4-.9l-1.28-5Z" transform="translate(-6.21 -7.53)"/><path class="cls-7" d="M149.87,29.55A1.54,1.54,0,1,0,151.41,28,1.53,1.53,0,0,0,149.87,29.55Z" transform="translate(-6.21 -7.53)"/><path class="cls-7" d="M163.5,68.45s-.57-10.33-.31-10.82-3.38-11.2-4.08-13.65a8.13,8.13,0,0,0-.35-1c-.25.09-.5.19-.75.27a6.1,6.1,0,0,0-1.54.69A4.13,4.13,0,0,0,155,46.2a7.76,7.76,0,0,0-.33,1.78c1.46,2.1,3.75,5.45,4,7.13.81,4.49,2.19,11.39,3.11,13.8C162.21,70.05,163.5,68.45,163.5,68.45Z" transform="translate(-6.21 -7.53)"/><path class="cls-11" d="M147,24.36a5.18,5.18,0,0,0-4.84,3.6,7.51,7.51,0,0,0,3.35.74c.42,0,4.16-.51,4-1.17a9.23,9.23,0,0,0,.93,2.33,1.76,1.76,0,0,1,1.4-1.69l.14,0A5.17,5.17,0,0,0,147,24.36Z" transform="translate(-6.21 -7.53)"/><path class="cls-11" d="M150.42,30.64a5.36,5.36,0,0,1,.21-1.94,2.54,2.54,0,0,0-.21-1.9,2.9,2.9,0,0,0-2.56-.79,14.41,14.41,0,0,0-3.14.37c-.5.14-2.3.68-2.4,1.34s1.79,1.48,2.27,1.71A11.78,11.78,0,0,0,150.42,30.64Z" transform="translate(-6.21 -7.53)"/><path class="cls-7" d="M140.62,67a39.51,39.51,0,0,1,.07,7.44c-.53,2.93-4.79,9.74-6,11.25s-1.94-.67-1.94-.67,3.64-9.56,3.73-10.31c0-.47-.19-4.5-.37-7.5A4.39,4.39,0,0,0,140.62,67Z" transform="translate(-6.21 -7.53)"/><path class="cls-12" d="M133.63,85.29a1.75,1.75,0,1,0,2.26-1A1.76,1.76,0,0,0,133.63,85.29Z" transform="translate(-6.21 -7.53)"/><path class="cls-13" d="M137.37,122.94s-.1,2.27-.13,2.47-1,.69-2.4.41-3.35-1.95-4.05-2.63,1.5-.53,2.84-.41,1.93.16,1.93.16Z" transform="translate(-6.21 -7.53)"/><path class="cls-7" d="M136.81,90.47s1.84,7.52,1.47,10.45-.92,18.71-.91,22c0,2-1.47,1-2,.68s-2.93-20.3-2.93-25.52A9.08,9.08,0,0,1,136.81,90.47Z" transform="translate(-6.21 -7.53)"/><path class="cls-13" d="M129,125.73s-.1,2.27-.13,2.47-1,.69-2.4.41-5.36-1.6-6-2.28,1.49-.53,2.83-.41a26.36,26.36,0,0,0,3.94-.19Z" transform="translate(-6.21 -7.53)"/><path class="cls-7" d="M139.91,83.57l-6.07,5s-3.57,12.27-3.94,15.2-.92,18.71-.91,22c0,2-1.47,1-2,.68s-2.92-20.3-2.92-25.52,1.34-21.52,1.34-21.52l13.48-2.47Z" transform="translate(-6.21 -7.53)"/><path class="cls-14" d="M134.08,60.38s3.47-.31,5.12,1.78,1.37,3.51,1.51,6.06l-2.05-.1a18.91,18.91,0,0,1-1.07,3.2c-.73,1.65.92,4.3,1.28,5.58s-2.93,4.67-5.67,4.85-7.87-2-7.87-2a3.76,3.76,0,0,0,1-2.86c-.34-4.46-1.94-12.61.42-13.8A45.09,45.09,0,0,1,134.08,60.38Z" transform="translate(-6.21 -7.53)"/><path class="cls-14" d="M126.79,63.08c.88-.44,1.88-1,2.87-1.56.82.32,1.47.61,1.47.61l.56,5.52s-.31,8.78-.91,13.86a34.9,34.9,0,0,1-5.45-1.77,5.7,5.7,0,0,0,.4-3.59c-.44-2.11-2.12-4.8-2.12-6.92C123.62,65.5,125.24,63.86,126.79,63.08Z" transform="translate(-6.21 -7.53)"/><path class="cls-7" d="M133.64,54.16l.82,5.89h0a3.53,3.53,0,0,1-3.35,2.11l-.68,0-1.31-6.19Z" transform="translate(-6.21 -7.53)"/><path class="cls-15" d="M138.87,76.9l4.21,18s-4.81,6.33-10.08,7-11.37-2.57-11.37-2.57l3.7-19.58,3.73,1.32c2.85,1,6-1.52,8.49-3.24Z" transform="translate(-6.21 -7.53)"/><path class="cls-7" d="M115.7,58.61s1.09,1,1.09,1.34,1.83,11.43,1.83,11.43L117.4,74.3s-2.8,2-3-1.1.49-13.5.49-13.5Z" transform="translate(-6.21 -7.53)"/><path class="cls-7" d="M114.19,58.37a1.75,1.75,0,1,0,1.75-1.75A1.75,1.75,0,0,0,114.19,58.37Z" transform="translate(-6.21 -7.53)"/><path class="cls-7" d="M125.15,68.19s-5.45,4.36-6.5,5.41c-1.26,1.24-3.25,1.69-3.77,1.17a1.82,1.82,0,0,1-.18-2.4c.52-.52,4.64-6.33,4.64-6.33Z" transform="translate(-6.21 -7.53)"/><circle class="cls-7" cx="123.91" cy="45.23" r="5.49"/><path class="cls-14" d="M126.7,69.09c5.5.23,6.94-2.27,6.94-2.27a22.4,22.4,0,0,0-1-6.95l-4.06,1.61s-1.75.59-2.69.82c0,0-3.86.36-4.9,1.83L119.34,66s-.34,4,3.11,3.87Z" transform="translate(-6.21 -7.53)"/><path class="cls-8" d="M126.51,54.36a1.14,1.14,0,0,1,1.74-.89,1.46,1.46,0,0,1,.39,1.58,4.26,4.26,0,0,1-.91,1.47,26,26,0,0,0,5.59,2.82c.82-1.19,1.64-2.37,2.45-3.56a5.84,5.84,0,0,0,.92-1.72A6.87,6.87,0,0,0,135.55,49a7.25,7.25,0,0,0-5.24-2.47,6.1,6.1,0,0,0-4.6,2.24C124.33,50.39,125.86,52.59,126.51,54.36Z" transform="translate(-6.21 -7.53)"/><path class="cls-8" d="M138.14,61.16c-.3,1.11-1.23,2-1.26,3.17a10.47,10.47,0,0,0,.25,1.57,3.84,3.84,0,1,1-7.64.68,3.07,3.07,0,0,0-.14-1.25c-.19-.41-.61-.66-.9-1-1.09-1.32,0-3.32-.28-5-.13-.64-.78-1.59-.69-2.24.13-1.09,1.56-1.18,2-2.06.73-1.41-.08-2.56.08-4a2.89,2.89,0,0,1,3.87-2.57,6,6,0,0,1,3.76,4.13c.35,1.33.11,2.74.33,4.09S138.56,59.64,138.14,61.16Z" transform="translate(-6.21 -7.53)"/><path class="cls-16" d="M40.68,25.59l-1.78,2s-4.63,16.81-4.49,18.23,2,1.71,3.13,1.28,4.28-10.82,4.28-10.82Z" transform="translate(-6.21 -7.53)"/><path class="cls-17" d="M50.3,95.76,50,91.71,46,89.4l1,6.83s-8.5,5.26-8.27,6.59,2.38.81,4.06.7,4-2,4.68-2a28.68,28.68,0,0,0,3-.66,2.22,2.22,0,0,0,.67-1.72,11.38,11.38,0,0,0-.86-3.39Z" transform="translate(-6.21 -7.53)"/><path class="cls-17" d="M60.67,99.25h0l-.72-4.46H56.7l.79,4.37.27,4.23s.59,6.35,2.44,7,2.16-1.94,2.25-2.84C62.8,104.17,60.67,99.25,60.67,99.25Z" transform="translate(-6.21 -7.53)"/><path class="cls-16" d="M57.14,51.92s-.35,6.65-.7,7.87.7,17.49.7,17.49,3.71,16.48,3.54,17.53-3.77,1.33-4.47.29-4.49-15-5.19-19.57-2.8-15-2.8-15-.17,12.76-.17,13.81,2.52,17.21,2.52,17.21a5.21,5.21,0,0,1-2.43.82,2.13,2.13,0,0,1-2-.8A5.85,5.85,0,0,1,45.08,89S40,67.31,40.35,65s-.7-17.49-.7-17.49l2.8-1Z" transform="translate(-6.21 -7.53)"/><path class="cls-16" d="M50.48,26.12s-5.81-1.87-8.19-1.27a4.3,4.3,0,0,0-3.37,3c-.2.8.79,20,.79,20S50,56.4,54.4,54.22c3.15-1.58,3.4-3.36,3.3-4.23a10.6,10.6,0,0,1-.09-1.59l.56-17Z" transform="translate(-6.21 -7.53)"/><path class="cls-16" d="M48.78,26.12s2.12.59,2.32,1.08S49.72,30,48,31.21a11.1,11.1,0,0,1-2.76,1.58,9.22,9.22,0,0,1-1.88-5.54C43.44,24,48.78,26.12,48.78,26.12Z" transform="translate(-6.21 -7.53)"/><path class="cls-7" d="M38.87,21.8a5.79,5.79,0,1,0,3.58-7.35A5.78,5.78,0,0,0,38.87,21.8Z" transform="translate(-6.21 -7.53)"/><path class="cls-7" d="M43.07,21.47l2,6h0a3.72,3.72,0,0,0,4.15.43h0a.93.93,0,0,0,.46-1l-1.47-5.78Z" transform="translate(-6.21 -7.53)"/><path class="cls-11" d="M39.45,20.17a1.44,1.44,0,0,1-.87-.23l0,0A5.79,5.79,0,0,1,49.81,18a6.17,6.17,0,0,1,.19.74,2.05,2.05,0,0,1-.74.23c-.59.05-2.22-.52-1.72-1.17-.33.43,1,2.37.05,3-.43-.17-1.72-2.8-1.8-3.25A8.58,8.58,0,0,1,39.45,20.17Z" transform="translate(-6.21 -7.53)"/><path class="cls-16" d="M36,49h0a2.89,2.89,0,0,0,2.87-2.88h0A2.89,2.89,0,0,0,36,43.25h0a2.89,2.89,0,0,0-2.88,2.88h0A2.89,2.89,0,0,0,36,49Z" transform="translate(-6.21 -7.53)"/><path class="cls-7" d="M47.53,19a1.76,1.76,0,1,0,1.09-2.24A1.77,1.77,0,0,0,47.53,19Z" transform="translate(-6.21 -7.53)"/><path class="cls-7" d="M32.08,46.69a2.14,2.14,0,1,0,2.14-2.14A2.14,2.14,0,0,0,32.08,46.69Z" transform="translate(-6.21 -7.53)"/><polygon class="cls-18" points="24.79 34.04 31.77 38.29 33.59 40.42 26.54 36.29 24.79 34.04"/><polygon class="cls-19" points="24.79 34.04 24.47 34.45 26.13 36.78 33.38 40.85 33.59 40.42 26.54 36.29 24.79 34.04"/><path class="cls-20" d="M39.73,48.71l.18,2.81s8.7,4.1,14.27,2.46c3.23-1,3.25-3.21,3.16-4a5.73,5.73,0,0,0-.3-1.1s-1,1.48-4.58,2C48.39,51.37,39.73,48.71,39.73,48.71Z" transform="translate(-6.21 -7.53)"/><path class="cls-20" d="M43,50.07l-1-.28s4.51-14,9.76-18.66c.63-.55,2.44-2.53,3.09-2a11.21,11.21,0,0,1,.95.65,30.72,30.72,0,0,0-4.69,4.1C47.81,37.37,43,50.07,43,50.07Z" transform="translate(-6.21 -7.53)"/><path class="cls-21" d="M40.72,40.58l12,2.41L54.83,32.5l.89-.45,1.64.74.25,15.61A10.6,10.6,0,0,0,57.7,50c.09.72-.08,2.09-2,3.44-4-2.06-12-6.49-15.28-9.79A1.79,1.79,0,0,1,40.72,40.58Z" transform="translate(-6.21 -7.53)"/><path class="cls-16" d="M52.41,37.15s-.84-2.85.55-3.45c0,0,4.4-3.64,5.21-2.3a24,24,0,0,1,3.06,7.09s2.08,7.24,1.78,9.13-2.28,2.88-6.94,1S39.8,42.16,39.8,42.16l.1-2.08,13.69,1.49Z" transform="translate(-6.21 -7.53)"/><path class="cls-7" d="M36.26,40.82a2.14,2.14,0,1,0,2.14-2.13A2.14,2.14,0,0,0,36.26,40.82Z" transform="translate(-6.21 -7.53)"/><path class="cls-7" d="M35,42.74l1.54-2.36a.61.61,0,0,1,.83-.17.6.6,0,0,1,.18.83L36,43.4a.61.61,0,0,1-.83.17A.6.6,0,0,1,35,42.74Z" transform="translate(-6.21 -7.53)"/><polygon class="cls-16" points="39.97 19.54 40.86 21.68 43.75 22.08 45.44 19.39 43.36 17.04 42.86 16.9 42.93 17.55 39.97 19.54"/><polygon class="cls-22" points="39.6 22.38 41 21.96 39.97 19.54 39.6 22.38"/><circle class="cls-23" cx="41.6" cy="20.16" r="0.8"/><line class="cls-24" x1="35.06" y1="24.05" x2="37.66" y2="24.99"/><line class="cls-25" x1="35.06" y1="24.05" x2="35.91" y2="24.36"/><path class="cls-26" d="M89.83,37.49A7.09,7.09,0,0,1,92.91,28" transform="translate(-6.21 -7.53)"/><path class="cls-27" d="M83.52,40.72a14.18,14.18,0,0,1,6.16-19.07" transform="translate(-6.21 -7.53)"/><path class="cls-27" d="M77.21,44a21.25,21.25,0,0,1,9.25-28.61" transform="translate(-6.21 -7.53)"/><path class="cls-27" d="M70.9,47.17A28.34,28.34,0,0,1,83.23,9" transform="translate(-6.21 -7.53)"/></g></g></svg>