<svg xmlns="http://www.w3.org/2000/svg" xmlns:xlink="http://www.w3.org/1999/xlink" viewBox="0 0 148.94 148.94"><defs><style>.cls-1,.cls-21{fill:none;}.cls-2{clip-path:url(#clip-path);}.cls-17,.cls-3{fill:#36a9e1;}.cls-3{opacity:0.5;}.cls-4{fill:#f5bbc5;}.cls-5{fill:#adadad;}.cls-6{fill:#3a3762;}.cls-7{fill:#bb745d;}.cls-8{fill:#5b5b5a;}.cls-13,.cls-9{fill:#3d3d3c;}.cls-10{fill:#3c3c3b;}.cls-11{fill:#a9b2bd;}.cls-12{fill:#eaeaea;}.cls-13{stroke:#b2b2b2;stroke-width:0.5px;}.cls-13,.cls-21{stroke-miterlimit:10;}.cls-14{fill:#f39200;}.cls-15{fill:#e94e1b;}.cls-16{fill:#063;}.cls-18{fill:#312783;}.cls-19{fill:#f9b233;}.cls-20{fill:#be1622;}.cls-21{stroke:#eaeaea;stroke-width:4.37px;}</style><clipPath id="clip-path" transform="translate(-3.23 -2.82)"><circle class="cls-1" cx="77.73" cy="77.29" r="74.41"/></clipPath></defs><title>G08_05_01</title><g id="Marine"><g class="cls-2"><circle class="cls-3" cx="75.22" cy="74.28" r="72.28"/><path class="cls-4" d="M70.93,56.94V73.86s10,.37,19.07-.18l-.8-16.74Z" transform="translate(-3.23 -2.82)"/><path class="cls-5" d="M80.27,70.88a23.24,23.24,0,0,1-9.22-1.62l-.08.59,8.47,11.53,10-11.67v-.45A23.24,23.24,0,0,1,80.27,70.88Z" transform="translate(-3.23 -2.82)"/><path class="cls-4" d="M78.54,28.45c-10.66.94-11.49,12.92-10.74,22.91S73.35,67.7,80.16,67.81s11.32-7,12.82-16.22S95.62,26.94,78.54,28.45Z" transform="translate(-3.23 -2.82)"/><path class="cls-6" d="M89.07,38.86s-1.38,5.15,2.06,6v5.53l.74.49s.43-2.18,1.62-2.79l2-8.71Z" transform="translate(-3.23 -2.82)"/><path class="cls-7" d="M80.38,68.29c-.25,0-.5,0-.74,0-3.07-.23-7.93-4.71-7.7-4.9s5,3.64,7.77,3.85,8.31-3.64,8.53-3.44S83.27,68.29,80.38,68.29Z" transform="translate(-3.23 -2.82)"/><path class="cls-8" d="M150,76.79l-.58-8.66-2.22-10.81L121,43.63l-1.69-.07-4.7-2.64s-1.55-.44-3.21,3.81c-.56,1.42-.67,5.92-.67,5.92,0-.33,3.35,1.67,3.35,1.67a28.61,28.61,0,0,0,.9,3.24c6.51,4.63,17.83,10.89,17.83,10.89s-14.34,3.85-15.4,3.26c-1.88-1-22.72,2.23-22.72,2.23l-1.28-8.2L89.52,62s0,2.46,0,7.48c0,.42-8.36,4.91-8.36,4.91S79.44,80,79.44,80.07c0-.1-1.74-5.83-1.74-5.83s-6.65-4.19-6.65-4.62l-.12-7.85-3.34,1.92-1.67,7.5S42.32,82.63,40.43,83.68s-2.85,49.95-3.08,55.12L49,144.65l10.83,3.5,18.64,1.24L99,148.63l17.75-7.95-.17-30.62,4.31-20.57Z" transform="translate(-3.23 -2.82)"/><path class="cls-9" d="M52.65,145.15l-1-37.56c-.32-7.28-4.32-14.37-7.77-19.74-.15-.24,8.55,8.17,8.83,19.69l2.21,39S52.65,145.17,52.65,145.15Z" transform="translate(-3.23 -2.82)"/><path class="cls-9" d="M107.86,143.15l3.45-32.67c-1-7.46,1-11.38,4.31-17a9.64,9.64,0,0,1,5.23-4c.27.11-3.12,14.9-4.3,21.33l.16,28.83Z" transform="translate(-3.23 -2.82)"/><path class="cls-6" d="M72.31,38.86s1.39,5.15-2,6v5.53l-.75.49s-.43-2.18-1.62-2.79l-2-8.71Z" transform="translate(-3.23 -2.82)"/><path class="cls-4" d="M69.83,49.26s0-4.09-3.4-3.07-.34,10.53,3.4,9.85S69.83,49.26,69.83,49.26Z" transform="translate(-3.23 -2.82)"/><path class="cls-4" d="M91.48,48.94s.53-4,3.77-2.6-1,10.48-4.64,9.33S91.48,48.94,91.48,48.94Z" transform="translate(-3.23 -2.82)"/><path class="cls-8" d="M96.23,41.31s-.22-2,2-5.43c2.86-4.4-8.13-9.5-16.92-9.5H79.89c-8.8,0-19.78,5.1-16.93,9.5,2.23,3.43,2,5.43,2,5.43Z" transform="translate(-3.23 -2.82)"/><path class="cls-10" d="M96.4,43.31c0,2-7,3.63-15.72,3.63S65,45.32,65,43.31c0,0,11.63-2,15.5-2S96.4,43.31,96.4,43.31Z" transform="translate(-3.23 -2.82)"/><path class="cls-11" d="M96.4,41.31s-12-2-15.94-2-15.5,2-15.5,2v2s11.63-2,15.5-2,15.94,2,15.94,2Z" transform="translate(-3.23 -2.82)"/><polygon class="cls-9" points="67.83 66.8 65.64 61.76 67.7 60.5 67.83 66.8"/><polygon class="cls-9" points="86.26 66.89 88.54 61.76 86.26 60.37 86.26 66.89"/><path class="cls-4" d="M108.4,49.05a6.35,6.35,0,0,0,5.33-1.24c1.31-1.31,2.5-5.14,2.5-5.14s-2.75-2.77-4.18-4.25c-1-1.07-5.74-3-7-3.11a.79.79,0,0,0-.9.82l-10-3c-2.56-.84-1.94,1.2-1.94,1.2a.81.81,0,0,0-1.17.62,1.79,1.79,0,0,0,.59,1.17.5.5,0,0,0-.63.52c-.06,1.11,1.87,1.53,2.37,2,0,0-.52,0-.46.79,0,.51,1.13,1.18,1.46,1.42S104.48,48,108.4,49.05Z" transform="translate(-3.23 -2.82)"/><path class="cls-9" d="M67,73.17c-.1-.28,2.74,4.78,6.91,7l3.25-5.23-1.67,8.29A22,22,0,0,1,67,73.17Z" transform="translate(-3.23 -2.82)"/><path class="cls-9" d="M94.19,73.16c.12-.27-3.72,4.79-9.33,7l-3.25-5.23,1.66,8.29S91.91,78.35,94.19,73.16Z" transform="translate(-3.23 -2.82)"/><ellipse class="cls-12" cx="73.6" cy="75.8" rx="1.82" ry="1.01" transform="translate(-29.87 106.35) rotate(-64.26)"/><ellipse class="cls-12" cx="85.44" cy="75.97" rx="1.01" ry="1.82" transform="translate(-27.74 41.82) rotate(-25.74)"/><path class="cls-9" d="M77,150.4s-1.64-63.16,1.8-68.53c.16-.24.41,68.28.41,68.28C79.21,150.41,77,150.69,77,150.4Z" transform="translate(-3.23 -2.82)"/><path class="cls-9" d="M74.47,95.46s-7.32,3.39-9.78,4.54c-2.46-1.15-9.76-4.58-9.78-4.54-.55.89,9.73,6.4,9.74,6.39h.08S75,96.35,74.47,95.46Z" transform="translate(-3.23 -2.82)"/><path class="cls-9" d="M105.49,95.46s-7.32,3.39-9.78,4.54c-2.46-1.15-9.76-4.58-9.78-4.54-.55.89,9.72,6.4,9.74,6.39h.08S106,96.35,105.49,95.46Z" transform="translate(-3.23 -2.82)"/><circle class="cls-9" cx="61.46" cy="94.41" r="0.92"/><circle class="cls-9" cx="92.48" cy="94.41" r="0.92"/><rect class="cls-13" x="52.66" y="86.66" width="17.6" height="3.83"/><rect class="cls-14" x="82.88" y="88.3" width="2.27" height="2.61"/><rect class="cls-15" x="99.82" y="88.3" width="2.27" height="2.61"/><rect class="cls-16" x="97.55" y="88.3" width="2.27" height="2.61"/><rect class="cls-17" x="95.28" y="88.3" width="2.27" height="2.61"/><rect class="cls-18" x="85.14" y="88.3" width="7.87" height="2.61"/><rect class="cls-19" x="93.02" y="88.3" width="2.27" height="2.61"/><polygon class="cls-20" points="99.82 87.3 97.55 87.3 95.28 87.3 93.02 87.3 85.14 87.3 82.88 87.3 82.88 88.3 85.14 88.3 93.02 88.3 95.28 88.3 97.55 88.3 99.82 88.3 102.09 88.3 102.09 87.3 99.82 87.3"/><polygon class="cls-12" points="100.67 82.74 84.13 82.74 83.13 82.03 101.67 82.03 100.67 82.74"/><polygon class="cls-12" points="98.72 83.74 86.08 83.74 85.31 83.03 99.49 83.03 98.72 83.74"/><polygon class="cls-12" points="96.19 84.74 88.61 84.74 87.4 84.03 97.55 84.03 96.19 84.74"/><polygon class="cls-12" points="93.67 85.74 91.14 85.74 89.98 85.03 94.82 85.03 93.67 85.74"/><path class="cls-12" d="M93.11,84.08a2.7,2.7,0,1,1,5.4,0,4,4,0,0,0-1.13-.49,8.22,8.22,0,0,0-1.57.49,4.14,4.14,0,0,0-1.16-.49A7.8,7.8,0,0,0,93.11,84.08Z" transform="translate(-3.23 -2.82)"/><polygon class="cls-8" points="92.48 85.74 89.88 81.62 95.03 81.62 92.48 85.74"/></g><circle class="cls-21" cx="74.47" cy="74.47" r="72.28"/><circle class="cls-21" cx="74.47" cy="74.47" r="72.28"/></g></svg>