<svg xmlns="http://www.w3.org/2000/svg" viewBox="0 0 515.71 279.77"><defs><style>.cls-1,.cls-20{fill:#6f559c;}.cls-1,.cls-13,.cls-14,.cls-15,.cls-2,.cls-3,.cls-4{opacity:0.5;}.cls-2{fill:#a1b0d6;}.cls-18,.cls-3{fill:#009fe3;}.cls-17,.cls-4{fill:#f5ad1f;}.cls-5{fill:#3bb5a6;}.cls-6{fill:#fff;}.cls-12,.cls-7{fill:#ad1f17;}.cls-8{fill:#10b09c;}.cls-9{fill:#3f4855;}.cls-10{fill:#d93425;}.cls-11{fill:#019b86;}.cls-12{opacity:0.3;}.cls-13,.cls-19{fill:#009640;}.cls-14,.cls-16{fill:#e94e1b;}.cls-15,.cls-21{fill:#e6007e;}.cls-16,.cls-17,.cls-18,.cls-19,.cls-20,.cls-21{opacity:0.7;}</style></defs><title>G08_18_04</title><g id="Livello_1" data-name="Livello 1"><rect class="cls-1" y="174.18" width="515.71" height="16.8" rx="8.4" ry="8.4"/></g><g id="Workers"><rect class="cls-2" x="10.98" y="224" width="22.31" height="22.31"/><rect class="cls-3" x="99.7" y="224" width="22.31" height="22.31"/><rect class="cls-4" x="10.98" y="257.46" width="22.31" height="22.31"/><rect class="cls-1" x="201.36" y="257.46" width="22.31" height="22.31"/><polygon class="cls-5" points="381.09 91.25 409.43 91.25 409.43 103.74 407.6 103.74 397.04 119.58 381.09 119.58 381.09 91.25"/><path class="cls-6" d="M108.5,19.61H120a1.51,1.51,0,1,1,0,3h-4.25v4.52h2.61a1.51,1.51,0,1,1,0,3h-2.61V56.31h-3V30.16h-2.59a1.51,1.51,0,0,1,0-3h2.59V22.62H108.5a1.51,1.51,0,1,1,0-3Z" transform="translate(-5.09 -12.69)"/><path class="cls-6" d="M176.73,14.89h12.48a1.58,1.58,0,0,1,0,3.15h-4.74V56.31h-3V18h-4.72a1.58,1.58,0,0,1,0-3.15Z" transform="translate(-5.09 -12.69)"/><path class="cls-6" d="M162.72,37h5.39V32.89h-3.83V14.09a1.3,1.3,0,1,1,2.6,0v16h1.23V21.91a1.31,1.31,0,1,1,2.61,0V27.7h.94c.25,0,.34-.05.36-.07a.61.61,0,0,0,.07-.35v-3.8a1.31,1.31,0,1,1,2.61,0v3.71a3.37,3.37,0,0,1-.77,2.35,2.86,2.86,0,0,1-2.26,1h-.94v7.36h2.7a.5.5,0,0,0,.34-.08.88.88,0,0,0,.09-.44V33.23a1.31,1.31,0,1,1,2.61,0v4a3.59,3.59,0,0,1-.8,2.44,2.82,2.82,0,0,1-2.24,1h-2.7v6l3.07,8H165l3.07-8V39.78h-5.39a1.4,1.4,0,0,1,0-2.8Z" transform="translate(-5.09 -12.69)"/><rect class="cls-6" x="81.92" y="42.16" width="105.21" height="34.94"/><path class="cls-7" d="M95.53,73.07a4.86,4.86,0,1,0,5-4.7A4.87,4.87,0,0,0,95.53,73.07Z" transform="translate(-5.09 -12.69)"/><path class="cls-8" d="M96.8,73.11a3.6,3.6,0,1,0,3.7-3.47A3.6,3.6,0,0,0,96.8,73.11Z" transform="translate(-5.09 -12.69)"/><path class="cls-5" d="M97.41,72.54a3,3,0,1,0,3.09-2.9A3,3,0,0,0,97.41,72.54Z" transform="translate(-5.09 -12.69)"/><path class="cls-7" d="M121.08,73.07a4.86,4.86,0,1,0,5-4.7A4.86,4.86,0,0,0,121.08,73.07Z" transform="translate(-5.09 -12.69)"/><path class="cls-8" d="M122.34,73.1a3.6,3.6,0,1,0,3.71-3.47A3.6,3.6,0,0,0,122.34,73.1Z" transform="translate(-5.09 -12.69)"/><path class="cls-5" d="M123,72.53a3,3,0,1,0,3.09-2.9A3,3,0,0,0,123,72.53Z" transform="translate(-5.09 -12.69)"/><path class="cls-7" d="M146.63,73.06a4.86,4.86,0,1,0,5-4.69A4.86,4.86,0,0,0,146.63,73.06Z" transform="translate(-5.09 -12.69)"/><path class="cls-8" d="M147.89,73.1a3.6,3.6,0,1,0,3.71-3.47A3.61,3.61,0,0,0,147.89,73.1Z" transform="translate(-5.09 -12.69)"/><path class="cls-5" d="M148.51,72.53a3,3,0,1,0,3.09-2.9A3,3,0,0,0,148.51,72.53Z" transform="translate(-5.09 -12.69)"/><path class="cls-7" d="M172.18,73.06a4.86,4.86,0,1,0,5-4.69A4.85,4.85,0,0,0,172.18,73.06Z" transform="translate(-5.09 -12.69)"/><path class="cls-8" d="M173.44,73.1a3.6,3.6,0,1,0,3.71-3.48A3.61,3.61,0,0,0,173.44,73.1Z" transform="translate(-5.09 -12.69)"/><path class="cls-5" d="M174.06,72.53a3,3,0,0,0,6,.19,3,3,0,1,0-6-.19Z" transform="translate(-5.09 -12.69)"/><polygon class="cls-9" points="33.3 75.54 36.31 75.54 36.31 67.42 207.46 67.42 207.46 75.54 210.47 75.54 210.47 64.4 33.3 64.4 33.3 75.54"/><rect class="cls-9" x="207.46" y="65.9" width="3.01" height="9.63"/><rect class="cls-9" x="194.06" y="65.9" width="3.02" height="9.63"/><rect class="cls-9" x="180.66" y="65.9" width="3.02" height="9.63"/><rect class="cls-9" x="167.27" y="65.9" width="3.02" height="9.63"/><rect class="cls-9" x="153.87" y="65.9" width="3.02" height="9.63"/><rect class="cls-9" x="140.47" y="65.9" width="3.01" height="9.63"/><rect class="cls-9" x="127.08" y="65.9" width="3.01" height="9.63"/><rect class="cls-9" x="113.67" y="65.9" width="3.02" height="9.63"/><rect class="cls-9" x="100.28" y="65.9" width="3.02" height="9.63"/><rect class="cls-9" x="86.88" y="65.9" width="3.02" height="9.63"/><rect class="cls-9" x="73.48" y="65.9" width="3.02" height="9.63"/><rect class="cls-9" x="60.09" y="65.9" width="3.02" height="9.63"/><rect class="cls-9" x="46.69" y="65.9" width="3.02" height="9.63"/><rect class="cls-9" x="33.3" y="65.9" width="3.02" height="9.63"/><polygon class="cls-9" points="144.7 40.59 147.72 40.59 147.72 32.48 198.36 32.48 198.36 40.59 201.38 40.59 201.38 29.46 144.7 29.46 144.7 40.59"/><polygon class="cls-9" points="144.7 42.1 201.38 42.1 201.38 30.98 198.36 30.98 198.36 39.08 147.72 39.08 147.72 30.98 144.7 30.98 144.7 42.1"/><rect class="cls-9" x="184.96" y="30.97" width="3.01" height="9.61"/><rect class="cls-9" x="171.55" y="30.97" width="3.02" height="9.61"/><rect class="cls-9" x="158.16" y="30.97" width="3.02" height="9.61"/><polygon class="cls-9" points="66.46 40.59 69.48 40.59 69.48 32.48 120.13 32.48 120.13 40.59 123.14 40.59 123.14 29.46 66.46 29.46 66.46 40.59"/><polygon class="cls-9" points="66.46 42.1 123.14 42.1 123.14 30.98 120.13 30.98 120.13 39.08 69.48 39.08 69.48 30.98 66.46 30.98 66.46 42.1"/><rect class="cls-9" x="106.72" y="30.97" width="3.02" height="9.61"/><rect class="cls-9" x="93.32" y="30.97" width="3.02" height="9.61"/><rect class="cls-9" x="79.93" y="30.97" width="3.02" height="9.61"/><rect class="cls-6" x="33.3" y="74.09" width="177.18" height="38.81"/><path class="cls-7" d="M194.77,101.94a4.86,4.86,0,1,0,5-4.7A4.88,4.88,0,0,0,194.77,101.94Z" transform="translate(-5.09 -12.69)"/><path class="cls-8" d="M196,102a3.6,3.6,0,1,0,3.71-3.48A3.59,3.59,0,0,0,196,102Z" transform="translate(-5.09 -12.69)"/><path class="cls-5" d="M196.65,101.41a3,3,0,1,0,3.1-2.91A3,3,0,0,0,196.65,101.41Z" transform="translate(-5.09 -12.69)"/><path class="cls-7" d="M165.81,101.94a4.86,4.86,0,1,0,5-4.7A4.87,4.87,0,0,0,165.81,101.94Z" transform="translate(-5.09 -12.69)"/><path class="cls-8" d="M167.07,102a3.6,3.6,0,1,0,3.71-3.48A3.6,3.6,0,0,0,167.07,102Z" transform="translate(-5.09 -12.69)"/><path class="cls-5" d="M167.69,101.41a3,3,0,1,0,3.09-2.91A3,3,0,0,0,167.69,101.41Z" transform="translate(-5.09 -12.69)"/><path class="cls-7" d="M136.84,101.94a4.86,4.86,0,1,0,5-4.7A4.87,4.87,0,0,0,136.84,101.94Z" transform="translate(-5.09 -12.69)"/><path class="cls-8" d="M138.1,102a3.6,3.6,0,1,0,3.71-3.48A3.6,3.6,0,0,0,138.1,102Z" transform="translate(-5.09 -12.69)"/><path class="cls-5" d="M138.72,101.41a3,3,0,1,0,3.09-2.91A3,3,0,0,0,138.72,101.41Z" transform="translate(-5.09 -12.69)"/><path class="cls-7" d="M107.87,101.94a4.86,4.86,0,1,0,5-4.7A4.88,4.88,0,0,0,107.87,101.94Z" transform="translate(-5.09 -12.69)"/><path class="cls-8" d="M109.14,102a3.6,3.6,0,1,0,3.7-3.48A3.59,3.59,0,0,0,109.14,102Z" transform="translate(-5.09 -12.69)"/><path class="cls-5" d="M109.75,101.41a3,3,0,1,0,3.09-2.91A3,3,0,0,0,109.75,101.41Z" transform="translate(-5.09 -12.69)"/><path class="cls-7" d="M78.91,101.94a4.86,4.86,0,1,0,5-4.7A4.87,4.87,0,0,0,78.91,101.94Z" transform="translate(-5.09 -12.69)"/><path class="cls-8" d="M80.17,102a3.6,3.6,0,1,0,3.7-3.48A3.6,3.6,0,0,0,80.17,102Z" transform="translate(-5.09 -12.69)"/><path class="cls-5" d="M80.78,101.41a3,3,0,1,0,3.09-2.91A3,3,0,0,0,80.78,101.41Z" transform="translate(-5.09 -12.69)"/><path class="cls-7" d="M49.94,101.94a4.86,4.86,0,1,0,5-4.7A4.87,4.87,0,0,0,49.94,101.94Z" transform="translate(-5.09 -12.69)"/><path class="cls-8" d="M51.2,102a3.6,3.6,0,1,0,3.71-3.48A3.6,3.6,0,0,0,51.2,102Z" transform="translate(-5.09 -12.69)"/><path class="cls-5" d="M51.81,101.41a3,3,0,1,0,3.1-2.91A3,3,0,0,0,51.81,101.41Z" transform="translate(-5.09 -12.69)"/><polygon class="cls-9" points="2 107 5.01 107 5.01 95.44 238.76 95.44 238.76 107 241.77 107 241.77 92.42 2 92.42 2 107"/><rect class="cls-9" x="238.76" y="93.93" width="3.01" height="13.07"/><rect class="cls-9" x="220.55" y="93.93" width="3.02" height="13.07"/><rect class="cls-9" x="202.33" y="93.93" width="3.02" height="13.07"/><rect class="cls-9" x="184.12" y="93.93" width="3.02" height="13.07"/><rect class="cls-9" x="165.91" y="93.93" width="3.02" height="13.07"/><rect class="cls-9" x="147.69" y="93.93" width="3.02" height="13.07"/><rect class="cls-9" x="129.48" y="93.93" width="3.02" height="13.07"/><rect class="cls-9" x="111.27" y="93.93" width="3.02" height="13.07"/><rect class="cls-9" x="93.06" y="93.93" width="3.02" height="13.07"/><rect class="cls-9" x="74.85" y="93.93" width="3.01" height="13.07"/><rect class="cls-9" x="56.63" y="93.93" width="3.02" height="13.07"/><rect class="cls-9" x="38.42" y="93.93" width="3.01" height="13.07"/><rect class="cls-9" x="20.21" y="93.93" width="3.01" height="13.07"/><rect class="cls-9" x="2" y="93.93" width="3.02" height="13.07"/><polygon class="cls-9" points="407.6 103.74 397.04 119.58 241.77 119.58 241.77 102.57 2 102.57 2 137.17 17.07 154.26 220.66 154.26 241.77 154.26 465.72 154.26 498.14 119.58 512.23 103.74 407.6 103.74"/><polygon class="cls-9" points="66.46 42.04 81.92 49.58 81.92 41.91 66.46 42.04"/><polygon class="cls-9" points="123.14 42.04 123.14 49.58 81.92 49.58 81.92 41.91 123.14 42.04"/><polygon class="cls-9" points="201.38 42.04 185.92 49.58 185.92 41.91 201.38 42.04"/><polygon class="cls-9" points="144.7 42.04 144.7 49.58 185.92 49.58 185.92 41.91 144.7 42.04"/><polygon class="cls-10" points="465.72 154.26 241.77 154.26 220.66 154.26 17.07 154.26 2 137.17 481.69 137.17 465.72 154.26"/><polygon class="cls-6" points="485.92 132.65 2 132.65 2 128.41 489.88 128.41 485.92 132.65"/><rect class="cls-5" x="367.39" y="62.93" width="28.32" height="28.32"/><rect class="cls-10" x="339.06" y="62.93" width="28.33" height="28.32"/><rect class="cls-11" x="310.74" y="62.93" width="28.32" height="28.32"/><rect class="cls-5" x="282.41" y="62.93" width="28.33" height="28.32"/><rect class="cls-11" x="352.77" y="91.25" width="28.32" height="28.33"/><rect class="cls-5" x="324.45" y="91.25" width="28.33" height="28.33"/><rect class="cls-7" x="296.12" y="91.25" width="28.33" height="28.33"/><rect class="cls-5" x="267.8" y="91.25" width="28.33" height="28.33"/><rect class="cls-9" x="222.05" y="78.51" width="19.78" height="25.3"/><path class="cls-9" d="M291.1,65.62a1.7,1.7,0,0,0-1.69.55c-10.15-3.1-16.59-5.05-19.61-5.83a2.77,2.77,0,0,0-2.36.17A1.48,1.48,0,0,0,267,61a1.68,1.68,0,0,0-1,.64,1.77,1.77,0,0,0-.33.92C253.1,75.9,245.2,84.33,242,88.38a3.56,3.56,0,0,0-.85,2.9,5.76,5.76,0,0,0,2.32,3.27l.28.2.26.2a5.76,5.76,0,0,0,3.82,1.22,3.54,3.54,0,0,0,2.51-1.67c2.9-4.27,8.54-14.29,17.48-30.25a1.64,1.64,0,0,0,.88-.52l.28.08c3.06.67,9.66,1.86,20.06,3.7a1.7,1.7,0,0,0,3.33.15A1.69,1.69,0,0,0,291.1,65.62Zm-47,28.52,0,0-.16.19Z" transform="translate(-5.09 -12.69)"/><rect class="cls-7" x="283.96" y="54.55" width="4.51" height="8.37"/><rect class="cls-7" x="288.47" y="54.55" width="4.52" height="8.37"/><path class="cls-7" d="M486.89,167.65a7.34,7.34,0,0,0-2.34,0h0c-2,0-4.64,0-7.55.15a37.64,37.64,0,0,1-5.59-.85H21.05l-.52,4.15-9.29.87v18.57H33v-9.87c32.72,7.7,82.31,9.81,126.15,9.87H486.78a11.45,11.45,0,0,0,.11-22.89Z" transform="translate(-5.09 -12.69)"/><rect class="cls-12" x="210.47" y="95.43" width="10.07" height="7.14"/><rect class="cls-12" x="63.11" y="67.42" width="10.37" height="6.67"/><rect class="cls-12" x="49.71" y="67.42" width="10.39" height="6.67"/><rect class="cls-12" x="197.08" y="67.42" width="10.38" height="6.67"/><rect class="cls-12" x="187.14" y="67.42" width="6.92" height="6.67"/><rect class="cls-12" x="187.97" y="32.48" width="10.39" height="6.6"/><rect class="cls-12" x="179.38" y="32.48" width="5.58" height="6.6"/><rect class="cls-12" x="174.57" y="32.48" width="1.79" height="6.6"/><polygon class="cls-12" points="171.55 32.48 171.55 39.08 167.61 39.08 165.63 33.96 165.63 32.48 171.55 32.48"/><rect class="cls-12" x="147.71" y="32.48" width="10.45" height="6.6"/><polygon class="cls-12" points="163.02 33.96 161.18 38.74 161.18 32.48 163.02 32.48 163.02 33.96"/><rect class="cls-12" x="96.34" y="32.48" width="10.39" height="6.6"/><rect class="cls-12" x="82.94" y="32.48" width="10.38" height="6.6"/><rect class="cls-12" x="69.48" y="32.48" width="10.45" height="6.6"/><rect class="cls-12" x="110.66" y="32.48" width="9.47" height="6.6"/><rect class="cls-12" x="76.5" y="67.42" width="5.42" height="6.67"/><rect class="cls-12" x="36.31" y="67.42" width="10.38" height="6.67"/><rect class="cls-12" x="23.22" y="95.43" width="10.08" height="7.14"/><rect class="cls-12" x="5.01" y="95.43" width="15.2" height="7.14"/><rect class="cls-13" x="99.7" y="257.46" width="22.31" height="22.31"/><rect class="cls-14" x="201.04" y="224" width="22.31" height="22.31"/><rect class="cls-15" x="395.17" y="224" width="22.31" height="22.31"/></g><g id="Official_sources" data-name="Official sources"><path class="cls-16" d="M402,190.54h84.76a11.45,11.45,0,0,0,.11-22.89,7.34,7.34,0,0,0-2.34,0h0c-2,0-4.64,0-7.55.15a37.64,37.64,0,0,1-5.59-.85h-.57l16-17.08h0l16.45-17.6,14.09-15.84H412.68l-10.55,15.84Z" transform="translate(-5.09 -12.69)"/><path class="cls-17" d="M159.16,115.27H7.09v34.6L22.16,167H21.05l-.52,4.15-9.29.87v18.57H33v-9.87c32.72,7.7,82.31,9.81,126.15,9.87h0Z" transform="translate(-5.09 -12.69)"/><path class="cls-18" d="M246.94,190.54H402l.11-58.27H246.86Z" transform="translate(-5.09 -12.69)"/><path class="cls-19" d="M246.86,132.27v-17h-87.7v75.27h87.78Z" transform="translate(-5.09 -12.69)"/></g><g id="Newspaper"><path class="cls-20" d="M298.08,75.62V67.25h-5.69a1.68,1.68,0,0,0-1.29-1.63,1.7,1.7,0,0,0-1.69.55c-10.15-3.1-16.59-5.05-19.61-5.83a2.77,2.77,0,0,0-2.36.17A1.48,1.48,0,0,0,267,61a1.68,1.68,0,0,0-1,.64,1.77,1.77,0,0,0-.33.92C253.1,75.9,245.2,84.33,242,88.38a3.54,3.54,0,0,0-.85,2.82h-14v13.91H215.56v-28H192.23V61.68l14.12-6.89h.12V42.16h-22V18h4.74a1.58,1.58,0,0,0,0-3.15H176.73a1.58,1.58,0,0,0,0,3.15h4.72V42.16H170.72v-1.5h2.7a2.82,2.82,0,0,0,2.24-1,3.59,3.59,0,0,0,.8-2.44v-4a1.31,1.31,0,1,0-2.61,0v4.11a.88.88,0,0,1-.09.44.5.5,0,0,1-.34.08h-2.7V30.5h.94a2.86,2.86,0,0,0,2.26-1,3.37,3.37,0,0,0,.77-2.35V23.48a1.31,1.31,0,1,0-2.61,0v3.8a.61.61,0,0,1-.07.35s-.11.07-.36.07h-.94V21.91a1.31,1.31,0,1,0-2.61,0v8.18h-1.23v-16a1.3,1.3,0,1,0-2.6,0v18.8h3.83V37h-5.39a1.4,1.4,0,0,0,0,2.8h5.39v2.38H149.79v12.7H128.23V42.16H115.75v-12h2.61a1.51,1.51,0,1,0,0-3h-2.61V22.62H120a1.51,1.51,0,1,0,0-3H108.5a1.51,1.51,0,1,0,0,3h4.23v4.52h-2.59a1.51,1.51,0,0,0,0,3h2.59v12H71.55V54.79h.12L87,62.27V77.09H38.39v28H7.09v10.16H246.86l.06-19.1a3.78,3.78,0,0,0,.89,0,3.54,3.54,0,0,0,2.51-1.67c2.9-4.27,8.54-14.29,17.48-30.25a1.64,1.64,0,0,0,.88-.52l.28.08c3.06.67,9.66,1.86,20.06,3.7l0,.09v8" transform="translate(-5.09 -12.69)"/></g><g id="Criminal"><polygon class="cls-21" points="407.6 103.74 409.43 103.74 409.43 91.25 395.71 91.25 395.71 62.93 367.39 62.93 339.06 62.93 310.74 62.93 282.41 62.93 282.41 91.25 267.8 91.25 267.8 119.58 397.04 119.58 407.6 103.74"/></g></svg>