<svg xmlns="http://www.w3.org/2000/svg" xmlns:xlink="http://www.w3.org/1999/xlink" viewBox="0 0 145.65 145.65"><defs><style>.cls-1,.cls-5{fill:none;}.cls-1,.cls-3{opacity:0.8;}.cls-2{clip-path:url(#clip-path);}.cls-3{fill:#1d1d1b;}.cls-4{fill:#fff;}.cls-5{stroke:#eaeaea;stroke-miterlimit:10;stroke-width:3.92px;}</style><clipPath id="clip-path" transform="translate(-5.13 -5.13)"><circle class="cls-1" cx="77.95" cy="77.95" r="70.87"/></clipPath></defs><title>G08_03_03</title><g id="Mobile"><g class="cls-2"><circle class="cls-3" cx="73.35" cy="73.24" r="70.87"/></g><circle class="cls-4" cx="71.96" cy="91.27" r="26.32"/><circle class="cls-5" cx="72.83" cy="72.83" r="70.87"/><path class="cls-4" d="M60.43,37.51a4.1,4.1,0,0,0,.35.47,4,4,0,0,1,1.06,2.48A53.24,53.24,0,0,1,62,48.14a13.88,13.88,0,0,1-.61,3.38c-.2.64-.37,1.29-.6,1.92a3.6,3.6,0,0,1-.57,1A.7.7,0,0,1,59,54.26a4.76,4.76,0,0,1-.31-1,26,26,0,0,1-.54-5.21c0-.76.13-1.51.18-2.27.08-1,.15-2,.2-2.94s.08-2.13.12-3.19a2.86,2.86,0,0,1,.79-1.94.91.91,0,0,0,.15-.23Z" transform="translate(-5.13 -5.13)"/><path class="cls-4" d="M54.77,45.84c-.05,1.7-.08,3.41-.15,5.12a11.69,11.69,0,0,1-.24,1.86,2.34,2.34,0,0,1-1.87,1.83,12.35,12.35,0,0,1-3.26.35c-1.66,0-3.31,0-5-.08a10.3,10.3,0,0,1-2-.3,4.78,4.78,0,0,1-1.14-.55.84.84,0,0,0-1.22.12c-.36.33-.72.68-1.11,1A4.92,4.92,0,0,1,36.6,56a14,14,0,0,1-2.15.22A3.85,3.85,0,0,1,31,54.48,14.22,14.22,0,0,1,30.18,53a.55.55,0,0,1-.07-.25,6.24,6.24,0,0,1,.15-2.36,7.92,7.92,0,0,1,1.77-3,2.49,2.49,0,0,1,1.44-.61c.94-.12,1.89-.2,2.82-.36.77-.13,1-.43,1.08-1.1a5.7,5.7,0,0,1,.8-2.22c.45-.75,1.21-.79,1.9-.13a3.78,3.78,0,0,1,1.06,2,7.66,7.66,0,0,1,.16,1.35,14.21,14.21,0,0,0,.56,3.42,1.44,1.44,0,0,0,1.45,1,1.15,1.15,0,0,0,1.07-1c.1-1,.19-2.1.25-3.15s.12-2.36.15-3.55a1.51,1.51,0,0,1,.3-.89c.42-.55.81-1.14,1.25-1.68A2.14,2.14,0,0,1,47,40a.87.87,0,0,1,1.28.68,17.9,17.9,0,0,1,.2,2.07c0,2.45.07,4.9.1,7.35a.6.6,0,0,0,.25.53c.25.18.48.38.73.56a.68.68,0,0,0,.84,0,1.19,1.19,0,0,0,.65-1.2c0-2.87,0-5.74.08-8.61a5.57,5.57,0,0,1,.34-2,2.07,2.07,0,0,1,.89-1,.53.53,0,0,1,.39,0c.41.17.8.37,1.2.57a1.38,1.38,0,0,1,.7,1.21c0,.55.07,1.11.07,1.67,0,1.37,0,2.74,0,4.1Zm-18.66,7,1-.11a.55.55,0,0,0,.5-.39c.16-.57.35-1.14.45-1.71a12.77,12.77,0,0,0,.14-1.75.57.57,0,0,0-.2-.44,1.88,1.88,0,0,0-1.74-.06,3.42,3.42,0,0,0-1.7,3.88.58.58,0,0,0,.5.45Z" transform="translate(-5.13 -5.13)"/><path class="cls-4" d="M103.25,47.89c0,1.25,0,2.87,0,4.49,0,.61-.09,1.23-.16,1.84a1.07,1.07,0,0,1-1,1,9.77,9.77,0,0,1-1.79.09,14,14,0,0,1-3.74-.67,4.28,4.28,0,0,1-.77-.39c-.64-.38-1-.32-1.46.28a3.89,3.89,0,0,1-2.11,1.39,11.14,11.14,0,0,1-3.24.52A4.12,4.12,0,0,1,85.24,54a2.85,2.85,0,0,1-.34-1.38,8.69,8.69,0,0,1,.19-2.44,4,4,0,0,1,2.09-2.93,6.17,6.17,0,0,1,1.63-.45c.63-.11,1.28-.11,1.92-.2a1.29,1.29,0,0,0,1.19-.67,1.49,1.49,0,0,0,.1-.51,3.92,3.92,0,0,1,.89-2.22A1,1,0,0,1,94.46,43a3.12,3.12,0,0,1,1.32,2c.21,1.24.35,2.49.54,3.73a3.46,3.46,0,0,0,.53,1.64,1.24,1.24,0,0,0,1.73.32,1.28,1.28,0,0,0,.39-.6,4.53,4.53,0,0,0,.19-1.1c.09-1.43.15-2.87.23-4.31,0-.6.09-1.21.16-1.82a2.4,2.4,0,0,1,.5-1.13,5.25,5.25,0,0,1,1.46-1.51.85.85,0,0,1,1.41.58c.09.91.18,1.82.22,2.73C103.2,44.88,103.21,46.2,103.25,47.89ZM91.06,53V53h.36a.89.89,0,0,0,.94-.71c.24-.94.46-1.89.67-2.84A.61.61,0,0,0,93,49a1.23,1.23,0,0,0-.79-.6,2,2,0,0,0-1.78.5,4.51,4.51,0,0,0-1.2,1.69A2.57,2.57,0,0,0,89,52a.8.8,0,0,0,.53.74C90,52.84,90.55,52.91,91.06,53Z" transform="translate(-5.13 -5.13)"/><path class="cls-4" d="M124.28,46.38c0,2.17,0,4.35,0,6.53a.52.52,0,0,1-.29.51c-.61.37-1.19.79-1.83,1.11a4.1,4.1,0,0,1-1.4.45c-1.3.13-2.61.21-3.91.25-1.1,0-2.21,0-3.32-.06a8,8,0,0,1-1.42-.31.59.59,0,0,1-.44-.61c0-.76,0-1.52,0-2.27a.69.69,0,0,1,.46-.78,3.7,3.7,0,0,0,.63-.37,1.94,1.94,0,0,0,.73-1.63c.12-1.82.26-3.65.33-5.47a3.87,3.87,0,0,1,1-2.45A4.34,4.34,0,0,1,116,40.13a.83.83,0,0,1,1.24.52,15.06,15.06,0,0,1,.24,2.23c0,1.75,0,3.5.06,5.25,0,.64,0,1.27.06,1.91a1.47,1.47,0,0,0,.86,1.31,1.08,1.08,0,0,0,1.47-.54,2.9,2.9,0,0,0,.2-1.33c0-.61-.09-1.22-.1-1.83a59.14,59.14,0,0,1,.25-7.41,2.27,2.27,0,0,1,.54-1.26,1,1,0,0,1,1.15-.32c.49.16,1,.35,1.45.52a2.09,2.09,0,0,0,.43.11c.38.05.52.19.52.58v6.51Z" transform="translate(-5.13 -5.13)"/><path class="cls-4" d="M76.64,46.09l-.15,6.22A2.43,2.43,0,0,1,75,54.57a2.6,2.6,0,0,1-.65.21c-1.17.17-2.34.41-3.52.47a31.48,31.48,0,0,1-3.36-.15c-.54,0-1.08-.09-1.62-.13-.79-.08-1-.32-1.19-1.09a4.37,4.37,0,0,1,0-2,1.46,1.46,0,0,1,1-1.15.89.89,0,0,0,.64-.75c.12-.85.24-1.71.3-2.57.09-1.33.15-2.68.19-4A2.47,2.47,0,0,1,67.33,42c.42-.59.85-1.17,1.32-1.71A1,1,0,0,1,69.86,40a1,1,0,0,1,.55.92,16.69,16.69,0,0,1,.17,2c.06,2.44.1,4.88.14,7.32a.59.59,0,0,0,.25.54c.19.13.36.29.54.41a.84.84,0,0,0,1,0,1.49,1.49,0,0,0,.68-1.31c0-.67-.08-1.34-.13-2,0-.23-.07-.47-.07-.7A64.23,64.23,0,0,1,73.3,40a2.14,2.14,0,0,1,.78-1.41c.45-.36.82-.28,1.39,0a7.16,7.16,0,0,1,.9.66.63.63,0,0,1,.24.55c0,2.08,0,4.15,0,6.23Z" transform="translate(-5.13 -5.13)"/><path class="cls-4" d="M109.42,45.05c-.08,1.34-.12,2.68-.25,4a14.16,14.16,0,0,1-.44,2c-.2.79-.42,1.58-.64,2.37-.15.5-.29,1-.84,1.25a.79.79,0,0,1-1.13-.58,37.92,37.92,0,0,1-.7-4.86,11.06,11.06,0,0,1,0-1.41q.19-3.29.43-6.57c.06-.86.15-1.72.26-2.57a1.19,1.19,0,0,1,.78-1,.83.83,0,0,1,.87.2,3.44,3.44,0,0,1,1,1.66,15.69,15.69,0,0,1,.56,5v.42Z" transform="translate(-5.13 -5.13)"/><path class="cls-4" d="M82.38,44.86c0,1.24,0,2.48,0,3.71a3.63,3.63,0,0,1-.19,1c-.35,1.26-.7,2.51-1.06,3.77a6.58,6.58,0,0,1-.35.87,1,1,0,0,1-1.15.54.59.59,0,0,1-.4-.48c-.26-1.46-.57-2.91-.74-4.38a17.48,17.48,0,0,1,.08-2.7c.07-1.16.18-2.32.25-3.47s.11-2.53.21-3.79a8.27,8.27,0,0,1,.33-1.63.83.83,0,0,1,1.15-.54,1.74,1.74,0,0,1,1,.93,5.84,5.84,0,0,1,.73,2.67c0,1.18.08,2.35.11,3.53Z" transform="translate(-5.13 -5.13)"/><path class="cls-4" d="M107.23,56.2a2.43,2.43,0,0,1,1.31.42,1,1,0,0,1,.27,1.41,1.67,1.67,0,0,1-.61.36c-.12,0-.28,0-.4.08s-.21.12-.22.19a.35.35,0,0,0,.15.25,5.32,5.32,0,0,0,.66.37.88.88,0,0,1,.59.8,1,1,0,0,1-.55,1c-.68.34-1.34.71-2,1a1.33,1.33,0,0,1-1.32.09,1.59,1.59,0,0,1-.77-1.07c-.09-.5.26-.8.62-1.07a1.16,1.16,0,0,1,.22-.13c.34-.21.35-.27.11-.61s-.28-.44-.41-.66a.53.53,0,0,1,0-.61,4.38,4.38,0,0,1,1.65-1.63A3,3,0,0,1,107.23,56.2Z" transform="translate(-5.13 -5.13)"/><path class="cls-4" d="M80,56.23a2,2,0,0,1,1.25.35A1,1,0,0,1,81,58.23a3.65,3.65,0,0,1-.59.16.49.49,0,0,0-.27.16s.06.2.14.25c.26.16.54.31.81.46h0c.77.43.81,1.15,0,1.61s-1.34.71-2,1.07a1.23,1.23,0,0,0-.25.14.83.83,0,0,1-1.09.07,1.74,1.74,0,0,1-.77-.86,1,1,0,0,1,.24-1.11l.48-.44a.42.42,0,0,0,.07-.63,3,3,0,0,1-.27-.5,1.07,1.07,0,0,1,.22-1.12,14.82,14.82,0,0,1,1.08-1A1.45,1.45,0,0,1,80,56.23Z" transform="translate(-5.13 -5.13)"/><path d="M69.51,107.71a2.29,2.29,0,0,0-.37,0,1.39,1.39,0,0,1-1.25-.51.79.79,0,0,1,0-1,2.06,2.06,0,0,1,1.18-.72,2.9,2.9,0,0,1,1.83.24,7.58,7.58,0,0,1,2,1.21,4.54,4.54,0,0,1,1.31,1.86,1.54,1.54,0,0,0,.49.62c.23.18.41.14.61-.09a1.41,1.41,0,0,0,.29-.4,1.64,1.64,0,0,1,1.16-.9,9.23,9.23,0,0,1,1.28-.21,2.58,2.58,0,0,1,2.39,1.27c.08.12.14.24.21.36a1,1,0,0,0,.72.55l1.91.28a1.51,1.51,0,0,0,1-.28c.36-.22.36-.52,0-.75s-.63-.36-1-.54a2.11,2.11,0,0,1-1-1.12.77.77,0,0,1,.74-1,2.91,2.91,0,0,1,.59.1c.38.11.53.07.75-.27s.52-.91.84-1.32a4.18,4.18,0,0,1,.85-.83,1.33,1.33,0,0,1,1.41-.14,2.49,2.49,0,0,1,1.41,1.29,1,1,0,0,1,.06.35,3.15,3.15,0,0,1-.61,1.67,5.75,5.75,0,0,1-.46.64,1,1,0,0,1-1.49.21c-.16-.1-.3-.23-.46-.33a.69.69,0,0,0-.31-.13,1.66,1.66,0,0,0-.41.14c.07.13.11.3.22.37.32.22.69.37,1,.59a3.34,3.34,0,0,1,.69.55.86.86,0,0,1-.08,1.4,8,8,0,0,1-1.46.89,6.32,6.32,0,0,1-3.82.28,8.82,8.82,0,0,0-1.24-.18A1.27,1.27,0,0,0,80,112c-.46.2-.9.44-1.36.6a2.21,2.21,0,0,1-2.07-.4c-.41-.28-.79-.58-1.21-.83a2.2,2.2,0,0,0-2.28-.13,6.25,6.25,0,0,1-2,.49,7.19,7.19,0,0,1-1.53.13,2,2,0,0,1-1.62-.72,1.19,1.19,0,0,1,0-1.34,1,1,0,0,1,1.22-.44c.4.15.78.34,1.18.48a3,3,0,0,0,.79.14.69.69,0,0,0,.71-1,2,2,0,0,0-1.91-1.35h-.36ZM78,111.23a1,1,0,0,0,.8-.67.37.37,0,0,0,0-.21,7,7,0,0,0-.35-.73.48.48,0,0,0-.65-.21,5.82,5.82,0,0,0-.91.73.4.4,0,0,0,0,.37A1.79,1.79,0,0,0,78,111.23Zm8.92-4.82s.17-.13.19-.23-.2-.38-.38-.35a.52.52,0,0,0-.32.24C86.34,106.2,86.61,106.4,86.91,106.41Z" transform="translate(-5.13 -5.13)"/><path d="M76,88.5c-.83-.1-1.65-.18-2.45-.3a2.68,2.68,0,0,1-.76-.28c-.5-.26-.76-.24-1.12.19a2.87,2.87,0,0,1-1.82.91,4.64,4.64,0,0,1-1.74.1,2.52,2.52,0,0,1-1.78-1.36,2.57,2.57,0,0,1,0-2.31c.07-.17.11-.35.17-.52a2,2,0,0,1,1.93-1.39,2.61,2.61,0,0,0,1.71-.5,1.28,1.28,0,0,0,.37-.54,3.76,3.76,0,0,0,.17-.68.85.85,0,0,1,.75-.67.68.68,0,0,1,.72.38,3.49,3.49,0,0,1,.53,1.58A16.52,16.52,0,0,0,73,85.33a.86.86,0,0,0,1.33.51.72.72,0,0,0,.28-.39c.07-.41.1-.83.13-1.25.06-1,.08-1.91.19-2.86a2.39,2.39,0,0,1,.92-1.62.64.64,0,0,1,1.06.42c.08.89.1,1.79.11,2.68s0,1.67,0,2.51a1,1,0,0,0,.78.85.76.76,0,0,0,.79-.38.91.91,0,0,0,.11-.42,10.93,10.93,0,0,0-.06-1.15,23,23,0,0,1,.11-4.54,1.5,1.5,0,0,1,.24-.71c.43-.61,1-.48,1.52,0a1.16,1.16,0,0,1,.28,1,26.49,26.49,0,0,0,0,3.78,19.43,19.43,0,0,1-.14,2.95,1.53,1.53,0,0,1-1,1.38,4.43,4.43,0,0,1-1.15.23C77.62,88.42,76.79,88.45,76,88.5Zm-6.47-1.32c.7,0,.92,0,1.19-.8a5.86,5.86,0,0,0,.23-1.25.65.65,0,0,0-.51-.67,1.6,1.6,0,0,0-1.12.26,2.28,2.28,0,0,0-.82,1.49.71.71,0,0,0,.26.74A1,1,0,0,0,69.51,87.18Z" transform="translate(-5.13 -5.13)"/><path d="M82.1,99.68c-1.32-.13-2.63-.28-3.95-.37a10.41,10.41,0,0,1-2.42-.5,4.55,4.55,0,0,0-1.15-.2.86.86,0,0,0-1,.76,1.43,1.43,0,0,1-.61,1,7,7,0,0,1-2.6,1.09,8,8,0,0,1-1,.17.54.54,0,0,1-.61-.34.58.58,0,0,1,.27-.7c.34-.21.7-.38,1.06-.56s.5-.24.74-.38.3-.36,0-.54a5,5,0,0,1-2-2.32,1.33,1.33,0,0,1,.27-1.5A4.14,4.14,0,0,1,70.84,94a1.4,1.4,0,0,1,1.65.37,5.35,5.35,0,0,1,1,1.61,1,1,0,0,0,1,.65,2.05,2.05,0,0,0,1.13-.24.64.64,0,0,0,.38-.72,5.07,5.07,0,0,1,0-1,1.07,1.07,0,0,1,.69-.91,1,1,0,0,1,1.14.31.77.77,0,0,1,.19.63l-.06,1.54c0,.58.17.77.76.77s.88-.21.92-.86a2.28,2.28,0,0,1,.4-1.41,1.17,1.17,0,0,1,1.32-.41,1.24,1.24,0,0,1,.6,1.24,7.1,7.1,0,0,1-.17.8,1,1,0,0,0,.52,1.28,1.13,1.13,0,0,0,1.32-.24.87.87,0,0,0,.2-.46c0-.31,0-.62,0-.94a2.39,2.39,0,0,1,1-1.84.86.86,0,0,1,1.3.33,2.88,2.88,0,0,1,.22.92c0,.38,0,.75,0,1.13a2.86,2.86,0,0,1-1.31,2.34,7.83,7.83,0,0,1-1.31.7,1.24,1.24,0,0,1-.51.08H82.11ZM71.28,97.55c.31,0,.45-.15.37-.45a1.39,1.39,0,0,1,.13-1,.51.51,0,0,0,0-.4.28.28,0,0,0-.44,0,2.49,2.49,0,0,0-.82,1,.44.44,0,0,0,0,.3A.89.89,0,0,0,71.28,97.55Z" transform="translate(-5.13 -5.13)"/><path d="M67.33,96c-.11,1.25-.17,2.37-.31,3.47a3.9,3.9,0,0,1-.7,1.95,2.39,2.39,0,0,1-.89.64,4.06,4.06,0,0,1-2.34.15,1.32,1.32,0,0,1-1-1c-.16-.5-.32-1-.46-1.5a2.15,2.15,0,0,1-.08-.62.49.49,0,0,1,.4-.48c.23,0,.36.11.47.29a8.54,8.54,0,0,0,.67,1,1.11,1.11,0,0,0,1.56.22l.3-.2a1.15,1.15,0,0,0,.54-1,11.26,11.26,0,0,1,.12-1.53,6.67,6.67,0,0,0-.24-2.66,2.11,2.11,0,0,1,.26-2,1.08,1.08,0,0,1,1-.34.85.85,0,0,1,.57.8C67.26,94.26,67.3,95.22,67.33,96Z" transform="translate(-5.13 -5.13)"/><path d="M91.83,95.48c-.12.47-.25,1.06-.42,1.64a13,13,0,0,0-.58,2,2.08,2.08,0,0,1-1.26,1.54,6.43,6.43,0,0,1-1,.43c-.21.08-.44.1-.58-.13a.72.72,0,0,1,.08-.74c.18-.2.39-.36.55-.56A1.77,1.77,0,0,0,89,99c.17-.92.3-1.84.44-2.76,0-.38,0-.77.11-1.14a2,2,0,0,1,1-1.28.69.69,0,0,1,.89.21A2.8,2.8,0,0,1,91.83,95.48Z" transform="translate(-5.13 -5.13)"/></g></svg>