<svg xmlns="http://www.w3.org/2000/svg" xmlns:xlink="http://www.w3.org/1999/xlink" viewBox="0 0 185.79 150.01"><defs><style>.cls-1,.cls-68{fill:none;}.cls-2{isolation:isolate;}.cls-3{fill:#f18743;}.cls-4{fill:#f4aa82;}.cls-5{fill:#f09665;}.cls-6{fill:#d9d9d9;mix-blend-mode:multiply;}.cls-7{fill:#4d4a81;}.cls-8{fill:#2f2f60;}.cls-9{fill:#f8f8fc;}.cls-10{fill:#f6bbc6;}.cls-11{fill:#492e16;}.cls-11,.cls-12,.cls-13,.cls-14,.cls-15,.cls-16,.cls-17{fill-rule:evenodd;}.cls-12{fill:#36393b;}.cls-13{fill:#808081;}.cls-14{fill:#946335;}.cls-15{fill:#66411d;}.cls-16{fill:#fff;}.cls-17{fill:#e6e6e6;}.cls-18{clip-path:url(#clip-path);}.cls-19{fill:#464545;}.cls-20{fill:#444443;}.cls-21{fill:#414142;}.cls-22{fill:#40403f;}.cls-23{fill:#3e3e3d;}.cls-24{fill:#3d3d3b;}.cls-25{fill:#3b3a3a;}.cls-26{fill:#393938;}.cls-27{fill:#383736;}.cls-28{fill:#353535;}.cls-29{fill:#343433;}.cls-30{fill:#333332;}.cls-31{fill:#313131;}.cls-32{fill:#2e2f2f;}.cls-33{fill:#2d2e2d;}.cls-34{fill:#2f2f2e;}.cls-35{clip-path:url(#clip-path-2);}.cls-36{clip-path:url(#clip-path-3);}.cls-37{fill:#a2bfbf;}.cls-38{fill:#9ebab9;}.cls-39{fill:#9bb6b4;}.cls-40{fill:#95b1af;}.cls-41{fill:#91acab;}.cls-42{fill:#8da7a7;}.cls-43{fill:#89a3a1;}.cls-44{fill:#879f9d;}.cls-45{fill:#819998;}.cls-46{fill:#7d9494;}.cls-47{fill:#4b4b4a;}.cls-48{clip-path:url(#clip-path-4);}.cls-49{clip-path:url(#clip-path-5);}.cls-50{fill:#6a7d7b;}.cls-51{fill:#6d8180;}.cls-52{fill:#b0cecc;}.cls-53{fill:#009fe3;}.cls-54{clip-path:url(#clip-path-6);}.cls-55{fill:#6d8280;}.cls-56{fill:#728686;}.cls-57{fill:#758b89;}.cls-58{fill:#7a8f8f;}.cls-59{fill:#b3b7b7;}.cls-60{fill:#261c35;}.cls-61{fill:#434342;}.cls-62{fill:#dce0e0;}.cls-63{fill:#36a9e1;}.cls-64{fill:#2a2f59;}.cls-65{fill:#c6c3e3;}.cls-66{fill:#a6daf2;}.cls-67{fill:#8782bd;}.cls-68{stroke:#3b2d7c;stroke-miterlimit:10;stroke-width:0.64px;}.cls-69{fill:#3b2d7c;}.cls-70{fill:#1e1f42;}.cls-71{fill:#4d4471;}.cls-72{fill:#dfe5ee;}.cls-73{fill:#d7dbe6;}.cls-74{fill:#575489;}.cls-75{fill:#4c4691;}</style><clipPath id="clip-path" transform="translate(-6.21 -16.24)"><path class="cls-1" d="M68.42,70.05l.55-.32a.14.14,0,0,1-.07-.12l-.55.32A.14.14,0,0,0,68.42,70.05Z"/></clipPath><clipPath id="clip-path-2" transform="translate(-6.21 -16.24)"><path class="cls-1" d="M69,59.09l-.55.32s0,0,0,.05l.55-.32A.06.06,0,0,1,69,59.09Z"/></clipPath><clipPath id="clip-path-3" transform="translate(-6.21 -16.24)"><path class="cls-1" d="M69,59.09l-.55.32h0L69,59.1S69,59.08,69,59.09Z"/></clipPath><clipPath id="clip-path-4" transform="translate(-6.21 -16.24)"><path class="cls-1" d="M83.64,78.82l.56-.32s0,0,0,0l-.56.33A0,0,0,0,0,83.64,78.82Z"/></clipPath><clipPath id="clip-path-5" transform="translate(-6.21 -16.24)"><path class="cls-1" d="M83.64,78.82l.56-.32a.06.06,0,0,0,0,0l-.56.33S83.66,78.81,83.64,78.82Z"/></clipPath><clipPath id="clip-path-6" transform="translate(-6.21 -16.24)"><path class="cls-1" d="M83.69,68.3l.56-.32a.15.15,0,0,0-.07-.12l-.56.32A.15.15,0,0,1,83.69,68.3Z"/></clipPath></defs><title>G08_09</title><g class="cls-2"><g id="Livello_1" data-name="Livello 1"><polygon class="cls-3" points="185.79 92.48 185.79 97.23 96.32 150.01 96.32 145.26 185.79 92.48"/><polygon class="cls-4" points="96.32 145.26 96.32 150.01 0.22 94.28 0.22 89.53 96.32 145.26"/><polygon class="cls-5" points="96.1 145.27 0 89.54 0 89.28 90.31 37.37 185.79 92.5 96.25 145.36 96.1 145.27"/><ellipse class="cls-6" cx="90.23" cy="89.78" rx="65.41" ry="34.02"/></g><g id="Livello_3" data-name="Livello 3"><path class="cls-7" d="M108.68,93.24a10.61,10.61,0,0,1,.8,3.16,2.06,2.06,0,0,1-.62,1.59,26.62,26.62,0,0,1-2.83.62c-.65,0-2.79,1.74-4.35,1.85s-3.55.58-3.77-.66,7.69-6.12,7.69-6.12Z" transform="translate(-6.21 -16.24)"/><path class="cls-8" d="M108.34,89.48l.33,4.25s.08,1-1.28,1.07a1.79,1.79,0,0,1-1.79-1.12l-1-6.35Z" transform="translate(-6.21 -16.24)"/><path class="cls-8" d="M117.59,93.29l.79,3.81s-.24,1.35-1.47,1.17-1.6-1.85-1.6-1.85l-.74-4Z" transform="translate(-6.21 -16.24)"/><path class="cls-7" d="M118.26,96.49s-.12,1.1-1.11,1a3.17,3.17,0,0,1-1.84-1.11l.25,3.94s.55,5.9,2.27,6.52,2.09-2.65,2.09-2.65Z" transform="translate(-6.21 -16.24)"/><path class="cls-7" d="M115,52.5s-.33,6.17-.65,7.31.65,16.26.65,16.26S118.4,94,118.24,94.92s-2.93.49-3.58-.49-4.71-15.76-5.36-20-1.6-10-1.6-10-1.17,7.86-1.17,8.83S108.65,92,108.65,92s-.08.52-1.72.76a2,2,0,0,1-1.87-.74c-1-1.59-1.29-5.06-1.29-5.06S99.06,66.8,99.38,64.69s-.65-16.26-.65-16.26l2.6-1Z" transform="translate(-6.21 -16.24)"/><path class="cls-7" d="M108.8,28.52s-5.4-1.74-7.62-1.18a4,4,0,0,0-3.13,2.76c-.19.74.74,18.63.74,18.63s9.59,13.93,13.64,11.91c2.93-1.47,3.17-3.13,3.08-3.93-.06-.49-.11-7-.09-7.48l.52-15.81Z" transform="translate(-6.21 -16.24)"/><path class="cls-7" d="M104,34.8s6.81-4,9-3.42,4.95,3.3,5.92,5.84,3.62,13.31,3.39,13.85-3.68,12.72-3.68,12.72-1.88,1.05-3,.34,1.3-10.32,1.23-13.06l-3.9-10.93S103.53,36.13,104,34.8Z" transform="translate(-6.21 -16.24)"/><path class="cls-9" d="M107.21,28.51s1.35-.25,1.54.21-2.29,2.59-3.9,6.59c-.72,1.8-2.09,6.41-2.09,6.41l-.56-7.15c0-1.12-.27-4.25.61-5.23C104.27,27.71,107.21,28.51,107.21,28.51Z" transform="translate(-6.21 -16.24)"/><circle class="cls-10" cx="104.19" cy="21.62" r="5.38" transform="translate(-8.33 0.76) rotate(-9.24)"/><path class="cls-10" d="M101.91,24.2l1.83,5.53h0a3.46,3.46,0,0,0,3.86.4h0a.85.85,0,0,0,.42-1l-1.37-5.37Z" transform="translate(-6.21 -16.24)"/><path class="cls-7" d="M99.82,20.36a1.29,1.29,0,0,1-.69-.46l0,0a5.38,5.38,0,0,1,10.46,1.75,5.52,5.52,0,0,1,0,.71,2,2,0,0,1-.73,0c-.53-.14-2-1.42-1.6-2.07l-.59,1a1.27,1.27,0,0,1-.43-1.16A7.94,7.94,0,0,1,99.82,20.36Z" transform="translate(-6.21 -16.24)"/><path class="cls-10" d="M107.27,21.8a1.64,1.64,0,1,0,1.63-1.64A1.63,1.63,0,0,0,107.27,21.8Z" transform="translate(-6.21 -16.24)"/><path class="cls-10" d="M115,66.24a2,2,0,0,0,2.6-3,2,2,0,1,0-2.6,3Z" transform="translate(-6.21 -16.24)"/><polygon class="cls-9" points="98.32 13.31 98.2 15.54 100.57 15.44 102.94 12.37 101.81 10.74 101.29 10.6 101.37 11.27 98.32 13.31"/><polygon class="cls-9" points="97.73 14.06 96.11 14.3 96.16 10.44 96.58 10.6 97.73 14.06"/><polygon class="cls-8" points="97.51 14.58 98.23 14.71 98.32 13.37 97.44 13.22 97.51 14.58"/><polygon class="cls-8" points="96.28 21.95 96.55 25.48 98.13 20.55 98.32 14.86 97.44 14.71 96.28 21.95"/><polygon class="cls-8" points="101.15 21 96.58 28.18 101.61 20.88 100.67 19.72 103.2 17.51 103.38 13.35 102.79 17.39 100.06 19.41 101.15 21"/></g><g id="Livello_2" data-name="Livello 2"><polygon class="cls-11" points="71.12 27.94 71.12 30.48 138.09 69.15 138.09 66.61 71.12 27.94"/><polygon class="cls-12" points="111.48 60.22 111.48 90.3 114.21 91.88 114.21 61.79 111.48 60.22"/><polygon class="cls-13" points="116.93 60.22 116.93 90.3 114.21 91.88 114.21 61.79 116.93 60.22"/><polygon class="cls-12" points="65.38 33.67 65.38 63.76 68.1 65.33 68.1 35.25 65.38 33.67"/><polygon class="cls-13" points="70.83 33.67 70.83 63.76 68.1 65.33 68.1 35.25 70.83 33.67"/><polygon class="cls-12" points="86.14 78 86.14 108.08 88.87 109.66 88.87 79.57 86.14 78"/><polygon class="cls-13" points="91.59 78 91.59 108.08 88.87 109.66 88.87 79.57 91.59 78"/><polygon class="cls-12" points="40.04 51.45 40.04 81.54 42.76 83.11 42.76 53.03 40.04 51.45"/><polygon class="cls-13" points="45.49 51.45 45.49 81.54 42.76 83.11 42.76 53.03 45.49 51.45"/><path class="cls-14" d="M77.33,44.2,34.52,69l67,38.66,42.8-24.83Z" transform="translate(-6.21 -16.24)"/><polygon class="cls-11" points="28.32 52.73 28.32 55.28 95.29 93.94 95.29 91.4 28.32 52.73"/><polygon class="cls-15" points="138.09 66.61 95.29 91.45 95.29 93.99 138.09 69.15 138.09 66.61"/><path class="cls-16" d="M102.19,59.54l-9.88,5.7,7.45,4.3,9.87-5.7Z" transform="translate(-6.21 -16.24)"/><path class="cls-17" d="M94.74,55.25,84.87,61l7.44,4.29,9.88-5.7Z" transform="translate(-6.21 -16.24)"/><path class="cls-17" d="M71.85,48l-8.33,7.79,8.23,2.5,8.32-7.79Z" transform="translate(-6.21 -16.24)"/><path class="cls-16" d="M71.85,48l-8.33,7.79,8-.78,8.33-7.79S73.3,48.4,71.85,48Z" transform="translate(-6.21 -16.24)"/><g class="cls-2"><g class="cls-18"><g class="cls-2"><path class="cls-19" d="M68.42,70.05l.55-.32a0,0,0,0,1,0,0l-.56.33h0" transform="translate(-6.21 -16.24)"/><polyline class="cls-20" points="62.19 53.79 62.74 53.47 62.73 53.46 62.18 53.78 62.19 53.79"/><polyline class="cls-21" points="62.18 53.78 62.73 53.46 62.73 53.45 62.17 53.78 62.18 53.78"/><polyline class="cls-22" points="62.17 53.78 62.73 53.45 62.72 53.45 62.17 53.77 62.17 53.78"/><polyline class="cls-23" points="62.17 53.77 62.72 53.45 62.72 53.44 62.16 53.76 62.17 53.77"/><polyline class="cls-24" points="62.16 53.76 62.72 53.44 62.71 53.44 62.16 53.76 62.16 53.76"/><polyline class="cls-25" points="62.16 53.76 62.71 53.44 62.71 53.43 62.16 53.75 62.16 53.76"/><polyline class="cls-26" points="62.16 53.75 62.71 53.43 62.71 53.42 62.15 53.75 62.16 53.75"/><polyline class="cls-27" points="62.15 53.75 62.71 53.42 62.7 53.42 62.15 53.74 62.15 53.75"/><polyline class="cls-28" points="62.15 53.74 62.7 53.42 62.7 53.41 62.15 53.73 62.15 53.74"/><polyline class="cls-29" points="62.15 53.73 62.7 53.41 62.7 53.41 62.15 53.73 62.15 53.73"/><polyline class="cls-30" points="62.15 53.73 62.7 53.41 62.7 53.4 62.14 53.72 62.15 53.73"/><polyline class="cls-31" points="62.14 53.72 62.7 53.4 62.69 53.39 62.14 53.71 62.14 53.72"/><polyline class="cls-32" points="62.14 53.71 62.69 53.39 62.69 53.38 62.14 53.7 62.14 53.71"/><path class="cls-33" d="M68.35,70l.55-.33h0l-.55.32v0" transform="translate(-6.21 -16.24)"/></g></g></g><polygon class="cls-34" points="62.14 53.69 62.69 53.37 62.72 42.89 62.17 43.21 62.14 53.69"/><g class="cls-2"><g class="cls-35"><g class="cls-2"><path class="cls-33" d="M68.38,59.46l.55-.32a.06.06,0,0,1,0,0l-.55.32s0,0,0,.05" transform="translate(-6.21 -16.24)"/></g></g></g><g class="cls-2"><g class="cls-36"><g class="cls-2"><polyline class="cls-37" points="62.24 43.17 62.79 42.85 62.78 42.85 62.23 43.17 62.24 43.17"/><polyline class="cls-38" points="62.23 43.17 62.78 42.85 62.77 42.84 62.22 43.17 62.23 43.17"/><polyline class="cls-39" points="62.22 43.17 62.77 42.84 62.77 42.84 62.21 43.16 62.22 43.17"/><polyline class="cls-40" points="62.21 43.16 62.77 42.84 62.76 42.84 62.21 43.16 62.21 43.16"/><polyline class="cls-41" points="62.21 43.16 62.76 42.84 62.76 42.84 62.2 43.16 62.21 43.16"/><polyline class="cls-42" points="62.2 43.16 62.76 42.84 62.75 42.84 62.2 43.16 62.2 43.16"/><polyline class="cls-43" points="62.2 43.16 62.75 42.84 62.75 42.84 62.2 43.16 62.2 43.16"/><polyline class="cls-44" points="62.2 43.16 62.75 42.84 62.75 42.84 62.19 43.17 62.2 43.16"/><polyline class="cls-45" points="62.19 43.17 62.75 42.84 62.74 42.85 62.19 43.17 62.19 43.17"/><polyline class="cls-46" points="62.19 43.17 62.74 42.85 62.74 42.85 62.19 43.17 62.19 43.17"/></g></g></g><polygon class="cls-47" points="77.38 62.57 77.94 62.25 62.76 53.49 62.21 53.81 77.38 62.57"/><g class="cls-2"><g class="cls-48"><g class="cls-2"><polyline class="cls-28" points="77.44 62.58 77.99 62.26 77.99 62.26 77.43 62.58 77.44 62.58"/><polyline class="cls-27" points="77.43 62.58 77.99 62.26 77.98 62.26 77.43 62.58 77.43 62.58"/><polyline class="cls-26" points="77.43 62.58 77.98 62.26 77.98 62.26 77.43 62.58 77.43 62.58"/><polyline class="cls-25" points="77.43 62.58 77.98 62.26 77.98 62.26 77.42 62.58 77.43 62.58"/><polyline class="cls-24" points="77.42 62.58 77.98 62.26 77.97 62.26 77.42 62.58 77.42 62.58"/><polyline class="cls-23" points="77.42 62.58 77.97 62.26 77.97 62.26 77.41 62.58 77.42 62.58"/><polyline class="cls-22" points="77.41 62.58 77.97 62.26 77.96 62.26 77.41 62.58 77.41 62.58"/><polyline class="cls-21" points="77.41 62.58 77.96 62.26 77.96 62.26 77.4 62.58 77.41 62.58"/><polyline class="cls-20" points="77.4 62.58 77.96 62.26 77.95 62.26 77.39 62.58 77.4 62.58"/><polyline class="cls-19" points="77.39 62.58 77.95 62.26 77.94 62.25 77.38 62.57 77.39 62.58"/></g></g></g><g class="cls-2"><g class="cls-49"><g class="cls-2"><path class="cls-50" d="M83.64,78.82l.56-.32a.06.06,0,0,0,0,0l-.56.33s0,0,0,0" transform="translate(-6.21 -16.24)"/></g></g></g><polygon class="cls-51" points="77.45 62.53 78.01 62.21 78.04 51.74 77.48 52.06 77.45 62.53"/><polygon class="cls-52" points="77.41 51.94 77.97 51.61 62.79 42.85 62.24 43.17 77.41 51.94"/><path class="cls-53" d="M68.45,59.42s-.07,0-.07,0l0,10.47a.14.14,0,0,0,.07.12l15.17,8.77s.07,0,.07,0l0-10.48a.15.15,0,0,0-.07-.12Z" transform="translate(-6.21 -16.24)"/><g class="cls-2"><g class="cls-54"><g class="cls-2"><path class="cls-50" d="M83.69,68.3l.56-.32h0l-.56.32h0" transform="translate(-6.21 -16.24)"/><polyline class="cls-55" points="77.48 52.04 78.04 51.72 78.04 51.71 77.48 52.03 77.48 52.04"/><polyline class="cls-56" points="77.48 52.03 78.04 51.71 78.03 51.7 77.48 52.03 77.48 52.03"/><polyline class="cls-57" points="77.48 52.03 78.03 51.7 78.03 51.7 77.48 52.02 77.48 52.03"/><polyline class="cls-58" points="77.48 52.02 78.03 51.7 78.03 51.69 77.48 52.01 77.48 52.02"/><polyline class="cls-46" points="77.48 52.01 78.03 51.69 78.03 51.68 77.47 52.01 77.48 52.01"/><polyline class="cls-45" points="77.47 52.01 78.03 51.68 78.02 51.68 77.47 52 77.47 52.01"/><polyline class="cls-44" points="77.47 52 78.02 51.68 78.02 51.67 77.47 51.99 77.47 52"/><polyline class="cls-43" points="77.47 51.99 78.02 51.67 78.02 51.67 77.46 51.99 77.47 51.99"/><polyline class="cls-42" points="77.46 51.99 78.02 51.67 78.01 51.66 77.46 51.98 77.46 51.99"/><polyline class="cls-41" points="77.46 51.98 78.01 51.66 78.01 51.65 77.46 51.98 77.46 51.98"/><polyline class="cls-40" points="77.46 51.98 78.01 51.65 78 51.65 77.45 51.97 77.46 51.98"/><polyline class="cls-39" points="77.45 51.97 78 51.65 78 51.64 77.45 51.96 77.45 51.97"/><polyline class="cls-38" points="77.45 51.96 78 51.64 77.99 51.63 77.44 51.95 77.45 51.96"/><path class="cls-37" d="M83.65,68.2l.55-.32,0,0-.56.32,0,0" transform="translate(-6.21 -16.24)"/></g></g></g><path class="cls-59" d="M85.07,68.3h0v0a.22.22,0,0,1,0-.08v0l0,0V68l0,0v0h0l0-.08h0l0-.06,0,0v0l0-.06h0l0-.07h0l0,0,0,0v0l0,0,0,0,0,0,0,0,0,0,0,0-.06-.07,0,0h0a.69.69,0,0,0-.13-.11l0,0a1.1,1.1,0,0,0-.14-.09L69,58.14a.3.3,0,0,0-.11-.06h0l-.06,0h-.38l0,0h0l-.56.32h0l.06,0h.38l.06,0h0l.11.06,15.18,8.76.14.09,0,0,.13.11,0,0,.06.07,0,0,0,0,0,0,0,0,0,.06,0,0a.41.41,0,0,1,.05.09v0a.56.56,0,0,1,0,.08v0l0,.08h0a.3.3,0,0,0,0,.1v0s0,.05,0,.08v0a.25.25,0,0,1,0,.07v0a.06.06,0,0,1,0,0,.22.22,0,0,1,0,.08v0c0,.05,0,.1,0,.15l0,10.48a.62.62,0,0,1-.27.58l.56-.32a.65.65,0,0,0,.26-.58l0-10.48A.92.92,0,0,0,85.07,68.3Z" transform="translate(-6.21 -16.24)"/><path class="cls-60" d="M83.62,67.22a2,2,0,0,1,.91,1.56l0,10.48c0,.57-.41.81-.91.52L68.41,71a2,2,0,0,1-.9-1.56l0-10.47c0-.58.41-.81.91-.52ZM68.35,69.93a.14.14,0,0,0,.07.12l15.17,8.77s.07,0,.07,0l0-10.48a.15.15,0,0,0-.07-.12L68.45,59.42s-.07,0-.07,0l0,10.47" transform="translate(-6.21 -16.24)"/><polygon class="cls-32" points="75.81 63.07 75.81 63.71 62.41 55.97 62.41 55.33 75.81 63.07"/><polygon class="cls-61" points="76.2 62.84 76.2 63.48 75.81 63.71 75.81 63.07 76.2 62.84"/><polygon class="cls-47" points="76.2 62.84 75.81 63.07 62.41 55.33 62.8 55.1 76.2 62.84"/><path class="cls-62" d="M83.13,79.5l-.72-.41-.39.22-13.4-7.74.39-.22-1-.6a2.05,2.05,0,0,0-1.84,0l-9,5.25a.56.56,0,0,0,0,1.06l15.15,8.75a2,2,0,0,0,1.83,0l9-5.25A.56.56,0,0,0,83.13,79.5Z" transform="translate(-6.21 -16.24)"/><path class="cls-59" d="M62.19,74.37l5-2.91a.67.67,0,0,1,.25-.08h.1a.57.57,0,0,1,.18,0h0l.08,0,0,0,13.91,8c.17.1.19.25.07.35l-.06,0-5,2.91a.67.67,0,0,1-.25.08h0a.58.58,0,0,1-.23,0h0l-.11,0-13.92-8a.26.26,0,0,1-.14-.2.23.23,0,0,1,0-.11,0,0,0,0,0,0,0A.22.22,0,0,1,62.19,74.37Z" transform="translate(-6.21 -16.24)"/><path class="cls-47" d="M64.59,75.8h0l.81-.47s0-.06,0-.09l-.76-.43a.14.14,0,0,0-.15,0l-.8.47c-.05,0-.05.06,0,.09l.76.43,0,0h.1" transform="translate(-6.21 -16.24)"/><path class="cls-47" d="M65.77,76.49h0l.81-.47,0,0v0h0l0,0-.75-.43a.14.14,0,0,0-.15,0L64.9,76s-.05.05,0,.08h0l.76.44,0,0h.08" transform="translate(-6.21 -16.24)"/><path class="cls-47" d="M66.84,77.17a.22.22,0,0,0,.16,0l.8-.47s0-.07,0-.09l-.76-.44a.16.16,0,0,0-.15,0l-.81.47a0,0,0,0,0,0,.08l.75.44" transform="translate(-6.21 -16.24)"/><path class="cls-47" d="M78.3,78.89s0-.06,0-.09l-.76-.44a.16.16,0,0,0-.15,0l-.66.38a0,0,0,0,0,0,.08l.76.44a.2.2,0,0,0,.15,0l.65-.38" transform="translate(-6.21 -16.24)"/><path class="cls-47" d="M78.59,79.06l-.65.38s0,.06,0,.08l.76.44a.2.2,0,0,0,.15,0l.66-.38s0-.07,0-.09l-.76-.44a.16.16,0,0,0-.15,0" transform="translate(-6.21 -16.24)"/><path class="cls-47" d="M73.61,77.47a0,0,0,0,0,0-.08L72.85,77a.16.16,0,0,0-.15,0l-.65.38s0,.06,0,.09l.76.44a.16.16,0,0,0,.15,0l.66-.38" transform="translate(-6.21 -16.24)"/><path class="cls-47" d="M73.89,77.64l-.65.38s0,.06,0,.09l.75.43a.14.14,0,0,0,.15,0l.66-.38s0-.06,0-.09l-.75-.43a.15.15,0,0,0-.16,0" transform="translate(-6.21 -16.24)"/><path class="cls-47" d="M72.41,76.78s0-.06,0-.08l-.76-.44a.19.19,0,0,0-.15,0l-.66.38s0,.07,0,.09l.76.44a.16.16,0,0,0,.15,0l.65-.38" transform="translate(-6.21 -16.24)"/><path class="cls-47" d="M71.22,76.1s0-.07,0-.09l-.75-.44a.22.22,0,0,0-.16,0l-.65.38s0,.07,0,.09l.75.44a.22.22,0,0,0,.16,0l.65-.38" transform="translate(-6.21 -16.24)"/><path class="cls-47" d="M70,75.41s0-.07,0-.09l-.76-.44a.19.19,0,0,0-.15,0l-.65.38s0,.07,0,.09l.76.44a.2.2,0,0,0,.15,0l.66-.38" transform="translate(-6.21 -16.24)"/><path class="cls-47" d="M68.6,75.87l-.65.38s0,.06,0,.09l.76.43a.14.14,0,0,0,.15,0l.66-.38s0-.06,0-.09l-.76-.43a.14.14,0,0,0-.15,0" transform="translate(-6.21 -16.24)"/><path class="cls-47" d="M69.14,76.94s0,.06,0,.09l.75.43a.15.15,0,0,0,.16,0l.65-.38s0-.06,0-.09L70,76.56a.15.15,0,0,0-.16,0l-.65.38" transform="translate(-6.21 -16.24)"/><path class="cls-47" d="M70.33,77.63a0,0,0,0,0,0,.08l.76.44a.16.16,0,0,0,.15,0l.65-.38s0-.06,0-.09l-.76-.44a.24.24,0,0,0-.12,0l0,0-.66.38" transform="translate(-6.21 -16.24)"/><path class="cls-47" d="M71.53,78.31s0,.07,0,.09l.76.44a.2.2,0,0,0,.15,0l.66-.38s0-.07,0-.09l-.76-.44a.16.16,0,0,0-.15,0l-.65.37" transform="translate(-6.21 -16.24)"/><path class="cls-47" d="M72.72,79s0,.07,0,.09l.75.44a.22.22,0,0,0,.16,0l.65-.38s0-.07,0-.09l-.76-.44a.19.19,0,0,0-.15,0l-.65.38" transform="translate(-6.21 -16.24)"/><path class="cls-47" d="M73.89,79.72s0,0,0,.06l.76.44h.15l.65-.38s0-.07,0-.09l-.76-.44a.2.2,0,0,0-.15,0l-.65.38,0,0" transform="translate(-6.21 -16.24)"/><path class="cls-47" d="M75.34,79.23l.65-.38s.05-.06,0-.09l-.75-.43a.14.14,0,0,0-.15,0l-.66.38s0,.06,0,.09l.76.43a.14.14,0,0,0,.15,0" transform="translate(-6.21 -16.24)"/><path class="cls-47" d="M75.62,79.4a0,0,0,0,0,0,.08l.76.44a.16.16,0,0,0,.15,0l.65-.38s0-.06,0-.09L76.43,79a.16.16,0,0,0-.15,0l-.66.38" transform="translate(-6.21 -16.24)"/><path class="cls-47" d="M77.11,78.2a0,0,0,0,0,0-.06s0,0,0,0l-.75-.43a.16.16,0,0,0-.12,0l0,0-.66.38s0,0,0,.07l0,0,.76.43a.14.14,0,0,0,.15,0l.65-.38" transform="translate(-6.21 -16.24)"/><path class="cls-47" d="M75.92,77.51s0-.06,0-.09L75.16,77A.14.14,0,0,0,75,77l-.65.38s0,.06,0,.09l.75.43a.14.14,0,0,0,.15,0l.66-.38" transform="translate(-6.21 -16.24)"/><path class="cls-47" d="M74.72,76.82s0-.06,0-.08L74,76.3a.16.16,0,0,0-.15,0l-.65.38s0,.06,0,.09l.76.43a.14.14,0,0,0,.15,0l.65-.38" transform="translate(-6.21 -16.24)"/><path class="cls-47" d="M73.56,76.11a0,0,0,0,0,0-.06l-.75-.44h-.15L72,76s0,0,0,0,0,0,0,.07l.76.44a.13.13,0,0,0,.09,0l.06,0,.65-.38,0,0" transform="translate(-6.21 -16.24)"/><path class="cls-47" d="M72.34,75.45s0-.07,0-.09l-.75-.44a.22.22,0,0,0-.16,0l-.65.38s0,.07,0,.09l.75.44a.22.22,0,0,0,.16,0l.65-.38" transform="translate(-6.21 -16.24)"/><path class="cls-47" d="M71.15,74.76s0-.07,0-.09l-.76-.44a.19.19,0,0,0-.15,0l-.65.38s0,.07,0,.09l.76.44a.2.2,0,0,0,.15,0l.66-.38" transform="translate(-6.21 -16.24)"/><path class="cls-47" d="M70,74.06A0,0,0,0,0,70,74l0,0-.76-.44a.16.16,0,0,0-.15,0l-.66.38a0,0,0,0,0,0,.08l.76.44a.2.2,0,0,0,.15,0l.65-.38h0" transform="translate(-6.21 -16.24)"/><path class="cls-47" d="M68.76,73.38s0-.06,0-.09L68,72.85a.18.18,0,0,0-.16,0l-.65.38a0,0,0,0,0,0,.08l.76.44h0a.23.23,0,0,0,.14,0l.65-.38" transform="translate(-6.21 -16.24)"/><path class="cls-47" d="M68.08,74.19a.16.16,0,0,0-.15,0l-.66.38a0,0,0,0,0,0,.08l.76.44a.19.19,0,0,0,.15,0l.65-.38s0-.07,0-.09l-.76-.44" transform="translate(-6.21 -16.24)"/><path class="cls-47" d="M67.41,75.18l-.66.38s0,.06,0,.09l.76.44a.16.16,0,0,0,.15,0l.65-.38s0-.06,0-.08l-.76-.44a.16.16,0,0,0-.15,0" transform="translate(-6.21 -16.24)"/><path class="cls-47" d="M71.62,79.93a.16.16,0,0,0,.15,0l.81-.47a0,0,0,0,0,0-.08l-.3-.18-.46-.26-.43-.25-.76-.44L70.19,78l-.75-.44-1.2-.69a.2.2,0,0,0-.15,0l-.81.47s0,.07,0,.09l1.19.69.76.44.44.25.75.44.44.25.46.26.3.18" transform="translate(-6.21 -16.24)"/><path class="cls-47" d="M72.81,80.61a.14.14,0,0,0,.15,0l.81-.47s0-.06,0-.09L73,79.62a.16.16,0,0,0-.15,0l-.8.47s0,.06,0,.09l.76.43" transform="translate(-6.21 -16.24)"/><path class="cls-47" d="M74,81.3a.14.14,0,0,0,.15,0l.81-.47s.05-.06,0-.09l-.75-.43a.14.14,0,0,0-.15,0l-.81.47s0,.06,0,.09l.75.43" transform="translate(-6.21 -16.24)"/><path class="cls-47" d="M75.19,82a.18.18,0,0,0,.16,0l.8-.47s0-.06,0-.09L75.4,81a.14.14,0,0,0-.15,0l-.81.47a0,0,0,0,0,0,.08l.75.44" transform="translate(-6.21 -16.24)"/><path class="cls-47" d="M77.35,82.21s0-.06,0-.09l-.76-.44a.16.16,0,0,0-.15,0l-.81.47a0,0,0,0,0,0,.08l.76.44a.19.19,0,0,0,.15,0l.81-.47" transform="translate(-6.21 -16.24)"/><path class="cls-47" d="M78.46,81.56s.05-.06,0-.09L76,80a.13.13,0,0,0-.12,0l-.68.4s0,0,0,.07l2.49,1.44a.15.15,0,0,0,.16,0l.65-.38" transform="translate(-6.21 -16.24)"/><path class="cls-47" d="M79.57,80.92a0,0,0,0,0,0-.08h0l-1.19-.69L78.17,80l-.55-.32a.16.16,0,0,0-.15,0l-.65.38a0,0,0,0,0,0,0,0,0,0,0,0,0,0l.41.24.14.08.21.12,1.19.69.1,0,.06,0,.65-.38" transform="translate(-6.21 -16.24)"/><path class="cls-47" d="M80.69,80.27s0-.07,0-.09l-.75-.44a.19.19,0,0,0-.15,0l-.66.38s0,.07,0,.09l.75.44a.2.2,0,0,0,.15,0l.66-.38" transform="translate(-6.21 -16.24)"/><path class="cls-47" d="M80.79,79.25a.14.14,0,0,0-.15,0l-.4.23s0,.06,0,.09L81,80a.15.15,0,0,0,.16,0l.4-.23s0-.07,0-.09l-.76-.43" transform="translate(-6.21 -16.24)"/><path class="cls-47" d="M79.6,78.56a.14.14,0,0,0-.15,0l-.4.23s0,.06,0,.09l.75.43a.14.14,0,0,0,.15,0l.4-.23a0,0,0,0,0,0-.09l-.76-.43" transform="translate(-6.21 -16.24)"/><path class="cls-47" d="M78.41,77.87a.15.15,0,0,0-.16,0l-.39.23s0,.06,0,.09l.76.44a.16.16,0,0,0,.15,0l.4-.23s0-.06,0-.09l-.75-.43" transform="translate(-6.21 -16.24)"/><path class="cls-47" d="M77.21,77.18a.16.16,0,0,0-.15,0l-.4.23s0,.07,0,.09l.76.44a.16.16,0,0,0,.15,0l.4-.23a0,0,0,0,0,0-.08l-.76-.44" transform="translate(-6.21 -16.24)"/><path class="cls-47" d="M76,76.49a.19.19,0,0,0-.15,0l-.4.23s0,.07,0,.09l.75.44a.22.22,0,0,0,.16,0l.39-.24s0-.06,0-.08L76,76.49" transform="translate(-6.21 -16.24)"/><path class="cls-47" d="M74.73,75.79h0l-.4.23h0a0,0,0,0,0,0,.08l.76.44h0a.24.24,0,0,0,.12,0h0l.4-.23s0,0,0,0,0,0,0,0a.05.05,0,0,0,0,0l-.75-.44h0a.06.06,0,0,0-.06,0" transform="translate(-6.21 -16.24)"/><path class="cls-47" d="M73.63,75.11a.2.2,0,0,0-.15,0l-.4.24a0,0,0,0,0,0,.08l.76.44h0a.11.11,0,0,0,.08,0h0l.4-.23s0,0,0-.06,0,0,0,0l-.76-.44" transform="translate(-6.21 -16.24)"/><path class="cls-47" d="M72.37,74.41a.11.11,0,0,0-.08,0l-.4.23s0,.06,0,.09l.75.43h0a.11.11,0,0,0,.08,0h0l.4-.23s0-.07,0-.09l-.76-.44h-.07" transform="translate(-6.21 -16.24)"/><path class="cls-47" d="M71.25,73.73a.16.16,0,0,0-.15,0l-.4.23a0,0,0,0,0,0,.09l.76.43a.14.14,0,0,0,.15,0l.4-.23s0-.06,0-.09l-.76-.44" transform="translate(-6.21 -16.24)"/><path class="cls-47" d="M70.05,73.05a.14.14,0,0,0-.15,0l-.4.23s0,.06,0,.09l.76.43a.14.14,0,0,0,.15,0l.4-.23s0-.06,0-.09l-.76-.43" transform="translate(-6.21 -16.24)"/><path class="cls-47" d="M68.86,72.36a.14.14,0,0,0-.15,0l-.4.23s0,.06,0,.09l.76.44a.16.16,0,0,0,.15,0l.4-.23s0-.06,0-.09l-.76-.43" transform="translate(-6.21 -16.24)"/><path class="cls-47" d="M67.12,71.9s0,.07,0,.09l.75.44a.2.2,0,0,0,.15,0l.41-.24s0-.06,0-.09l-.75-.43a.19.19,0,0,0-.15,0l-.4.23" transform="translate(-6.21 -16.24)"/><path class="cls-47" d="M66,72.55c-.05,0-.05.06,0,.09l.75.43a.14.14,0,0,0,.15,0l.66-.38s0-.06,0-.09l-.76-.43a.14.14,0,0,0-.15,0l-.65.38" transform="translate(-6.21 -16.24)"/><path class="cls-47" d="M64.89,73.2s0,.06,0,.09l.65.37.1.06,1.2.69a.16.16,0,0,0,.15,0l.65-.38s0-.06,0-.09l-1.19-.69-.1-.06-.66-.37a.14.14,0,0,0-.15,0l-.65.38" transform="translate(-6.21 -16.24)"/><path class="cls-47" d="M63.77,73.85s0,0,0,0,0,0,0,0l2.5,1.45a.18.18,0,0,0,.16,0l.65-.38a0,0,0,0,0,0-.06l0,0-2.5-1.45h-.12l-.68.39" transform="translate(-6.21 -16.24)"/><path class="cls-47" d="M62.51,74.58s0,0,0,.08h0l.76.43a.08.08,0,0,0,.07,0h.08l.81-.47,0,0s0,0,0-.06l-.76-.44,0,0a.23.23,0,0,0-.12,0l-.81.47" transform="translate(-6.21 -16.24)"/><path class="cls-59" d="M83.51,80.07a.08.08,0,0,0,0,0,.06.06,0,0,1,0,0,.08.08,0,0,1,0,0s0,0,0,0,0,0,0,0l0,0,0,0,0,0-.06.06,0,0,0,0,0,0,0,0-.05,0-9,5.25-.12.06,0,0-.11,0h0l-.07,0h0l-.07,0h-.05l-.15,0h-.69l-.08,0H72.6l-.14,0h0l-.17-.08L57.12,77.06a.74.74,0,0,1-.36-.39.68.68,0,0,1,0-.14v.64a.63.63,0,0,0,.38.53l15.15,8.75.17.08h0l.14,0h0l.08,0h.7l.15,0h0l.08,0h0l.06,0h0l.1,0,0,0,.12-.06,9-5.25h0l0,0,0,0,0,0,0,0h0l.06-.06h0v0l0,0v0h0a.08.08,0,0,1,0,0v0h0s0,0,0,0v0h0v-.06h0v-.61Z" transform="translate(-6.21 -16.24)"/><path class="cls-47" d="M81.78,81.54c.08-.05.14,0,.14.08a.33.33,0,0,1-.14.26l-.75.43c-.08,0-.14,0-.14-.09A.32.32,0,0,1,81,82Z" transform="translate(-6.21 -16.24)"/><path class="cls-47" d="M80.31,82.39c.08,0,.14,0,.14.08a.29.29,0,0,1-.14.25l-.75.43c-.08,0-.14,0-.14-.08a.31.31,0,0,1,.14-.25Z" transform="translate(-6.21 -16.24)"/><path class="cls-26" d="M82.72,81c.09-.06.16,0,.16.09a.37.37,0,0,1-.16.29c-.09.05-.17,0-.17-.1A.37.37,0,0,1,82.72,81Z" transform="translate(-6.21 -16.24)"/><path class="cls-63" d="M68.45,59.42s-.07,0-.07,0l0,10.47a.14.14,0,0,0,.07.12L71.74,72s9.15-5.37,9.15-5.37Z" transform="translate(-6.21 -16.24)"/><path class="cls-59" d="M71.08,80.55a.17.17,0,0,1,0,.33l-2.57,1.5a.66.66,0,0,1-.58,0L62.6,79.3a.17.17,0,0,1,0-.33l2.58-1.5a.64.64,0,0,1,.57,0Z" transform="translate(-6.21 -16.24)"/><path class="cls-17" d="M100,85.71l-9.87,5.7,7.44,4.29,9.87-5.7Z" transform="translate(-6.21 -16.24)"/><path class="cls-16" d="M92.57,81.42,82.7,87.11l7.44,4.3,9.87-5.7Z" transform="translate(-6.21 -16.24)"/><path class="cls-7" d="M101.18,27.34s-4.35,1.29-5.34,8.22a79.72,79.72,0,0,1-1.35,8.08l-10.7,7.44s1.15,2.8,3.3,2,10.25-4.84,10.73-5.45c1.38-1.74,3.63-6.93,3.63-6.93Z" transform="translate(-6.21 -16.24)"/><path class="cls-10" d="M81.64,53.06a2,2,0,1,0,2-2A2,2,0,0,0,81.64,53.06Z" transform="translate(-6.21 -16.24)"/><polygon class="cls-8" points="94.65 20.09 95.96 27.02 94.26 19.72 94.57 18.56 93.72 16.35 95.7 11.56 94.09 16.41 95.02 18.51 94.65 20.09"/></g><g id="Livello_4" data-name="Livello 4"><path class="cls-64" d="M124.78,127.63s-.1,2.26-.13,2.46-1,.69-2.38.41-5.33-1.59-6-2.27,1.49-.53,2.82-.41a26,26,0,0,0,3.91-.19Z" transform="translate(-6.21 -16.24)"/><path class="cls-10" d="M135.64,85.71l-6,4.93s-3.55,12.19-3.92,15.1-.91,18.61-.91,21.89c0,2-1.45,1.05-2,.68s-2.91-20.18-2.91-25.38,1.33-21.4,1.33-21.4l13.41-2.45Z" transform="translate(-6.21 -16.24)"/><path class="cls-65" d="M135.64,68.17l-.48-.64a58.79,58.79,0,0,1-1.82,6c-.73,1.64.91,4.28,1.27,5.55s-2.91,4.64-5.64,4.83-7.82-2-7.82-2a3.73,3.73,0,0,0,1-2.84c-.34-4.43-1.93-12.54.42-13.72,3.27-1.64,8.19-4.8,8.19-4.8s4.37-2.07,6,0a41.42,41.42,0,0,1,3.3,5.84s-.26.9-2.05,1.32C137.47,67.83,135.64,68.17,135.64,68.17Z" transform="translate(-6.21 -16.24)"/><path class="cls-10" d="M140,66.14a73.41,73.41,0,0,1,3.73,9c.55,2.91-1,10.74-1.55,12.56s-2,.07-2,.07,0-10.18-.18-10.9c-.11-.46-3.19-6.18-4.42-8.9A5.19,5.19,0,0,0,140,66.14Z" transform="translate(-6.21 -16.24)"/><path class="cls-65" d="M122.6,65.34c.87-.44,1.87-1,2.85-1.55.82.32,1.47.61,1.47.61l.55,5.48s-.31,8.73-.91,13.78a33.84,33.84,0,0,1-5.41-1.76,5.68,5.68,0,0,0,.39-3.57c-.43-2.09-2.1-4.77-2.1-6.88C119.44,67.74,121.06,66.11,122.6,65.34Z" transform="translate(-6.21 -16.24)"/><path class="cls-10" d="M139,88.53a1.74,1.74,0,1,0,1.74-1.74A1.74,1.74,0,0,0,139,88.53Z" transform="translate(-6.21 -16.24)"/><path class="cls-10" d="M133.84,82.5s-.34,10.7-.19,17.34,2.77,6.81,4.63,11.11a75.13,75.13,0,0,1,3.07,8.67l-1,.56s-8.82-10.83-9.88-11.88S126,89.12,126,89.12Z" transform="translate(-6.21 -16.24)"/><path class="cls-10" d="M129.41,56.47l.81,5.85h0a3.49,3.49,0,0,1-3.33,2.1l-.67,0-1.31-6.16Z" transform="translate(-6.21 -16.24)"/><path class="cls-66" d="M135.64,85.71c-.41,0,7.19,5.5,7.19,5.5l.52,7.59-3.63,1.9-8.46-6.21-.69-7.77Z" transform="translate(-6.21 -16.24)"/><polygon class="cls-66" points="136.62 74.96 133.35 76.37 133.47 80.22 124.68 74.02 124.36 70.48 129.43 69.47 136.62 74.96"/><path class="cls-67" d="M134.61,79.08l4.18,17.86s-4.78,6.29-10,7-11.31-2.56-11.31-2.56l3.69-19.47,3.7,1.32c2.83,1,6-1.51,8.45-3.23Z" transform="translate(-6.21 -16.24)"/><path class="cls-68" d="M133,59.44s2.93.87,4.14,14,1.38,17.09,1.38,17.09" transform="translate(-6.21 -16.24)"/><path class="cls-64" d="M138.05,90.35a.58.58,0,1,0,.58-.58A.58.58,0,0,0,138.05,90.35Z" transform="translate(-6.21 -16.24)"/><path class="cls-64" d="M140.14,120s.47,1.41.86,2.51,0,3.52.63,4.54,2.35.15,2.27-.71a37.55,37.55,0,0,0-.78-4.69,17.91,17.91,0,0,0-1.84-2.29Z" transform="translate(-6.21 -16.24)"/><path class="cls-10" d="M103.93,87.48s1.44.17,1.71-.08,7.78-4.07,9.69-6.22a14.78,14.78,0,0,0,1.35-2.84s-.41-3.36-2.82-1.53-9.69,9.31-9.69,9.31Z" transform="translate(-6.21 -16.24)"/><path class="cls-10" d="M105,88.85a1.74,1.74,0,1,0-2.44-.3A1.74,1.74,0,0,0,105,88.85Z" transform="translate(-6.21 -16.24)"/><path class="cls-10" d="M122.17,70.6s-3.72,5.87-4.37,7.19c-.78,1.58-2.51,2.65-3.17,2.33a1.83,1.83,0,0,1-.94-2.21c.32-.65,2.32-7.45,2.32-7.45Z" transform="translate(-6.21 -16.24)"/><circle class="cls-10" cx="119.7" cy="38.84" r="5.46"/><path class="cls-65" d="M123.05,71.51c5.47.23,6.9-2.26,6.9-2.26.18-3.28-1.54-8.13-1.54-8.13l-4,1.61a10.32,10.32,0,0,1-2.68,1.84s-3.29.54-4.32,2l-1.52,4.15s-.46,1.69,3,1.6Z" transform="translate(-6.21 -16.24)"/><path class="cls-69" d="M122.31,56.67a1.14,1.14,0,0,1,1.73-.89,1.48,1.48,0,0,1,.4,1.58,4.47,4.47,0,0,1-.91,1.46,25.66,25.66,0,0,0,5.56,2.8l2.44-3.54a5.64,5.64,0,0,0,.91-1.71,6.84,6.84,0,0,0-1.13-5.06,7.21,7.21,0,0,0-5.22-2.45,6.05,6.05,0,0,0-4.57,2.22C120.15,52.72,121.68,54.9,122.31,56.67Z" transform="translate(-6.21 -16.24)"/><path class="cls-69" d="M133.88,63.43c-.3,1.1-1.22,2-1.25,3.16a9.26,9.26,0,0,0,.25,1.55,3.82,3.82,0,1,1-7.6.68,3.07,3.07,0,0,0-.14-1.25c-.19-.4-.6-.65-.89-1-1.09-1.31,0-3.3-.28-5-.13-.64-.77-1.58-.69-2.23.14-1.08,1.55-1.17,2-2.05.72-1.4-.08-2.54.08-4a2.87,2.87,0,0,1,3.85-2.56A6,6,0,0,1,133,54.9c.35,1.32.11,2.73.33,4.07S134.3,61.92,133.88,63.43Z" transform="translate(-6.21 -16.24)"/><path class="cls-10" d="M49.73,118.49l-2.3,4.08s.69,2.19,1,2.25a24.38,24.38,0,0,0,4.14-.06c0-.17-.63-1.49-.74-1.78s-.75-3.23-.75-3.23l.69-2Z" transform="translate(-6.21 -16.24)"/><path class="cls-10" d="M61.19,121s-.63,5.36-.58,5.53.69,2.59.69,2.59l4.38-.63a1.08,1.08,0,0,0,.23-1.33,38.81,38.81,0,0,1-2.42-3.74c0-.29-.06-2.71-.06-2.71Z" transform="translate(-6.21 -16.24)"/><circle class="cls-10" cx="53.91" cy="36.1" r="5.4"/><path class="cls-70" d="M52.2,78.15a55.75,55.75,0,0,0-1.26,6.2,167.81,167.81,0,0,0,3.78,16.48c1.08,3.42-5.94,17.46-5.94,18.36s.9,2.16,2,2S60.12,105.51,61,102.45s1.8-17.28,1.8-17.28l2.7-6.3Z" transform="translate(-6.21 -16.24)"/><path class="cls-71" d="M51.19,82.64l6,4.87S60.66,99.57,61,102.45s-.9,19.44,0,21.24,2.34,1.44,2.88,1.08,2.88-20,2.88-25.1-1.32-21.16-1.32-21.16L52.2,78.15Z" transform="translate(-6.21 -16.24)"/><path class="cls-72" d="M56,57.74s-4.32-2-5.94,0-6.3,11.59-6.84,14.47.54,9.54,1.08,11.34,2-.07,2-.07.64-8.75.82-9.47c.12-.47,2.18-4,3.5-6.56a10.16,10.16,0,0,1,1.3-2,43.93,43.93,0,0,0,1.6,5.19c.72,1.62-.9,6.3-1.26,7.56s2.88,2.52,5.58,2.7,7.74-2,7.74-2,1.8-14.76-1.44-16.38S56,57.74,56,57.74Z" transform="translate(-6.21 -16.24)"/><path class="cls-10" d="M45.87,65.4a38.32,38.32,0,0,0-2.67,6.81c-.54,2.88.54,9.54,1.08,11.34s2.08-.21,2.08-.21.52-8.61.7-9.33c.11-.45,2.48-4,3.5-6.56A5.77,5.77,0,0,1,45.87,65.4Z" transform="translate(-6.21 -16.24)"/><path class="cls-73" d="M64.08,62.49c-.86-.43-1.85-1-2.82-1.53-.81.31-1.45.6-1.45.6L59.27,67s.3,8.63.89,13.62a32.71,32.71,0,0,0,5.35-1.74S67.32,64.11,64.08,62.49Z" transform="translate(-6.21 -16.24)"/><path class="cls-10" d="M79.85,64.54a2.13,2.13,0,1,1-2.12-2.13A2.13,2.13,0,0,1,79.85,64.54Z" transform="translate(-6.21 -16.24)"/><path class="cls-72" d="M58.34,59.33l5.74,3.16s1.62.58,3.24,4.52,6.26,9,6.26,9,3.12-9,3.84-9.56,2-1.75,1.78.57-1.62,12.76-4,13.66S57.53,69.41,57.35,66.17A22,22,0,0,1,58.34,59.33Z" transform="translate(-6.21 -16.24)"/><path class="cls-10" d="M77.33,66c-.72.54-3.72,9.39-3.89,9.29s-4.23-4.72-4.56-5.36l-.06.31A19.87,19.87,0,0,1,65,74.54c4.31,3.52,9.07,6.6,10.29,6.13,2.34-.9,3.78-11.34,4-13.66S78.05,65.45,77.33,66Z" transform="translate(-6.21 -16.24)"/><path class="cls-74" d="M51.44,121.31a11.76,11.76,0,0,0,2,1.35,9.67,9.67,0,0,0,2.62.28c1.64,0-.16,2.63-3.74,2.74-1.1,0-2.48-.92-4-.51-.53.15-.21,2.14-.52,2.21a1.75,1.75,0,0,1-.42.07c-.17,0,.32-2.73-.31-3.51-.52-.63,0-2.36.72-2.09s1.31,1.58,2,1.48S51.8,122.55,51.44,121.31Z" transform="translate(-6.21 -16.24)"/><path class="cls-10" d="M56.66,53.71l-.81,5.8h0a3.47,3.47,0,0,0,3.3,2.07l.66,0,1.3-6.09Z" transform="translate(-6.21 -16.24)"/><path class="cls-75" d="M63.67,53.92A1.12,1.12,0,0,0,62,53a1.47,1.47,0,0,0-.39,1.56,4.2,4.2,0,0,0,.9,1.44A24.68,24.68,0,0,1,57,58.81l-2.41-3.5a5.41,5.41,0,0,1-.9-1.69,6.68,6.68,0,0,1,1.12-5,7.13,7.13,0,0,1,5.16-2.43,6,6,0,0,1,4.52,2.2C65.81,50,64.3,52.17,63.67,53.92Z" transform="translate(-6.21 -16.24)"/><path class="cls-75" d="M51.28,61.84c.35,1.27,1.42,2.32,1.45,3.64a11,11,0,0,1-.29,1.79,4.4,4.4,0,1,0,8.75.79,3.71,3.71,0,0,1,.17-1.45c.22-.46.7-.74,1-1.14,1.25-1.51,0-3.8.32-5.73.15-.73.89-1.82.8-2.57-.16-1.24-1.8-1.34-2.32-2.36-.84-1.62.09-2.93-.09-4.59a3.32,3.32,0,0,0-4.44-2.95A6.86,6.86,0,0,0,52.35,52c-.4,1.52-.13,3.14-.38,4.69S50.81,60.1,51.28,61.84Z" transform="translate(-6.21 -16.24)"/><path class="cls-10" d="M48.46,84.75a2.13,2.13,0,1,1-2.13-2.13A2.12,2.12,0,0,1,48.46,84.75Z" transform="translate(-6.21 -16.24)"/><path class="cls-74" d="M64.53,125.29a11.87,11.87,0,0,0,2,1.36,9.85,9.85,0,0,0,2.62.27c1.64,0-.17,2.64-3.75,2.75-1.09,0-2.47-.92-4-.51-.53.15-.21,2.14-.52,2.21a1.2,1.2,0,0,1-.42.06c-.18,0,.32-2.72-.32-3.5s0-2.37.73-2.1,1.3,1.59,2,1.49S64.9,126.54,64.53,125.29Z" transform="translate(-6.21 -16.24)"/></g></g></svg>