<svg xmlns="http://www.w3.org/2000/svg" viewBox="0 0 217.83 183.58"><defs><style>.cls-1{isolation:isolate;}.cls-2{fill:#f18743;}.cls-3{fill:#f4aa82;}.cls-4{fill:#f09665;}.cls-5{fill:#d9d9d9;mix-blend-mode:multiply;}.cls-6,.cls-7{fill:#7dcef3;}.cls-6{opacity:0.5;}.cls-8{fill:#6599d2;}.cls-9{fill:#203348;}.cls-10{fill:#5178a3;}.cls-11{fill:#5984b3;}.cls-12{fill:#608ec2;}.cls-13{fill:#375270;}.cls-14{fill:#406081;}.cls-15{fill:#496c93;}.cls-16{fill:#2c435c;}.cls-17{fill:#9ea6b0;}.cls-18{fill:#333;}.cls-19{fill:#a1b0d6;}.cls-20{fill:#e5effb;}.cls-21{fill:#706f6f;}.cls-22{fill:#c4cfdb;}.cls-23{fill:none;stroke:#fff;stroke-linecap:round;stroke-linejoin:round;stroke-width:0.97px;}.cls-24{fill:#dce7f5;}.cls-25{fill:#261c35;}.cls-26{fill:#009fe3;}.cls-27{fill:#36a9e1;}.cls-28{fill:#6f559c;}.cls-29{fill:#a9b2bd;}.cls-30{fill:#1c3c73;}.cls-31{fill:#919191;}.cls-32{fill:#0383c0;}.cls-33{fill:#3a8dde;}</style></defs><title>G08_13</title><g class="cls-1"><g id="Tiles"><polygon class="cls-2" points="196.2 93.46 196.2 98.21 106.73 150.98 106.73 146.24 196.2 93.46"/><polygon class="cls-3" points="106.73 146.24 106.73 150.98 10.64 95.25 10.64 90.5 106.73 146.24"/><polygon class="cls-4" points="106.51 146.25 10.41 90.52 10.41 90.25 100.72 38.35 196.2 93.48 106.66 146.34 106.51 146.25"/></g><g id="Newspaper"><ellipse class="cls-5" cx="68.43" cy="89.51" rx="32.56" ry="16.93"/><path class="cls-6" d="M72.64,7.27a42.5,42.5,0,1,0,42.52,42.5A42.51,42.51,0,0,0,72.64,7.27Zm0,76.12a33.62,33.62,0,1,1,33.64-33.62A33.63,33.63,0,0,1,72.64,83.39Zm0,0" transform="translate(-4.42 -7.27)"/><path class="cls-7" d="M106.28,49.77A33.64,33.64,0,1,0,72.64,83.39a33.63,33.63,0,0,0,33.64-33.62Zm0,0" transform="translate(-4.42 -7.27)"/><path class="cls-8" d="M72.64,14.85a34.92,34.92,0,1,0,34.94,34.92A35,35,0,0,0,72.64,14.85Zm19,33.62a61.07,61.07,0,0,0-1.4-12,37.74,37.74,0,0,1,5.59,2.3c5.27,2.7,8.42,6.11,9,9.73Zm-2.61,0H73.94V33.85a58.35,58.35,0,0,1,13.43,1.76A57.67,57.67,0,0,1,89,48.47ZM73.94,31.25V17.56c3.75.59,7.28,3.75,10.07,9a39.11,39.11,0,0,1,2.54,6.13,62.67,62.67,0,0,0-12.61-1.48Zm-2.6-13.69V31.25a62.75,62.75,0,0,0-12.61,1.48,39.11,39.11,0,0,1,2.54-6.13c2.79-5.29,6.32-8.45,10.07-9Zm0,16.29V48.47H56.25a57.67,57.67,0,0,1,1.66-12.86,58.35,58.35,0,0,1,13.43-1.76ZM53.64,48.47H40.42c.61-3.62,3.76-7,9-9.73A37.74,37.74,0,0,1,55,36.44a61.83,61.83,0,0,0-1.4,12Zm0,2.6a61.83,61.83,0,0,0,1.4,12,37.74,37.74,0,0,1-5.59-2.3c-5.27-2.7-8.42-6.11-9-9.73Zm2.61,0H71.34V65.69a58.9,58.9,0,0,1-13.43-1.76,57.67,57.67,0,0,1-1.66-12.86ZM71.34,68.29V82c-3.75-.59-7.28-3.75-10.07-9a39.11,39.11,0,0,1-2.54-6.13,62.75,62.75,0,0,0,12.61,1.48ZM73.94,82V68.29a62.67,62.67,0,0,0,12.61-1.48A39.11,39.11,0,0,1,84,72.94c-2.79,5.29-6.32,8.45-10.07,9Zm0-16.29V51.07H89a57.67,57.67,0,0,1-1.66,12.86,58.9,58.9,0,0,1-13.43,1.76Zm17.7-14.62h13.22c-.61,3.62-3.76,7-9,9.73a37.74,37.74,0,0,1-5.59,2.3,61.07,61.07,0,0,0,1.4-12Zm12.22-9.73A25.4,25.4,0,0,0,97,36.42a42.79,42.79,0,0,0-7.52-2.93,42.44,42.44,0,0,0-3.18-8.1,25.29,25.29,0,0,0-5-6.74,32.45,32.45,0,0,1,22.5,22.69ZM63.92,18.65a25.49,25.49,0,0,0-5,6.74,41.8,41.8,0,0,0-3.19,8.1,42.79,42.79,0,0,0-7.52,2.93,25.4,25.4,0,0,0-6.84,4.92,32.45,32.45,0,0,1,22.5-22.69ZM41.42,58.2a25.4,25.4,0,0,0,6.84,4.92,42.79,42.79,0,0,0,7.52,2.93A41.8,41.8,0,0,0,59,74.15a25.49,25.49,0,0,0,5,6.74A32.45,32.45,0,0,1,41.42,58.2ZM81.36,80.89a25.29,25.29,0,0,0,5-6.74,42.44,42.44,0,0,0,3.18-8.1A42.79,42.79,0,0,0,97,63.12a25.4,25.4,0,0,0,6.84-4.92,32.45,32.45,0,0,1-22.5,22.69Zm0,0" transform="translate(-4.42 -7.27)"/><path class="cls-9" d="M60.76,34.67a3.91,3.91,0,1,0-3.91,3.9,3.91,3.91,0,0,0,3.91-3.9Zm0,0" transform="translate(-4.42 -7.27)"/><path class="cls-10" d="M100.14,25.9a3.91,3.91,0,1,0-3.91,3.91,3.92,3.92,0,0,0,3.91-3.91Zm0,0" transform="translate(-4.42 -7.27)"/><path class="cls-11" d="M99.36,75.15a3.91,3.91,0,1,0-3.91,3.91,3.91,3.91,0,0,0,3.91-3.91Zm0,0" transform="translate(-4.42 -7.27)"/><path class="cls-12" d="M52.58,73.85a3.91,3.91,0,1,0-3.91,3.9,3.91,3.91,0,0,0,3.91-3.9Zm0,0" transform="translate(-4.42 -7.27)"/><path class="cls-13" d="M76.55,49.77a3.91,3.91,0,1,0-3.91,3.91,3.91,3.91,0,0,0,3.91-3.91Zm0,0" transform="translate(-4.42 -7.27)"/><path class="cls-14" d="M94.26,49.77a3.91,3.91,0,1,0-3.91,3.91,3.91,3.91,0,0,0,3.91-3.91Zm0,0" transform="translate(-4.42 -7.27)"/><path class="cls-15" d="M76.55,67a3.91,3.91,0,1,0-3.91,3.9A3.91,3.91,0,0,0,76.55,67Zm0,0" transform="translate(-4.42 -7.27)"/><path class="cls-16" d="M42.91,49.77A3.91,3.91,0,1,0,39,53.68a3.91,3.91,0,0,0,3.91-3.91Zm0,0" transform="translate(-4.42 -7.27)"/></g><g id="Livello_1" data-name="Livello 1"><path class="cls-2" d="M164.79,107.33c.58.34.58.88,0,1.21l-37.37,21.72a2.33,2.33,0,0,1-2.09,0l-19.08-11c-.58-.33-.58-.87,0-1.21l37.36-21.71a2.27,2.27,0,0,1,2.09,0Z" transform="translate(-4.42 -7.27)"/><path class="cls-3" d="M164.82,107a.63.63,0,0,1,0,1.2L127.46,130a2.31,2.31,0,0,1-2.08,0l-19.08-11a.63.63,0,0,1,0-1.2L143.66,96a2.31,2.31,0,0,1,2.08,0Z" transform="translate(-4.42 -7.27)"/><path class="cls-17" d="M156.48,103.53c-.46-2.83-6.32-5.82-9.46-4.94a4.87,4.87,0,0,0-1.23.64c-1,.64-1,1.78.27,2.49l5.28,3a4.62,4.62,0,0,0,4.15.17l.29-.17A1.16,1.16,0,0,0,156.48,103.53Z" transform="translate(-4.42 -7.27)"/><path class="cls-18" d="M156.51,103.1a1.26,1.26,0,0,1-.72,1l-.29.17a4.62,4.62,0,0,1-4.15-.17l-5.28-3a1.73,1.73,0,0,1-1-1.32h0v.45a1.7,1.7,0,0,0,1,1.33l5.28,3a4.63,4.63,0,0,0,4.15.18l.29-.17a1.24,1.24,0,0,0,.72-1v-.45Z" transform="translate(-4.42 -7.27)"/><path class="cls-19" d="M156.51,103s.12.67-1,1.25h0a4.62,4.62,0,0,1-4.15-.17l-5.29-3a1.84,1.84,0,0,1-1-1.21,1.75,1.75,0,0,0,1,1.31l5.28,3a4.59,4.59,0,0,0,4.15.17l.29-.16a1.27,1.27,0,0,0,.72-1Z" transform="translate(-4.42 -7.27)"/><path class="cls-20" d="M156.49,102.85C156,100,150.17,97,147,97.91a4.87,4.87,0,0,0-1.23.64c-1.05.64-1,1.78.27,2.49l5.28,3a4.62,4.62,0,0,0,4.15.17l.29-.17A1.16,1.16,0,0,0,156.49,102.85Z" transform="translate(-4.42 -7.27)"/><path class="cls-17" d="M148.44,98.54a.35.35,0,0,0-.24,0c-.17,0-.26.14,0,.25s1,.32,1.54.55.74.07.67-.07S150,99,150,99Z" transform="translate(-4.42 -7.27)"/><path class="cls-21" d="M148.27,98.61a1.33,1.33,0,0,1,1.55.17,1.57,1.57,0,0,1,.25.41A7.46,7.46,0,0,1,148.27,98.61Z" transform="translate(-4.42 -7.27)"/><path class="cls-17" d="M122.6,93.25s-2,5.43,0,6.58l1,.56h0l3.77,2.18a.59.59,0,0,1,0,1.11L122,106.74a2.1,2.1,0,0,1-1.92,0l-2.69-1.6,0,0-.86-.54-.12-.07,0,0-.92-.58s-1.68-1.23-1.68-5.61Z" transform="translate(-4.42 -7.27)"/><path class="cls-20" d="M113.8,97.78c0,4.37,1.68,5.61,1.68,5.61l.92.57,0,0,.12.06.86.54h0l.31.18,2.37,1.41a2.12,2.12,0,0,0,1.93,0l5.29-3.06a.59.59,0,0,0,0-1.11L125,100.63l-1.38-.8h0l-1-.56c-1.94-1.12-.1-6.31,0-6.56h0Z" transform="translate(-4.42 -7.27)"/><path class="cls-22" d="M113.8,97.78c0,4.37,1.68,5.61,1.68,5.61l.92.57,0,0,.12.06.86.54h0l.31.18,7.21-4.13-1.38-.8h0l-1-.56c-1.94-1.12-.1-6.31,0-6.56h0Z" transform="translate(-4.42 -7.27)"/><path class="cls-23" d="M126,90.22l-.13,6.47a1.49,1.49,0,0,0,.79,1.32l6,3.46a.49.49,0,0,1,0,.85l-5.78,3.47a.56.56,0,0,0,0,1l2.4,1.66" transform="translate(-4.42 -7.27)"/><g class="cls-1"><path class="cls-24" d="M137.14,50.66l1.4.81a1.24,1.24,0,0,0-1.24.12l-1.4-.81A1.21,1.21,0,0,1,137.14,50.66Z" transform="translate(-4.42 -7.27)"/><path class="cls-22" d="M98.14,108.08l-1.4-.82a1.23,1.23,0,0,1-.51-1.11l1.4.81A1.22,1.22,0,0,0,98.14,108.08Z" transform="translate(-4.42 -7.27)"/><polygon class="cls-22" points="93.21 99.69 91.81 98.88 91.73 68.46 93.13 69.27 93.21 99.69"/><polygon class="cls-22" points="94.86 66.27 93.46 65.46 131.48 43.51 132.88 44.32 94.86 66.27"/><path class="cls-24" d="M97.55,76.54l-1.4-.81a3.79,3.79,0,0,1,1.73-3l1.4.81A3.81,3.81,0,0,0,97.55,76.54Z" transform="translate(-4.42 -7.27)"/><path class="cls-24" d="M137.3,51.59c1-.55,1.74-.11,1.74,1L139.13,83a3.8,3.8,0,0,1-1.73,3l-38,22c-1,.55-1.74.11-1.75-1l-.08-30.42a3.81,3.81,0,0,1,1.73-3Z" transform="translate(-4.42 -7.27)"/></g><path class="cls-25" d="M137.3,51.56c1-.56,1.74-.11,1.74,1L139.13,83a3.82,3.82,0,0,1-1.73,3l-38,22c-1,.55-1.74.11-1.75-1l-.08-30.42a3.81,3.81,0,0,1,1.73-3Z" transform="translate(-4.42 -7.27)"/><path class="cls-20" d="M139.12,80.58V83a3.83,3.83,0,0,1-1.73,3l-38,22c-1,.56-1.74.11-1.74-1v-2.43Z" transform="translate(-4.42 -7.27)"/><polygon class="cls-26" points="133.24 46.08 133.32 72.26 95.08 94.34 95 68.16 133.24 46.08"/><polygon class="cls-27" points="133.25 46.08 133.32 72.26 126.15 76.4 103.3 63.38 133.25 46.08"/><polygon class="cls-28" points="131.01 77.33 131.01 78.85 129.9 79.5 129.9 77.97 131.01 77.33"/><path class="cls-17" d="M151.91,107.41c.33.2.34.51,0,.71l-24.4,14.18a1.36,1.36,0,0,1-1.21,0l-10-5.75a.37.37,0,0,1,0-.7l24.4-14.18a1.32,1.32,0,0,1,1.22,0Z" transform="translate(-4.42 -7.27)"/><path class="cls-20" d="M151.91,107c.33.2.34.51,0,.71l-24.4,14.18a1.36,1.36,0,0,1-1.21,0l-10-5.75a.37.37,0,0,1,0-.7l24.4-14.18a1.32,1.32,0,0,1,1.22,0Z" transform="translate(-4.42 -7.27)"/><path class="cls-29" d="M125.1,112.37c.08,0,.08.12,0,.17l-1.27.74a.37.37,0,0,1-.29,0l-.66-.39a.08.08,0,0,1,0-.16l1.27-.74a.3.3,0,0,1,.29,0Z" transform="translate(-4.42 -7.27)"/><path class="cls-20" d="M123.68,113.4a.37.37,0,0,1-.18-.05l-.66-.38a.17.17,0,0,1,0-.32l1.27-.74a.4.4,0,0,1,.37,0l.66.38a.17.17,0,0,1,0,.32l-1.27.74A.38.38,0,0,1,123.68,113.4Zm-.77-.59h0l.66.38a.26.26,0,0,0,.21,0l1.27-.74h0l-.66-.38a.26.26,0,0,0-.21,0l-1.27.74Z" transform="translate(-4.42 -7.27)"/><path class="cls-29" d="M123.35,113.39a.08.08,0,0,1,0,.16l-1.27.74a.3.3,0,0,1-.29,0l-.66-.38c-.08,0-.08-.12,0-.17l1.27-.73a.3.3,0,0,1,.29,0Z" transform="translate(-4.42 -7.27)"/><path class="cls-20" d="M121.93,114.41a.43.43,0,0,1-.19,0l-.66-.38a.18.18,0,0,1,0-.32l1.28-.74a.4.4,0,0,1,.37,0l.66.38a.18.18,0,0,1,0,.32l-1.27.74A.38.38,0,0,1,121.93,114.41Zm-.77-.58h0l.66.38a.23.23,0,0,0,.2,0l1.28-.74h0l-.66-.38a.26.26,0,0,0-.21,0l-1.27.74Z" transform="translate(-4.42 -7.27)"/><path class="cls-29" d="M121.6,114.4c.08,0,.08.13,0,.17l-1.27.74a.3.3,0,0,1-.29,0l-.66-.38c-.08-.05-.09-.12,0-.17l1.28-.74a.37.37,0,0,1,.29,0Z" transform="translate(-4.42 -7.27)"/><path class="cls-20" d="M120.18,115.43a.41.41,0,0,1-.19,0l-.66-.38a.2.2,0,0,1-.1-.16.19.19,0,0,1,.1-.16l1.27-.74a.42.42,0,0,1,.38,0l.66.38a.2.2,0,0,1,.1.16.18.18,0,0,1-.1.16l-1.27.74A.41.41,0,0,1,120.18,115.43Zm-.78-.58h0l.66.38a.23.23,0,0,0,.2,0l1.27-.74h0l-.66-.38a.23.23,0,0,0-.2,0l-1.27.74Z" transform="translate(-4.42 -7.27)"/><path class="cls-29" d="M119.84,115.42c.08,0,.08.12,0,.17l-1.27.74a.3.3,0,0,1-.29,0l-.66-.38c-.08,0-.08-.12,0-.17l1.27-.74a.37.37,0,0,1,.29,0Z" transform="translate(-4.42 -7.27)"/><path class="cls-20" d="M118.43,116.45a.3.3,0,0,1-.19,0l-.66-.38a.16.16,0,0,1-.1-.15.16.16,0,0,1,.1-.16l1.27-.74a.42.42,0,0,1,.38,0l.66.38a.19.19,0,0,1,.1.16.2.2,0,0,1-.1.16l-1.27.73A.32.32,0,0,1,118.43,116.45Zm-.78-.58h0l.66.39a.23.23,0,0,0,.2,0l1.27-.74h0l-.66-.38a.23.23,0,0,0-.2,0l-1.27.74Z" transform="translate(-4.42 -7.27)"/><path class="cls-29" d="M121.5,116.38c.08.05.08.12,0,.17l-1.27.74a.37.37,0,0,1-.29,0l-1.26-.73c-.08,0-.08-.12,0-.17l1.27-.74a.37.37,0,0,1,.29,0Z" transform="translate(-4.42 -7.27)"/><path class="cls-20" d="M120.08,117.41a.37.37,0,0,1-.18,0l-1.26-.72a.2.2,0,0,1-.1-.16.17.17,0,0,1,.1-.16l1.27-.74a.42.42,0,0,1,.38,0l1.25.72a.19.19,0,0,1,.11.16.18.18,0,0,1-.11.16l-1.27.74A.38.38,0,0,1,120.08,117.41Zm-1.37-.93h0l1.25.72a.23.23,0,0,0,.2,0l1.28-.74h0l-1.26-.72a.23.23,0,0,0-.2,0l-1.27.74Z" transform="translate(-4.42 -7.27)"/><path class="cls-29" d="M127.75,116.58c.08,0,.08.12,0,.17l-1.27.74a.37.37,0,0,1-.29,0l-1.26-.73c-.08-.05-.08-.12,0-.17l1.27-.74a.37.37,0,0,1,.29,0Z" transform="translate(-4.42 -7.27)"/><path class="cls-20" d="M126.33,117.61a.45.45,0,0,1-.19,0l-1.25-.72a.18.18,0,0,1-.1-.16.17.17,0,0,1,.1-.16l1.27-.74a.42.42,0,0,1,.38,0l1.25.72a.22.22,0,0,1,.11.16.18.18,0,0,1-.11.16l-1.27.74A.38.38,0,0,1,126.33,117.61Zm-1.37-.93h0l1.25.72a.23.23,0,0,0,.2,0l1.28-.74h0l-1.26-.72a.23.23,0,0,0-.2,0l-1.27.74Z" transform="translate(-4.42 -7.27)"/><path class="cls-29" d="M125.68,115.85a.08.08,0,0,1,0,.16l-1.27.74a.3.3,0,0,1-.29,0l-1.25-.72c-.08,0-.08-.12,0-.17l1.27-.74a.37.37,0,0,1,.29,0Z" transform="translate(-4.42 -7.27)"/><path class="cls-20" d="M124.27,116.87a.38.38,0,0,1-.19,0l-1.26-.73a.18.18,0,0,1-.1-.15.18.18,0,0,1,.1-.16l1.27-.74a.42.42,0,0,1,.38,0l1.26.72a.18.18,0,0,1,0,.32l-1.28.74A.37.37,0,0,1,124.27,116.87ZM122.9,116h0l1.25.72a.26.26,0,0,0,.21,0l1.27-.74h0l-1.26-.72a.23.23,0,0,0-.2,0l-1.27.74Z" transform="translate(-4.42 -7.27)"/><path class="cls-29" d="M123.18,115.4c.08,0,.08.12,0,.17l-1.27.74a.37.37,0,0,1-.29,0l-1.25-.73a.08.08,0,0,1,0-.16l1.27-.74a.3.3,0,0,1,.29,0Z" transform="translate(-4.42 -7.27)"/><path class="cls-20" d="M121.77,116.43a.38.38,0,0,1-.19-.05l-1.26-.72a.18.18,0,0,1,0-.32l1.28-.74a.4.4,0,0,1,.37,0l1.26.73a.18.18,0,0,1,.1.15.19.19,0,0,1-.1.16l-1.27.74A.45.45,0,0,1,121.77,116.43Zm-1.37-.93h0l1.25.72a.26.26,0,0,0,.21,0l1.27-.74h0l-1.25-.72a.26.26,0,0,0-.21,0l-1.27.74Z" transform="translate(-4.42 -7.27)"/><path class="cls-29" d="M133.64,115.09c.08,0,.08.12,0,.17l-1.27.74a.39.39,0,0,1-.3,0l-1.25-.73c-.08,0-.08-.12,0-.17l1.27-.73a.3.3,0,0,1,.29,0Z" transform="translate(-4.42 -7.27)"/><path class="cls-20" d="M132.22,116.12a.41.41,0,0,1-.19-.05l-1.25-.72a.17.17,0,0,1,0-.32l1.27-.74a.4.4,0,0,1,.37,0l1.26.72a.2.2,0,0,1,.1.16.17.17,0,0,1-.1.16l-1.27.74A.41.41,0,0,1,132.22,116.12Zm-1.37-.93h0l1.26.72a.23.23,0,0,0,.2,0l1.27-.74h0l-1.25-.72a.26.26,0,0,0-.21,0l-1.27.74Z" transform="translate(-4.42 -7.27)"/><path class="cls-29" d="M135.32,114.11c.08,0,.08.12,0,.17l-1.27.74a.37.37,0,0,1-.29,0l-1.25-.73c-.08,0-.08-.12,0-.17l1.27-.74a.37.37,0,0,1,.29,0Z" transform="translate(-4.42 -7.27)"/><path class="cls-20" d="M133.91,115.14a.38.38,0,0,1-.19,0l-1.26-.72a.18.18,0,0,1,0-.32l1.28-.74a.4.4,0,0,1,.37,0l1.26.72a.2.2,0,0,1,.1.16.19.19,0,0,1-.1.16l-1.27.74A.45.45,0,0,1,133.91,115.14Zm-1.37-.93h0l1.26.72a.23.23,0,0,0,.2,0l1.27-.74h0l-1.25-.72a.26.26,0,0,0-.21,0l-1.27.74Z" transform="translate(-4.42 -7.27)"/><g class="cls-1"><path class="cls-29" d="M128.23,112.46c.08.05.08.13,0,.17l-1.28.74a.3.3,0,0,1-.29,0l-1.25-.72c-.08-.05-.08-.12,0-.17l1.27-.74a.3.3,0,0,1,.29,0Z" transform="translate(-4.42 -7.27)"/><path class="cls-20" d="M126.82,113.49a.38.38,0,0,1-.19,0l-1.25-.73a.18.18,0,0,1-.11-.16.18.18,0,0,1,.1-.15l1.28-.74a.35.35,0,0,1,.37,0l1.26.72a.18.18,0,0,1,0,.32l-1.27.74A.41.41,0,0,1,126.82,113.49Zm-1.37-.93h0l1.26.73a.23.23,0,0,0,.2,0l1.27-.74h0l-1.25-.73a.26.26,0,0,0-.21,0l-1.27.74Z" transform="translate(-4.42 -7.27)"/><path class="cls-29" d="M130.73,112.91c.08,0,.08.12,0,.17l-1.27.74a.37.37,0,0,1-.29,0l-1.25-.73a.08.08,0,0,1,0-.16l1.27-.74a.3.3,0,0,1,.29,0Z" transform="translate(-4.42 -7.27)"/><path class="cls-20" d="M129.32,113.94a.38.38,0,0,1-.19,0l-1.26-.72a.18.18,0,0,1,0-.32l1.28-.74a.4.4,0,0,1,.37,0l1.26.73a.18.18,0,0,1,.1.16.18.18,0,0,1-.1.15l-1.27.74A.45.45,0,0,1,129.32,113.94ZM128,113h0l1.26.72a.23.23,0,0,0,.2,0l1.27-.74h0l-1.25-.73a.26.26,0,0,0-.21,0L128,113Z" transform="translate(-4.42 -7.27)"/><path class="cls-29" d="M126.55,113.44c.08,0,.08.12,0,.17l-1.27.74a.3.3,0,0,1-.29,0l-1.26-.72c-.08,0-.08-.13,0-.17l1.28-.74a.3.3,0,0,1,.29,0Z" transform="translate(-4.42 -7.27)"/><path class="cls-20" d="M125.13,114.47a.29.29,0,0,1-.18,0l-1.26-.72a.18.18,0,0,1,0-.32l1.27-.74a.42.42,0,0,1,.38,0l1.25.73a.18.18,0,0,1,.11.16.19.19,0,0,1-.11.16l-1.27.73A.3.3,0,0,1,125.13,114.47Zm-1.37-.93h0l1.25.73a.26.26,0,0,0,.21,0l1.27-.74h0l-1.26-.73a.23.23,0,0,0-.2,0l-1.27.74Z" transform="translate(-4.42 -7.27)"/><path class="cls-29" d="M132.81,113.64a.08.08,0,0,1,0,.16l-1.27.74a.3.3,0,0,1-.29,0l-1.25-.72c-.08,0-.08-.12,0-.17l1.27-.74a.3.3,0,0,1,.29,0Z" transform="translate(-4.42 -7.27)"/><path class="cls-20" d="M131.4,114.66a.38.38,0,0,1-.19,0l-1.26-.73a.19.19,0,0,1-.1-.16.18.18,0,0,1,.1-.15l1.28-.74a.35.35,0,0,1,.37,0l1.26.72a.18.18,0,0,1,0,.32l-1.27.74A.43.43,0,0,1,131.4,114.66Zm-1.37-.93h0l1.25.73a.26.26,0,0,0,.21,0l1.27-.74h0l-1.25-.72a.2.2,0,0,0-.21,0l-1.27.73Z" transform="translate(-4.42 -7.27)"/><path class="cls-29" d="M129.05,113.89c.08,0,.08.12,0,.17l-1.27.74a.37.37,0,0,1-.29,0l-1.26-.73c-.08,0-.08-.12,0-.17l1.28-.73a.3.3,0,0,1,.29,0Z" transform="translate(-4.42 -7.27)"/><path class="cls-20" d="M127.63,114.92a.37.37,0,0,1-.18,0l-1.26-.72a.2.2,0,0,1-.1-.16.18.18,0,0,1,.1-.16l1.27-.74a.42.42,0,0,1,.38,0l1.25.73a.17.17,0,0,1,.11.15.18.18,0,0,1-.11.16l-1.27.74A.38.38,0,0,1,127.63,114.92Zm-1.37-.93h0l1.25.72a.26.26,0,0,0,.21,0L129,114h0l-1.26-.72a.23.23,0,0,0-.2,0l-1.27.74Z" transform="translate(-4.42 -7.27)"/><path class="cls-29" d="M124.87,114.42c.08,0,.08.12,0,.17l-1.27.74a.3.3,0,0,1-.29,0l-1.26-.73a.08.08,0,0,1,0-.16l1.27-.74a.3.3,0,0,1,.29,0Z" transform="translate(-4.42 -7.27)"/><path class="cls-20" d="M123.45,115.45a.41.41,0,0,1-.19,0l-1.25-.72a.17.17,0,0,1,0-.32l1.27-.74a.42.42,0,0,1,.38,0l1.25.73a.17.17,0,0,1,.1.16.16.16,0,0,1-.1.15l-1.27.74A.38.38,0,0,1,123.45,115.45Zm-1.37-.93h0l1.26.72a.18.18,0,0,0,.2,0l1.27-.73h0l-1.25-.73a.23.23,0,0,0-.2,0l-1.28.74Z" transform="translate(-4.42 -7.27)"/><path class="cls-29" d="M131.12,114.62c.09,0,.09.12,0,.16l-1.28.74a.3.3,0,0,1-.29,0l-1.25-.72c-.08,0-.08-.12,0-.17l1.27-.74a.37.37,0,0,1,.29,0Z" transform="translate(-4.42 -7.27)"/><path class="cls-20" d="M129.71,115.64a.38.38,0,0,1-.19,0l-1.25-.73a.17.17,0,0,1-.11-.16.17.17,0,0,1,.11-.15l1.27-.74a.4.4,0,0,1,.37,0l1.26.72a.18.18,0,0,1,0,.32l-1.27.74A.41.41,0,0,1,129.71,115.64Zm-1.37-.93h0l1.26.73a.23.23,0,0,0,.2,0l1.27-.74h0l-1.25-.72a.26.26,0,0,0-.21,0l-1.27.74Z" transform="translate(-4.42 -7.27)"/><path class="cls-29" d="M127.37,114.87c.08,0,.08.12,0,.17l-1.28.74a.36.36,0,0,1-.29,0l-1.25-.73c-.08,0-.08-.12,0-.17l1.27-.74a.37.37,0,0,1,.29,0Z" transform="translate(-4.42 -7.27)"/><path class="cls-20" d="M126,115.9a.41.41,0,0,1-.19-.05l-1.25-.72a.19.19,0,0,1-.11-.16.18.18,0,0,1,.11-.16l1.27-.74a.4.4,0,0,1,.37,0l1.26.72a.18.18,0,0,1,0,.32l-1.27.74A.41.41,0,0,1,126,115.9Zm-1.37-.93h0l1.26.72a.23.23,0,0,0,.2,0l1.27-.74h0l-1.25-.72a.26.26,0,0,0-.21,0l-1.27.74Z" transform="translate(-4.42 -7.27)"/><path class="cls-29" d="M129.44,115.6c.08,0,.08.12,0,.17l-1.27.73a.3.3,0,0,1-.29,0l-1.26-.72c-.08,0-.08-.12,0-.17l1.27-.74a.37.37,0,0,1,.29,0Z" transform="translate(-4.42 -7.27)"/><path class="cls-20" d="M128,116.63a.41.41,0,0,1-.19,0l-1.25-.73a.17.17,0,0,1-.11-.15.18.18,0,0,1,.11-.16l1.27-.74a.42.42,0,0,1,.38,0l1.25.72a.18.18,0,0,1,0,.32l-1.27.74A.38.38,0,0,1,128,116.63Zm-1.37-.93h0l1.26.72a.23.23,0,0,0,.2,0l1.27-.74h0l-1.25-.72a.23.23,0,0,0-.2,0l-1.28.74Z" transform="translate(-4.42 -7.27)"/></g><path class="cls-29" d="M135.78,110c.08,0,.09.12,0,.16l-1.28.74a.3.3,0,0,1-.29,0l-1.25-.72c-.08,0-.08-.12,0-.17l1.27-.74a.3.3,0,0,1,.29,0Z" transform="translate(-4.42 -7.27)"/><path class="cls-20" d="M134.37,111a.38.38,0,0,1-.19,0l-1.25-.73a.17.17,0,0,1-.11-.16.18.18,0,0,1,.1-.15l1.28-.74a.35.35,0,0,1,.37,0l1.26.72a.18.18,0,0,1,0,.32l-1.27.74A.41.41,0,0,1,134.37,111Zm-1.37-.93h0l1.26.73a.23.23,0,0,0,.2,0l1.27-.74h0l-1.25-.72a.2.2,0,0,0-.21,0l-1.27.73Z" transform="translate(-4.42 -7.27)"/><path class="cls-29" d="M142.07,110.19a.08.08,0,0,1,0,.16l-1.27.74a.3.3,0,0,1-.29,0l-1.25-.72c-.08-.05-.08-.12,0-.17l1.27-.74a.37.37,0,0,1,.29,0Z" transform="translate(-4.42 -7.27)"/><path class="cls-20" d="M140.66,111.21a.38.38,0,0,1-.19,0l-1.26-.73a.18.18,0,0,1-.1-.15.19.19,0,0,1,.1-.16l1.28-.74a.4.4,0,0,1,.37,0l1.26.72a.18.18,0,0,1,0,.32l-1.28.74A.37.37,0,0,1,140.66,111.21Zm-1.37-.92h0l1.25.72a.26.26,0,0,0,.21,0l1.27-.74h0l-1.25-.72a.26.26,0,0,0-.21,0l-1.27.74Z" transform="translate(-4.42 -7.27)"/><path class="cls-29" d="M139.57,109.71c.08.05.08.12,0,.17l-1.28.74a.37.37,0,0,1-.29,0l-1.25-.73a.08.08,0,0,1,0-.16L138,109a.3.3,0,0,1,.29,0Z" transform="translate(-4.42 -7.27)"/><path class="cls-20" d="M138.15,110.74a.41.41,0,0,1-.19,0l-1.25-.72a.17.17,0,0,1,0-.32l1.27-.74a.4.4,0,0,1,.37,0l1.26.73a.18.18,0,0,1,.1.16.18.18,0,0,1-.1.15l-1.27.74A.41.41,0,0,1,138.15,110.74Zm-1.37-.93h0l1.26.72a.23.23,0,0,0,.2,0l1.27-.74h0l-1.25-.73a.26.26,0,0,0-.21,0l-1.27.74Z" transform="translate(-4.42 -7.27)"/><path class="cls-29" d="M136.65,107.57c.08.05.08.12,0,.17l-1.27.74a.3.3,0,0,1-.29,0l-1.25-.72c-.08-.05-.08-.13,0-.17l1.27-.74a.3.3,0,0,1,.29,0Z" transform="translate(-4.42 -7.27)"/><path class="cls-20" d="M135.24,108.6a.38.38,0,0,1-.19,0l-1.26-.72a.18.18,0,0,1,0-.32l1.28-.74a.4.4,0,0,1,.37,0l1.26.73a.19.19,0,0,1,.1.16.18.18,0,0,1-.1.15l-1.27.74A.45.45,0,0,1,135.24,108.6Zm-1.37-.93h0l1.25.72a.22.22,0,0,0,.21,0l1.27-.74h0l-1.25-.73a.26.26,0,0,0-.21,0l-1.27.74Z" transform="translate(-4.42 -7.27)"/><path class="cls-29" d="M138.34,106.59c.08,0,.08.13,0,.17l-1.27.74a.3.3,0,0,1-.29,0l-1.26-.72c-.08,0-.08-.12,0-.17l1.27-.74a.3.3,0,0,1,.29,0Z" transform="translate(-4.42 -7.27)"/><path class="cls-20" d="M136.92,107.62a.41.41,0,0,1-.19,0l-1.25-.73a.18.18,0,0,1-.11-.16.19.19,0,0,1,.11-.16l1.27-.73a.37.37,0,0,1,.38,0l1.25.72a.18.18,0,0,1,0,.32l-1.27.74A.38.38,0,0,1,136.92,107.62Zm-1.37-.93h0l1.26.73a.23.23,0,0,0,.2,0l1.27-.74h0l-1.25-.73a.23.23,0,0,0-.2,0l-1.28.74Z" transform="translate(-4.42 -7.27)"/><path class="cls-29" d="M139.15,108c.08,0,.08.12,0,.17l-1.27.74a.37.37,0,0,1-.29,0l-1.25-.73c-.08,0-.08-.12,0-.17l1.27-.74a.37.37,0,0,1,.29,0Z" transform="translate(-4.42 -7.27)"/><path class="cls-20" d="M137.74,109.05a.38.38,0,0,1-.19,0l-1.26-.72a.2.2,0,0,1-.1-.16.19.19,0,0,1,.1-.16l1.27-.74a.42.42,0,0,1,.38,0l1.25.72a.19.19,0,0,1,.11.16.19.19,0,0,1-.1.16l-1.28.74A.37.37,0,0,1,137.74,109.05Zm-1.37-.93h0l1.25.72a.26.26,0,0,0,.21,0l1.27-.74h0l-1.26-.72a.23.23,0,0,0-.2,0l-1.27.74Z" transform="translate(-4.42 -7.27)"/><path class="cls-29" d="M137.47,109c.08,0,.08.12,0,.17l-1.27.73a.3.3,0,0,1-.29,0l-1.26-.72c-.08-.05-.08-.12,0-.17l1.27-.74a.37.37,0,0,1,.29,0Z" transform="translate(-4.42 -7.27)"/><path class="cls-20" d="M136.05,110a.45.45,0,0,1-.19,0l-1.25-.73a.16.16,0,0,1-.1-.15.17.17,0,0,1,.1-.16l1.27-.74a.42.42,0,0,1,.38,0l1.25.72a.18.18,0,0,1,0,.32l-1.27.74A.38.38,0,0,1,136.05,110Zm-1.37-.93h0l1.25.72a.23.23,0,0,0,.2,0l1.28-.74h0l-1.26-.72a.23.23,0,0,0-.2,0l-1.27.74Z" transform="translate(-4.42 -7.27)"/><g class="cls-1"><path class="cls-29" d="M137.88,110.69c.08,0,.08.12,0,.17l-1.27.74a.3.3,0,0,1-.29,0l-1.26-.73a.08.08,0,0,1,0-.16l1.27-.74a.3.3,0,0,1,.29,0Z" transform="translate(-4.42 -7.27)"/><path class="cls-20" d="M136.46,111.72a.41.41,0,0,1-.19,0L135,111a.18.18,0,0,1,0-.32l1.27-.74a.42.42,0,0,1,.38,0l1.25.73a.17.17,0,0,1,.1.16.16.16,0,0,1-.1.15l-1.27.74A.38.38,0,0,1,136.46,111.72Zm-1.37-.93h0l1.25.72a.18.18,0,0,0,.2,0l1.28-.73h0l-1.25-.73a.23.23,0,0,0-.2,0l-1.28.74Z" transform="translate(-4.42 -7.27)"/><path class="cls-29" d="M140.39,111.17c.08,0,.08.12,0,.17l-1.28.73a.3.3,0,0,1-.29,0l-1.25-.72c-.08,0-.08-.12,0-.17l1.27-.74a.37.37,0,0,1,.29,0Z" transform="translate(-4.42 -7.27)"/><path class="cls-20" d="M139,112.2a.41.41,0,0,1-.19,0l-1.25-.73a.17.17,0,0,1-.11-.15.18.18,0,0,1,.11-.16l1.27-.74a.4.4,0,0,1,.37,0l1.26.72a.18.18,0,0,1,0,.32l-1.27.74A.41.41,0,0,1,139,112.2Zm-1.37-.93h0l1.26.72a.23.23,0,0,0,.2,0l1.27-.74h0l-1.25-.72a.26.26,0,0,0-.21,0l-1.27.74Z" transform="translate(-4.42 -7.27)"/><path class="cls-29" d="M136.19,111.67c.08,0,.08.12,0,.17l-1.27.74a.3.3,0,0,1-.29,0l-1.26-.72c-.08,0-.08-.13,0-.17l1.27-.74a.3.3,0,0,1,.29,0Z" transform="translate(-4.42 -7.27)"/><path class="cls-20" d="M134.77,112.7a.29.29,0,0,1-.18,0l-1.26-.72a.2.2,0,0,1-.1-.16.18.18,0,0,1,.1-.16l1.27-.74a.42.42,0,0,1,.38,0l1.25.73a.18.18,0,0,1,.11.16.19.19,0,0,1-.11.16l-1.27.73A.3.3,0,0,1,134.77,112.7Zm-1.37-.93h0l1.25.73a.26.26,0,0,0,.21,0l1.27-.74h0l-1.26-.73a.23.23,0,0,0-.2,0l-1.27.74Z" transform="translate(-4.42 -7.27)"/><path class="cls-29" d="M138.7,112.15c.08,0,.08.12,0,.17l-1.27.73a.3.3,0,0,1-.29,0l-1.26-.72c-.08,0-.08-.12,0-.17l1.27-.74a.37.37,0,0,1,.29,0Z" transform="translate(-4.42 -7.27)"/><path class="cls-20" d="M137.28,113.18a.41.41,0,0,1-.19-.05l-1.25-.72a.18.18,0,0,1-.1-.16.17.17,0,0,1,.1-.16l1.27-.74a.42.42,0,0,1,.38,0l1.25.72a.18.18,0,0,1,0,.32l-1.27.74A.38.38,0,0,1,137.28,113.18Zm-1.37-.93h0l1.25.72a.23.23,0,0,0,.2,0l1.28-.74h0l-1.25-.72a.23.23,0,0,0-.2,0l-1.27.74Z" transform="translate(-4.42 -7.27)"/></g><g class="cls-1"><path class="cls-29" d="M128.61,110.33c.08,0,.08.12,0,.17l-1.28.74a.3.3,0,0,1-.29,0l-.66-.38c-.08,0-.08-.12,0-.17l1.28-.74a.3.3,0,0,1,.29,0Z" transform="translate(-4.42 -7.27)"/><path class="cls-20" d="M127.19,111.36a.38.38,0,0,1-.19,0l-.66-.38a.19.19,0,0,1-.1-.16.18.18,0,0,1,.1-.15l1.27-.74a.37.37,0,0,1,.38,0l.66.38a.19.19,0,0,1,.1.16.18.18,0,0,1-.1.15l-1.27.74A.41.41,0,0,1,127.19,111.36Zm-.78-.59h0l.66.38a.18.18,0,0,0,.2,0l1.27-.73h0l-.66-.38a.18.18,0,0,0-.2,0l-1.27.73Z" transform="translate(-4.42 -7.27)"/><path class="cls-29" d="M131.6,110.51c.08,0,.08.12,0,.17l-1.27.73a.3.3,0,0,1-.29,0l-1.25-.72c-.08,0-.08-.12,0-.17l1.27-.74a.37.37,0,0,1,.29,0Z" transform="translate(-4.42 -7.27)"/><path class="cls-20" d="M130.19,111.54a.38.38,0,0,1-.19-.05l-1.26-.72a.2.2,0,0,1-.1-.16.19.19,0,0,1,.1-.16l1.27-.74a.42.42,0,0,1,.38,0l1.25.72a.19.19,0,0,1,.11.16.2.2,0,0,1-.1.16l-1.28.74A.37.37,0,0,1,130.19,111.54Zm-1.37-.93h0l1.25.72a.26.26,0,0,0,.21,0l1.27-.74h0l-1.26-.72a.23.23,0,0,0-.2,0l-1.27.74Z" transform="translate(-4.42 -7.27)"/><path class="cls-29" d="M134.1,111c.08,0,.08.13,0,.17l-1.27.74a.3.3,0,0,1-.29,0l-1.25-.72c-.08,0-.09-.12,0-.17l1.28-.74a.3.3,0,0,1,.29,0Z" transform="translate(-4.42 -7.27)"/><path class="cls-20" d="M132.68,112a.37.37,0,0,1-.18,0l-1.26-.73a.19.19,0,0,1-.1-.16.2.2,0,0,1,.1-.16l1.27-.73a.37.37,0,0,1,.38,0l1.25.72a.17.17,0,0,1,0,.32l-1.27.74A.38.38,0,0,1,132.68,112Zm-1.37-.93h0l1.25.73a.26.26,0,0,0,.21,0l1.27-.74h0l-1.26-.73a.23.23,0,0,0-.2,0l-1.27.74Z" transform="translate(-4.42 -7.27)"/><path class="cls-29" d="M129.92,111.49a.08.08,0,0,1,0,.16l-1.27.74a.3.3,0,0,1-.29,0l-1.26-.72c-.08,0-.08-.12,0-.17l1.27-.74a.37.37,0,0,1,.29,0Z" transform="translate(-4.42 -7.27)"/><path class="cls-20" d="M128.5,112.51a.41.41,0,0,1-.19,0l-1.25-.73a.16.16,0,0,1-.1-.16.16.16,0,0,1,.1-.15l1.27-.74a.42.42,0,0,1,.38,0l1.25.72a.18.18,0,0,1,0,.32l-1.27.74A.38.38,0,0,1,128.5,112.51Zm-1.37-.93h0l1.25.73a.23.23,0,0,0,.2,0l1.28-.74h0l-1.25-.72a.23.23,0,0,0-.2,0l-1.28.74Z" transform="translate(-4.42 -7.27)"/><path class="cls-29" d="M132.42,111.93c.08,0,.08.12,0,.17l-1.27.74a.3.3,0,0,1-.29,0l-1.26-.72c-.08-.05-.08-.13,0-.17l1.27-.74a.3.3,0,0,1,.29,0Z" transform="translate(-4.42 -7.27)"/><path class="cls-20" d="M131,113a.32.32,0,0,1-.19,0l-1.25-.72a.18.18,0,0,1-.1-.16.16.16,0,0,1,.1-.16l1.27-.74a.42.42,0,0,1,.38,0l1.25.73a.17.17,0,0,1,.1.16.16.16,0,0,1-.1.15l-1.27.74A.3.3,0,0,1,131,113Zm-1.37-.93h0l1.26.73a.23.23,0,0,0,.2,0l1.27-.74h0l-1.25-.73a.23.23,0,0,0-.2,0l-1.28.74Z" transform="translate(-4.42 -7.27)"/><path class="cls-29" d="M134.5,112.65c.08,0,.08.13,0,.17l-1.27.74a.3.3,0,0,1-.29,0l-1.25-.72c-.08,0-.09-.12,0-.17l1.28-.74a.3.3,0,0,1,.29,0Z" transform="translate(-4.42 -7.27)"/><path class="cls-20" d="M133.09,113.68a.38.38,0,0,1-.19,0l-1.26-.73a.19.19,0,0,1-.1-.16.2.2,0,0,1,.1-.16l1.27-.73a.37.37,0,0,1,.38,0l1.25.72a.19.19,0,0,1,.11.16.2.2,0,0,1-.1.16l-1.28.74A.37.37,0,0,1,133.09,113.68Zm-1.38-.93h0l1.25.73a.26.26,0,0,0,.21,0l1.27-.74h0L133.2,112a.23.23,0,0,0-.2,0l-1.27.74Z" transform="translate(-4.42 -7.27)"/></g><path class="cls-29" d="M130.36,109.31c.08,0,.08.12,0,.17l-1.27.74a.3.3,0,0,1-.29,0l-.66-.38c-.08,0-.08-.12,0-.17l1.27-.74a.37.37,0,0,1,.29,0Z" transform="translate(-4.42 -7.27)"/><path class="cls-20" d="M128.94,110.34a.32.32,0,0,1-.19,0l-.66-.38a.18.18,0,0,1-.1-.15.19.19,0,0,1,.1-.16l1.27-.74a.42.42,0,0,1,.38,0l.66.38a.17.17,0,0,1,.1.16.18.18,0,0,1-.1.16l-1.27.73A.3.3,0,0,1,128.94,110.34Zm-.77-.58h0l.66.38a.23.23,0,0,0,.2,0l1.27-.74h0l-.66-.38a.23.23,0,0,0-.2,0l-1.27.74Z" transform="translate(-4.42 -7.27)"/><path class="cls-29" d="M141.25,108.73c.08,0,.08.12,0,.17l-1.27.74a.37.37,0,0,1-.29,0l-1.25-.73c-.08,0-.08-.12,0-.17l1.27-.73a.3.3,0,0,1,.29,0Z" transform="translate(-4.42 -7.27)"/><path class="cls-20" d="M139.84,109.76a.38.38,0,0,1-.19-.05L138.4,109a.19.19,0,0,1-.11-.16.2.2,0,0,1,.1-.16l1.28-.74a.4.4,0,0,1,.37,0l1.26.73a.18.18,0,0,1,.1.15.19.19,0,0,1-.1.16l-1.27.74A.41.41,0,0,1,139.84,109.76Zm-1.37-.93h0l1.26.72a.23.23,0,0,0,.2,0l1.27-.74h0l-1.25-.72a.26.26,0,0,0-.21,0l-1.27.74Z" transform="translate(-4.42 -7.27)"/><path class="cls-29" d="M151.09,107.1c.08.05.08.12,0,.17l-1.27.74a.3.3,0,0,1-.29,0l-.61-.36a.08.08,0,0,1,0-.16l1.27-.74a.3.3,0,0,1,.29,0Z" transform="translate(-4.42 -7.27)"/><path class="cls-20" d="M149.68,108.13a.38.38,0,0,1-.19,0l-.62-.35a.18.18,0,0,1,0-.32l1.28-.74a.4.4,0,0,1,.37,0l.62.36a.19.19,0,0,1,.1.16.18.18,0,0,1-.1.15l-1.27.74A.45.45,0,0,1,149.68,108.13Zm-.73-.56h0l.62.35a.18.18,0,0,0,.2,0l1.27-.73h0l-.61-.36a.26.26,0,0,0-.21,0l-1.27.74Z" transform="translate(-4.42 -7.27)"/><g class="cls-1"><path class="cls-29" d="M145.89,104.1c.08.05.08.13,0,.17l-1.27.74a.3.3,0,0,1-.29,0l-1.26-.72c-.08-.05-.08-.12,0-.17l1.27-.74a.3.3,0,0,1,.29,0Z" transform="translate(-4.42 -7.27)"/><path class="cls-20" d="M144.47,105.13a.41.41,0,0,1-.19,0l-1.25-.73a.17.17,0,0,1-.1-.16.16.16,0,0,1,.1-.15l1.27-.74a.37.37,0,0,1,.38,0l1.25.72a.18.18,0,0,1,0,.32l-1.27.74A.38.38,0,0,1,144.47,105.13Zm-1.37-.93h0l1.26.73a.23.23,0,0,0,.2,0l1.27-.74h0l-1.25-.72a.2.2,0,0,0-.2,0l-1.28.74Z" transform="translate(-4.42 -7.27)"/><path class="cls-29" d="M139.12,104.22c.08,0,.08.12,0,.17l-1.27.74a.3.3,0,0,1-.29,0l-.66-.38c-.08,0-.08-.12,0-.17l1.27-.74a.3.3,0,0,1,.29,0Z" transform="translate(-4.42 -7.27)"/><path class="cls-20" d="M137.7,105.25a.45.45,0,0,1-.19,0l-.66-.38a.19.19,0,0,1-.1-.16.18.18,0,0,1,.1-.15l1.28-.74a.35.35,0,0,1,.37,0l.66.38a.17.17,0,0,1,.1.16.16.16,0,0,1-.1.15l-1.27.74A.38.38,0,0,1,137.7,105.25Zm-.77-.59h0l.66.38a.18.18,0,0,0,.2,0l1.28-.73h0l-.66-.38a.2.2,0,0,0-.21,0l-1.27.73Z" transform="translate(-4.42 -7.27)"/><path class="cls-29" d="M141.7,104.64a.09.09,0,0,1,0,.16l-1.28.74a.3.3,0,0,1-.29,0l-1.25-.72c-.08,0-.08-.12,0-.17l1.27-.74a.37.37,0,0,1,.29,0Z" transform="translate(-4.42 -7.27)"/><path class="cls-20" d="M140.29,105.66a.38.38,0,0,1-.19,0l-1.25-.73a.17.17,0,0,1-.11-.15.19.19,0,0,1,.1-.16l1.28-.74a.4.4,0,0,1,.37,0l1.26.72a.18.18,0,0,1,0,.32l-1.27.74A.41.41,0,0,1,140.29,105.66Zm-1.37-.92h0l1.26.72a.23.23,0,0,0,.2,0l1.27-.74h0l-1.25-.72a.26.26,0,0,0-.21,0l-1.27.74Z" transform="translate(-4.42 -7.27)"/><path class="cls-29" d="M144.2,105.08c.08,0,.08.12,0,.17l-1.27.74a.3.3,0,0,1-.29,0l-1.25-.72c-.08,0-.08-.13,0-.17l1.27-.74a.3.3,0,0,1,.29,0Z" transform="translate(-4.42 -7.27)"/><path class="cls-20" d="M142.79,106.11a.3.3,0,0,1-.19,0l-1.26-.72a.18.18,0,0,1,0-.32l1.28-.74a.4.4,0,0,1,.37,0l1.26.73a.19.19,0,0,1,.1.16.2.2,0,0,1-.1.16l-1.27.73A.34.34,0,0,1,142.79,106.11Zm-1.37-.93h0l1.26.73a.23.23,0,0,0,.2,0l1.27-.74h0l-1.25-.73a.26.26,0,0,0-.21,0l-1.27.74Z" transform="translate(-4.42 -7.27)"/><path class="cls-29" d="M137.37,105.24c.08.05.08.12,0,.17l-1.27.74a.37.37,0,0,1-.29,0l-.66-.38c-.08,0-.09-.13,0-.17l1.28-.74a.3.3,0,0,1,.29,0Z" transform="translate(-4.42 -7.27)"/><path class="cls-20" d="M136,106.27a.41.41,0,0,1-.19,0l-.66-.38a.19.19,0,0,1-.1-.16.2.2,0,0,1,.1-.16l1.27-.73a.39.39,0,0,1,.38,0l.66.39a.18.18,0,0,1,.1.15.17.17,0,0,1-.1.16l-1.27.74A.41.41,0,0,1,136,106.27Zm-.78-.59h0l.66.38a.23.23,0,0,0,.2,0l1.27-.74h0l-.66-.38a.23.23,0,0,0-.2,0l-1.27.74Z" transform="translate(-4.42 -7.27)"/><path class="cls-29" d="M140,105.62a.08.08,0,0,1,0,.16l-1.27.74a.3.3,0,0,1-.29,0l-1.26-.72c-.08,0-.08-.12,0-.17l1.28-.74a.3.3,0,0,1,.29,0Z" transform="translate(-4.42 -7.27)"/><path class="cls-20" d="M138.6,106.64a.37.37,0,0,1-.18,0l-1.26-.73a.19.19,0,0,1-.1-.16.18.18,0,0,1,.1-.15l1.27-.74a.37.37,0,0,1,.38,0l1.25.72a.17.17,0,0,1,0,.32l-1.27.74A.38.38,0,0,1,138.6,106.64Zm-1.37-.93h0l1.25.73a.26.26,0,0,0,.21,0l1.27-.74h0l-1.26-.72a.18.18,0,0,0-.2,0l-1.27.73Z" transform="translate(-4.42 -7.27)"/><path class="cls-29" d="M147.52,105.07c.08.05.08.12,0,.17L145,106.71a.37.37,0,0,1-.29,0l-1.26-.73c-.08,0-.08-.12,0-.17l2.53-1.46a.3.3,0,0,1,.29,0Z" transform="translate(-4.42 -7.27)"/><path class="cls-20" d="M144.85,106.83a.37.37,0,0,1-.18,0l-1.26-.72a.18.18,0,0,1,0-.32l2.53-1.47a.4.4,0,0,1,.37,0l1.26.73a.19.19,0,0,1,.1.16.18.18,0,0,1-.1.15L145,106.78A.38.38,0,0,1,144.85,106.83Zm-1.37-.93h0l1.25.72a.26.26,0,0,0,.21,0l2.52-1.46h0l-1.25-.73a.26.26,0,0,0-.21,0l-2.52,1.47Z" transform="translate(-4.42 -7.27)"/><path class="cls-29" d="M142.52,106.06c.08,0,.08.12,0,.17l-1.27.74a.3.3,0,0,1-.29,0l-1.26-.73a.08.08,0,0,1,0-.16l1.28-.74a.3.3,0,0,1,.29,0Z" transform="translate(-4.42 -7.27)"/><path class="cls-20" d="M141.1,107.09a.37.37,0,0,1-.18,0l-1.26-.72a.2.2,0,0,1-.1-.16.18.18,0,0,1,.1-.16l1.27-.74a.42.42,0,0,1,.38,0l1.25.73a.18.18,0,0,1,.11.16.17.17,0,0,1-.11.15l-1.27.74A.38.38,0,0,1,141.1,107.09Zm-1.37-.93h0l1.25.72a.2.2,0,0,0,.21,0l1.27-.73h0l-1.26-.73a.23.23,0,0,0-.2,0l-1.27.74Z" transform="translate(-4.42 -7.27)"/><path class="cls-29" d="M135.61,106.26c.08,0,.08.12,0,.17l-1.27.74a.37.37,0,0,1-.29,0l-.66-.39a.08.08,0,0,1,0-.16l1.27-.74a.3.3,0,0,1,.29,0Z" transform="translate(-4.42 -7.27)"/><path class="cls-20" d="M134.2,107.29a.38.38,0,0,1-.19-.05l-.66-.38a.18.18,0,0,1,0-.32l1.27-.74a.42.42,0,0,1,.38,0l.66.38a.2.2,0,0,1,.1.16.19.19,0,0,1-.1.16l-1.27.74A.41.41,0,0,1,134.2,107.29Zm-.78-.59h0l.66.38a.23.23,0,0,0,.2,0l1.27-.74h0l-.66-.38a.23.23,0,0,0-.2,0l-1.27.74Z" transform="translate(-4.42 -7.27)"/><path class="cls-29" d="M144.63,106.77c.08,0,.08.12,0,.17l-1.27.73a.3.3,0,0,1-.29,0l-1.26-.72c-.08,0-.08-.12,0-.17l1.28-.74a.37.37,0,0,1,.29,0Z" transform="translate(-4.42 -7.27)"/><path class="cls-20" d="M143.21,107.8a.37.37,0,0,1-.18,0l-1.26-.72a.2.2,0,0,1-.1-.16.19.19,0,0,1,.1-.16L143,106a.42.42,0,0,1,.38,0l1.25.72a.17.17,0,0,1,0,.32l-1.27.74A.38.38,0,0,1,143.21,107.8Zm-1.37-.93h0l1.25.72a.26.26,0,0,0,.21,0l1.27-.74h0l-1.26-.72a.23.23,0,0,0-.2,0l-1.27.74Z" transform="translate(-4.42 -7.27)"/><path class="cls-29" d="M149.18,106a.09.09,0,0,1,0,.17l-3.39,2a.3.3,0,0,1-.29,0l-1.25-.72c-.08,0-.08-.12,0-.17l3.38-2a.37.37,0,0,1,.29,0Z" transform="translate(-4.42 -7.27)"/><path class="cls-20" d="M145.66,108.26a.38.38,0,0,1-.19,0l-1.25-.73a.18.18,0,0,1-.11-.16.18.18,0,0,1,.1-.15l3.39-2a.4.4,0,0,1,.37,0l1.26.72a.2.2,0,0,1,.1.16.19.19,0,0,1-.1.16l-3.38,2A.41.41,0,0,1,145.66,108.26Zm-1.37-.93h0l1.26.73a.23.23,0,0,0,.2,0l3.38-2h0l-1.25-.72a.26.26,0,0,0-.21,0l-3.38,2Z" transform="translate(-4.42 -7.27)"/><path class="cls-29" d="M142.94,107.75c.08,0,.08.12,0,.17l-1.27.74a.37.37,0,0,1-.29,0l-1.25-.73c-.08,0-.08-.12,0-.17l1.27-.74a.37.37,0,0,1,.29,0Z" transform="translate(-4.42 -7.27)"/><path class="cls-20" d="M141.53,108.78a.38.38,0,0,1-.19,0l-1.26-.72a.2.2,0,0,1-.1-.16.19.19,0,0,1,.1-.16l1.27-.74a.42.42,0,0,1,.38,0l1.25.72a.19.19,0,0,1,.11.16.19.19,0,0,1-.1.16l-1.28.74A.37.37,0,0,1,141.53,108.78Zm-1.37-.93h0l1.25.72a.26.26,0,0,0,.21,0l1.27-.74h0l-1.26-.72a.23.23,0,0,0-.2,0l-1.27.74Z" transform="translate(-4.42 -7.27)"/><path class="cls-29" d="M145.45,108.23a.08.08,0,0,1,0,.16l-1.27.74a.3.3,0,0,1-.29,0l-1.26-.72c-.08,0-.08-.12,0-.17l1.27-.74a.3.3,0,0,1,.29,0Z" transform="translate(-4.42 -7.27)"/><path class="cls-20" d="M144,109.25a.41.41,0,0,1-.19,0l-1.25-.73a.17.17,0,0,1-.1-.16.16.16,0,0,1,.1-.15l1.27-.74a.37.37,0,0,1,.38,0l1.25.72a.18.18,0,0,1,0,.32l-1.27.74A.38.38,0,0,1,144,109.25Zm-1.37-.93h0l1.26.73a.23.23,0,0,0,.2,0l1.27-.74h0l-1.25-.72a.18.18,0,0,0-.2,0l-1.28.73Z" transform="translate(-4.42 -7.27)"/></g><g class="cls-1"><path class="cls-29" d="M133.86,107.28a.08.08,0,0,1,0,.16l-1.27.74a.3.3,0,0,1-.29,0l-.66-.38a.08.08,0,0,1,0-.16l1.27-.74a.3.3,0,0,1,.29,0Z" transform="translate(-4.42 -7.27)"/><path class="cls-20" d="M132.45,108.3a.38.38,0,0,1-.19,0l-.66-.38a.17.17,0,0,1,0-.32l1.27-.74a.4.4,0,0,1,.37,0l.66.38a.19.19,0,0,1,.11.16.2.2,0,0,1-.1.16l-1.28.74A.37.37,0,0,1,132.45,108.3Zm-.78-.58h0l.66.38a.26.26,0,0,0,.21,0l1.27-.74h0l-.66-.38a.23.23,0,0,0-.2,0l-1.28.74Z" transform="translate(-4.42 -7.27)"/><path class="cls-29" d="M132.11,108.3a.08.08,0,0,1,0,.16l-1.27.74a.3.3,0,0,1-.29,0l-.66-.38c-.08,0-.08-.12,0-.17l1.27-.74a.37.37,0,0,1,.29,0Z" transform="translate(-4.42 -7.27)"/><path class="cls-20" d="M130.69,109.32a.37.37,0,0,1-.18,0l-.66-.38a.19.19,0,0,1-.11-.16.19.19,0,0,1,.1-.16l1.28-.74a.4.4,0,0,1,.37,0l.66.38a.17.17,0,0,1,0,.32l-1.27.74A.38.38,0,0,1,130.69,109.32Zm-.77-.58h0l.66.38a.26.26,0,0,0,.21,0l1.27-.74h0l-.66-.38a.26.26,0,0,0-.21,0l-1.27.74Z" transform="translate(-4.42 -7.27)"/><path class="cls-29" d="M135,108.55c.08,0,.08.12,0,.17l-1.27.74a.37.37,0,0,1-.29,0l-1.26-.73a.08.08,0,0,1,0-.16l1.27-.74a.3.3,0,0,1,.29,0Z" transform="translate(-4.42 -7.27)"/><path class="cls-20" d="M133.55,109.58a.37.37,0,0,1-.18,0l-1.26-.72a.2.2,0,0,1-.1-.16.18.18,0,0,1,.1-.16l1.27-.74a.42.42,0,0,1,.38,0l1.25.73a.17.17,0,0,1,.11.15.17.17,0,0,1-.11.16l-1.27.74A.38.38,0,0,1,133.55,109.58Zm-1.37-.93h0l1.25.72a.26.26,0,0,0,.21,0l1.27-.74h0l-1.26-.73a.23.23,0,0,0-.2,0l-1.27.74Z" transform="translate(-4.42 -7.27)"/></g><path class="cls-29" d="M133.29,109.53c.08,0,.08.12,0,.17l-1.28.74a.37.37,0,0,1-.29,0l-1.25-.73c-.08,0-.08-.12,0-.17l1.27-.73a.33.33,0,0,1,.29,0Z" transform="translate(-4.42 -7.27)"/><path class="cls-20" d="M131.87,110.56a.41.41,0,0,1-.19,0l-1.25-.72a.17.17,0,0,1,0-.32l1.27-.74a.4.4,0,0,1,.37,0l1.26.72a.2.2,0,0,1,.1.16.19.19,0,0,1-.1.16l-1.27.74A.41.41,0,0,1,131.87,110.56Zm-1.37-.93h0l1.26.72a.23.23,0,0,0,.2,0l1.27-.74h0l-1.25-.72a.26.26,0,0,0-.21,0l-1.27.74Z" transform="translate(-4.42 -7.27)"/><path class="cls-29" d="M140.87,103.2c.08,0,.08.13,0,.17l-1.27.74a.3.3,0,0,1-.29,0l-.66-.38c-.08,0-.08-.12,0-.17l1.27-.74a.37.37,0,0,1,.29,0Z" transform="translate(-4.42 -7.27)"/><path class="cls-20" d="M139.45,104.23a.37.37,0,0,1-.18,0l-.66-.39a.17.17,0,0,1-.11-.15.18.18,0,0,1,.11-.16l1.27-.74a.4.4,0,0,1,.37,0l.66.38a.18.18,0,0,1,.11.16.19.19,0,0,1-.11.16l-1.27.74A.38.38,0,0,1,139.45,104.23Zm-.77-.58h0l.66.38a.26.26,0,0,0,.21,0l1.27-.74h0l-.66-.38a.26.26,0,0,0-.21,0l-1.27.74Z" transform="translate(-4.42 -7.27)"/><path class="cls-29" d="M142.62,102.19a.08.08,0,0,1,0,.16l-1.27.74a.3.3,0,0,1-.29,0l-.66-.38c-.08,0-.08-.12,0-.17l1.27-.74a.37.37,0,0,1,.29,0Z" transform="translate(-4.42 -7.27)"/><path class="cls-20" d="M141.21,103.21a.38.38,0,0,1-.19,0l-.66-.38a.18.18,0,0,1,0-.32l1.27-.74a.42.42,0,0,1,.38,0l.66.38a.18.18,0,0,1,0,.32l-1.27.74A.43.43,0,0,1,141.21,103.21Zm-.78-.58h0l.65.38a.26.26,0,0,0,.21,0l1.27-.74h0l-.66-.38a.23.23,0,0,0-.2,0l-1.28.74Z" transform="translate(-4.42 -7.27)"/><path class="cls-29" d="M144.25,103.16c.08,0,.08.12,0,.17l-2.1,1.22a.37.37,0,0,1-.29,0l-1.26-.73a.08.08,0,0,1,0-.16l2.1-1.23a.37.37,0,0,1,.29,0Z" transform="translate(-4.42 -7.27)"/><path class="cls-20" d="M142,104.67a.37.37,0,0,1-.18,0l-1.26-.72a.2.2,0,0,1-.1-.16.18.18,0,0,1,.1-.16l2.1-1.22a.42.42,0,0,1,.38,0l1.25.72a.18.18,0,0,1,.1.16.17.17,0,0,1-.1.16l-2.1,1.22A.38.38,0,0,1,142,104.67Zm-1.37-.93h0l1.25.72a.26.26,0,0,0,.21,0l2.1-1.22h0l-1.25-.72a.23.23,0,0,0-.2,0l-2.1,1.22Z" transform="translate(-4.42 -7.27)"/><path class="cls-29" d="M140.84,107c.08,0,.08.12,0,.17l-1.28.74a.37.37,0,0,1-.29,0l-1.25-.73a.08.08,0,0,1,0-.16l1.27-.74a.3.3,0,0,1,.29,0Z" transform="translate(-4.42 -7.27)"/><path class="cls-20" d="M139.42,108.07a.41.41,0,0,1-.19,0L138,107.3a.17.17,0,0,1,0-.32l1.27-.74a.4.4,0,0,1,.37,0l1.26.73a.18.18,0,0,1,.1.15.19.19,0,0,1-.1.16l-1.27.74A.41.41,0,0,1,139.42,108.07Zm-1.37-.93h0l1.26.72a.23.23,0,0,0,.2,0l1.27-.74h0l-1.25-.72a.26.26,0,0,0-.21,0l-1.27.74Z" transform="translate(-4.42 -7.27)"/><path class="cls-29" d="M130.26,117.05c.08,0,.08.12,0,.17L129,118a.37.37,0,0,1-.29,0l-1.25-.73a.08.08,0,0,1,0-.16l1.27-.74a.3.3,0,0,1,.29,0Z" transform="translate(-4.42 -7.27)"/><path class="cls-20" d="M128.85,118.08a.38.38,0,0,1-.19,0l-1.26-.72a.18.18,0,0,1,0-.32l1.27-.74a.42.42,0,0,1,.38,0l1.25.73a.17.17,0,0,1,.11.15.18.18,0,0,1-.1.16L129,118A.37.37,0,0,1,128.85,118.08Zm-1.37-.93h0l1.25.72a.26.26,0,0,0,.21,0l1.27-.74h0L129,116.4a.23.23,0,0,0-.2,0l-1.27.74Z" transform="translate(-4.42 -7.27)"/><path class="cls-29" d="M128.35,120.32c.08.05.08.12,0,.17l-1.27.74a.37.37,0,0,1-.29,0l-1.49-.86c-.08-.05-.08-.12,0-.17l1.27-.74a.37.37,0,0,1,.29,0Z" transform="translate(-4.42 -7.27)"/><path class="cls-20" d="M126.93,121.35a.41.41,0,0,1-.19,0l-1.48-.86a.17.17,0,0,1-.11-.15.18.18,0,0,1,.1-.16l1.28-.74a.4.4,0,0,1,.37,0l1.49.86a.16.16,0,0,1,.1.15.16.16,0,0,1-.1.16l-1.27.74A.38.38,0,0,1,126.93,121.35Zm-1.6-1.07h0l1.49.86a.23.23,0,0,0,.2,0l1.27-.74h0l-1.48-.86a.26.26,0,0,0-.21,0l-1.27.74Z" transform="translate(-4.42 -7.27)"/><path class="cls-29" d="M133.8,117.15c.08,0,.08.12,0,.17l-1.64,1a.3.3,0,0,1-.29,0l-1.48-.86a.09.09,0,0,1,0-.17l1.65-.95a.3.3,0,0,1,.29,0Z" transform="translate(-4.42 -7.27)"/><path class="cls-20" d="M132,118.39a.38.38,0,0,1-.19,0l-1.49-.86a.18.18,0,0,1,0-.32l1.64-1a.37.37,0,0,1,.38,0l1.49.86a.18.18,0,0,1,.1.15.19.19,0,0,1-.1.16l-1.64,1A.41.41,0,0,1,132,118.39Zm-1.6-1.06h0l1.49.86a.23.23,0,0,0,.2,0l1.64-1h0l-1.49-.85a.18.18,0,0,0-.2,0l-1.64.95Z" transform="translate(-4.42 -7.27)"/><path class="cls-29" d="M131.74,118.35c.08.05.08.12,0,.17l-1.27.74a.37.37,0,0,1-.29,0l-1.49-.86c-.08-.05-.08-.12,0-.17l1.27-.74a.3.3,0,0,1,.29,0Z" transform="translate(-4.42 -7.27)"/><path class="cls-20" d="M130.32,119.38a.45.45,0,0,1-.19,0l-1.48-.86a.18.18,0,0,1-.11-.16.17.17,0,0,1,.11-.15l1.27-.74a.35.35,0,0,1,.37,0l1.49.86a.16.16,0,0,1,.1.15.17.17,0,0,1-.1.16l-1.27.74A.38.38,0,0,1,130.32,119.38Zm-1.6-1.07h0l1.49.86a.23.23,0,0,0,.2,0l1.28-.74h0l-1.49-.85a.2.2,0,0,0-.21,0l-1.27.73Z" transform="translate(-4.42 -7.27)"/><path class="cls-29" d="M128.58,118c.09,0,.09.13,0,.17l-3.39,2a.37.37,0,0,1-.29,0l-1.25-.73a.08.08,0,0,1,0-.16l3.38-2a.3.3,0,0,1,.29,0Z" transform="translate(-4.42 -7.27)"/><path class="cls-20" d="M125.06,120.28a.38.38,0,0,1-.19,0l-1.25-.72a.17.17,0,0,1,0-.32l3.38-2a.35.35,0,0,1,.37,0l1.26.72a.18.18,0,0,1,0,.32l-3.38,2A.41.41,0,0,1,125.06,120.28Zm-1.37-.93h0l1.26.72a.23.23,0,0,0,.2,0l3.38-2h0l-1.25-.72a.2.2,0,0,0-.21,0l-3.38,2Z" transform="translate(-4.42 -7.27)"/><path class="cls-29" d="M130,119.34a.08.08,0,0,1,0,.16l-1.27.74a.3.3,0,0,1-.29,0l-1.49-.86a.08.08,0,0,1,0-.16l1.28-.74a.3.3,0,0,1,.29,0Z" transform="translate(-4.42 -7.27)"/><path class="cls-20" d="M128.63,120.36a.38.38,0,0,1-.19,0l-1.49-.86a.2.2,0,0,1-.1-.16.18.18,0,0,1,.1-.16l1.27-.74a.42.42,0,0,1,.38,0l1.49.86a.18.18,0,0,1,0,.32l-1.28.74A.37.37,0,0,1,128.63,120.36ZM127,119.3h0l1.48.86a.26.26,0,0,0,.21,0l1.27-.74h0l-1.49-.86a.23.23,0,0,0-.2,0l-1.27.74Z" transform="translate(-4.42 -7.27)"/><path class="cls-29" d="M149.41,108.08c.08,0,.08.12,0,.17l-1.27.74a.37.37,0,0,1-.29,0l-1.49-.86c-.08,0-.08-.12,0-.17l1.27-.74a.3.3,0,0,1,.29,0Z" transform="translate(-4.42 -7.27)"/><path class="cls-20" d="M148,109.11a.37.37,0,0,1-.18,0l-1.49-.86a.16.16,0,0,1-.1-.16.16.16,0,0,1,.1-.15l1.27-.74a.37.37,0,0,1,.38,0l1.48.86a.17.17,0,0,1,.11.15.18.18,0,0,1-.11.16l-1.27.74A.38.38,0,0,1,148,109.11Zm-1.6-1.07h0l1.49.86a.26.26,0,0,0,.21,0l1.27-.74h0l-1.49-.85a.18.18,0,0,0-.2,0l-1.28.73Z" transform="translate(-4.42 -7.27)"/><path class="cls-29" d="M147.73,109.05c.08,0,.08.13,0,.17l-1.27.74a.3.3,0,0,1-.29,0l-.61-.35c-.08,0-.08-.12,0-.17l1.27-.74a.3.3,0,0,1,.29,0Z" transform="translate(-4.42 -7.27)"/><path class="cls-20" d="M146.32,110.08a.38.38,0,0,1-.19,0l-.61-.36a.18.18,0,0,1-.11-.16.2.2,0,0,1,.1-.16l1.28-.73a.35.35,0,0,1,.37,0l.62.35a.18.18,0,0,1,0,.32l-1.27.74A.43.43,0,0,1,146.32,110.08Zm-.73-.56h0l.62.36a.23.23,0,0,0,.2,0l1.27-.74h0l-.61-.36a.26.26,0,0,0-.21,0l-1.27.74Z" transform="translate(-4.42 -7.27)"/><path class="cls-29" d="M143.76,109.21a.08.08,0,0,1,0,.16l-1.27.74a.3.3,0,0,1-.29,0l-1.26-.72c-.08,0-.08-.12,0-.17l1.28-.74a.37.37,0,0,1,.29,0Z" transform="translate(-4.42 -7.27)"/><path class="cls-20" d="M142.34,110.23a.37.37,0,0,1-.18,0l-1.26-.73a.18.18,0,0,1-.1-.16.18.18,0,0,1,.1-.15l1.27-.74a.42.42,0,0,1,.38,0l1.25.72a.17.17,0,0,1,0,.32l-1.27.74A.38.38,0,0,1,142.34,110.23ZM141,109.3h0l1.25.73a.26.26,0,0,0,.21,0l1.27-.74h0l-1.26-.72a.23.23,0,0,0-.2,0l-1.27.74Z" transform="translate(-4.42 -7.27)"/><path class="cls-29" d="M144.31,111.05a.08.08,0,0,1,0,.16l-1.64,1a.37.37,0,0,1-.29,0l-1.49-.86c-.08,0-.08-.12,0-.17l1.64-1a.3.3,0,0,1,.29,0Z" transform="translate(-4.42 -7.27)"/><path class="cls-20" d="M142.52,112.29a.41.41,0,0,1-.19-.05l-1.48-.86a.17.17,0,0,1-.11-.16.18.18,0,0,1,.1-.15l1.65-1a.4.4,0,0,1,.37,0l1.49.86a.2.2,0,0,1,.1.16.18.18,0,0,1-.1.16l-1.64.95A.38.38,0,0,1,142.52,112.29Zm-1.6-1.07h0l1.49.86a.23.23,0,0,0,.2,0l1.64-1h0l-1.48-.86a.26.26,0,0,0-.21,0l-1.64,1Z" transform="translate(-4.42 -7.27)"/><path class="cls-29" d="M146.06,110c.08,0,.08.12,0,.17l-1.27.74a.37.37,0,0,1-.29,0l-1.49-.86c-.08,0-.08-.12,0-.17l1.27-.74a.3.3,0,0,1,.29,0Z" transform="translate(-4.42 -7.27)"/><path class="cls-20" d="M144.64,111.06a.41.41,0,0,1-.19,0l-1.48-.86a.18.18,0,0,1-.11-.16.2.2,0,0,1,.1-.16l1.28-.73a.35.35,0,0,1,.37,0l1.49.85a.18.18,0,0,1,.1.16.17.17,0,0,1-.1.16l-1.27.74A.38.38,0,0,1,144.64,111.06ZM143,110h0l1.49.86a.23.23,0,0,0,.2,0l1.27-.74h0l-1.48-.86a.26.26,0,0,0-.21,0l-1.27.74Z" transform="translate(-4.42 -7.27)"/><path class="cls-29" d="M137,113.13c.08,0,.08.12,0,.17l-1.27.74a.37.37,0,0,1-.29,0l-1.25-.73c-.08,0-.09-.12,0-.17l1.28-.74a.37.37,0,0,1,.29,0Z" transform="translate(-4.42 -7.27)"/><path class="cls-20" d="M135.6,114.16a.38.38,0,0,1-.19,0l-1.26-.72a.2.2,0,0,1-.1-.16.19.19,0,0,1,.1-.16l1.27-.74a.42.42,0,0,1,.38,0l1.25.72a.19.19,0,0,1,.11.16.18.18,0,0,1-.11.16l-1.27.74A.37.37,0,0,1,135.6,114.16Zm-1.38-.93h0l1.25.72a.26.26,0,0,0,.21,0l1.27-.74h0l-1.26-.72a.23.23,0,0,0-.2,0l-1.27.74Z" transform="translate(-4.42 -7.27)"/><path class="cls-29" d="M142.22,112.26c.09,0,.09.12,0,.16l-8,4.64a.37.37,0,0,1-.29,0l-1.49-.86c-.08,0-.08-.12,0-.17l8-4.63a.3.3,0,0,1,.29,0Z" transform="translate(-4.42 -7.27)"/><path class="cls-20" d="M134.11,117.18a.38.38,0,0,1-.19-.05l-1.49-.86a.18.18,0,0,1-.1-.15.16.16,0,0,1,.1-.16l8-4.64a.42.42,0,0,1,.38,0l1.49.86a.18.18,0,0,1,0,.32l-8,4.63A.37.37,0,0,1,134.11,117.18Zm-1.61-1.06h0L134,117a.26.26,0,0,0,.21,0l8-4.63h0l-1.49-.86a.23.23,0,0,0-.2,0l-8,4.64Z" transform="translate(-4.42 -7.27)"/><path class="cls-29" d="M132,116.07c.08.05.08.12,0,.17l-1.27.74a.37.37,0,0,1-.29,0l-1.26-.73c-.08,0-.08-.12,0-.17l1.27-.73a.3.3,0,0,1,.29,0Z" transform="translate(-4.42 -7.27)"/><path class="cls-20" d="M130.53,117.1a.45.45,0,0,1-.19,0l-1.25-.72a.18.18,0,0,1,0-.32l1.27-.74a.42.42,0,0,1,.38,0L132,116a.17.17,0,0,1,.11.15.18.18,0,0,1-.11.16l-1.27.74A.38.38,0,0,1,130.53,117.1Zm-1.37-.93h0l1.25.72a.23.23,0,0,0,.2,0l1.28-.74h0l-1.26-.72a.23.23,0,0,0-.2,0l-1.27.74Z" transform="translate(-4.42 -7.27)"/><path class="cls-29" d="M126.06,117.56c.08,0,.08.12,0,.17l-2.52,1.47a.37.37,0,0,1-.29,0l-1.26-.73c-.08,0-.08-.12,0-.17l2.52-1.46a.3.3,0,0,1,.29,0Z" transform="translate(-4.42 -7.27)"/><path class="cls-20" d="M123.39,119.32a.41.41,0,0,1-.19,0l-1.25-.72a.19.19,0,0,1-.11-.16.18.18,0,0,1,.11-.16l2.52-1.47a.42.42,0,0,1,.38,0l1.25.73a.17.17,0,0,1,.11.15.18.18,0,0,1-.11.16l-2.52,1.47A.38.38,0,0,1,123.39,119.32Zm-1.37-.93h0l1.26.72a.23.23,0,0,0,.2,0l2.53-1.47h0l-1.26-.72a.23.23,0,0,0-.2,0L122,118.38Z" transform="translate(-4.42 -7.27)"/><path class="cls-29" d="M124,116.84c.08,0,.08.12,0,.17l-2.1,1.22a.3.3,0,0,1-.29,0l-1.26-.72c-.08-.05-.08-.12,0-.17l2.1-1.22a.3.3,0,0,1,.29,0Z" transform="translate(-4.42 -7.27)"/><path class="cls-20" d="M121.72,118.35a.43.43,0,0,1-.19,0l-1.25-.73a.17.17,0,0,1-.1-.16.16.16,0,0,1,.1-.15l2.1-1.23a.42.42,0,0,1,.38,0l1.25.73a.17.17,0,0,1,.1.16.18.18,0,0,1-.1.16l-2.1,1.22A.38.38,0,0,1,121.72,118.35Zm-1.37-.93h0l1.25.73a.23.23,0,0,0,.2,0l2.1-1.22h0l-1.25-.73a.23.23,0,0,0-.2,0l-2.1,1.22Z" transform="translate(-4.42 -7.27)"/><path class="cls-29" d="M126.85,111.35c.08.05.08.12,0,.17l-1.27.74a.37.37,0,0,1-.29,0l-.66-.38c-.08,0-.08-.13,0-.17l1.27-.74a.3.3,0,0,1,.29,0Z" transform="translate(-4.42 -7.27)"/><path class="cls-20" d="M125.44,112.38a.38.38,0,0,1-.19,0l-.66-.38a.18.18,0,0,1,0-.32l1.27-.74a.42.42,0,0,1,.38,0l.66.39a.18.18,0,0,1,.1.15.19.19,0,0,1-.1.16l-1.27.74A.45.45,0,0,1,125.44,112.38Zm-.78-.59h0l.65.38a.26.26,0,0,0,.21,0l1.27-.74h0l-.66-.38a.23.23,0,0,0-.2,0l-1.28.74Z" transform="translate(-4.42 -7.27)"/><polygon class="cls-30" points="38.26 130.6 37.88 133.07 37.23 132.94 37.6 130.48 38.26 130.6"/><polygon class="cls-30" points="27.64 134.23 26.59 132.04 26.03 132.34 27.07 134.52 27.64 134.23"/><path class="cls-30" d="M36.1,142.66c.29-.38,1-.34,1.22-.75a2.89,2.89,0,0,0-1.49.71c.05,0,.17,0,.27,0" transform="translate(-4.42 -7.27)"/><path class="cls-30" d="M38.35,142.07a1.16,1.16,0,0,0-1.14.23c-.43.1-1,.08-1,.59.12,0,.2-.11.28,0-.16.36-.51.52-.75.79,0,.48-.55.69-.4,1.22.34-.08.43-.41.83-.43.12-.68,1.16-.44,1.46-1,0-.09-.18,0-.12-.11s.15-.12.32-.08c.14-.41.53-.57.63-1h-.28c0-.11.19,0,.16-.19" transform="translate(-4.42 -7.27)"/><path class="cls-30" d="M34.84,142.34c.06,0,.07.07.12.08s.25-.16.16-.28a.37.37,0,0,0-.28.2" transform="translate(-4.42 -7.27)"/><path class="cls-30" d="M35,142.85c.15,0,.18-.07.28-.11s-.08-.08-.08-.16c.23-.06.27-.31.43-.44-.29,0-.39.27-.59.4.13.09,0,.22,0,.31" transform="translate(-4.42 -7.27)"/><path class="cls-30" d="M35.59,142.54c.21,0,.3-.15.32-.36-.13-.05-.32.17-.32.36" transform="translate(-4.42 -7.27)"/><path class="cls-30" d="M34.6,142.3c0,.08-.14,0-.15.12a.2.2,0,0,0,.23,0,.1.1,0,0,0-.08-.12" transform="translate(-4.42 -7.27)"/><path class="cls-30" d="M34.6,142.77c.14,0,.24-.1.24-.27-.14,0-.18.16-.24.27" transform="translate(-4.42 -7.27)"/><path class="cls-30" d="M43.87,142.66c0,.11.05.1,0,.19.26,0,.41,0,.47-.23-.16-.07-.37,0-.51,0" transform="translate(-4.42 -7.27)"/><path class="cls-30" d="M35.31,142.93c.21,0,.22-.15.32-.23-.17-.13-.35,0-.32.23" transform="translate(-4.42 -7.27)"/><path class="cls-30" d="M44.34,142.93c0,.08,0,.09,0,.16.15,0,.19-.05.32,0v-.16c-.1,0-.15.07-.28,0" transform="translate(-4.42 -7.27)"/><path class="cls-30" d="M41.62,143.05c0,.1,0,.2.16.2a.16.16,0,0,0-.16-.2" transform="translate(-4.42 -7.27)"/><path class="cls-30" d="M34.37,143.33c-.07.18-.44.06-.55.19.26.06.71-.09.55-.19" transform="translate(-4.42 -7.27)"/><path class="cls-30" d="M37.32,144a.33.33,0,0,0-.11.31c.25.06.54,0,.55-.27-.2-.13-.29.1-.44,0" transform="translate(-4.42 -7.27)"/><path class="cls-30" d="M38.51,145.42c0-.1.14-.31,0-.32-.47.27.17.67-.08,1.06a3.68,3.68,0,0,0,.47-.15c0-.32-.31-.32-.35-.59" transform="translate(-4.42 -7.27)"/><path class="cls-30" d="M38.07,145.69h-.19c0,.09-.08.2,0,.28H38c-.05-.17.14-.18,0-.28" transform="translate(-4.42 -7.27)"/><path class="cls-30" d="M50,146.87c0,.12-.27,0-.28.08.17.07.2.48.4.4-.18-.12,0-.38-.12-.48" transform="translate(-4.42 -7.27)"/><path class="cls-30" d="M50.29,147.78c.3.46-.46,1.22.28,1.34,0-.23-.13-.24-.12-.43.31-.26.08-.73-.16-.91" transform="translate(-4.42 -7.27)"/><path class="cls-30" d="M41.46,148.25c.07.06.32.16.36,0-.15.06-.27-.11-.36,0" transform="translate(-4.42 -7.27)"/><path class="cls-30" d="M42.17,148.33c0,.14.11.11.2.08s-.14-.14-.2-.08" transform="translate(-4.42 -7.27)"/><path class="cls-30" d="M50.29,150a2.52,2.52,0,0,1-.12.39c.07.08.1.2.2.24.07-.2,0-.3.08-.55-.11,0-.08-.08-.16-.08" transform="translate(-4.42 -7.27)"/><path class="cls-30" d="M30.82,150.62c-.21-.11-.29-.34-.43-.51a.6.6,0,0,0-.4.08.54.54,0,0,1,.48.43c.1,0,.22-.06.27,0a.42.42,0,0,0,0,.24c.2.07.24-.07.43-.08,0-.21-.21-.29-.39-.2" transform="translate(-4.42 -7.27)"/><path class="cls-30" d="M30.43,150.74c0,.14.06.17.19.16s-.07-.17-.19-.16" transform="translate(-4.42 -7.27)"/><path class="cls-30" d="M49.47,150.74c-.08.07,0,.18,0,.27h.23c0-.2-.06-.28-.23-.27" transform="translate(-4.42 -7.27)"/><path class="cls-30" d="M50.45,151.21a2.23,2.23,0,0,0,.39,1c0-.31.06-1.08-.39-1" transform="translate(-4.42 -7.27)"/><path class="cls-30" d="M51,152.31c-.1.19-.29.37-.15.67.25,0,.32-.51.15-.67" transform="translate(-4.42 -7.27)"/><path class="cls-30" d="M47.65,152.39c0,.17-.18.39,0,.48a.63.63,0,0,0,.2-.32c-.11,0-.07-.17-.2-.16" transform="translate(-4.42 -7.27)"/><path class="cls-30" d="M50.61,153.14h-.12c0,.27-.37.25-.43.55a1.2,1.2,0,0,0,.23.87c.08,0,.09,0,.16,0-.11-.46.35-.84.16-1.38" transform="translate(-4.42 -7.27)"/><path class="cls-30" d="M50.88,153.73c-.33.21-.33.74-.39,1.23a.43.43,0,0,0,.35-.12,2.23,2.23,0,0,1,.12-1.07s0,0-.08,0" transform="translate(-4.42 -7.27)"/><path class="cls-30" d="M51.28,153.77c-.1.22,0,.38-.08.59.1,0,.09.08.2,0,0-.25.1-.44-.12-.63" transform="translate(-4.42 -7.27)"/><path class="cls-30" d="M52.15,153.89c0,.18,0,.3.23.36a.43.43,0,0,0-.23-.36" transform="translate(-4.42 -7.27)"/><path class="cls-30" d="M55,154.17c0,.15-.23.34-.31.51-.12-.24.25-.33.31-.51" transform="translate(-4.42 -7.27)"/><path class="cls-30" d="M52.19,154.48a1,1,0,0,1-.63-.23c.07.49.32.94.15,1.45.22,0,.15-.3.4-.27s.06.38.23.43c.12-.41-.21-.78-.15-1.38" transform="translate(-4.42 -7.27)"/><path class="cls-30" d="M52.62,154.44c-.08,0-.1-.08-.2-.08-.08.34.07.45-.08.71a.68.68,0,0,0,.24.08c-.06-.18.05-.38,0-.71" transform="translate(-4.42 -7.27)"/><path class="cls-30" d="M51.24,154.84c-.16.13.18.31.16.08a.16.16,0,0,0-.16-.08" transform="translate(-4.42 -7.27)"/><path class="cls-30" d="M49.7,155c.06.39.42.52.79.48-.23-.19-.42-.66-.79-.48" transform="translate(-4.42 -7.27)"/><path class="cls-30" d="M50.92,155.19a.33.33,0,0,0-.08.28c.13,0,.16-.06.24-.08s-.12-.11-.16-.2" transform="translate(-4.42 -7.27)"/><path class="cls-30" d="M51.12,155.55c-.12.06-.37,0-.51,0v.15c.1,0,.63.09.51-.15" transform="translate(-4.42 -7.27)"/><path class="cls-30" d="M52.86,155.59a1.06,1.06,0,0,1,0,.47c.19-.13.08-.32.19-.51-.09,0-.08.07-.19,0" transform="translate(-4.42 -7.27)"/><path class="cls-30" d="M44.62,155.59c-.13.4-.47.58-.79.78a2.92,2.92,0,0,0,0,1.38,2.28,2.28,0,0,0,.71-1.45c.08-.05.22-.05.27-.12s0-.57-.19-.59" transform="translate(-4.42 -7.27)"/><path class="cls-30" d="M52.11,155.82c-.19,0-.1.17-.28.12a5,5,0,0,0,0,.55,1,1,0,0,1-.43.16c.06-.26.33-.44.19-.79-.09,0-.11-.07-.23,0-.1.41-.46.57-.83.71a1.3,1.3,0,0,1-.87,1c-.14.26,0,.53,0,.75-.06.4-.42.56-.51,1,.42.17.41-.4.87-.31.38.26.28.73.2,1.14.49-.06.48-.62,1-.67a1.81,1.81,0,0,0,.63-1.89,3,3,0,0,0,.32-1.78" transform="translate(-4.42 -7.27)"/><path class="cls-30" d="M44.77,156.89c.11,0,.17,0,.16-.12s0-.05-.12,0,0,.09,0,.16" transform="translate(-4.42 -7.27)"/><path class="cls-30" d="M26.6,157.24c.07,0,0,.16.2.12v-.16c-.12,0-.16-.09-.2,0" transform="translate(-4.42 -7.27)"/><path class="cls-30" d="M50,160.43c0,.18-.25.2-.24.44.29,0,.3-.28.47-.4-.12,0-.14,0-.23,0" transform="translate(-4.42 -7.27)"/><polygon class="cls-30" points="24.39 159.08 24.9 159.39 26.08 157.22 25.53 156.91 24.39 159.08"/><polygon class="cls-30" points="44.12 159.35 43.19 157.6 42.7 157.88 43.82 160.07 45.35 159.26 45.12 158.84 44.12 159.35"/><polygon class="cls-30" points="27.71 159.42 27.4 157.86 26.79 157.58 25.84 159.83 26.36 160.07 27 158.59 27.41 160.5 27.81 160.66 28.7 158.41 28.17 158.18 27.71 159.42"/><polygon class="cls-30" points="31.25 159.09 31.1 159.58 30.45 159.43 29.98 161.29 29.44 161.15 29.91 159.3 29.23 159.12 29.36 158.6 31.25 159.09"/><polygon class="cls-30" points="33.81 159.31 33.77 159.79 32.64 159.69 32.6 160.13 33.3 160.19 33.26 160.73 32.56 160.67 32.51 161.21 33.65 161.34 33.61 161.8 31.84 161.64 32.08 159.16 33.81 159.31"/><path class="cls-30" d="M43.29,171.24v-.46H59.2v.48Zm8.62,2.44c-2.64.27-5.37-.81-8-2.14H58.3a14,14,0,0,1-6.39,2.14m-6.39-4.33a15.63,15.63,0,0,0,3.24-1.11h.07c-.38,1.06,1.28,1.27,1.27.28.34,0,1,0,1,0l-.06,2H45.13s.24-.8.39-1.16m-6.17.35c-4.36,0-8.73-1.12-11.25-3.16.54-1,1.15-2.06,1.77-3a18.5,18.5,0,0,0,9.43,2.56,18.72,18.72,0,0,0,9.42-2.44c.64,1,1.18,2,1.81,3-2.56,2-6.87,3.09-11.18,3.08m.94,4.89-.75,1v-5.43l.75,0Zm-1.9,0,0-4.44.83,0,0,5.43Zm-4.8-4.05h-6v-2.15a6.69,6.69,0,0,0,1.33,0c-.11,1.06,1.59.92,1.19-.1a19.74,19.74,0,0,0,3.15,1.06c.15.42.37,1.17.37,1.17m1,.25h1v.49H34.8c-5.57,0-15.17,0-15.17,0v-.52l14.93,0m-7,3a12.35,12.35,0,0,1-6.87-2.17s9.14,0,13.65,0a11.25,11.25,0,0,1-6.78,2.17m-4.14-9a6.23,6.23,0,0,0,2.64,1.34,4.23,4.23,0,0,1-1.77.79c.78,1.13,3,1.46,3,1.46l0,2.2h-6c.65-2,1.41-3.8,2.11-5.78m-1.93-2.44a10.4,10.4,0,0,1,6.07,1.61c-.15.23-.43.47-.28.87-.84-.31-1.54-.77-2.44-1a29.18,29.18,0,0,1,2.84,1.61c-.43,0-.65.31-.95.36a3.7,3.7,0,0,1-1.73-.4c-1.57-.64-2.35-2-3.51-3m.94-1.93a7.32,7.32,0,0,1-1.18-2.76,4.28,4.28,0,0,0,2,.51c.19.3.42.7,1,.55-.05.56.25.77.71.83.82.81,1,2.32,1.81,3.11a22.77,22.77,0,0,1-4-3.27,24,24,0,0,0,4.41,4,8.41,8.41,0,0,1-1.34-.55c-.47-.19-1-.24-1.49-.43a6.22,6.22,0,0,1-1.94-2m1.42-2.17c-.42,0-.31-.77.2-.44a.29.29,0,0,1-.2.44m1.07.31c.08,1.08-1-.3,0,0m.47.79v.36c-.16-.05-.31-.37,0-.36m-3-2.28a8.45,8.45,0,0,1-1.3-5.13v-.12a5.21,5.21,0,0,1,.67.87,7.7,7.7,0,0,1,.63.71c.11.22.06.45.28.59s.27,0,.39.08a4.22,4.22,0,0,1,1.23,1.26c.09.25.08.57.15.83a12.53,12.53,0,0,0,.83,2.13c-.19.05-.4-.14-.67,0a1,1,0,0,0,0-.4.76.76,0,0,0-.55-.43,23.18,23.18,0,0,1-1.58-2.17,6.67,6.67,0,0,0,1.26,2.17,3.63,3.63,0,0,0-.39.55c-.47,0-.69-.54-.91-.9m.52-3.47c-.13,0-.12,0-.24-.12,0-1,.93.16.24.12m1.26,1.18c-.33-.17-.48-.52-.79-.71a2.18,2.18,0,0,1,.79.71m-.67-9.23a3.13,3.13,0,0,1,.71,1.46,5.45,5.45,0,0,1-.24.87,6.64,6.64,0,0,0,0,2.88c.13.56.46,1,.2,1.73a6.56,6.56,0,0,1-.71-2.4c-.09,1.51.72,2.46.67,4.06-.14.12-.41-.27-.51-.44a.65.65,0,0,0-.71-.94c-1.27-2-1-5.82.63-7.22m2.68-.86a8.7,8.7,0,0,1,.51,1.89,13.09,13.09,0,0,0-1.18,1.81,3.74,3.74,0,0,1,.12-1.42,7.38,7.38,0,0,0-.52,2.21,16.14,16.14,0,0,0-.71,1.89,4.3,4.3,0,0,1-.39-1.65c-.11-2.16,1.16-3.51,2.17-4.73m1.3,19.94c-.09-.53.49-.46.51-.15a.28.28,0,0,1-.51.15m1.94,3.66c.67-.09-.13,1-.27.32,0-.21.09-.29.27-.32m-1.86-1.37a5,5,0,0,1-1.34.16c.47.23,1.2-.14,1.61.08s1.42.78,1.42.78a1.28,1.28,0,0,1-.59.28,5.67,5.67,0,0,1-4-1.14c1.21-.37,1.91-1.46,3.35-1.46-.18.4-.43.72-.63,1.1,0,.15.1.14.16.2m.86-2.72c.15,0,.4.14.32.28s-.3-.11-.32-.28m.16-1a.28.28,0,0,1-.35.43.28.28,0,0,1,.35-.43m-.12,1.53c.11.12-.15.73-.43.59.12-.22.42-.26.43-.59m-.63-1.3a5.52,5.52,0,0,1-2.28-4.45,18.15,18.15,0,0,0,3.9,4.25,4.3,4.3,0,0,1-.28.52.69.69,0,0,0-1.34-.32m-.15-17.58a11.1,11.1,0,0,1,3.36-2.8.69.69,0,0,1,0,.16l.22-.13-.14-.06a11.26,11.26,0,0,1,1.15-.53,18.53,18.53,0,0,1,3-1,17.26,17.26,0,0,1,4-.49h.37l.92,0h.05l.71.06c6.24.66,10.93,4.43,12.61,9.62a9.12,9.12,0,0,1,.36,4,11,11,0,0,1-2.6,5.72s-.08.13-.15.16l-.52.57a1.54,1.54,0,0,1-.23.29s0,0,0,0l-.3.29a8,8,0,0,1-2.12,1.71,14.16,14.16,0,0,1-2.11,1,17.54,17.54,0,0,1-12.52.41,0,0,0,0,0,0,0A13,13,0,0,1,27.59,161a11.21,11.21,0,0,1-3.23-7.3c0-.4.08-.82.07-1.22a8,8,0,0,1,1.19-3.62c.12-.21.24-.43.37-.64a12.18,12.18,0,0,1,1.76-2.44m-1.15-4.41a15.12,15.12,0,0,1,5.16-3.13,21.82,21.82,0,0,1,6.12-1c.09,1.14.1,2.61.08,3.63a16.69,16.69,0,0,0-9.11,3.38,34.48,34.48,0,0,1-2.25-2.83m11.31-6,1.43,0,0,5.36-1.09.06a33.21,33.21,0,0,0-.32-5.44m2.8,5.43-1.07,0,0-5.37H41a36,36,0,0,0-.32,5.42m-5.36-5.65v-.3h8.28v.3Zm3.24-7.55h1.69l.36,7H38.31Zm-.53-.21v-.47H40.8v.48Zm.77-1c-.27-.63,1.12-.76,1.16-.17s-1,.58-1.16.17m5,7.78h.45v1.66h-.45Zm.85.44c.43-.19.51.8.11.82s-.39-.7-.11-.82m2.55,3.78a16.17,16.17,0,0,1,4.9,3.07c-.61,1-1.43,2-2.11,2.95a15.2,15.2,0,0,0-9-3.59,27.45,27.45,0,0,1,.11-3.66,22.42,22.42,0,0,1,6.15,1.23m5.29,6.35c.71,1.25,2.13,2.09,2.29,3.86a3.86,3.86,0,0,1-.48,2.25c-.55-1.15-.84-2.58-1.3-3.83,0,.36.22.89.28,1.34-.21-.26-.38-.68-.62-1s-.58-.66-.55-.91a5.53,5.53,0,0,1,.38-1.68m2.78.76a7.4,7.4,0,0,1,.53,7.16c-.89-.11-.5,1.26-1.18,1.22a4.73,4.73,0,0,0,0-1.1,10,10,0,0,0,.79-3.16,8.71,8.71,0,0,1-.87,2.61,2.15,2.15,0,0,0-.12-.71,4.35,4.35,0,0,0,.62-3.23,6,6,0,0,0-.54-1.39,6.21,6.21,0,0,1,.81-1.4m.73,7.43a.39.39,0,0,1,0,.48c-.46.25-.65-.62,0-.48M55,154.17c0,.15-.23.34-.31.51-.12-.24.25-.33.31-.51M56.36,153c.42-.45.77-1,1.23-1.38a8.7,8.7,0,0,1-2.13,6.47.36.36,0,0,0-.07-.28c-.24-.23-.29-.16-.39-.21a12.78,12.78,0,0,0,1.32-2.7c-.59,1-1.24,2.54-1.85,2.87a.68.68,0,0,0-.31.59,1,1,0,0,0-.83.2,12.65,12.65,0,0,0,1.14-3.27c.11-.5.83-1,1.11-1.38a.66.66,0,0,0,.78-.91M55.05,158a.27.27,0,0,1-.38.38c-.16-.29.09-.54.38-.38m-1,1.16c-.15.11-.22.08-.28,0-.49-.59.77-.59.28,0m-.67.56v-.2c.1,0,.18.21,0,.2m4-2.09a.1.1,0,0,1,.08.11,7.43,7.43,0,0,1-1.86,3.71,4,4,0,0,1-.94.87c-.44.2-1,.22-1.5.39s-.82.42-1.3.55a19,19,0,0,0,3-3.11,35.49,35.49,0,0,1-3.59,3.23c.3-.51.73-.88,1.1-1.42a5.69,5.69,0,0,0,.47-.83,4.36,4.36,0,0,1,.87-1.41.74.74,0,0,0,.75-.79.77.77,0,0,0,1-.59,4.39,4.39,0,0,0,1.93-.71m-.12,4.73c-1,.93-1.94,2.41-3.47,3a4,4,0,0,1-1.77.36c-.31-.05-.51-.34-1-.32A17,17,0,0,1,54,163.82a23,23,0,0,0-2.64,1,.7.7,0,0,0-.4-.79,10,10,0,0,1,6.31-1.73M51,164.53c0,.6-.9-.05-.31-.23a.22.22,0,0,1,.31.23M49.47,164a4.23,4.23,0,0,1-.44-.71,14.57,14.57,0,0,0,4-4.22s0,0,0,0c.27,1.9-1.31,3.48-2.36,4.34a.67.67,0,0,0-1.22.55m.94,1.34c-.22.05-.44-.43-.43-.63.19.16.21.5.43.63M50,163.49c.15,0,.33,0,.32.24,0,.6-.9,0-.32-.24m-.06.89c0,.06-.08.15-.2.15s0-.1-.08-.11.19-.06.28,0m-.64,3.91c.21-.06.3.07.34.25.15.65-1,0-.34-.25m.2-.41c.33-.12.64-.57,1.07-.66.64-.15,1.34.06,1.93-.2-.36-.06-1,.07-1.46,0-.19,0,.09-.12.08-.2a5.42,5.42,0,0,1-.71-1.22c1.64,0,2,1.11,3.64,1.47a5.62,5.62,0,0,1-4,1.17c-.17-.11-.26-.29-.52-.32m7.75,2.63H51.4l-.06-2a5.74,5.74,0,0,0,3.21-1.55,6.3,6.3,0,0,1-2-.83,6.55,6.55,0,0,0,2.76-1.3c.75,1.85,1.39,3.73,2,5.7M34.65,135.84v-1.62h.51v1.62Zm-.53-.36c-.38,0-.4-.7-.12-.82s.52.8.12.82m25.35,35H57.64c-.75-1.94-1.49-3.89-2.18-5.9.71-.9,1.58-1.64,2.32-2.52-.68-.12-1.6.07-2.32,0a8,8,0,0,0,2.28-4.93,7.69,7.69,0,0,1-1.65.75,10.63,10.63,0,0,0,1.65-6.82c-.55.47-.94,1.32-1.49,1.66,1-2.28.8-6.36-1-7.61a3.82,3.82,0,0,0-.91,1.46,22,22,0,0,1-1.81-2.25,5,5,0,0,0-.67,1.93,9.1,9.1,0,0,0-1.64-1.74c.8-1,1.54-2.1,2.35-3.15-2.81-2.6-6.43-4.17-11.47-4.53.06-.67.22-1.49.22-1.49h2.3V136h.88v-.48c1.11.44,1.07-1.58,0-1.1V134h-.88v.63H41l-.4-7H41v-.87H40c.81-1.12-1.34-1.44-1.45-.54a.52.52,0,0,0,.26.55h-1v.87h.48l-.33,7H35.35V134h-.91v.53c-.76-.55-1.07.78-.53,1.06a.46.46,0,0,0,.52-.09c0,.16,0,.54,0,.54h.92v-.7h2.29a11.06,11.06,0,0,1,.2,1.44c-5.14.28-8.81,1.89-11.64,4.47.77,1.13,1.67,2.05,2.44,3.19-.56.54-1.12,1.25-1.71,1.89a16.09,16.09,0,0,0-.6-2.1,25.13,25.13,0,0,0-1.86,2.43,3.91,3.91,0,0,0-.82-1.52c-1.46,1.18-2.13,4.06-1.5,6.39.14.52.48,1,.39,1.49a7.18,7.18,0,0,1-1.46-1.89,10,10,0,0,0,1.46,6.66,3.67,3.67,0,0,1-1.54-.67,9.21,9.21,0,0,0,2.61,5,13.73,13.73,0,0,0-2.57-.08c.37.42.78.88,1.17,1.27s.73.77,1.12,1.21c-.8,2-2.28,5.94-2.28,5.94H19.39v1h.94a12.34,12.34,0,0,0,7.89,2.37,11.77,11.77,0,0,0,5.24-1.54c.28-.16,1.28-.83,1.28-.83h1.18l0-1H33.87s-.24-.62-.37-1.09a27.8,27.8,0,0,0,4.65.67v4.51l1.27,1.5,1.09-1.45v-4.54a28.16,28.16,0,0,0,4.69-.68l-.46,1.08H43v1h.59a8.51,8.51,0,0,0,.91.52,16.12,16.12,0,0,0,6.71,1.84,12.93,12.93,0,0,0,7.36-2.35h.91Z" transform="translate(-4.42 -7.27)"/><path class="cls-30" d="M41,141l.18,0L41,141" transform="translate(-4.42 -7.27)"/><path class="cls-30" d="M45.68,164.26a1.91,1.91,0,0,1-.16-.51,4.52,4.52,0,0,0-1-.08c-.27,0-.47-.25-.75-.28s-.74.13-1.22.12c-.58-.76-1.5.05-2.33.39a1.94,1.94,0,0,1-.75.28c-.58,0-1-.6-1.73-.36-.2.13-.11.55-.2.79-.34-.13-.73-.49-1.18-.27-.33-.11-.42-.45-.83-.48a3.58,3.58,0,0,0-1-1.1c-.36.35.24.54.23.91-.19,0-.32,0-.27.23-.2,0-.19-.13-.32-.15a2.17,2.17,0,0,1-.35.15,1.33,1.33,0,0,0,0,.88,17.54,17.54,0,0,0,12.52-.41c-.28.11-.57.2-.84.28,0-.23.22-.19.23-.39" transform="translate(-4.42 -7.27)"/><path class="cls-30" d="M43.67,147.9c-.2-.53-.42-1.17.24-1,.08.12,0,.4.08.52s.25,0,.31.11,0,.49,0,.79c-.37.07-.54-.15-.67-.47m-.83-.2c-.34-.22-.68.05-1,0,.21-.16,0-.57.08-.79.18,0,.16.24.31.28s.16-.19.36-.16c.07.2.14.41.39.44,0,.15-.08.18-.12.27m3.47-4.85c-.07-.08-.11-.19-.23-.23a1.19,1.19,0,0,0-.52.47.54.54,0,0,0-.9.2c-.42,0-.81-.41-1.19-.12-.14-.26-.48-.5-.74-.32a2.42,2.42,0,0,1,0,.48.39.39,0,0,1-.31.08c-.05.16,0,.38-.2.43s-.07,0,0-.16-.22,0-.31,0,.17,0,.12-.16-.18-.1-.24,0c.13.42-.33.68-.47,1.06-.11-.2.08-.4.15-.55-.19-.25-.7,0-.86-.36-.9-.06-.69,1-1.26,1.26.07.06,0,.26.07.32.24,0,.3-.15.52-.16s0,.37.19.43a.44.44,0,0,1,.32-.07,4.1,4.1,0,0,0-.24-.56c.13-.11.13-.37.32-.43.33.38.39,1.44-.36,1.5-.11-.17-.23-.19-.39-.36a1.46,1.46,0,0,1-.16.36c-.29.09-.59.17-.71.43-.28-.19-.39.13-.67.16,0,.2.28.12.36.24,0,.29-.13.35-.24.47a1.67,1.67,0,0,1-.43-.16.76.76,0,0,0,0,1.07c.2-.06.56-.16.71,0a.8.8,0,0,0,.07-.4c.41-.1.64-.62,1.11-.59.32,0,.54.38.75.63,0,.15-.07.17,0,.32.15,0,.2-.17.27-.28-.08-.32-.34-.47-.43-.79.22.06.34.22.55.2-.11.57.46.58.44.95.21-.09.1-.5.47-.44a.65.65,0,0,0,.27.59c.21,0,.23-.19.48-.15s0,.52.08.79c-.14.21-.4.05-.56.23-.21,0-.25-.19-.43-.23-.58.36-.88-.22-1.5-.24-.09-.13-.07-.37-.23-.44s-.58.13-.79,0a1.93,1.93,0,0,1-1.18.2c-.51.25-.6.91-1.19,1.07-.12.62-1,1.61-.51,2.24.11.15.25.19.32.36s0,.38.11.55a2.16,2.16,0,0,0,2.05.08,6.49,6.49,0,0,0,1.27.16c0,.19.09.25.11.39s-.18.25-.19.4c-.07.56.53.72.59,1.37s-.31,1.12-.32,1.5c0,.15.14.31.16.48,0,.4-.19.95.2,1.18a1.3,1.3,0,0,0,.27.75c.31-.22.65-.15,1-.28.53-.22.65-.88,1.06-1.22-.12-1,.91-1.26.83-2.13,0-.19-.15-.28-.2-.51.41-.94,1.09-1.6,1.46-2.56-.16-.19-.52,0-.83,0a6.19,6.19,0,0,1-1.33-2.53c.32,0,.42.43.39.67a7.55,7.55,0,0,1,.79,1.46c.47-.12,1.33-.4,1.42-.86a2.67,2.67,0,0,0,0-.48.71.71,0,0,0-.28-.35c-.06.1-.11.21-.23.23a1.1,1.1,0,0,1-.48-.94c.36-.06.29.31.44.47s.18-.16.39-.12l.2.4c.47-.3,1-.09.94.51a.29.29,0,0,0,.24.16,8.94,8.94,0,0,0,.91,1.77c.13-.1.09-.37.23-.47-.34-.54.17-1.07.47-1.42.23.11.27.42.56.47a.3.3,0,0,1,0,.2.49.49,0,0,0,.31.12c.07.4.09.86.36,1.06a2.17,2.17,0,0,0,.08.87c-.12,0-.12-.09-.24-.08a3.93,3.93,0,0,0,.63,1.62c.13-.63-.22-.93-.35-1.46.21.08.17-.32.15-.44,0-.32-.45-.76-.31-1.06.23,0,.1.35.24.43.81-.31,0-1.1-.28-1.46.07-.4.67-.27.79-.63,0-.37-.11-.39,0-.71,0-.15-.19-.18-.24-.31a1.71,1.71,0,0,0-.51-1.34c.36-.2.32.44.63.55.17-.14,0-.54-.2-.55,0-.53-.39-1.25-.51-1.93a.92.92,0,0,1-.67-.51c-.48.05-.51-.34-.75-.52-.05-.13,0-.45,0-.63a1.21,1.21,0,0,1,.59.75c.38.27.83.46,1.19.75,0-.16-.27-.45-.36-.67-.41-.05-.39-.53-.87-.51a.77.77,0,0,1-.23-.63c-.31-.51-1-.8-1.21-1.39,0-.15-.19-.08-.16-.06-.16,0-.24.26-.37.26" transform="translate(-4.42 -7.27)"/><path class="cls-30" d="M50.92,161.07a4.9,4.9,0,0,0-1.1.67,1.64,1.64,0,0,0,.91-.36l-.21.26.3-.29c-.09-.11.23-.18.1-.28" transform="translate(-4.42 -7.27)"/><path class="cls-30" d="M34.37,143.33c.16.1-.29.25-.55.19.11-.13.48,0,.55-.19m-3.35.39c-.68,0-.77.55-1.34.63.18.31.7-.29,1,0-.45.6-.71,1.39-1.38,1.78-.14.59-.61.86-.94,1.26a4.27,4.27,0,0,1-.4,1.53c.1.25.12.57.32.71-.25.62.34,1,.35,1.54.15.06.08-.11.2-.08s.14.23.16.4.3,0,.35.11-.07.33,0,.52.3.06.44.12.08.17.11.27c-.12.21-.19.46-.31.67.13.34,0,.81,0,1.18s.55.82.55,1.42c.63.2.61,1,1,1.54,0,.78.41,1.17.27,1.93A10.35,10.35,0,0,1,32,160.4c.4.2.59.59.95.82a5.61,5.61,0,0,1-.47-1.77,4.38,4.38,0,0,1,.43-1.26c.29-.77.14-1.24.79-1.46-.42-.86.45-1.51.31-2.13-.07-.35-.42-.4-.43-.87a2.21,2.21,0,0,1-.63,0c-.21-.4-.72-.52-.71-1.14-.2-.13-.48-.18-.47-.51-.33.06-.41-.32-.67-.44a1.22,1.22,0,0,0-.4.24.7.7,0,0,0-.75.12c-.14,0-.21-.13-.31-.2,0-.36.1-.64-.12-.87.06-.28.21-.53,0-.7s-.13.23-.39.15c-.17-.45.44-.77.39-1.26a6.52,6.52,0,0,0,.79-.12.39.39,0,0,1,0,.56c0,.05.06.12.16.11.26-.19.14-.49.23-.75s.49-.46.67-.74c.06-.09,0-.22.08-.28s.16,0,.24-.12,0-.17.08-.2a4.84,4.84,0,0,1,.79-.39A1.42,1.42,0,0,1,33,147c.15-.23.06-.72.43-.75,0,.19,0,.25,0,.44.51-.14.26-.81.67-1.07-.11-.46.23-.61.4-.9-.13-.11-.54-.11-.36-.4.22-.07.14.15.28.16s.26-.31.43-.43.1.14.24.11a4,4,0,0,1,.16-.74c-.48-.07-.46.7-1,.67-.7.44-.86,1.42-1.5,1.93a3.86,3.86,0,0,1-.19-.83,1.53,1.53,0,0,1,.35-.63c.11-.09.31-.08.43-.16s.29-.36.48-.43c.71.05.95-.45,1.3-.91-.24-.19-.5,0-.71.16,0-.11-.08-.08-.12-.12s.16-.21,0-.31c-.17.27-.63.26-.87.47-.07.14.09.44-.2.43-.11-.12.09-.17.12-.27a.7.7,0,0,0-.94,0c0-.16.17-.12.15-.28s-.21-.08-.27-.16c-.22.09-.4.36-.67.28,0,0-.17-.11-.31-.17l-.22.13a2.11,2.11,0,0,0-.06.59" transform="translate(-4.42 -7.27)"/><path class="cls-30" d="M40.62,141h0" transform="translate(-4.42 -7.27)"/><path class="cls-30" d="M27.75,145.77A12.18,12.18,0,0,0,26,148.21a17.57,17.57,0,0,1,1.76-2.44" transform="translate(-4.42 -7.27)"/><path class="cls-30" d="M35.36,141.43a19.08,19.08,0,0,1,4-.49,17.26,17.26,0,0,0-4,.49" transform="translate(-4.42 -7.27)"/><path class="cls-30" d="M39.5,140.94h0" transform="translate(-4.42 -7.27)"/><path class="cls-30" d="M51.52,160.51c.08,0,.12-.11.11-.23-.24,0-.31.44-.59.51a.31.31,0,0,1,0,.3l.52-.57a.08.08,0,0,1-.08,0" transform="translate(-4.42 -7.27)"/><polyline class="cls-30" points="35.84 133.69 35.84 133.69 35.84 133.69"/><path class="cls-30" d="M37.18,138.49l-.6.18a.46.46,0,0,0-.17-.26.49.49,0,0,0-.3-.06.52.52,0,0,0-.36.2.92.92,0,0,0-.07.56,1,1,0,0,0,.21.58.47.47,0,0,0,.4.12.43.43,0,0,0,.28-.13.6.6,0,0,0,.12-.37l.62,0A1,1,0,0,1,37,140a1.06,1.06,0,0,1-.7.3,1.1,1.1,0,0,1-.86-.22,1.28,1.28,0,0,1-.41-.87,1.24,1.24,0,0,1,.2-.94,1.06,1.06,0,0,1,.79-.43,1.14,1.14,0,0,1,.71.11,1,1,0,0,1,.43.52" transform="translate(-4.42 -7.27)"/><path class="cls-30" d="M45.78,139.43l-.64-.07a.48.48,0,0,0,0-.32.45.45,0,0,0-.25-.17.47.47,0,0,0-.42,0,.81.81,0,0,0-.29.48,1,1,0,0,0,0,.62.49.49,0,0,0,.32.29.44.44,0,0,0,.32,0A.63.63,0,0,0,45,140l.56.28a1.08,1.08,0,0,1-.54.52,1.23,1.23,0,0,1-.78,0,1.1,1.1,0,0,1-.71-.56,1.28,1.28,0,0,1,0-1,1.26,1.26,0,0,1,.57-.8,1.09,1.09,0,0,1,.91-.07,1.16,1.16,0,0,1,.62.38,1.05,1.05,0,0,1,.19.66" transform="translate(-4.42 -7.27)"/><path class="cls-30" d="M28.78,141.23a.34.34,0,0,1,.22-.29.42.42,0,0,1,.38.07,1.12,1.12,0,0,1,.34.47,1.1,1.1,0,0,1,.11.57.35.35,0,0,1-.23.29.42.42,0,0,1-.38-.07,1.1,1.1,0,0,1-.34-.48.94.94,0,0,1-.1-.56m0,1.33a1.14,1.14,0,0,0,.5.3.87.87,0,0,0,.51,0,.74.74,0,0,0,.49-.57,1.41,1.41,0,0,0-.11-.95,1.59,1.59,0,0,0-.62-.76.85.85,0,0,0-.78-.1.82.82,0,0,0-.4.31,1,1,0,0,0-.13.55,1.51,1.51,0,0,0,.14.62,2,2,0,0,0,.4.63" transform="translate(-4.42 -7.27)"/><path class="cls-30" d="M49.16,141.47a1,1,0,0,1,.42-.4.38.38,0,0,1,.36,0,.43.43,0,0,1,.15.36,1.16,1.16,0,0,1-.21.54,1,1,0,0,1-.42.4.35.35,0,0,1-.37,0A.39.39,0,0,1,49,142a1,1,0,0,1,.21-.54m-.36,1.35a.77.77,0,0,0,.74.1,1.75,1.75,0,0,0,1-1.55.86.86,0,0,0-.34-.71.71.71,0,0,0-.48-.16.94.94,0,0,0-.53.18,1.52,1.52,0,0,0-.45.46,2,2,0,0,0-.31.67,1,1,0,0,0,0,.59.91.91,0,0,0,.3.42" transform="translate(-4.42 -7.27)"/><path class="cls-30" d="M46.17,167.44a.37.37,0,0,1-.27.25.41.41,0,0,1-.36-.14,1.05,1.05,0,0,1-.26-.53,1.08,1.08,0,0,1,0-.57.37.37,0,0,1,.27-.25.41.41,0,0,1,.36.14,1.06,1.06,0,0,1,.26.52,1.12,1.12,0,0,1,0,.58m0-1.52a.86.86,0,0,0-.76-.24.71.71,0,0,0-.44.24.93.93,0,0,0-.23.51,1.72,1.72,0,0,0,0,.64,2,2,0,0,0,.29.69,1,1,0,0,0,.44.38.85.85,0,0,0,.51.07.76.76,0,0,0,.58-.48,1.5,1.5,0,0,0,.06-.95,1.64,1.64,0,0,0-.47-.86" transform="translate(-4.42 -7.27)"/><path class="cls-30" d="M39.7,167.67h0a1.57,1.57,0,0,0,.47-.06.26.26,0,0,0,.14-.11.33.33,0,0,0,.05-.2.29.29,0,0,0-.08-.21.35.35,0,0,0-.2-.1h-.43Zm-.46,1.54-.12-2.63.74,0a2,2,0,0,1,.61,0,.64.64,0,0,1,.32.24.71.71,0,0,1,.13.41.9.9,0,0,1-.11.5,1.13,1.13,0,0,1-.25.3l.66,1.08-.63,0L40,168.08h-.3l.05,1.09Z" transform="translate(-4.42 -7.27)"/><path class="cls-30" d="M42.5,166.84l.09.72h0a2.45,2.45,0,0,0,.5-.1.45.45,0,0,0,.18-.15.32.32,0,0,0,0-.21.3.3,0,0,0-.13-.22.53.53,0,0,0-.26-.08l-.46.05ZM42.14,169l-.33-2.54.72-.09a3.06,3.06,0,0,1,.76-.06.78.78,0,0,1,.48.19A.68.68,0,0,1,44,167a.74.74,0,0,1-.06.4.73.73,0,0,1-.23.29,1.15,1.15,0,0,1-.31.16,3.31,3.31,0,0,1-.65.12l-.12,0,.12,1Z" transform="translate(-4.42 -7.27)"/><path class="cls-30" d="M32.88,139.09l.39-.11a.35.35,0,0,1,.25,0,.26.26,0,0,1,.16.18.34.34,0,0,1,0,.2.36.36,0,0,1-.13.17,1.51,1.51,0,0,1-.41.18l0,0-.23-.67Zm.65,1.94-.3-.88.1,0a3.93,3.93,0,0,0,.54-.23.76.76,0,0,0,.25-.2.69.69,0,0,0,.14-.3.7.7,0,0,0,0-.4.74.74,0,0,0-.31-.4.8.8,0,0,0-.46-.1,4,4,0,0,0-.65.18l-.61.21.79,2.33Z" transform="translate(-4.42 -7.27)"/><path class="cls-30" d="M47.27,139.7h0a2.86,2.86,0,0,1,.36.18.37.37,0,0,1,.16.19.29.29,0,0,1,0,.24.32.32,0,0,1-.14.14.36.36,0,0,1-.21,0,1.8,1.8,0,0,1-.42-.15l0,0Zm-.45,1,.1.05a3.2,3.2,0,0,0,.55.2.8.8,0,0,0,.31,0,.68.68,0,0,0,.32-.13.7.7,0,0,0,.24-.31.74.74,0,0,0,0-.5.7.7,0,0,0-.27-.38,3.68,3.68,0,0,0-.6-.31l-.6-.26-1,2.26.52.23Z" transform="translate(-4.42 -7.27)"/><path class="cls-30" d="M68.77,181.94c0-.67,0-1.34-.08-2l.39.06.37,0,.38,0,.39-.06c0,.69-.06,1.36-.09,2s0,1.33,0,2c0,1.31,0,2.45,0,3.41s0,1.83,0,2.59l2.12,0q1,0,2.19-.18a1.84,1.84,0,0,0-.07.47,1.52,1.52,0,0,0,.07.42l-1.43,0H70.13l-1.44,0c0-.65.06-1.3.08-2s0-1.34,0-2V184c0-.69,0-1.36,0-2m-4,1.12a4.26,4.26,0,0,0-.91-1.56,3.68,3.68,0,0,0-1.38-.92,5.13,5.13,0,0,0-3.4,0,3.68,3.68,0,0,0-1.38.92,4.26,4.26,0,0,0-.91,1.56,7.8,7.8,0,0,0,0,4.49,4.26,4.26,0,0,0,.91,1.56,3.54,3.54,0,0,0,1.38.91,5,5,0,0,0,3.4,0,3.54,3.54,0,0,0,1.38-.91,4.26,4.26,0,0,0,.91-1.56,7.8,7.8,0,0,0,0-4.49m-9.41-.12a4.87,4.87,0,0,1,1.2-1.76,5.2,5.2,0,0,1,1.85-1.1,7.78,7.78,0,0,1,4.74,0,5.2,5.2,0,0,1,1.85,1.1,4.75,4.75,0,0,1,1.2,1.76,6.72,6.72,0,0,1,0,4.73,4.75,4.75,0,0,1-1.2,1.76,4.87,4.87,0,0,1-1.85,1.07,8.2,8.2,0,0,1-4.74,0,4.8,4.8,0,0,1-3-2.83,6.72,6.72,0,0,1,0-4.73m-8.29-1c0-.67-.05-1.34-.08-2l.76.06.75,0a3.94,3.94,0,0,0,.46,0l.54,0,.52,0,.42,0,.58,0a5,5,0,0,1,.73.09,3.71,3.71,0,0,1,.76.24,2,2,0,0,1,.67.45,2.2,2.2,0,0,1,.5.74,3,3,0,0,1,.18,1.1,2.87,2.87,0,0,1-.44,1.68,3.28,3.28,0,0,1-1.1,1,4.22,4.22,0,0,1-1.37.48,8,8,0,0,1-1.29.13H49l-.61,0v.86c0,.69,0,1.36,0,2s.06,1.32.09,2c-.24,0-.5,0-.77,0s-.52,0-.76,0c0-.65.06-1.3.08-2s0-1.34,0-2V184c0-.69,0-1.36,0-2m2.43,3.32a4.94,4.94,0,0,0,1-.11,2.86,2.86,0,0,0,.95-.4,2.11,2.11,0,0,0,.7-.8,2.64,2.64,0,0,0,.28-1.3,2.82,2.82,0,0,0-.19-1.1,1.55,1.55,0,0,0-.52-.65,1.93,1.93,0,0,0-.82-.32,6.12,6.12,0,0,0-1.1-.09H48.38v4.64a4.56,4.56,0,0,0,1.11.13m-10.18-.35.57,0a5.11,5.11,0,0,0,1-.11,2.88,2.88,0,0,0,1-.38,2.35,2.35,0,0,0,.73-.74,2.14,2.14,0,0,0,.29-1.16,2,2,0,0,0-.23-1,1.71,1.71,0,0,0-.59-.63,2,2,0,0,0-.78-.32,3.88,3.88,0,0,0-.82-.09l-.91,0-.61.06-.06,1.7c0,.57,0,1.13,0,1.69v.89a3.16,3.16,0,0,0,.47.06m-1.79-3c0-.67-.06-1.34-.09-2l.89.06.89,0a8.7,8.7,0,0,0,.89,0c.29,0,.59,0,.89,0a5.57,5.57,0,0,1,1.25.13,3,3,0,0,1,1,.41,2.16,2.16,0,0,1,.71.76,2.77,2.77,0,0,1-.08,2.46,3.19,3.19,0,0,1-.82.89,4,4,0,0,1-1,.55,6,6,0,0,1-1,.26c.12.15.3.37.51.65l.74.93.84,1.07.85,1.06c.27.34.52.65.76.93s.44.49.58.64a3.59,3.59,0,0,0-.47,0h-.92a3.19,3.19,0,0,0-.45,0l-.71-1c-.32-.43-.67-.9-1.06-1.4s-.78-1-1.18-1.49-.77-.92-1.1-1.26h-.59v1.14c0,.69,0,1.36,0,2s0,1.32.08,2c-.24,0-.49,0-.76,0s-.53,0-.77,0c0-.65.06-1.3.09-2s0-1.34,0-2V184c0-.69,0-1.36,0-2m-7.82,0c0-.66-.05-1.33-.08-2L31,180l1.4,0,1.39,0,1.39-.06a2.78,2.78,0,0,0,0,.94l-.91-.06-.88-.07-1-.05c-.37,0-.81,0-1.32,0,0,.33,0,.65,0,.95s0,.65,0,1,0,.8,0,1.19,0,.68,0,.87h1.23l1,0,.84,0,.73-.05a1.91,1.91,0,0,0-.05.48,1.83,1.83,0,0,0,.05.47c-.28,0-.59-.06-1-.08l-1.08,0H31c0,.1,0,.2,0,.3s0,.25,0,.42v1.55c0,.59,0,1.08,0,1.47s0,.67,0,.87h1.1l1.16,0,1.08-.07a6.38,6.38,0,0,0,.88-.11,1.5,1.5,0,0,0,0,.24v.24a1.58,1.58,0,0,0,0,.41c-.47,0-.93,0-1.4,0H31c-.47,0-.95,0-1.42,0,0-.67.05-1.33.08-2s0-1.34,0-2v-2.69c0-.68,0-1.36,0-2m-6.52-1.19h-.86l-.89,0-.86.06-.74.08a2.05,2.05,0,0,0,.08-.5,2.31,2.31,0,0,0-.08-.49l2,.06,2,0,2,0,2-.06a1.87,1.87,0,0,0-.08.5,1.6,1.6,0,0,0,.08.49l-.75-.08-.86-.06-.89,0h-.85c0,1.08-.05,2.16-.05,3.24v2.69c0,.69,0,1.36,0,2s.06,1.32.09,2c-.24,0-.5,0-.77,0s-.52,0-.76,0c0-.65.06-1.3.08-2s0-1.34,0-2V184c0-1.08,0-2.16,0-3.24m-9.32,5.87c-1.35-1.45-2.71-2.9-4.06-4.33q0,.44,0,1.17c0,.49,0,1.15,0,2,0,.22,0,.49,0,.81s0,.66,0,1l0,1.08c0,.36,0,.7,0,1s0,.59,0,.82,0,.4,0,.48a4.5,4.5,0,0,0-.54,0,5.09,5.09,0,0,0-.58,0c0-.11,0-.3.07-.58s.05-.62.07-1,0-.81.07-1.27L9,186.41c0-.45,0-.9,0-1.34s0-.83,0-1.17v-2.58c0-.72,0-1.26,0-1.61H9.3l2,2.21,2.15,2.33c.72.76,1.39,1.49,2,2.17s1.2,1.27,1.68,1.74V186c0-1.1,0-2.16,0-3.2s-.05-2-.1-2.93a2.44,2.44,0,0,0,.53.08,2.3,2.3,0,0,0,.5-.08c0,.23,0,.58-.07,1s-.05.95-.08,1.47-.05,1-.07,1.53,0,.91,0,1.21v.94c0,.35,0,.72,0,1.11s0,.77,0,1.16,0,.76,0,1.09,0,.64,0,.89v.51h-.22c-1.2-1.38-2.47-2.8-3.83-4.26m-9.35-4.65c0-.67-.06-1.34-.09-2l.39.06.38,0,.37,0,.39-.06c0,.69-.06,1.36-.08,2s0,1.33,0,2v2.69c0,.69,0,1.36,0,2s0,1.32.08,2c-.24,0-.49,0-.76,0s-.53,0-.77,0c0-.65.06-1.3.09-2s0-1.34,0-2V184c0-.69,0-1.36,0-2" transform="translate(-4.42 -7.27)"/><path class="cls-31" d="M185,163.27A12.37,12.37,0,0,1,185,139v-8.51a20.77,20.77,0,0,0,0,41.27Z" transform="translate(-4.42 -7.27)"/><path class="cls-31" d="M190.65,130.64v8.59a12.35,12.35,0,0,1,0,23.83v8.59a20.76,20.76,0,0,0,0-41Z" transform="translate(-4.42 -7.27)"/><path class="cls-32" d="M220.35,151.15h-8.24a24.72,24.72,0,0,1-49.44,0h-8.24a33,33,0,0,0,27,32.42c1,.76,2.54,2,3.51,2.85a11.75,11.75,0,0,1,2.42,3.62,14.37,14.37,0,0,1,2.27-3.62,22.7,22.7,0,0,1,3.5-2.82A33,33,0,0,0,220.35,151.15Z" transform="translate(-4.42 -7.27)"/><path class="cls-33" d="M173.58,46.29c.21.74.64,1.41.92,2.12-3-2-7.06-4-8.38-7.71a9.17,9.17,0,0,1-.51-4.35c.25,3.31,3.81,5.07,5.47,7.82a9.14,9.14,0,0,0,1.25,1.66c-.07-.35-.41-.65-.53-1a7.19,7.19,0,0,1-.65-3.93c.16-1.7.87-3.27.61-5.06,1.45,3.15,1,7.05,1.82,10.46" transform="translate(-4.42 -7.27)"/><path class="cls-33" d="M168.52,36.15a26.37,26.37,0,0,0,.78,3.06s.07,0,.1-.05c-1-2.9.45-5.57,1.94-7.83a7.51,7.51,0,0,0,.75-2,16.54,16.54,0,0,1-.36,4.17c-.36,1.72-.9,3.36-1.37,5a7.89,7.89,0,0,0-.07,3.32l-.15-.12c-1.1-2-3.26-3.59-3.9-5.8a12.16,12.16,0,0,1-.53-5.7,11.46,11.46,0,0,1,.62-2.19c-.61,3.13,1.5,5.39,2.19,8.11" transform="translate(-4.42 -7.27)"/><path class="cls-33" d="M212.68,16.19A8.82,8.82,0,0,1,215.24,21l.25.57a21.05,21.05,0,0,1-5.44-5.78l-1.68-1.69c1.47.63,3,1,4.31,2.12" transform="translate(-4.42 -7.27)"/><path class="cls-33" d="M175.37,18.81A31.15,31.15,0,0,1,172,21.86c.61-1.24.63-2.72,1.48-3.87,1.21-2.11,3.46-2.86,5.46-3.64a24.08,24.08,0,0,0-3.58,4.46" transform="translate(-4.42 -7.27)"/><path class="cls-33" d="M217.89,21c.48,2.1-.21,4.16.22,6.29v0c-1.15-2.26-3.59-3.32-5.26-5.13a7.14,7.14,0,0,1-1.64-3.76c1,2.32,3.55,2.83,5,4.77a6.33,6.33,0,0,1,1,1.59l.05,0a42.54,42.54,0,0,1-1.73-5.83,4.59,4.59,0,0,0-1.69-2.21,5.85,5.85,0,0,1,4,4.31" transform="translate(-4.42 -7.27)"/><path class="cls-33" d="M173.54,17.08c-2,1.37-1.86,3.82-2.49,5.85-.2.75-.55,1.45-.72,2.22l0,0A6.82,6.82,0,0,1,172,22.78c1.42-1.3,3.5-2.12,4.2-4,0,2.67-2.27,4.79-4.41,6.29a9.15,9.15,0,0,0-2.22,2.65c-.05-.68.11-1.36,0-2.08-.23-2.34-.39-5,1.26-6.75a5,5,0,0,1,2.65-1.77" transform="translate(-4.42 -7.27)"/><path class="cls-33" d="M219.15,21.49a9.42,9.42,0,0,1,.87,9,15.9,15.9,0,0,0-1,3.71c-.08-.22-.1-.52-.18-.77-.71-2.7-3.26-4.63-4.32-7.18a12.68,12.68,0,0,1-.77-2.59c1.12,2.07,3.89,3.14,4.64,5.43a10.5,10.5,0,0,1,.49,1.93.08.08,0,0,0,.08-.07,26.4,26.4,0,0,1,.08-7.16,5.85,5.85,0,0,0-.84-3.46c.45.26.66.76,1,1.16" transform="translate(-4.42 -7.27)"/><path class="cls-33" d="M169.29,20.73c-1.52,2.32-.25,5.24-.33,7.89l-.2,2.69s0,.1.1.07a9.19,9.19,0,0,0,.18-.94c.36-2.17,2.24-3.71,3.89-5.22a4.12,4.12,0,0,0,.85-1.26,10.76,10.76,0,0,1-.93,3.18c-1.28,2.52-3.66,4.57-4.09,7.44-.21-2.75-2.08-4.81-1.9-7.72a9.37,9.37,0,0,1,2.31-6.08c.05,0,.07-.06.12-.05" transform="translate(-4.42 -7.27)"/><path class="cls-33" d="M220.81,37.11c-1.05,1.49-2.33,2.89-3.3,4.41a8.53,8.53,0,0,0-.22-3.83A32.77,32.77,0,0,1,215.54,30l0-1c.61,2.76,3.31,4.66,3.15,7.75a7.44,7.44,0,0,1-.31,2l.05.05.12-.14a29.83,29.83,0,0,1,1.23-4.52c.88-2,2-4.1,1.53-6.55a11.09,11.09,0,0,1-.53,9.48" transform="translate(-4.42 -7.27)"/><path class="cls-33" d="M216.67,41.86a7.17,7.17,0,0,1-1.23,3.64h.13a43.88,43.88,0,0,1,2.84-3.82c1.74-1.68,3.52-3.41,3.75-5.75.59,3.91-1.6,7.33-4.84,9.54-1.33.87-2.69,1.68-4,2.68V48c2-3.28,1-7.76,2.22-11.35l.45-1.21c-.26,2.24.72,4.14.65,6.39" transform="translate(-4.42 -7.27)"/><path class="cls-33" d="M212.21,48.77a9.72,9.72,0,0,1-2,2.45c.25,0,.49-.23.72-.38,2.15-2.16,5-2.75,7.29-4.5a7,7,0,0,0,2.2-2.77c-.44,3.56-4,6.9-7.33,8-1.72.45-3.57.61-5.24,1.18,2.84-2.44,2.68-6.21,4.57-9.08.61-.81,1.11-1.67,1.81-2.44-1.15,2.32-.65,5.32-2,7.57" transform="translate(-4.42 -7.27)"/><path class="cls-33" d="M176.38,45.76c1,2.46,1.38,5.26,3.7,7.12-2.5-.82-5.45-.59-7.66-2.14a10.59,10.59,0,0,1-5-6.77c1.67,3.77,5.85,4.09,8.65,6.38a7,7,0,0,0,1.63,1.12l0,0a9.15,9.15,0,0,1-1.84-2c-1.64-2.28-1.07-5.47-2.29-7.92a18.54,18.54,0,0,1,2.8,4.24" transform="translate(-4.42 -7.27)"/><path class="cls-33" d="M206.15,53.1a16.21,16.21,0,0,1-2,.77,21,21,0,0,0,2.62-.39c3.31-.52,7.11,0,9.43-2.8a8.92,8.92,0,0,1-5,4.3c-3.38,1.27-6.78-.29-10-.82l-.62-.07v0a9.15,9.15,0,0,0,4.29-1.93,44.86,44.86,0,0,1,5.45-4.92c-1.5,1.92-1.66,4.65-4.12,5.88" transform="translate(-4.42 -7.27)"/><path class="cls-33" d="M182.93,52.19a9.38,9.38,0,0,0,4.46,2c-.39.15-.9.1-1.33.22-2.91.72-6.17,1.89-9.27.84A9.05,9.05,0,0,1,171.68,51c2.67,3,7,2,10.6,2.81a4.66,4.66,0,0,0,1.49.19c-.41-.27-1-.23-1.47-.48-2.79-1-3.2-4-4.72-6a43.19,43.19,0,0,1,5.35,4.7" transform="translate(-4.42 -7.27)"/><path class="cls-33" d="M204.73,56.31a7.75,7.75,0,0,0,6.83-.75A8.22,8.22,0,0,1,208,58.09c-3,1.12-6.16-.05-8.5-1.84-1-.6-1.79-1.47-3-1.39a4.19,4.19,0,0,0-1.25.12,23.48,23.48,0,0,1,6.34,4.4,8.76,8.76,0,0,1-1.14,1,22.62,22.62,0,0,0-6.27-5.09,4.05,4.05,0,0,0-1.29.55,19.43,19.43,0,0,0-5.16,4.6l-1.2-1A22.14,22.14,0,0,1,192.83,55c-2.29-.72-3.78,1.19-5.53,2.16a8.1,8.1,0,0,1-7.38,1.11,8,8,0,0,1-3.54-2.43,7.87,7.87,0,0,0,7,.61c2.95-1.28,6-2.89,9.54-2.12.55,0,1.09.56,1.61.09a11.36,11.36,0,0,1,7.88,1l2.34.94" transform="translate(-4.42 -7.27)"/><path class="cls-33" d="M212,23.85A19.84,19.84,0,0,1,213.29,38a20.18,20.18,0,1,1-38.88-10.84,20.49,20.49,0,0,1,10.35-12.56,21.26,21.26,0,0,1,9.13-2.16A20.14,20.14,0,0,1,212,23.85M194.29,13.37a13.4,13.4,0,0,1,0,2.77.35.35,0,0,1,.1-.24c.14-.08.25,0,.31.14s.08.38,0,.46c.13,0,.19-.07.3-.07a15.19,15.19,0,0,1,6.33,1.92V18.3c.39-.19.89-.44,1.28-.09.49-.18.58.4,1,.48A2.13,2.13,0,0,1,204.63,20c.09.18.37.31.41.5a7.68,7.68,0,0,1,1.51-1.75l.34-.14a18.71,18.71,0,0,0-10.64-5,15.66,15.66,0,0,1-2-.24m-1.12.09a19.58,19.58,0,0,0-10.8,3.83c-.61.42-1.16,1.06-1.78,1.42h.09a16.68,16.68,0,0,1,2.22,2.15l0-.15a16,16,0,0,1,10.26-4.31l-.09-.24,0-2.41ZM196.61,15l-1.45.61c-.12,0-.35-.11-.43.06s0,.12,0,.17c.53.68,1.46.3,2.12.17a1.3,1.3,0,0,0,1.31-.34v-.07a2,2,0,0,0-1.57-.6m-2.34,2.47.1.19c0,.94,0,1.93-.05,2.8a3.24,3.24,0,0,1,1.16,0,11.86,11.86,0,0,1,5.4,2.18,1.45,1.45,0,0,1-.47-.73.11.11,0,0,1,.12,0c0-.31-.31-.47-.36-.75a.23.23,0,0,1,.22-.1,7.79,7.79,0,0,1,.89,1c.22-.09.39.05.55.17s.12.54.33.74c.05.59.77.92.73,1.52,0,.14.18,0,.24.1l.6.74a.31.31,0,0,0,.1.41c.28.12.43-.22.69-.17.39.22-.06.48,0,.72.16,0,.35-.12.47,0s-.19.37-.27.51.18.17.34.21.29.22.24.36c.5.53-.15,1.1.09,1.64a1,1,0,0,1-.26,1c0,.44-.39.71-.56,1.09l-.51.1c-.27.27.24.6,0,.77l1.13,0-.12-.12a1.65,1.65,0,0,1,.15-1.42,3.16,3.16,0,0,1,.53-1.11c.07,0,.2-.15.26,0a2,2,0,0,1-.17,1,3.16,3.16,0,0,1,.32,1.63c1-.06,2-.07,2.93-.07l-.09-.18a14.38,14.38,0,0,0-1.3-5.2c-.21,0-.36.17-.61.12a.21.21,0,0,1-.11-.2,13,13,0,0,0-1.11-1.23c-.51.05-.74-.54-1.2-.6s-.14-.83-.72-.66a.94.94,0,0,1-.64-.67,1.65,1.65,0,0,0-.57-1.42c-.36-.13-.52.35-.87.27-.2-.1-.11-.36-.17-.53s-.25-.27-.21-.46c.46-.63-.58-.62-.35-1.23-.06-.44-.5-.61-.74-1a16.37,16.37,0,0,0-4.86-1.39,3.61,3.61,0,0,1-1.21-.18m9.08,0c-.21.2-.39-.18-.58.05a.45.45,0,0,0,.07.3c.42.15.47.76,1,.62.17-.18-.1-.38,0-.6a.63.63,0,0,0-.45-.37m-18,2.7c-.62.43-1.19,1-1.84,1.38a15.46,15.46,0,0,1,2,1.87l.08.19a12,12,0,0,1,6-3.05,5.39,5.39,0,0,1,1.59-.12,19.91,19.91,0,0,1,0-2.89,15.38,15.38,0,0,0-7.85,2.62m22.3-.92a20.07,20.07,0,0,1-2,2.15l-.34.08c.21.05.27.3.41.45.73.39.93,1.17,1.57,1.61.36.76,1.19,1.34,1.22,2.2A16.19,16.19,0,0,1,210,32l-.08.13a.4.4,0,0,0,.23-.1l2.9,0c-.2-.28-.11-.69-.16-1a20,20,0,0,0-5.28-11.67m-27.6.08a19.71,19.71,0,0,0-5.14,11c-.11.59,0,1.22-.16,1.84a17.83,17.83,0,0,1,3.1,0l-.07-.4a16.37,16.37,0,0,1,3-8.6,9.09,9.09,0,0,1,1.35-1.54c-.65-.6-1.34-1.32-2-2Zm13.19,2.09-.17.11a11.65,11.65,0,0,0-6.68,2.84,25.09,25.09,0,0,1,2.13,2l.15-.23a9.11,9.11,0,0,1,3.06-1.58,4.31,4.31,0,0,1,1.51-.17,13.41,13.41,0,0,1,0-3m1.06,0,.1.22,0,2.72.26,0a8.85,8.85,0,0,1,4.51,1.83l.07.22a21.37,21.37,0,0,1,1.67-1.78l.5-.29-.24-.11a11.75,11.75,0,0,0-3.62-2.08,17,17,0,0,0-3.23-.68m-11.51.75,0,.19-1.08,1.38a15.91,15.91,0,0,0-2.87,8.33l2.75-.06.26.1c-.11-.07-.08-.19-.12-.29a12,12,0,0,1,3.2-7.53,20.21,20.21,0,0,1-2.12-2.12M202,25l0,.12c-.92,1-1.94,1.95-2.82,2.94a.63.63,0,0,0,.27.29c0-.24.17-.45.19-.7.24-.33.6-.12.91,0a6.93,6.93,0,0,1,1.43.1c.35.18.39.64.72.83.09.12,0,.27-.1.37.1.76.46-.2.85,0,.15.06.35,0,.47.21s.45.25.47.55c0,.15-.2.2-.29.28.08.29-.32.48-.18.81.59.11.61-.56.88-.86a5.35,5.35,0,0,0-.57-1.52c-.33-.07-.52-.46-.85-.53-.65-.25.09-.66,0-1A11.14,11.14,0,0,0,202,25m-16.33.09a12,12,0,0,0-2.7,5.57,9.08,9.08,0,0,1-.24,1.49,2.43,2.43,0,0,1,1.26,0c-.23-.13,0-.42-.18-.58s-.07-.56.18-.72c0-.41.41-.62.45-1s.59-.14.82-.36,0-.22,0-.33c.2-.27.51-.26.75-.41a2.07,2.07,0,0,1,.68-.7c.59,0,.61-.83,1.18-.85a24.07,24.07,0,0,1-2.22-2.07m8.67.34a19.07,19.07,0,0,1,.14,2.07l.72.25c.21-.35.68-.42.88-.75.13-.12.28,0,.38.11a2,2,0,0,1-.12.81c-.27.54-.91.61-1.28,1,.23.14.37-.11.55-.16a1.19,1.19,0,0,1,.68.45c.17.08.35,0,.51-.09.11-.83,1.15-.71,1.47-1.49l-.19.07c-.08-.11-.29-.06-.28-.24a2.27,2.27,0,0,1,.6-.49,10.12,10.12,0,0,0-2.86-1.3,12.13,12.13,0,0,1-1.2-.24m-5.39,2.1h.21c.24.24.64.19.81.51s-.16.16-.15.31.12,0,.15.12c.19.07.16-.11.23-.19.25-.25.29.25.53.25a.36.36,0,0,1,.53.06c.16-.14.5,0,.55-.27.32-.33.15-.84.6-1.05.17.09,0,.23.05.38.31.13.67-.26.92.05a6.14,6.14,0,0,1-.15-2.19,6.8,6.8,0,0,0-4.28,2m4.86,1.66c-.16-.18-.51-.07-.73,0,.21.21.13.56.25.82a2,2,0,0,1-1.27.75c-.14.16-.1.51-.42.48-.1.22-.44.35-.31.67a6.12,6.12,0,0,0-.17,1.16c-.59.37-.42-.49-.72-.68l-.1.17a.28.28,0,0,1-.28-.12c-.09,0-.24-.06-.32,0s-.34.41-.29.7-.36.13-.32.32a6.47,6.47,0,0,0,1-.14c.24.06.43-.11.66-.13a.23.23,0,0,1,.14.25H191a.4.4,0,0,0,.16-.48c0-.22.26-.22.39-.28s0,.2.07.3c.45.16-.11.5-.17.74s0,.62-.38.56a.14.14,0,0,1-.1-.17h-.05a.51.51,0,0,0,.27.45c.28-.23.29-.62.69-.68.22-.21-.09-.55.23-.74.51,0,1.08-.22,1.49.2,0,.18-.1.26.05.41a2,2,0,0,1-.36.67.34.34,0,0,1-.1.38c-.14.61-.84.32-1.25.53a3.09,3.09,0,0,0,2.21.6c.43,0,.24-.55.46-.78.14-.71.78-.23,1.17-.42a2.63,2.63,0,0,0,.35-.93.65.65,0,0,1-.27-.75c-.17-.23-.16-.66-.52-.7a.17.17,0,0,1,0-.23c0-.23.22-.3.27-.47-.22-.15-.16-.48-.14-.67-.4.11-.43-.4-.73-.51-.07-.23-.32-.28-.52-.31-.48.22-.56-.37-.93-.51,0-.11-.11-.27,0-.36s.43,0,.64,0Zm-8.72,2.48c-.81.26.13.88-.07,1.38-.11.29-.41,0-.62.13l-.08.54c-.12.31-.52.08-.7.29s0,.41.12.57c-.28.64.64.84.63,1.42.28.37,0,.89.36,1.21.09.65-.09,1.53.48,2l.1.63c.12.43-.51.32-.43.7.12-.06.15.1.16.14v0a27.79,27.79,0,0,1,2.58-2.63l-.38-.38a9.69,9.69,0,0,1-1.54-3.44l-.3-.15c0,.32-.16.57-.14.89l-.1.12c-.21,0-.34-.18-.52-.29s-.15-.29,0-.38a.29.29,0,0,1,.23.07c.1-.11.06-.27.11-.41s-.18-.46,0-.67c.18,0,.33.21.4.34s.34-.11.5-.17c0-.17.24-.41,0-.51a2.25,2.25,0,0,0,0-1.18c-.11-.33-.48-.27-.75-.24m18.78.34c-.08,0-.18,0-.28,0a.65.65,0,0,1,.28,0m-.62,1,.31.31c.31.21.1.66.43.84s.53.66.71,1a1.08,1.08,0,0,0,.09-.29c.13-.55.12-1.17.29-1.71a4.46,4.46,0,0,1-1.83-.14m6.87.14-.17-.12.1.27a16.25,16.25,0,0,1-3.19,8.91,6.64,6.64,0,0,1-1.18,1.29,20.17,20.17,0,0,1,2.23,2.2l.09-.16a19.33,19.33,0,0,0,5-12.24l.11-.24-.14.06Zm-4-.07a10.83,10.83,0,0,1-.14,1.8l.34.36a.37.37,0,0,1-.08.46.41.41,0,0,1-.46,0A13.11,13.11,0,0,1,204,39.49a4.21,4.21,0,0,1-1.08,1.23l.91.8c0-.05,0-.12,0-.2s.07-.26.21-.24c.44,0,.46.46.71.7-.05.39.28.68.16,1a14.85,14.85,0,0,0,4-9.56l.14-.17c-.9.09-1.85,0-2.79,0Zm-23.41,0,.15.25a8.06,8.06,0,0,1,.14,2c.11-.19.14-.45.38-.57,0-.18-.24-.23-.21-.41.19-.37,0-1,.5-1.14a1.08,1.08,0,0,1-1-.09m-4.84,0-.27.1-2.78,0A20.31,20.31,0,0,0,177.22,42a33,33,0,0,0,2.67,3.76l2-2.08.25-.09a6.19,6.19,0,0,1-.94-1,1.33,1.33,0,0,1-.84-.63c-.1-.12,0-.31-.12-.4l-.12.15c-.35.17-.48-.19-.72-.34s-.17-.76-.58-.65c-.16,0-.21-.19-.31-.29-.4,0-.49-.39-.7-.6,0,.09,0,.21-.13.26-.4.1-.54-.39-.81-.59-.07,0-.12.1-.22.09a1.18,1.18,0,0,1-.41-.85c-.33-.36-.19-1-.12-1.41.06-.12.23-.19.2-.34s.31-.23.52-.24a.52.52,0,0,1,.2.19c.13-.08.42,0,.31-.28a1.24,1.24,0,0,1,.66-.25,3.59,3.59,0,0,0,.44.63l-.14-.22a17.8,17.8,0,0,1-.48-3c0-.06-.12-.09,0-.16l0,0a2.39,2.39,0,0,1,0-.55m3.92,0-.21.1a23.27,23.27,0,0,1-2.79-.08l.12.18.22,1.84a14,14,0,0,1,.38,2.1c.11-.15,0-.45.31-.48-.11-.23.21-.42,0-.61a2,2,0,0,1,.57-1.32c.52,0,.55-.69,1.06-.72.27,0,.43.34.54.46a1.86,1.86,0,0,1-.23-1.47m5.16,1.23c.29.52.44,1.12.73,1.63s.58.83.76,1.28a7.71,7.71,0,0,1,.85-1,.5.5,0,0,0-.1-.39c-.09-.21,0-.51-.17-.69-.26.09.09.35,0,.5a.16.16,0,0,1-.24-.11.67.67,0,0,1-.48-.46c.19-.12,0-.17-.1-.27s-.11,0-.19.05a.25.25,0,0,1-.15,0c0-.57-.64-.23-.89-.53m3.16.8a1.31,1.31,0,0,1-.42.64l0,0c.25-.16.42-.48.73-.5ZM198,36a.71.71,0,0,0,.15.47c.39-.05.23.49.59.44.2-.06,0-.24.07-.36-.06-.3-.36-.34-.55-.51a.14.14,0,0,1,.05-.16c-.16-.09-.22,0-.31.12m5.68,0c-.29,0-.65.15-.9,0-.09-.08-.15,0-.14.13s-.2.34-.43.27-.18-.27-.24-.42a1.13,1.13,0,0,1-.05.32,3.69,3.69,0,0,0-.44.67c-.2.23-.54.15-.77.34,0,.48-.57.38-.87.53,0,.06.06.07.08.12a.39.39,0,0,0,.43-.1c.42.11.34-.42.58-.6s.4-.21.63-.07a1.42,1.42,0,0,1,.23,1c-.23.24-.12.64-.28.92,0,.32-.36.48-.31.81a.72.72,0,0,1-.55.17,10,10,0,0,0-2.51-.58.18.18,0,0,0-.12.2c.36.19.8.19,1.18.36s.57.51,1,.38,1,.11,1.2-.27c0-.36.28-.63.44-1l.13,0a2.26,2.26,0,0,1,.28.76c.28-.3.5-.64.75-.94a9.1,9.1,0,0,0,1.47-3.1,2.56,2.56,0,0,0-.79.13M191,36a15.06,15.06,0,0,1-1.86,2,7.62,7.62,0,0,0,3.61,1.67c.08-.28,0-.61.11-.85s.37-.21.57-.16a.18.18,0,0,0,.12-.27c-.29-.06-.16-.38-.26-.56s.18-.08.14-.21c-.2-.16.1-.34-.07-.51.07,0,.12-.16.22-.16-.64.33-1.31-.07-1.88-.32-.26-.15-.64-.3-.7-.63m5.83,1.76c0,.08-.14.22,0,.27.24-.25.75-.24.78-.6-.36,0-.54.14-.78.33m1.14.76c-.31,0-.48.24-.71.42s-.42-.3-.65-.18c0,.05.06.06.1.08s.08.23,0,.3c-.34.3-.5-.15-.82-.13v.13c0,.07,0,.17-.13.13-.19-.33-.61-.2-.8-.5-.14-.07-.26,0-.35.11s-.39,0-.31.23c-.25.1-.28.36-.46.53-.31,0-.45.3-.74.29,0,.06,0,.16.09.17a1,1,0,0,0,.58.07c.3-.48.81-.08,1.22-.26.26,0,.08.33.27.43.42-.13.73.35,1.06,0,0-.47.51-.44.8-.55.45-.28,1-.63.92-1.24Zm-9.69.27a15,15,0,0,1-2,2.06c.31,0,.47.35.74.5a12.52,12.52,0,0,0,5.13,2.29l-.48-.23c-.37-.4-.89-.89-.9-1.45.36-.13.32-.53.44-.8a2.08,2.08,0,0,1,1-.58c-1,.42-1.89-.33-2.74-.72a3.93,3.93,0,0,1-1.25-1.07m13.94,2.8-.08-.19a1.47,1.47,0,0,1-.45.57c0,.17-.05.41.15.52.4.13.92.39,1,.86-.16.44-1,.84-.48,1.32.16.24-.24.34-.17.54l.14-.2a13.92,13.92,0,0,0,1.78-1.49h.08c-.13,0-.27.08-.42,0a.64.64,0,0,1-.33-.67ZM186.1,42l0-.07,0,.12Zm.32.43a.43.43,0,0,1-.24-.31Zm.07.09c.06.24.39.39.29.69s-.51.28-.8.27c-.57-.09-1,.34-1.54.4s-.66-.45-1.11-.4a15.76,15.76,0,0,0,9.72,4.16l.27.19-.11-.33V44.82l-.25.09a11.6,11.6,0,0,1-6.47-2.42M205,44.36l-.06-.24c-.27.55-.9.91-1.37,1.32-.65.66-1.72.8-2,1.74-.35.32-.48.83-1,1-.18.49-.69.46-1,.81-.86.76-1.39-.48-2.16-.64l-1.53.28a4.88,4.88,0,0,1-1.57,0,23.65,23.65,0,0,1,0,3.15l.19-.12a19.57,19.57,0,0,0,12.6-5.3Zm-22.28,0,0,.12-2.07,2.08a20.34,20.34,0,0,0,10.7,5,16.79,16.79,0,0,1,2,.24l-.15-.24V48.82l.1-.15-.31.08a15.9,15.9,0,0,1-10.24-4.42m11.46.7.15.23a20.35,20.35,0,0,1,0,2.47,18.16,18.16,0,0,1,2.41-.34.78.78,0,0,1-.44-.26c-.47,0-.7-.52-.84-.89s.11-.49.22-.72c-.21-.41-.83-.11-1.19-.26-.1-.08-.17-.21-.31-.23" transform="translate(-4.42 -7.27)"/></g></g></svg>