<svg xmlns="http://www.w3.org/2000/svg" viewBox="0 0 596.14 528.24"><defs><style>.cls-1,.cls-2,.cls-3,.cls-4,.cls-5,.cls-6,.cls-9{fill:none;}.cls-1,.cls-2,.cls-3,.cls-4,.cls-5,.cls-6,.cls-7,.cls-8,.cls-9{stroke:#1d1d1b;stroke-miterlimit:10;}.cls-1{stroke-width:7px;}.cls-2{stroke-width:2px;}.cls-3{stroke-width:1.59px;}.cls-4,.cls-8{stroke-width:1.69px;}.cls-5{stroke-width:1.73px;}.cls-6{stroke-width:1.59px;}.cls-7,.cls-8{fill:#fff;}.cls-7{stroke-width:1.69px;}.cls-9{stroke-width:6.91px;}</style></defs><title>G08_18_02</title><g id="Marine"><line class="cls-1" y1="113.46" x2="426.17" y2="113.46"/><line class="cls-1" x1="324.34" y1="284.56" x2="595.28" y2="284.56"/><line class="cls-1" x1="203.26" y1="284.56" x2="270.94" y2="284.56"/><line class="cls-1" y1="284.56" x2="149.86" y2="284.56"/><line class="cls-1" x1="532.97" y1="113.46" x2="595.28" y2="113.46"/><line class="cls-1" x1="242.43" y1="113.46" x2="242.43" y2="284.56"/><polyline class="cls-1" points="292.95 367.62 242.43 367.62 242.43 527.24"/><polyline class="cls-1" points="399.19 527.24 399.19 367.62 346.35 367.62"/><line class="cls-1" x1="199.59" y1="83.42" x2="199.59" y2="113.46"/><line class="cls-1" x1="199.59" x2="199.59" y2="30.03"/><line class="cls-1" y1="367.62" x2="149.86" y2="367.62"/><path class="cls-2" d="M149.86,367.62a53.4,53.4,0,0,0,53.4,53.4v-53.4"/><line class="cls-1" x1="203.26" y1="367.62" x2="242.43" y2="367.62"/><path class="cls-2" d="M346.35,367.62A53.4,53.4,0,0,1,293,421v-53.4"/><path class="cls-2" d="M473.88,527.24a53.39,53.39,0,0,1,53.4-53.39v53.39"/><path class="cls-2" d="M479.57,113.46a53.4,53.4,0,0,1-53.4,53.4v-53.4"/><path class="cls-2" d="M479.57,113.46a53.4,53.4,0,0,0,53.4,53.4v-53.4"/><path class="cls-2" d="M149.86,284.56a53.39,53.39,0,0,1,53.4-53.39v53.39"/><path class="cls-2" d="M199.59,83.43A53.39,53.39,0,0,1,146.2,30h53.39"/><rect class="cls-2" x="280.23" y="473.85" width="116.79" height="53.4"/><rect class="cls-3" x="286.18" y="479.28" width="104.88" height="37.35" rx="13.53" ry="13.53"/><rect class="cls-4" x="365.8" y="404.2" width="29.76" height="56.69" rx="12.66" ry="12.66"/><path class="cls-2" d="M270.94,284.56a53.39,53.39,0,0,1,53.4-53.39v53.39"/><path class="cls-2" d="M254.48,423.28h28.2a12.47,12.47,0,0,1,12.47,12.47v4.54a13.61,13.61,0,0,1-13.61,13.61H254.48a8.36,8.36,0,0,1-8.36-8.36V431.65a8.36,8.36,0,0,1,8.36-8.36Z"/><rect class="cls-4" x="445.77" y="331.25" width="63.5" height="107.34"/><rect class="cls-5" x="545.46" y="284.56" width="49.82" height="242.68"/><rect class="cls-4" x="551.53" y="345.87" width="29.76" height="56.69" rx="12.66" ry="12.66"/><rect class="cls-4" x="551.53" y="405.91" width="29.76" height="32.68" rx="12.66" ry="12.66"/><circle class="cls-6" cx="557.36" cy="303.92" r="8.15"/><circle class="cls-6" cx="557.36" cy="323.64" r="8.15"/><circle class="cls-6" cx="577.91" cy="303.92" r="8.15"/><circle class="cls-6" cx="577.91" cy="323.64" r="8.15"/><rect class="cls-4" x="74.93" y="421.8" width="91.84" height="105.45"/><rect class="cls-2" x="38.57" y="502.09" width="30.36" height="25.16"/><rect class="cls-2" x="172.78" y="502.09" width="30.36" height="25.16"/><rect class="cls-4" x="74.93" y="489.28" width="91.84" height="6.8"/><rect class="cls-4" x="81.2" y="500.54" width="36.28" height="19.4" rx="1.42" ry="1.42"/><rect class="cls-4" x="124.22" y="500.54" width="36.28" height="19.4" rx="1.42" ry="1.42"/><rect class="cls-4" x="10.56" y="146.29" width="91.84" height="105.45" transform="translate(255.49 142.53) rotate(90)"/><rect class="cls-2" x="1.16" y="119.33" width="30.36" height="25.16" transform="translate(148.24 115.57) rotate(90)"/><rect class="cls-2" x="1.16" y="253.53" width="30.36" height="25.16" transform="translate(282.45 249.78) rotate(90)"/><rect class="cls-4" x="-7.6" y="195.61" width="91.84" height="6.8" transform="translate(237.33 160.69) rotate(90)"/><rect class="cls-4" x="2.62" y="167.8" width="36.28" height="19.4" rx="1.42" ry="1.42" transform="translate(198.26 156.74) rotate(90)"/><rect class="cls-4" x="2.62" y="210.82" width="36.28" height="19.4" rx="1.42" ry="1.42" transform="translate(241.28 199.77) rotate(90)"/><rect class="cls-2" x="409.19" y="229.89" width="34.58" height="34.58" rx="1.42" ry="1.42"/><rect class="cls-2" x="443.55" y="229.89" width="34.58" height="34.58" rx="1.42" ry="1.42"/><rect class="cls-2" x="478.13" y="229.89" width="34.58" height="34.58" rx="1.42" ry="1.42"/><rect class="cls-2" x="512.48" y="229.89" width="34.58" height="34.58" rx="1.42" ry="1.42"/><rect class="cls-2" x="547.07" y="225.05" width="15.68" height="55.75" rx="2.27" ry="2.27"/><rect class="cls-2" x="393.51" y="225.05" width="15.68" height="55.75" rx="2.27" ry="2.27"/><rect class="cls-2" x="393.51" y="225.05" width="15.68" height="55.75" rx="2.27" ry="2.27"/><rect class="cls-7" x="417.33" y="253.95" width="18.07" height="34.35" rx="2.27" ry="2.27" transform="translate(697.49 -155.25) rotate(90)"/><rect class="cls-7" x="451.8" y="253.95" width="18.07" height="34.35" rx="2.27" ry="2.27" transform="translate(731.96 -189.71) rotate(90)"/><rect class="cls-7" x="486.38" y="253.95" width="18.07" height="34.35" rx="2.27" ry="2.27" transform="translate(766.54 -224.3) rotate(90)"/><rect class="cls-7" x="520.8" y="253.95" width="18.07" height="34.35" rx="2.27" ry="2.27" transform="translate(800.95 -258.71) rotate(90)"/><rect class="cls-4" x="291.76" y="130.46" width="35.43" height="16.44" rx="2.27" ry="2.27"/><rect class="cls-4" x="341.79" y="130.46" width="35.43" height="16.44" rx="2.27" ry="2.27"/><rect class="cls-4" x="291.76" y="197.51" width="35.43" height="16.44" rx="2.27" ry="2.27"/><rect class="cls-4" x="341.79" y="197.51" width="35.43" height="16.44" rx="2.27" ry="2.27"/><rect class="cls-4" x="260.44" y="164.09" width="35.43" height="16.44" rx="2.27" ry="2.27" transform="translate(450.47 -105.85) rotate(90)"/><rect class="cls-4" x="372.4" y="164.09" width="35.43" height="16.44" rx="2.27" ry="2.27" transform="translate(562.43 -217.81) rotate(90)"/><rect class="cls-8" x="302.55" y="118.64" width="63.5" height="107.34" transform="translate(506.61 -161.99) rotate(90)"/><line class="cls-1" x1="117.48" y1="284.56" x2="117.48" y2="367.62"/></g><g id="Mobile"><rect class="cls-9" x="3.76" y="3.76" width="588.47" height="520.25"/></g></svg>