<svg xmlns="http://www.w3.org/2000/svg" viewBox="0 0 304.4 275.47"><defs><style>.cls-1,.cls-10{fill:#010101;}.cls-1,.cls-9{opacity:0.1;}.cls-2{fill:#f0c418;}.cls-3{fill:#d1d1d1;}.cls-4{fill:#7e4d26;}.cls-5{fill:#a86632;}.cls-6{fill:#5e3a1c;}.cls-7{fill:#b9845a;}.cls-8{fill:#dca804;}.cls-11{fill:#8dbe22;}.cls-12{fill:#419c35;}.cls-13{fill:#fff;}</style></defs><title>G08_17</title><g id="Criminal"><path class="cls-1" d="M110.47,62.09l-26,98.19a9.29,9.29,0,0,0,6.6,11.34l.92.25-.24.9a1.45,1.45,0,0,0,1,1.77l2.64.7L95,177.05a.87.87,0,0,0,.62,1.07L114.05,183a.87.87,0,0,0,1.06-.62l1.09-4.12,9.77,2.59-.17.66a3.51,3.51,0,0,0,2.5,4.3l10.17,2.7a3.54,3.54,0,0,0,4.31-2.51l.17-.66h0l-3.44,13a10.19,10.19,0,0,0,7.19,12.45h0a1.89,1.89,0,0,0,1.35,2.32L172,219.47a1.9,1.9,0,0,0,2.32-1.35h0a10.2,10.2,0,0,0,12.41-7.26l3.44-13h0l-.17.66a3.52,3.52,0,0,0,2.5,4.31l10.17,2.69A3.52,3.52,0,0,0,207,203l.17-.66,9.77,2.58-1.09,4.12a.87.87,0,0,0,.62,1.06l18.48,4.9a.88.88,0,0,0,1.07-.62l.48-1.81,2.63.7a1.45,1.45,0,0,0,1.77-1l.24-.91.93.24A9.29,9.29,0,0,0,253.38,205l26-98.19a9.29,9.29,0,0,0-6.59-11.35l-151-40A9.29,9.29,0,0,0,110.47,62.09Zm40.16,125.3,31.86,8.43-3.45,13-2.12-.56a1.91,1.91,0,0,0-1.35-2.33l-23.94-6.33a1.89,1.89,0,0,0-2.32,1.35l-2.13-.56Z" transform="translate(-1.3 -4.53)"/><rect class="cls-2" x="132.17" y="170.36" width="17.56" height="13.66" rx="5.1" ry="5.1" transform="translate(48.74 -34.7) rotate(14.83)"/><rect class="cls-2" x="196.36" y="187.35" width="17.56" height="13.66" rx="5.1" ry="5.1" transform="translate(55.23 -50.56) rotate(14.83)"/><path class="cls-3" d="M180.08,214.72l-27.51-7.28A10.19,10.19,0,0,1,145.33,195l5-18.74,3.71,1a4.11,4.11,0,0,1,2.92,5L153,197l31.85,8.44,3.91-14.78a4.11,4.11,0,0,1,5-2.92l3.71,1-5,18.75A10.19,10.19,0,0,1,180.08,214.72Z" transform="translate(-1.3 -4.53)"/><rect class="cls-4" x="153.35" y="199.16" width="28.56" height="13.99" rx="2.75" ry="2.75" transform="translate(57.04 -40.57) rotate(14.83)"/><path class="cls-5" d="M132.56,4.89,297.68,48.6a10.76,10.76,0,0,1,7.65,13.16l-5,18.76L114.44,31.31l5-18.77A10.76,10.76,0,0,1,132.56,4.89Z" transform="translate(-1.3 -4.53)"/><path class="cls-4" d="M299.15,82.79l-9.57,9a10.21,10.21,0,0,1-9.6,2.43L125.37,53.29a10.21,10.21,0,0,1-7.14-6.86l-3.86-12.56A3.88,3.88,0,0,1,119.08,29L297.48,76.2A3.89,3.89,0,0,1,299.15,82.79Z" transform="translate(-1.3 -4.53)"/><rect class="cls-6" x="129.41" y="44.52" width="116.68" height="171.26" rx="7.55" ry="7.55" transform="translate(12.59 273.81) rotate(-75.17)"/><path class="cls-5" d="M90.3,156.89l26-98.19a9.28,9.28,0,0,1,11.34-6.59l151,40a9.29,9.29,0,0,1,6.6,11.34l-26,98.19a9.29,9.29,0,0,1-11.34,6.6l-151-40A9.29,9.29,0,0,1,90.3,156.89ZM126.76,55.45a5.82,5.82,0,0,0-7.12,4.14l-26,98.19a5.84,5.84,0,0,0,4.14,7.12l151,40a5.83,5.83,0,0,0,7.12-4.14l26-98.19a5.83,5.83,0,0,0-4.14-7.12Z" transform="translate(-1.3 -4.53)"/><path class="cls-4" d="M97.07,158.88a2.2,2.2,0,0,0,1.54,2.69L248,201.13a2.2,2.2,0,0,0,2.67-1.58l25.73-97.2a2.2,2.2,0,0,0-1.54-2.69L125.46,60.1a2.19,2.19,0,0,0-2.66,1.58l-25.73,97.2" transform="translate(-1.3 -4.53)"/><path class="cls-6" d="M129.4,40.82A7.54,7.54,0,0,1,137,38.46l64.05,16.95,12,3.18,64,17a7.53,7.53,0,0,1,5.47,5.83l1,5a5.94,5.94,0,0,1-7.36,6.89L208.65,75.34l-12-3.18L129.09,54.28a6,6,0,0,1-3-9.64Z" transform="translate(-1.3 -4.53)"/><path class="cls-7" d="M118.07,32.3a.32.32,0,0,1,.13,0L296.6,79.54a.42.42,0,0,1,.31.31.4.4,0,0,1-.13.42l-9.56,9a6.74,6.74,0,0,1-4.63,1.83,6.65,6.65,0,0,1-1.72-.22L126.26,50a6.69,6.69,0,0,1-4.72-4.54l-3.86-12.55a.42.42,0,0,1,0-.38.49.49,0,0,1,.34-.18m0-3.46a3.89,3.89,0,0,0-3.7,5l3.86,12.56a10.21,10.21,0,0,0,7.14,6.86L280,94.22a10.2,10.2,0,0,0,9.6-2.43l9.57-9a3.89,3.89,0,0,0-1.67-6.59L119.08,29a4,4,0,0,0-1-.14Z" transform="translate(-1.3 -4.53)"/><rect class="cls-2" x="264.69" y="47.67" width="21.88" height="13.66" rx="1.32" ry="1.32" transform="translate(526.84 173.17) rotate(-165.17)"/><path class="cls-8" d="M288.33,52.46h2.18a0,0,0,0,1,0,0V63.24a0,0,0,0,1,0,0h-2.18a2.2,2.2,0,0,1-2.2-2.2V54.67A2.2,2.2,0,0,1,288.33,52.46Z" transform="translate(550.95 183.03) rotate(-165.17)"/><rect class="cls-2" x="137.87" y="14.1" width="21.88" height="13.66" rx="1.32" ry="1.32" transform="translate(9.01 -41.92) rotate(14.83)"/><path class="cls-8" d="M136.13,12.17h2.18a0,0,0,0,1,0,0V23a0,0,0,0,1,0,0h-2.18a2.2,2.2,0,0,1-2.2-2.2V14.38A2.2,2.2,0,0,1,136.13,12.17Z" transform="translate(7.73 -38.78) rotate(14.83)"/><path class="cls-2" d="M223,204.12h18.34a1.26,1.26,0,0,1,1.26,1.26v3.88a0,0,0,0,1,0,0H221.73a0,0,0,0,1,0,0v-3.88A1.26,1.26,0,0,1,223,204.12Z" transform="translate(402.4 461.38) rotate(-165.17)"/><path class="cls-8" d="M244.62,207.37h2.08a0,0,0,0,1,0,0v2.4a0,0,0,0,1,0,0h-4.18a0,0,0,0,1,0,0v-.3A2.1,2.1,0,0,1,244.62,207.37Z" transform="translate(426.41 468.26) rotate(-165.17)"/><path class="cls-2" d="M100.86,172.13h20.86a0,0,0,0,1,0,0V176a1.26,1.26,0,0,1-1.26,1.26H102.12a1.26,1.26,0,0,1-1.26-1.26v-3.88A0,0,0,0,1,100.86,172.13Z" transform="translate(47.11 -27.19) rotate(14.83)"/><path class="cls-8" d="M97.45,169h4.18a0,0,0,0,1,0,0v2.4a0,0,0,0,1,0,0H99.55a2.1,2.1,0,0,1-2.1-2.1V169A0,0,0,0,1,97.45,169Z" transform="translate(45.57 -24.34) rotate(14.83)"/><rect class="cls-2" x="233.74" y="46.14" width="17.56" height="13.66" rx="5.1" ry="5.1" transform="matrix(-0.97, -0.26, 0.26, -0.97, 462.13, 161.7)"/><rect class="cls-2" x="169.55" y="29.15" width="17.56" height="13.66" rx="5.1" ry="5.1" transform="translate(340.23 111.86) rotate(-165.17)"/><path class="cls-3" d="M203.4,15.43l27.51,7.28a10.19,10.19,0,0,1,7.24,12.46l-5,18.75-3.71-1a4.1,4.1,0,0,1-2.92-5l3.92-14.78-31.86-8.43-3.91,14.77a4.11,4.11,0,0,1-5,2.92l-3.71-1,5-18.74A10.19,10.19,0,0,1,203.4,15.43Z" transform="translate(-1.3 -4.53)"/><rect class="cls-4" x="201.57" y="17" width="28.56" height="13.99" rx="2.75" ry="2.75" transform="translate(417.08 97.9) rotate(-165.17)"/><g class="cls-9"><polygon class="cls-10" points="225.33 229.02 205.27 214.13 179.39 249.02 176.86 238.86 127.12 251.22 133.15 275.47 182.89 263.11 182.35 260.95 194.8 270.18 225.33 229.02"/><rect class="cls-10" x="75.5" y="227.96" width="24.99" height="51.25" transform="translate(-181.47 260.7) rotate(-73.35)"/><rect class="cls-10" x="26.56" y="187.92" width="24.99" height="51.25" transform="translate(-108.11 48.24) rotate(-31.85)"/><rect class="cls-10" x="-10.05" y="135.59" width="51.25" height="24.99" transform="translate(-134.53 148.56) rotate(-85.92)"/></g><rect class="cls-11" x="104.48" y="75.53" width="51.25" height="24.99" transform="translate(247.55 -19.36) rotate(105.02)"/><path class="cls-12" d="M114.42,107.73l19.4,5.21,12-44.63-19.4-5.2Zm27.3-33.89-3.36,12.52a9.66,9.66,0,0,0-14.66-3.52l3.47-12.91c1.94.52,4.88-.63,5.4-2.57l7.12,1.91C139.16,71.21,139.78,73.32,141.72,73.84Zm-19.82,33.3c.52-1.94-1.47-4.35-3.41-4.87l3.34-12.45a9.65,9.65,0,0,0,14.45,4.29L133,106.18c-1.94-.53-3.51.93-4,2.87Z" transform="translate(-1.3 -4.53)"/><path class="cls-13" d="M128.49,85.1a1.81,1.81,0,0,0-.34.24,5.24,5.24,0,0,0-.39.41,4.63,4.63,0,0,0-.37.54,4.51,4.51,0,0,0-.29.63l2.43.65.11-.21a10.72,10.72,0,0,1,.65-1,3.09,3.09,0,0,1,.69-.74,1.87,1.87,0,0,1,.81-.37,2.18,2.18,0,0,1,1,.06,2.53,2.53,0,0,1,1,.51,2.15,2.15,0,0,1,.56.81,2.92,2.92,0,0,1,.2,1,4.77,4.77,0,0,1-.14,1.16l1.23.33-.16.61-1.26-.33a6.14,6.14,0,0,1-.77,1.51,5.16,5.16,0,0,1-1.14,1.19l-1-.9a2.1,2.1,0,0,0,.41-.29,5.6,5.6,0,0,0,.47-.49,5.74,5.74,0,0,0,.47-.65,6.12,6.12,0,0,0,.38-.77l-2.43-.65a.57.57,0,0,0-.08.13l-.08.14a10.07,10.07,0,0,1-.64,1,2.67,2.67,0,0,1-.65.65,1.63,1.63,0,0,1-.72.3,2,2,0,0,1-.89-.07,2.54,2.54,0,0,1-1-.47,2.32,2.32,0,0,1-.62-.77,2.92,2.92,0,0,1-.28-1,4.46,4.46,0,0,1,.06-1.14l-1.18-.32.16-.61,1.19.32a4.51,4.51,0,0,1,.68-1.33,5.75,5.75,0,0,1,.93-1Zm-.74,4a.91.91,0,0,0,.83-.15,3.4,3.4,0,0,0,.72-.94L127,87.35A1.73,1.73,0,0,0,127,88.5,1.07,1.07,0,0,0,127.75,89.06Zm4.81-2.35a.89.89,0,0,0-.89.2,5,5,0,0,0-.79,1l2.33.63a2.35,2.35,0,0,0,0-1.23A.93.93,0,0,0,132.56,86.71Z" transform="translate(-1.3 -4.53)"/><path class="cls-13" d="M133.25,76.34a2,2,0,1,0-1.39-2.41A2,2,0,0,0,133.25,76.34Z" transform="translate(-1.3 -4.53)"/><path class="cls-13" d="M127,99.71a2,2,0,1,1-2.41,1.38A2,2,0,0,1,127,99.71Z" transform="translate(-1.3 -4.53)"/><rect class="cls-11" x="129.89" y="82.35" width="51.25" height="24.99" transform="translate(286.13 -35.32) rotate(105.02)"/><path class="cls-12" d="M139.83,114.55l19.4,5.21,12-44.63-19.4-5.21Zm27.3-33.89-3.36,12.52a9.66,9.66,0,0,0-14.66-3.52l3.47-12.91c1.94.52,4.88-.63,5.4-2.57l7.12,1.91C164.57,78,165.19,80.14,167.13,80.66ZM147.31,114c.52-1.94-1.47-4.35-3.41-4.87l3.34-12.45a9.65,9.65,0,0,0,14.45,4.29L158.45,113c-1.94-.52-3.51.93-4,2.88Z" transform="translate(-1.3 -4.53)"/><path class="cls-13" d="M153.9,91.92a1.81,1.81,0,0,0-.34.24,3.87,3.87,0,0,0-.39.41,4.63,4.63,0,0,0-.37.54,4,4,0,0,0-.29.63l2.43.65.11-.21a9.64,9.64,0,0,1,.65-1.05,2.91,2.91,0,0,1,.69-.74,1.87,1.87,0,0,1,.81-.37,2.18,2.18,0,0,1,1,.06,2.41,2.41,0,0,1,1,.51,2.15,2.15,0,0,1,.56.81,2.92,2.92,0,0,1,.2,1,4.77,4.77,0,0,1-.14,1.16l1.23.33-.16.61-1.26-.34a6,6,0,0,1-.77,1.52,5.16,5.16,0,0,1-1.14,1.19l-1-.9a2.1,2.1,0,0,0,.41-.29,5.6,5.6,0,0,0,.47-.49,5.74,5.74,0,0,0,.47-.65,6.12,6.12,0,0,0,.38-.77l-2.43-.66a1,1,0,0,0-.08.14l-.08.14a10.07,10.07,0,0,1-.64,1,2.67,2.67,0,0,1-.65.65,1.63,1.63,0,0,1-.72.3,2.15,2.15,0,0,1-.89-.07,2.54,2.54,0,0,1-1-.47,2.32,2.32,0,0,1-.62-.77,2.91,2.91,0,0,1-.28-1,4.4,4.4,0,0,1,.06-1.13L150,93.62l.16-.61,1.19.32a4.51,4.51,0,0,1,.68-1.33,5.75,5.75,0,0,1,.93-1Zm-.74,4a.88.88,0,0,0,.83-.14,3.4,3.4,0,0,0,.72-.94l-2.31-.62a1.73,1.73,0,0,0,0,1.15A1.06,1.06,0,0,0,153.16,95.87ZM158,93.53a.89.89,0,0,0-.89.2,5,5,0,0,0-.79,1l2.33.63a2.27,2.27,0,0,0,0-1.24A.9.9,0,0,0,158,93.53Z" transform="translate(-1.3 -4.53)"/><path class="cls-13" d="M158.66,83.15a2,2,0,1,0-1.39-2.4A2,2,0,0,0,158.66,83.15Z" transform="translate(-1.3 -4.53)"/><path class="cls-13" d="M152.38,106.53a2,2,0,1,1-2.4,1.38A2,2,0,0,1,152.38,106.53Z" transform="translate(-1.3 -4.53)"/><rect class="cls-11" x="155.3" y="89.17" width="51.25" height="24.99" transform="matrix(-0.26, 0.97, -0.97, -0.26, 324.71, -51.27)"/><path class="cls-12" d="M165.24,121.37l19.4,5.21,12-44.63-19.4-5.21Zm27.3-33.89L189.18,100a9.66,9.66,0,0,0-14.66-3.52L178,83.57c1.94.52,4.88-.63,5.4-2.57l7.12,1.91C190,84.85,190.6,87,192.54,87.48Zm-19.82,33.29c.52-1.94-1.47-4.34-3.41-4.86l3.34-12.45a9.65,9.65,0,0,0,14.45,4.29l-3.24,12.06c-1.94-.52-3.51.93-4,2.87Z" transform="translate(-1.3 -4.53)"/><path class="cls-13" d="M179.31,98.74A1.81,1.81,0,0,0,179,99a3.87,3.87,0,0,0-.39.41,4.48,4.48,0,0,0-.37.53,4.15,4.15,0,0,0-.29.64l2.43.65.11-.21a9.64,9.64,0,0,1,.65-1,2.91,2.91,0,0,1,.69-.74,1.87,1.87,0,0,1,.81-.37,2.18,2.18,0,0,1,1,.06,2.41,2.41,0,0,1,1,.51,2.15,2.15,0,0,1,.56.81,2.92,2.92,0,0,1,.2,1,4.77,4.77,0,0,1-.14,1.16l1.23.33-.17.61-1.25-.34a6,6,0,0,1-.77,1.52,5.16,5.16,0,0,1-1.14,1.19l-1-.9a2.1,2.1,0,0,0,.41-.29,5.6,5.6,0,0,0,.47-.49,5.37,5.37,0,0,0,.46-.65,5.05,5.05,0,0,0,.39-.77l-2.43-.66a1,1,0,0,0-.08.14l-.08.13a11,11,0,0,1-.64,1,2.86,2.86,0,0,1-.65.65,1.68,1.68,0,0,1-.72.3,2.15,2.15,0,0,1-.89-.07,2.54,2.54,0,0,1-1-.47,2.32,2.32,0,0,1-.62-.77,2.91,2.91,0,0,1-.28-1,4.4,4.4,0,0,1,.06-1.13l-1.18-.32.16-.61,1.19.32a4.51,4.51,0,0,1,.68-1.33,5.39,5.39,0,0,1,.93-1Zm-.74,4a.88.88,0,0,0,.83-.14,3.4,3.4,0,0,0,.72-.94l-2.31-.62a1.73,1.73,0,0,0,.05,1.15A1.06,1.06,0,0,0,178.57,102.69Zm4.81-2.34a.87.87,0,0,0-.89.2,5,5,0,0,0-.79,1l2.33.62a2.24,2.24,0,0,0,0-1.23A.9.9,0,0,0,183.38,100.35Z" transform="translate(-1.3 -4.53)"/><path class="cls-13" d="M184.07,90a2,2,0,1,0-1.39-2.4A2,2,0,0,0,184.07,90Z" transform="translate(-1.3 -4.53)"/><path class="cls-13" d="M177.79,113.35a2,2,0,1,1-2.4,1.38A2,2,0,0,1,177.79,113.35Z" transform="translate(-1.3 -4.53)"/><rect class="cls-11" x="180.71" y="95.99" width="51.25" height="24.99" transform="translate(363.3 -67.23) rotate(105.02)"/><path class="cls-12" d="M190.65,128.19l19.4,5.2,12-44.62-19.4-5.21ZM218,94.29l-3.36,12.52a9.68,9.68,0,0,0-14.66-3.52l3.46-12.9c2,.52,4.89-.63,5.41-2.57l7.11,1.91C215.39,91.67,216,93.77,218,94.29Zm-19.82,33.3c.52-1.94-1.47-4.34-3.41-4.86l3.34-12.45a9.65,9.65,0,0,0,14.45,4.29l-3.24,12.06c-1.94-.52-3.51.93-4,2.87Z" transform="translate(-1.3 -4.53)"/><path class="cls-13" d="M204.72,105.56a1.81,1.81,0,0,0-.34.24,3.1,3.1,0,0,0-.39.41,3.78,3.78,0,0,0-.37.53,4.15,4.15,0,0,0-.29.64l2.43.65.11-.21a10.94,10.94,0,0,1,.65-1.06,3.29,3.29,0,0,1,.69-.74,2,2,0,0,1,.81-.36,2.18,2.18,0,0,1,1,.06,2.41,2.41,0,0,1,1,.51,2.15,2.15,0,0,1,.56.81,2.9,2.9,0,0,1,.2,1,4.79,4.79,0,0,1-.14,1.17l1.23.33-.17.61-1.25-.34a6.21,6.21,0,0,1-.77,1.52,5.37,5.37,0,0,1-1.14,1.19l-1-.9a1.83,1.83,0,0,0,.41-.3,3.72,3.72,0,0,0,.47-.49,4.56,4.56,0,0,0,.46-.64,5.16,5.16,0,0,0,.39-.78l-2.43-.65a1,1,0,0,0-.08.14l-.08.13a11,11,0,0,1-.64,1,2.86,2.86,0,0,1-.65.65,2,2,0,0,1-.72.3,2.15,2.15,0,0,1-.89-.07,2.54,2.54,0,0,1-1-.47,2.32,2.32,0,0,1-.62-.77,2.91,2.91,0,0,1-.28-1,4.4,4.4,0,0,1,.06-1.13l-1.18-.32.16-.61,1.19.32a4.39,4.39,0,0,1,.68-1.33,5.39,5.39,0,0,1,.93-1Zm-.74,4a.86.86,0,0,0,.83-.15,3.18,3.18,0,0,0,.72-.93l-2.31-.62a1.73,1.73,0,0,0,.05,1.15A1.06,1.06,0,0,0,204,109.51Zm4.81-2.34a.87.87,0,0,0-.89.2,4.46,4.46,0,0,0-.79,1l2.33.62a2.24,2.24,0,0,0,0-1.23A.89.89,0,0,0,208.79,107.17Z" transform="translate(-1.3 -4.53)"/><path class="cls-13" d="M209.48,96.79a2,2,0,1,0-1.39-2.4A2,2,0,0,0,209.48,96.79Z" transform="translate(-1.3 -4.53)"/><path class="cls-13" d="M203.2,120.16a2,2,0,1,1-2.4,1.39A2,2,0,0,1,203.2,120.16Z" transform="translate(-1.3 -4.53)"/><rect class="cls-11" x="206.01" y="102.77" width="51.25" height="24.99" transform="translate(401.7 -83.11) rotate(105.02)"/><path class="cls-12" d="M216,135l19.4,5.2,12-44.62-19.4-5.21Zm27.29-33.9-3.36,12.52a9.65,9.65,0,0,0-14.65-3.52l3.46-12.9c1.94.52,4.89-.63,5.41-2.57l7.11,1.91C240.69,98.46,241.3,100.56,243.24,101.08Zm-19.82,33.3c.52-1.94-1.47-4.34-3.41-4.87l3.34-12.44a9.66,9.66,0,0,0,14.45,4.29l-3.24,12.06c-1.94-.52-3.5.93-4,2.87Z" transform="translate(-1.3 -4.53)"/><path class="cls-13" d="M230,112.35a1.81,1.81,0,0,0-.34.24,5,5,0,0,0-.38.4,4.63,4.63,0,0,0-.37.54,3.6,3.6,0,0,0-.29.63l2.43.66.11-.21a11,11,0,0,1,.64-1.06,3.81,3.81,0,0,1,.69-.74,1.86,1.86,0,0,1,.81-.36,2.22,2.22,0,0,1,1,.06,2.36,2.36,0,0,1,1,.51,2.13,2.13,0,0,1,.57.81,2.86,2.86,0,0,1,.19,1,4.4,4.4,0,0,1-.14,1.17l1.23.33L237,117l-1.26-.34a6.18,6.18,0,0,1-.76,1.52,5.37,5.37,0,0,1-1.14,1.19l-1-.9a2.08,2.08,0,0,0,.41-.3,4.47,4.47,0,0,0,.47-.49,5.71,5.71,0,0,0,.46-.65,3.94,3.94,0,0,0,.38-.77l-2.43-.65-.08.14-.08.13a9.61,9.61,0,0,1-.63,1,2.66,2.66,0,0,1-.65.65,1.88,1.88,0,0,1-.73.31,2.11,2.11,0,0,1-.88-.07,2.58,2.58,0,0,1-1-.47,2.42,2.42,0,0,1-.62-.77,2.69,2.69,0,0,1-.27-1,3.64,3.64,0,0,1,.06-1.13l-1.19-.32.17-.61,1.18.32a4.9,4.9,0,0,1,.68-1.33,5.39,5.39,0,0,1,.93-1Zm-.73,4a.86.86,0,0,0,.83-.15,3.52,3.52,0,0,0,.71-.93l-2.31-.62a1.84,1.84,0,0,0,.05,1.14A1.07,1.07,0,0,0,229.28,116.3Zm4.8-2.35a.9.9,0,0,0-.89.21,4.2,4.2,0,0,0-.78,1l2.32.62a2.16,2.16,0,0,0,0-1.23A.93.93,0,0,0,234.08,114Z" transform="translate(-1.3 -4.53)"/><path class="cls-13" d="M234.77,103.58a2,2,0,1,0-1.38-2.4A2,2,0,0,0,234.77,103.58Z" transform="translate(-1.3 -4.53)"/><path class="cls-13" d="M228.5,127a2,2,0,1,1-2.4,1.39A2,2,0,0,1,228.5,127Z" transform="translate(-1.3 -4.53)"/><rect class="cls-11" x="231.3" y="109.56" width="51.25" height="24.99" transform="translate(440.11 -99) rotate(105.02)"/><path class="cls-12" d="M241.24,141.76l19.4,5.21,12-44.62-19.4-5.21Zm27.3-33.89-3.36,12.52a9.66,9.66,0,0,0-14.66-3.52L254,104c1.94.52,4.88-.63,5.4-2.57l7.12,1.9C266,105.24,266.6,107.35,268.54,107.87Zm-19.82,33.3c.52-1.94-1.47-4.35-3.41-4.87l3.34-12.44a9.65,9.65,0,0,0,14.45,4.29l-3.24,12.06c-1.94-.52-3.51.93-4,2.87Z" transform="translate(-1.3 -4.53)"/><path class="cls-13" d="M255.31,119.13a1.52,1.52,0,0,0-.34.25,3.73,3.73,0,0,0-.39.4,4.63,4.63,0,0,0-.37.54,4.51,4.51,0,0,0-.29.63l2.43.65.11-.21a12.06,12.06,0,0,1,.65-1,3.09,3.09,0,0,1,.69-.74,1.87,1.87,0,0,1,.81-.37,2.19,2.19,0,0,1,1,.07,2.52,2.52,0,0,1,1,.5,2.11,2.11,0,0,1,.56.82,2.86,2.86,0,0,1,.2,1,4.77,4.77,0,0,1-.14,1.16l1.23.33-.16.61-1.26-.33a6.21,6.21,0,0,1-.77,1.52,5.59,5.59,0,0,1-1.14,1.19l-1-.91a1.74,1.74,0,0,0,.41-.29,4.47,4.47,0,0,0,.47-.49,5.74,5.74,0,0,0,.47-.65,6.12,6.12,0,0,0,.38-.77l-2.43-.65-.08.13s-.05.1-.08.14a8.14,8.14,0,0,1-.64,1,2.5,2.5,0,0,1-.65.65,1.63,1.63,0,0,1-.72.3,2,2,0,0,1-.89-.06,2.55,2.55,0,0,1-1-.48,2.32,2.32,0,0,1-.62-.77,2.85,2.85,0,0,1-.28-1,4.46,4.46,0,0,1,.06-1.14l-1.18-.31.16-.61,1.19.31a4.34,4.34,0,0,1,.68-1.32,5.08,5.08,0,0,1,.93-1Zm-.74,4a.86.86,0,0,0,.83-.15,3.48,3.48,0,0,0,.72-.93l-2.31-.62a1.7,1.7,0,0,0,.05,1.14A1.07,1.07,0,0,0,254.57,123.09Zm4.81-2.35a.92.92,0,0,0-.89.2,4.79,4.79,0,0,0-.79,1l2.33.62a2.24,2.24,0,0,0,0-1.23A.9.9,0,0,0,259.38,120.74Z" transform="translate(-1.3 -4.53)"/><path class="cls-13" d="M260.07,110.37a2,2,0,1,0-1.39-2.41A2,2,0,0,0,260.07,110.37Z" transform="translate(-1.3 -4.53)"/><path class="cls-13" d="M253.79,133.74a2,2,0,1,1-2.4,1.39A2,2,0,0,1,253.79,133.74Z" transform="translate(-1.3 -4.53)"/><rect class="cls-11" x="90.91" y="126.12" width="51.25" height="24.99" transform="matrix(-0.26, 0.97, -0.97, -0.26, 279.32, 57.45)"/><path class="cls-12" d="M100.85,158.32l19.4,5.21,12-44.63-19.4-5.2Zm27.29-33.89L124.78,137a9.65,9.65,0,0,0-14.65-3.52l3.46-12.91c1.94.52,4.88-.63,5.41-2.57l7.11,1.91C125.59,121.8,126.2,123.91,128.14,124.43Zm-19.82,33.3c.52-1.94-1.47-4.35-3.41-4.87l3.34-12.45a9.66,9.66,0,0,0,14.45,4.29l-3.24,12.07c-1.94-.52-3.5.93-4,2.87Z" transform="translate(-1.3 -4.53)"/><path class="cls-13" d="M114.91,135.69a1.52,1.52,0,0,0-.34.25,3.72,3.72,0,0,0-.38.4,3.66,3.66,0,0,0-.37.54,3.6,3.6,0,0,0-.29.63l2.43.65.1-.21c.22-.39.44-.74.65-1a3.54,3.54,0,0,1,.69-.74,1.87,1.87,0,0,1,.81-.37,2.22,2.22,0,0,1,1,.06,2.62,2.62,0,0,1,1,.51,2.25,2.25,0,0,1,.57.82,2.82,2.82,0,0,1,.19,1,4.33,4.33,0,0,1-.14,1.16l1.23.33-.16.61-1.26-.33a6.11,6.11,0,0,1-.76,1.51,5,5,0,0,1-1.15,1.19l-1-.9a2.07,2.07,0,0,0,.4-.29,4.48,4.48,0,0,0,.48-.49,5.71,5.71,0,0,0,.46-.65,4.24,4.24,0,0,0,.38-.77l-2.43-.65-.08.13a1,1,0,0,1-.08.14q-.33.57-.63,1a2.85,2.85,0,0,1-.65.65,1.72,1.72,0,0,1-.73.3,2.09,2.09,0,0,1-.88-.06,2.75,2.75,0,0,1-1-.48,2.32,2.32,0,0,1-.62-.77,2.69,2.69,0,0,1-.27-1,3.71,3.71,0,0,1,.06-1.14l-1.19-.32.17-.61,1.18.32a4.84,4.84,0,0,1,.68-1.32,5.47,5.47,0,0,1,.93-1Zm-.73,4a.92.92,0,0,0,.83-.15,3.6,3.6,0,0,0,.71-.94l-2.31-.62a1.79,1.79,0,0,0,0,1.15A1.07,1.07,0,0,0,114.18,139.65Zm4.8-2.35a.9.9,0,0,0-.89.2,4.63,4.63,0,0,0-.78,1l2.32.63a2.16,2.16,0,0,0,0-1.23A.91.91,0,0,0,119,137.3Z" transform="translate(-1.3 -4.53)"/><path class="cls-13" d="M119.67,126.93a2,2,0,1,0-1.39-2.41A2,2,0,0,0,119.67,126.93Z" transform="translate(-1.3 -4.53)"/><path class="cls-13" d="M113.4,150.3a2,2,0,1,1-2.4,1.38A2,2,0,0,1,113.4,150.3Z" transform="translate(-1.3 -4.53)"/><rect class="cls-11" x="116.32" y="132.94" width="51.25" height="24.99" transform="translate(317.9 41.5) rotate(105.02)"/><path class="cls-12" d="M126.26,165.14l19.4,5.21,12-44.63-19.4-5.2Zm27.29-33.89-3.36,12.52a9.65,9.65,0,0,0-14.65-3.52L139,127.34c1.94.52,4.88-.63,5.4-2.57l7.12,1.91C151,128.62,151.61,130.73,153.55,131.25Zm-19.82,33.3c.52-1.94-1.47-4.35-3.41-4.87l3.34-12.45a9.66,9.66,0,0,0,14.45,4.29l-3.24,12.06c-1.94-.52-3.5.94-4,2.88Z" transform="translate(-1.3 -4.53)"/><path class="cls-13" d="M140.32,142.51a1.81,1.81,0,0,0-.34.24,5.24,5.24,0,0,0-.38.41,3.66,3.66,0,0,0-.37.54,3.29,3.29,0,0,0-.29.63l2.43.65.1-.21a11.49,11.49,0,0,1,.65-1.05,3.31,3.31,0,0,1,.69-.74,1.87,1.87,0,0,1,.81-.37,2.22,2.22,0,0,1,1,.06,2.36,2.36,0,0,1,1,.51,2.3,2.3,0,0,1,.57.81,2.91,2.91,0,0,1,.19,1,4.33,4.33,0,0,1-.14,1.16l1.23.33-.16.61-1.26-.34a6,6,0,0,1-.76,1.52,5,5,0,0,1-1.15,1.19l-1-.9a2.07,2.07,0,0,0,.4-.29,4.48,4.48,0,0,0,.48-.49,5.71,5.71,0,0,0,.46-.65,4.24,4.24,0,0,0,.38-.77l-2.43-.65-.08.13a1,1,0,0,1-.08.14,10.07,10.07,0,0,1-.64,1,2.64,2.64,0,0,1-.64.65,1.72,1.72,0,0,1-.73.3,2.11,2.11,0,0,1-.88-.07,2.58,2.58,0,0,1-1-.47,2.32,2.32,0,0,1-.62-.77,2.69,2.69,0,0,1-.27-1,3.71,3.71,0,0,1,.06-1.14l-1.19-.32.17-.61,1.18.32a5,5,0,0,1,.68-1.33,5.75,5.75,0,0,1,.93-1Zm-.73,4a.89.89,0,0,0,.83-.14,3.6,3.6,0,0,0,.71-.94l-2.31-.62a1.79,1.79,0,0,0,.05,1.15A1.05,1.05,0,0,0,139.59,146.46Zm4.8-2.34a.9.9,0,0,0-.89.2,4.63,4.63,0,0,0-.78,1L145,146a2.19,2.19,0,0,0,0-1.24A.92.92,0,0,0,144.39,144.12Z" transform="translate(-1.3 -4.53)"/><path class="cls-13" d="M145.08,133.75a2,2,0,1,0-1.39-2.41A2,2,0,0,0,145.08,133.75Z" transform="translate(-1.3 -4.53)"/><path class="cls-13" d="M138.81,157.12a2,2,0,1,1-2.4,1.38A2,2,0,0,1,138.81,157.12Z" transform="translate(-1.3 -4.53)"/><rect class="cls-11" x="141.73" y="139.76" width="51.25" height="24.99" transform="translate(356.48 25.54) rotate(105.02)"/><path class="cls-12" d="M151.67,172l19.4,5.21,12-44.63-19.4-5.21ZM179,138.07l-3.36,12.52A9.65,9.65,0,0,0,161,147.07l3.46-12.91c1.94.52,4.88-.63,5.4-2.57l7.12,1.91C176.41,135.44,177,137.55,179,138.07Zm-19.82,33.3c.52-1.94-1.47-4.35-3.41-4.87l3.34-12.45a9.66,9.66,0,0,0,14.45,4.29l-3.24,12.06c-1.94-.52-3.5.93-4,2.87Z" transform="translate(-1.3 -4.53)"/><path class="cls-13" d="M165.73,149.33a1.81,1.81,0,0,0-.34.24,5.24,5.24,0,0,0-.38.41,4.15,4.15,0,0,0-.37.53,3.69,3.69,0,0,0-.29.64l2.43.65.1-.21a11.49,11.49,0,0,1,.65-1.05,3.31,3.31,0,0,1,.69-.74,1.87,1.87,0,0,1,.81-.37,2.22,2.22,0,0,1,1,.06,2.36,2.36,0,0,1,1,.51,2.3,2.3,0,0,1,.57.81,2.91,2.91,0,0,1,.19,1,4.33,4.33,0,0,1-.14,1.16l1.23.33-.16.61-1.26-.34a6,6,0,0,1-.76,1.52,5,5,0,0,1-1.15,1.19l-1-.9a2.07,2.07,0,0,0,.4-.29,5.63,5.63,0,0,0,.48-.49,6.76,6.76,0,0,0,.46-.65,4.24,4.24,0,0,0,.38-.77l-2.43-.66-.08.14a1,1,0,0,1-.08.14,10.07,10.07,0,0,1-.64,1,2.83,2.83,0,0,1-.64.65,1.72,1.72,0,0,1-.73.3,2.11,2.11,0,0,1-.88-.07,2.51,2.51,0,0,1-1-.47,2.32,2.32,0,0,1-.62-.77,2.69,2.69,0,0,1-.27-1,3.66,3.66,0,0,1,.06-1.13l-1.19-.32.17-.61,1.18.32a5,5,0,0,1,.68-1.33,5.39,5.39,0,0,1,.93-1Zm-.73,3.95a.89.89,0,0,0,.83-.14,3.6,3.6,0,0,0,.71-.94l-2.31-.62a1.79,1.79,0,0,0,.05,1.15A1.05,1.05,0,0,0,165,153.28Zm4.8-2.34a.9.9,0,0,0-.89.2,4.63,4.63,0,0,0-.78,1l2.32.63a2.19,2.19,0,0,0,0-1.24A.92.92,0,0,0,169.8,150.94Z" transform="translate(-1.3 -4.53)"/><path class="cls-13" d="M170.49,140.56a2,2,0,1,0-1.39-2.4A2,2,0,0,0,170.49,140.56Z" transform="translate(-1.3 -4.53)"/><path class="cls-13" d="M164.22,163.94a2,2,0,1,1-2.4,1.38A2,2,0,0,1,164.22,163.94Z" transform="translate(-1.3 -4.53)"/><rect class="cls-11" x="167.14" y="146.58" width="51.25" height="24.99" transform="translate(395.06 9.59) rotate(105.02)"/><path class="cls-12" d="M177.08,178.78l19.4,5.2,12-44.62-19.4-5.21Zm27.29-33.89L201,157.41a9.65,9.65,0,0,0-14.65-3.52L189.82,141c1.94.52,4.88-.63,5.4-2.57l7.12,1.91C201.82,142.26,202.43,144.36,204.37,144.89Zm-19.82,33.29c.52-1.94-1.47-4.34-3.41-4.86l3.34-12.45a9.66,9.66,0,0,0,14.45,4.29l-3.24,12.06c-1.94-.52-3.5.93-4,2.87Z" transform="translate(-1.3 -4.53)"/><path class="cls-13" d="M191.14,156.15a1.81,1.81,0,0,0-.34.24,3.9,3.9,0,0,0-.38.41,3.55,3.55,0,0,0-.37.53,3.38,3.38,0,0,0-.29.64l2.43.65.1-.21a9.64,9.64,0,0,1,.65-1,3.31,3.31,0,0,1,.69-.74,1.87,1.87,0,0,1,.81-.37,2.22,2.22,0,0,1,1,.06,2.36,2.36,0,0,1,1,.51,2.3,2.3,0,0,1,.57.81,2.9,2.9,0,0,1,.19,1,4.35,4.35,0,0,1-.14,1.17l1.23.33-.16.61-1.26-.34a6.18,6.18,0,0,1-.76,1.52,5,5,0,0,1-1.15,1.19l-1-.9a2.07,2.07,0,0,0,.4-.29,4.44,4.44,0,0,0,.47-.49,5.42,5.42,0,0,0,.47-.65,4.7,4.7,0,0,0,.38-.78l-2.43-.65-.08.14a.57.57,0,0,1-.08.13,9.21,9.21,0,0,1-.64,1,3,3,0,0,1-.64.65,2,2,0,0,1-.73.3,2.11,2.11,0,0,1-.88-.07,2.51,2.51,0,0,1-1-.47,2.32,2.32,0,0,1-.62-.77,2.69,2.69,0,0,1-.27-1,3.66,3.66,0,0,1,.06-1.13l-1.19-.32.17-.61,1.18.32a5,5,0,0,1,.68-1.33,5.39,5.39,0,0,1,.93-1Zm-.73,3.95a.87.87,0,0,0,.83-.15A3.36,3.36,0,0,0,192,159l-2.31-.62a1.8,1.8,0,0,0,.05,1.15A1.05,1.05,0,0,0,190.41,160.1Zm4.8-2.34a.88.88,0,0,0-.89.2,4.4,4.4,0,0,0-.78,1l2.32.62a2.16,2.16,0,0,0,0-1.23A.9.9,0,0,0,195.21,157.76Z" transform="translate(-1.3 -4.53)"/><path class="cls-13" d="M195.9,147.38a2,2,0,1,0-1.39-2.4A2,2,0,0,0,195.9,147.38Z" transform="translate(-1.3 -4.53)"/><path class="cls-13" d="M189.63,170.75a2,2,0,1,1-2.41,1.39A2,2,0,0,1,189.63,170.75Z" transform="translate(-1.3 -4.53)"/><rect class="cls-11" x="192.43" y="153.36" width="51.25" height="24.99" transform="translate(433.47 -6.3) rotate(105.02)"/><path class="cls-12" d="M202.37,185.57l19.4,5.2,12-44.62-19.4-5.21Zm27.3-33.9-3.36,12.52a9.66,9.66,0,0,0-14.66-3.52l3.46-12.9c1.94.52,4.89-.63,5.41-2.57l7.11,1.91C227.11,149.05,227.73,151.15,229.67,151.67ZM209.85,185c.52-1.94-1.47-4.34-3.41-4.86l3.34-12.45A9.65,9.65,0,0,0,224.22,172L221,184c-1.94-.52-3.51.93-4,2.87Z" transform="translate(-1.3 -4.53)"/><path class="cls-13" d="M216.43,162.94a2.19,2.19,0,0,0-.33.24,3.1,3.1,0,0,0-.39.41,3.78,3.78,0,0,0-.37.53,4.51,4.51,0,0,0-.29.63l2.43.66.11-.21a9.27,9.27,0,0,1,.65-1.06,3.29,3.29,0,0,1,.69-.74,1.87,1.87,0,0,1,.8-.36,2.22,2.22,0,0,1,1,.06,2.41,2.41,0,0,1,1,.51,2.07,2.07,0,0,1,.56.81,2.86,2.86,0,0,1,.2,1,5.41,5.41,0,0,1-.14,1.17l1.23.33-.17.61-1.25-.34a6.21,6.21,0,0,1-.77,1.52,5.37,5.37,0,0,1-1.14,1.19l-1-.9a1.83,1.83,0,0,0,.41-.3,3.72,3.72,0,0,0,.47-.49,4.15,4.15,0,0,0,.46-.65,4.63,4.63,0,0,0,.39-.77l-2.43-.65a.64.64,0,0,0-.08.14l-.08.13a9.54,9.54,0,0,1-.64,1,2.72,2.72,0,0,1-.65.66,2,2,0,0,1-.73.3,2.12,2.12,0,0,1-.88-.07,2.54,2.54,0,0,1-1-.47,2.29,2.29,0,0,1-.62-.77,2.91,2.91,0,0,1-.28-1,4.38,4.38,0,0,1,.06-1.13l-1.18-.32.16-.61,1.19.32a4.39,4.39,0,0,1,.68-1.33,5.07,5.07,0,0,1,.93-1Zm-.73,3.95a.86.86,0,0,0,.83-.15,3.33,3.33,0,0,0,.72-.93l-2.31-.62a1.7,1.7,0,0,0,.05,1.14A1,1,0,0,0,215.7,166.89Zm4.81-2.35a.9.9,0,0,0-.89.21,4.2,4.2,0,0,0-.79,1l2.33.62a2.24,2.24,0,0,0,0-1.23A.92.92,0,0,0,220.51,164.54Z" transform="translate(-1.3 -4.53)"/><path class="cls-13" d="M221.2,154.17a2,2,0,1,0-1.39-2.4A2,2,0,0,0,221.2,154.17Z" transform="translate(-1.3 -4.53)"/><path class="cls-13" d="M214.92,177.54a2,2,0,1,1-2.4,1.39A2,2,0,0,1,214.92,177.54Z" transform="translate(-1.3 -4.53)"/><rect class="cls-11" x="217.73" y="160.15" width="51.25" height="24.99" transform="translate(471.88 -22.18) rotate(105.02)"/><path class="cls-12" d="M227.67,192.35l19.4,5.21,12-44.62-19.4-5.21ZM255,158.46,251.6,171A9.65,9.65,0,0,0,237,167.46l3.46-12.9c1.94.52,4.88-.63,5.4-2.57l7.12,1.9C252.41,155.83,253,157.94,255,158.46Zm-19.82,33.3c.52-1.94-1.47-4.35-3.41-4.87l3.34-12.44a9.66,9.66,0,0,0,14.45,4.29l-3.24,12.06c-1.94-.52-3.5.93-4,2.87Z" transform="translate(-1.3 -4.53)"/><path class="cls-13" d="M241.73,169.72a1.52,1.52,0,0,0-.34.25,5,5,0,0,0-.38.4,3.66,3.66,0,0,0-.37.54,3.6,3.6,0,0,0-.29.63l2.43.65.1-.21c.22-.39.44-.74.65-1a3.54,3.54,0,0,1,.69-.74,2,2,0,0,1,.81-.37,2.39,2.39,0,0,1,1,.07,2.47,2.47,0,0,1,1,.5,2.25,2.25,0,0,1,.57.82,2.86,2.86,0,0,1,.19,1,4.28,4.28,0,0,1-.14,1.16l1.23.33-.16.61-1.26-.33a6.18,6.18,0,0,1-.76,1.52,5.4,5.4,0,0,1-1.15,1.19l-1-.9a2.18,2.18,0,0,0,.4-.3,3.74,3.74,0,0,0,.48-.49,5.71,5.71,0,0,0,.46-.65,4.24,4.24,0,0,0,.38-.77l-2.43-.65-.08.13a.64.64,0,0,1-.08.14,8.14,8.14,0,0,1-.64,1,2.48,2.48,0,0,1-.64.65,1.72,1.72,0,0,1-.73.3,1.94,1.94,0,0,1-.88-.06,2.6,2.6,0,0,1-1-.48,2.22,2.22,0,0,1-.62-.77,2.64,2.64,0,0,1-.27-1,3.71,3.71,0,0,1,.06-1.14l-1.19-.31.17-.61,1.18.31a4.84,4.84,0,0,1,.68-1.32,5.08,5.08,0,0,1,.93-1Zm-.73,4a.87.87,0,0,0,.83-.15,3.7,3.7,0,0,0,.71-.93l-2.31-.62a1.77,1.77,0,0,0,.05,1.14A1.07,1.07,0,0,0,241,173.68Zm4.8-2.35a.92.92,0,0,0-.89.2,4.49,4.49,0,0,0-.78,1l2.32.62a2.16,2.16,0,0,0,0-1.23A.91.91,0,0,0,245.8,171.33Z" transform="translate(-1.3 -4.53)"/><path class="cls-13" d="M246.49,161a2,2,0,1,0-1.39-2.4A2,2,0,0,0,246.49,161Z" transform="translate(-1.3 -4.53)"/><path class="cls-13" d="M240.22,184.33a2,2,0,1,1-2.4,1.39A2,2,0,0,1,240.22,184.33Z" transform="translate(-1.3 -4.53)"/><rect class="cls-11" x="177.7" y="230.2" width="51.25" height="24.99" transform="translate(518.09 219.44) rotate(126.57)"/><path class="cls-12" d="M181.5,255.26l16.13,12,27.53-37.11-16.13-12Zm37.83-21.5-7.72,10.41a9.67,9.67,0,0,0-12.34-8.66l8-10.73c1.62,1.2,4.78,1.21,6-.4l5.91,4.39C217.92,230.38,217.72,232.56,219.33,233.76Zm-30.66,23.69c1.2-1.61.23-4.58-1.38-5.78L195,241.32a9.67,9.67,0,0,0,11.87,9.3l-7.44,10c-1.62-1.2-3.61-.42-4.8,1.19Z" transform="translate(-1.3 -4.53)"/><path class="cls-13" d="M202.89,239.38a1.55,1.55,0,0,0-.4.1,5.45,5.45,0,0,0-.51.23,3.47,3.47,0,0,0-.54.37,3.24,3.24,0,0,0-.5.48l2,1.5.17-.16c.35-.29.68-.53,1-.74a3.49,3.49,0,0,1,.92-.44,2,2,0,0,1,.88,0,2.19,2.19,0,0,1,.92.43,2.49,2.49,0,0,1,.74.84,2,2,0,0,1,.23,1,3,3,0,0,1-.19,1,5,5,0,0,1-.56,1l1,.76-.38.5-1-.77a6.17,6.17,0,0,1-1.27,1.13,5.36,5.36,0,0,1-1.5.69l-.57-1.2a1.91,1.91,0,0,0,.49-.12,4.64,4.64,0,0,0,.62-.28,5.9,5.9,0,0,0,.67-.44,4.84,4.84,0,0,0,.63-.57l-2-1.5-.13.1-.12.09a10.05,10.05,0,0,1-1,.69,2.77,2.77,0,0,1-.84.37,1.76,1.76,0,0,1-.79,0,2.07,2.07,0,0,1-.8-.38,2.69,2.69,0,0,1-.72-.8,2.24,2.24,0,0,1-.29-.94,2.73,2.73,0,0,1,.1-1,4.12,4.12,0,0,1,.47-1l-1-.74.38-.5,1,.73a4.72,4.72,0,0,1,1.12-1,5.74,5.74,0,0,1,1.22-.56Zm-2.13,3.4a.85.85,0,0,0,.82.17,3.43,3.43,0,0,0,1-.6l-1.92-1.43a1.76,1.76,0,0,0-.37,1.09A1,1,0,0,0,200.76,242.78Zm5.33-.41a.89.89,0,0,0-.91-.14,4.73,4.73,0,0,0-1.1.66l1.93,1.43a2.27,2.27,0,0,0,.48-1.13A.91.91,0,0,0,206.09,242.37Z" transform="translate(-1.3 -4.53)"/><path class="cls-13" d="M210.54,233a2,2,0,1,0-.41-2.74A2,2,0,0,0,210.54,233Z" transform="translate(-1.3 -4.53)"/><path class="cls-13" d="M196.12,252.41a2,2,0,1,1-2.74.4A2,2,0,0,1,196.12,252.41Z" transform="translate(-1.3 -4.53)"/><rect class="cls-11" x="132.67" y="245.21" width="51.25" height="24.99" transform="translate(372.79 465.07) rotate(166.04)"/><path class="cls-12" d="M133.46,253.52,138.3,273l44.84-11.15-4.84-19.49ZM176.33,261l-12.58,3.13a9.66,9.66,0,0,0-4-14.53l13-3.22c.48,1.95,2.92,4,4.87,3.48l1.77,7.15C177.39,257.47,175.85,259,176.33,261Zm-38.73-1.21c2-.48,3.09-3.39,2.61-5.34l12.5-3.1A9.65,9.65,0,0,0,156,266l-12.12,3c-.49-1.95-2.51-2.62-4.46-2.14Z" transform="translate(-1.3 -4.53)"/><path class="cls-13" d="M160.07,254.86a1.52,1.52,0,0,0-.38-.17,2.66,2.66,0,0,0-.54-.14,4.31,4.31,0,0,0-.65-.07,4,4,0,0,0-.69.05l.61,2.45h.23a9.72,9.72,0,0,1,1.24,0,3.43,3.43,0,0,1,1,.25,1.87,1.87,0,0,1,.71.53,2.09,2.09,0,0,1,.43.91,2.41,2.41,0,0,1,.05,1.12,2.25,2.25,0,0,1-.44.89,2.55,2.55,0,0,1-.81.67,4.22,4.22,0,0,1-1.09.44l.31,1.24-.61.15L159.1,262a6.43,6.43,0,0,1-1.69.07,5.2,5.2,0,0,1-1.6-.43l.32-1.28a1.88,1.88,0,0,0,.45.22c.2.06.42.12.66.17a4.89,4.89,0,0,0,.79.09,5,5,0,0,0,.86,0l-.6-2.44H158a10.27,10.27,0,0,1-1.18-.07,3,3,0,0,1-.88-.25,1.86,1.86,0,0,1-.61-.5,1.92,1.92,0,0,1-.37-.8,2.5,2.5,0,0,1-.06-1.08,2.35,2.35,0,0,1,.38-.91A2.94,2.94,0,0,1,156,254a4,4,0,0,1,1-.5l-.3-1.19.61-.15.3,1.19a4.7,4.7,0,0,1,1.49,0,5.05,5.05,0,0,1,1.3.34Zm-3.82,1.28a.88.88,0,0,0,.54.65A3.39,3.39,0,0,0,158,257l-.58-2.33a1.8,1.8,0,0,0-1,.6A1.08,1.08,0,0,0,156.25,256.14Zm4.38,3.06a.89.89,0,0,0-.6-.68,4.62,4.62,0,0,0-1.28-.19l.58,2.34a2.24,2.24,0,0,0,1.09-.58A.89.89,0,0,0,160.63,259.2Z" transform="translate(-1.3 -4.53)"/><path class="cls-13" d="M170,254.78a2,2,0,1,0,1.43-2.38A2,2,0,0,0,170,254.78Z" transform="translate(-1.3 -4.53)"/><path class="cls-13" d="M146.56,260.62a2,2,0,1,1-2.38-1.43A2,2,0,0,1,146.56,260.62Z" transform="translate(-1.3 -4.53)"/><rect class="cls-11" x="64.37" y="237.09" width="51.25" height="24.99" transform="translate(103.4 509.96) rotate(-163.35)"/><path class="cls-12" d="M70.74,233.34,65,252.59l44.27,13.24L115,246.58Zm33.1,28.25-12.42-3.71a9.65,9.65,0,0,0,3.94-14.55l12.8,3.83c-.58,1.92.49,4.9,2.41,5.47l-2.11,7.06C106.54,259.11,104.42,259.67,103.84,261.59ZM71.12,240.83c1.92.58,4.39-1.34,5-3.27l12.35,3.69a9.66,9.66,0,0,0-4.7,14.32l-12-3.57c.58-1.93-.83-3.54-2.75-4.11Z" transform="translate(-1.3 -4.53)"/><path class="cls-13" d="M93,248a2.92,2.92,0,0,0-.23-.34,3.76,3.76,0,0,0-.4-.4,4.37,4.37,0,0,0-.52-.38,4.6,4.6,0,0,0-.63-.31L90.46,249l.21.11a12.29,12.29,0,0,1,1,.68,3.47,3.47,0,0,1,.72.71,1.93,1.93,0,0,1,.35.82,2.15,2.15,0,0,1-.1,1,2.35,2.35,0,0,1-.53,1,2.19,2.19,0,0,1-.83.55,2.91,2.91,0,0,1-1,.16,4.4,4.4,0,0,1-1.16-.17l-.36,1.22-.61-.18.37-1.25a6.1,6.1,0,0,1-1.49-.8,5.41,5.41,0,0,1-1.16-1.18l.93-.94a2,2,0,0,0,.28.41,4.37,4.37,0,0,0,.48.49,6.9,6.9,0,0,0,.63.48,5,5,0,0,0,.76.4l.72-2.41-.13-.08L89.4,250c-.38-.24-.71-.46-1-.67a2.77,2.77,0,0,1-.63-.66,1.86,1.86,0,0,1-.28-.74,2.15,2.15,0,0,1,.09-.88,2.6,2.6,0,0,1,.5-.95,2.31,2.31,0,0,1,.79-.6,3,3,0,0,1,1-.25,4.53,4.53,0,0,1,1.14.09l.35-1.17.6.18-.35,1.18a4.6,4.6,0,0,1,1.31.72,5,5,0,0,1,.94,1ZM89,247.2a.86.86,0,0,0,.12.83,3.54,3.54,0,0,0,.91.75l.69-2.3a1.76,1.76,0,0,0-1.15,0A1,1,0,0,0,89,247.2Zm2.21,4.87a.91.91,0,0,0-.18-.9,4.81,4.81,0,0,0-1-.81l-.69,2.3a2.13,2.13,0,0,0,1.23.07A1,1,0,0,0,91.24,252.07Z" transform="translate(-1.3 -4.53)"/><path class="cls-13" d="M101.59,253.05a2,2,0,1,0,2.44-1.31A2,2,0,0,0,101.59,253.05Z" transform="translate(-1.3 -4.53)"/><path class="cls-13" d="M78.4,246.12a2,2,0,1,1-1.32-2.44A2,2,0,0,1,78.4,246.12Z" transform="translate(-1.3 -4.53)"/><rect class="cls-11" x="15.43" y="197.05" width="51.25" height="24.99" transform="translate(-116.56 350.46) rotate(-121.85)"/><path class="cls-12" d="M37.4,184.62l-17.07,10.6,24.39,39.24,17.06-10.6Zm6.07,43.09-6.84-11a9.16,9.16,0,0,0,8.08-1,9.13,9.13,0,0,0,4.51-7.29l7.05,11.35c-1.71,1.06-2.88,4-1.82,5.7l-6.25,3.89C47.13,227.64,45.18,226.65,43.47,227.71ZM32.72,190.48c1.06,1.7,4.18,1.9,5.88.84l6.8,10.94a9.67,9.67,0,0,0-13,7.61l-6.59-10.6c1.71-1.06,1.72-3.2.66-4.9Z" transform="translate(-1.3 -4.53)"/><path class="cls-13" d="M44.3,210.35a1.47,1.47,0,0,0,.05-.41c0-.17,0-.36,0-.56a5.71,5.71,0,0,0-.14-.64,4,4,0,0,0-.27-.64l-2.13,1.33.08.22a12.15,12.15,0,0,1,.33,1.19,3.55,3.55,0,0,1,.06,1,2,2,0,0,1-.28.84,2.16,2.16,0,0,1-.74.69,2.34,2.34,0,0,1-1,.39,2.17,2.17,0,0,1-1-.14,2.86,2.86,0,0,1-.89-.57,4.17,4.17,0,0,1-.75-.9l-1.09.68-.33-.54,1.1-.69a6.2,6.2,0,0,1-.58-1.59,5.39,5.39,0,0,1-.09-1.65l1.32-.09a2.13,2.13,0,0,0-.06.5,4.08,4.08,0,0,0,0,.68,6.37,6.37,0,0,0,.16.78,5.31,5.31,0,0,0,.3.81l2.14-1.33a.88.88,0,0,0-.05-.15s0-.1,0-.15a10.19,10.19,0,0,1-.29-1.15,2.84,2.84,0,0,1,0-.91,1.7,1.7,0,0,1,.28-.74A2,2,0,0,1,41,206a2.43,2.43,0,0,1,1-.38,2.35,2.35,0,0,1,1,.07,3,3,0,0,1,.91.48,4,4,0,0,1,.78.81l1.05-.64.33.53-1,.65a4.59,4.59,0,0,1,.5,1.41,5.14,5.14,0,0,1,.07,1.34Zm-2.39-3.24a.88.88,0,0,0-.46.71,3.58,3.58,0,0,0,.19,1.16l2-1.26a1.74,1.74,0,0,0-.87-.75A1.09,1.09,0,0,0,41.91,207.11Zm-1.57,5.11a.89.89,0,0,0,.46-.78,4.27,4.27,0,0,0-.21-1.28l-2,1.27a2.19,2.19,0,0,0,.88.87A.91.91,0,0,0,40.34,212.22Z" transform="translate(-1.3 -4.53)"/><path class="cls-13" d="M47.44,219.82a2,2,0,1,0,2.7.63A2,2,0,0,0,47.44,219.82Z" transform="translate(-1.3 -4.53)"/><path class="cls-13" d="M34.67,199.26a2,2,0,1,1,.63-2.7A2,2,0,0,1,34.67,199.26Z" transform="translate(-1.3 -4.53)"/><rect class="cls-11" x="-6.05" y="131.59" width="51.25" height="24.99" transform="translate(-126.82 148.83) rotate(-85.92)"/><path class="cls-12" d="M31.24,121.75l-20-1.43L7.92,166.41l20,1.43ZM10.88,160.21l.92-12.93a9.19,9.19,0,0,0,7.13,3.94A9.16,9.16,0,0,0,26.86,148l-.95,13.33c-2-.14-4.68,1.55-4.82,3.55l-7.35-.52C13.88,162.3,12.88,160.35,10.88,160.21ZM24,123.75c-.15,2,2.26,4,4.27,4.13l-.92,12.86A9.15,9.15,0,0,0,20,136.38a9.16,9.16,0,0,0-7.62,2.89l.89-12.46c2,.14,3.27-1.58,3.41-3.58Z" transform="translate(-1.3 -4.53)"/><path class="cls-13" d="M21.73,146.64a1.66,1.66,0,0,0,.28-.3,3.62,3.62,0,0,0,.31-.48c.09-.18.18-.38.26-.59a4,4,0,0,0,.16-.68l-2.51-.18-.06.23a9.93,9.93,0,0,1-.44,1.15,3.23,3.23,0,0,1-.53.86,2.08,2.08,0,0,1-.73.52,2.38,2.38,0,0,1-1,.13,2.45,2.45,0,0,1-1.08-.31,2.23,2.23,0,0,1-.71-.69,2.84,2.84,0,0,1-.39-1,5,5,0,0,1-.08-1.17l-1.27-.09,0-.63,1.3.09a6.25,6.25,0,0,1,.46-1.63,5.35,5.35,0,0,1,.9-1.39l1.12.7a1.79,1.79,0,0,0-.34.37,3.75,3.75,0,0,0-.37.57,4.79,4.79,0,0,0-.34.72,6,6,0,0,0-.23.83l2.51.18a1.16,1.16,0,0,0,.06-.15.58.58,0,0,1,.05-.14,9.3,9.3,0,0,1,.44-1.1,2.53,2.53,0,0,1,.51-.76,1.82,1.82,0,0,1,.66-.44,2.13,2.13,0,0,1,.87-.1,2.53,2.53,0,0,1,1,.28,2.47,2.47,0,0,1,.76.64,2.82,2.82,0,0,1,.45.92,3.65,3.65,0,0,1,.16,1.12l1.23.09,0,.63L24,144.77a4.73,4.73,0,0,1-.42,1.44,5.35,5.35,0,0,1-.73,1.13Zm0-4a.86.86,0,0,0-.79.3,3.64,3.64,0,0,0-.52,1.05l2.38.17a1.76,1.76,0,0,0-.26-1.11A1,1,0,0,0,21.7,142.62Zm-4.27,3.21a.88.88,0,0,0,.83-.37,4.07,4.07,0,0,0,.58-1.15l-2.4-.17a2.2,2.2,0,0,0,.21,1.22A.89.89,0,0,0,17.43,145.83Z" transform="translate(-1.3 -4.53)"/><path class="cls-13" d="M18.72,156.15a2,2,0,1,0,1.82,2.09A2,2,0,0,0,18.72,156.15Z" transform="translate(-1.3 -4.53)"/><path class="cls-13" d="M20.44,132a2,2,0,1,1,2.1-1.82A2,2,0,0,1,20.44,132Z" transform="translate(-1.3 -4.53)"/></g></svg>