<svg xmlns="http://www.w3.org/2000/svg" viewBox="0 0 185.79 170.09"><defs><style>.cls-1{fill:#f18743;}.cls-2{fill:#f4aa82;}.cls-3{fill:#f09665;}.cls-4{fill:none;stroke:#fff;stroke-linecap:round;stroke-linejoin:round;stroke-width:0.97px;}.cls-5{fill:#9ea6b0;}.cls-6{fill:#e5effb;}.cls-7{fill:#c4cfdb;}.cls-8{isolation:isolate;}.cls-9{fill:#dce7f5;}.cls-10{fill:#261c35;}.cls-11{fill:#009fe3;}.cls-12{fill:#36a9e1;}.cls-13{fill:#6f559c;}.cls-14{fill:#333;}.cls-15{fill:#a1b0d6;}.cls-16{fill:#706f6f;}.cls-17{fill:#a9b2bd;}</style></defs><title>G08_16_04</title><g id="Criminal"><polygon class="cls-1" points="185.79 112.56 185.79 117.31 96.32 170.09 96.32 165.34 185.79 112.56"/><polygon class="cls-2" points="96.32 165.34 96.32 170.09 0.22 114.36 0.22 109.61 96.32 165.34"/><polygon class="cls-3" points="96.1 165.35 0 109.62 0 109.36 90.31 57.45 185.79 112.58 96.25 165.44 96.1 165.35"/><path class="cls-1" d="M159.28,122.6a1,1,0,0,1,0,1.92L100,159a3.64,3.64,0,0,1-3.31,0L66.36,141.51a1,1,0,0,1,0-1.92l59.33-34.48a3.64,3.64,0,0,1,3.31,0Z" transform="translate(-6.21 -11.16)"/><path class="cls-2" d="M159.33,122.12c.92.53.93,1.38,0,1.91L100,158.51a3.64,3.64,0,0,1-3.31,0L66.42,141c-.92-.53-.93-1.39,0-1.92l59.33-34.47a3.64,3.64,0,0,1,3.31,0Z" transform="translate(-6.21 -11.16)"/><path class="cls-4" d="M98.69,81.43,98.5,96.7a2.39,2.39,0,0,0,1.25,2.1l20.45,10.49a.79.79,0,0,1,0,1.36l-9.17,5.51a.88.88,0,0,0,0,1.52l3.81,2.63" transform="translate(-6.21 -11.16)"/><path class="cls-5" d="M84.23,95.67s-3.94,10.75,0,13l1.9,1.1h0l7.46,4.31a1.16,1.16,0,0,1,0,2.2l-10.48,6.06a4.14,4.14,0,0,1-3.8,0L74,119.18l-.06,0-1.69-1.06L72,118,72,118l-1.81-1.14s-3.33-2.44-3.33-11.1Z" transform="translate(-6.21 -11.16)"/><path class="cls-6" d="M66.82,104.62c0,8.66,3.32,11.1,3.32,11.1L72,116.86l.06,0,.23.13c.51.33,1.08.68,1.69,1.06l.06,0,.61.36,4.7,2.78a4.16,4.16,0,0,0,3.81,0l10.47-6c1.06-.61,1.06-1.59,0-2.21l-4.7-2.72-2.75-1.58h0l-1.9-1.11c-3.84-2.21-.19-12.48,0-13h0Z" transform="translate(-6.21 -11.16)"/><path class="cls-7" d="M66.82,104.62c0,8.66,3.32,11.1,3.32,11.1L72,116.86l.06,0,.23.13c.51.33,1.08.68,1.69,1.06l.06,0,.61.36,14.28-8.17-2.75-1.58h0l-1.9-1.11c-3.84-2.21-.19-12.48,0-13h0Z" transform="translate(-6.21 -11.16)"/><g class="cls-8"><path class="cls-9" d="M113,11.4,115.76,13a2.4,2.4,0,0,0-2.44.23l-2.77-1.6A2.38,2.38,0,0,1,113,11.4Z" transform="translate(-6.21 -11.16)"/><path class="cls-7" d="M35.84,125l-2.77-1.61a2.39,2.39,0,0,1-1-2.2l2.77,1.61A2.39,2.39,0,0,0,35.84,125Z" transform="translate(-6.21 -11.16)"/><polygon class="cls-7" points="28.63 111.63 25.86 110.02 25.69 49.84 28.46 51.44 28.63 111.63"/><polygon class="cls-7" points="31.88 45.51 29.11 43.9 104.34 0.47 107.11 2.08 31.88 45.51"/><path class="cls-9" d="M34.67,62.61,31.9,61a7.54,7.54,0,0,1,3.42-5.93l2.77,1.61A7.52,7.52,0,0,0,34.67,62.61Z" transform="translate(-6.21 -11.16)"/><path class="cls-9" d="M113.32,13.24c1.89-1.09,3.44-.21,3.44,2l.18,60.19a7.57,7.57,0,0,1-3.43,5.93L38.28,124.76c-1.89,1.1-3.44.22-3.44-2l-.17-60.19a7.52,7.52,0,0,1,3.42-5.93Z" transform="translate(-6.21 -11.16)"/></g><path class="cls-10" d="M113.32,13.17c1.9-1.09,3.44-.21,3.45,2l.17,60.19a7.57,7.57,0,0,1-3.43,5.93L38.29,124.69c-1.9,1.1-3.44.22-3.45-2l-.17-60.19a7.54,7.54,0,0,1,3.42-5.93Z" transform="translate(-6.21 -11.16)"/><path class="cls-6" d="M116.92,70.59v4.8a7.54,7.54,0,0,1-3.42,5.93L38.28,124.75c-1.9,1.1-3.44.22-3.45-2V118Z" transform="translate(-6.21 -11.16)"/><polygon class="cls-11" points="107.83 5.55 107.98 57.35 32.32 101.03 32.17 49.24 107.83 5.55"/><polygon class="cls-12" points="107.83 5.57 107.98 57.36 93.8 65.55 48.58 39.78 107.83 5.57"/><polygon class="cls-13" points="103.42 67.37 103.42 70.4 101.21 71.67 101.21 68.65 103.42 67.37"/><path class="cls-5" d="M146.08,116.56c-.71-4.48-10-9.24-15-7.84a8,8,0,0,0-2,1c-1.66,1-1.51,2.83.44,4l8.38,4.84a7.33,7.33,0,0,0,6.59.28l.46-.27A1.83,1.83,0,0,0,146.08,116.56Z" transform="translate(-6.21 -11.16)"/><path class="cls-14" d="M146.13,115.88a2,2,0,0,1-1.14,1.58l-.45.26a7.3,7.3,0,0,1-6.59-.27l-8.39-4.84a2.78,2.78,0,0,1-1.61-2.09h0v.71a2.75,2.75,0,0,0,1.61,2.12l8.39,4.84a7.3,7.3,0,0,0,6.59.27l.45-.26a2,2,0,0,0,1.14-1.61v-.71Z" transform="translate(-6.21 -11.16)"/><path class="cls-15" d="M146.13,115.73c0,.08.2,1.07-1.59,2h0a7.32,7.32,0,0,1-6.6-.27l-8.39-4.84a2.91,2.91,0,0,1-1.6-1.93,2.78,2.78,0,0,0,1.61,2.09l8.39,4.84a7.33,7.33,0,0,0,6.59.28l.45-.27a2,2,0,0,0,1.14-1.61Z" transform="translate(-6.21 -11.16)"/><path class="cls-6" d="M146.1,115.48c-.72-4.48-10-9.24-15-7.84a8.06,8.06,0,0,0-2,1c-1.67,1-1.52,2.83.43,4l8.39,4.84a7.3,7.3,0,0,0,6.59.27l.45-.26A1.85,1.85,0,0,0,146.1,115.48Z" transform="translate(-6.21 -11.16)"/><path class="cls-5" d="M133.33,108.64a.58.58,0,0,0-.39,0c-.26,0-.41.22-.07.39s1.61.51,2.44.88,1.17.12,1.06-.11-.62-.46-.62-.46Z" transform="translate(-6.21 -11.16)"/><path class="cls-16" d="M133.06,108.75a2.11,2.11,0,0,1,2.45.28,2.23,2.23,0,0,1,.4.65A12.27,12.27,0,0,1,133.06,108.75Z" transform="translate(-6.21 -11.16)"/><path class="cls-5" d="M138.83,122.73c.53.31.54.81,0,1.12L100.1,146.36a2.12,2.12,0,0,1-1.93,0l-15.8-9.12a.59.59,0,0,1,0-1.12l38.73-22.51a2.12,2.12,0,0,1,1.93,0Z" transform="translate(-6.21 -11.16)"/><path class="cls-6" d="M138.83,122.08c.53.31.54.81,0,1.12L100.1,145.71a2.12,2.12,0,0,1-1.93,0l-15.8-9.12a.59.59,0,0,1,0-1.12L121.1,113a2.12,2.12,0,0,1,1.93,0Z" transform="translate(-6.21 -11.16)"/><path class="cls-17" d="M96.27,130.6c.13.07.13.19,0,.26l-2,1.18a.53.53,0,0,1-.46,0l-1-.61c-.13-.07-.13-.19,0-.26l2-1.18a.53.53,0,0,1,.46,0Z" transform="translate(-6.21 -11.16)"/><path class="cls-6" d="M94,132.23a.78.78,0,0,1-.3-.07l-1-.61a.27.27,0,0,1,0-.5l2-1.18a.7.7,0,0,1,.6,0l1,.61a.28.28,0,0,1,0,.5l-2,1.18A.7.7,0,0,1,94,132.23Zm-1.23-.93h0l1,.61a.36.36,0,0,0,.32,0l2-1.17s0,0,0,0h0l-1-.61a.38.38,0,0,0-.33,0l-2,1.17Z" transform="translate(-6.21 -11.16)"/><path class="cls-17" d="M93.49,132.21c.13.08.13.2,0,.27l-2,1.17a.47.47,0,0,1-.46,0l-1.05-.6a.14.14,0,0,1,0-.27l2-1.17a.53.53,0,0,1,.46,0Z" transform="translate(-6.21 -11.16)"/><path class="cls-6" d="M91.24,133.85a.61.61,0,0,1-.3-.08l-1-.6a.3.3,0,0,1-.16-.25.31.31,0,0,1,.16-.26l2-1.17a.64.64,0,0,1,.6,0l1,.61a.28.28,0,0,1,0,.5l-2,1.17A.61.61,0,0,1,91.24,133.85ZM90,132.92h0l1,.61a.4.4,0,0,0,.32,0l2-1.18h0l0,0-1-.6a.36.36,0,0,0-.32,0l-2,1.17Z" transform="translate(-6.21 -11.16)"/><path class="cls-17" d="M90.71,133.83c.12.07.12.19,0,.27l-2,1.17a.53.53,0,0,1-.46,0l-1-.6c-.13-.08-.13-.2,0-.27l2-1.17a.47.47,0,0,1,.46,0Z" transform="translate(-6.21 -11.16)"/><path class="cls-6" d="M88.46,135.46a.6.6,0,0,1-.3-.07l-1-.61a.28.28,0,0,1,0-.5l2-1.17a.64.64,0,0,1,.6,0l1,.6a.29.29,0,0,1,.17.25.31.31,0,0,1-.16.26l-2,1.17A.6.6,0,0,1,88.46,135.46Zm-1.23-.93,0,0,1,.6a.36.36,0,0,0,.32,0l2-1.17,0,0h0l-1-.61a.44.44,0,0,0-.32,0l-2,1.18Z" transform="translate(-6.21 -11.16)"/><path class="cls-17" d="M87.92,135.45c.13.07.13.19,0,.26l-2,1.18a.53.53,0,0,1-.46,0l-1-.61c-.13-.07-.13-.19,0-.26l2-1.18a.53.53,0,0,1,.46,0Z" transform="translate(-6.21 -11.16)"/><path class="cls-6" d="M85.68,137.08a.7.7,0,0,1-.3-.07l-1-.61a.28.28,0,0,1,0-.5l2-1.18a.7.7,0,0,1,.6,0l1,.61a.27.27,0,0,1,0,.5L86,137A.78.78,0,0,1,85.68,137.08Zm-1.23-.93h0l1,.61a.38.38,0,0,0,.33,0l2-1.17,0,0h0l-1-.61a.36.36,0,0,0-.32,0l-2,1.17S84.45,136.14,84.45,136.15Z" transform="translate(-6.21 -11.16)"/><path class="cls-17" d="M90.55,137c.13.08.13.2,0,.27l-2,1.17a.47.47,0,0,1-.46,0l-2-1.15c-.12-.07-.13-.19,0-.26l2-1.18a.53.53,0,0,1,.46,0Z" transform="translate(-6.21 -11.16)"/><path class="cls-6" d="M88.31,138.6a.58.58,0,0,1-.3-.08l-2-1.15a.28.28,0,0,1,0-.5l2-1.17a.64.64,0,0,1,.6,0l2,1.15a.27.27,0,0,1,0,.5l-2,1.17A.57.57,0,0,1,88.31,138.6Zm-2.18-1.48,0,0,2,1.15a.38.38,0,0,0,.33,0l2-1.18h0l0,0-2-1.15a.36.36,0,0,0-.32,0l-2,1.18Z" transform="translate(-6.21 -11.16)"/><path class="cls-17" d="M100.47,137.28c.13.08.13.19,0,.27l-2,1.17a.47.47,0,0,1-.46,0l-2-1.15a.14.14,0,0,1,0-.26l2-1.18a.53.53,0,0,1,.46,0Z" transform="translate(-6.21 -11.16)"/><path class="cls-6" d="M98.23,138.91a.58.58,0,0,1-.3-.07l-2-1.15a.29.29,0,0,1-.17-.25.3.3,0,0,1,.16-.25L98,136a.64.64,0,0,1,.6,0l2,1.15a.28.28,0,0,1,0,.51l-2,1.17A.63.63,0,0,1,98.23,138.91Zm-2.18-1.47h0l2,1.15a.38.38,0,0,0,.33,0l2-1.17h0l0,0-2-1.15a.36.36,0,0,0-.32,0l-2,1.17Z" transform="translate(-6.21 -11.16)"/><path class="cls-17" d="M97.19,136.12c.13.07.13.19,0,.27l-2,1.17a.53.53,0,0,1-.46,0l-2-1.15c-.12-.07-.12-.19,0-.27l2-1.17a.53.53,0,0,1,.46,0Z" transform="translate(-6.21 -11.16)"/><path class="cls-6" d="M95,137.75a.58.58,0,0,1-.3-.07l-2-1.15a.29.29,0,0,1-.17-.25.3.3,0,0,1,.16-.25l2-1.18a.64.64,0,0,1,.6,0l2,1.15a.27.27,0,0,1,0,.5l-2,1.18A.57.57,0,0,1,95,137.75Zm-2.18-1.47h0l2,1.15a.38.38,0,0,0,.33,0l2-1.17,0,0h0l-2-1.15a.36.36,0,0,0-.32,0l-2,1.17Z" transform="translate(-6.21 -11.16)"/><path class="cls-17" d="M93.23,135.41c.12.07.12.19,0,.27l-2,1.17a.53.53,0,0,1-.46,0l-2-1.15a.14.14,0,0,1,0-.27l2-1.17a.53.53,0,0,1,.46,0Z" transform="translate(-6.21 -11.16)"/><path class="cls-6" d="M91,137a.58.58,0,0,1-.3-.07l-2-1.15a.27.27,0,0,1,0-.5l2-1.18a.62.62,0,0,1,.59,0l2,1.15a.29.29,0,0,1,.17.25.31.31,0,0,1-.16.26l-2,1.17A.6.6,0,0,1,91,137Zm-2.18-1.47h0l2,1.15a.36.36,0,0,0,.32,0l2-1.17s0,0,0,0h0l-2-1.15a.38.38,0,0,0-.33,0l-2,1.17Z" transform="translate(-6.21 -11.16)"/><path class="cls-17" d="M109.82,134.92c.13.07.13.19,0,.26l-2,1.18a.53.53,0,0,1-.46,0l-2-1.15c-.13-.08-.13-.2,0-.27l2-1.17a.47.47,0,0,1,.46,0Z" transform="translate(-6.21 -11.16)"/><path class="cls-6" d="M107.57,136.55a.63.63,0,0,1-.3-.07l-2-1.15a.28.28,0,0,1,0-.51l2-1.17a.64.64,0,0,1,.6,0l2,1.15a.3.3,0,0,1,.16.25.28.28,0,0,1-.16.25l-2,1.18A.58.58,0,0,1,107.57,136.55Zm-2.17-1.48s0,0,0,0l2,1.15a.38.38,0,0,0,.33,0l2-1.17,0,0h0l-2-1.15a.36.36,0,0,0-.32,0l-2,1.17Z" transform="translate(-6.21 -11.16)"/><path class="cls-17" d="M112.5,133.36c.13.07.13.19,0,.27l-2,1.17a.53.53,0,0,1-.46,0l-2-1.15c-.13-.07-.13-.19,0-.27l2-1.17a.53.53,0,0,1,.46,0Z" transform="translate(-6.21 -11.16)"/><path class="cls-6" d="M110.25,135a.63.63,0,0,1-.3-.07l-2-1.15a.28.28,0,0,1,0-.5l2-1.18a.64.64,0,0,1,.6,0l2,1.15a.3.3,0,0,1,.16.25.31.31,0,0,1-.16.26l-2,1.17A.58.58,0,0,1,110.25,135Zm-2.17-1.47h0l2,1.15a.36.36,0,0,0,.32,0l2-1.17,0,0h0l-2-1.15a.36.36,0,0,0-.32,0l-2,1.17S108.08,133.51,108.08,133.52Z" transform="translate(-6.21 -11.16)"/><g class="cls-8"><path class="cls-17" d="M101.25,130.75c.12.07.12.19,0,.27l-2,1.17a.53.53,0,0,1-.46,0l-2-1.15a.14.14,0,0,1,0-.27l2-1.17a.53.53,0,0,1,.46,0Z" transform="translate(-6.21 -11.16)"/><path class="cls-6" d="M99,132.38a.58.58,0,0,1-.3-.07l-2-1.15a.27.27,0,0,1,0-.5l2-1.18a.64.64,0,0,1,.6,0l2,1.15a.29.29,0,0,1,.17.25.31.31,0,0,1-.16.26l-2,1.17A.63.63,0,0,1,99,132.38Zm-2.18-1.47h0l2,1.15a.36.36,0,0,0,.32,0l2-1.17,0,0h0l-2-1.15a.38.38,0,0,0-.33,0l-2,1.17Z" transform="translate(-6.21 -11.16)"/><path class="cls-17" d="M105.21,131.46c.13.07.13.19,0,.27l-2,1.17a.55.55,0,0,1-.47,0l-2-1.15a.14.14,0,0,1,0-.27l2-1.17a.53.53,0,0,1,.46,0Z" transform="translate(-6.21 -11.16)"/><path class="cls-6" d="M103,133.09a.58.58,0,0,1-.3-.07l-2-1.15a.29.29,0,0,1-.17-.25.33.33,0,0,1,.16-.26l2-1.17a.64.64,0,0,1,.6,0l2,1.15a.27.27,0,0,1,0,.5l-2,1.18A.57.57,0,0,1,103,133.09Zm-2.18-1.47h0l2,1.15a.38.38,0,0,0,.33,0l2-1.17,0,0h0l-2-1.15a.36.36,0,0,0-.32,0l-2,1.17Z" transform="translate(-6.21 -11.16)"/><path class="cls-17" d="M98.57,132.3c.13.08.13.2,0,.27l-2,1.17a.47.47,0,0,1-.46,0l-2-1.15c-.13-.07-.13-.19,0-.26l2-1.18a.53.53,0,0,1,.46,0Z" transform="translate(-6.21 -11.16)"/><path class="cls-6" d="M96.32,133.94a.57.57,0,0,1-.29-.08l-2-1.15a.28.28,0,0,1,0-.5l2-1.17a.64.64,0,0,1,.6,0l2,1.15a.3.3,0,0,1,.16.25.28.28,0,0,1-.16.25l-2,1.17A.58.58,0,0,1,96.32,133.94Zm-2.17-1.48,0,0,2,1.15a.38.38,0,0,0,.33,0l2-1.18h0l0,0-2-1.15a.36.36,0,0,0-.32,0l-2,1.18Z" transform="translate(-6.21 -11.16)"/><path class="cls-17" d="M108.51,132.61a.14.14,0,0,1,0,.27l-2,1.17a.53.53,0,0,1-.46,0l-2-1.15a.14.14,0,0,1,0-.27l2-1.17a.53.53,0,0,1,.46,0Z" transform="translate(-6.21 -11.16)"/><path class="cls-6" d="M106.27,134.24a.58.58,0,0,1-.3-.07L104,133a.29.29,0,0,1-.17-.25.3.3,0,0,1,.17-.26l2-1.17a.64.64,0,0,1,.6,0l2,1.15a.29.29,0,0,1,.17.25.3.3,0,0,1-.16.25l-2,1.18A.63.63,0,0,1,106.27,134.24Zm-2.18-1.47h0l2,1.15a.38.38,0,0,0,.33,0l2-1.17,0,0h0l-2-1.15a.38.38,0,0,0-.33,0l-2,1.17Z" transform="translate(-6.21 -11.16)"/><path class="cls-17" d="M102.54,133c.13.08.13.2,0,.27l-2,1.17a.47.47,0,0,1-.46,0l-2-1.15c-.13-.07-.13-.19,0-.26l2-1.18a.53.53,0,0,1,.46,0Z" transform="translate(-6.21 -11.16)"/><path class="cls-6" d="M100.29,134.65a.64.64,0,0,1-.3-.08l-2-1.15a.28.28,0,0,1,0-.5l2-1.18a.7.7,0,0,1,.6,0l2,1.15a.31.31,0,0,1,.16.26.3.3,0,0,1-.16.25l-2,1.17A.58.58,0,0,1,100.29,134.65Zm-2.17-1.48,0,0,2,1.14a.36.36,0,0,0,.32,0l2-1.17h0s0,0,0,0l-2-1.15a.36.36,0,0,0-.32,0l-2,1.17Z" transform="translate(-6.21 -11.16)"/><path class="cls-17" d="M95.9,133.86c.13.07.13.19,0,.26l-2,1.18a.53.53,0,0,1-.46,0l-2-1.15c-.13-.08-.13-.2,0-.27l2-1.17a.47.47,0,0,1,.46,0Z" transform="translate(-6.21 -11.16)"/><path class="cls-6" d="M93.65,135.49a.6.6,0,0,1-.3-.07l-2-1.15a.31.31,0,0,1-.16-.26.3.3,0,0,1,.16-.25l2-1.17a.64.64,0,0,1,.6,0l2,1.15a.28.28,0,0,1,0,.5l-2,1.18A.7.7,0,0,1,93.65,135.49ZM91.48,134s0,0,0,0l2,1.15a.36.36,0,0,0,.32,0l2-1.17,0,0h0l-2-1.15a.36.36,0,0,0-.32,0l-2,1.17Z" transform="translate(-6.21 -11.16)"/><path class="cls-17" d="M105.83,134.17c.13.07.13.19,0,.26l-2,1.18a.53.53,0,0,1-.46,0l-2-1.15c-.12-.08-.12-.2,0-.27l2-1.17a.47.47,0,0,1,.46,0Z" transform="translate(-6.21 -11.16)"/><path class="cls-6" d="M103.59,135.8a.58.58,0,0,1-.3-.08l-2-1.15a.29.29,0,0,1-.17-.25.3.3,0,0,1,.16-.25l2-1.17a.64.64,0,0,1,.6,0l2,1.15a.27.27,0,0,1,0,.5l-2,1.17A.64.64,0,0,1,103.59,135.8Zm-2.18-1.48,0,0,2,1.15a.38.38,0,0,0,.33,0l2-1.18h0l0,0-2-1.15a.44.44,0,0,0-.32,0l-2,1.18Z" transform="translate(-6.21 -11.16)"/><path class="cls-17" d="M99.87,134.57a.14.14,0,0,1,0,.26l-2,1.18a.53.53,0,0,1-.46,0l-2-1.15c-.13-.08-.13-.2,0-.27l2-1.17a.49.49,0,0,1,.47,0Z" transform="translate(-6.21 -11.16)"/><path class="cls-6" d="M97.62,136.2a.61.61,0,0,1-.3-.08l-2-1.14a.31.31,0,0,1-.17-.26.29.29,0,0,1,.17-.25l2-1.17a.62.62,0,0,1,.59,0l2,1.15a.29.29,0,0,1,.17.25.3.3,0,0,1-.16.25l-2,1.17A.61.61,0,0,1,97.62,136.2Zm-2.18-1.48,0,0,2,1.15a.36.36,0,0,0,.32,0l2-1.18h0l0,0-2-1.15a.47.47,0,0,0-.33,0l-2,1.18Z" transform="translate(-6.21 -11.16)"/><path class="cls-17" d="M103.15,135.72c.13.08.13.2,0,.27l-2,1.17a.47.47,0,0,1-.46,0l-2-1.15a.14.14,0,0,1,0-.26l2-1.18a.53.53,0,0,1,.46,0Z" transform="translate(-6.21 -11.16)"/><path class="cls-6" d="M100.91,137.36a.58.58,0,0,1-.3-.08l-2-1.15a.29.29,0,0,1-.17-.25.3.3,0,0,1,.16-.25l2-1.17a.64.64,0,0,1,.6,0l2,1.15a.27.27,0,0,1,0,.5l-2,1.17A.64.64,0,0,1,100.91,137.36Zm-2.18-1.48,0,0,2,1.15a.47.47,0,0,0,.33,0l2-1.18h0l0,0-2-1.15a.36.36,0,0,0-.32,0l-2,1.18Z" transform="translate(-6.21 -11.16)"/></g><path class="cls-17" d="M113.23,126.8c.13.07.13.19,0,.27l-2,1.17a.53.53,0,0,1-.46,0l-2-1.15a.14.14,0,0,1,0-.27l2-1.17a.53.53,0,0,1,.46,0Z" transform="translate(-6.21 -11.16)"/><path class="cls-6" d="M111,128.43a.57.57,0,0,1-.29-.07l-2-1.15a.3.3,0,0,1-.16-.25.31.31,0,0,1,.16-.26l2-1.17a.64.64,0,0,1,.6,0l2,1.15a.27.27,0,0,1,0,.5l-2,1.18A.58.58,0,0,1,111,128.43ZM108.81,127h0l2,1.15a.38.38,0,0,0,.33,0l2-1.17s0,0,0,0h0l-2-1.15a.36.36,0,0,0-.32,0l-2,1.17Z" transform="translate(-6.21 -11.16)"/><path class="cls-17" d="M123.22,127.13c.12.08.12.2,0,.27l-2,1.17a.47.47,0,0,1-.46,0l-2-1.15c-.13-.07-.13-.19,0-.26l2-1.18a.53.53,0,0,1,.46,0Z" transform="translate(-6.21 -11.16)"/><path class="cls-6" d="M121,128.77a.58.58,0,0,1-.3-.08l-2-1.15a.27.27,0,0,1,0-.5l2-1.17a.62.62,0,0,1,.59,0l2,1.15a.29.29,0,0,1,.17.25.3.3,0,0,1-.16.25l-2,1.17A.61.61,0,0,1,121,128.77Zm-2.18-1.48,0,0,2,1.15a.44.44,0,0,0,.32,0l2-1.18h0l0,0-2-1.15a.38.38,0,0,0-.33,0l-2,1.18Z" transform="translate(-6.21 -11.16)"/><path class="cls-17" d="M119.24,126.38c.12.07.12.19,0,.27l-2,1.17a.53.53,0,0,1-.46,0l-2-1.15a.14.14,0,0,1,0-.27l2-1.17a.47.47,0,0,1,.46,0Z" transform="translate(-6.21 -11.16)"/><path class="cls-6" d="M117,128a.58.58,0,0,1-.3-.07l-2-1.15a.29.29,0,0,1-.17-.25.3.3,0,0,1,.17-.26l2-1.17a.62.62,0,0,1,.59,0l2,1.15a.29.29,0,0,1,.17.25.3.3,0,0,1-.16.25l-2,1.18A.63.63,0,0,1,117,128Zm-2.18-1.48,0,0,2,1.15a.36.36,0,0,0,.32,0l2-1.17,0,0h0l-2-1.15a.38.38,0,0,0-.33,0l-2,1.17Z" transform="translate(-6.21 -11.16)"/><path class="cls-17" d="M114.61,123c.13.08.13.2,0,.27l-2,1.17a.47.47,0,0,1-.46,0l-2-1.15c-.13-.07-.13-.19,0-.26l2-1.18a.53.53,0,0,1,.46,0Z" transform="translate(-6.21 -11.16)"/><path class="cls-6" d="M112.36,124.62a.64.64,0,0,1-.3-.08l-2-1.15a.28.28,0,0,1,0-.5l2-1.17a.67.67,0,0,1,.6,0l2,1.15a.31.31,0,0,1,.16.26.3.3,0,0,1-.16.25l-2,1.17A.58.58,0,0,1,112.36,124.62Zm-2.17-1.48,0,0,2,1.14a.42.42,0,0,0,.33,0l2-1.18h0l0,0-2-1.15a.36.36,0,0,0-.32,0l-2,1.17Z" transform="translate(-6.21 -11.16)"/><path class="cls-17" d="M117.28,121.43a.14.14,0,0,1,0,.27l-2,1.17a.53.53,0,0,1-.46,0l-2-1.15c-.12-.07-.12-.19,0-.27l2-1.17a.53.53,0,0,1,.46,0Z" transform="translate(-6.21 -11.16)"/><path class="cls-6" d="M115,123.06a.58.58,0,0,1-.3-.07l-2-1.15a.29.29,0,0,1-.17-.25.3.3,0,0,1,.16-.25l2-1.18a.64.64,0,0,1,.6,0l2,1.15a.27.27,0,0,1,0,.5l-2,1.18A.63.63,0,0,1,115,123.06Zm-2.18-1.47h0l2,1.15a.38.38,0,0,0,.33,0l2-1.17,0,0h0l-2-1.15a.36.36,0,0,0-.32,0l-2,1.17Z" transform="translate(-6.21 -11.16)"/><path class="cls-17" d="M118.58,123.69c.13.08.13.19,0,.27l-2,1.17a.47.47,0,0,1-.46,0l-2-1.15c-.13-.07-.13-.19,0-.26l2-1.18a.53.53,0,0,1,.46,0Z" transform="translate(-6.21 -11.16)"/><path class="cls-6" d="M116.33,125.32a.6.6,0,0,1-.3-.07l-2-1.15a.28.28,0,0,1,0-.5l2-1.18a.7.7,0,0,1,.6,0l2,1.15a.28.28,0,0,1,0,.51l-2,1.17A.6.6,0,0,1,116.33,125.32Zm-2.17-1.47h0l2,1.15a.36.36,0,0,0,.32,0l2-1.17h0s0,0,0,0l-2-1.15a.36.36,0,0,0-.32,0l-2,1.17Z" transform="translate(-6.21 -11.16)"/><path class="cls-17" d="M115.91,125.25a.14.14,0,0,1,0,.26l-2,1.18a.53.53,0,0,1-.46,0l-2-1.15c-.13-.08-.13-.2,0-.27l2-1.17a.47.47,0,0,1,.46,0Z" transform="translate(-6.21 -11.16)"/><path class="cls-6" d="M113.66,126.88a.58.58,0,0,1-.3-.08l-2-1.15a.27.27,0,0,1,0-.5l2-1.17a.62.62,0,0,1,.59,0l2,1.15a.29.29,0,0,1,.17.25.3.3,0,0,1-.16.25l-2,1.17A.64.64,0,0,1,113.66,126.88Zm-2.18-1.48,0,0,2,1.15a.36.36,0,0,0,.32,0l2-1.18h0l0,0-2-1.15a.38.38,0,0,0-.33,0l-2,1.18Z" transform="translate(-6.21 -11.16)"/><g class="cls-8"><path class="cls-17" d="M116.56,127.94a.14.14,0,0,1,0,.26l-2,1.18a.53.53,0,0,1-.46,0l-2-1.15c-.13-.08-.13-.2,0-.27l2-1.17a.47.47,0,0,1,.46,0Z" transform="translate(-6.21 -11.16)"/><path class="cls-6" d="M114.31,129.57a.58.58,0,0,1-.3-.08l-2-1.15a.27.27,0,0,1,0-.5l2-1.17a.62.62,0,0,1,.59,0l2,1.15a.29.29,0,0,1,.17.25.3.3,0,0,1-.16.25l-2,1.17A.64.64,0,0,1,114.31,129.57Zm-2.18-1.48,0,0,2,1.15a.36.36,0,0,0,.32,0l2-1.18h0l0,0-2-1.15a.47.47,0,0,0-.33,0l-2,1.18Z" transform="translate(-6.21 -11.16)"/><path class="cls-17" d="M120.54,128.69a.14.14,0,0,1,0,.27l-2,1.17a.53.53,0,0,1-.46,0l-2-1.15c-.13-.07-.13-.19,0-.27l2-1.17a.53.53,0,0,1,.46,0Z" transform="translate(-6.21 -11.16)"/><path class="cls-6" d="M118.29,130.32a.6.6,0,0,1-.3-.07l-2-1.15a.27.27,0,0,1,0-.5l2-1.18a.62.62,0,0,1,.59,0l2,1.15a.3.3,0,0,1,.16.25.31.31,0,0,1-.16.26l-2,1.17A.6.6,0,0,1,118.29,130.32Zm-2.18-1.47h0l2,1.15a.36.36,0,0,0,.32,0l2-1.17s0,0,0,0h0l-2-1.15a.38.38,0,0,0-.33,0l-2,1.17Z" transform="translate(-6.21 -11.16)"/><path class="cls-17" d="M113.87,129.49c.13.08.13.2,0,.27l-2,1.17a.47.47,0,0,1-.46,0l-2-1.15c-.13-.07-.13-.19,0-.26l2-1.18a.53.53,0,0,1,.46,0Z" transform="translate(-6.21 -11.16)"/><path class="cls-6" d="M111.63,131.13a.58.58,0,0,1-.3-.08l-2-1.15a.27.27,0,0,1,0-.5l2-1.17a.64.64,0,0,1,.6,0l2,1.15a.29.29,0,0,1,.17.25.3.3,0,0,1-.16.25l-2,1.17A.64.64,0,0,1,111.63,131.13Zm-2.18-1.48,0,0,2,1.15a.47.47,0,0,0,.33,0l2-1.18h0l0,0-2-1.15a.38.38,0,0,0-.33,0l-2,1.18Z" transform="translate(-6.21 -11.16)"/><path class="cls-17" d="M117.86,130.25c.13.07.13.19,0,.26l-2,1.18a.53.53,0,0,1-.46,0l-2-1.15c-.13-.08-.13-.2,0-.27l2-1.17a.47.47,0,0,1,.46,0Z" transform="translate(-6.21 -11.16)"/><path class="cls-6" d="M115.61,131.88a.73.73,0,0,1-.3-.07l-2-1.15a.31.31,0,0,1-.16-.26.28.28,0,0,1,.16-.25l2-1.17a.62.62,0,0,1,.59,0l2,1.15a.28.28,0,0,1,0,.5l-2,1.18A.73.73,0,0,1,115.61,131.88Zm-2.18-1.48,0,0,2,1.15a.36.36,0,0,0,.32,0l2-1.17,0,0h0l-2-1.15a.38.38,0,0,0-.33,0l-2,1.17Z" transform="translate(-6.21 -11.16)"/></g><g class="cls-8"><path class="cls-17" d="M101.83,127.36c.13.08.13.2,0,.27l-2,1.17a.47.47,0,0,1-.46,0l-1-.6c-.13-.07-.13-.19,0-.27l2-1.17a.53.53,0,0,1,.46,0Z" transform="translate(-6.21 -11.16)"/><path class="cls-6" d="M99.59,129a.58.58,0,0,1-.3-.08l-1.05-.6a.3.3,0,0,1-.16-.25.31.31,0,0,1,.16-.26l2-1.17a.64.64,0,0,1,.6,0l1,.61a.27.27,0,0,1,0,.5l-2,1.17A.57.57,0,0,1,99.59,129Zm-1.23-.93h0l1,.61a.47.47,0,0,0,.33,0l2-1.18h0l0,0-1-.6a.36.36,0,0,0-.32,0l-2,1.17Z" transform="translate(-6.21 -11.16)"/><path class="cls-17" d="M106.59,127.64c.13.08.13.2,0,.27l-2,1.17a.47.47,0,0,1-.46,0l-2-1.15c-.13-.07-.13-.19,0-.26l2-1.18a.53.53,0,0,1,.46,0Z" transform="translate(-6.21 -11.16)"/><path class="cls-6" d="M104.34,129.28a.57.57,0,0,1-.29-.08l-2-1.15a.28.28,0,0,1,0-.5l2-1.17a.64.64,0,0,1,.6,0l2,1.15a.3.3,0,0,1,.16.25.28.28,0,0,1-.16.25l-2,1.17A.58.58,0,0,1,104.34,129.28Zm-2.17-1.48,0,0,2,1.15a.47.47,0,0,0,.33,0l2-1.18h0l0,0-2-1.15a.36.36,0,0,0-.32,0l-2,1.18Z" transform="translate(-6.21 -11.16)"/><path class="cls-17" d="M110.56,128.35c.13.08.13.2,0,.27l-2,1.17a.47.47,0,0,1-.46,0l-2-1.15c-.13-.07-.13-.19,0-.26l2-1.18a.53.53,0,0,1,.46,0Z" transform="translate(-6.21 -11.16)"/><path class="cls-6" d="M108.31,130a.6.6,0,0,1-.3-.07l-2-1.15a.28.28,0,0,1,0-.5l2-1.18a.7.7,0,0,1,.6,0l2,1.15a.31.31,0,0,1,.16.26.3.3,0,0,1-.16.25l-2,1.17A.58.58,0,0,1,108.31,130Zm-2.17-1.47h0l2,1.15a.36.36,0,0,0,.32,0l2-1.17h0s0,0,0,0l-2-1.15a.36.36,0,0,0-.32,0l-2,1.17Z" transform="translate(-6.21 -11.16)"/><path class="cls-17" d="M103.92,129.2c.13.07.13.19,0,.26l-2,1.18a.53.53,0,0,1-.46,0l-2-1.15c-.13-.08-.13-.2,0-.27l2-1.17a.47.47,0,0,1,.46,0Z" transform="translate(-6.21 -11.16)"/><path class="cls-6" d="M101.67,130.83a.73.73,0,0,1-.3-.07l-2-1.15a.31.31,0,0,1-.16-.26.3.3,0,0,1,.16-.25l2-1.17a.64.64,0,0,1,.6,0l2,1.15a.28.28,0,0,1,0,.5l-2,1.18A.73.73,0,0,1,101.67,130.83Zm-2.17-1.48s0,0,0,0l2,1.15a.36.36,0,0,0,.32,0l2-1.17,0,0,0,0-2-1.14a.36.36,0,0,0-.32,0l-2,1.17Z" transform="translate(-6.21 -11.16)"/><path class="cls-17" d="M107.89,129.91a.14.14,0,0,1,0,.26l-2,1.18a.53.53,0,0,1-.46,0l-2-1.15c-.13-.08-.13-.2,0-.27l2-1.17a.47.47,0,0,1,.46,0Z" transform="translate(-6.21 -11.16)"/><path class="cls-6" d="M105.64,131.54a.61.61,0,0,1-.3-.08l-2-1.15a.27.27,0,0,1,0-.5l2-1.17a.62.62,0,0,1,.59,0l2,1.15a.29.29,0,0,1,.17.25.3.3,0,0,1-.16.25l-2,1.17A.61.61,0,0,1,105.64,131.54Zm-2.18-1.48,0,0,2,1.15a.36.36,0,0,0,.32,0l2-1.18h0l0,0-2-1.15a.42.42,0,0,0-.33,0l-2,1.18Z" transform="translate(-6.21 -11.16)"/><path class="cls-17" d="M111.19,131.05a.14.14,0,0,1,0,.27l-2,1.17a.47.47,0,0,1-.46,0l-2-1.15a.14.14,0,0,1,0-.27l2-1.17a.53.53,0,0,1,.46,0Z" transform="translate(-6.21 -11.16)"/><path class="cls-6" d="M109,132.68a.58.58,0,0,1-.3-.07l-2-1.15a.27.27,0,0,1,0-.5l2-1.18a.64.64,0,0,1,.6,0l2,1.15a.29.29,0,0,1,.17.25.31.31,0,0,1-.16.26l-2,1.17A.63.63,0,0,1,109,132.68Zm-2.18-1.47h0l2,1.15a.38.38,0,0,0,.33,0l2-1.17h0l0,0-2-1.15a.38.38,0,0,0-.33,0l-2,1.17Z" transform="translate(-6.21 -11.16)"/></g><path class="cls-17" d="M104.62,125.75a.14.14,0,0,1,0,.26l-2,1.18a.53.53,0,0,1-.46,0l-1-.61c-.13-.07-.13-.19,0-.26l2-1.18a.53.53,0,0,1,.46,0Z" transform="translate(-6.21 -11.16)"/><path class="cls-6" d="M102.37,127.38a.7.7,0,0,1-.3-.07l-1-.61a.28.28,0,0,1,0-.5l2-1.18a.7.7,0,0,1,.6,0l1,.61a.29.29,0,0,1,.17.25.3.3,0,0,1-.16.25l-2,1.18A.78.78,0,0,1,102.37,127.38Zm-1.23-.93h0l1,.61a.36.36,0,0,0,.32,0l2-1.17s0,0,0,0h0l-1-.61a.36.36,0,0,0-.32,0l-2,1.17Z" transform="translate(-6.21 -11.16)"/><path class="cls-17" d="M121.92,124.82c.12.07.12.19,0,.27l-2,1.17a.53.53,0,0,1-.46,0l-2-1.15a.14.14,0,0,1,0-.27l2-1.17a.53.53,0,0,1,.46,0Z" transform="translate(-6.21 -11.16)"/><path class="cls-6" d="M119.67,126.45a.58.58,0,0,1-.3-.07l-2-1.15a.27.27,0,0,1,0-.5l2-1.18a.62.62,0,0,1,.59,0l2,1.15a.29.29,0,0,1,.17.25.31.31,0,0,1-.16.26l-2,1.17A.6.6,0,0,1,119.67,126.45ZM117.49,125h0l2,1.15a.36.36,0,0,0,.32,0l2-1.17,0,0h0l-2-1.15a.38.38,0,0,0-.33,0l-2,1.17Z" transform="translate(-6.21 -11.16)"/><path class="cls-17" d="M137.54,122.24c.12.07.13.19,0,.26l-2,1.18a.53.53,0,0,1-.46,0l-1-.57a.14.14,0,0,1,0-.26l2-1.18a.53.53,0,0,1,.46,0Z" transform="translate(-6.21 -11.16)"/><path class="cls-6" d="M135.29,123.87a.61.61,0,0,1-.3-.08l-1-.56a.29.29,0,0,1-.17-.25.3.3,0,0,1,.16-.25l2-1.17a.67.67,0,0,1,.6,0l1,.57a.28.28,0,0,1,0,.5l-2,1.17A.61.61,0,0,1,135.29,123.87Zm-1.16-.89,0,0,1,.56a.36.36,0,0,0,.32,0l2-1.18h0l0,0-1-.56a.36.36,0,0,0-.32,0l-2,1.17Z" transform="translate(-6.21 -11.16)"/><g class="cls-8"><path class="cls-17" d="M129.27,117.48c.13.07.13.19,0,.26l-2,1.18a.53.53,0,0,1-.46,0l-2-1.15c-.13-.08-.13-.19,0-.27l2-1.17a.47.47,0,0,1,.46,0Z" transform="translate(-6.21 -11.16)"/><path class="cls-6" d="M127,119.11a.57.57,0,0,1-.29-.07l-2-1.15a.28.28,0,0,1,0-.51l2-1.17a.64.64,0,0,1,.6,0l2,1.15a.3.3,0,0,1,.16.25.28.28,0,0,1-.16.25l-2,1.18A.58.58,0,0,1,127,119.11Zm-2.17-1.48s0,0,0,0l2,1.15a.38.38,0,0,0,.33,0l2-1.17,0,0h0l-2-1.15a.36.36,0,0,0-.32,0l-2,1.17Z" transform="translate(-6.21 -11.16)"/><path class="cls-17" d="M118.53,117.66c.12.08.12.2,0,.27l-2,1.17a.47.47,0,0,1-.46,0l-1-.6c-.13-.07-.13-.19,0-.27l2-1.17a.53.53,0,0,1,.46,0Z" transform="translate(-6.21 -11.16)"/><path class="cls-6" d="M116.28,119.3a.58.58,0,0,1-.3-.08l-1-.6a.28.28,0,0,1,0-.5l2-1.18a.64.64,0,0,1,.6,0l1,.61a.29.29,0,0,1,.17.25.3.3,0,0,1-.16.25l-2,1.17A.64.64,0,0,1,116.28,119.3Zm-1.23-.93h0l1.05.61a.4.4,0,0,0,.32,0l2-1.18h0l0,0-1-.6a.36.36,0,0,0-.32,0l-2,1.17S115.05,118.36,115.05,118.37Z" transform="translate(-6.21 -11.16)"/><path class="cls-17" d="M122.63,118.32c.13.08.13.2,0,.27l-2,1.17a.47.47,0,0,1-.46,0l-2-1.15c-.13-.07-.13-.19,0-.26l2-1.18a.53.53,0,0,1,.46,0Z" transform="translate(-6.21 -11.16)"/><path class="cls-6" d="M120.38,120a.63.63,0,0,1-.3-.07l-2-1.15a.28.28,0,0,1,0-.5l2-1.18a.7.7,0,0,1,.6,0l2,1.15a.31.31,0,0,1,.16.26.3.3,0,0,1-.16.25l-2,1.17A.58.58,0,0,1,120.38,120Zm-2.17-1.47h0l2,1.15a.36.36,0,0,0,.32,0l2-1.17h0l0,0-2-1.15a.36.36,0,0,0-.32,0l-2,1.17Z" transform="translate(-6.21 -11.16)"/><path class="cls-17" d="M126.6,119c.13.07.13.19,0,.27l-2,1.17a.47.47,0,0,1-.46,0l-2-1.15c-.13-.07-.13-.19,0-.26l2-1.18a.53.53,0,0,1,.46,0Z" transform="translate(-6.21 -11.16)"/><path class="cls-6" d="M124.35,120.66a.6.6,0,0,1-.3-.07l-2-1.15a.28.28,0,0,1,0-.5l2-1.18a.64.64,0,0,1,.6,0l2,1.15a.28.28,0,0,1,0,.51l-2,1.17A.6.6,0,0,1,124.35,120.66Zm-2.18-1.47h0l2,1.15a.36.36,0,0,0,.32,0l2-1.17h0s0,0,0,0l-2-1.15a.36.36,0,0,0-.32,0l-2,1.17Z" transform="translate(-6.21 -11.16)"/><path class="cls-17" d="M115.74,119.28c.13.07.13.19,0,.27l-2,1.17a.53.53,0,0,1-.46,0l-1-.6c-.13-.08-.13-.2,0-.27l2-1.17a.47.47,0,0,1,.46,0Z" transform="translate(-6.21 -11.16)"/><path class="cls-6" d="M113.5,120.91a.58.58,0,0,1-.3-.07l-1-.61A.3.3,0,0,1,112,120a.28.28,0,0,1,.16-.25l2-1.17a.62.62,0,0,1,.59,0l1,.6a.29.29,0,0,1,.17.25.3.3,0,0,1-.17.26l-2,1.17A.57.57,0,0,1,113.5,120.91Zm-1.24-.93,0,0,1,.6a.38.38,0,0,0,.33,0l2-1.17,0,0h0l-1.05-.61a.47.47,0,0,0-.33,0l-2,1.18Z" transform="translate(-6.21 -11.16)"/><path class="cls-17" d="M120,119.88c.13.07.13.19,0,.26l-2,1.18a.53.53,0,0,1-.46,0l-2-1.15c-.13-.08-.13-.2,0-.27l2-1.17a.47.47,0,0,1,.46,0Z" transform="translate(-6.21 -11.16)"/><path class="cls-6" d="M117.71,121.51a.61.61,0,0,1-.3-.08l-2-1.15a.3.3,0,0,1-.16-.25.28.28,0,0,1,.16-.25l2-1.17a.62.62,0,0,1,.59,0l2,1.15a.28.28,0,0,1,0,.5l-2,1.17A.61.61,0,0,1,117.71,121.51ZM115.53,120l0,0,2,1.15a.36.36,0,0,0,.32,0l2-1.18h0l0,0-2-1.15a.47.47,0,0,0-.33,0l-2,1.18Z" transform="translate(-6.21 -11.16)"/><path class="cls-17" d="M131.87,119c.13.08.13.2,0,.27l-4,2.33a.53.53,0,0,1-.46,0l-2-1.15c-.13-.07-.13-.19,0-.27l4-2.33a.53.53,0,0,1,.46,0Z" transform="translate(-6.21 -11.16)"/><path class="cls-6" d="M127.63,121.8a.63.63,0,0,1-.3-.07l-2-1.15a.3.3,0,0,1-.16-.25.31.31,0,0,1,.16-.26l4-2.32a.67.67,0,0,1,.6,0l2,1.15a.31.31,0,0,1,.16.26.3.3,0,0,1-.16.25l-4,2.33A.58.58,0,0,1,127.63,121.8Zm-2.17-1.47h0l2,1.15a.36.36,0,0,0,.32,0l4-2.33h0s0,0,0,0l-2-1.15a.36.36,0,0,0-.32,0l-4,2.33S125.46,120.32,125.46,120.33Z" transform="translate(-6.21 -11.16)"/><path class="cls-17" d="M123.93,120.58c.12.08.12.2,0,.27l-2,1.18a.53.53,0,0,1-.46,0l-2-1.15c-.13-.08-.13-.2,0-.27l2-1.18a.5.5,0,0,1,.46,0Z" transform="translate(-6.21 -11.16)"/><path class="cls-6" d="M121.68,122.22a.58.58,0,0,1-.3-.08l-2-1.15a.27.27,0,0,1,0-.5l2-1.17a.64.64,0,0,1,.6,0l2,1.15a.29.29,0,0,1,.17.25.3.3,0,0,1-.16.25l-2,1.17A.64.64,0,0,1,121.68,122.22Zm-2.18-1.48,0,0,2,1.15a.36.36,0,0,0,.32,0l2-1.18h0l0,0-2-1.15a.38.38,0,0,0-.33,0l-2,1.18Z" transform="translate(-6.21 -11.16)"/><path class="cls-17" d="M113,120.9c.13.07.13.19,0,.26l-2,1.18a.53.53,0,0,1-.46,0l-1-.61c-.13-.07-.13-.19,0-.26l2-1.18a.53.53,0,0,1,.46,0Z" transform="translate(-6.21 -11.16)"/><path class="cls-6" d="M110.71,122.53a.69.69,0,0,1-.29-.07l-1-.61a.27.27,0,0,1,0-.5l2-1.18a.68.68,0,0,1,.59,0l1,.61a.3.3,0,0,1,.16.25.28.28,0,0,1-.16.25l-2,1.18A.7.7,0,0,1,110.71,122.53Zm-1.23-.93h0l1,.61a.38.38,0,0,0,.33,0l2-1.17,0,0h0l-1-.61a.38.38,0,0,0-.33,0l-2,1.17Z" transform="translate(-6.21 -11.16)"/><path class="cls-17" d="M127.28,121.71a.14.14,0,0,1,0,.26l-2,1.18a.53.53,0,0,1-.46,0l-2-1.15c-.13-.08-.13-.2,0-.27l2-1.17a.47.47,0,0,1,.46,0Z" transform="translate(-6.21 -11.16)"/><path class="cls-6" d="M125,123.34a.61.61,0,0,1-.3-.08l-2-1.15a.27.27,0,0,1,0-.5l2-1.17a.62.62,0,0,1,.59,0l2,1.15a.29.29,0,0,1,.17.25.3.3,0,0,1-.16.25l-2,1.17A.61.61,0,0,1,125,123.34Zm-2.18-1.48,0,0,2,1.15a.36.36,0,0,0,.32,0l2-1.18h0l0,0-2-1.15a.42.42,0,0,0-.33,0l-2,1.18Z" transform="translate(-6.21 -11.16)"/><path class="cls-17" d="M134.51,120.5a.14.14,0,0,1,0,.27l-5.37,3.12a.53.53,0,0,1-.46,0l-2-1.15c-.13-.08-.13-.2,0-.27l5.36-3.12a.55.55,0,0,1,.47,0Z" transform="translate(-6.21 -11.16)"/><path class="cls-6" d="M128.91,124.08a.6.6,0,0,1-.3-.07l-2-1.15a.3.3,0,0,1-.17-.26.29.29,0,0,1,.17-.25l5.37-3.12a.62.62,0,0,1,.59,0l2,1.15a.3.3,0,0,1,.16.25.31.31,0,0,1-.16.26L129.21,124A.6.6,0,0,1,128.91,124.08Zm-2.18-1.48,0,0,2,1.15a.36.36,0,0,0,.32,0l5.37-3.12s0,0,0,0h0l-2-1.15a.38.38,0,0,0-.33,0l-5.37,3.12Z" transform="translate(-6.21 -11.16)"/><path class="cls-17" d="M124.6,123.26c.12.08.12.2,0,.27l-2,1.17a.47.47,0,0,1-.46,0l-2-1.15c-.13-.07-.13-.19,0-.26l2-1.18a.53.53,0,0,1,.46,0Z" transform="translate(-6.21 -11.16)"/><path class="cls-6" d="M122.35,124.9a.58.58,0,0,1-.3-.08l-2-1.15a.27.27,0,0,1,0-.5l2-1.17a.62.62,0,0,1,.59,0l2,1.14a.31.31,0,0,1,.17.26.3.3,0,0,1-.16.25l-2,1.17A.61.61,0,0,1,122.35,124.9Zm-2.18-1.48s0,0,0,0l2,1.15a.44.44,0,0,0,.32,0l2-1.18h0s0,0,0,0l-2-1.15a.38.38,0,0,0-.33,0l-2,1.17S120.18,123.42,120.17,123.42Z" transform="translate(-6.21 -11.16)"/><path class="cls-17" d="M128.57,124c.13.07.13.19,0,.27l-2,1.17a.53.53,0,0,1-.46,0l-2-1.15c-.12-.07-.12-.19,0-.27l2-1.17a.53.53,0,0,1,.46,0Z" transform="translate(-6.21 -11.16)"/><path class="cls-6" d="M126.33,125.65a.58.58,0,0,1-.3-.07l-2-1.15a.29.29,0,0,1-.17-.25.3.3,0,0,1,.16-.25l2-1.18a.64.64,0,0,1,.6,0l2,1.15a.29.29,0,0,1,.17.25.31.31,0,0,1-.17.26l-2,1.17A.57.57,0,0,1,126.33,125.65Zm-2.18-1.47h0l2,1.15a.38.38,0,0,0,.33,0l2-1.17,0,0h0l-2-1.15a.36.36,0,0,0-.32,0l-2,1.17S124.15,124.17,124.15,124.18Z" transform="translate(-6.21 -11.16)"/></g><g class="cls-8"><path class="cls-17" d="M110.18,122.51c.13.08.13.2,0,.27l-2,1.17a.47.47,0,0,1-.46,0l-1-.6c-.12-.07-.12-.19,0-.27l2-1.17a.53.53,0,0,1,.46,0Z" transform="translate(-6.21 -11.16)"/><path class="cls-6" d="M107.93,124.15a.64.64,0,0,1-.3-.08l-1-.6a.29.29,0,0,1-.17-.25.33.33,0,0,1,.16-.26l2-1.17a.64.64,0,0,1,.6,0l1,.61a.28.28,0,0,1,0,.5l-2,1.17A.58.58,0,0,1,107.93,124.15Zm-1.23-.93h0l1,.61a.4.4,0,0,0,.32,0l2-1.18h0s0,0,0,0l-1-.6a.36.36,0,0,0-.32,0l-2,1.17Z" transform="translate(-6.21 -11.16)"/><path class="cls-17" d="M107.4,124.13c.13.07.13.19,0,.27l-2,1.17a.53.53,0,0,1-.46,0l-1-.6c-.12-.08-.13-.2,0-.27l2-1.17a.47.47,0,0,1,.46,0Z" transform="translate(-6.21 -11.16)"/><path class="cls-6" d="M105.15,125.76a.6.6,0,0,1-.3-.07l-1-.61a.28.28,0,0,1,0-.5l2-1.17a.64.64,0,0,1,.6,0l1,.6a.3.3,0,0,1,.16.25.31.31,0,0,1-.16.26l-2,1.17A.6.6,0,0,1,105.15,125.76Zm-1.23-.93s0,0,0,0l1,.6a.36.36,0,0,0,.32,0l2-1.17,0,0h0l-1-.61a.44.44,0,0,0-.32,0l-2,1.18Z" transform="translate(-6.21 -11.16)"/><path class="cls-17" d="M111.94,124.54c.13.07.13.19,0,.26l-2,1.18a.53.53,0,0,1-.46,0l-2-1.15c-.13-.08-.13-.2,0-.27l2-1.17a.47.47,0,0,1,.46,0Z" transform="translate(-6.21 -11.16)"/><path class="cls-6" d="M109.69,126.17a.61.61,0,0,1-.3-.08l-2-1.14a.33.33,0,0,1-.16-.26.28.28,0,0,1,.16-.25l2-1.17a.62.62,0,0,1,.59,0l2,1.15a.28.28,0,0,1,0,.5l-2,1.17A.61.61,0,0,1,109.69,126.17Zm-2.18-1.48,0,0,2,1.15a.36.36,0,0,0,.32,0l2-1.17,0,0,0,0-2-1.15a.47.47,0,0,0-.33,0l-2,1.18Z" transform="translate(-6.21 -11.16)"/></g><path class="cls-17" d="M109.26,126.09a.14.14,0,0,1,0,.27l-2,1.17a.53.53,0,0,1-.46,0l-2-1.15a.14.14,0,0,1,0-.27l2-1.17a.53.53,0,0,1,.46,0Z" transform="translate(-6.21 -11.16)"/><path class="cls-6" d="M107,127.72a.58.58,0,0,1-.3-.07l-2-1.15a.27.27,0,0,1,0-.5l2-1.18a.64.64,0,0,1,.6,0l2,1.15a.29.29,0,0,1,.17.25.3.3,0,0,1-.16.25l-2,1.18A.63.63,0,0,1,107,127.72Zm-2.18-1.47h0l2,1.15a.38.38,0,0,0,.33,0l2-1.17,0,0h0l-2-1.15a.38.38,0,0,0-.33,0l-2,1.17Z" transform="translate(-6.21 -11.16)"/><path class="cls-17" d="M121.31,116.05c.12.07.13.19,0,.26l-2,1.18a.53.53,0,0,1-.46,0l-1-.61c-.13-.07-.13-.19,0-.26l2-1.18a.53.53,0,0,1,.46,0Z" transform="translate(-6.21 -11.16)"/><path class="cls-6" d="M119.06,117.68a.73.73,0,0,1-.3-.07l-1.05-.61a.28.28,0,0,1,0-.5l2-1.18a.7.7,0,0,1,.6,0l1,.61a.28.28,0,0,1,0,.5l-2,1.18A.73.73,0,0,1,119.06,117.68Zm-1.23-.93h0l1.05.61a.36.36,0,0,0,.32,0l2-1.17,0,0h0l-1-.61a.36.36,0,0,0-.32,0l-2,1.17S117.83,116.74,117.83,116.75Z" transform="translate(-6.21 -11.16)"/><path class="cls-17" d="M124.09,114.43c.13.07.13.19,0,.27l-2,1.17a.53.53,0,0,1-.46,0l-1-.6c-.12-.08-.12-.2,0-.27l2-1.17a.47.47,0,0,1,.46,0Z" transform="translate(-6.21 -11.16)"/><path class="cls-6" d="M121.84,116.06a.6.6,0,0,1-.3-.07l-1-.61a.29.29,0,0,1-.17-.25.3.3,0,0,1,.16-.25l2-1.17a.64.64,0,0,1,.6,0l1,.6a.3.3,0,0,1,.16.25.31.31,0,0,1-.16.26l-2,1.17A.6.6,0,0,1,121.84,116.06Zm-1.23-.93s0,0,0,0l1.05.6a.36.36,0,0,0,.32,0l2-1.17,0,0h0l-1-.61a.44.44,0,0,0-.32,0l-2,1.18Z" transform="translate(-6.21 -11.16)"/><path class="cls-17" d="M126.67,116c.13.07.13.19,0,.26l-3.33,1.94a.53.53,0,0,1-.46,0l-2-1.15c-.12-.07-.12-.19,0-.27l3.34-1.93a.47.47,0,0,1,.46,0Z" transform="translate(-6.21 -11.16)"/><path class="cls-6" d="M123.11,118.37a.58.58,0,0,1-.3-.07l-2-1.15a.29.29,0,0,1-.17-.25.3.3,0,0,1,.16-.25l3.34-1.94a.64.64,0,0,1,.6,0l2,1.15a.28.28,0,0,1,0,.5l-3.34,1.94A.57.57,0,0,1,123.11,118.37Zm-2.18-1.47h0l2,1.15a.38.38,0,0,0,.33,0l3.33-1.94h0l0,0-2-1.15a.36.36,0,0,0-.32,0L121,116.88S120.93,116.89,120.93,116.9Z" transform="translate(-6.21 -11.16)"/><path class="cls-17" d="M121.25,122.14c.13.07.13.19,0,.26l-2,1.18a.53.53,0,0,1-.46,0l-2-1.15c-.13-.07-.13-.19,0-.27l2-1.17a.47.47,0,0,1,.46,0Z" transform="translate(-6.21 -11.16)"/><path class="cls-6" d="M119,123.77a.57.57,0,0,1-.29-.07l-2-1.15a.3.3,0,0,1-.16-.25.31.31,0,0,1,.16-.26l2-1.17a.64.64,0,0,1,.6,0l2,1.15a.3.3,0,0,1,.16.25.28.28,0,0,1-.16.25l-2,1.18A.58.58,0,0,1,119,123.77Zm-2.17-1.48,0,0,2,1.15a.38.38,0,0,0,.33,0l2-1.17,0,0h0l-2-1.15a.36.36,0,0,0-.32,0l-2,1.17Z" transform="translate(-6.21 -11.16)"/><path class="cls-17" d="M104.46,138a.14.14,0,0,1,0,.27l-2,1.17a.47.47,0,0,1-.46,0l-2-1.15c-.12-.07-.12-.19,0-.27l2-1.17a.53.53,0,0,1,.46,0Z" transform="translate(-6.21 -11.16)"/><path class="cls-6" d="M102.22,139.66a.58.58,0,0,1-.3-.07l-2-1.15a.29.29,0,0,1-.17-.25.3.3,0,0,1,.16-.25l2-1.18a.64.64,0,0,1,.6,0l2,1.15a.28.28,0,0,1,0,.51l-2,1.17A.57.57,0,0,1,102.22,139.66ZM100,138.19h0l2,1.15a.38.38,0,0,0,.33,0l2-1.17h0l0,0-2-1.15a.36.36,0,0,0-.32,0l-2,1.17Z" transform="translate(-6.21 -11.16)"/><path class="cls-17" d="M101.42,143.22c.13.08.13.2,0,.27l-2,1.17a.47.47,0,0,1-.46,0l-2.37-1.36c-.12-.07-.12-.19,0-.27l2-1.17a.53.53,0,0,1,.46,0Z" transform="translate(-6.21 -11.16)"/><path class="cls-6" d="M99.18,144.86a.58.58,0,0,1-.3-.08l-2.36-1.36a.29.29,0,0,1-.17-.25.3.3,0,0,1,.16-.25l2-1.18a.64.64,0,0,1,.6,0l2.36,1.36a.31.31,0,0,1,.17.26.29.29,0,0,1-.17.25l-2,1.17A.57.57,0,0,1,99.18,144.86Zm-2.55-1.69h0L99,144.55a.47.47,0,0,0,.33,0l2-1.18h0l0,0L99,142a.36.36,0,0,0-.32,0l-2,1.17Z" transform="translate(-6.21 -11.16)"/><path class="cls-17" d="M110.09,138.19c.12.07.13.19,0,.26L107.48,140a.53.53,0,0,1-.46,0l-2.36-1.36c-.13-.08-.13-.2,0-.27l2.61-1.52a.5.5,0,0,1,.46,0Z" transform="translate(-6.21 -11.16)"/><path class="cls-6" d="M107.25,140.16a.63.63,0,0,1-.3-.07l-2.36-1.37a.28.28,0,0,1,0-.5l2.61-1.51a.62.62,0,0,1,.59,0l2.37,1.36a.28.28,0,0,1,0,.5l-2.61,1.52A.58.58,0,0,1,107.25,140.16Zm-2.54-1.69,0,0,2.36,1.36a.36.36,0,0,0,.32,0l2.61-1.51s0,0,0,0h0l-2.36-1.37a.38.38,0,0,0-.33,0l-2.6,1.52Z" transform="translate(-6.21 -11.16)"/><path class="cls-17" d="M106.81,140.09c.13.08.13.2,0,.27l-2,1.17a.47.47,0,0,1-.46,0L102,140.17c-.13-.07-.13-.19,0-.27l2-1.17a.53.53,0,0,1,.46,0Z" transform="translate(-6.21 -11.16)"/><path class="cls-6" d="M104.56,141.73a.61.61,0,0,1-.3-.08l-2.36-1.36a.28.28,0,0,1,0-.5l2-1.18a.64.64,0,0,1,.6,0l2.36,1.37a.28.28,0,0,1,0,.5l-2,1.17A.61.61,0,0,1,104.56,141.73ZM102,140h0l2.36,1.37a.44.44,0,0,0,.32,0l2-1.18h0l0,0-2.36-1.36a.36.36,0,0,0-.32,0L102,140Z" transform="translate(-6.21 -11.16)"/><path class="cls-17" d="M101.8,139.58c.13.07.13.19,0,.26L96.43,143a.53.53,0,0,1-.46,0l-2-1.15c-.13-.08-.13-.2,0-.27l5.37-3.12a.47.47,0,0,1,.46,0Z" transform="translate(-6.21 -11.16)"/><path class="cls-6" d="M96.2,143.16a.57.57,0,0,1-.29-.08l-2-1.15a.28.28,0,0,1,0-.5l5.37-3.12a.64.64,0,0,1,.6,0l2,1.15a.3.3,0,0,1,.16.25.28.28,0,0,1-.16.25l-5.37,3.12A.58.58,0,0,1,96.2,143.16ZM94,141.68l0,0,2,1.15a.38.38,0,0,0,.33,0l5.36-3.12,0,0h0l-2-1.15a.36.36,0,0,0-.32,0l-5.37,3.12Z" transform="translate(-6.21 -11.16)"/><path class="cls-17" d="M104.12,141.66a.14.14,0,0,1,0,.26l-2,1.18a.53.53,0,0,1-.46,0l-2.36-1.36c-.13-.08-.13-.2,0-.27l2-1.17a.49.49,0,0,1,.47,0Z" transform="translate(-6.21 -11.16)"/><path class="cls-6" d="M101.87,143.29a.58.58,0,0,1-.3-.07l-2.36-1.37a.27.27,0,0,1,0-.5l2-1.17a.62.62,0,0,1,.59,0l2.36,1.36a.29.29,0,0,1,.17.25.3.3,0,0,1-.16.25l-2,1.18A.63.63,0,0,1,101.87,143.29Zm-2.55-1.69,0,0,2.36,1.36a.36.36,0,0,0,.32,0l2-1.17s0,0,0,0h0l-2.36-1.37a.38.38,0,0,0-.33,0l-2,1.18Z" transform="translate(-6.21 -11.16)"/><path class="cls-17" d="M134.86,123.79a.14.14,0,0,1,0,.27l-2,1.17a.53.53,0,0,1-.46,0L130,123.87c-.13-.08-.13-.2,0-.27l2-1.17a.47.47,0,0,1,.46,0Z" transform="translate(-6.21 -11.16)"/><path class="cls-6" d="M132.62,125.42a.58.58,0,0,1-.3-.07L130,124a.27.27,0,0,1,0-.5l2-1.17a.64.64,0,0,1,.6,0l2.36,1.36a.27.27,0,0,1,0,.5l-2,1.18A.63.63,0,0,1,132.62,125.42Zm-2.55-1.69,0,0,2.36,1.36a.38.38,0,0,0,.33,0l2-1.17,0,0h0l-2.36-1.37a.38.38,0,0,0-.33,0l-2,1.18Z" transform="translate(-6.21 -11.16)"/><path class="cls-17" d="M132.2,125.34c.13.07.13.19,0,.26l-2,1.18a.55.55,0,0,1-.47,0l-1-.57c-.13-.07-.13-.19,0-.26l2-1.18a.53.53,0,0,1,.46,0Z" transform="translate(-6.21 -11.16)"/><path class="cls-6" d="M130,127a.57.57,0,0,1-.29-.08l-1-.56a.28.28,0,0,1,0-.5l2-1.18a.7.7,0,0,1,.6,0l1,.57a.27.27,0,0,1,0,.5l-2,1.17A.58.58,0,0,1,130,127Zm-1.15-.89h0l1,.57a.38.38,0,0,0,.33,0l2-1.18h0l0,0-1-.56a.36.36,0,0,0-.32,0l-2,1.17S128.8,126.07,128.8,126.08Z" transform="translate(-6.21 -11.16)"/><path class="cls-17" d="M125.89,125.58c.13.07.13.19,0,.26l-2,1.18a.53.53,0,0,1-.46,0l-2-1.15c-.12-.08-.12-.2,0-.27l2-1.17a.47.47,0,0,1,.46,0Z" transform="translate(-6.21 -11.16)"/><path class="cls-6" d="M123.65,127.21a.7.7,0,0,1-.3-.07l-2-1.15a.3.3,0,0,1-.17-.26.29.29,0,0,1,.17-.25l2-1.17a.64.64,0,0,1,.6,0l2,1.15a.27.27,0,0,1,0,.5l-2,1.18A.78.78,0,0,1,123.65,127.21Zm-2.18-1.48,0,0,2,1.15a.38.38,0,0,0,.33,0l2-1.17,0,0h0l-2-1.15a.36.36,0,0,0-.32,0l-2,1.17Z" transform="translate(-6.21 -11.16)"/><path class="cls-17" d="M126.76,128.5c.13.07.13.19,0,.26l-2.6,1.52a.53.53,0,0,1-.46,0l-2.36-1.36c-.13-.08-.13-.2,0-.27l2.61-1.52a.53.53,0,0,1,.46,0Z" transform="translate(-6.21 -11.16)"/><path class="cls-6" d="M123.93,130.47a.58.58,0,0,1-.3-.07L121.27,129a.27.27,0,0,1,0-.5l2.6-1.51a.64.64,0,0,1,.6,0l2.36,1.36a.3.3,0,0,1,.16.25.28.28,0,0,1-.16.25l-2.6,1.52A.63.63,0,0,1,123.93,130.47Zm-2.55-1.69,0,0,2.37,1.36a.36.36,0,0,0,.32,0l2.6-1.51,0,0h0l-2.36-1.37a.36.36,0,0,0-.32,0l-2.61,1.52Z" transform="translate(-6.21 -11.16)"/><path class="cls-17" d="M129.54,126.88c.13.08.13.2,0,.27l-2,1.17a.47.47,0,0,1-.46,0L124.7,127c-.13-.07-.13-.19,0-.27l2-1.17a.53.53,0,0,1,.46,0Z" transform="translate(-6.21 -11.16)"/><path class="cls-6" d="M127.29,128.52a.64.64,0,0,1-.3-.08l-2.36-1.36a.28.28,0,0,1,0-.5l2-1.18a.64.64,0,0,1,.6,0l2.36,1.36a.31.31,0,0,1,.16.26.3.3,0,0,1-.16.25l-2,1.17A.58.58,0,0,1,127.29,128.52Zm-2.54-1.69h0l2.36,1.36a.36.36,0,0,0,.32,0l2-1.17h0l0,0-2.36-1.36a.36.36,0,0,0-.32,0l-2,1.17S124.75,126.82,124.75,126.83Z" transform="translate(-6.21 -11.16)"/><path class="cls-17" d="M115.18,131.8c.13.08.13.2,0,.27l-2,1.17a.47.47,0,0,1-.46,0l-2-1.15c-.13-.07-.13-.19,0-.26l2-1.18a.53.53,0,0,1,.46,0Z" transform="translate(-6.21 -11.16)"/><path class="cls-6" d="M112.93,133.44a.61.61,0,0,1-.3-.08l-2-1.15a.28.28,0,0,1,0-.5l2-1.17a.64.64,0,0,1,.6,0l2,1.15a.28.28,0,0,1,0,.5l-2,1.17A.58.58,0,0,1,112.93,133.44ZM110.76,132l0,0,2,1.15a.36.36,0,0,0,.32,0l2-1.18h0l0,0-2-1.15a.36.36,0,0,0-.32,0l-2,1.18Z" transform="translate(-6.21 -11.16)"/><path class="cls-17" d="M123.46,130.42c.13.07.13.19,0,.26L110.8,138a.47.47,0,0,1-.46,0L108,136.68a.14.14,0,0,1,0-.27l12.67-7.36a.5.5,0,0,1,.46,0Z" transform="translate(-6.21 -11.16)"/><path class="cls-6" d="M110.57,138.24a.58.58,0,0,1-.3-.08l-2.36-1.36a.27.27,0,0,1,0-.5l12.66-7.36a.64.64,0,0,1,.6,0l2.36,1.36a.28.28,0,0,1,0,.5l-12.66,7.36A.64.64,0,0,1,110.57,138.24ZM108,136.55h0l2.37,1.36a.36.36,0,0,0,.32,0l12.66-7.35,0,0h0L121,129.17a.38.38,0,0,0-.33,0L108,136.53Z" transform="translate(-6.21 -11.16)"/><path class="cls-17" d="M107.14,136.47c.13.08.13.2,0,.27l-2,1.17a.49.49,0,0,1-.47,0l-2-1.15c-.12-.07-.13-.19,0-.26l2-1.18a.53.53,0,0,1,.46,0Z" transform="translate(-6.21 -11.16)"/><path class="cls-6" d="M104.9,138.11a.58.58,0,0,1-.3-.08l-2-1.15a.28.28,0,0,1,0-.5l2-1.17a.64.64,0,0,1,.6,0l2,1.15a.27.27,0,0,1,0,.5l-2,1.17A.57.57,0,0,1,104.9,138.11Zm-2.18-1.48,0,0,2,1.15a.38.38,0,0,0,.33,0l2-1.18h0l0,0-2-1.15a.36.36,0,0,0-.32,0l-2,1.18Z" transform="translate(-6.21 -11.16)"/><path class="cls-17" d="M97.79,138.84c.13.07.13.19,0,.27l-4,2.33a.55.55,0,0,1-.47,0l-2-1.15c-.12-.08-.12-.2,0-.27l4-2.33a.53.53,0,0,1,.46,0Z" transform="translate(-6.21 -11.16)"/><path class="cls-6" d="M93.56,141.63a.58.58,0,0,1-.3-.08l-2-1.15a.29.29,0,0,1-.17-.25.3.3,0,0,1,.16-.25l4-2.33a.64.64,0,0,1,.6,0l2,1.15A.3.3,0,0,1,98,139a.28.28,0,0,1-.16.25l-4,2.33A.57.57,0,0,1,93.56,141.63Zm-2.18-1.48,0,0,2,1.15a.38.38,0,0,0,.33,0l4-2.33,0,0h0l-2-1.15a.36.36,0,0,0-.32,0l-4,2.33Z" transform="translate(-6.21 -11.16)"/><path class="cls-17" d="M94.47,137.7c.13.08.13.2,0,.27l-3.33,1.94a.53.53,0,0,1-.46,0l-2-1.15c-.13-.08-.13-.2,0-.27L92,136.55a.53.53,0,0,1,.46,0Z" transform="translate(-6.21 -11.16)"/><path class="cls-6" d="M90.91,140.1a.7.7,0,0,1-.3-.07l-2-1.15a.3.3,0,0,1-.17-.26.3.3,0,0,1,.16-.25L92,136.43a.7.7,0,0,1,.6,0l2,1.15a.31.31,0,0,1,.16.26.3.3,0,0,1-.16.25L91.21,140A.64.64,0,0,1,90.91,140.1Zm-2.18-1.48,0,0,2,1.15a.38.38,0,0,0,.33,0l3.33-1.94h0l0,0-2-1.15a.36.36,0,0,0-.32,0l-3.34,1.94Z" transform="translate(-6.21 -11.16)"/><path class="cls-17" d="M99.05,129c.13.07.13.19,0,.27l-2,1.17a.53.53,0,0,1-.46,0l-1-.6c-.13-.08-.13-.2,0-.27l2-1.17a.49.49,0,0,1,.47,0Z" transform="translate(-6.21 -11.16)"/><path class="cls-6" d="M96.8,130.61a.57.57,0,0,1-.29-.07l-1.05-.61a.27.27,0,0,1,0-.5l2-1.17a.62.62,0,0,1,.59,0l1.05.6a.3.3,0,0,1,.16.25.29.29,0,0,1-.16.26l-2,1.17A.58.58,0,0,1,96.8,130.61Zm-1.23-.93,0,0,1,.6a.38.38,0,0,0,.33,0l2-1.17,0,0h0l-1-.61a.47.47,0,0,0-.33,0l-2,1.18Z" transform="translate(-6.21 -11.16)"/></g></svg>