<svg xmlns="http://www.w3.org/2000/svg" viewBox="0 0 515.71 269.51"><defs><style>.cls-1{fill:#646464;}.cls-2{fill:#354293;}.cls-3{fill:#243165;}.cls-4{fill:#f5ad1f;}.cls-4,.cls-5,.cls-6,.cls-7,.cls-8{opacity:0.5;}.cls-5{fill:#009fe3;}.cls-6{fill:#009640;}.cls-7{fill:#e94e1b;}.cls-8{fill:#6f559c;}.cls-9{fill:#50504f;}.cls-10{fill:#f0f0f0;}.cls-11{fill:#d9d9d9;}.cls-12{fill:none;}.cls-13{fill:#bdbdbc;}.cls-14{fill:#857a7b;}.cls-15{fill:#404040;}.cls-16{fill:#363636;}.cls-17{fill:#2e2f2f;}.cls-18{fill:#c3c2c2;}.cls-19{fill:#8c8c8c;}.cls-20{fill:#2a292a;}.cls-21{fill:#fff;}.cls-22{fill:#ef7951;}.cls-23{fill:#e51836;}.cls-24{fill:#747474;}</style></defs><title>G08_18_01</title><g id="Workers"><polygon class="cls-1" points="287.12 142.24 218.13 142.24 228.03 106.93 287.12 106.93 287.12 142.24"/><rect class="cls-1" x="142.33" y="136.08" width="246.35" height="20.55"/><polygon class="cls-1" points="463.76 78.61 354.2 142.24 392.43 58.07 463.76 58.07 463.76 78.61"/><polygon class="cls-1" points="386.19 142.24 317.19 142.24 327.1 106.93 386.19 106.93 386.19 142.24"/><path class="cls-2" d="M394.16,149.58l-64.81,1.23a2.81,2.81,0,0,1-2.8-2.8V127.43a2.81,2.81,0,0,1,2.8-2.81l64.81,6.19a2.83,2.83,0,0,1,2.81,2.81v13.15A2.83,2.83,0,0,1,394.16,149.58Z" transform="translate(-5.09 -22.96)"/><path class="cls-2" d="M402.66,84.54l-13,43.9a2.58,2.58,0,0,1-3.36,1.28l-21.54-.19a2.58,2.58,0,0,1-2-3s10.4-17.19,13.05-22.92c2.86-6.21,9-21.13,9-21.13.38-1.18,2.88-5,9-5C401,77.48,404.18,80,402.66,84.54Z" transform="translate(-5.09 -22.96)"/><path class="cls-3" d="M394.16,149.81l-64.81,1a2.58,2.58,0,0,1-2.8-2.28V131.76a2.59,2.59,0,0,1,2.8-2.29l64.81.09a2.6,2.6,0,0,1,2.81,2.29v15.67A2.6,2.6,0,0,1,394.16,149.81Z" transform="translate(-5.09 -22.96)"/><path class="cls-3" d="M402.58,85.53l-13,43.05a2.25,2.25,0,0,1-2.84,1.42l-17.69-.3a2.26,2.26,0,0,1-1.47-2.82s9.45-15.89,11.92-21.56c2.68-6.15,8.49-20.87,8.49-20.87a8.68,8.68,0,0,1,7.62-5.27C401.6,78.8,404.07,81,402.58,85.53Z" transform="translate(-5.09 -22.96)"/><path class="cls-2" d="M285.19,149.58l-64.81,1.23a2.81,2.81,0,0,1-2.81-2.8l-3.71-16.25c0-1.54,6.13-5.11,7.67-5.11l63.66,4.16a2.82,2.82,0,0,1,2.8,2.81v13.15A2.82,2.82,0,0,1,285.19,149.58Z" transform="translate(-5.09 -22.96)"/><path class="cls-2" d="M293.68,84.54l-13,43.9a2.58,2.58,0,0,1-3.37,1.28l-21.54-.19a2.6,2.6,0,0,1-2-3s10.41-17.19,13.05-22.92c2.87-6.21,9-21.13,9-21.13.38-1.18,2.87-5,9-5C292.05,77.48,295.2,80,293.68,84.54Z" transform="translate(-5.09 -22.96)"/><path class="cls-3" d="M285.19,149.81l-64.81,1a2.59,2.59,0,0,1-2.81-2.28l-3.71-16.77c0-1.26,5-2.29,6.52-2.29l64.81.09a2.59,2.59,0,0,1,2.8,2.29v15.67A2.59,2.59,0,0,1,285.19,149.81Z" transform="translate(-5.09 -22.96)"/><path class="cls-3" d="M293.61,85.53l-9.26,43.05a2.25,2.25,0,0,1-2.84,1.42l-21.41-.3a2.25,2.25,0,0,1-1.46-2.82s9.45-15.89,11.92-21.56c2.68-6.15,8.48-20.87,8.48-20.87a8.7,8.7,0,0,1,7.63-5.27C292.63,78.8,295.1,81,293.61,85.53Z" transform="translate(-5.09 -22.96)"/><path class="cls-2" d="M290.48,77.29h-8.4a2.82,2.82,0,0,1-2.81-2.8L283,57.63a2.82,2.82,0,0,1,2.81-2.81h4.68a2.82,2.82,0,0,1,2.81,2.81V74.49A2.81,2.81,0,0,1,290.48,77.29Z" transform="translate(-5.09 -22.96)"/><path class="cls-3" d="M291.28,77.29h-6c-1.1,0-2-1.26-2-2.8l2.65-16.86c0-1.54.91-2.81,2-2.81h3.35c1.11,0,2,1.27,2,2.81V74.49C293.29,76,292.39,77.29,291.28,77.29Z" transform="translate(-5.09 -22.96)"/><rect class="cls-4" x="10.98" y="213.73" width="22.31" height="22.31"/><rect class="cls-5" x="141.72" y="213.73" width="22.31" height="22.31"/><rect class="cls-6" x="282.1" y="213.73" width="22.31" height="22.31"/><rect class="cls-7" x="10.98" y="247.19" width="22.31" height="22.31"/><rect class="cls-8" y="174.92" width="515.71" height="16.8" rx="8.4" ry="8.4"/><rect class="cls-8" x="141.72" y="247.19" width="22.31" height="22.31"/></g><g id="Official_sources" data-name="Official sources"><path class="cls-9" d="M308.47,43.69l5.77.58s22.91,19.16,25.21,34.51c1.71,11.36-11.29,71.08-15.08,88.11a6.11,6.11,0,0,1-5.65,4.77l-4,.21s7.06-39.34,7.75-44.33Z" transform="translate(-5.09 -22.96)"/><path class="cls-10" d="M516.24,136.25c-.72-2.06-5.58-2.68-5.58-8.46,0-2.17-.52-8-1.21-14.72-.24-2.33-1.51-4.43-1.78-6.85-.48-4.4,0-9.08-.41-12.67-.46-3.9-.85-6.9-1-8.1s-.31-3-.65-4.61H465.76c-1.8,0-4.51-1.46-4.51-3.27l-.68-5.87a23.29,23.29,0,0,1-2.47-.5c-6.4-1.76-58.72-27.28-71.31-32.23s-36.39-5.29-47.44-5.29l-62.26,0c-10.33,0-33.87-1.45-59.69,13s-59.63,39.26-70,42c-.46.12-1,.24-1.63.36h3.78a2.81,2.81,0,0,1,2.81,2.8V93.1a2.81,2.81,0,0,1-2.81,2.81h-10.8a2.93,2.93,0,0,1-.9-.16c-15.38.51-55.43,2.43-73.31,8.92-2.2.8-4.69,1.73-7.31,2.7-11.44,4.25-24.4,9.07-28.28,9.08h-.1a20.62,20.62,0,0,1-3.39-.25,44.23,44.23,0,0,0-5.34,4.14A27.23,27.23,0,0,0,11.5,135c-3.92,18.89-2.06,21.12,2.07,21.76s9.86,1.68,12.18,5.24,5.11,13.32,1.24,13.32H14.45c-2.95,0-2.79,4.49-.62,8.67s5,4.34,9.75,4.34H387.1c16.26,0,64.5-12.65,70.59-12.65s31.52,1.55,36.56,0c10.82-3.33,15.38-4.13,19.31-16.21S517,138.32,516.24,136.25Zm-104.52-34c-1.19,3.94-7.11,9.65-15.29,17.57-2.72,2.62-5.79,5.6-9,8.8-10.72,10.71-16.76,28.31-19.35,35.83-.47,1.39-.85,2.49-1.14,3.2-1.75,4.38-4,6.17-7.86,6.17H164.69a5.36,5.36,0,0,1-5.25-4c-.46-1.87-4.2-28.94-5.13-43.14s.6-18.76,8.52-25.88c3.22-2.89,44.89-34.39,70.78-48.64,22.1-12.16,61.56-9.65,61.72-9.75,0,0,38.82-.15,51.62,0,19.06.24,44.81,12.92,70.81,34.66C420.91,79.7,412.87,98.41,411.72,102.21Zm47.52,8.38a8.52,8.52,0,1,1,8.52-8.51A8.52,8.52,0,0,1,459.24,110.59Z" transform="translate(-5.09 -22.96)"/><path class="cls-11" d="M375.91,145.24a148.12,148.12,0,0,0-7.83,19.17c-.47,1.39-.85,2.49-1.14,3.2-1.75,4.38-4,6.17-7.86,6.17H164.69a5.36,5.36,0,0,1-5.25-4c-.3-1.2-1.93-12.72-3.32-24.58H9.72c-1.21,9.57.63,11,3.85,11.54,4.13.64,9.86,1.68,12.18,5.24s5.11,13.32,1.24,13.32H14.45c-2.95,0-2.79,4.49-.62,8.67s5,4.34,9.75,4.34H387.1c16.26,0,64.5-7.7,70.59-7.7s31.49-3.51,36.56-5c10.47-3,15.38-4.13,19.31-16.21a65.82,65.82,0,0,0,3-14.25Z" transform="translate(-5.09 -22.96)"/><path class="cls-12" d="M395.78,119.11c8.09-7.82,13.93-13.46,15.05-17.17,1-3.4,8.56-21.44,5.78-24-21.13-19.63-51.44-34.65-70.52-34.55-12.29.06-50.57.13-50.57.13,0,.28-9.65,57.05-13.2,101.75h92.56c3.07-6.13,7-12.42,11.9-17.32C390,124.71,393.06,121.74,395.78,119.11Z" transform="translate(-5.09 -22.96)"/><path class="cls-12" d="M233.14,53.62c-25,15.21-66.5,45-69.69,47.87-7.65,6.87-9.11,11.33-8.21,25.13.33,5.13,1,11.94,1.82,18.62h124.3c3.5-44.82,13-101.82,13-101.82C294.17,43.52,252.84,41.64,233.14,53.62Z" transform="translate(-5.09 -22.96)"/><circle class="cls-12" cx="459.24" cy="102.08" r="7.59" transform="translate(-16.26 85.28) rotate(-13.28)"/><path class="cls-13" d="M459.24,110.59a8.52,8.52,0,1,0-8.52-8.51A8.52,8.52,0,0,0,459.24,110.59Zm0-16.1a7.59,7.59,0,1,1-7.59,7.59A7.6,7.6,0,0,1,459.24,94.49Z" transform="translate(-5.09 -22.96)"/><circle class="cls-10" cx="459.24" cy="102.08" r="7.59" transform="translate(-16.26 85.28) rotate(-13.28)"/><path class="cls-13" d="M459.24,93.56a8.52,8.52,0,1,0,8.52,8.52A8.53,8.53,0,0,0,459.24,93.56Zm0,16.1a7.59,7.59,0,1,1,7.59-7.58A7.6,7.6,0,0,1,459.24,109.66Z" transform="translate(-5.09 -22.96)"/><path class="cls-14" d="M459,71.75l7.16,0a2.81,2.81,0,0,1,2.66,2.79v1.17a2.78,2.78,0,0,1-.64,1.75c-3.78-.13-6.35-.18-7.16-.2C460.3,75.88,459.33,71.81,459,71.75Z" transform="translate(-5.09 -22.96)"/><polygon class="cls-1" points="36.99 156.63 14.26 156.63 7.03 127.85 36.99 127.85 36.99 156.63"/><path class="cls-15" d="M358.64,35.42c0,2.91-2.26,2.4-5,2.4s-5,.51-5-2.4,6.43-8.14,9.22-8.14S358.64,32.51,358.64,35.42Z" transform="translate(-5.09 -22.96)"/><path class="cls-1" d="M462.64,169.71a43.06,43.06,0,0,0-86.12,0v18.64c5.56,0,32.29,5.4,33.65,5.4,16.26,0,36.48-10.62,42.57-10.62,1.1,0,7.78-2.48,9.9-2.48Z" transform="translate(-5.09 -22.96)"/><path class="cls-1" d="M143.47,169.71a43.06,43.06,0,0,0-86.12,0v18.64c31.07,10,52.92,8.27,86.12,0Z" transform="translate(-5.09 -22.96)"/><circle class="cls-16" cx="95.32" cy="146.75" r="36.86"/><circle class="cls-17" cx="95.32" cy="146.75" r="28.65"/><circle class="cls-18" cx="95.32" cy="146.75" r="25.81"/><circle class="cls-19" cx="95.32" cy="146.75" r="22.61"/><circle class="cls-20" cx="100.41" cy="169.71" r="20.3" transform="translate(-95.68 97.75) rotate(-45)"/><circle class="cls-18" cx="95.32" cy="146.75" r="4.65"/><polygon class="cls-18" points="99.56 145.36 91.09 145.36 93.05 122.28 97.59 122.28 99.56 145.36"/><polygon class="cls-18" points="95.31 142.29 92.69 150.34 71.35 141.34 72.75 137.02 95.31 142.29"/><polygon class="cls-18" points="91.07 145.38 97.92 150.36 82.77 167.88 79.1 165.21 91.07 145.38"/><polygon class="cls-18" points="92.71 150.36 99.56 145.39 111.54 165.21 107.86 167.88 92.71 150.36"/><polygon class="cls-18" points="97.95 150.35 95.33 142.3 117.89 137.03 119.29 141.35 97.95 150.35"/><circle class="cls-16" cx="414.49" cy="146.75" r="36.86"/><circle class="cls-17" cx="414.49" cy="146.75" r="28.65"/><circle class="cls-18" cx="414.49" cy="146.75" r="25.81"/><circle class="cls-19" cx="414.49" cy="146.75" r="22.61"/><circle class="cls-20" cx="419.58" cy="169.71" r="20.3" transform="translate(-36.84 112.81) rotate(-17.72)"/><circle class="cls-18" cx="414.49" cy="146.75" r="4.65"/><polygon class="cls-18" points="418.73 145.36 410.26 145.36 412.22 122.28 416.77 122.28 418.73 145.36"/><polygon class="cls-18" points="414.48 142.29 411.86 150.34 390.52 141.34 391.92 137.02 414.48 142.29"/><polygon class="cls-18" points="410.25 145.38 417.1 150.36 401.94 167.88 398.27 165.21 410.25 145.38"/><polygon class="cls-18" points="411.88 150.36 418.73 145.39 430.71 165.21 427.03 167.88 411.88 150.36"/><polygon class="cls-18" points="417.12 150.35 414.5 142.3 437.06 137.03 438.46 141.35 417.12 150.35"/><path class="cls-9" d="M147.42,88.77c4.25,1.1,7.6,2.31,10,2.31,4.18,0,8.05-1.09,9.45-2.17s50.8-35.63,55.29-38.57,2.17-5.88,0-5.88h-.44c-1.43.71-2.86,1.46-4.31,2.27-25.81,14.45-59.63,39.26-70,42Z" transform="translate(-5.09 -22.96)"/><path class="cls-9" d="M387.56,39.28c-.76.83-.67,2.18,1.15,3.63,3,2.37,44,22.4,48.85,24.88,4.62,2.36,10.48,2.57,18.24,2.58C444.06,65.7,400.25,44.44,387.56,39.28Z" transform="translate(-5.09 -22.96)"/><path class="cls-21" d="M63.55,110.75c-6.48,1-21.53,3.25-26.65,5.42S19.4,129.7,20.18,132.85s7,2.22,15.33,1.29,17.81-3.36,23.23-7.49S74.93,109,63.55,110.75Z" transform="translate(-5.09 -22.96)"/><path class="cls-22" d="M58.74,126.65c5.43-4.13,16.19-17.64,4.81-15.9-1.86.28-4.43.67-7.26,1.13C52.12,115,42.06,123.22,39,133.67,46.37,132.51,54.06,130.22,58.74,126.65Z" transform="translate(-5.09 -22.96)"/><path class="cls-21" d="M485.16,90.15v16.73a6.19,6.19,0,0,0,6.19,6.19H508.6c-.68-6.56-.67-13.95-1.34-19.52-.46-3.9-.85-6.9-1-8.1-.07-.47-.13-1-.19-1.5H491.35A6.2,6.2,0,0,0,485.16,90.15Z" transform="translate(-5.09 -22.96)"/><path class="cls-23" d="M485.16,106.88a6.19,6.19,0,0,0,6.19,6.19h18.1c-.68-6.57-1.52-13.95-2.18-19.51H485.16Z" transform="translate(-5.09 -22.96)"/><path class="cls-14" d="M144.85,89.3l.94-.17H144a11,11,0,0,1-3.31,2l-2-1.94A2.81,2.81,0,0,0,136,91.93V93.1a2.79,2.79,0,0,0,.64,1.76c3.79-.13,6.36-.19,7.16-.21A13.77,13.77,0,0,0,144.85,89.3Z" transform="translate(-5.09 -22.96)"/><path class="cls-10" d="M470.37,74.32l28-28c-3.4-1.94-7.8-2.63-13.72,3.3-7.67,7.66-16.87,17.28-23,22l4.53,3.59C467.09,76.11,469.45,75.24,470.37,74.32Z" transform="translate(-5.09 -22.96)"/><path class="cls-10" d="M144.3,95.57H144c-.11,0-2.4,0-6.17.17a2.93,2.93,0,0,0,.9.16h10.8a2.81,2.81,0,0,0,2.81-2.81V91.93a2.81,2.81,0,0,0-2.81-2.8h-3.78c-.08,2-.38,4.62-1.36,6.23Z" transform="translate(-5.09 -22.96)"/><path class="cls-10" d="M144,89.13c.44-.36.87-.72,1.25-1.07-11.65-8.32-43.14-38.31-65.36-49.62C66.72,31.75,54.34,25.47,43.17,23a20,20,0,0,0,1.49,1.63l.07.07c2.63,2.62,15.67,8.59,26.14,13.39,2.55,1.16,5,2.27,7.09,3.26,18.7,8.74,51.84,39.48,60.66,47.83H144Z" transform="translate(-5.09 -22.96)"/><path class="cls-10" d="M144,89.13h-5.34l2,1.94A11,11,0,0,0,144,89.13Z" transform="translate(-5.09 -22.96)"/><path class="cls-13" d="M29,116.45c3.88,0,16.84-4.83,28.28-9.08,2.62-1,5.11-1.9,7.31-2.7,17.88-6.49,57.93-8.41,73.31-8.92a2.94,2.94,0,0,1-1.27-.89c-16.23.57-54.82,2.57-72.36,8.94-2.2.8-4.7,1.73-7.32,2.7-10.8,4-24.24,9-27.95,9h-.1a20.33,20.33,0,0,1-2.21-.1l-1.18.78a20.62,20.62,0,0,0,3.39.25Z" transform="translate(-5.09 -22.96)"/><path class="cls-13" d="M137.87,95.75c3.77-.13,6.06-.17,6.17-.17h.26l.13-.21c1-1.61,1.28-4.25,1.36-6.23l-.94.17a13.77,13.77,0,0,1-1.09,5.35c-.8,0-3.37.08-7.16.21A2.94,2.94,0,0,0,137.87,95.75Z" transform="translate(-5.09 -22.96)"/><path class="cls-13" d="M465.76,79.92c-1.29,0-3.58-1-3.58-2.35l-.67-5.74-.94-.13.68,5.87c0,1.81,2.71,3.27,4.51,3.27h39.81c-.07-.3-.14-.61-.22-.92Z" transform="translate(-5.09 -22.96)"/><circle class="cls-12" cx="459.24" cy="102.08" r="7.59" transform="translate(-16.26 85.28) rotate(-13.28)"/><path class="cls-13" d="M347,42.41c-12.8-.15-51.62,0-51.62,0-.16.1-39.62-2.41-61.72,9.75-25.89,14.25-67.56,45.75-70.78,48.64-7.92,7.12-9.44,11.71-8.52,25.88S159,168,159.44,169.82a5.36,5.36,0,0,0,5.25,4H359.08c3.83,0,6.11-1.79,7.86-6.17.29-.71.67-1.81,1.14-3.2,2.59-7.52,8.63-25.12,19.35-35.83,3.21-3.2,6.28-6.18,9-8.8,8.18-7.92,14.1-13.63,15.29-17.57s9.19-22.51,6-25.14C391.76,55.33,366,42.65,347,42.41ZM164.69,172.85a4.44,4.44,0,0,1-4.35-3.25c-.45-1.86-4.18-28.82-5.1-43-.9-13.8.56-18.26,8.21-25.13,3.19-2.86,44.68-32.66,69.69-47.87,19.7-12,61-10.1,61.19-10.2,0,0-14.21,85.51-14.25,129.43Zm246.14-70.91c-1.12,3.71-7,9.35-15.05,17.17-2.72,2.63-5.79,5.6-9,8.81-10.88,10.87-17,28.61-19.58,36.19-.47,1.38-.84,2.47-1.12,3.16-1.85,4.63-4.14,5.58-7,5.58H284.73c0-43.85,14.46-129,14.51-129.36,0,0,34.56-.07,46.85-.13,19.08-.1,49.39,14.92,70.52,34.55C419.39,80.5,411.86,98.54,410.83,101.94Z" transform="translate(-5.09 -22.96)"/><path class="cls-13" d="M459.24,93.56a8.52,8.52,0,1,0,8.52,8.52A8.53,8.53,0,0,0,459.24,93.56Zm0,16.1a7.59,7.59,0,1,1,7.59-7.58A7.6,7.6,0,0,1,459.24,109.66Z" transform="translate(-5.09 -22.96)"/><path class="cls-10" d="M192.26,58c-15.54,15.88-32.14,40.66-33.54,43.52-3.36,6.87-4,11.33-3.61,25.13.4,14.16,4.89,40.35,5.08,42.21.18,1.61,3.47,4,4.5,4h46.17l9-2.48c0-11.3-4.54-22.88-3.92-37.52,1.78-42.27,6.58-90.59,6.58-90.59C220.53,42.26,210.43,39.4,192.26,58Z" transform="translate(-5.09 -22.96)"/><path class="cls-9" d="M217.38,45.9a21.22,21.22,0,0,0-9.44,2.48c-5.6,3.47-10,6.19-17.23,15.9s-16.64,24-16.82,26.64.81,6.41,3.35,6.41h30Z" transform="translate(-5.09 -22.96)"/><path class="cls-24" d="M197.21,97.33l12-48.95c-.79,0-7.49,4-10.61,7.73L185.21,97.33Z" transform="translate(-5.09 -22.96)"/><path class="cls-11" d="M160.19,168.83a4.5,4.5,0,0,0,4.1,4h46.93c0-8.06-2.26-17.53-1.92-27.61H156.78C158.22,156.92,160.09,167.64,160.19,168.83Z" transform="translate(-5.09 -22.96)"/><path class="cls-10" d="M307.84,43.36c-5.07.1-9.7.13-9.7.13,0,.2-7.37,30.73-12.28,64.62A482.25,482.25,0,0,0,281,172.85h32.18c1.18,0,2.12-.95,2.88-5.58.12-.69.27-1.78.47-3.16,1.07-7.58,3.58-25.32,8.06-36.19,1.33-3.21,2.6-6.18,3.71-8.81,3.34-7.82,5.74-13.46,6.21-17.17.42-3.4,3.53-21.44,2.38-24C328.19,58.28,311,43.29,307.84,43.36Z" transform="translate(-5.09 -22.96)"/><path class="cls-9" d="M332.27,77C329.81,68,313.59,45.9,306.81,45.9h-4.76l-8.93,51.43h33.65C328.69,97.33,333.93,83.11,332.27,77Z" transform="translate(-5.09 -22.96)"/><path class="cls-24" d="M313.34,49.52c-2.53-2.23-4.82-3.62-6.53-3.62h-3.09l-8.05,51.43h10.18Z" transform="translate(-5.09 -22.96)"/><path class="cls-24" d="M325.19,63.59c-1.46-2.15-3-4.3-4.67-6.33l-6.28,40.07h5.66Z" transform="translate(-5.09 -22.96)"/><path class="cls-11" d="M281,172.85H312c1.18,0,2.12-.95,2.89-5.58.11-.69.26-1.78.46-3.16.59-4.16,1.62-11.4,3.16-18.87l-36.14.08A249.83,249.83,0,0,0,281,172.85Z" transform="translate(-5.09 -22.96)"/><path class="cls-9" d="M212.51,172.4l4.89-1.35a3.3,3.3,0,0,0,2.44-3.39c-.07-1.12-.21-2.6-.46-4.48-3.2-23.11-3.47-29.09-3.11-36.53.82-16.59,7.76-67.84,9.49-80.42a2.57,2.57,0,0,0-2.45-2.91l-.75,0s-11.11,64.3-12.58,83.19C208.94,139.87,212.51,172.4,212.51,172.4Z" transform="translate(-5.09 -22.96)"/></g><g id="Criminal"><path class="cls-5" d="M296.48,33.71H277.09c-9.45,0-30-1.21-53.21,9.69a2.61,2.61,0,0,0-.57-.09l-.75,0-.14.81,0,0c.11-1.21.18-1.87.18-1.87-2,0-12.12-2.86-30.29,15.71-2.93,3-5.9,6.31-8.8,9.74-15.85,10.24-30,19.43-36,21.06,0,0,9.31,7.7,10.32,11.41.62,2.32-1.34,7.1-2,9.41-1.47,5.2-1.68,8.36-.74,21.58.89,12.66,7.63,57.18,7.63,57.18H281s-.91-31.89,1.24-53.46C284,117.8,296.48,33.71,296.48,33.71Z" transform="translate(-5.09 -22.96)"/><path class="cls-7" d="M376.52,188.35A106.63,106.63,0,0,1,388.79,190,36.87,36.87,0,0,0,454,182.86c2.35-.64,6.93-2.21,8.62-2.21v-.31c9.64-.89,27.45-3.46,31.61-4.64,6.55-1.86,10.93-3,14.25-6.58,2-2.08,3.56-5,5-9.61v0c.23-.73.45-1.44.65-2.14.07-.24.14-.48.2-.72.13-.45.25-.9.37-1.34l.21-.88c.09-.36.18-.73.26-1.08s.15-.66.22-1l.18-.88c.07-.36.13-.71.2-1.06l.12-.7.18-1.13c0-.17.05-.34.07-.52.06-.4.11-.8.16-1.2l0-.3c.05-.44.1-.88.14-1.3h0c.41-4.64.08-7.86-.31-9-.72-2.06-5.58-2.68-5.58-8.46,0-2.17-.52-8-1.21-14.72h0c-.68-6.57-1.52-13.95-2.18-19.51h0c-.31-2.64-.59-4.86-.8-6.39-.09-.73-.18-1.32-.24-1.71h0c-.07-.47-.13-1-.19-1.5h0c-.12-1-.24-2-.46-3.11h0c-.07-.31-.14-.61-.22-.92H465.76c-1.29,0-3.58-1-3.58-2.35l0-.27,6.06.18a2.78,2.78,0,0,0,.64-1.75v-.48a4.63,4.63,0,0,0,1.52-.93l28-28c-3.4-1.94-7.8-2.63-13.72,3.3-7.67,7.66-16.87,17.28-23,22l.18.14H461l-.38,0h0c-.92-.15-1.76-.31-2.47-.5-.49-.14-1.29-.43-2.3-.83.16,1.87-19,41.47-37.44,56.3a41.55,41.55,0,0,0-32.31,16.19C371,162.05,376.52,188.35,376.52,188.35Z" transform="translate(-5.09 -22.96)"/><path class="cls-4" d="M155.75,109.59c.65-2.31,2.61-7.09,2-9.41C156.88,97,150,91,148,89.24l-1.07-.35-1.12.24H144c.44-.36.87-.72,1.25-1.07-11.65-8.32-43.14-38.31-65.36-49.62C66.72,31.75,54.34,25.47,43.17,23a20,20,0,0,0,1.49,1.63l.07.07c2.63,2.62,15.67,8.59,26.14,13.39,2.55,1.16,5,2.27,7.09,3.26,18.7,8.74,51.84,39.48,60.66,47.83A2.81,2.81,0,0,0,136,91.93V93.1a2.79,2.79,0,0,0,.64,1.76c-16.23.57-54.82,2.57-72.36,8.94-2.2.8-4.7,1.73-7.32,2.7-10.8,4-24.24,9-27.95,9h-.1a20.33,20.33,0,0,1-2.21-.1l-1.18.78h0a44.23,44.23,0,0,0-5.34,4.14A27.23,27.23,0,0,0,11.5,135a116.7,116.7,0,0,0-2,11.78,1.94,1.94,0,0,0,0,.24c0,.49-.09,1-.11,1.39a.49.49,0,0,0,0,.12c0,.4,0,.79-.05,1.15v.18c0,.38,0,.73,0,1.07a.92.92,0,0,1,0,.16c0,.31,0,.6.06.88,0,0,0,.06,0,.09,0,.29.07.56.12.82a.59.59,0,0,0,0,.14c0,.25.11.49.17.71h0c.07.22.14.41.22.6a1.17,1.17,0,0,0,0,.11,3.36,3.36,0,0,0,.26.5l0,0c.09.14.19.27.29.4l.06.07c.11.12.23.23.35.34a.1.1,0,0,1,0,0,2.82,2.82,0,0,0,.36.24l.06,0,.42.21.09,0,.42.15,0,0,.49.12.12,0,.52.09h0l4.66,18.55H14.45c-1.48,0-2.17,1.12-2.23,2.77a12.67,12.67,0,0,0,1.61,5.9c2.16,4.18,5,4.34,9.75,4.34H57.35c4.8,1.55,9.37,2.78,13.81,3.79a36.86,36.86,0,0,0,59.05-.74c4.24-.89,8.63-1.9,13.26-3.05h19.17s-6.74-44.52-7.63-57.18C154.07,118,154.28,114.79,155.75,109.59Z" transform="translate(-5.09 -22.96)"/><path class="cls-6" d="M386.05,142.86a41.55,41.55,0,0,1,32.31-16.19c18.4-14.83,37.6-54.43,37.44-56.3-6.28-2.5-21.72-9.74-36.68-16.72-13.6-6.36-26.8-12.51-32.33-14.68-7.2-2.83-18-4.15-28.07-4.77.33-2.94,1.49-6.92-.93-6.92s-7.16,3.62-8.71,6.51c-3.75-.09-7.1-.11-9.73-.11l-42.87,0s-11.64,77.57-14.16,102.78C281,149.94,281,188.35,281,188.35h95.51S371,162.05,386.05,142.86Z" transform="translate(-5.09 -22.96)"/></g></svg>