<svg xmlns="http://www.w3.org/2000/svg" viewBox="0 0 515.71 279.77"><defs><style>.cls-1,.cls-21{fill:#6f559c;}.cls-1,.cls-14,.cls-15,.cls-16,.cls-2,.cls-3,.cls-4{opacity:0.5;}.cls-2{fill:#a1b0d6;}.cls-19,.cls-3{fill:#009fe3;}.cls-18,.cls-4{fill:#f5ad1f;}.cls-5{fill:#93a18b;}.cls-6{fill:#3bb5a6;}.cls-7{fill:#fff;}.cls-13,.cls-8{fill:#ad1f17;}.cls-9{fill:#10b09c;}.cls-10{fill:#3f4855;}.cls-11{fill:#d93425;}.cls-12{fill:#019b86;}.cls-13{opacity:0.3;}.cls-14,.cls-20{fill:#009640;}.cls-15,.cls-17{fill:#e94e1b;}.cls-16,.cls-22{fill:#e6007e;}.cls-17,.cls-18,.cls-19,.cls-20,.cls-21,.cls-22{opacity:0.7;}</style></defs><title>G08_18_04_b</title><g id="Livello_1" data-name="Livello 1"><rect class="cls-1" y="174.18" width="515.71" height="16.8" rx="8.4" ry="8.4"/></g><g id="Workers"><rect class="cls-2" x="10.98" y="224" width="22.31" height="22.31"/><rect class="cls-3" x="99.7" y="224" width="22.31" height="22.31"/><rect class="cls-4" x="10.98" y="257.46" width="22.31" height="22.31"/><path class="cls-5" d="M48.48,286.22c0,.15,0,.27,0,.38a.7.7,0,0,1-.06.24.39.39,0,0,1-.1.14.2.2,0,0,1-.13,0H43.09a.64.64,0,0,1-.43-.15.62.62,0,0,1-.17-.5v-8.81a.63.63,0,0,1,.17-.5.64.64,0,0,1,.43-.15h5a.28.28,0,0,1,.13,0,.42.42,0,0,1,.09.14.76.76,0,0,1,.06.25,3.79,3.79,0,0,1,0,.38c0,.15,0,.27,0,.38a.7.7,0,0,1-.06.24.56.56,0,0,1-.09.14.2.2,0,0,1-.13,0H44.53V281h3.06a.33.33,0,0,1,.13,0,.38.38,0,0,1,.09.14.7.7,0,0,1,.06.24,3.57,3.57,0,0,1,0,.37,3.41,3.41,0,0,1,0,.37.7.7,0,0,1-.06.24.27.27,0,0,1-.09.13.22.22,0,0,1-.13,0H44.53v2.85h3.64a.21.21,0,0,1,.13,0,.28.28,0,0,1,.1.13.76.76,0,0,1,.06.25A3.79,3.79,0,0,1,48.48,286.22Z" transform="translate(-5.09 -12.69)"/><path class="cls-5" d="M56.83,286.76a.21.21,0,0,1,0,.13.36.36,0,0,1-.15.1,1.13,1.13,0,0,1-.3.06l-.48,0-.48,0a1,1,0,0,1-.3-.06.36.36,0,0,1-.15-.1.17.17,0,0,1-.05-.13v-4a3.34,3.34,0,0,0-.08-.8,1.57,1.57,0,0,0-.21-.49.92.92,0,0,0-.36-.32,1.11,1.11,0,0,0-.52-.12,1.26,1.26,0,0,0-.76.28,3.93,3.93,0,0,0-.8.79v4.64a.17.17,0,0,1,0,.13.34.34,0,0,1-.16.1,1,1,0,0,1-.3.06l-.47,0-.48,0a1.13,1.13,0,0,1-.3-.06.34.34,0,0,1-.16-.1.21.21,0,0,1,0-.13v-7a.33.33,0,0,1,0-.14.39.39,0,0,1,.14-.1l.26-.06.41,0,.41,0,.25.06a.28.28,0,0,1,.13.1.23.23,0,0,1,0,.14v.8a4.68,4.68,0,0,1,1.18-.94,2.74,2.74,0,0,1,1.24-.31,2.67,2.67,0,0,1,1.2.24,2,2,0,0,1,.79.63,2.71,2.71,0,0,1,.44.94,5.49,5.49,0,0,1,.13,1.3Z" transform="translate(-5.09 -12.69)"/><path class="cls-5" d="M65,280.27a1.33,1.33,0,0,1-.09.56q-.08.18-.21.18h-.82a1,1,0,0,1,.25.42,1.68,1.68,0,0,1,.07.5A2.67,2.67,0,0,1,64,283a2.23,2.23,0,0,1-.58.8,2.61,2.61,0,0,1-.92.49,4,4,0,0,1-1.19.17,2.74,2.74,0,0,1-.64-.08,1.61,1.61,0,0,1-.47-.2,1.2,1.2,0,0,0-.16.25.62.62,0,0,0-.08.31.45.45,0,0,0,.2.37,1,1,0,0,0,.56.16l1.69.06a4.13,4.13,0,0,1,1.06.17,2.22,2.22,0,0,1,.78.41,1.68,1.68,0,0,1,.49.63,2,2,0,0,1,.17.83,2.16,2.16,0,0,1-.23,1,2.24,2.24,0,0,1-.68.8,3.55,3.55,0,0,1-1.14.53,5.77,5.77,0,0,1-1.59.19,6.67,6.67,0,0,1-1.52-.14,3.23,3.23,0,0,1-1-.39,1.51,1.51,0,0,1-.58-.6A1.61,1.61,0,0,1,58,288a2,2,0,0,1,.06-.49,1.82,1.82,0,0,1,.2-.45,2.33,2.33,0,0,1,.31-.41,4,4,0,0,1,.43-.37,1.44,1.44,0,0,1-.52-.49,1.33,1.33,0,0,1-.18-.68,1.72,1.72,0,0,1,.21-.84,2.53,2.53,0,0,1,.55-.68,2.06,2.06,0,0,1-.44-.66,2.39,2.39,0,0,1-.16-1,2.68,2.68,0,0,1,.21-1.09,2.2,2.2,0,0,1,.6-.81,2.69,2.69,0,0,1,.91-.51,3.68,3.68,0,0,1,1.17-.18,6.26,6.26,0,0,1,.63,0,4.27,4.27,0,0,1,.56.11h2.21c.09,0,.16.06.22.17A1.59,1.59,0,0,1,65,280.27ZM63,287.48a.64.64,0,0,0-.28-.54,1.54,1.54,0,0,0-.78-.2l-1.4,0a2.37,2.37,0,0,0-.32.29,1.51,1.51,0,0,0-.2.26.78.78,0,0,0-.09.24,1,1,0,0,0,0,.24.66.66,0,0,0,.4.6,2.53,2.53,0,0,0,1.11.2,2.65,2.65,0,0,0,.75-.09,1.4,1.4,0,0,0,.49-.24.82.82,0,0,0,.27-.33A1,1,0,0,0,63,287.48Zm-.46-5.56a1.11,1.11,0,0,0-1.2-1.19,1.19,1.19,0,0,0-.51.1,1.07,1.07,0,0,0-.36.27.92.92,0,0,0-.21.39,1.43,1.43,0,0,0-.07.46,1.1,1.1,0,0,0,.31.84,1.15,1.15,0,0,0,.86.31,1.38,1.38,0,0,0,.52-.09,1,1,0,0,0,.36-.26,1.11,1.11,0,0,0,.22-.38A1.33,1.33,0,0,0,62.52,281.92Z" transform="translate(-5.09 -12.69)"/><path class="cls-5" d="M68.46,277.43a1.12,1.12,0,0,1-.24.82,1.34,1.34,0,0,1-.9.22,1.36,1.36,0,0,1-.89-.21,1.05,1.05,0,0,1-.23-.79,1.19,1.19,0,0,1,.23-.83,1.35,1.35,0,0,1,.91-.23,1.32,1.32,0,0,1,.89.23A1.08,1.08,0,0,1,68.46,277.43Zm-.15,9.33a.2.2,0,0,1,0,.13.4.4,0,0,1-.16.1,1.13,1.13,0,0,1-.3.06l-.48,0-.48,0a1.13,1.13,0,0,1-.3-.06.4.4,0,0,1-.16-.1.21.21,0,0,1,0-.13v-7a.21.21,0,0,1,0-.13.41.41,0,0,1,.16-.11,1.76,1.76,0,0,1,.3-.06,3.85,3.85,0,0,1,1,0,1.76,1.76,0,0,1,.3.06.41.41,0,0,1,.16.11.2.2,0,0,1,0,.13Z" transform="translate(-5.09 -12.69)"/><path class="cls-5" d="M76.93,286.76a.17.17,0,0,1-.05.13.36.36,0,0,1-.15.1,1.13,1.13,0,0,1-.3.06l-.48,0-.48,0a1.13,1.13,0,0,1-.3-.06.36.36,0,0,1-.15-.1.21.21,0,0,1,0-.13v-4a3.42,3.42,0,0,0-.07-.8,1.58,1.58,0,0,0-.22-.49.86.86,0,0,0-.36-.32,1.08,1.08,0,0,0-.52-.12,1.26,1.26,0,0,0-.76.28,4.2,4.2,0,0,0-.8.79v4.64a.2.2,0,0,1,0,.13.4.4,0,0,1-.16.1,1.13,1.13,0,0,1-.3.06l-.48,0-.48,0a1.13,1.13,0,0,1-.3-.06.4.4,0,0,1-.16-.1.21.21,0,0,1,0-.13v-7a.33.33,0,0,1,0-.14.39.39,0,0,1,.14-.1l.27-.06.4,0,.41,0,.26.06a.34.34,0,0,1,.13.1.32.32,0,0,1,0,.14v.8a4.68,4.68,0,0,1,1.18-.94,2.87,2.87,0,0,1,2.45-.07,2,2,0,0,1,.78.63,2.71,2.71,0,0,1,.44.94,5.49,5.49,0,0,1,.13,1.3Z" transform="translate(-5.09 -12.69)"/><path class="cls-5" d="M85.3,283.07a.78.78,0,0,1-.16.53.6.6,0,0,1-.44.17H80.45a2.88,2.88,0,0,0,.11.81,1.5,1.5,0,0,0,.34.62,1.34,1.34,0,0,0,.59.38,2.48,2.48,0,0,0,.87.14,4.89,4.89,0,0,0,.91-.08,6.06,6.06,0,0,0,.67-.16l.48-.17a.79.79,0,0,1,.3-.07.21.21,0,0,1,.12,0,.29.29,0,0,1,.08.1.69.69,0,0,1,0,.19,3.22,3.22,0,0,1,0,.33,2.53,2.53,0,0,1,0,.29,1.25,1.25,0,0,1,0,.21.46.46,0,0,1,0,.14.83.83,0,0,1-.08.12,1.44,1.44,0,0,1-.28.15A4.56,4.56,0,0,1,84,287c-.23.06-.5.11-.8.16a7.43,7.43,0,0,1-1,.06,5.34,5.34,0,0,1-1.63-.23,3.14,3.14,0,0,1-1.17-.71,3.07,3.07,0,0,1-.7-1.21,5.73,5.73,0,0,1-.23-1.7,5.49,5.49,0,0,1,.25-1.68,3.51,3.51,0,0,1,.7-1.26,3,3,0,0,1,1.12-.79,3.73,3.73,0,0,1,1.49-.28,3.9,3.9,0,0,1,1.49.26,2.63,2.63,0,0,1,1,.71,2.81,2.81,0,0,1,.59,1.09,4.52,4.52,0,0,1,.19,1.36Zm-1.91-.56a2,2,0,0,0-.33-1.3,1.28,1.28,0,0,0-1.1-.48,1.45,1.45,0,0,0-.65.14,1.42,1.42,0,0,0-.46.38,1.73,1.73,0,0,0-.28.56,2.63,2.63,0,0,0-.12.7Z" transform="translate(-5.09 -12.69)"/><path class="cls-5" d="M48.27,252.16a3.22,3.22,0,0,1,0,.33,1.33,1.33,0,0,1,0,.24.49.49,0,0,1-.06.17l-.12.16a1.89,1.89,0,0,1-.34.23,4.37,4.37,0,0,1-.6.27,6.77,6.77,0,0,1-.81.21,5.13,5.13,0,0,1-1,.09,5.24,5.24,0,0,1-1.87-.32,3.8,3.8,0,0,1-1.43-1,4.09,4.09,0,0,1-.89-1.59,7.76,7.76,0,0,1,0-4.51,4.93,4.93,0,0,1,1-1.68,4.07,4.07,0,0,1,1.48-1,5.06,5.06,0,0,1,1.9-.35,4.28,4.28,0,0,1,.81.07,7.08,7.08,0,0,1,.73.18,3.6,3.6,0,0,1,.59.27,1.44,1.44,0,0,1,.37.25.7.7,0,0,1,.15.18.38.38,0,0,1,.06.18,1.45,1.45,0,0,1,0,.25c0,.1,0,.22,0,.37s0,.29,0,.4a1.2,1.2,0,0,1,0,.26.36.36,0,0,1-.1.15A.17.17,0,0,1,48,246a.56.56,0,0,1-.3-.14,4.64,4.64,0,0,0-.46-.3,3.94,3.94,0,0,0-.68-.31,2.92,2.92,0,0,0-.94-.13,2.38,2.38,0,0,0-1.08.24,2.35,2.35,0,0,0-.8.71,3.39,3.39,0,0,0-.51,1.1,5.91,5.91,0,0,0-.17,1.46,5.48,5.48,0,0,0,.19,1.55,2.89,2.89,0,0,0,.52,1.07,2.18,2.18,0,0,0,.82.63,2.67,2.67,0,0,0,1.08.21,3.3,3.3,0,0,0,1-.13,4,4,0,0,0,.68-.29,5.3,5.3,0,0,0,.47-.28.6.6,0,0,1,.28-.12.19.19,0,0,1,.21.15,1.3,1.3,0,0,1,0,.26A2.9,2.9,0,0,1,48.27,252.16Z" transform="translate(-5.09 -12.69)"/><path class="cls-5" d="M55.57,253.45a.21.21,0,0,1-.08.17.45.45,0,0,1-.25.09,2.93,2.93,0,0,1-.49,0,3.19,3.19,0,0,1-.52,0,.38.38,0,0,1-.22-.09.21.21,0,0,1-.07-.17v-.55a3.31,3.31,0,0,1-1,.72,2.86,2.86,0,0,1-1.22.25,3.64,3.64,0,0,1-1-.14,2.42,2.42,0,0,1-.81-.43,2,2,0,0,1-.52-.71,2.32,2.32,0,0,1-.19-1,2.21,2.21,0,0,1,.24-1.06,1.86,1.86,0,0,1,.71-.74,3.57,3.57,0,0,1,1.17-.44,8.8,8.8,0,0,1,1.64-.14h.68v-.42a2.34,2.34,0,0,0-.07-.57.9.9,0,0,0-.22-.41,1,1,0,0,0-.4-.25,2.28,2.28,0,0,0-.63-.07,3,3,0,0,0-.88.11,4.6,4.6,0,0,0-.69.24l-.49.24a.75.75,0,0,1-.33.11.24.24,0,0,1-.15-.06.37.37,0,0,1-.11-.15.83.83,0,0,1-.06-.25,1.69,1.69,0,0,1,0-.33,1.76,1.76,0,0,1,0-.38.68.68,0,0,1,.15-.26,1.54,1.54,0,0,1,.38-.25,5.71,5.71,0,0,1,.64-.25,6.24,6.24,0,0,1,.8-.19,5.29,5.29,0,0,1,.9-.08,5.62,5.62,0,0,1,1.4.16,2.31,2.31,0,0,1,1,.5,1.93,1.93,0,0,1,.55.85,4.13,4.13,0,0,1,.17,1.24Zm-1.93-3h-.75a3.92,3.92,0,0,0-.82.07,1.33,1.33,0,0,0-.54.21.83.83,0,0,0-.31.34,1,1,0,0,0-.1.46.84.84,0,0,0,.28.68,1.08,1.08,0,0,0,.77.25,1.45,1.45,0,0,0,.76-.21,3,3,0,0,0,.71-.62Z" transform="translate(-5.09 -12.69)"/><path class="cls-5" d="M64.54,249.85a6.12,6.12,0,0,1-.2,1.67,3.82,3.82,0,0,1-.59,1.27,2.5,2.5,0,0,1-.94.8,2.73,2.73,0,0,1-1.27.28,3.34,3.34,0,0,1-.65-.06,2.25,2.25,0,0,1-.58-.22,3.12,3.12,0,0,1-.55-.37,5.7,5.7,0,0,1-.55-.55v.76a.22.22,0,0,1-.05.14.27.27,0,0,1-.14.1.8.8,0,0,1-.26.05l-.4,0-.4,0a.92.92,0,0,1-.26-.05.28.28,0,0,1-.13-.1.21.21,0,0,1,0-.14V243.15a.25.25,0,0,1,0-.14.49.49,0,0,1,.16-.1,1.61,1.61,0,0,1,.31-.07l.47,0,.48,0a1.67,1.67,0,0,1,.3.07.4.4,0,0,1,.16.1.27.27,0,0,1,0,.14V247a3.71,3.71,0,0,1,.53-.46,4.07,4.07,0,0,1,.53-.31,2.19,2.19,0,0,1,.55-.17,2.74,2.74,0,0,1,.59-.06,2.64,2.64,0,0,1,1.31.31,2.69,2.69,0,0,1,.88.83,3.78,3.78,0,0,1,.5,1.23A6.91,6.91,0,0,1,64.54,249.85Zm-2,.14a6,6,0,0,0-.06-.86,2.5,2.5,0,0,0-.23-.73,1.28,1.28,0,0,0-.43-.51,1.06,1.06,0,0,0-.66-.2,1.21,1.21,0,0,0-.38.06,1.17,1.17,0,0,0-.39.19,2.37,2.37,0,0,0-.41.34,5,5,0,0,0-.44.52v2.32a4,4,0,0,0,.79.8,1.29,1.29,0,0,0,.79.28,1.06,1.06,0,0,0,.65-.19,1.46,1.46,0,0,0,.44-.51,2.6,2.6,0,0,0,.26-.71A4.33,4.33,0,0,0,62.5,250Z" transform="translate(-5.09 -12.69)"/><path class="cls-5" d="M68.23,244.1a1.1,1.1,0,0,1-.24.82,1.34,1.34,0,0,1-.9.23,1.35,1.35,0,0,1-.89-.22,1.05,1.05,0,0,1-.23-.79,1.15,1.15,0,0,1,.23-.83,1.35,1.35,0,0,1,.91-.23,1.32,1.32,0,0,1,.89.23A1.1,1.1,0,0,1,68.23,244.1Zm-.15,9.33a.18.18,0,0,1,0,.13.37.37,0,0,1-.16.1,1.13,1.13,0,0,1-.31.06l-.47,0-.48,0a1.13,1.13,0,0,1-.3-.06.32.32,0,0,1-.16-.1.19.19,0,0,1,0-.13v-7a.21.21,0,0,1,0-.13.32.32,0,0,1,.16-.1,1.67,1.67,0,0,1,.3-.07,3.4,3.4,0,0,1,.48,0,3.18,3.18,0,0,1,.47,0,1.61,1.61,0,0,1,.31.07.37.37,0,0,1,.16.1.2.2,0,0,1,0,.13Z" transform="translate(-5.09 -12.69)"/><path class="cls-5" d="M76.7,253.43a.19.19,0,0,1,0,.13.28.28,0,0,1-.15.1,1.13,1.13,0,0,1-.3.06l-.48,0-.48,0a1.05,1.05,0,0,1-.3-.06.28.28,0,0,1-.15-.1.15.15,0,0,1-.05-.13v-4a3.34,3.34,0,0,0-.08-.8,1.69,1.69,0,0,0-.21-.49.92.92,0,0,0-.36-.32,1.08,1.08,0,0,0-.52-.12,1.32,1.32,0,0,0-.76.28,4,4,0,0,0-.8.8v4.63a.18.18,0,0,1,0,.13.37.37,0,0,1-.16.1,1.13,1.13,0,0,1-.31.06l-.47,0-.48,0a1.13,1.13,0,0,1-.3-.06.32.32,0,0,1-.16-.1.19.19,0,0,1,0-.13v-7a.33.33,0,0,1,0-.14.39.39,0,0,1,.14-.1l.26-.05a4.21,4.21,0,0,1,.82,0,1.2,1.2,0,0,1,.26.05.31.31,0,0,1,.12.1.23.23,0,0,1,0,.14v.8a4.41,4.41,0,0,1,1.18-.93,2.81,2.81,0,0,1,2.44-.08,2,2,0,0,1,.79.64,2.55,2.55,0,0,1,.44.94,5.4,5.4,0,0,1,.13,1.29Z" transform="translate(-5.09 -12.69)"/><path class="cls-5" d="M141.78,253.41a.26.26,0,0,1-.2.24,1.67,1.67,0,0,1-.3.07l-.48,0-.47,0a1.67,1.67,0,0,1-.3-.07.26.26,0,0,1-.2-.24v-8.22h0l-2.92,8.21a.42.42,0,0,1-.11.17.43.43,0,0,1-.19.11,1.82,1.82,0,0,1-.31,0h-.45l-.45,0a1.13,1.13,0,0,1-.31-.06.43.43,0,0,1-.19-.11.31.31,0,0,1-.1-.15L132,245.19h0v8.22a.23.23,0,0,1,0,.14.26.26,0,0,1-.16.1,1.67,1.67,0,0,1-.3.07l-.48,0-.47,0a1.67,1.67,0,0,1-.3-.07.26.26,0,0,1-.2-.24v-9a.78.78,0,0,1,.22-.6.72.72,0,0,1,.56-.22h1.34a2.77,2.77,0,0,1,.62.06,1.19,1.19,0,0,1,.44.2,1.12,1.12,0,0,1,.32.36,3.3,3.3,0,0,1,.22.55l2.18,6h0l2.27-6a3.7,3.7,0,0,1,.22-.55,1.56,1.56,0,0,1,.28-.37,1.07,1.07,0,0,1,.38-.2,2,2,0,0,1,.51-.06H141a1,1,0,0,1,.37.06.72.72,0,0,1,.25.16.93.93,0,0,1,.15.26,1.16,1.16,0,0,1,.05.34Z" transform="translate(-5.09 -12.69)"/><path class="cls-5" d="M146,244.1a1.1,1.1,0,0,1-.24.82,1.34,1.34,0,0,1-.9.23,1.4,1.4,0,0,1-.9-.22,1.1,1.1,0,0,1-.23-.79,1.14,1.14,0,0,1,.24-.83,1.34,1.34,0,0,1,.9-.23,1.29,1.29,0,0,1,.89.23A1.05,1.05,0,0,1,146,244.1Zm-.15,9.33a.19.19,0,0,1-.05.13.28.28,0,0,1-.16.1,1,1,0,0,1-.3.06l-.47,0-.48,0a1,1,0,0,1-.3-.06.28.28,0,0,1-.16-.1.19.19,0,0,1,0-.13v-7a.21.21,0,0,1,0-.13.28.28,0,0,1,.16-.1,1.33,1.33,0,0,1,.3-.07,3.25,3.25,0,0,1,.48,0,3.18,3.18,0,0,1,.47,0,1.33,1.33,0,0,1,.3.07.28.28,0,0,1,.16.1.21.21,0,0,1,.05.13Z" transform="translate(-5.09 -12.69)"/><path class="cls-5" d="M154.4,253.43a.21.21,0,0,1,0,.14.28.28,0,0,1-.13.1.79.79,0,0,1-.25.05l-.4,0-.41,0a.85.85,0,0,1-.25-.05.39.39,0,0,1-.14-.1.21.21,0,0,1,0-.14v-.78a4.38,4.38,0,0,1-1.13.9,2.65,2.65,0,0,1-1.31.32,2.7,2.7,0,0,1-1.35-.31,2.47,2.47,0,0,1-.9-.83,3.52,3.52,0,0,1-.5-1.22,6.43,6.43,0,0,1-.16-1.47,6.53,6.53,0,0,1,.2-1.67,4,4,0,0,1,.58-1.27,2.55,2.55,0,0,1,1-.8,2.87,2.87,0,0,1,1.31-.29,2.3,2.3,0,0,1,1.06.24,3.68,3.68,0,0,1,.95.7v-3.77a.23.23,0,0,1,0-.14.34.34,0,0,1,.16-.11,1,1,0,0,1,.3-.06,3,3,0,0,1,.47,0,3,3,0,0,1,.48,0,1.05,1.05,0,0,1,.3.06.37.37,0,0,1,.15.11.19.19,0,0,1,.05.14Zm-2-4.66a4.41,4.41,0,0,0-.81-.81,1.35,1.35,0,0,0-.81-.28,1.14,1.14,0,0,0-.66.19,1.46,1.46,0,0,0-.44.51,2.36,2.36,0,0,0-.25.72,3.57,3.57,0,0,0-.09.8,6,6,0,0,0,.07.86,3,3,0,0,0,.23.73,1.38,1.38,0,0,0,.43.52,1.11,1.11,0,0,0,.67.2,1.34,1.34,0,0,0,.4-.06,1.73,1.73,0,0,0,.39-.19,2.47,2.47,0,0,0,.41-.35c.14-.14.29-.32.46-.53Z" transform="translate(-5.09 -12.69)"/><path class="cls-5" d="M164.9,251.46a2.38,2.38,0,0,1-.22,1,2.08,2.08,0,0,1-.63.75,2.68,2.68,0,0,1-1,.46,4.59,4.59,0,0,1-1.2.15,4.47,4.47,0,0,1-.75-.06,3.58,3.58,0,0,1-.64-.14,2.69,2.69,0,0,1-.47-.19,1.42,1.42,0,0,1-.27-.17.53.53,0,0,1-.13-.26,2.21,2.21,0,0,1,0-.52,3.21,3.21,0,0,1,0-.36,1,1,0,0,1,0-.22.2.2,0,0,1,.08-.11.21.21,0,0,1,.12,0,.51.51,0,0,1,.25.1,4.08,4.08,0,0,0,.42.21,4.73,4.73,0,0,0,.58.22,2.5,2.5,0,0,0,.76.1,1.74,1.74,0,0,0,.47-.05,1.19,1.19,0,0,0,.36-.16.58.58,0,0,0,.23-.26.78.78,0,0,0,.08-.35.61.61,0,0,0-.15-.41,1.16,1.16,0,0,0-.38-.29,4.61,4.61,0,0,0-.54-.23l-.62-.25c-.21-.09-.41-.19-.61-.3a2.79,2.79,0,0,1-.54-.42,2.07,2.07,0,0,1-.39-.6,2.4,2.4,0,0,1-.14-.85,2.33,2.33,0,0,1,.19-.92,2,2,0,0,1,.57-.71,2.58,2.58,0,0,1,.89-.46,4,4,0,0,1,1.19-.17,4.34,4.34,0,0,1,.63.05,3.91,3.91,0,0,1,.56.12,2.23,2.23,0,0,1,.42.15,1.58,1.58,0,0,1,.25.14.35.35,0,0,1,.1.12.46.46,0,0,1,.05.14c0,.05,0,.12,0,.2a2.63,2.63,0,0,1,0,.3c0,.14,0,.26,0,.35a.87.87,0,0,1,0,.21.2.2,0,0,1-.07.1.23.23,0,0,1-.11,0,.59.59,0,0,1-.22-.08,3.21,3.21,0,0,0-.37-.18,4,4,0,0,0-.52-.17,2.26,2.26,0,0,0-.67-.09,1.6,1.6,0,0,0-.46.06.87.87,0,0,0-.32.16.71.71,0,0,0-.19.23.73.73,0,0,0-.06.3.57.57,0,0,0,.15.4,1.32,1.32,0,0,0,.39.29,4.77,4.77,0,0,0,.55.24l.63.23a5.12,5.12,0,0,1,.62.31,2.06,2.06,0,0,1,.55.42,1.83,1.83,0,0,1,.39.6A2,2,0,0,1,164.9,251.46Z" transform="translate(-5.09 -12.69)"/><path class="cls-5" d="M173,253.43a.18.18,0,0,1,0,.13.32.32,0,0,1-.16.1,1,1,0,0,1-.3.06l-.47,0-.48,0a1,1,0,0,1-.3-.06.28.28,0,0,1-.16-.1.19.19,0,0,1-.05-.13v-4a3.42,3.42,0,0,0-.07-.8,1.47,1.47,0,0,0-.22-.49.86.86,0,0,0-.36-.32,1.08,1.08,0,0,0-.52-.12,1.35,1.35,0,0,0-.76.28,4,4,0,0,0-.79.8v4.63a.19.19,0,0,1,0,.13.32.32,0,0,1-.16.1,1.13,1.13,0,0,1-.3.06l-.48,0-.47,0a1.13,1.13,0,0,1-.31-.06.37.37,0,0,1-.16-.1.18.18,0,0,1,0-.13V243.15a.25.25,0,0,1,0-.14.49.49,0,0,1,.16-.1,1.61,1.61,0,0,1,.31-.07l.47,0,.48,0a1.67,1.67,0,0,1,.3.07.4.4,0,0,1,.16.1.27.27,0,0,1,0,.14V247a3.59,3.59,0,0,1,1-.75,2.64,2.64,0,0,1,1.1-.25,2.73,2.73,0,0,1,1.2.24,2.07,2.07,0,0,1,.79.64,2.66,2.66,0,0,1,.43,1,5.52,5.52,0,0,1,.13,1.31Z" transform="translate(-5.09 -12.69)"/><path class="cls-5" d="M177.08,244.1a1.1,1.1,0,0,1-.24.82,1.34,1.34,0,0,1-.9.23,1.35,1.35,0,0,1-.89-.22,1.05,1.05,0,0,1-.24-.79,1.14,1.14,0,0,1,.24-.83,1.35,1.35,0,0,1,.91-.23,1.32,1.32,0,0,1,.89.23A1.1,1.1,0,0,1,177.08,244.1Zm-.15,9.33a.18.18,0,0,1,0,.13.37.37,0,0,1-.16.1,1.13,1.13,0,0,1-.31.06l-.47,0-.48,0a1.13,1.13,0,0,1-.3-.06.32.32,0,0,1-.16-.1.19.19,0,0,1,0-.13v-7a.21.21,0,0,1,0-.13.32.32,0,0,1,.16-.1,1.67,1.67,0,0,1,.3-.07,3.4,3.4,0,0,1,.48,0,3.18,3.18,0,0,1,.47,0,1.61,1.61,0,0,1,.31.07.37.37,0,0,1,.16.1.2.2,0,0,1,0,.13Z" transform="translate(-5.09 -12.69)"/><path class="cls-5" d="M185.91,249.84a6.67,6.67,0,0,1-.2,1.68,3.91,3.91,0,0,1-.58,1.27,2.64,2.64,0,0,1-1,.8,2.86,2.86,0,0,1-1.3.28,2.47,2.47,0,0,1-.56-.06,1.78,1.78,0,0,1-.49-.17,3.46,3.46,0,0,1-.47-.31,5.81,5.81,0,0,1-.49-.42v3.28a.17.17,0,0,1-.05.14.29.29,0,0,1-.16.11,1.33,1.33,0,0,1-.3.07l-.47,0-.48,0a1.67,1.67,0,0,1-.3-.07.29.29,0,0,1-.16-.11.22.22,0,0,1-.05-.14v-9.73a.33.33,0,0,1,0-.14.32.32,0,0,1,.14-.1,1.2,1.2,0,0,1,.26-.05,2.3,2.3,0,0,1,.4,0,2.18,2.18,0,0,1,.39,0,1.2,1.2,0,0,1,.26.05.32.32,0,0,1,.14.1.33.33,0,0,1,0,.14v.82a7.28,7.28,0,0,1,.59-.55,4.17,4.17,0,0,1,.6-.4,2.71,2.71,0,0,1,.63-.24,3.1,3.1,0,0,1,.69-.08,2.67,2.67,0,0,1,1.31.3,2.5,2.5,0,0,1,.88.83,3.72,3.72,0,0,1,.49,1.22A6.4,6.4,0,0,1,185.91,249.84Zm-2,.14a5.87,5.87,0,0,0-.06-.85,2.5,2.5,0,0,0-.23-.73,1.34,1.34,0,0,0-.42-.51,1.08,1.08,0,0,0-.66-.2,1.26,1.26,0,0,0-.38.06,1.4,1.4,0,0,0-.39.19,2.55,2.55,0,0,0-.41.35,5.12,5.12,0,0,0-.45.52v2.3a4.71,4.71,0,0,0,.79.81,1.27,1.27,0,0,0,.78.28,1.06,1.06,0,0,0,.65-.19,1.53,1.53,0,0,0,.45-.52,2.48,2.48,0,0,0,.25-.71A4.34,4.34,0,0,0,183.86,250Z" transform="translate(-5.09 -12.69)"/><path class="cls-5" d="M238.66,250.66a3,3,0,0,1-.15,1,2.28,2.28,0,0,1-.41.77,2.45,2.45,0,0,1-.62.58,4,4,0,0,1-.8.4,5.17,5.17,0,0,1-.94.23,7.45,7.45,0,0,1-1.1.07H232a.63.63,0,0,1-.43-.15.61.61,0,0,1-.18-.49v-8.82a.6.6,0,0,1,.18-.49.63.63,0,0,1,.43-.16h2.54a7,7,0,0,1,1.57.16,3.21,3.21,0,0,1,1.09.47,2.19,2.19,0,0,1,.68.8,2.73,2.73,0,0,1,.23,1.14,2.63,2.63,0,0,1-.09.7,2.46,2.46,0,0,1-.28.59,2.18,2.18,0,0,1-1,.79,2.62,2.62,0,0,1,.8.28,2.18,2.18,0,0,1,.63.5,2.6,2.6,0,0,1,.43.72A2.75,2.75,0,0,1,238.66,250.66ZM236,246.4a1.53,1.53,0,0,0-.1-.54.88.88,0,0,0-.28-.4,1.24,1.24,0,0,0-.47-.25,2.63,2.63,0,0,0-.76-.09h-1v2.63h1.15a2,2,0,0,0,.71-.11,1.21,1.21,0,0,0,.44-.29,1.1,1.1,0,0,0,.26-.43A1.46,1.46,0,0,0,236,246.4Zm.52,4.33a1.61,1.61,0,0,0-.12-.63,1.2,1.2,0,0,0-.34-.46,1.58,1.58,0,0,0-.58-.29,3.27,3.27,0,0,0-.91-.1h-1.22v2.87h1.48a2.43,2.43,0,0,0,.72-.09,1.37,1.37,0,0,0,.51-.26,1.14,1.14,0,0,0,.34-.44A1.4,1.4,0,0,0,236.53,250.73Z" transform="translate(-5.09 -12.69)"/><path class="cls-5" d="M247.24,249.87a5.53,5.53,0,0,1-.23,1.63,3.41,3.41,0,0,1-.72,1.26,3,3,0,0,1-1.19.82,4.35,4.35,0,0,1-1.68.29,4.67,4.67,0,0,1-1.62-.25,3.06,3.06,0,0,1-1.14-.75,3.21,3.21,0,0,1-.67-1.22,5.43,5.43,0,0,1-.22-1.64,5.2,5.2,0,0,1,.24-1.62,3.49,3.49,0,0,1,.71-1.27,3.33,3.33,0,0,1,1.2-.82,4.45,4.45,0,0,1,1.67-.29,4.68,4.68,0,0,1,1.63.26,3,3,0,0,1,1.13.74,3.11,3.11,0,0,1,.67,1.21A5.54,5.54,0,0,1,247.24,249.87Zm-2,.08a4.72,4.72,0,0,0-.09-.95,2.08,2.08,0,0,0-.27-.75,1.38,1.38,0,0,0-.52-.5,1.69,1.69,0,0,0-.82-.18,1.64,1.64,0,0,0-.76.16,1.36,1.36,0,0,0-.54.47,2.18,2.18,0,0,0-.32.74,4.22,4.22,0,0,0-.11,1,4.72,4.72,0,0,0,.09.95,2.3,2.3,0,0,0,.28.75,1.32,1.32,0,0,0,.52.5,1.8,1.8,0,0,0,.81.17,1.68,1.68,0,0,0,.77-.16,1.33,1.33,0,0,0,.54-.46,2.27,2.27,0,0,0,.32-.74A4.87,4.87,0,0,0,245.22,250Z" transform="translate(-5.09 -12.69)"/><path class="cls-5" d="M259.43,246.44a.88.88,0,0,1,0,.21,2.74,2.74,0,0,1-.08.36l-1.86,6.31a.69.69,0,0,1-.1.21.38.38,0,0,1-.19.13,1.49,1.49,0,0,1-.37.06l-.62,0-.63,0a1.17,1.17,0,0,1-.38-.07.48.48,0,0,1-.2-.12.67.67,0,0,1-.09-.21l-1.17-4.24,0-.07v.07l-1.08,4.24a.51.51,0,0,1-.09.21.37.37,0,0,1-.2.13,1.59,1.59,0,0,1-.38.06l-.63,0-.63,0a1.1,1.1,0,0,1-.37-.07.43.43,0,0,1-.2-.12.67.67,0,0,1-.09-.21L248.16,247c0-.15-.08-.27-.09-.35s0-.16,0-.22a.21.21,0,0,1,0-.13.3.3,0,0,1,.15-.1,1.82,1.82,0,0,1,.31-.05h1a1.06,1.06,0,0,1,.31.06.28.28,0,0,1,.15.1.77.77,0,0,1,.07.16l1.38,5.12,0,.09v-.09l1.3-5.12a.46.46,0,0,1,.07-.16.37.37,0,0,1,.16-.1.84.84,0,0,1,.28-.06h.47a3.11,3.11,0,0,1,.47,0,1.55,1.55,0,0,1,.29.05.35.35,0,0,1,.15.09.59.59,0,0,1,.06.14l1.39,5.16,0,.08v-.09l1.33-5.12a.44.44,0,0,1,.06-.16.32.32,0,0,1,.16-.1,1,1,0,0,1,.3-.06H259a1.43,1.43,0,0,1,.28.05.36.36,0,0,1,.15.1A.2.2,0,0,1,259.43,246.44Z" transform="translate(-5.09 -12.69)"/><path class="cls-5" d="M270.74,249.74a.73.73,0,0,1-.16.53.55.55,0,0,1-.44.17H265.9a2.9,2.9,0,0,0,.1.81,1.62,1.62,0,0,0,.34.62,1.45,1.45,0,0,0,.59.39,2.49,2.49,0,0,0,.87.13,4.81,4.81,0,0,0,.91-.08,6.91,6.91,0,0,0,.68-.16l.47-.16a.84.84,0,0,1,.3-.08.21.21,0,0,1,.12,0,.21.21,0,0,1,.08.1.69.69,0,0,1,0,.2,2.92,2.92,0,0,1,0,.32,2.44,2.44,0,0,1,0,.29,1.25,1.25,0,0,1,0,.21.33.33,0,0,1-.05.15.59.59,0,0,1-.08.11,1.25,1.25,0,0,1-.27.15,5.89,5.89,0,0,1-.58.18c-.24.06-.51.11-.81.16a7.32,7.32,0,0,1-1,.06,5.05,5.05,0,0,1-1.63-.23,2.91,2.91,0,0,1-1.16-.71,2.84,2.84,0,0,1-.7-1.21,6.16,6.16,0,0,1,0-3.37,3.48,3.48,0,0,1,.7-1.27,3,3,0,0,1,1.12-.79,3.73,3.73,0,0,1,1.49-.28,4,4,0,0,1,1.5.26,2.7,2.7,0,0,1,1,.72,2.81,2.81,0,0,1,.58,1.08,4.56,4.56,0,0,1,.19,1.36Zm-1.91-.56a2,2,0,0,0-.33-1.3,1.27,1.27,0,0,0-1.1-.48,1.36,1.36,0,0,0-.65.15,1.28,1.28,0,0,0-.46.37,1.9,1.9,0,0,0-.28.57,2.49,2.49,0,0,0-.11.69Z" transform="translate(-5.09 -12.69)"/><path class="cls-5" d="M278.16,253.29a.56.56,0,0,1,.06.22c0,.05,0,.1-.11.14a1.18,1.18,0,0,1-.34.07l-.6,0h-.57a1.28,1.28,0,0,1-.33,0,.51.51,0,0,1-.18-.08.38.38,0,0,1-.09-.13L274.71,251l-1.29,2.48a.38.38,0,0,1-.09.13.4.4,0,0,1-.16.08,1.19,1.19,0,0,1-.32,0h-.53l-.55,0a.81.81,0,0,1-.29-.07.17.17,0,0,1-.1-.14.43.43,0,0,1,.06-.22l1.93-3.43-1.78-3.22a.64.64,0,0,1-.07-.24.16.16,0,0,1,.1-.15.86.86,0,0,1,.32-.08,5.17,5.17,0,0,1,.61,0h.55l.32,0a.3.3,0,0,1,.17.08.45.45,0,0,1,.1.13l1.24,2.32,1.23-2.32a.3.3,0,0,1,.07-.11.35.35,0,0,1,.15-.08,1.43,1.43,0,0,1,.28-.05h1a.82.82,0,0,1,.3.07.15.15,0,0,1,.08.16.58.58,0,0,1-.09.25l-1.73,3.16Z" transform="translate(-5.09 -12.69)"/><path class="cls-5" d="M283.58,252.74a2.42,2.42,0,0,1,0,.53.58.58,0,0,1-.11.26.69.69,0,0,1-.21.13,2,2,0,0,1-.32.1l-.4.07-.43,0a3.13,3.13,0,0,1-1-.15,1.72,1.72,0,0,1-.71-.46,1.84,1.84,0,0,1-.41-.77,4.13,4.13,0,0,1-.13-1.11v-3.57H279a.25.25,0,0,1-.23-.19,1.71,1.71,0,0,1-.08-.61,3.79,3.79,0,0,1,0-.38,1.85,1.85,0,0,1,.06-.25.34.34,0,0,1,.1-.13.33.33,0,0,1,.14,0h.83v-1.55a.23.23,0,0,1,0-.14.37.37,0,0,1,.15-.11,1.13,1.13,0,0,1,.31-.06l.47,0,.48,0a1,1,0,0,1,.3.06.34.34,0,0,1,.16.11.24.24,0,0,1,.05.14v1.55h1.51a.33.33,0,0,1,.14,0,.34.34,0,0,1,.1.13,1.09,1.09,0,0,1,.05.25,2.12,2.12,0,0,1,0,.38,1.76,1.76,0,0,1-.07.61c-.06.13-.13.19-.23.19h-1.52v3.27a1.64,1.64,0,0,0,.18.86.69.69,0,0,0,.64.28,1.27,1.27,0,0,0,.28,0,.71.71,0,0,0,.22-.06l.16-.06.13,0a.16.16,0,0,1,.09,0,.19.19,0,0,1,.06.11,1,1,0,0,1,0,.22A1.89,1.89,0,0,1,283.58,252.74Z" transform="translate(-5.09 -12.69)"/><path class="cls-5" d="M291.25,249.74a.78.78,0,0,1-.16.53.57.57,0,0,1-.44.17H286.4a2.88,2.88,0,0,0,.11.81,1.5,1.5,0,0,0,.34.62,1.45,1.45,0,0,0,.59.39,2.49,2.49,0,0,0,.87.13,4.89,4.89,0,0,0,.91-.08,6.06,6.06,0,0,0,.67-.16l.48-.16a.84.84,0,0,1,.3-.08.21.21,0,0,1,.12,0,.21.21,0,0,1,.08.1.69.69,0,0,1,0,.2,2.92,2.92,0,0,1,0,.32,2.44,2.44,0,0,1,0,.29,1.25,1.25,0,0,1,0,.21.53.53,0,0,1-.05.15l-.08.11a1.44,1.44,0,0,1-.28.15,4.56,4.56,0,0,1-.58.18c-.23.06-.5.11-.8.16a7.32,7.32,0,0,1-1,.06,5.05,5.05,0,0,1-1.63-.23,3,3,0,0,1-1.17-.71,2.94,2.94,0,0,1-.69-1.21,5.92,5.92,0,0,1,0-3.37,3.48,3.48,0,0,1,.7-1.27,3,3,0,0,1,1.12-.79A3.73,3.73,0,0,1,288,246a4,4,0,0,1,1.5.26,2.7,2.7,0,0,1,1,.72,2.81,2.81,0,0,1,.58,1.08,4.56,4.56,0,0,1,.19,1.36Zm-1.91-.56a2,2,0,0,0-.33-1.3,1.28,1.28,0,0,0-1.1-.48,1.33,1.33,0,0,0-.65.15,1.28,1.28,0,0,0-.46.37,1.69,1.69,0,0,0-.28.57,2.92,2.92,0,0,0-.12.69Z" transform="translate(-5.09 -12.69)"/><path class="cls-5" d="M297.34,247.11c0,.19,0,.34,0,.46a1.43,1.43,0,0,1-.05.28.3.3,0,0,1-.08.14.2.2,0,0,1-.13,0l-.14,0-.18-.06-.21-.05a1.09,1.09,0,0,0-.26,0,1,1,0,0,0-.33.06,1.85,1.85,0,0,0-.34.21,2.24,2.24,0,0,0-.37.38c-.12.15-.26.34-.41.57v4.35a.18.18,0,0,1,0,.13.32.32,0,0,1-.16.1,1.13,1.13,0,0,1-.3.06l-.48,0-.48,0a1.13,1.13,0,0,1-.3-.06.32.32,0,0,1-.16-.1.18.18,0,0,1,0-.13v-7a.32.32,0,0,1,0-.14.36.36,0,0,1,.15-.1,1.2,1.2,0,0,1,.26-.05,2.3,2.3,0,0,1,.4,0,2.43,2.43,0,0,1,.41,0,1.2,1.2,0,0,1,.26.05.34.34,0,0,1,.13.1.33.33,0,0,1,0,.14v.87a5.69,5.69,0,0,1,.51-.65,3.11,3.11,0,0,1,.46-.4,1.47,1.47,0,0,1,.44-.21,1.67,1.67,0,0,1,.44-.06l.22,0,.24,0,.22.07a.37.37,0,0,1,.13.07l.07.09a.86.86,0,0,1,0,.13,1.25,1.25,0,0,1,0,.24C297.34,246.77,297.34,246.92,297.34,247.11Z" transform="translate(-5.09 -12.69)"/><path class="cls-5" d="M300.67,244.1a1.1,1.1,0,0,1-.24.82,1.34,1.34,0,0,1-.9.23,1.35,1.35,0,0,1-.89-.22,1.05,1.05,0,0,1-.24-.79,1.14,1.14,0,0,1,.24-.83,1.35,1.35,0,0,1,.91-.23,1.32,1.32,0,0,1,.89.23A1.1,1.1,0,0,1,300.67,244.1Zm-.15,9.33a.18.18,0,0,1,0,.13.35.35,0,0,1-.17.1,1,1,0,0,1-.3.06l-.47,0-.48,0a1.13,1.13,0,0,1-.3-.06.32.32,0,0,1-.16-.1.19.19,0,0,1-.05-.13v-7a.21.21,0,0,1,.05-.13.32.32,0,0,1,.16-.1,1.67,1.67,0,0,1,.3-.07,3.4,3.4,0,0,1,.48,0,3.18,3.18,0,0,1,.47,0,1.33,1.33,0,0,1,.3.07.35.35,0,0,1,.17.1.2.2,0,0,1,0,.13Z" transform="translate(-5.09 -12.69)"/><path class="cls-5" d="M309.53,249.87a5.53,5.53,0,0,1-.23,1.63,3.41,3.41,0,0,1-.72,1.26,3,3,0,0,1-1.19.82,4.35,4.35,0,0,1-1.68.29,4.67,4.67,0,0,1-1.62-.25,3.06,3.06,0,0,1-1.14-.75,3.21,3.21,0,0,1-.67-1.22,5.43,5.43,0,0,1-.22-1.64,5.2,5.2,0,0,1,.24-1.62,3.49,3.49,0,0,1,.71-1.27,3.33,3.33,0,0,1,1.2-.82,4.45,4.45,0,0,1,1.67-.29,4.68,4.68,0,0,1,1.63.26,3,3,0,0,1,1.13.74,3.11,3.11,0,0,1,.67,1.21A5.54,5.54,0,0,1,309.53,249.87Zm-2,.08a4.72,4.72,0,0,0-.09-.95,2.08,2.08,0,0,0-.27-.75,1.38,1.38,0,0,0-.52-.5,1.69,1.69,0,0,0-.82-.18,1.64,1.64,0,0,0-.76.16,1.36,1.36,0,0,0-.54.47,2.18,2.18,0,0,0-.32.74,4.22,4.22,0,0,0-.11,1,4.72,4.72,0,0,0,.09.95,2.3,2.3,0,0,0,.28.75,1.32,1.32,0,0,0,.52.5,1.8,1.8,0,0,0,.81.17,1.68,1.68,0,0,0,.77-.16,1.33,1.33,0,0,0,.54-.46,2.07,2.07,0,0,0,.31-.74A4.22,4.22,0,0,0,307.51,250Z" transform="translate(-5.09 -12.69)"/><path class="cls-5" d="M315.56,247.11c0,.19,0,.34,0,.46s0,.21-.05.28a.3.3,0,0,1-.08.14.2.2,0,0,1-.13,0l-.14,0-.18-.06-.21-.05a1.09,1.09,0,0,0-.26,0,1,1,0,0,0-.33.06,1.85,1.85,0,0,0-.34.21,2.24,2.24,0,0,0-.37.38c-.12.15-.26.34-.41.57v4.35a.18.18,0,0,1,0,.13.32.32,0,0,1-.16.1,1.13,1.13,0,0,1-.3.06l-.48,0-.48,0a1.13,1.13,0,0,1-.3-.06.32.32,0,0,1-.16-.1.19.19,0,0,1-.05-.13v-7a.33.33,0,0,1,0-.14.39.39,0,0,1,.14-.1,1.46,1.46,0,0,1,.27-.05,2.3,2.3,0,0,1,.4,0,2.43,2.43,0,0,1,.41,0,1.2,1.2,0,0,1,.26.05.34.34,0,0,1,.13.1.32.32,0,0,1,0,.14v.87a7,7,0,0,1,.52-.65,3.11,3.11,0,0,1,.46-.4,1.47,1.47,0,0,1,.44-.21,1.61,1.61,0,0,1,.44-.06l.21,0,.25,0,.22.07a.5.5,0,0,1,.13.07.24.24,0,0,1,.06.09.33.33,0,0,1,0,.13,1.25,1.25,0,0,1,0,.24C315.56,246.77,315.56,246.92,315.56,247.11Z" transform="translate(-5.09 -12.69)"/><path class="cls-5" d="M317.76,255.72a.46.46,0,0,1-.11.16.4.4,0,0,1-.17.1,1.06,1.06,0,0,1-.28.06l-.43,0a3.64,3.64,0,0,1-.52,0,.89.89,0,0,1-.31-.09.25.25,0,0,1-.12-.16.47.47,0,0,1,0-.23l4.67-13.12a.32.32,0,0,1,.1-.17.45.45,0,0,1,.17-.11l.28-.05a2.75,2.75,0,0,1,.43,0,3.79,3.79,0,0,1,.53,0,.89.89,0,0,1,.3.09.25.25,0,0,1,.11.16.47.47,0,0,1,0,.23Z" transform="translate(-5.09 -12.69)"/><path class="cls-5" d="M325.76,244.1a1.1,1.1,0,0,1-.24.82,1.34,1.34,0,0,1-.9.23,1.35,1.35,0,0,1-.89-.22,1.1,1.1,0,0,1-.23-.79,1.14,1.14,0,0,1,.24-.83,1.34,1.34,0,0,1,.9-.23,1.3,1.3,0,0,1,.89.23A1.05,1.05,0,0,1,325.76,244.1Zm-.14,9.33a.19.19,0,0,1-.05.13.32.32,0,0,1-.16.1,1.13,1.13,0,0,1-.3.06l-.48,0-.48,0a1.13,1.13,0,0,1-.3-.06.37.37,0,0,1-.16-.1.18.18,0,0,1,0-.13v-7a.2.2,0,0,1,0-.13.37.37,0,0,1,.16-.1,1.67,1.67,0,0,1,.3-.07,5.77,5.77,0,0,1,1,0,1.67,1.67,0,0,1,.3.07.32.32,0,0,1,.16.1.21.21,0,0,1,.05.13Z" transform="translate(-5.09 -12.69)"/><path class="cls-5" d="M334.23,253.43a.18.18,0,0,1,0,.13.37.37,0,0,1-.16.1,1,1,0,0,1-.3.06l-.47,0-.48,0a1,1,0,0,1-.3-.06.28.28,0,0,1-.16-.1.19.19,0,0,1-.05-.13v-4a3.42,3.42,0,0,0-.07-.8,1.47,1.47,0,0,0-.22-.49.86.86,0,0,0-.36-.32,1.08,1.08,0,0,0-.52-.12,1.35,1.35,0,0,0-.76.28,4,4,0,0,0-.79.8v4.63a.19.19,0,0,1-.05.13.32.32,0,0,1-.16.1,1.13,1.13,0,0,1-.3.06l-.48,0-.48,0a1.13,1.13,0,0,1-.3-.06.32.32,0,0,1-.16-.1.18.18,0,0,1,0-.13v-7a.23.23,0,0,1,0-.14.27.27,0,0,1,.14-.1,1.2,1.2,0,0,1,.26-.05,2.3,2.3,0,0,1,.4,0,2.37,2.37,0,0,1,.41,0,1.2,1.2,0,0,1,.26.05.34.34,0,0,1,.13.1.33.33,0,0,1,0,.14v.8a4.23,4.23,0,0,1,1.17-.93,2.67,2.67,0,0,1,1.25-.32,2.73,2.73,0,0,1,1.2.24,2.07,2.07,0,0,1,.79.64,2.54,2.54,0,0,1,.43.94,5.4,5.4,0,0,1,.13,1.29Z" transform="translate(-5.09 -12.69)"/><path class="cls-5" d="M340.14,252.74a3.26,3.26,0,0,1,0,.53.57.57,0,0,1-.12.26.53.53,0,0,1-.2.13,2,2,0,0,1-.32.1l-.4.07-.44,0a3,3,0,0,1-1-.15,1.6,1.6,0,0,1-.71-.46,1.85,1.85,0,0,1-.42-.77,4.13,4.13,0,0,1-.13-1.11v-3.57h-.84c-.09,0-.17-.06-.22-.19a1.71,1.71,0,0,1-.08-.61,3.79,3.79,0,0,1,0-.38.7.7,0,0,1,.06-.25.27.27,0,0,1,.1-.13.25.25,0,0,1,.13,0h.83v-1.55a.23.23,0,0,1,0-.14.34.34,0,0,1,.16-.11,1.05,1.05,0,0,1,.3-.06l.48,0,.48,0a1.05,1.05,0,0,1,.3.06.37.37,0,0,1,.15.11.19.19,0,0,1,.05.14v1.55h1.52a.28.28,0,0,1,.13,0,.34.34,0,0,1,.1.13.7.7,0,0,1,.06.25,3.79,3.79,0,0,1,0,.38,1.71,1.71,0,0,1-.08.61.25.25,0,0,1-.23.19h-1.52v3.27a1.64,1.64,0,0,0,.18.86.69.69,0,0,0,.64.28,1.14,1.14,0,0,0,.28,0,.77.77,0,0,0,.23-.06l.16-.06a.27.27,0,0,1,.12,0,.16.16,0,0,1,.09,0,.19.19,0,0,1,.07.11c0,.05,0,.13,0,.22A3.36,3.36,0,0,1,340.14,252.74Z" transform="translate(-5.09 -12.69)"/><path class="cls-5" d="M347.8,249.74a.73.73,0,0,1-.16.53.54.54,0,0,1-.44.17H343a2.9,2.9,0,0,0,.1.81,1.77,1.77,0,0,0,.34.62,1.45,1.45,0,0,0,.59.39,2.59,2.59,0,0,0,.88.13,4.78,4.78,0,0,0,.9-.08,6.29,6.29,0,0,0,.68-.16l.47-.16a.94.94,0,0,1,.31-.08.2.2,0,0,1,.11,0,.21.21,0,0,1,.08.1.46.46,0,0,1,0,.2,2.58,2.58,0,0,1,0,.32c0,.12,0,.21,0,.29l0,.21a.54.54,0,0,1,0,.15l-.09.11a1.25,1.25,0,0,1-.27.15,5.14,5.14,0,0,1-.58.18c-.23.06-.5.11-.81.16a7.27,7.27,0,0,1-1,.06,5,5,0,0,1-1.63-.23,2.88,2.88,0,0,1-1.17-.71,3,3,0,0,1-.7-1.21A5.73,5.73,0,0,1,341,250a5.39,5.39,0,0,1,.24-1.67,3.63,3.63,0,0,1,.7-1.27,3,3,0,0,1,1.13-.79,3.69,3.69,0,0,1,1.48-.28,3.91,3.91,0,0,1,1.5.26,2.7,2.7,0,0,1,1,.72,2.83,2.83,0,0,1,.59,1.08,4.92,4.92,0,0,1,.18,1.36Zm-1.9-.56a2,2,0,0,0-.34-1.3,1.26,1.26,0,0,0-1.09-.48,1.4,1.4,0,0,0-.66.15,1.37,1.37,0,0,0-.46.37,1.9,1.9,0,0,0-.28.57,2.93,2.93,0,0,0-.11.69Z" transform="translate(-5.09 -12.69)"/><path class="cls-5" d="M353.9,247.11c0,.19,0,.34,0,.46a.94.94,0,0,1-.05.28.24.24,0,0,1-.08.14.17.17,0,0,1-.13,0l-.14,0-.17-.06-.22-.05a1,1,0,0,0-.26,0,1,1,0,0,0-.32.06,1.57,1.57,0,0,0-.34.21,2.24,2.24,0,0,0-.37.38,4.24,4.24,0,0,0-.41.57v4.35a.19.19,0,0,1-.05.13.28.28,0,0,1-.16.1,1,1,0,0,1-.3.06l-.48,0-.47,0a1,1,0,0,1-.3-.06.28.28,0,0,1-.16-.1.19.19,0,0,1-.05-.13v-7a.23.23,0,0,1,0-.14.32.32,0,0,1,.14-.1l.26-.05a2.36,2.36,0,0,1,.4,0,2.56,2.56,0,0,1,.42,0,1.09,1.09,0,0,1,.25.05.34.34,0,0,1,.13.1.23.23,0,0,1,0,.14v.87a4.76,4.76,0,0,1,.52-.65,2.67,2.67,0,0,1,.46-.4,1.42,1.42,0,0,1,.43-.21A1.72,1.72,0,0,1,353,246l.22,0,.24,0a1,1,0,0,1,.22.07l.14.07a.24.24,0,0,1,.06.09.68.68,0,0,1,0,.13c0,.05,0,.13,0,.24S353.9,246.92,353.9,247.11Z" transform="translate(-5.09 -12.69)"/><path class="cls-5" d="M357.23,244.1a1.1,1.1,0,0,1-.25.82,1.34,1.34,0,0,1-.9.23,1.35,1.35,0,0,1-.89-.22,1.1,1.1,0,0,1-.23-.79,1.14,1.14,0,0,1,.24-.83,1.34,1.34,0,0,1,.9-.23,1.3,1.3,0,0,1,.89.23A1.05,1.05,0,0,1,357.23,244.1Zm-.15,9.33a.19.19,0,0,1-.05.13.32.32,0,0,1-.16.1,1.13,1.13,0,0,1-.3.06l-.48,0-.47,0a1.13,1.13,0,0,1-.31-.06.37.37,0,0,1-.16-.1.18.18,0,0,1,0-.13v-7a.2.2,0,0,1,0-.13.37.37,0,0,1,.16-.1,1.61,1.61,0,0,1,.31-.07,3.18,3.18,0,0,1,.47,0,3.4,3.4,0,0,1,.48,0,1.67,1.67,0,0,1,.3.07.32.32,0,0,1,.16.1.21.21,0,0,1,.05.13Z" transform="translate(-5.09 -12.69)"/><path class="cls-5" d="M366.08,249.87a5.22,5.22,0,0,1-.23,1.63,3.39,3.39,0,0,1-.71,1.26,3.1,3.1,0,0,1-1.2.82,4.35,4.35,0,0,1-1.68.29,4.62,4.62,0,0,1-1.61-.25,2.9,2.9,0,0,1-1.82-2,5.78,5.78,0,0,1-.21-1.64,5.2,5.2,0,0,1,.23-1.62,3.37,3.37,0,0,1,.72-1.27,3.29,3.29,0,0,1,1.19-.82,4.54,4.54,0,0,1,1.68-.29,4.66,4.66,0,0,1,1.62.26,2.93,2.93,0,0,1,1.14.74,3.24,3.24,0,0,1,.67,1.21A5.9,5.9,0,0,1,366.08,249.87Zm-2,.08A5.61,5.61,0,0,0,364,249a2.3,2.3,0,0,0-.28-.75,1.32,1.32,0,0,0-.52-.5,1.65,1.65,0,0,0-.81-.18,1.68,1.68,0,0,0-.77.16,1.36,1.36,0,0,0-.54.47,2.18,2.18,0,0,0-.32.74,4.25,4.25,0,0,0-.1,1,4.72,4.72,0,0,0,.09.95,2.08,2.08,0,0,0,.27.75,1.32,1.32,0,0,0,.52.5,1.8,1.8,0,0,0,.81.17,1.73,1.73,0,0,0,.78-.16,1.33,1.33,0,0,0,.54-.46,2.26,2.26,0,0,0,.31-.74A4.25,4.25,0,0,0,364.06,250Z" transform="translate(-5.09 -12.69)"/><path class="cls-5" d="M372.12,247.11c0,.19,0,.34,0,.46a1.43,1.43,0,0,1-.05.28.24.24,0,0,1-.08.14.18.18,0,0,1-.13,0l-.14,0-.17-.06-.22-.05a1,1,0,0,0-.26,0,.87.87,0,0,0-.32.06,1.57,1.57,0,0,0-.34.21,2.24,2.24,0,0,0-.37.38,4.24,4.24,0,0,0-.41.57v4.35a.19.19,0,0,1-.05.13.28.28,0,0,1-.16.1,1,1,0,0,1-.3.06l-.48,0-.47,0a1,1,0,0,1-.3-.06.28.28,0,0,1-.16-.1.15.15,0,0,1-.05-.13v-7a.23.23,0,0,1,0-.14.27.27,0,0,1,.14-.1,1.33,1.33,0,0,1,.26-.05,2.36,2.36,0,0,1,.4,0,2.56,2.56,0,0,1,.42,0,1.09,1.09,0,0,1,.25.05.34.34,0,0,1,.13.1.23.23,0,0,1,0,.14v.87a5.69,5.69,0,0,1,.51-.65,3.14,3.14,0,0,1,.47-.4,1.42,1.42,0,0,1,.43-.21,1.67,1.67,0,0,1,.44-.06l.22,0a2,2,0,0,1,.24,0,1.14,1.14,0,0,1,.22.07l.14.07a.24.24,0,0,1,.06.09.86.86,0,0,1,0,.13,1.09,1.09,0,0,1,0,.24C372.11,246.77,372.12,246.92,372.12,247.11Z" transform="translate(-5.09 -12.69)"/><rect class="cls-1" x="201.36" y="257.46" width="22.31" height="22.31"/><path class="cls-5" d="M237.65,286.22c0,.15,0,.27,0,.38a.7.7,0,0,1-.06.24.38.38,0,0,1-.09.14.22.22,0,0,1-.13,0h-5.08a.67.67,0,0,1-.44-.15.66.66,0,0,1-.17-.5v-8.81a.56.56,0,0,1,.61-.65h5a.28.28,0,0,1,.12,0,.24.24,0,0,1,.09.14.76.76,0,0,1,.06.25,2.12,2.12,0,0,1,0,.38,2.18,2.18,0,0,1,0,.38.7.7,0,0,1-.06.24.28.28,0,0,1-.09.14.19.19,0,0,1-.12,0h-3.61V281h3a.28.28,0,0,1,.13,0,.39.39,0,0,1,.1.14,2.08,2.08,0,0,1,.06.24,3.57,3.57,0,0,1,0,.37,3.41,3.41,0,0,1,0,.37,2.08,2.08,0,0,1-.06.24.28.28,0,0,1-.1.13.2.2,0,0,1-.13,0h-3v2.85h3.64a.24.24,0,0,1,.13,0,.27.27,0,0,1,.09.13.76.76,0,0,1,.06.25A3.79,3.79,0,0,1,237.65,286.22Z" transform="translate(-5.09 -12.69)"/><path class="cls-5" d="M245.4,286.62a.52.52,0,0,1,.06.21.16.16,0,0,1-.11.14.89.89,0,0,1-.34.08l-.6,0h-.57a1.94,1.94,0,0,1-.33-.05.38.38,0,0,1-.18-.09.27.27,0,0,1-.09-.12L242,284.32l-1.29,2.48a.27.27,0,0,1-.09.12.31.31,0,0,1-.16.09,2,2,0,0,1-.32.05h-.53l-.55,0a.72.72,0,0,1-.3-.08.15.15,0,0,1-.09-.14.4.4,0,0,1,.06-.21l1.93-3.43L238.83,280a.56.56,0,0,1-.07-.24.14.14,0,0,1,.09-.15.79.79,0,0,1,.33-.08,4.75,4.75,0,0,1,.6,0l.55,0a2.34,2.34,0,0,1,.33,0,.34.34,0,0,1,.17.08.27.27,0,0,1,.09.12l1.25,2.33,1.23-2.33a.36.36,0,0,1,.07-.1.27.27,0,0,1,.15-.08,1.43,1.43,0,0,1,.28-.05l.48,0,.55,0a.66.66,0,0,1,.3.07.17.17,0,0,1,.08.15.57.57,0,0,1-.09.26l-1.73,3.16Z" transform="translate(-5.09 -12.69)"/><path class="cls-5" d="M250.82,286.07a2.47,2.47,0,0,1,0,.53.66.66,0,0,1-.11.25.7.7,0,0,1-.21.14,2,2,0,0,1-.32.1,2.4,2.4,0,0,1-.4.06,3.4,3.4,0,0,1-1.45-.12,1.72,1.72,0,0,1-.71-.46,1.84,1.84,0,0,1-.41-.77,4.1,4.1,0,0,1-.14-1.11v-3.57h-.83a.26.26,0,0,1-.23-.19,1.75,1.75,0,0,1-.08-.61,3.79,3.79,0,0,1,0-.38,1.85,1.85,0,0,1,.06-.25.34.34,0,0,1,.1-.13.21.21,0,0,1,.14,0H247V278a.24.24,0,0,1,.05-.14.3.3,0,0,1,.15-.11,1.13,1.13,0,0,1,.31-.06l.47,0,.48,0a1,1,0,0,1,.3.06.29.29,0,0,1,.16.11.24.24,0,0,1,.05.14v1.55h1.51a.23.23,0,0,1,.14,0,.34.34,0,0,1,.1.13,1.09,1.09,0,0,1,.05.25,2.12,2.12,0,0,1,0,.38,1.8,1.8,0,0,1-.07.61c-.06.12-.13.19-.23.19H249v3.27a1.61,1.61,0,0,0,.17.85.71.71,0,0,0,.65.29,1.27,1.27,0,0,0,.28,0l.22-.06.16-.06.12,0a.12.12,0,0,1,.09,0,.15.15,0,0,1,.07.11,1,1,0,0,1,0,.22A1.84,1.84,0,0,1,250.82,286.07Z" transform="translate(-5.09 -12.69)"/><path class="cls-5" d="M258.49,283.07a.78.78,0,0,1-.16.53.6.6,0,0,1-.44.17h-4.25a2.88,2.88,0,0,0,.11.81,1.61,1.61,0,0,0,.33.62,1.44,1.44,0,0,0,.6.38,2.48,2.48,0,0,0,.87.14,4.89,4.89,0,0,0,.91-.08,6.06,6.06,0,0,0,.67-.16l.47-.17a.88.88,0,0,1,.31-.07.21.21,0,0,1,.12,0,.2.2,0,0,1,.07.1.43.43,0,0,1,0,.19,3.22,3.22,0,0,1,0,.33,2.53,2.53,0,0,1,0,.29,1.25,1.25,0,0,1,0,.21.46.46,0,0,1-.05.14.83.83,0,0,1-.08.12,1.87,1.87,0,0,1-.28.15,4.56,4.56,0,0,1-.58.18c-.23.06-.5.11-.8.16a7.43,7.43,0,0,1-1,.06,5.34,5.34,0,0,1-1.63-.23,3.14,3.14,0,0,1-1.17-.71,3.07,3.07,0,0,1-.7-1.21,5.73,5.73,0,0,1-.23-1.7,5.2,5.2,0,0,1,.25-1.68,3.51,3.51,0,0,1,.7-1.26,3,3,0,0,1,1.12-.79,3.73,3.73,0,0,1,1.49-.28,3.9,3.9,0,0,1,1.49.26,2.63,2.63,0,0,1,1,.71,3,3,0,0,1,.59,1.09,4.86,4.86,0,0,1,.19,1.36Zm-1.91-.56a2,2,0,0,0-.33-1.3,1.28,1.28,0,0,0-1.1-.48,1.45,1.45,0,0,0-.65.14,1.32,1.32,0,0,0-.46.38,1.73,1.73,0,0,0-.28.56,2.63,2.63,0,0,0-.12.7Z" transform="translate(-5.09 -12.69)"/><path class="cls-5" d="M264.58,280.44a3.1,3.1,0,0,1,0,.46,1.55,1.55,0,0,1,0,.28.3.3,0,0,1-.08.14.2.2,0,0,1-.13,0l-.14,0-.18-.06-.21-.06a1.1,1.1,0,0,0-.26,0,1,1,0,0,0-.33.06,1.85,1.85,0,0,0-.34.21,2.58,2.58,0,0,0-.37.37c-.12.16-.26.35-.41.58v4.35a.2.2,0,0,1,0,.13.4.4,0,0,1-.16.1,1.13,1.13,0,0,1-.3.06l-.48,0-.48,0a1.13,1.13,0,0,1-.3-.06.4.4,0,0,1-.16-.1.21.21,0,0,1,0-.13v-7a.33.33,0,0,1,0-.14.39.39,0,0,1,.14-.1l.27-.06.4,0,.41,0,.26.06a.34.34,0,0,1,.13.1.32.32,0,0,1,0,.14v.86a6.73,6.73,0,0,1,.52-.64,3.11,3.11,0,0,1,.46-.4,1.47,1.47,0,0,1,.44-.21,1.61,1.61,0,0,1,.44-.06h.21l.25,0,.21.07a.3.3,0,0,1,.14.07.18.18,0,0,1,.06.09.34.34,0,0,1,0,.12,1.47,1.47,0,0,1,0,.25C264.58,280.1,264.58,280.25,264.58,280.44Z" transform="translate(-5.09 -12.69)"/><path class="cls-5" d="M267.91,277.43a1.12,1.12,0,0,1-.24.82,1.34,1.34,0,0,1-.9.22,1.41,1.41,0,0,1-.9-.21,1.1,1.1,0,0,1-.23-.79,1.14,1.14,0,0,1,.24-.83,1.34,1.34,0,0,1,.9-.23,1.29,1.29,0,0,1,.89.23A1,1,0,0,1,267.91,277.43Zm-.15,9.33a.21.21,0,0,1-.05.13.34.34,0,0,1-.16.1,1,1,0,0,1-.3.06l-.47,0-.48,0a1,1,0,0,1-.3-.06.34.34,0,0,1-.16-.1.21.21,0,0,1,0-.13v-7a.21.21,0,0,1,0-.13.34.34,0,0,1,.16-.11,1.42,1.42,0,0,1,.3-.06,3,3,0,0,1,.48,0,3,3,0,0,1,.47,0,1.42,1.42,0,0,1,.3.06.34.34,0,0,1,.16.11.21.21,0,0,1,.05.13Z" transform="translate(-5.09 -12.69)"/><path class="cls-5" d="M276.77,283.2a5.22,5.22,0,0,1-.24,1.63,3.25,3.25,0,0,1-.71,1.26,3,3,0,0,1-1.19.82,4.54,4.54,0,0,1-1.68.29,4.44,4.44,0,0,1-1.62-.26,2.84,2.84,0,0,1-1.14-.75,3,3,0,0,1-.67-1.21,5.47,5.47,0,0,1-.22-1.64,5.31,5.31,0,0,1,.24-1.63,3.53,3.53,0,0,1,.71-1.26,3.25,3.25,0,0,1,1.19-.82,4.54,4.54,0,0,1,1.68-.29,4.62,4.62,0,0,1,1.62.26,2.72,2.72,0,0,1,1.14.74,3.16,3.16,0,0,1,.67,1.21A5.89,5.89,0,0,1,276.77,283.2Zm-2,.08a4.74,4.74,0,0,0-.08-.95,2.08,2.08,0,0,0-.27-.75,1.38,1.38,0,0,0-.52-.5,1.69,1.69,0,0,0-.82-.18,1.71,1.71,0,0,0-.77.16,1.35,1.35,0,0,0-.54.47,2.17,2.17,0,0,0-.31.74,4.22,4.22,0,0,0-.11,1,4.72,4.72,0,0,0,.09.95,2.39,2.39,0,0,0,.28.75,1.32,1.32,0,0,0,.52.5,1.74,1.74,0,0,0,.81.17,1.71,1.71,0,0,0,.77-.16,1.42,1.42,0,0,0,.54-.46,2.07,2.07,0,0,0,.31-.74A4.25,4.25,0,0,0,274.74,283.28Z" transform="translate(-5.09 -12.69)"/><path class="cls-5" d="M282.8,280.44c0,.18,0,.34,0,.46a1.55,1.55,0,0,1,0,.28.24.24,0,0,1-.09.14.16.16,0,0,1-.12,0,.35.35,0,0,1-.14,0l-.18-.06-.22-.06a1,1,0,0,0-.25,0,1,1,0,0,0-.33.06,1.85,1.85,0,0,0-.34.21,2.58,2.58,0,0,0-.37.37,7,7,0,0,0-.41.58v4.35a.17.17,0,0,1-.05.13.34.34,0,0,1-.16.1,1,1,0,0,1-.3.06l-.47,0-.48,0a1.13,1.13,0,0,1-.3-.06.34.34,0,0,1-.16-.1.21.21,0,0,1-.05-.13v-7a.33.33,0,0,1,0-.14.39.39,0,0,1,.14-.1l.26-.06.41,0,.41,0,.25.06a.28.28,0,0,1,.13.1.23.23,0,0,1,0,.14v.86a6.73,6.73,0,0,1,.52-.64,2.67,2.67,0,0,1,.46-.4,1.37,1.37,0,0,1,.44-.21,1.59,1.59,0,0,1,.43-.06h.22l.24,0a1,1,0,0,1,.22.07.3.3,0,0,1,.14.07.18.18,0,0,1,.06.09.34.34,0,0,1,0,.12,1.47,1.47,0,0,1,0,.25C282.8,280.1,282.8,280.25,282.8,280.44Z" transform="translate(-5.09 -12.69)"/><path class="cls-5" d="M293.56,286.78a.21.21,0,0,1-.07.17.6.6,0,0,1-.25.09,3.07,3.07,0,0,1-.5,0,3.13,3.13,0,0,1-.51,0A.45.45,0,0,1,292,287a.21.21,0,0,1-.07-.17v-.56a3.11,3.11,0,0,1-1,.72,2.73,2.73,0,0,1-1.22.26,3.64,3.64,0,0,1-1-.14,2.42,2.42,0,0,1-.81-.43,2,2,0,0,1-.52-.71,2.32,2.32,0,0,1-.19-1,2.21,2.21,0,0,1,.24-1.06,1.86,1.86,0,0,1,.71-.74,3.49,3.49,0,0,1,1.17-.44,8.8,8.8,0,0,1,1.64-.14h.68v-.42a2.49,2.49,0,0,0-.07-.58,1.08,1.08,0,0,0-.22-.41,1,1,0,0,0-.41-.24,2.25,2.25,0,0,0-.63-.08,3.28,3.28,0,0,0-.87.11,6,6,0,0,0-.69.25,3.2,3.2,0,0,0-.49.24.79.79,0,0,1-.33.11.2.2,0,0,1-.15-.06.45.45,0,0,1-.11-.15,1.26,1.26,0,0,1-.07-.25,3.25,3.25,0,0,1,0-.33,1.29,1.29,0,0,1,0-.38.57.57,0,0,1,.15-.26,1.54,1.54,0,0,1,.38-.25,5,5,0,0,1,.64-.25,5.87,5.87,0,0,1,.8-.19,5.29,5.29,0,0,1,.9-.08,5.68,5.68,0,0,1,1.4.16,2.42,2.42,0,0,1,1,.49,1.92,1.92,0,0,1,.54.86,3.83,3.83,0,0,1,.17,1.24Zm-1.92-3h-.75a3.92,3.92,0,0,0-.82.07,1.33,1.33,0,0,0-.54.21.78.78,0,0,0-.31.34.93.93,0,0,0-.1.45.86.86,0,0,0,.28.69,1.08,1.08,0,0,0,.77.25,1.45,1.45,0,0,0,.76-.21,3.24,3.24,0,0,0,.71-.62Z" transform="translate(-5.09 -12.69)"/><path class="cls-5" d="M302.18,286.76a.2.2,0,0,1,0,.13.49.49,0,0,1-.16.1,1,1,0,0,1-.3.06l-.47,0-.48,0a1.13,1.13,0,0,1-.31-.06.36.36,0,0,1-.15-.1.21.21,0,0,1,0-.13v-4a3.42,3.42,0,0,0-.07-.8,1.38,1.38,0,0,0-.22-.49.86.86,0,0,0-.36-.32,1.08,1.08,0,0,0-.52-.12,1.28,1.28,0,0,0-.76.28,4.2,4.2,0,0,0-.8.79v4.64a.2.2,0,0,1,0,.13.4.4,0,0,1-.16.1,1.13,1.13,0,0,1-.3.06l-.48,0-.48,0a1.13,1.13,0,0,1-.3-.06.4.4,0,0,1-.16-.1.2.2,0,0,1,0-.13v-7a.32.32,0,0,1,0-.14.36.36,0,0,1,.15-.1l.26-.06.4,0,.41,0,.26.06a.34.34,0,0,1,.13.1.33.33,0,0,1,0,.14v.8a4.48,4.48,0,0,1,1.17-.94,2.87,2.87,0,0,1,2.45-.07,2,2,0,0,1,.79.63,2.7,2.7,0,0,1,.43.94,5.49,5.49,0,0,1,.13,1.3Z" transform="translate(-5.09 -12.69)"/><path class="cls-5" d="M310.72,286.76a.23.23,0,0,1,0,.14.28.28,0,0,1-.13.1l-.25.05-.4,0-.41,0-.25-.05a.39.39,0,0,1-.14-.1.23.23,0,0,1,0-.14V286a4.38,4.38,0,0,1-1.13.9,2.76,2.76,0,0,1-1.31.32,2.7,2.7,0,0,1-1.35-.31,2.56,2.56,0,0,1-.9-.83,3.6,3.6,0,0,1-.5-1.22,7,7,0,0,1-.16-1.47,6.67,6.67,0,0,1,.2-1.68,4.07,4.07,0,0,1,.58-1.26,2.67,2.67,0,0,1,1-.81,3,3,0,0,1,1.31-.28,2.3,2.3,0,0,1,1.06.24,3.68,3.68,0,0,1,.95.7v-3.77a.21.21,0,0,1,0-.14.29.29,0,0,1,.16-.11,1.33,1.33,0,0,1,.3-.07l.47,0,.48,0a1.48,1.48,0,0,1,.3.07.3.3,0,0,1,.15.11.17.17,0,0,1,.05.14Zm-2-4.66a4.11,4.11,0,0,0-.81-.81,1.35,1.35,0,0,0-.81-.28,1.14,1.14,0,0,0-.66.19,1.46,1.46,0,0,0-.44.51,2.3,2.3,0,0,0-.25.71,3.72,3.72,0,0,0-.09.81,5.85,5.85,0,0,0,.07.85,2.93,2.93,0,0,0,.23.74,1.38,1.38,0,0,0,.43.52,1.11,1.11,0,0,0,.67.2,1.34,1.34,0,0,0,.4-.06,1.73,1.73,0,0,0,.39-.19,3.07,3.07,0,0,0,.41-.35c.14-.14.29-.32.46-.53Z" transform="translate(-5.09 -12.69)"/><path class="cls-5" d="M322.92,286.76a.28.28,0,0,1,0,.13.39.39,0,0,1-.14.1.83.83,0,0,1-.26.06l-.4,0-.42,0a.7.7,0,0,1-.25-.06.32.32,0,0,1-.14-.1.28.28,0,0,1,0-.13V286a4.28,4.28,0,0,1-1.17.94,2.62,2.62,0,0,1-1.24.31,2.9,2.9,0,0,1-1.21-.23,2.17,2.17,0,0,1-.79-.64,2.7,2.7,0,0,1-.43-.94,6.33,6.33,0,0,1-.12-1.34v-4.26a.23.23,0,0,1,0-.14.34.34,0,0,1,.16-.1l.3-.06.47,0,.48,0,.3.06a.34.34,0,0,1,.16.1.24.24,0,0,1,.05.14v3.93a3.58,3.58,0,0,0,.07.84,1.51,1.51,0,0,0,.21.5,1.14,1.14,0,0,0,.37.32,1.21,1.21,0,0,0,.52.11,1.28,1.28,0,0,0,.75-.27,4.32,4.32,0,0,0,.81-.8v-4.63a.33.33,0,0,1,0-.14.4.4,0,0,1,.16-.1l.3-.06.48,0,.47,0,.3.06a.4.4,0,0,1,.16.1.23.23,0,0,1,0,.14Z" transform="translate(-5.09 -12.69)"/><path class="cls-5" d="M331.56,286.76a.21.21,0,0,1-.05.13.34.34,0,0,1-.16.1,1,1,0,0,1-.3.06l-.47,0-.48,0a1,1,0,0,1-.3-.06.4.4,0,0,1-.16-.1.2.2,0,0,1,0-.13v-4a3.34,3.34,0,0,0-.08-.8,1.57,1.57,0,0,0-.21-.49,1,1,0,0,0-.37-.32,1.05,1.05,0,0,0-.52-.12,1.23,1.23,0,0,0-.75.28,3.93,3.93,0,0,0-.8.79v4.64a.21.21,0,0,1-.05.13.34.34,0,0,1-.16.1,1,1,0,0,1-.3.06l-.47,0-.48,0a1,1,0,0,1-.3-.06.34.34,0,0,1-.16-.1.21.21,0,0,1-.05-.13v-7a.23.23,0,0,1,0-.14.32.32,0,0,1,.14-.1l.26-.06.4,0,.42,0,.25.06a.28.28,0,0,1,.13.1.23.23,0,0,1,0,.14v.8a4.68,4.68,0,0,1,1.18-.94,2.71,2.71,0,0,1,1.24-.31,2.67,2.67,0,0,1,1.2.24,2,2,0,0,1,.79.63,2.53,2.53,0,0,1,.43.94,5.44,5.44,0,0,1,.14,1.3Z" transform="translate(-5.09 -12.69)"/><path class="cls-5" d="M340.1,286.76a.33.33,0,0,1,0,.14.32.32,0,0,1-.14.1,1.09,1.09,0,0,1-.25.05l-.39,0-.41,0-.25-.05a.27.27,0,0,1-.14-.1.24.24,0,0,1-.05-.14V286a4.22,4.22,0,0,1-1.13.9,2.73,2.73,0,0,1-1.31.32,2.63,2.63,0,0,1-1.34-.31,2.47,2.47,0,0,1-.9-.83,3.83,3.83,0,0,1-.51-1.22,7,7,0,0,1-.15-1.47,6.24,6.24,0,0,1,.2-1.68,3.66,3.66,0,0,1,.58-1.26,2.56,2.56,0,0,1,.95-.81,3.05,3.05,0,0,1,1.32-.28,2.33,2.33,0,0,1,1.06.24,3.64,3.64,0,0,1,.94.7v-3.77a.22.22,0,0,1,.05-.14c0-.05.08-.08.15-.11a1.67,1.67,0,0,1,.3-.07l.48,0,.48,0a1.37,1.37,0,0,1,.29.07.29.29,0,0,1,.16.11.22.22,0,0,1,.05.14Zm-2-4.66a4.11,4.11,0,0,0-.81-.81,1.3,1.3,0,0,0-.8-.28,1.09,1.09,0,0,0-.66.19,1.39,1.39,0,0,0-.45.51,3,3,0,0,0-.25.71,4.45,4.45,0,0,0-.08.81,4.72,4.72,0,0,0,.07.85,2.57,2.57,0,0,0,.23.74,1.46,1.46,0,0,0,.42.52,1.14,1.14,0,0,0,.68.2,1.32,1.32,0,0,0,.39-.06,1.4,1.4,0,0,0,.39-.19,3.07,3.07,0,0,0,.41-.35,5.31,5.31,0,0,0,.46-.53Z" transform="translate(-5.09 -12.69)"/><path class="cls-5" d="M348.51,283.07a.73.73,0,0,1-.16.53.59.59,0,0,1-.44.17h-4.24a2.9,2.9,0,0,0,.1.81,1.5,1.5,0,0,0,.34.62,1.34,1.34,0,0,0,.59.38,2.48,2.48,0,0,0,.87.14,4.81,4.81,0,0,0,.91-.08,6.06,6.06,0,0,0,.67-.16c.2-.06.35-.12.48-.17a.79.79,0,0,1,.3-.07.21.21,0,0,1,.12,0,.21.21,0,0,1,.08.1.69.69,0,0,1,0,.19,3.22,3.22,0,0,1,0,.33,2.53,2.53,0,0,1,0,.29,1.25,1.25,0,0,1,0,.21.46.46,0,0,1,0,.14.42.42,0,0,1-.08.12,1.17,1.17,0,0,1-.28.15,4.9,4.9,0,0,1-.57.18c-.24.06-.51.11-.81.16a7.32,7.32,0,0,1-1,.06,5.34,5.34,0,0,1-1.63-.23,3,3,0,0,1-1.16-.71,2.84,2.84,0,0,1-.7-1.21,5.42,5.42,0,0,1-.23-1.7,5.5,5.5,0,0,1,.24-1.68,3.51,3.51,0,0,1,.7-1.26,3,3,0,0,1,1.12-.79,3.73,3.73,0,0,1,1.49-.28,4,4,0,0,1,1.5.26,2.79,2.79,0,0,1,1,.71,2.93,2.93,0,0,1,.58,1.09,4.52,4.52,0,0,1,.19,1.36Zm-1.91-.56a2,2,0,0,0-.33-1.3,1.28,1.28,0,0,0-1.1-.48,1.48,1.48,0,0,0-.65.14,1.42,1.42,0,0,0-.46.38,2,2,0,0,0-.28.56,2.63,2.63,0,0,0-.11.7Z" transform="translate(-5.09 -12.69)"/><path class="cls-5" d="M354.6,280.44c0,.18,0,.34,0,.46a1.43,1.43,0,0,1,0,.28.3.3,0,0,1-.08.14.18.18,0,0,1-.13,0l-.14,0-.18-.06-.21-.06a1.06,1.06,0,0,0-.26,0,1,1,0,0,0-.33.06,1.85,1.85,0,0,0-.34.21,2.56,2.56,0,0,0-.36.37,5.2,5.2,0,0,0-.41.58v4.35a.21.21,0,0,1-.05.13.4.4,0,0,1-.16.1,1.13,1.13,0,0,1-.3.06l-.48,0-.47,0a1.13,1.13,0,0,1-.31-.06.49.49,0,0,1-.16-.1.2.2,0,0,1,0-.13v-7a.23.23,0,0,1,0-.14.27.27,0,0,1,.14-.1l.26-.06.4,0,.42,0,.25.06a.34.34,0,0,1,.13.1.33.33,0,0,1,0,.14v.86a5.49,5.49,0,0,1,.51-.64,3.11,3.11,0,0,1,.46-.4,1.59,1.59,0,0,1,.44-.21,1.67,1.67,0,0,1,.44-.06h.22l.24,0a1.14,1.14,0,0,1,.22.07.37.37,0,0,1,.14.07l.06.09a1,1,0,0,1,0,.12c0,.06,0,.14,0,.25Z" transform="translate(-5.09 -12.69)"/><path class="cls-5" d="M360.53,284.79a2.31,2.31,0,0,1-.23,1,2,2,0,0,1-.63.76,2.68,2.68,0,0,1-1,.46,4.81,4.81,0,0,1-1.95.09,4.5,4.5,0,0,1-.63-.15,3.35,3.35,0,0,1-.47-.18,1,1,0,0,1-.27-.17.59.59,0,0,1-.14-.26,2.32,2.32,0,0,1,0-.52c0-.15,0-.27,0-.37a.81.81,0,0,1,0-.21c0-.06,0-.1.08-.11a.2.2,0,0,1,.11,0,.54.54,0,0,1,.26.1l.42.21a4.18,4.18,0,0,0,.58.22,2.48,2.48,0,0,0,.75.1,2.12,2.12,0,0,0,.47,0,1.19,1.19,0,0,0,.36-.16.64.64,0,0,0,.23-.26.68.68,0,0,0,.08-.36.63.63,0,0,0-.14-.4,1.32,1.32,0,0,0-.39-.29,5.46,5.46,0,0,0-.53-.24l-.62-.24c-.21-.09-.42-.19-.62-.3a2.79,2.79,0,0,1-.54-.42,2,2,0,0,1-.38-.61,2.1,2.1,0,0,1-.15-.84,2.17,2.17,0,0,1,.2-.92A2,2,0,0,1,356,280a2.73,2.73,0,0,1,.9-.46,3.91,3.91,0,0,1,1.18-.17,4.48,4.48,0,0,1,.64.05,4.23,4.23,0,0,1,.56.12,2.05,2.05,0,0,1,.42.15,1.17,1.17,0,0,1,.24.14.4.4,0,0,1,.11.12.46.46,0,0,1,.05.14,1,1,0,0,1,0,.2,2.36,2.36,0,0,1,0,.3,2.82,2.82,0,0,1,0,.34.67.67,0,0,1,0,.22.15.15,0,0,1-.07.1.2.2,0,0,1-.11,0,.59.59,0,0,1-.22-.08,2.57,2.57,0,0,0-.37-.18l-.51-.18a2.73,2.73,0,0,0-.67-.08,1.56,1.56,0,0,0-.46.06.87.87,0,0,0-.32.15.61.61,0,0,0-.19.24.72.72,0,0,0-.06.29.62.62,0,0,0,.14.41,1.25,1.25,0,0,0,.4.29,4.15,4.15,0,0,0,.55.23l.62.24.63.3a2.55,2.55,0,0,1,.55.43,1.9,1.9,0,0,1,.39.59A2.09,2.09,0,0,1,360.53,284.79Z" transform="translate(-5.09 -12.69)"/><path class="cls-5" d="M364.12,277.43a1.12,1.12,0,0,1-.24.82,1.34,1.34,0,0,1-.9.22,1.41,1.41,0,0,1-.9-.21,1.1,1.1,0,0,1-.23-.79,1.14,1.14,0,0,1,.24-.83,1.88,1.88,0,0,1,1.8,0A1.08,1.08,0,0,1,364.12,277.43Zm-.15,9.33a.17.17,0,0,1-.05.13.34.34,0,0,1-.16.1,1,1,0,0,1-.3.06l-.47,0-.48,0a1.05,1.05,0,0,1-.3-.06.34.34,0,0,1-.16-.1.21.21,0,0,1-.05-.13v-7a.21.21,0,0,1,.05-.13.34.34,0,0,1,.16-.11,1.57,1.57,0,0,1,.3-.06,3.14,3.14,0,0,1,.48,0,3,3,0,0,1,.47,0,1.42,1.42,0,0,1,.3.06.34.34,0,0,1,.16.11.17.17,0,0,1,.05.13Z" transform="translate(-5.09 -12.69)"/><path class="cls-5" d="M372.54,286.76a.23.23,0,0,1,0,.14.28.28,0,0,1-.13.1l-.25.05-.4,0-.41,0-.25-.05a.39.39,0,0,1-.14-.1.23.23,0,0,1,0-.14V286a4.38,4.38,0,0,1-1.13.9,2.73,2.73,0,0,1-1.31.32,2.7,2.7,0,0,1-1.35-.31,2.64,2.64,0,0,1-.9-.83,3.6,3.6,0,0,1-.5-1.22,7,7,0,0,1-.16-1.47,6.67,6.67,0,0,1,.2-1.68,4.07,4.07,0,0,1,.58-1.26,2.67,2.67,0,0,1,1-.81,3,3,0,0,1,1.31-.28,2.3,2.3,0,0,1,1.06.24,3.68,3.68,0,0,1,.95.7v-3.77a.21.21,0,0,1,0-.14.29.29,0,0,1,.16-.11,1.33,1.33,0,0,1,.3-.07l.47,0,.48,0a1.33,1.33,0,0,1,.3.07.3.3,0,0,1,.15.11.17.17,0,0,1,.05.14Zm-2-4.66a4.11,4.11,0,0,0-.81-.81A1.35,1.35,0,0,0,369,281a1.14,1.14,0,0,0-.66.19,1.46,1.46,0,0,0-.44.51,2.3,2.3,0,0,0-.25.71,3.72,3.72,0,0,0-.09.81,5.85,5.85,0,0,0,.07.85,2.93,2.93,0,0,0,.23.74,1.38,1.38,0,0,0,.43.52,1.11,1.11,0,0,0,.67.2,1.34,1.34,0,0,0,.4-.06,1.73,1.73,0,0,0,.39-.19,3.07,3.07,0,0,0,.41-.35c.14-.14.29-.32.46-.53Z" transform="translate(-5.09 -12.69)"/><path class="cls-5" d="M381,283.07a.78.78,0,0,1-.16.53.61.61,0,0,1-.45.17h-4.24a2.88,2.88,0,0,0,.11.81,1.61,1.61,0,0,0,.33.62,1.38,1.38,0,0,0,.6.38,2.48,2.48,0,0,0,.87.14,4.78,4.78,0,0,0,.9-.08,5.76,5.76,0,0,0,.68-.16l.47-.17a.88.88,0,0,1,.31-.07.2.2,0,0,1,.11,0,.16.16,0,0,1,.08.1.64.64,0,0,1,.05.19c0,.09,0,.2,0,.33s0,.21,0,.29,0,.15,0,.21a.46.46,0,0,1-.05.14l-.08.12a1.87,1.87,0,0,1-.28.15,4.56,4.56,0,0,1-.58.18c-.23.06-.5.11-.8.16a7.43,7.43,0,0,1-1,.06,5.34,5.34,0,0,1-1.63-.23,3,3,0,0,1-1.17-.71,3.07,3.07,0,0,1-.7-1.21,5.73,5.73,0,0,1-.23-1.7,5.5,5.5,0,0,1,.24-1.68,3.69,3.69,0,0,1,.71-1.26,2.89,2.89,0,0,1,1.12-.79,3.7,3.7,0,0,1,1.49-.28,3.9,3.9,0,0,1,1.49.26,2.63,2.63,0,0,1,1,.71,3,3,0,0,1,.59,1.09,4.86,4.86,0,0,1,.19,1.36Zm-1.91-.56a2.07,2.07,0,0,0-.33-1.3,1.29,1.29,0,0,0-1.1-.48,1.45,1.45,0,0,0-.65.14,1.32,1.32,0,0,0-.46.38,1.55,1.55,0,0,0-.28.56,2.63,2.63,0,0,0-.12.7Z" transform="translate(-5.09 -12.69)"/><polygon class="cls-6" points="381.09 91.25 409.43 91.25 409.43 103.74 407.6 103.74 397.04 119.58 381.09 119.58 381.09 91.25"/><path class="cls-7" d="M108.5,19.61H120a1.51,1.51,0,1,1,0,3h-4.25v4.52h2.61a1.51,1.51,0,1,1,0,3h-2.61V56.31h-3V30.16h-2.59a1.51,1.51,0,0,1,0-3h2.59V22.62H108.5a1.51,1.51,0,1,1,0-3Z" transform="translate(-5.09 -12.69)"/><path class="cls-7" d="M176.73,14.89h12.48a1.58,1.58,0,0,1,0,3.15h-4.74V56.31h-3V18h-4.72a1.58,1.58,0,0,1,0-3.15Z" transform="translate(-5.09 -12.69)"/><path class="cls-7" d="M162.72,37h5.39V32.89h-3.83V14.09a1.3,1.3,0,1,1,2.6,0v16h1.23V21.91a1.31,1.31,0,1,1,2.61,0V27.7h.94c.25,0,.34-.05.36-.07a.61.61,0,0,0,.07-.35v-3.8a1.31,1.31,0,1,1,2.61,0v3.71a3.37,3.37,0,0,1-.77,2.35,2.86,2.86,0,0,1-2.26,1h-.94v7.36h2.7a.5.5,0,0,0,.34-.08.88.88,0,0,0,.09-.44V33.23a1.31,1.31,0,1,1,2.61,0v4a3.59,3.59,0,0,1-.8,2.44,2.82,2.82,0,0,1-2.24,1h-2.7v6l3.07,8H165l3.07-8V39.78h-5.39a1.4,1.4,0,0,1,0-2.8Z" transform="translate(-5.09 -12.69)"/><rect class="cls-7" x="81.92" y="42.16" width="105.21" height="34.94"/><path class="cls-8" d="M95.53,73.07a4.86,4.86,0,1,0,5-4.7A4.87,4.87,0,0,0,95.53,73.07Z" transform="translate(-5.09 -12.69)"/><path class="cls-9" d="M96.8,73.11a3.6,3.6,0,1,0,3.7-3.47A3.6,3.6,0,0,0,96.8,73.11Z" transform="translate(-5.09 -12.69)"/><path class="cls-6" d="M97.41,72.54a3,3,0,1,0,3.09-2.9A3,3,0,0,0,97.41,72.54Z" transform="translate(-5.09 -12.69)"/><path class="cls-8" d="M121.08,73.07a4.86,4.86,0,1,0,5-4.7A4.86,4.86,0,0,0,121.08,73.07Z" transform="translate(-5.09 -12.69)"/><path class="cls-9" d="M122.34,73.1a3.6,3.6,0,1,0,3.71-3.47A3.6,3.6,0,0,0,122.34,73.1Z" transform="translate(-5.09 -12.69)"/><path class="cls-6" d="M123,72.53a3,3,0,1,0,3.09-2.9A3,3,0,0,0,123,72.53Z" transform="translate(-5.09 -12.69)"/><path class="cls-8" d="M146.63,73.06a4.86,4.86,0,1,0,5-4.69A4.86,4.86,0,0,0,146.63,73.06Z" transform="translate(-5.09 -12.69)"/><path class="cls-9" d="M147.89,73.1a3.6,3.6,0,1,0,3.71-3.47A3.61,3.61,0,0,0,147.89,73.1Z" transform="translate(-5.09 -12.69)"/><path class="cls-6" d="M148.51,72.53a3,3,0,1,0,3.09-2.9A3,3,0,0,0,148.51,72.53Z" transform="translate(-5.09 -12.69)"/><path class="cls-8" d="M172.18,73.06a4.86,4.86,0,1,0,5-4.69A4.85,4.85,0,0,0,172.18,73.06Z" transform="translate(-5.09 -12.69)"/><path class="cls-9" d="M173.44,73.1a3.6,3.6,0,1,0,3.71-3.48A3.61,3.61,0,0,0,173.44,73.1Z" transform="translate(-5.09 -12.69)"/><path class="cls-6" d="M174.06,72.53a3,3,0,0,0,6,.19,3,3,0,1,0-6-.19Z" transform="translate(-5.09 -12.69)"/><polygon class="cls-10" points="33.3 75.54 36.31 75.54 36.31 67.42 207.46 67.42 207.46 75.54 210.47 75.54 210.47 64.4 33.3 64.4 33.3 75.54"/><rect class="cls-10" x="207.46" y="65.9" width="3.01" height="9.63"/><rect class="cls-10" x="194.06" y="65.9" width="3.02" height="9.63"/><rect class="cls-10" x="180.66" y="65.9" width="3.02" height="9.63"/><rect class="cls-10" x="167.27" y="65.9" width="3.02" height="9.63"/><rect class="cls-10" x="153.87" y="65.9" width="3.02" height="9.63"/><rect class="cls-10" x="140.47" y="65.9" width="3.01" height="9.63"/><rect class="cls-10" x="127.08" y="65.9" width="3.01" height="9.63"/><rect class="cls-10" x="113.67" y="65.9" width="3.02" height="9.63"/><rect class="cls-10" x="100.28" y="65.9" width="3.02" height="9.63"/><rect class="cls-10" x="86.88" y="65.9" width="3.02" height="9.63"/><rect class="cls-10" x="73.48" y="65.9" width="3.02" height="9.63"/><rect class="cls-10" x="60.09" y="65.9" width="3.02" height="9.63"/><rect class="cls-10" x="46.69" y="65.9" width="3.02" height="9.63"/><rect class="cls-10" x="33.3" y="65.9" width="3.02" height="9.63"/><polygon class="cls-10" points="144.7 40.59 147.72 40.59 147.72 32.48 198.36 32.48 198.36 40.59 201.38 40.59 201.38 29.46 144.7 29.46 144.7 40.59"/><polygon class="cls-10" points="144.7 42.1 201.38 42.1 201.38 30.98 198.36 30.98 198.36 39.08 147.72 39.08 147.72 30.98 144.7 30.98 144.7 42.1"/><rect class="cls-10" x="184.96" y="30.97" width="3.01" height="9.61"/><rect class="cls-10" x="171.55" y="30.97" width="3.02" height="9.61"/><rect class="cls-10" x="158.16" y="30.97" width="3.02" height="9.61"/><polygon class="cls-10" points="66.46 40.59 69.48 40.59 69.48 32.48 120.13 32.48 120.13 40.59 123.14 40.59 123.14 29.46 66.46 29.46 66.46 40.59"/><polygon class="cls-10" points="66.46 42.1 123.14 42.1 123.14 30.98 120.13 30.98 120.13 39.08 69.48 39.08 69.48 30.98 66.46 30.98 66.46 42.1"/><rect class="cls-10" x="106.72" y="30.97" width="3.02" height="9.61"/><rect class="cls-10" x="93.32" y="30.97" width="3.02" height="9.61"/><rect class="cls-10" x="79.93" y="30.97" width="3.02" height="9.61"/><rect class="cls-7" x="33.3" y="74.09" width="177.18" height="38.81"/><path class="cls-8" d="M194.77,101.94a4.86,4.86,0,1,0,5-4.7A4.88,4.88,0,0,0,194.77,101.94Z" transform="translate(-5.09 -12.69)"/><path class="cls-9" d="M196,102a3.6,3.6,0,1,0,3.71-3.48A3.59,3.59,0,0,0,196,102Z" transform="translate(-5.09 -12.69)"/><path class="cls-6" d="M196.65,101.41a3,3,0,1,0,3.1-2.91A3,3,0,0,0,196.65,101.41Z" transform="translate(-5.09 -12.69)"/><path class="cls-8" d="M165.81,101.94a4.86,4.86,0,1,0,5-4.7A4.87,4.87,0,0,0,165.81,101.94Z" transform="translate(-5.09 -12.69)"/><path class="cls-9" d="M167.07,102a3.6,3.6,0,1,0,3.71-3.48A3.6,3.6,0,0,0,167.07,102Z" transform="translate(-5.09 -12.69)"/><path class="cls-6" d="M167.69,101.41a3,3,0,1,0,3.09-2.91A3,3,0,0,0,167.69,101.41Z" transform="translate(-5.09 -12.69)"/><path class="cls-8" d="M136.84,101.94a4.86,4.86,0,1,0,5-4.7A4.87,4.87,0,0,0,136.84,101.94Z" transform="translate(-5.09 -12.69)"/><path class="cls-9" d="M138.1,102a3.6,3.6,0,1,0,3.71-3.48A3.6,3.6,0,0,0,138.1,102Z" transform="translate(-5.09 -12.69)"/><path class="cls-6" d="M138.72,101.41a3,3,0,1,0,3.09-2.91A3,3,0,0,0,138.72,101.41Z" transform="translate(-5.09 -12.69)"/><path class="cls-8" d="M107.87,101.94a4.86,4.86,0,1,0,5-4.7A4.88,4.88,0,0,0,107.87,101.94Z" transform="translate(-5.09 -12.69)"/><path class="cls-9" d="M109.14,102a3.6,3.6,0,1,0,3.7-3.48A3.59,3.59,0,0,0,109.14,102Z" transform="translate(-5.09 -12.69)"/><path class="cls-6" d="M109.75,101.41a3,3,0,1,0,3.09-2.91A3,3,0,0,0,109.75,101.41Z" transform="translate(-5.09 -12.69)"/><path class="cls-8" d="M78.91,101.94a4.86,4.86,0,1,0,5-4.7A4.87,4.87,0,0,0,78.91,101.94Z" transform="translate(-5.09 -12.69)"/><path class="cls-9" d="M80.17,102a3.6,3.6,0,1,0,3.7-3.48A3.6,3.6,0,0,0,80.17,102Z" transform="translate(-5.09 -12.69)"/><path class="cls-6" d="M80.78,101.41a3,3,0,1,0,3.09-2.91A3,3,0,0,0,80.78,101.41Z" transform="translate(-5.09 -12.69)"/><path class="cls-8" d="M49.94,101.94a4.86,4.86,0,1,0,5-4.7A4.87,4.87,0,0,0,49.94,101.94Z" transform="translate(-5.09 -12.69)"/><path class="cls-9" d="M51.2,102a3.6,3.6,0,1,0,3.71-3.48A3.6,3.6,0,0,0,51.2,102Z" transform="translate(-5.09 -12.69)"/><path class="cls-6" d="M51.81,101.41a3,3,0,1,0,3.1-2.91A3,3,0,0,0,51.81,101.41Z" transform="translate(-5.09 -12.69)"/><polygon class="cls-10" points="2 107 5.01 107 5.01 95.44 238.76 95.44 238.76 107 241.77 107 241.77 92.42 2 92.42 2 107"/><rect class="cls-10" x="238.76" y="93.93" width="3.01" height="13.07"/><rect class="cls-10" x="220.55" y="93.93" width="3.02" height="13.07"/><rect class="cls-10" x="202.33" y="93.93" width="3.02" height="13.07"/><rect class="cls-10" x="184.12" y="93.93" width="3.02" height="13.07"/><rect class="cls-10" x="165.91" y="93.93" width="3.02" height="13.07"/><rect class="cls-10" x="147.69" y="93.93" width="3.02" height="13.07"/><rect class="cls-10" x="129.48" y="93.93" width="3.02" height="13.07"/><rect class="cls-10" x="111.27" y="93.93" width="3.02" height="13.07"/><rect class="cls-10" x="93.06" y="93.93" width="3.02" height="13.07"/><rect class="cls-10" x="74.85" y="93.93" width="3.01" height="13.07"/><rect class="cls-10" x="56.63" y="93.93" width="3.02" height="13.07"/><rect class="cls-10" x="38.42" y="93.93" width="3.01" height="13.07"/><rect class="cls-10" x="20.21" y="93.93" width="3.01" height="13.07"/><rect class="cls-10" x="2" y="93.93" width="3.02" height="13.07"/><polygon class="cls-10" points="407.6 103.74 397.04 119.58 241.77 119.58 241.77 102.57 2 102.57 2 137.17 17.07 154.26 220.66 154.26 241.77 154.26 465.72 154.26 498.14 119.58 512.23 103.74 407.6 103.74"/><polygon class="cls-10" points="66.46 42.04 81.92 49.58 81.92 41.91 66.46 42.04"/><polygon class="cls-10" points="123.14 42.04 123.14 49.58 81.92 49.58 81.92 41.91 123.14 42.04"/><polygon class="cls-10" points="201.38 42.04 185.92 49.58 185.92 41.91 201.38 42.04"/><polygon class="cls-10" points="144.7 42.04 144.7 49.58 185.92 49.58 185.92 41.91 144.7 42.04"/><polygon class="cls-11" points="465.72 154.26 241.77 154.26 220.66 154.26 17.07 154.26 2 137.17 481.69 137.17 465.72 154.26"/><polygon class="cls-7" points="485.92 132.65 2 132.65 2 128.41 489.88 128.41 485.92 132.65"/><rect class="cls-6" x="367.39" y="62.93" width="28.32" height="28.32"/><rect class="cls-11" x="339.06" y="62.93" width="28.33" height="28.32"/><rect class="cls-12" x="310.74" y="62.93" width="28.32" height="28.32"/><rect class="cls-6" x="282.41" y="62.93" width="28.33" height="28.32"/><rect class="cls-12" x="352.77" y="91.25" width="28.32" height="28.33"/><rect class="cls-6" x="324.45" y="91.25" width="28.33" height="28.33"/><rect class="cls-8" x="296.12" y="91.25" width="28.33" height="28.33"/><rect class="cls-6" x="267.8" y="91.25" width="28.33" height="28.33"/><rect class="cls-10" x="222.05" y="78.51" width="19.78" height="25.3"/><path class="cls-10" d="M291.1,65.62a1.7,1.7,0,0,0-1.69.55c-10.15-3.1-16.59-5.05-19.61-5.83a2.77,2.77,0,0,0-2.36.17A1.48,1.48,0,0,0,267,61a1.68,1.68,0,0,0-1,.64,1.77,1.77,0,0,0-.33.92C253.1,75.9,245.2,84.33,242,88.38a3.56,3.56,0,0,0-.85,2.9,5.76,5.76,0,0,0,2.32,3.27l.28.2.26.2a5.76,5.76,0,0,0,3.82,1.22,3.54,3.54,0,0,0,2.51-1.67c2.9-4.27,8.54-14.29,17.48-30.25a1.64,1.64,0,0,0,.88-.52l.28.08c3.06.67,9.66,1.86,20.06,3.7a1.7,1.7,0,0,0,3.33.15A1.69,1.69,0,0,0,291.1,65.62Zm-47,28.52,0,0-.16.19Z" transform="translate(-5.09 -12.69)"/><rect class="cls-8" x="283.96" y="54.55" width="4.51" height="8.37"/><rect class="cls-8" x="288.47" y="54.55" width="4.52" height="8.37"/><path class="cls-8" d="M486.89,167.65a7.34,7.34,0,0,0-2.34,0h0c-2,0-4.64,0-7.55.15a37.64,37.64,0,0,1-5.59-.85H21.05l-.52,4.15-9.29.87v18.57H33v-9.87c32.72,7.7,82.31,9.81,126.15,9.87H486.78a11.45,11.45,0,0,0,.11-22.89Z" transform="translate(-5.09 -12.69)"/><rect class="cls-13" x="210.47" y="95.43" width="10.07" height="7.14"/><rect class="cls-13" x="63.11" y="67.42" width="10.37" height="6.67"/><rect class="cls-13" x="49.71" y="67.42" width="10.39" height="6.67"/><rect class="cls-13" x="197.08" y="67.42" width="10.38" height="6.67"/><rect class="cls-13" x="187.14" y="67.42" width="6.92" height="6.67"/><rect class="cls-13" x="187.97" y="32.48" width="10.39" height="6.6"/><rect class="cls-13" x="179.38" y="32.48" width="5.58" height="6.6"/><rect class="cls-13" x="174.57" y="32.48" width="1.79" height="6.6"/><polygon class="cls-13" points="171.55 32.48 171.55 39.08 167.61 39.08 165.63 33.96 165.63 32.48 171.55 32.48"/><rect class="cls-13" x="147.71" y="32.48" width="10.45" height="6.6"/><polygon class="cls-13" points="163.02 33.96 161.18 38.74 161.18 32.48 163.02 32.48 163.02 33.96"/><rect class="cls-13" x="96.34" y="32.48" width="10.39" height="6.6"/><rect class="cls-13" x="82.94" y="32.48" width="10.38" height="6.6"/><rect class="cls-13" x="69.48" y="32.48" width="10.45" height="6.6"/><rect class="cls-13" x="110.66" y="32.48" width="9.47" height="6.6"/><rect class="cls-13" x="76.5" y="67.42" width="5.42" height="6.67"/><rect class="cls-13" x="36.31" y="67.42" width="10.38" height="6.67"/><rect class="cls-13" x="23.22" y="95.43" width="10.08" height="7.14"/><rect class="cls-13" x="5.01" y="95.43" width="15.2" height="7.14"/><rect class="cls-14" x="99.7" y="257.46" width="22.31" height="22.31"/><path class="cls-5" d="M136,284.13a3.06,3.06,0,0,1-.3,1.39,3,3,0,0,1-.8,1,3.42,3.42,0,0,1-1.19.6,5.22,5.22,0,0,1-2.43.12,6,6,0,0,1-.79-.21,3.59,3.59,0,0,1-.58-.25,2.5,2.5,0,0,1-.33-.23.7.7,0,0,1-.14-.3,2.62,2.62,0,0,1,0-.55c0-.16,0-.3,0-.4a1.46,1.46,0,0,1,0-.27.36.36,0,0,1,.1-.15.25.25,0,0,1,.13,0,.59.59,0,0,1,.31.13,5.13,5.13,0,0,0,.51.29,4.56,4.56,0,0,0,.75.28,3.37,3.37,0,0,0,1,.13,2.26,2.26,0,0,0,.67-.09,1.52,1.52,0,0,0,.51-.25,1,1,0,0,0,.31-.41,1.19,1.19,0,0,0,.11-.54,1,1,0,0,0-.18-.59,2.1,2.1,0,0,0-.49-.44,7.26,7.26,0,0,0-.69-.36l-.78-.35a7.52,7.52,0,0,1-.79-.43,3.18,3.18,0,0,1-.69-.57,2.79,2.79,0,0,1-.49-.78,3,3,0,0,1-.18-1.09,2.9,2.9,0,0,1,.27-1.28,2.69,2.69,0,0,1,.72-.91,3.22,3.22,0,0,1,1.08-.54,4.73,4.73,0,0,1,1.32-.18,5.81,5.81,0,0,1,.72.05,6,6,0,0,1,.67.15,3.16,3.16,0,0,1,.55.21,1.38,1.38,0,0,1,.32.2.4.4,0,0,1,.11.13,1.09,1.09,0,0,1,.05.14,1.4,1.4,0,0,1,0,.23,3.33,3.33,0,0,1,0,.34c0,.15,0,.28,0,.38a1.43,1.43,0,0,1,0,.26.27.27,0,0,1-.08.15.19.19,0,0,1-.13.05.73.73,0,0,1-.28-.11,3.22,3.22,0,0,0-.46-.24,3.78,3.78,0,0,0-.63-.24,2.8,2.8,0,0,0-.79-.1,2.1,2.1,0,0,0-.59.08,1.25,1.25,0,0,0-.41.23.73.73,0,0,0-.25.35,1,1,0,0,0-.09.43.92.92,0,0,0,.19.58,1.6,1.6,0,0,0,.49.43,4.57,4.57,0,0,0,.7.36l.79.36a6.16,6.16,0,0,1,.8.43,2.92,2.92,0,0,1,.7.57,2.79,2.79,0,0,1,.49.78A2.83,2.83,0,0,1,136,284.13Z" transform="translate(-5.09 -12.69)"/><path class="cls-5" d="M141.56,286.2a2.42,2.42,0,0,1,0,.53.58.58,0,0,1-.11.26.69.69,0,0,1-.21.13,2,2,0,0,1-.32.1l-.4.07a3.1,3.1,0,0,1-.43,0,3.13,3.13,0,0,1-1-.15,1.7,1.7,0,0,1-.71-.45,2.07,2.07,0,0,1-.41-.78,4,4,0,0,1-.13-1.11v-3.57h-.84c-.1,0-.17-.06-.23-.18a1.87,1.87,0,0,1-.07-.62c0-.15,0-.27,0-.38a2.33,2.33,0,0,1,.06-.25.25.25,0,0,1,.1-.12.23.23,0,0,1,.14,0h.83V278.1a.23.23,0,0,1,0-.14.28.28,0,0,1,.16-.1,1.33,1.33,0,0,1,.3-.07l.47,0,.48,0a1.33,1.33,0,0,1,.3.07.28.28,0,0,1,.16.1.24.24,0,0,1,.05.14v1.56h1.51a.23.23,0,0,1,.14,0,.25.25,0,0,1,.1.12,2.33,2.33,0,0,1,.06.25c0,.11,0,.23,0,.38a1.87,1.87,0,0,1-.07.62.25.25,0,0,1-.23.18h-1.52v3.27a1.64,1.64,0,0,0,.18.86.69.69,0,0,0,.64.28,1.23,1.23,0,0,0,.28,0,1.14,1.14,0,0,0,.22-.07l.17-.06.12,0,.09,0a.23.23,0,0,1,.06.11c0,.06,0,.13.05.22S141.56,286.06,141.56,286.2Z" transform="translate(-5.09 -12.69)"/><path class="cls-5" d="M149.23,283.2a.73.73,0,0,1-.16.53.57.57,0,0,1-.44.18h-4.24a3,3,0,0,0,.1.81,1.48,1.48,0,0,0,.93,1,2.49,2.49,0,0,0,.87.13,4.88,4.88,0,0,0,.91-.07,5.89,5.89,0,0,0,.67-.17l.48-.16a.79.79,0,0,1,.3-.07.22.22,0,0,1,.12,0,.21.21,0,0,1,.08.1.77.77,0,0,1,0,.2,3,3,0,0,1,0,.32,2.63,2.63,0,0,1,0,.3,1,1,0,0,1,0,.2.53.53,0,0,1-.05.15.44.44,0,0,1-.08.11.81.81,0,0,1-.28.15,4.9,4.9,0,0,1-.57.18,7.32,7.32,0,0,1-1.78.23,5,5,0,0,1-1.63-.24,2.9,2.9,0,0,1-1.17-.71,3,3,0,0,1-.69-1.2,5.49,5.49,0,0,1-.23-1.71,5.43,5.43,0,0,1,.24-1.67,3.48,3.48,0,0,1,.7-1.27,3.08,3.08,0,0,1,1.12-.79,3.92,3.92,0,0,1,1.49-.27,4,4,0,0,1,1.5.25,2.69,2.69,0,0,1,1.6,1.8,4.56,4.56,0,0,1,.19,1.36Zm-1.91-.56a2,2,0,0,0-.33-1.3,1.27,1.27,0,0,0-1.1-.47,1.35,1.35,0,0,0-.65.14,1.3,1.3,0,0,0-.46.38,1.64,1.64,0,0,0-.28.56,2.62,2.62,0,0,0-.11.69Z" transform="translate(-5.09 -12.69)"/><path class="cls-5" d="M155.32,280.57c0,.19,0,.34,0,.46a1.3,1.3,0,0,1-.05.28.26.26,0,0,1-.08.14.2.2,0,0,1-.13,0l-.14,0-.18-.06-.21-.06a1.09,1.09,0,0,0-.26,0,.78.78,0,0,0-.33.07,1.37,1.37,0,0,0-.34.2,2.68,2.68,0,0,0-.36.38,6.85,6.85,0,0,0-.42.58v4.34a.23.23,0,0,1,0,.14.4.4,0,0,1-.16.1l-.3.05a5.77,5.77,0,0,1-1,0l-.3-.05a.4.4,0,0,1-.16-.1.23.23,0,0,1,0-.14v-7a.18.18,0,0,1,0-.13.22.22,0,0,1,.14-.1.77.77,0,0,1,.26-.06l.4,0,.41,0a.77.77,0,0,1,.26.06.27.27,0,0,1,.13.1.25.25,0,0,1,0,.13v.87a5.69,5.69,0,0,1,.51-.65,3.84,3.84,0,0,1,.46-.4,1.23,1.23,0,0,1,.44-.2,1.67,1.67,0,0,1,.44-.06h.22l.24,0,.22.06a.37.37,0,0,1,.13.07l.07.09a.86.86,0,0,1,0,.13,1.38,1.38,0,0,1,0,.25C155.32,280.23,155.32,280.38,155.32,280.57Z" transform="translate(-5.09 -12.69)"/><path class="cls-5" d="M163.19,286.89a.24.24,0,0,1-.05.14.36.36,0,0,1-.15.1l-.3.05a5.77,5.77,0,0,1-1,0l-.3-.05a.36.36,0,0,1-.15-.1.19.19,0,0,1-.05-.14v-4a3.25,3.25,0,0,0-.08-.79,1.51,1.51,0,0,0-.21-.5.93.93,0,0,0-.36-.32,1.21,1.21,0,0,0-.52-.11,1.31,1.31,0,0,0-.76.27,4,4,0,0,0-.8.8v4.63a.23.23,0,0,1,0,.14.49.49,0,0,1-.16.1,1.82,1.82,0,0,1-.31.05,3.18,3.18,0,0,1-.47,0,3.4,3.4,0,0,1-.48,0l-.3-.05a.4.4,0,0,1-.16-.1.24.24,0,0,1-.05-.14v-7a.25.25,0,0,1,0-.13.3.3,0,0,1,.14-.1.9.9,0,0,1,.27-.06l.4,0,.41,0a.77.77,0,0,1,.26.06.2.2,0,0,1,.12.1.18.18,0,0,1,0,.13v.81a4.47,4.47,0,0,1,1.18-.94,2.63,2.63,0,0,1,1.25-.31,2.8,2.8,0,0,1,1.19.23,2.09,2.09,0,0,1,.79.64,2.63,2.63,0,0,1,.44.94,5.43,5.43,0,0,1,.13,1.3Z" transform="translate(-5.09 -12.69)"/><rect class="cls-15" x="201.04" y="224" width="22.31" height="22.31"/><path class="cls-5" d="M432.46,252.16a2.92,2.92,0,0,1,0,.33.83.83,0,0,1,0,.24l-.06.17a1.31,1.31,0,0,1-.13.16,2.13,2.13,0,0,1-.33.23,4.37,4.37,0,0,1-.6.27,6.77,6.77,0,0,1-.81.21,5.21,5.21,0,0,1-1,.09,5.33,5.33,0,0,1-1.88-.32,3.76,3.76,0,0,1-1.42-1,4.24,4.24,0,0,1-.9-1.59,8,8,0,0,1,0-4.51,4.93,4.93,0,0,1,1-1.68,4.2,4.2,0,0,1,1.49-1,5.06,5.06,0,0,1,1.9-.35,4.28,4.28,0,0,1,.81.07,6.31,6.31,0,0,1,.72.18,4.17,4.17,0,0,1,.6.27,1.44,1.44,0,0,1,.37.25,1,1,0,0,1,.15.18.93.93,0,0,1,.06.18,1.56,1.56,0,0,1,0,.25,3.57,3.57,0,0,1,0,.37c0,.16,0,.29,0,.4a1.2,1.2,0,0,1-.05.26.36.36,0,0,1-.1.15.18.18,0,0,1-.12.05.56.56,0,0,1-.3-.14,4.94,4.94,0,0,0-.47-.3,3.62,3.62,0,0,0-.68-.31,2.88,2.88,0,0,0-.94-.13,2.31,2.31,0,0,0-1.07.24,2.38,2.38,0,0,0-.81.71,3.18,3.18,0,0,0-.5,1.1,6.56,6.56,0,0,0,0,3,2.9,2.9,0,0,0,.53,1.07,2.11,2.11,0,0,0,.82.63,2.67,2.67,0,0,0,1.08.21,3.23,3.23,0,0,0,.94-.13,3.77,3.77,0,0,0,.69-.29c.19-.1.34-.2.47-.28a.56.56,0,0,1,.28-.12.28.28,0,0,1,.13,0,.22.22,0,0,1,.07.12,1.2,1.2,0,0,1,.05.26C432.45,251.83,432.46,252,432.46,252.16Z" transform="translate(-5.09 -12.69)"/><path class="cls-5" d="M439.75,253.45a.21.21,0,0,1-.07.17.52.52,0,0,1-.25.09,3.07,3.07,0,0,1-.5,0,3.13,3.13,0,0,1-.51,0,.41.41,0,0,1-.23-.09.24.24,0,0,1-.06-.17v-.55a3.45,3.45,0,0,1-1,.72,2.9,2.9,0,0,1-1.22.25,3.64,3.64,0,0,1-1-.14,2.42,2.42,0,0,1-.81-.43,2,2,0,0,1-.53-.71,2.48,2.48,0,0,1-.18-1,2.33,2.33,0,0,1,.23-1.06,1.89,1.89,0,0,1,.72-.74,3.49,3.49,0,0,1,1.17-.44,8.69,8.69,0,0,1,1.63-.14h.68v-.42a2.37,2.37,0,0,0-.06-.57,1,1,0,0,0-.22-.41,1,1,0,0,0-.41-.25,2.28,2.28,0,0,0-.63-.07,3,3,0,0,0-.88.11,4.88,4.88,0,0,0-.68.24l-.5.24a.76.76,0,0,1-.32.11.2.2,0,0,1-.15-.06.3.3,0,0,1-.11-.15,1.26,1.26,0,0,1-.07-.25,3.25,3.25,0,0,1,0-.33,1.29,1.29,0,0,1,0-.38.5.5,0,0,1,.15-.26,1.54,1.54,0,0,1,.38-.25,4.51,4.51,0,0,1,.64-.25,5.87,5.87,0,0,1,.8-.19,5.29,5.29,0,0,1,.9-.08,5.68,5.68,0,0,1,1.4.16,2.27,2.27,0,0,1,.95.5,1.85,1.85,0,0,1,.55.85,3.83,3.83,0,0,1,.17,1.24Zm-1.93-3h-.75a3.81,3.81,0,0,0-.81.07,1.44,1.44,0,0,0-.55.21.81.81,0,0,0-.3.34,1,1,0,0,0-.1.46.84.84,0,0,0,.28.68,1.08,1.08,0,0,0,.77.25,1.45,1.45,0,0,0,.76-.21,3,3,0,0,0,.7-.62Z" transform="translate(-5.09 -12.69)"/><path class="cls-5" d="M446.19,247.11c0,.19,0,.34,0,.46s0,.21-.05.28a.3.3,0,0,1-.08.14.2.2,0,0,1-.13,0l-.14,0-.18-.06-.21-.05a1.09,1.09,0,0,0-.26,0,1,1,0,0,0-.33.06,1.85,1.85,0,0,0-.34.21,2.24,2.24,0,0,0-.37.38c-.12.15-.26.34-.41.57v4.35a.18.18,0,0,1,0,.13.32.32,0,0,1-.16.1,1.13,1.13,0,0,1-.3.06l-.48,0-.48,0a1.13,1.13,0,0,1-.3-.06.32.32,0,0,1-.16-.1.19.19,0,0,1-.05-.13v-7a.33.33,0,0,1,0-.14.39.39,0,0,1,.14-.1,1.46,1.46,0,0,1,.27-.05,2.3,2.3,0,0,1,.4,0,2.43,2.43,0,0,1,.41,0,1.2,1.2,0,0,1,.26.05.34.34,0,0,1,.13.1.32.32,0,0,1,0,.14v.87a7,7,0,0,1,.52-.65,3.11,3.11,0,0,1,.46-.4,1.47,1.47,0,0,1,.44-.21,1.61,1.61,0,0,1,.44-.06l.21,0,.25,0,.22.07a.5.5,0,0,1,.13.07.24.24,0,0,1,.06.09.33.33,0,0,1,0,.13,1.25,1.25,0,0,1,0,.24C446.19,246.77,446.19,246.92,446.19,247.11Z" transform="translate(-5.09 -12.69)"/><path class="cls-5" d="M453.5,246.94a1.33,1.33,0,0,1-.09.56q-.09.18-.21.18h-.82a1.1,1.1,0,0,1,.24.42,1.69,1.69,0,0,1,.08.5,2.77,2.77,0,0,1-.2,1.08,2.14,2.14,0,0,1-.59.8,2.56,2.56,0,0,1-.91.49,4,4,0,0,1-1.19.17,2.61,2.61,0,0,1-.64-.08,1.81,1.81,0,0,1-.47-.19.92.92,0,0,0-.17.24.64.64,0,0,0-.07.31.43.43,0,0,0,.2.37,1,1,0,0,0,.55.16l1.7.06a4.61,4.61,0,0,1,1.06.17,2.22,2.22,0,0,1,.78.41,1.66,1.66,0,0,1,.48.63,1.84,1.84,0,0,1,.17.83,2.2,2.2,0,0,1-.22,1,2.41,2.41,0,0,1-.68.79,3.76,3.76,0,0,1-1.14.53,5.88,5.88,0,0,1-1.6.2,6.67,6.67,0,0,1-1.52-.15,3.17,3.17,0,0,1-1-.39,1.59,1.59,0,0,1-.59-.59,1.68,1.68,0,0,1-.18-.77,1.61,1.61,0,0,1,.07-.49,2.16,2.16,0,0,1,.19-.45,2.4,2.4,0,0,1,.32-.41,3.19,3.19,0,0,1,.43-.37,1.29,1.29,0,0,1-.52-.49,1.33,1.33,0,0,1-.18-.68,1.74,1.74,0,0,1,.21-.84,2.7,2.7,0,0,1,.54-.68,2,2,0,0,1-.43-.66,2.37,2.37,0,0,1-.17-1,2.53,2.53,0,0,1,.22-1.09,2.29,2.29,0,0,1,.59-.81,2.74,2.74,0,0,1,.92-.51,3.6,3.6,0,0,1,1.17-.17q.33,0,.63,0l.56.11h2.21q.14,0,.21.18A1.29,1.29,0,0,1,453.5,246.94Zm-2.07,7.21a.59.59,0,0,0-.28-.53,1.41,1.41,0,0,0-.77-.21l-1.4,0a1.88,1.88,0,0,0-.32.29,1.4,1.4,0,0,0-.2.26.82.82,0,0,0-.1.24,1.94,1.94,0,0,0,0,.24.65.65,0,0,0,.39.6,2.61,2.61,0,0,0,1.12.2,2.75,2.75,0,0,0,.75-.09,1.49,1.49,0,0,0,.49-.24,1,1,0,0,0,.27-.33A1,1,0,0,0,451.43,254.15Zm-.46-5.56a1.17,1.17,0,0,0-.31-.87,1.19,1.19,0,0,0-.88-.32,1.29,1.29,0,0,0-.51.1,1,1,0,0,0-.36.27,1.07,1.07,0,0,0-.22.39,1.43,1.43,0,0,0-.07.46,1.14,1.14,0,0,0,.31.84,1.17,1.17,0,0,0,.87.31,1.38,1.38,0,0,0,.52-.09,1,1,0,0,0,.36-.26,1.11,1.11,0,0,0,.22-.38A1.33,1.33,0,0,0,451,248.59Z" transform="translate(-5.09 -12.69)"/><path class="cls-5" d="M461.69,249.87a5.53,5.53,0,0,1-.23,1.63,3.53,3.53,0,0,1-.71,1.26,3.1,3.1,0,0,1-1.2.82,4.35,4.35,0,0,1-1.68.29,4.67,4.67,0,0,1-1.62-.25,3.15,3.15,0,0,1-1.14-.75,3.21,3.21,0,0,1-.67-1.22,5.76,5.76,0,0,1-.22-1.64,5.2,5.2,0,0,1,.24-1.62,3.37,3.37,0,0,1,.72-1.27,3.2,3.2,0,0,1,1.19-.82A4.45,4.45,0,0,1,458,246a4.68,4.68,0,0,1,1.63.26,2.89,2.89,0,0,1,1.13.74,3.11,3.11,0,0,1,.67,1.21A5.54,5.54,0,0,1,461.69,249.87Zm-2,.08a5.61,5.61,0,0,0-.08-.95,2.3,2.3,0,0,0-.28-.75,1.38,1.38,0,0,0-.52-.5,1.69,1.69,0,0,0-.82-.18,1.67,1.67,0,0,0-.76.16,1.36,1.36,0,0,0-.54.47,2.18,2.18,0,0,0-.32.74,4.25,4.25,0,0,0-.1,1,4.74,4.74,0,0,0,.08.95,2.3,2.3,0,0,0,.28.75,1.32,1.32,0,0,0,.52.5,1.8,1.8,0,0,0,.81.17,1.65,1.65,0,0,0,.77-.16,1.33,1.33,0,0,0,.54-.46,2.27,2.27,0,0,0,.32-.74A4.87,4.87,0,0,0,459.67,250Z" transform="translate(-5.09 -12.69)"/><path class="cls-5" d="M473.52,253.43a.19.19,0,0,1,0,.13.28.28,0,0,1-.15.1,1.13,1.13,0,0,1-.3.06l-.48,0-.48,0a1,1,0,0,1-.3-.06.28.28,0,0,1-.15-.1.15.15,0,0,1-.05-.13v-4a3.34,3.34,0,0,0-.08-.8,1.69,1.69,0,0,0-.21-.49.92.92,0,0,0-.36-.32,1.11,1.11,0,0,0-.52-.12,1.32,1.32,0,0,0-.76.28,4,4,0,0,0-.8.8v4.63a.15.15,0,0,1-.05.13.28.28,0,0,1-.16.1,1,1,0,0,1-.3.06l-.47,0-.48,0a1.13,1.13,0,0,1-.3-.06.28.28,0,0,1-.16-.1.19.19,0,0,1-.05-.13V243.15a.27.27,0,0,1,.05-.14.34.34,0,0,1,.16-.1,1.67,1.67,0,0,1,.3-.07l.48,0,.47,0a1.33,1.33,0,0,1,.3.07.34.34,0,0,1,.16.1.2.2,0,0,1,.05.14V247a3.63,3.63,0,0,1,1-.75A2.59,2.59,0,0,1,471,246a2.67,2.67,0,0,1,1.2.24,2,2,0,0,1,.79.64,2.68,2.68,0,0,1,.44,1,5.52,5.52,0,0,1,.13,1.31Z" transform="translate(-5.09 -12.69)"/><path class="cls-5" d="M482.5,249.87a5.22,5.22,0,0,1-.24,1.63,3.25,3.25,0,0,1-.71,1.26,3.13,3.13,0,0,1-1.19.82,4.35,4.35,0,0,1-1.68.29,4.67,4.67,0,0,1-1.62-.25,2.86,2.86,0,0,1-1.81-2A5.43,5.43,0,0,1,475,250a5.2,5.2,0,0,1,.24-1.62,3.22,3.22,0,0,1,.71-1.27,3.29,3.29,0,0,1,1.19-.82,4.54,4.54,0,0,1,1.68-.29,4.66,4.66,0,0,1,1.62.26,2.93,2.93,0,0,1,1.14.74,3.24,3.24,0,0,1,.67,1.21A5.89,5.89,0,0,1,482.5,249.87Zm-2,.08a5.61,5.61,0,0,0-.08-.95,2.09,2.09,0,0,0-.28-.75,1.32,1.32,0,0,0-.52-.5,1.62,1.62,0,0,0-.81-.18,1.68,1.68,0,0,0-.77.16,1.36,1.36,0,0,0-.54.47,2.17,2.17,0,0,0-.31.74,4.22,4.22,0,0,0-.11,1,4.72,4.72,0,0,0,.09.95,2.29,2.29,0,0,0,.27.75,1.32,1.32,0,0,0,.52.5,1.81,1.81,0,0,0,.82.17,1.71,1.71,0,0,0,.77-.16,1.33,1.33,0,0,0,.54-.46,2.26,2.26,0,0,0,.31-.74A4.25,4.25,0,0,0,480.47,250Z" transform="translate(-5.09 -12.69)"/><path class="cls-5" d="M486,253.43a.19.19,0,0,1,0,.13.28.28,0,0,1-.16.1,1,1,0,0,1-.3.06l-.48,0-.47,0a1,1,0,0,1-.3-.06.28.28,0,0,1-.16-.1.19.19,0,0,1-.05-.13V243.15a.27.27,0,0,1,.05-.14.34.34,0,0,1,.16-.1,1.33,1.33,0,0,1,.3-.07l.47,0,.48,0a1.33,1.33,0,0,1,.3.07.34.34,0,0,1,.16.1.27.27,0,0,1,0,.14Z" transform="translate(-5.09 -12.69)"/><path class="cls-5" d="M494.59,253.43a.21.21,0,0,1,0,.14.34.34,0,0,1-.13.1.8.8,0,0,1-.26.05l-.39,0-.41,0a.79.79,0,0,1-.25-.05.32.32,0,0,1-.14-.1.21.21,0,0,1,0-.14v-.78a4.38,4.38,0,0,1-1.13.9,2.65,2.65,0,0,1-1.31.32,2.7,2.7,0,0,1-1.35-.31,2.47,2.47,0,0,1-.9-.83,3.52,3.52,0,0,1-.5-1.22,6.43,6.43,0,0,1-.16-1.47,6.53,6.53,0,0,1,.2-1.67,3.81,3.81,0,0,1,.58-1.27,2.55,2.55,0,0,1,1-.8,2.87,2.87,0,0,1,1.31-.29,2.33,2.33,0,0,1,1.06.24,3.85,3.85,0,0,1,.95.7v-3.77a.23.23,0,0,1,0-.14.34.34,0,0,1,.16-.11,1,1,0,0,1,.3-.06,3,3,0,0,1,.47,0,3.14,3.14,0,0,1,.48,0,1.13,1.13,0,0,1,.3.06.37.37,0,0,1,.15.11.24.24,0,0,1,0,.14Zm-1.95-4.66a4.41,4.41,0,0,0-.81-.81,1.35,1.35,0,0,0-.81-.28,1.09,1.09,0,0,0-.66.19,1.48,1.48,0,0,0-.45.51,3.05,3.05,0,0,0-.25.72,4.26,4.26,0,0,0-.08.8,6,6,0,0,0,.07.86,3,3,0,0,0,.23.73,1.38,1.38,0,0,0,.43.52,1.09,1.09,0,0,0,.67.2,1.23,1.23,0,0,0,.39-.06,1.6,1.6,0,0,0,.4-.19,3,3,0,0,0,.41-.35c.14-.14.29-.32.46-.53Z" transform="translate(-5.09 -12.69)"/><rect class="cls-16" x="395.17" y="224" width="22.31" height="22.31"/></g><g id="Official_sources" data-name="Official sources"><path class="cls-17" d="M402,190.54h84.76a11.45,11.45,0,0,0,.11-22.89,7.34,7.34,0,0,0-2.34,0h0c-2,0-4.64,0-7.55.15a37.64,37.64,0,0,1-5.59-.85h-.57l16-17.08h0l16.45-17.6,14.09-15.84H412.68l-10.55,15.84Z" transform="translate(-5.09 -12.69)"/><path class="cls-18" d="M159.16,115.27H7.09v34.6L22.16,167H21.05l-.52,4.15-9.29.87v18.57H33v-9.87c32.72,7.7,82.31,9.81,126.15,9.87h0Z" transform="translate(-5.09 -12.69)"/><path class="cls-19" d="M246.94,190.54H402l.11-58.27H246.86Z" transform="translate(-5.09 -12.69)"/><path class="cls-20" d="M246.86,132.27v-17h-87.7v75.27h87.78Z" transform="translate(-5.09 -12.69)"/></g><g id="Newspaper"><path class="cls-21" d="M298.08,75.62V67.25h-5.69a1.68,1.68,0,0,0-1.29-1.63,1.7,1.7,0,0,0-1.69.55c-10.15-3.1-16.59-5.05-19.61-5.83a2.77,2.77,0,0,0-2.36.17A1.48,1.48,0,0,0,267,61a1.68,1.68,0,0,0-1,.64,1.77,1.77,0,0,0-.33.92C253.1,75.9,245.2,84.33,242,88.38a3.54,3.54,0,0,0-.85,2.82h-14v13.91H215.56v-28H192.23V61.68l14.12-6.89h.12V42.16h-22V18h4.74a1.58,1.58,0,0,0,0-3.15H176.73a1.58,1.58,0,0,0,0,3.15h4.72V42.16H170.72v-1.5h2.7a2.82,2.82,0,0,0,2.24-1,3.59,3.59,0,0,0,.8-2.44v-4a1.31,1.31,0,1,0-2.61,0v4.11a.88.88,0,0,1-.09.44.5.5,0,0,1-.34.08h-2.7V30.5h.94a2.86,2.86,0,0,0,2.26-1,3.37,3.37,0,0,0,.77-2.35V23.48a1.31,1.31,0,1,0-2.61,0v3.8a.61.61,0,0,1-.07.35s-.11.07-.36.07h-.94V21.91a1.31,1.31,0,1,0-2.61,0v8.18h-1.23v-16a1.3,1.3,0,1,0-2.6,0v18.8h3.83V37h-5.39a1.4,1.4,0,0,0,0,2.8h5.39v2.38H149.79v12.7H128.23V42.16H115.75v-12h2.61a1.51,1.51,0,1,0,0-3h-2.61V22.62H120a1.51,1.51,0,1,0,0-3H108.5a1.51,1.51,0,1,0,0,3h4.23v4.52h-2.59a1.51,1.51,0,0,0,0,3h2.59v12H71.55V54.79h.12L87,62.27V77.09H38.39v28H7.09v10.16H246.86l.06-19.1a3.78,3.78,0,0,0,.89,0,3.54,3.54,0,0,0,2.51-1.67c2.9-4.27,8.54-14.29,17.48-30.25a1.64,1.64,0,0,0,.88-.52l.28.08c3.06.67,9.66,1.86,20.06,3.7l0,.09v8" transform="translate(-5.09 -12.69)"/></g><g id="Criminal"><polygon class="cls-22" points="407.6 103.74 409.43 103.74 409.43 91.25 395.71 91.25 395.71 62.93 367.39 62.93 339.06 62.93 310.74 62.93 282.41 62.93 282.41 91.25 267.8 91.25 267.8 119.58 397.04 119.58 407.6 103.74"/></g></svg>