<svg xmlns="http://www.w3.org/2000/svg" viewBox="0 0 185.79 163.81"><defs><style>.cls-1{fill:#f18743;}.cls-2{fill:#f4aa82;}.cls-3{fill:#f09665;}.cls-4{fill:#eb6018;}.cls-5{fill:#9f3716;}.cls-6{fill:#852a11;}.cls-7{fill:#d84a14;}.cls-8{fill:#ee751c;}.cls-9{fill:#c64017;}.cls-10{fill:#771f0e;}.cls-11{fill:#ec6226;}.cls-12{fill:#d4edfa;}.cls-13{fill:#2d81bb;}.cls-14{fill:#1d77a0;}.cls-15{fill:#00517d;}.cls-16{fill:#166ea6;}.cls-17{fill:#3c8dcc;}.cls-18{fill:#003e58;}.cls-19{fill:#eea013;}.cls-20{fill:#cc7c26;}.cls-21{fill:#bc7014;}.cls-22{fill:#e58d02;}.cls-23{fill:#eda71c;}</style></defs><title>G08_16_05</title><g id="Criminal"><polygon class="cls-1" points="185.79 106.29 185.79 111.04 96.32 163.81 96.32 159.06 185.79 106.29"/><polygon class="cls-2" points="96.32 159.06 96.32 163.81 0.22 108.08 0.22 103.33 96.32 159.06"/><polygon class="cls-3" points="96.1 159.08 0 103.35 0 103.08 90.31 51.18 185.79 106.3 96.25 159.17 96.1 159.08"/><g id="_Gruppo_" data-name="&lt;Gruppo&gt;"><g id="_Gruppo_2" data-name="&lt;Gruppo&gt;"><polygon id="_Tracciato_" data-name="&lt;Tracciato&gt;" class="cls-4" points="80.88 78.06 80.88 48.22 137.64 81 137.64 111.2 80.88 78.06"/><polygon id="_Tracciato_2" data-name="&lt;Tracciato&gt;" class="cls-5" points="158.7 69 137.64 81 137.64 111.2 158.7 98.94 158.7 69"/><polygon id="_Tracciato_3" data-name="&lt;Tracciato&gt;" class="cls-6" points="135.69 109.98 135.69 79.78 134.25 80.63 134.25 110.84 135.69 109.98"/><polygon id="_Tracciato_4" data-name="&lt;Tracciato&gt;" class="cls-7" points="134.25 80.63 132.72 79.69 132.72 109.95 134.25 110.84 134.25 80.63"/><polygon id="_Tracciato_5" data-name="&lt;Tracciato&gt;" class="cls-6" points="132.72 108.29 132.72 78.09 131.28 78.94 131.28 109.14 132.72 108.29"/><polygon id="_Tracciato_6" data-name="&lt;Tracciato&gt;" class="cls-7" points="131.28 78.94 129.75 78.09 129.75 108.25 131.28 109.14 131.28 78.94"/><polygon id="_Tracciato_7" data-name="&lt;Tracciato&gt;" class="cls-6" points="129.75 106.55 129.75 76.35 128.31 77.19 128.31 107.41 129.75 106.55"/><polygon id="_Tracciato_8" data-name="&lt;Tracciato&gt;" class="cls-7" points="128.31 77.19 126.78 76.29 126.78 106.51 128.31 107.41 128.31 77.19"/><polygon id="_Tracciato_9" data-name="&lt;Tracciato&gt;" class="cls-6" points="126.78 104.86 126.78 74.67 125.35 75.51 125.35 105.72 126.78 104.86"/><polygon id="_Tracciato_10" data-name="&lt;Tracciato&gt;" class="cls-7" points="125.35 75.51 123.81 74.58 123.81 104.83 125.35 105.72 125.35 75.51"/><polygon id="_Tracciato_11" data-name="&lt;Tracciato&gt;" class="cls-6" points="123.81 103.17 123.81 72.97 122.38 73.82 122.38 104.03 123.81 103.17"/><polygon id="_Tracciato_12" data-name="&lt;Tracciato&gt;" class="cls-7" points="122.38 73.82 120.84 72.97 120.84 103.14 122.38 104.03 122.38 73.82"/><polygon id="_Tracciato_13" data-name="&lt;Tracciato&gt;" class="cls-6" points="120.84 101.43 120.84 71.23 119.41 72.08 119.41 102.29 120.84 101.43"/><polygon id="_Tracciato_14" data-name="&lt;Tracciato&gt;" class="cls-7" points="119.41 72.08 117.87 71.18 117.87 101.4 119.41 102.29 119.41 72.08"/><polygon id="_Tracciato_15" data-name="&lt;Tracciato&gt;" class="cls-6" points="117.94 99.69 117.94 69.5 116.5 70.34 116.5 100.55 117.94 99.69"/><polygon id="_Tracciato_16" data-name="&lt;Tracciato&gt;" class="cls-7" points="116.5 70.34 114.97 69.4 114.97 99.66 116.5 100.55 116.5 70.34"/><polygon id="_Tracciato_17" data-name="&lt;Tracciato&gt;" class="cls-6" points="114.97 98 114.97 67.8 113.53 68.65 113.53 98.86 114.97 98"/><polygon id="_Tracciato_18" data-name="&lt;Tracciato&gt;" class="cls-7" points="113.53 68.65 112 67.8 112 97.97 113.53 98.86 113.53 68.65"/><polygon id="_Tracciato_19" data-name="&lt;Tracciato&gt;" class="cls-6" points="112 96.26 112 66.06 110.56 66.91 110.56 97.12 112 96.26"/><polygon id="_Tracciato_20" data-name="&lt;Tracciato&gt;" class="cls-7" points="110.56 66.91 109.03 66 109.03 96.23 110.56 97.12 110.56 66.91"/><polygon id="_Tracciato_21" data-name="&lt;Tracciato&gt;" class="cls-6" points="109.03 94.58 109.03 64.38 107.6 65.23 107.6 95.44 109.03 94.58"/><polygon id="_Tracciato_22" data-name="&lt;Tracciato&gt;" class="cls-7" points="107.6 65.23 106.06 64.29 106.06 94.54 107.6 95.44 107.6 65.23"/><polygon id="_Tracciato_23" data-name="&lt;Tracciato&gt;" class="cls-6" points="106.06 92.88 106.06 62.69 104.63 63.53 104.63 93.74 106.06 92.88"/><polygon id="_Tracciato_24" data-name="&lt;Tracciato&gt;" class="cls-7" points="104.63 63.53 103.09 62.69 103.09 92.85 104.63 93.74 104.63 63.53"/><polygon id="_Tracciato_25" data-name="&lt;Tracciato&gt;" class="cls-6" points="103.09 91.14 103.09 60.95 101.66 61.79 101.66 92 103.09 91.14"/><polygon id="_Tracciato_26" data-name="&lt;Tracciato&gt;" class="cls-7" points="101.66 61.79 100.12 60.89 100.12 91.11 101.66 92 101.66 61.79"/><polygon id="_Tracciato_27" data-name="&lt;Tracciato&gt;" class="cls-6" points="100.12 89.57 100.12 59.37 98.69 60.22 98.69 90.43 100.12 89.57"/><polygon id="_Tracciato_28" data-name="&lt;Tracciato&gt;" class="cls-7" points="98.69 60.22 97.16 59.28 97.16 89.54 98.69 90.43 98.69 60.22"/><polygon id="_Tracciato_29" data-name="&lt;Tracciato&gt;" class="cls-6" points="97.16 87.88 97.16 57.68 95.72 58.53 95.72 88.74 97.16 87.88"/><polygon id="_Tracciato_30" data-name="&lt;Tracciato&gt;" class="cls-7" points="95.72 58.53 94.19 57.68 94.19 87.84 95.72 88.74 95.72 58.53"/><polygon id="_Tracciato_31" data-name="&lt;Tracciato&gt;" class="cls-6" points="94.19 86.14 94.19 55.94 92.75 56.79 92.75 87 94.19 86.14"/><polygon id="_Tracciato_32" data-name="&lt;Tracciato&gt;" class="cls-7" points="92.75 56.79 91.22 55.88 91.22 86.1 92.75 87 92.75 56.79"/><polygon id="_Tracciato_33" data-name="&lt;Tracciato&gt;" class="cls-6" points="91.22 84.45 91.22 54.26 89.78 55.1 89.78 85.31 91.22 84.45"/><polygon id="_Tracciato_34" data-name="&lt;Tracciato&gt;" class="cls-7" points="89.78 55.1 88.25 54.17 88.25 84.42 89.78 85.31 89.78 55.1"/><polygon id="_Tracciato_35" data-name="&lt;Tracciato&gt;" class="cls-6" points="88.25 82.76 88.25 52.56 86.81 53.41 86.81 83.62 88.25 82.76"/><polygon id="_Tracciato_36" data-name="&lt;Tracciato&gt;" class="cls-7" points="86.81 53.41 85.28 52.56 85.28 82.73 86.81 83.62 86.81 53.41"/><polygon id="_Tracciato_37" data-name="&lt;Tracciato&gt;" class="cls-6" points="85.28 81.02 85.28 50.83 83.84 51.67 83.84 81.88 85.28 81.02"/><polygon id="_Tracciato_38" data-name="&lt;Tracciato&gt;" class="cls-7" points="83.84 51.67 82.31 50.77 82.31 80.99 83.84 81.88 83.84 51.67"/><polygon id="_Tracciato_39" data-name="&lt;Tracciato&gt;" class="cls-8" points="80.88 47.34 101.98 35.04 158.7 67.8 137.64 79.91 80.88 47.34"/><g id="_Gruppo_3" data-name="&lt;Gruppo&gt;"><polygon id="_Tracciato_40" data-name="&lt;Tracciato&gt;" class="cls-9" points="139.68 109.83 139.69 83.94 140.81 84.57 140.79 110.47 139.68 109.83"/><polygon id="_Tracciato_41" data-name="&lt;Tracciato&gt;" class="cls-10" points="140.81 84.57 142 83.9 141.98 109.81 140.79 110.47 140.81 84.57"/><polygon id="_Tracciato_42" data-name="&lt;Tracciato&gt;" class="cls-9" points="155.22 100.92 155.2 75.23 156.31 75.86 156.33 101.56 155.22 100.92"/><polygon id="_Tracciato_43" data-name="&lt;Tracciato&gt;" class="cls-10" points="156.31 75.86 157.5 75.19 157.52 100.9 156.33 101.56 156.31 75.86"/><polygon id="_Tracciato_44" data-name="&lt;Tracciato&gt;" class="cls-11" points="139.69 83.94 156.41 74.57 157.5 75.19 140.81 84.57 139.69 83.94"/><polygon id="_Tracciato_45" data-name="&lt;Tracciato&gt;" class="cls-10" points="140.81 86.27 157.5 76.9 157.5 75.19 140.81 84.57 140.81 86.27"/></g><polygon id="_Tracciato_46" data-name="&lt;Tracciato&gt;" class="cls-7" points="137.94 80.1 137.64 82.73 80.88 50.26 80.88 47.3 137.94 80.1"/><polygon id="_Tracciato_47" data-name="&lt;Tracciato&gt;" class="cls-5" points="158.7 67.8 158.7 70.65 137.64 82.73 137.64 79.91 158.7 67.8"/><g id="_Gruppo_4" data-name="&lt;Gruppo&gt;"><path id="_Tracciato_48" data-name="&lt;Tracciato&gt;" class="cls-12" d="M151.65,115.76a1.25,1.25,0,0,1-.57-.16l-.28-.16a.29.29,0,0,1-.11-.4h0a.29.29,0,0,1,.4-.11l.28.17a.6.6,0,0,0,.58,0l1.84-1-.3-.18a.3.3,0,0,1-.1-.4h0a.29.29,0,0,1,.4-.11l.29.17a.58.58,0,0,1,.3.52.6.6,0,0,1-.31.51l-1.84,1A1.19,1.19,0,0,1,151.65,115.76Z" transform="translate(-6.21 -17.44)"/></g><g id="_Gruppo_5" data-name="&lt;Gruppo&gt;"><path id="_Tracciato_49" data-name="&lt;Tracciato&gt;" class="cls-12" d="M157,112.75a1.13,1.13,0,0,1-.56-.16l-.28-.16a.29.29,0,0,1-.11-.4h0a.29.29,0,0,1,.4-.1l.28.16a.6.6,0,0,0,.58,0l1.84-1-.31-.18a.3.3,0,0,1-.1-.4h0a.31.31,0,0,1,.41-.11l.29.17a.59.59,0,0,1,.3.52.64.64,0,0,1-.31.52l-1.84,1A1.31,1.31,0,0,1,157,112.75Z" transform="translate(-6.21 -17.44)"/></g></g><g id="_Gruppo_6" data-name="&lt;Gruppo&gt;"><polygon id="_Tracciato_50" data-name="&lt;Tracciato&gt;" class="cls-13" points="80.78 43.03 80.78 13.18 137.54 45.96 137.54 76.17 80.78 43.03"/><polygon id="_Tracciato_51" data-name="&lt;Tracciato&gt;" class="cls-14" points="158.59 33.96 137.54 45.96 137.54 76.17 158.59 63.9 158.59 33.96"/><polygon id="_Tracciato_52" data-name="&lt;Tracciato&gt;" class="cls-15" points="135.59 74.94 135.59 44.74 134.15 45.59 134.15 75.8 135.59 74.94"/><polygon id="_Tracciato_53" data-name="&lt;Tracciato&gt;" class="cls-16" points="134.15 45.59 132.62 44.65 132.62 74.91 134.15 75.8 134.15 45.59"/><polygon id="_Tracciato_54" data-name="&lt;Tracciato&gt;" class="cls-15" points="132.62 73.25 132.62 43.05 131.18 43.9 131.18 74.11 132.62 73.25"/><polygon id="_Tracciato_55" data-name="&lt;Tracciato&gt;" class="cls-16" points="131.18 43.9 129.65 43.05 129.65 73.22 131.18 74.11 131.18 43.9"/><polygon id="_Tracciato_56" data-name="&lt;Tracciato&gt;" class="cls-15" points="129.65 71.51 129.65 41.31 128.21 42.16 128.21 72.37 129.65 71.51"/><polygon id="_Tracciato_57" data-name="&lt;Tracciato&gt;" class="cls-16" points="128.21 42.16 126.68 41.25 126.68 71.48 128.21 72.37 128.21 42.16"/><polygon id="_Tracciato_58" data-name="&lt;Tracciato&gt;" class="cls-15" points="126.68 69.83 126.68 39.63 125.24 40.48 125.24 70.69 126.68 69.83"/><polygon id="_Tracciato_59" data-name="&lt;Tracciato&gt;" class="cls-16" points="125.24 40.48 123.71 39.54 123.71 69.79 125.24 70.69 125.24 40.48"/><polygon id="_Tracciato_60" data-name="&lt;Tracciato&gt;" class="cls-15" points="123.71 68.13 123.71 37.94 122.28 38.78 122.28 68.99 123.71 68.13"/><polygon id="_Tracciato_61" data-name="&lt;Tracciato&gt;" class="cls-16" points="122.28 38.78 120.74 37.94 120.74 68.1 122.28 68.99 122.28 38.78"/><polygon id="_Tracciato_62" data-name="&lt;Tracciato&gt;" class="cls-15" points="120.74 66.39 120.74 36.2 119.31 37.04 119.31 67.25 120.74 66.39"/><polygon id="_Tracciato_63" data-name="&lt;Tracciato&gt;" class="cls-16" points="119.31 37.04 117.77 36.14 117.77 66.36 119.31 67.25 119.31 37.04"/><polygon id="_Tracciato_64" data-name="&lt;Tracciato&gt;" class="cls-15" points="117.84 64.66 117.84 34.46 116.4 35.3 116.4 65.51 117.84 64.66"/><polygon id="_Tracciato_65" data-name="&lt;Tracciato&gt;" class="cls-16" points="116.4 35.3 114.87 34.37 114.87 64.62 116.4 65.51 116.4 35.3"/><polygon id="_Tracciato_66" data-name="&lt;Tracciato&gt;" class="cls-15" points="114.87 62.96 114.87 32.76 113.43 33.61 113.43 63.82 114.87 62.96"/><polygon id="_Tracciato_67" data-name="&lt;Tracciato&gt;" class="cls-16" points="113.43 33.61 111.9 32.76 111.9 62.93 113.43 63.82 113.43 33.61"/><polygon id="_Tracciato_68" data-name="&lt;Tracciato&gt;" class="cls-15" points="111.9 61.22 111.9 31.02 110.46 31.87 110.46 62.08 111.9 61.22"/><polygon id="_Tracciato_69" data-name="&lt;Tracciato&gt;" class="cls-16" points="110.46 31.87 108.93 30.97 108.93 61.19 110.46 62.08 110.46 31.87"/><polygon id="_Tracciato_70" data-name="&lt;Tracciato&gt;" class="cls-15" points="108.93 59.54 108.93 29.34 107.49 30.19 107.49 60.4 108.93 59.54"/><polygon id="_Tracciato_71" data-name="&lt;Tracciato&gt;" class="cls-16" points="107.49 30.19 105.96 29.25 105.96 59.51 107.49 60.4 107.49 30.19"/><polygon id="_Tracciato_72" data-name="&lt;Tracciato&gt;" class="cls-15" points="105.96 57.85 105.96 27.65 104.53 28.49 104.53 58.7 105.96 57.85"/><polygon id="_Tracciato_73" data-name="&lt;Tracciato&gt;" class="cls-16" points="104.53 28.49 102.99 27.65 102.99 57.81 104.53 58.7 104.53 28.49"/><polygon id="_Tracciato_74" data-name="&lt;Tracciato&gt;" class="cls-15" points="102.99 56.11 102.99 25.91 101.56 26.75 101.56 56.97 102.99 56.11"/><polygon id="_Tracciato_75" data-name="&lt;Tracciato&gt;" class="cls-16" points="101.56 26.75 100.02 25.85 100.02 56.07 101.56 56.97 101.56 26.75"/><polygon id="_Tracciato_76" data-name="&lt;Tracciato&gt;" class="cls-15" points="100.02 54.53 100.02 24.34 98.59 25.18 98.59 55.39 100.02 54.53"/><polygon id="_Tracciato_77" data-name="&lt;Tracciato&gt;" class="cls-16" points="98.59 25.18 97.05 24.24 97.05 54.5 98.59 55.39 98.59 25.18"/><polygon id="_Tracciato_78" data-name="&lt;Tracciato&gt;" class="cls-15" points="97.05 52.84 97.05 22.64 95.62 23.49 95.62 53.7 97.05 52.84"/><polygon id="_Tracciato_79" data-name="&lt;Tracciato&gt;" class="cls-16" points="95.62 23.49 94.08 22.64 94.08 52.81 95.62 53.7 95.62 23.49"/><polygon id="_Tracciato_80" data-name="&lt;Tracciato&gt;" class="cls-15" points="94.08 51.1 94.08 20.9 92.65 21.75 92.65 51.96 94.08 51.1"/><polygon id="_Tracciato_81" data-name="&lt;Tracciato&gt;" class="cls-16" points="92.65 21.75 91.11 20.84 91.11 51.07 92.65 51.96 92.65 21.75"/><polygon id="_Tracciato_82" data-name="&lt;Tracciato&gt;" class="cls-15" points="91.11 49.42 91.11 19.22 89.68 20.07 89.68 50.28 91.11 49.42"/><polygon id="_Tracciato_83" data-name="&lt;Tracciato&gt;" class="cls-16" points="89.68 20.07 88.15 19.13 88.15 49.38 89.68 50.28 89.68 20.07"/><polygon id="_Tracciato_84" data-name="&lt;Tracciato&gt;" class="cls-15" points="88.15 47.72 88.15 17.53 86.71 18.37 86.71 48.58 88.15 47.72"/><polygon id="_Tracciato_85" data-name="&lt;Tracciato&gt;" class="cls-16" points="86.71 18.37 85.18 17.53 85.18 47.69 86.71 48.58 86.71 18.37"/><polygon id="_Tracciato_86" data-name="&lt;Tracciato&gt;" class="cls-15" points="85.18 45.98 85.18 15.79 83.74 16.63 83.74 46.84 85.18 45.98"/><polygon id="_Tracciato_87" data-name="&lt;Tracciato&gt;" class="cls-16" points="83.74 16.63 82.21 15.73 82.21 45.95 83.74 46.84 83.74 16.63"/><polygon id="_Tracciato_88" data-name="&lt;Tracciato&gt;" class="cls-17" points="80.78 12.3 101.88 0 158.59 32.76 137.54 44.87 80.78 12.3"/><polygon id="_Tracciato_89" data-name="&lt;Tracciato&gt;" class="cls-16" points="139.57 74.79 139.59 48.91 140.71 49.53 140.69 75.43 139.57 74.79"/><polygon id="_Tracciato_90" data-name="&lt;Tracciato&gt;" class="cls-18" points="140.71 49.53 141.9 48.86 141.88 74.77 140.69 75.43 140.71 49.53"/><polygon id="_Tracciato_91" data-name="&lt;Tracciato&gt;" class="cls-16" points="155.12 65.89 155.1 40.19 156.21 40.82 156.23 66.52 155.12 65.89"/><polygon id="_Tracciato_92" data-name="&lt;Tracciato&gt;" class="cls-18" points="156.21 40.82 157.4 40.15 157.42 65.86 156.23 66.52 156.21 40.82"/><polygon id="_Tracciato_93" data-name="&lt;Tracciato&gt;" class="cls-17" points="139.59 48.91 156.31 39.53 157.4 40.15 140.71 49.53 139.59 48.91"/><polygon id="_Tracciato_94" data-name="&lt;Tracciato&gt;" class="cls-18" points="140.71 51.23 157.4 41.87 157.4 40.15 140.71 49.53 140.71 51.23"/><polygon id="_Tracciato_95" data-name="&lt;Tracciato&gt;" class="cls-16" points="137.84 45.07 137.54 47.7 80.78 15.22 80.78 12.27 137.84 45.07"/><polygon id="_Tracciato_96" data-name="&lt;Tracciato&gt;" class="cls-14" points="158.59 32.76 158.59 35.61 137.54 47.7 137.54 44.87 158.59 32.76"/><g id="_Gruppo_7" data-name="&lt;Gruppo&gt;"><path id="_Tracciato_97" data-name="&lt;Tracciato&gt;" class="cls-12" d="M151.54,80.72a1.2,1.2,0,0,1-.57-.16l-.27-.16a.29.29,0,0,1-.11-.4h0a.29.29,0,0,1,.4-.1l.28.16a.6.6,0,0,0,.58,0l1.83-1-.3-.18a.3.3,0,0,1-.1-.4h0a.31.31,0,0,1,.41-.11l.29.17a.56.56,0,0,1,.29.52.62.62,0,0,1-.3.52l-1.84,1A1.23,1.23,0,0,1,151.54,80.72Z" transform="translate(-6.21 -17.44)"/></g><g id="_Gruppo_8" data-name="&lt;Gruppo&gt;"><path id="_Tracciato_98" data-name="&lt;Tracciato&gt;" class="cls-12" d="M156.92,77.71a1.16,1.16,0,0,1-.57-.15l-.28-.17A.28.28,0,0,1,156,77h0a.29.29,0,0,1,.4-.11l.28.16a.58.58,0,0,0,.57,0l1.84-1-.3-.19a.3.3,0,0,1-.1-.4h0a.31.31,0,0,1,.41-.11l.29.17a.58.58,0,0,1,.29.52.59.59,0,0,1-.31.52l-1.83,1A1.22,1.22,0,0,1,156.92,77.71Z" transform="translate(-6.21 -17.44)"/></g></g><g id="_Gruppo_9" data-name="&lt;Gruppo&gt;"><polygon id="_Tracciato_99" data-name="&lt;Tracciato&gt;" class="cls-19" points="54.15 92.95 54.16 63.1 110.91 95.89 110.9 126.1 54.15 92.95"/><polygon id="_Tracciato_100" data-name="&lt;Tracciato&gt;" class="cls-20" points="131.97 83.9 110.91 95.89 110.9 126.1 131.96 113.84 131.97 83.9"/><polygon id="_Tracciato_101" data-name="&lt;Tracciato&gt;" class="cls-21" points="108.95 124.88 108.96 94.68 107.52 95.52 107.51 125.73 108.95 124.88"/><polygon id="_Tracciato_102" data-name="&lt;Tracciato&gt;" class="cls-22" points="107.52 95.52 105.99 94.58 105.98 124.84 107.51 125.73 107.52 95.52"/><polygon id="_Tracciato_103" data-name="&lt;Tracciato&gt;" class="cls-21" points="105.98 123.18 105.99 92.98 104.55 93.83 104.54 124.04 105.98 123.18"/><polygon id="_Tracciato_104" data-name="&lt;Tracciato&gt;" class="cls-22" points="104.55 93.83 103.02 92.98 103.01 123.15 104.54 124.04 104.55 93.83"/><polygon id="_Tracciato_105" data-name="&lt;Tracciato&gt;" class="cls-21" points="103.01 121.44 103.02 91.24 101.58 92.09 101.58 122.3 103.01 121.44"/><polygon id="_Tracciato_106" data-name="&lt;Tracciato&gt;" class="cls-22" points="101.58 92.09 100.05 91.18 100.04 121.41 101.58 122.3 101.58 92.09"/><polygon id="_Tracciato_107" data-name="&lt;Tracciato&gt;" class="cls-21" points="100.04 119.76 100.05 89.56 98.61 90.41 98.61 120.62 100.04 119.76"/><polygon id="_Tracciato_108" data-name="&lt;Tracciato&gt;" class="cls-22" points="98.61 90.41 97.08 89.47 97.07 119.72 98.61 120.62 98.61 90.41"/><polygon id="_Tracciato_109" data-name="&lt;Tracciato&gt;" class="cls-21" points="97.07 118.06 97.08 87.87 95.65 88.71 95.64 118.92 97.07 118.06"/><polygon id="_Tracciato_110" data-name="&lt;Tracciato&gt;" class="cls-22" points="95.65 88.71 94.11 87.86 94.11 118.03 95.64 118.92 95.65 88.71"/><polygon id="_Tracciato_111" data-name="&lt;Tracciato&gt;" class="cls-21" points="94.11 116.32 94.11 86.13 92.68 86.97 92.67 117.18 94.11 116.32"/><polygon id="_Tracciato_112" data-name="&lt;Tracciato&gt;" class="cls-22" points="92.68 86.97 91.14 86.07 91.14 116.29 92.67 117.18 92.68 86.97"/><polygon id="_Tracciato_113" data-name="&lt;Tracciato&gt;" class="cls-21" points="91.2 114.58 91.21 84.39 89.77 85.23 89.77 115.44 91.2 114.58"/><polygon id="_Tracciato_114" data-name="&lt;Tracciato&gt;" class="cls-22" points="89.77 85.23 88.24 84.29 88.23 114.55 89.77 115.44 89.77 85.23"/><polygon id="_Tracciato_115" data-name="&lt;Tracciato&gt;" class="cls-21" points="88.23 112.89 88.24 82.69 86.8 83.54 86.8 113.75 88.23 112.89"/><polygon id="_Tracciato_116" data-name="&lt;Tracciato&gt;" class="cls-22" points="86.8 83.54 85.27 82.69 85.26 112.86 86.8 113.75 86.8 83.54"/><polygon id="_Tracciato_117" data-name="&lt;Tracciato&gt;" class="cls-21" points="85.26 111.15 85.27 80.95 83.84 81.8 83.83 112.01 85.26 111.15"/><polygon id="_Tracciato_118" data-name="&lt;Tracciato&gt;" class="cls-22" points="83.84 81.8 82.3 80.89 82.3 111.11 83.83 112.01 83.84 81.8"/><polygon id="_Tracciato_119" data-name="&lt;Tracciato&gt;" class="cls-21" points="82.3 109.47 82.3 79.27 80.87 80.11 80.86 110.33 82.3 109.47"/><polygon id="_Tracciato_120" data-name="&lt;Tracciato&gt;" class="cls-22" points="80.87 80.11 79.33 79.17 79.33 109.43 80.86 110.33 80.87 80.11"/><polygon id="_Tracciato_121" data-name="&lt;Tracciato&gt;" class="cls-21" points="79.33 107.77 79.33 77.57 77.9 78.42 77.89 108.63 79.33 107.77"/><polygon id="_Tracciato_122" data-name="&lt;Tracciato&gt;" class="cls-22" points="77.9 78.42 76.36 77.57 76.36 107.74 77.89 108.63 77.9 78.42"/><polygon id="_Tracciato_123" data-name="&lt;Tracciato&gt;" class="cls-21" points="76.36 106.03 76.37 75.83 74.93 76.68 74.92 106.89 76.36 106.03"/><polygon id="_Tracciato_124" data-name="&lt;Tracciato&gt;" class="cls-22" points="74.93 76.68 73.4 75.78 73.39 106 74.92 106.89 74.93 76.68"/><polygon id="_Tracciato_125" data-name="&lt;Tracciato&gt;" class="cls-21" points="73.39 104.46 73.4 74.26 71.96 75.11 71.95 105.32 73.39 104.46"/><polygon id="_Tracciato_126" data-name="&lt;Tracciato&gt;" class="cls-22" points="71.96 75.11 70.43 74.17 70.42 104.42 71.95 105.32 71.96 75.11"/><polygon id="_Tracciato_127" data-name="&lt;Tracciato&gt;" class="cls-21" points="70.42 102.76 70.43 72.56 68.99 73.41 68.98 103.62 70.42 102.76"/><polygon id="_Tracciato_128" data-name="&lt;Tracciato&gt;" class="cls-22" points="68.99 73.41 67.46 72.56 67.45 102.73 68.98 103.62 68.99 73.41"/><polygon id="_Tracciato_129" data-name="&lt;Tracciato&gt;" class="cls-21" points="67.45 101.02 67.46 70.83 66.02 71.67 66.02 101.88 67.45 101.02"/><polygon id="_Tracciato_130" data-name="&lt;Tracciato&gt;" class="cls-22" points="66.02 71.67 64.49 70.77 64.48 100.99 66.02 101.88 66.02 71.67"/><polygon id="_Tracciato_131" data-name="&lt;Tracciato&gt;" class="cls-21" points="64.48 99.34 64.49 69.14 63.05 69.99 63.05 100.2 64.48 99.34"/><polygon id="_Tracciato_132" data-name="&lt;Tracciato&gt;" class="cls-22" points="63.05 69.99 61.52 69.05 61.51 99.31 63.05 100.2 63.05 69.99"/><polygon id="_Tracciato_133" data-name="&lt;Tracciato&gt;" class="cls-21" points="61.52 97.64 61.52 67.45 60.09 68.29 60.08 98.5 61.52 97.64"/><polygon id="_Tracciato_134" data-name="&lt;Tracciato&gt;" class="cls-22" points="60.09 68.29 58.55 67.45 58.55 97.61 60.08 98.5 60.09 68.29"/><polygon id="_Tracciato_135" data-name="&lt;Tracciato&gt;" class="cls-21" points="58.55 95.91 58.55 65.71 57.12 66.55 57.11 96.76 58.55 95.91"/><polygon id="_Tracciato_136" data-name="&lt;Tracciato&gt;" class="cls-22" points="57.12 66.55 55.58 65.65 55.58 95.87 57.11 96.76 57.12 66.55"/><polygon id="_Tracciato_137" data-name="&lt;Tracciato&gt;" class="cls-23" points="54.16 62.22 75.26 49.92 131.97 82.7 110.91 94.8 54.16 62.22"/><polygon id="_Tracciato_138" data-name="&lt;Tracciato&gt;" class="cls-22" points="112.94 124.73 112.96 98.84 114.08 99.47 114.05 125.37 112.94 124.73"/><polygon id="_Tracciato_139" data-name="&lt;Tracciato&gt;" class="cls-21" points="114.08 99.47 115.27 98.8 115.24 124.7 114.05 125.37 114.08 99.47"/><polygon id="_Tracciato_140" data-name="&lt;Tracciato&gt;" class="cls-22" points="128.48 115.82 128.47 90.13 129.58 90.76 129.59 116.46 128.48 115.82"/><polygon id="_Tracciato_141" data-name="&lt;Tracciato&gt;" class="cls-21" points="129.58 90.76 130.77 90.09 130.79 115.8 129.59 116.46 129.58 90.76"/><polygon id="_Tracciato_142" data-name="&lt;Tracciato&gt;" class="cls-19" points="112.96 98.84 129.68 89.47 130.77 90.09 114.08 99.47 112.96 98.84"/><polygon id="_Tracciato_143" data-name="&lt;Tracciato&gt;" class="cls-21" points="114.08 101.17 130.77 91.8 130.77 90.09 114.08 99.47 114.08 101.17"/><polygon id="_Tracciato_144" data-name="&lt;Tracciato&gt;" class="cls-22" points="111.21 95 110.91 97.63 54.16 65.14 54.16 62.19 111.21 95"/><polygon id="_Tracciato_145" data-name="&lt;Tracciato&gt;" class="cls-20" points="131.97 82.7 131.97 85.55 110.91 97.63 110.91 94.8 131.97 82.7"/><g id="_Gruppo_10" data-name="&lt;Gruppo&gt;"><path id="_Tracciato_146" data-name="&lt;Tracciato&gt;" class="cls-12" d="M124.91,130.65a1.13,1.13,0,0,1-.57-.15l-.28-.16a.29.29,0,0,1-.11-.4h0a.29.29,0,0,1,.4-.11l.28.16a.57.57,0,0,0,.58,0l1.84-1-.3-.19a.29.29,0,0,1-.1-.4h0a.28.28,0,0,1,.4-.1l.29.16a.6.6,0,0,1,.3.53.58.58,0,0,1-.31.51l-1.84,1A1.08,1.08,0,0,1,124.91,130.65Z" transform="translate(-6.21 -17.44)"/></g><g id="_Gruppo_11" data-name="&lt;Gruppo&gt;"><path id="_Tracciato_147" data-name="&lt;Tracciato&gt;" class="cls-12" d="M130.29,127.65a1.25,1.25,0,0,1-.57-.16l-.28-.16a.29.29,0,0,1-.11-.4h0a.28.28,0,0,1,.4-.1l.28.16a.6.6,0,0,0,.58,0l1.84-1-.3-.18a.29.29,0,0,1-.1-.4h0a.29.29,0,0,1,.4-.11l.29.17a.59.59,0,0,1,.3.52.6.6,0,0,1-.31.52l-1.84,1A1.19,1.19,0,0,1,130.29,127.65Z" transform="translate(-6.21 -17.44)"/></g></g><g id="_Gruppo_12" data-name="&lt;Gruppo&gt;"><polygon id="_Tracciato_148" data-name="&lt;Tracciato&gt;" class="cls-4" points="27.95 108.59 27.95 78.75 84.71 111.52 84.71 141.73 27.95 108.59"/><polygon id="_Tracciato_149" data-name="&lt;Tracciato&gt;" class="cls-5" points="105.77 99.53 84.71 111.52 84.71 141.73 105.77 129.47 105.77 99.53"/><polygon id="_Tracciato_150" data-name="&lt;Tracciato&gt;" class="cls-6" points="82.76 140.51 82.76 110.31 81.32 111.16 81.32 141.37 82.76 140.51"/><polygon id="_Tracciato_151" data-name="&lt;Tracciato&gt;" class="cls-7" points="81.32 111.16 79.79 110.22 79.79 140.47 81.32 141.37 81.32 111.16"/><polygon id="_Tracciato_152" data-name="&lt;Tracciato&gt;" class="cls-6" points="79.79 138.81 79.79 108.62 78.35 109.46 78.35 139.67 79.79 138.81"/><polygon id="_Tracciato_153" data-name="&lt;Tracciato&gt;" class="cls-7" points="78.35 109.46 76.82 108.62 76.82 138.78 78.35 139.67 78.35 109.46"/><polygon id="_Tracciato_154" data-name="&lt;Tracciato&gt;" class="cls-6" points="76.82 137.07 76.82 106.88 75.38 107.72 75.38 137.93 76.82 137.07"/><polygon id="_Tracciato_155" data-name="&lt;Tracciato&gt;" class="cls-7" points="75.38 107.72 73.85 106.82 73.85 137.04 75.38 137.93 75.38 107.72"/><polygon id="_Tracciato_156" data-name="&lt;Tracciato&gt;" class="cls-6" points="73.85 135.39 73.85 105.19 72.42 106.04 72.42 136.25 73.85 135.39"/><polygon id="_Tracciato_157" data-name="&lt;Tracciato&gt;" class="cls-7" points="72.42 106.04 70.88 105.1 70.88 135.36 72.42 136.25 72.42 106.04"/><polygon id="_Tracciato_158" data-name="&lt;Tracciato&gt;" class="cls-6" points="70.88 133.7 70.88 103.5 69.45 104.35 69.45 134.56 70.88 133.7"/><polygon id="_Tracciato_159" data-name="&lt;Tracciato&gt;" class="cls-7" points="69.45 104.35 67.91 103.5 67.91 133.66 69.45 134.56 69.45 104.35"/><polygon id="_Tracciato_160" data-name="&lt;Tracciato&gt;" class="cls-6" points="67.91 131.96 67.91 101.76 66.48 102.61 66.48 132.82 67.91 131.96"/><polygon id="_Tracciato_161" data-name="&lt;Tracciato&gt;" class="cls-7" points="66.48 102.61 64.94 101.7 64.94 131.93 66.48 132.82 66.48 102.61"/><polygon id="_Tracciato_162" data-name="&lt;Tracciato&gt;" class="cls-6" points="65.01 130.22 65.01 100.02 63.57 100.87 63.57 131.08 65.01 130.22"/><polygon id="_Tracciato_163" data-name="&lt;Tracciato&gt;" class="cls-7" points="63.57 100.87 62.04 99.93 62.04 130.19 63.57 131.08 63.57 100.87"/><polygon id="_Tracciato_164" data-name="&lt;Tracciato&gt;" class="cls-6" points="62.04 128.53 62.04 98.33 60.6 99.17 60.6 129.38 62.04 128.53"/><polygon id="_Tracciato_165" data-name="&lt;Tracciato&gt;" class="cls-7" points="60.6 99.17 59.07 98.33 59.07 128.49 60.6 129.38 60.6 99.17"/><polygon id="_Tracciato_166" data-name="&lt;Tracciato&gt;" class="cls-6" points="59.07 126.79 59.07 96.59 57.63 97.44 57.63 127.65 59.07 126.79"/><polygon id="_Tracciato_167" data-name="&lt;Tracciato&gt;" class="cls-7" points="57.63 97.44 56.1 96.53 56.1 126.75 57.63 127.65 57.63 97.44"/><polygon id="_Tracciato_168" data-name="&lt;Tracciato&gt;" class="cls-6" points="56.1 125.1 56.1 94.91 54.66 95.75 54.66 125.96 56.1 125.1"/><polygon id="_Tracciato_169" data-name="&lt;Tracciato&gt;" class="cls-7" points="54.66 95.75 53.13 94.81 53.13 125.07 54.66 125.96 54.66 95.75"/><polygon id="_Tracciato_170" data-name="&lt;Tracciato&gt;" class="cls-6" points="53.13 123.41 53.13 93.21 51.7 94.06 51.7 124.27 53.13 123.41"/><polygon id="_Tracciato_171" data-name="&lt;Tracciato&gt;" class="cls-7" points="51.7 94.06 50.16 93.21 50.16 123.38 51.7 124.27 51.7 94.06"/><polygon id="_Tracciato_172" data-name="&lt;Tracciato&gt;" class="cls-6" points="50.16 121.67 50.16 91.47 48.73 92.32 48.73 122.53 50.16 121.67"/><polygon id="_Tracciato_173" data-name="&lt;Tracciato&gt;" class="cls-7" points="48.73 92.32 47.19 91.42 47.19 121.64 48.73 122.53 48.73 92.32"/><polygon id="_Tracciato_174" data-name="&lt;Tracciato&gt;" class="cls-6" points="47.19 120.1 47.19 89.9 45.76 90.75 45.76 120.96 47.19 120.1"/><polygon id="_Tracciato_175" data-name="&lt;Tracciato&gt;" class="cls-7" points="45.76 90.75 44.23 89.81 44.23 120.06 45.76 120.96 45.76 90.75"/><polygon id="_Tracciato_176" data-name="&lt;Tracciato&gt;" class="cls-6" points="44.23 118.4 44.23 88.21 42.79 89.05 42.79 119.26 44.23 118.4"/><polygon id="_Tracciato_177" data-name="&lt;Tracciato&gt;" class="cls-7" points="42.79 89.05 41.26 88.21 41.26 118.37 42.79 119.26 42.79 89.05"/><polygon id="_Tracciato_178" data-name="&lt;Tracciato&gt;" class="cls-6" points="41.26 116.67 41.26 86.47 39.82 87.31 39.82 117.52 41.26 116.67"/><polygon id="_Tracciato_179" data-name="&lt;Tracciato&gt;" class="cls-7" points="39.82 87.31 38.29 86.41 38.29 116.63 39.82 117.52 39.82 87.31"/><polygon id="_Tracciato_180" data-name="&lt;Tracciato&gt;" class="cls-6" points="38.29 114.98 38.29 84.78 36.85 85.63 36.85 115.84 38.29 114.98"/><polygon id="_Tracciato_181" data-name="&lt;Tracciato&gt;" class="cls-7" points="36.85 85.63 35.32 84.69 35.32 114.95 36.85 115.84 36.85 85.63"/><polygon id="_Tracciato_182" data-name="&lt;Tracciato&gt;" class="cls-6" points="35.32 113.29 35.32 83.09 33.88 83.94 33.88 114.15 35.32 113.29"/><polygon id="_Tracciato_183" data-name="&lt;Tracciato&gt;" class="cls-7" points="33.88 83.94 32.35 83.09 32.35 113.26 33.88 114.15 33.88 83.94"/><polygon id="_Tracciato_184" data-name="&lt;Tracciato&gt;" class="cls-6" points="32.35 111.55 32.35 81.35 30.91 82.2 30.91 112.41 32.35 111.55"/><polygon id="_Tracciato_185" data-name="&lt;Tracciato&gt;" class="cls-7" points="30.91 82.2 29.38 81.29 29.38 111.52 30.91 112.41 30.91 82.2"/><polygon id="_Tracciato_186" data-name="&lt;Tracciato&gt;" class="cls-8" points="27.95 77.86 49.05 65.56 105.77 98.33 84.71 110.44 27.95 77.86"/><g id="_Gruppo_13" data-name="&lt;Gruppo&gt;"><polygon id="_Tracciato_187" data-name="&lt;Tracciato&gt;" class="cls-9" points="86.74 140.36 86.76 114.47 87.88 115.1 87.86 141 86.74 140.36"/><polygon id="_Tracciato_188" data-name="&lt;Tracciato&gt;" class="cls-10" points="87.88 115.1 89.07 114.43 89.05 140.33 87.86 141 87.88 115.1"/><polygon id="_Tracciato_189" data-name="&lt;Tracciato&gt;" class="cls-9" points="102.29 131.45 102.27 105.76 103.38 106.39 103.4 132.09 102.29 131.45"/><polygon id="_Tracciato_190" data-name="&lt;Tracciato&gt;" class="cls-10" points="103.38 106.39 104.57 105.72 104.59 131.43 103.4 132.09 103.38 106.39"/><polygon id="_Tracciato_191" data-name="&lt;Tracciato&gt;" class="cls-11" points="86.76 114.47 103.48 105.1 104.57 105.72 87.88 115.1 86.76 114.47"/><polygon id="_Tracciato_192" data-name="&lt;Tracciato&gt;" class="cls-10" points="87.88 116.8 104.57 107.43 104.57 105.72 87.88 115.1 87.88 116.8"/></g><polygon id="_Tracciato_193" data-name="&lt;Tracciato&gt;" class="cls-7" points="85.01 110.63 84.71 113.26 27.95 80.78 27.95 77.83 85.01 110.63"/><polygon id="_Tracciato_194" data-name="&lt;Tracciato&gt;" class="cls-5" points="105.77 98.33 105.77 101.18 84.71 113.26 84.71 110.44 105.77 98.33"/><g id="_Gruppo_14" data-name="&lt;Gruppo&gt;"><path id="_Tracciato_195" data-name="&lt;Tracciato&gt;" class="cls-12" d="M98.71,146.28a1.12,1.12,0,0,1-.56-.15l-.28-.16a.29.29,0,0,1-.11-.4h0a.29.29,0,0,1,.4-.11l.28.16a.57.57,0,0,0,.58,0l1.84-1-.3-.19a.29.29,0,0,1-.11-.4h0a.31.31,0,0,1,.41-.11l.29.17a.6.6,0,0,1,.3.53.62.62,0,0,1-.31.51l-1.84,1A1.1,1.1,0,0,1,98.71,146.28Z" transform="translate(-6.21 -17.44)"/></g><g id="_Gruppo_15" data-name="&lt;Gruppo&gt;"><path id="_Tracciato_196" data-name="&lt;Tracciato&gt;" class="cls-12" d="M104.09,143.28a1.25,1.25,0,0,1-.56-.16l-.28-.16a.29.29,0,0,1-.11-.4h0a.29.29,0,0,1,.4-.11l.28.16a.57.57,0,0,0,.58,0l1.83-1-.3-.18a.31.31,0,0,1-.1-.4h0a.3.3,0,0,1,.41-.11l.29.17a.55.55,0,0,1,.29.52.59.59,0,0,1-.3.51l-1.84,1A1.23,1.23,0,0,1,104.09,143.28Z" transform="translate(-6.21 -17.44)"/></g></g></g></g></svg>