<svg xmlns="http://www.w3.org/2000/svg" xmlns:xlink="http://www.w3.org/1999/xlink" viewBox="0 0 145.65 145.65"><defs><style>.cls-1,.cls-4{fill:none;}.cls-1,.cls-3{opacity:0.8;}.cls-2{clip-path:url(#clip-path);}.cls-3{fill:#f5ad1f;}.cls-4{stroke:#eaeaea;stroke-miterlimit:10;stroke-width:3.92px;}.cls-5{fill:#4254a1;}.cls-6{fill:#261c35;}.cls-7{fill:#4c4691;}.cls-8{fill:#f7c0c0;}.cls-9{fill:#e1e3f3;}.cls-10{fill:#2b2e70;}.cls-11{fill:#575489;}.cls-12,.cls-13{fill:#1e1f42;}.cls-13{opacity:0.5;}.cls-14{fill:#333;}.cls-15{fill:#fff;}</style><clipPath id="clip-path" transform="translate(-5.13 -5.13)"><circle class="cls-1" cx="77.95" cy="77.95" r="70.87"/></clipPath></defs><title>G08_03_02</title><g id="Mobile"><g class="cls-2"><circle class="cls-3" cx="73.35" cy="73.24" r="70.87"/></g><circle class="cls-4" cx="72.83" cy="72.83" r="70.87"/><path class="cls-5" d="M73.17,65.22s-4.55,19-6.46,29.15,1.09,36.51,1.09,36.51A3.74,3.74,0,0,0,71,132.47c2.22,0,4.62-31.44,4.62-31.44l7.08-22.19a2.86,2.86,0,0,0,2,.31c4.5-.86,10.94-4.81,10.69-9.48-.32-6-5.08-6.35-5.08-6.35s-8.26-.64-9.21-.32S73.17,65.22,73.17,65.22Z" transform="translate(-5.13 -5.13)"/><path class="cls-5" d="M81.31,72.38s.9,20.46,3.13,24.58,14.62,16.68,14.62,16.68,3.64.48,2.69-2.06-9.54-17.82-9.54-17.82L95.4,69.67l-7-8.58Z" transform="translate(-5.13 -5.13)"/><path class="cls-6" d="M69.09,35.34s.86-4,3.72-4,21.54,4.15,22.81,5.42,10.26,18.33,10.26,24.05S104,86.18,104,86.18s-3.49.63-4.44-1S97.62,64,97.62,64s-5.08-18.41-5.08-17.46S69.09,35.34,69.09,35.34Z" transform="translate(-5.13 -5.13)"/><path class="cls-6" d="M73.49,34.74l18.64,5.17,2.63,4.67s1.59,22.23.64,25.09-11.43.9-15.24.27-7-4.72-7-4.72l-2-31.69Z" transform="translate(-5.13 -5.13)"/><path class="cls-6" d="M72.81,46.16s-12,12.66-11.89,6,3.63-21,3.63-21A4.13,4.13,0,0,1,68.38,31c1.84,1.07,1,8.69,1,8.69L69.64,34S78.61,27.06,72.81,46.16Z" transform="translate(-5.13 -5.13)"/><path class="cls-7" d="M98.8,113.26a19.18,19.18,0,0,1-.27,3.88c-.32.74-.49,5.12,1.42,5.47s3.14-1.44,3.33-3.32-1.48-7.67-1.48-7.67Z" transform="translate(-5.13 -5.13)"/><path class="cls-8" d="M69.46,128.34c-1-.15-.92-.8-2-1,.37,4.15.37,3.54.37,3.54.25,2.6,1.07,2.38,3.23,1.7.69-.21.76,0,1.43-4.43C71.41,128.13,70.24,128.46,69.46,128.34Z" transform="translate(-5.13 -5.13)"/><path class="cls-9" d="M67.09,129.36s2,1.83,5.56.46c.5-.19.68-.55.72-1.54a12.5,12.5,0,0,0,.08-2l-.54-.33c-.87,1.06-2.31,1-3.6.86a2.13,2.13,0,0,1-2.11-2h-.49A23.8,23.8,0,0,0,67.09,129.36Z" transform="translate(-5.13 -5.13)"/><path class="cls-8" d="M101.75,111.58a9.18,9.18,0,0,0-.93-2,8.91,8.91,0,0,1-2.4,2.06c-.51.4-1.42-.8-1.93-.62,1.53,1.59,2.57,2.64,2.57,2.64S102.7,114.12,101.75,111.58Z" transform="translate(-5.13 -5.13)"/><path class="cls-9" d="M95.87,111l1.72,2.22a3.77,3.77,0,0,0,4.34-3l-1.53-2.43L100,108a2.58,2.58,0,0,1-1.69,2.26c-1.72.74-2.21.32-2.21.32Z" transform="translate(-5.13 -5.13)"/><path class="cls-7" d="M72.46,133.88c-.07-.7-.25-.52-.64-1.83-.07-.23,0-.31.12-.81a3.3,3.3,0,0,1-1.27.34,11.33,11.33,0,0,1-2.91-.22c-.07,1.47-1.12,2.64-2.13,3.71s-3.36,3.24-4,4.57a1,1,0,0,0-.09.77,1,1,0,0,0,.87.37,5.37,5.37,0,0,0,4.16-1.12C69.83,136.88,72.47,135.8,72.46,133.88Z" transform="translate(-5.13 -5.13)"/><path class="cls-8" d="M86.67,25.58c0,1.6-.68,2.89-1.52,2.89s-1.52-1.29-1.52-2.89.68-2.88,1.52-2.88S86.67,24,86.67,25.58Z" transform="translate(-5.13 -5.13)"/><circle class="cls-8" cx="96.11" cy="81.21" r="2.71"/><circle class="cls-8" cx="61.84" cy="26.05" r="2.71"/><path class="cls-10" d="M71.26,34.45a.09.09,0,0,0,.06,0l.33-.17-.24-.8c0-2.06.13-7.58.14-7.9a.76.76,0,0,0-.32-.61l-3-2.05-.12-.39-.33.18c-.11,0-.12.23-.12.23s-.14,8.27-.15,8.66a.72.72,0,0,0,.07.32h0a1,1,0,0,0,.25.3l2.94,2,.32.22a.28.28,0,0,0,.2.07Z" transform="translate(-5.13 -5.13)"/><path class="cls-10" d="M67.83,30.21l3.6,1.94c0,.5,0,1,0,1.29l.24.8-.33.17a.09.09,0,0,1-.06,0h0a.28.28,0,0,1-.2-.07l-.32-.22-2.94-2a1,1,0,0,1-.25-.3h0a.72.72,0,0,1-.07-.32c0-.08,0-.53,0-1.18Z" transform="translate(-5.13 -5.13)"/><path class="cls-10" d="M67.63,22.9s0-.2.12-.23l.33-.18.12.39,0,0-.3.2-.33.17Z" transform="translate(-5.13 -5.13)"/><path class="cls-11" d="M71.07,34l-2.94-2a.77.77,0,0,1-.32-.62c0-.39.15-8.66.15-8.66s0-.4.34-.18l3.26,2.21a.76.76,0,0,1,.32.61c0,.4-.15,8.67-.15,8.67s0,.39-.34.17Z" transform="translate(-5.13 -5.13)"/><polygon class="cls-12" points="66.62 27.73 66.75 20.64 62.83 17.99 62.7 25.08 66.62 27.73"/><path class="cls-12" d="M69.71,31.86c-.13.07-.13.32,0,.56s.33.38.46.31.14-.32,0-.56S69.84,31.79,69.71,31.86Z" transform="translate(-5.13 -5.13)"/><path class="cls-12" d="M70.45,24.35s0,.07,0,.13.07.09.1.07,0-.07,0-.13S70.48,24.33,70.45,24.35Z" transform="translate(-5.13 -5.13)"/><path class="cls-12" d="M70.27,24.29s0,0,0,.06,0,0,0,0,0,0,0-.06S70.29,24.28,70.27,24.29Z" transform="translate(-5.13 -5.13)"/><path class="cls-13" d="M69.5,23.77s0,0,0,0a.07.07,0,0,0,0,.07l.65.44s0,0,0,0a.1.1,0,0,0,0-.07Z" transform="translate(-5.13 -5.13)"/><path class="cls-8" d="M85.79,25.28a7.45,7.45,0,1,1-7.45-7.44A7.45,7.45,0,0,1,85.79,25.28Z" transform="translate(-5.13 -5.13)"/><path class="cls-8" d="M75.88,27.57l2.53,7.66h0a4.78,4.78,0,0,0,5.34.55l.81-.43L82.45,27Z" transform="translate(-5.13 -5.13)"/><path class="cls-7" d="M78.34,17.84a7.43,7.43,0,0,0-6.92,4.72,10.72,10.72,0,0,0,4.75,1.06c.59,0,5.91-.73,5.68-1.66a13.09,13.09,0,0,0,1.32,3.3,2.52,2.52,0,0,1,2-2.4l.19,0A7.43,7.43,0,0,0,78.34,17.84Z" transform="translate(-5.13 -5.13)"/><path class="cls-14" d="M77.63,24.16c-.93,0-1.64.95-2.2.95s-1.27-.95-2.21-.95c-1.41,0-2.56.87-2.56,1.94S71.81,28,73.22,28c.94,0,1.65-.95,2.21-.95s1.27.95,2.2.95c1.42,0,2.57-.87,2.57-1.94S79.05,24.16,77.63,24.16Z" transform="translate(-5.13 -5.13)"/><ellipse class="cls-15" cx="67.8" cy="20.97" rx="1.19" ry="0.85"/><ellipse class="cls-15" cx="72.82" cy="20.97" rx="1.19" ry="0.85"/><path class="cls-6" d="M82.28,37s.62-7.5.17-9.94A20.58,20.58,0,0,0,80,20.9c-.75-1.06-3.06-3.06-4.56-2.47a8.62,8.62,0,0,0-4,4.13,24,24,0,0,1,1.51-4.72c.88-1.36,3.8-3.42,5.41-3.56,2.26-.2,7.45.86,8.33,3.56,1,2.93,3.24,8.88,3,12-.09,1.52-2.23,5.65-2.23,5.65Z" transform="translate(-5.13 -5.13)"/></g></svg>