<svg xmlns="http://www.w3.org/2000/svg" xmlns:xlink="http://www.w3.org/1999/xlink" viewBox="0 0 145.65 145.65"><defs><style>.cls-1,.cls-5{fill:none;}.cls-1,.cls-4{opacity:0.8;}.cls-2{isolation:isolate;}.cls-3{clip-path:url(#clip-path);}.cls-4{fill:#f5ad1f;}.cls-5{stroke:#eaeaea;stroke-miterlimit:10;stroke-width:3.92px;}.cls-6{fill:#414142;}.cls-7{fill:#be1622;}.cls-8{opacity:0.09;}.cls-9{fill:#fff;}.cls-10{fill:#e20a17;}.cls-11{opacity:0.1;mix-blend-mode:multiply;}.cls-12{fill:#231f20;}.cls-13{fill:#e6332a;}.cls-14{opacity:0.17;}.cls-15{fill:#c3c4c6;}.cls-16{fill:#e5e6e7;}.cls-17{fill:#ced0d1;}.cls-18{fill:#9b9d9f;}.cls-19{fill:#5a4b42;}</style><clipPath id="clip-path" transform="translate(-5.13 -5.13)"><circle class="cls-1" cx="77.95" cy="77.95" r="70.87"/></clipPath></defs><title>G08_04_03</title><g class="cls-2"><g id="Mobile"><g class="cls-3"><circle class="cls-4" cx="73.35" cy="73.24" r="70.87"/></g><circle class="cls-5" cx="72.83" cy="72.83" r="70.87"/><rect class="cls-6" x="60.64" y="121.16" width="5.49" height="6.2" rx="2.75" ry="2.75"/><rect class="cls-6" x="87.16" y="118.06" width="5.49" height="6.2" rx="2.75" ry="2.75"/><path class="cls-7" d="M105.26,43.13,91,42.12c-4-.94-35.53-.23-40.24,2.24-2.89,1.52-3.53,6.94-3.53,13.06v62.19c0,3.18,3.44,7.25,7.38,7.91h0a11,11,0,0,0,2.12.39l13.87,2.42,4.52-3.05c5.78-.59,11-1.18,12.35-1.62,2.82-1,9.64-3.77,9.64-11.07V81.49C101.18,62.45,105.26,43.13,105.26,43.13Z" transform="translate(-5.13 -5.13)"/><g class="cls-8"><path class="cls-9" d="M47.59,50.9l18.92,1.82,1.65-5.65-18.8-1.48A12,12,0,0,0,47.59,50.9Z" transform="translate(-5.13 -5.13)"/></g><path class="cls-10" d="M105.26,43.13c-4-.94-35.53-.24-40.24,2.24-2.89,1.52-3.53,6.93-3.53,13.05v65.26c0,4.15,5.89,7.42,11.06,6.49s26.36-2.55,29.18-3.5,9.65-3.78,9.65-11.07v-56C111.38,51.36,110.2,44.3,105.26,43.13Z" transform="translate(-5.13 -5.13)"/><g class="cls-11"><path class="cls-12" d="M107.25,120.66c-1.55.12-39.3,3.23-45.76,3.23-14.27,0-14.26-11.61-14.27-12.91v8.63c0,3.18,3.44,7.25,7.38,7.91h0a11,11,0,0,0,2.12.39L67,129.71a11.71,11.71,0,0,0,3.55.62h0a9.85,9.85,0,0,0,2-.16c5.18-.92,26.36-2.55,29.18-3.5s9.65-3.78,9.65-11.07C111.38,115.6,111.38,120.32,107.25,120.66Z" transform="translate(-5.13 -5.13)"/></g><path class="cls-7" d="M64,69.35c0,3.76.82,7.13,2.82,7.27s34.39-2.21,36.67-2.8,2.74-5.41,2.74-8.71-1.06-7.17-5.76-7.53-29.18,1.89-32.36,2S64,63.23,64,69.35Z" transform="translate(-5.13 -5.13)"/><g class="cls-8"><path class="cls-9" d="M63.1,54.13s-.59-7.43,5.77-8.54S97,43.43,101.93,44s6.35,1.89,7.41,6.83A8,8,0,0,0,101.22,45c-6.71.12-27.53,1.06-31.06,1.53S63.81,49.43,63.1,54.13Z" transform="translate(-5.13 -5.13)"/></g><path class="cls-13" d="M65.77,69.66c0,3.77.82,7.13,2.82,7.27s34.39-2.21,36.67-2.8,2.74-5.41,2.74-8.7-1-7.18-5.76-7.53-29.18,1.88-32.35,2S65.77,63.54,65.77,69.66Z" transform="translate(-5.13 -5.13)"/><path class="cls-7" d="M64,90.1c0,3.76-2,24.21,6.23,23.74,2-.11,27.8-2.09,30.12-2.42,7.53-1.09,5.88-22.26,5.88-25.56s-1.06-7.17-5.76-7.52-29.18,1.88-32.36,2S64,84,64,90.1Z" transform="translate(-5.13 -5.13)"/><path class="cls-13" d="M66,90.73c0,3.76-2,24.21,6.24,23.74,2-.11,27.79-2.09,30.12-2.43,7.53-1.08,5.88-22.25,5.88-25.55s-1.06-7.17-5.77-7.53S73.28,80.85,70.1,81,66,84.61,66,90.73Z" transform="translate(-5.13 -5.13)"/><g class="cls-14"><path class="cls-9" d="M66.83,67.4s.08-5.82,2.74-6.13,29.26-2.28,32.24-2a4.85,4.85,0,0,1,4.78,5.49,5.41,5.41,0,0,0-5.17-4.63c-4.63-.23-28.71,1.79-31.06,2S66.75,66.08,66.83,67.4Z" transform="translate(-5.13 -5.13)"/></g><g class="cls-14"><path class="cls-9" d="M67.18,88.62s.08-5.81,2.75-6.13,29.25-2.27,32.23-2A4.87,4.87,0,0,1,107,85.94a5.4,5.4,0,0,0-5.18-4.62c-4.63-.24-28.71,1.78-31.06,2S67.1,87.3,67.18,88.62Z" transform="translate(-5.13 -5.13)"/></g><path class="cls-9" d="M69.71,63.48a.18.18,0,0,1-.18-.16.19.19,0,0,1,.17-.19c.25,0,25.66-2.15,32.66-2.06a.17.17,0,0,1,.17.18.18.18,0,0,1-.17.18c-7-.1-32.38,2-32.63,2Z" transform="translate(-5.13 -5.13)"/><path class="cls-9" d="M71.44,64.2c-.09-.67-.34-1.17-.76-1.17s-.67.5-.76,1.17S69.37,67,70.68,67,71.54,64.86,71.44,64.2Zm-.76-1.06c.19,0,.33.2.33.45s-.14.44-.33.44-.33-.2-.33-.44S70.5,63.14,70.68,63.14Zm0,3.7c-.88,0-.81-1.23-.81-1.23h1.59S71.57,66.84,70.68,66.84Z" transform="translate(-5.13 -5.13)"/><path class="cls-9" d="M70.56,85.49a.17.17,0,0,1-.17-.16.17.17,0,0,1,.16-.19c.25,0,25.67-2.15,32.66-2.06a.18.18,0,0,1,.18.18.17.17,0,0,1-.18.17c-7-.09-32.38,2-32.63,2.06Z" transform="translate(-5.13 -5.13)"/><path class="cls-9" d="M72.3,86.2C72.2,85.54,72,85,71.53,85s-.66.5-.76,1.16S70.22,89,71.53,89,72.39,86.87,72.3,86.2Zm-.77-1c.19,0,.34.2.34.45a.4.4,0,0,1-.34.44c-.18,0-.33-.2-.33-.44S71.35,85.15,71.53,85.15Zm0,3.7c-.88,0-.8-1.23-.8-1.23h1.58S72.42,88.85,71.53,88.85Z" transform="translate(-5.13 -5.13)"/><path class="cls-15" d="M64.11,40.62c.31-.14,3-.23,3.42-.28a12.57,12.57,0,0,1,3.53.53c.18.25-3.25.83-3.25.83Z" transform="translate(-5.13 -5.13)"/><path class="cls-16" d="M63.08,43.2s.61-2.58,1-2.58a36.86,36.86,0,0,1,3.7.33,20,20,0,0,1,0,2.9Z" transform="translate(-5.13 -5.13)"/><path class="cls-17" d="M67.81,41s3.18-.38,3.37,0a17.69,17.69,0,0,1,.42,2.45l-3.79.45Z" transform="translate(-5.13 -5.13)"/><path class="cls-15" d="M84.91,40.17c.24-.11,2.4-.18,2.71-.21a9.86,9.86,0,0,1,2.81.43c.13.2-2.59.64-2.59.64Z" transform="translate(-5.13 -5.13)"/><path class="cls-16" d="M84.09,42.21s.49-2,.82-2a28.57,28.57,0,0,1,2.93.27,16,16,0,0,1,0,2.3Z" transform="translate(-5.13 -5.13)"/><path class="cls-17" d="M87.84,40.44s2.53-.29,2.67,0a13.15,13.15,0,0,1,.33,1.95l-3,.34Z" transform="translate(-5.13 -5.13)"/><path class="cls-18" d="M65.65,40.49V22.92c0-1.73.1-4.24,3.5-4.32s14.43-.31,16.29-.39,2.8,1.73,2.8,3.61V40.17H85.89V23.62c0-1.64-.7-2.27-2.35-2.35s-13.71.47-14.39.55-.67,1.33-.67,2.51V40.49A3.91,3.91,0,0,1,65.65,40.49Z" transform="translate(-5.13 -5.13)"/><path class="cls-15" d="M66.91,40.73V22.92c0-1.73.1-4.24,3.5-4.32s14.42-.31,16.28-.39,2.8,1.73,2.8,3.61V40.17H87.14V23.62c0-1.64-.7-2.27-2.35-2.35s-13.7.47-14.38.55-.68,1.33-.68,2.51V40.49A3.51,3.51,0,0,1,66.91,40.73Z" transform="translate(-5.13 -5.13)"/><path class="cls-19" d="M71.42,18.56v3.21l-.7.05s.07.78,1.09.74,11.41-.51,12-.55,1.06-1.29.9-2.39-.31-2-1.26-2.08-11.88.32-12.39.32-.74.76-.74.76Z" transform="translate(-5.13 -5.13)"/><g class="cls-11"><path class="cls-12" d="M82.71,20.88c-1.76.08-8.2.19-9.61.15s-1.68-1.68-1.68-1.68v2.42l-.7.05s.07.78,1.09.74,11.41-.51,12-.55,1.06-1.29.9-2.39c0-.24-.07-.47-.11-.69C84.41,19.68,83.89,20.82,82.71,20.88Z" transform="translate(-5.13 -5.13)"/></g><g class="cls-8"><path class="cls-9" d="M84.4,18.15a1,1,0,0,0-.91-.61c-.94,0-11.88.32-12.39.32-.34,0-.56.34-.66.57l.2.18.78-.05v.57a5.81,5.81,0,0,0,3.13.61c3.53-.2,6.75,0,8.32-.16A1.49,1.49,0,0,0,84.4,18.15Z" transform="translate(-5.13 -5.13)"/></g></g></g></svg>