<svg xmlns="http://www.w3.org/2000/svg" xmlns:xlink="http://www.w3.org/1999/xlink" viewBox="0 0 145.65 145.65"><defs><style>.cls-1,.cls-12,.cls-19{fill:none;}.cls-1,.cls-3{opacity:0.8;}.cls-2{clip-path:url(#clip-path);}.cls-3{fill:#f5ad1f;}.cls-17,.cls-4{fill:#fcd6b7;}.cls-13,.cls-15,.cls-4,.cls-5,.cls-8{fill-rule:evenodd;}.cls-18,.cls-5{fill:#d6b59a;}.cls-6{fill:#a7b0ba;}.cls-7{fill:#eaeaea;}.cls-8{fill:#4e4d4c;stroke:#323232;stroke-miterlimit:22.93;stroke-width:0.22px;}.cls-9{fill:#f8ac16;}.cls-10,.cls-13{fill:#fff;}.cls-11{fill:#ffed00;}.cls-12{stroke:#fff;}.cls-12,.cls-19{stroke-miterlimit:10;}.cls-14{fill:#115b8d;}.cls-15{fill:#e7e6e6;}.cls-16{fill:#0a486b;}.cls-19{stroke:#eaeaea;stroke-width:3.92px;}</style><clipPath id="clip-path" transform="translate(-5.13 -5.13)"><circle class="cls-1" cx="77.95" cy="77.95" r="70.87"/></clipPath></defs><title>G08_04_01</title><g id="Mobile"><g class="cls-2"><circle class="cls-3" cx="73.35" cy="73.24" r="70.87"/></g><polygon class="cls-4" points="76.03 44.22 127.24 69.89 127.53 71.69 127.59 71.84 108.41 84.8 100.1 87 65.66 69.74 76.03 44.22"/><path class="cls-4" d="M32.55,58.12,46.64,75.33c1.81,2.21,27.25,1.25,29.6-.38s-18.06-1.8-19.93-4L45.63,59.42C39.51,52.79,34.89,56.08,32.55,58.12Z" transform="translate(-5.13 -5.13)"/><path class="cls-4" d="M36.29,51.51h0c-2-3.85.36-9.15,4.71-7.47-2.61-3.66,2-8.66,5.85-7.32-2.19-3.86,3.77-8.15,8-5.95L74.22,40.88c5.43,2.83,10.9,9.42,12.46,13.19,4.64,11.17-7.14,21-13.59,21.62-5,.46-8.57,1.34-11.5-.14L31.84,60.8C24.77,57.34,30.24,48.51,36.29,51.51Z" transform="translate(-5.13 -5.13)"/><path class="cls-5" d="M36.9,63.44C37.87,63.93,55,72.2,55,72.2L38.52,65.42Z" transform="translate(-5.13 -5.13)"/><path class="cls-5" d="M54.54,40l-8.11-4.41a3.62,3.62,0,0,0,.42,1.16,4.94,4.94,0,0,0-.55-.15l.2.07c3.62,1.53,8,3.33,8,3.33ZM36.29,51.51h0a5.87,5.87,0,0,1-.37-.86c3.78,2.09,8.77,5,8.77,5S37.78,52.49,34.92,51c0,0,0,0,0,0a5.48,5.48,0,0,1,1.35.48Zm3.1-7.79A4.47,4.47,0,0,1,41,44,4.34,4.34,0,0,1,40.44,43L49.91,48S44.47,45.82,39.39,43.72Z" transform="translate(-5.13 -5.13)"/><rect class="cls-6" x="75.39" y="61.96" width="27.48" height="13.49" transform="translate(-17.23 112.73) rotate(-63.52)"/><rect class="cls-7" x="92.56" y="58.9" width="1.51" height="2.84" transform="translate(-7.41 111.83) rotate(-63.52)"/><path class="cls-8" d="M81.81,65.21a8.11,8.11,0,1,1,3.65,10.88A8.11,8.11,0,0,1,81.81,65.21Z" transform="translate(-5.13 -5.13)"/><polygon class="cls-9" points="83.98 63.81 77.11 65.46 83.86 63.34 83.98 63.81"/><path class="cls-10" d="M88.9,68.61a.29.29,0,0,1,.39,0,.28.28,0,0,1-.05.39l-4.6,3.7a.27.27,0,0,1-.38,0,.28.28,0,0,1,0-.38Z" transform="translate(-5.13 -5.13)"/><path class="cls-10" d="M89.34,68.77a.27.27,0,0,1-.53.11l-.76-3.44a.27.27,0,0,1,.53-.12Z" transform="translate(-5.13 -5.13)"/><path class="cls-11" d="M81.69,65.45a.27.27,0,0,1-.12-.37.28.28,0,0,1,.36-.12l1,.49a.28.28,0,0,1,.13.37.28.28,0,0,1-.37.12Z" transform="translate(-5.13 -5.13)"/><path class="cls-11" d="M92.45,61.44a.27.27,0,0,1,.37-.12.27.27,0,0,1,.12.36l-.49,1a.28.28,0,0,1-.37.13.28.28,0,0,1-.12-.37Z" transform="translate(-5.13 -5.13)"/><path class="cls-11" d="M96.46,72.2a.27.27,0,0,1,.12.37.27.27,0,0,1-.36.12l-1-.49a.28.28,0,0,1-.13-.37.28.28,0,0,1,.37-.12Z" transform="translate(-5.13 -5.13)"/><path class="cls-11" d="M85.7,76.21a.27.27,0,0,1-.37.12.27.27,0,0,1-.12-.36l.49-1a.28.28,0,0,1,.37-.13.28.28,0,0,1,.12.37Z" transform="translate(-5.13 -5.13)"/><path class="cls-11" d="M84.37,62.21a.27.27,0,1,1,.45-.3l.6.91a.27.27,0,0,1-.07.38.28.28,0,0,1-.38-.08Z" transform="translate(-5.13 -5.13)"/><path class="cls-11" d="M95.69,64.12a.27.27,0,1,1,.3.45l-.91.6a.27.27,0,0,1-.38-.07.28.28,0,0,1,.08-.38Z" transform="translate(-5.13 -5.13)"/><path class="cls-11" d="M93.78,75.44a.27.27,0,1,1-.45.3l-.61-.91a.28.28,0,0,1,.08-.38.28.28,0,0,1,.38.08Z" transform="translate(-5.13 -5.13)"/><path class="cls-11" d="M82.46,73.53a.27.27,0,1,1-.3-.45l.91-.6a.27.27,0,0,1,.38.07.28.28,0,0,1-.08.38Z" transform="translate(-5.13 -5.13)"/><path class="cls-11" d="M88.31,60.74a.27.27,0,0,1,.25-.29.28.28,0,0,1,.29.26l.07,1.09a.28.28,0,0,1-.26.29.27.27,0,0,1-.29-.25Z" transform="translate(-5.13 -5.13)"/><path class="cls-11" d="M97.16,68.06a.27.27,0,0,1,.29.25.28.28,0,0,1-.26.29l-1.09.07a.28.28,0,0,1-.29-.26.27.27,0,0,1,.25-.29Z" transform="translate(-5.13 -5.13)"/><path class="cls-11" d="M89.84,76.91a.27.27,0,0,1-.25.29.28.28,0,0,1-.29-.26l-.07-1.09a.28.28,0,0,1,.26-.29.27.27,0,0,1,.29.25Z" transform="translate(-5.13 -5.13)"/><path class="cls-11" d="M81,69.59a.27.27,0,0,1-.29-.25.28.28,0,0,1,.26-.29L82.05,69a.28.28,0,0,1,.29.26.27.27,0,0,1-.25.29Z" transform="translate(-5.13 -5.13)"/><path class="cls-12" d="M81.46,65a8.51,8.51,0,1,1-.45,6.5A8.49,8.49,0,0,1,81.46,65Z" transform="translate(-5.13 -5.13)"/><polygon class="cls-13" points="91.49 50.26 107.24 58.11 93.48 85.33 89.24 83.22 91.49 50.26"/><path class="cls-14" d="M113.29,61.4,97.88,91.9l41.81,20.83a70.45,70.45,0,0,0,9.1-33.65Z" transform="translate(-5.13 -5.13)"/><path class="cls-15" d="M95.08,76.12c6.67-1.28,7.55,6.38,6.66,8.55l-3.13,5.78-4.24-2.11Z" transform="translate(-5.13 -5.13)"/><path class="cls-5" d="M71.62,75.29l1-.32,3.77,2.7Z" transform="translate(-5.13 -5.13)"/><path class="cls-5" d="M66.51,76.36A33.77,33.77,0,0,0,72.61,75l1,.7C71.78,76,69.28,76.19,66.51,76.36Z" transform="translate(-5.13 -5.13)"/><path class="cls-5" d="M66.63,76.34a32.83,32.83,0,0,0,6-1.37l.93.67-.45,0C70.61,75.92,68.49,76.25,66.63,76.34Z" transform="translate(-5.13 -5.13)"/><path class="cls-16" d="M101.57,84.59,97.88,91.9l41.81,20.83a69.58,69.58,0,0,0,3.62-7.35Z" transform="translate(-5.13 -5.13)"/><path class="cls-17" d="M83.49,103c5.85-7.43,13-16.13,13.79-16.6l2.19-2.72c4.52-5.44-3.82-10.4-7.42-5.83L75.83,98.14c-.34.6-.75,1.23-1.19,1.86C77.85,97.22,83.24,99.18,83.49,103Z" transform="translate(-5.13 -5.13)"/><path class="cls-17" d="M59.66,141c6.59-.85,16.52-3.58,18.26-4.48l19.76-10.2c-1.34-2.81-4.27-7.66-12.52-4l-8.63,3.82-8.41,10.12C66.22,138.54,63.67,139.64,59.66,141Z" transform="translate(-5.13 -5.13)"/><path class="cls-17" d="M74.46,99.57c0-.1,0-.2,0-.3A1.51,1.51,0,0,1,74.46,99.57Z" transform="translate(-5.13 -5.13)"/><path class="cls-17" d="M58.84,141.27l.82-.27-.65.07Z" transform="translate(-5.13 -5.13)"/><path class="cls-17" d="M66.77,95.2l.18-.09Z" transform="translate(-5.13 -5.13)"/><path class="cls-17" d="M55.7,137.72c4.06-3.39,13.17-8.11,15.07-9l5.76-2.55,27.92-33.58c4.86-5.84-3.22-10.71-7.2-6.07-.65,1.58-17.48,22.18-20.88,25.9l-5.92,7.37L64.78,112l3.76-4.7h0s3.26-5,5.92-8.33c-.27-3.25-4.21-5.11-7.34-3.87-2.71,2.84-6,6.24-6,6.24s2.65-3.42,5-6.45c-.49-3.71-6.15-5.36-9-1.87L43.41,110c-3.43,4.24-5.68,11.2-6.1,15.56l2.75-3.29Z" transform="translate(-5.13 -5.13)"/><path class="cls-17" d="M83.49,103c-.25-3.84-5.64-5.8-8.85-3a66.81,66.81,0,0,1-6.1,7.25L64.78,112l5.67,7.81,5.92-7.37h0C77.59,110.61,80.35,107,83.49,103Z" transform="translate(-5.13 -5.13)"/><path class="cls-17" d="M53.83,140.62c-.39-.64.42-1.69,1.87-2.9L40.06,122.23l-2.75,3.29L31.65,131l9.65,8,9.36,4.36c1.6.68,3.25,1.28,4.92,1.83l3.26-3.92.17-.2C56.3,141.38,54.28,141.33,53.83,140.62Z" transform="translate(-5.13 -5.13)"/><path class="cls-17" d="M55.7,137.72,59,141l0,0,.65-.07c4-1.36,6.56-2.46,8.46-4.74l8.41-10.12-5.76,2.55C68.87,129.61,59.76,134.33,55.7,137.72Z" transform="translate(-5.13 -5.13)"/><path class="cls-17" d="M55.7,137.72c-1.45,1.21-2.26,2.26-1.87,2.9s2.47.76,5.18.45l0,0Z" transform="translate(-5.13 -5.13)"/><path class="cls-18" d="M75.83,98.14h0a21.8,21.8,0,0,0-1.39,1.74,1.51,1.51,0,0,0,0-.31c0,.11,0,.22,0,.33Z" transform="translate(-5.13 -5.13)"/><path class="cls-18" d="M67.14,95l-.19.08.17-.06Z" transform="translate(-5.13 -5.13)"/><path class="cls-18" d="M74.47,98.9v0c0,.11,0,.23,0,.35C74.47,99.14,74.46,99,74.47,98.9Z" transform="translate(-5.13 -5.13)"/><path class="cls-18" d="M66.15,95.54a5.36,5.36,0,0,1,.62-.34A5.36,5.36,0,0,0,66.15,95.54Z" transform="translate(-5.13 -5.13)"/><path class="cls-18" d="M66.12,94.84h0a4.06,4.06,0,0,1,0,.7A4,4,0,0,0,66.12,94.84Z" transform="translate(-5.13 -5.13)"/><path class="cls-18" d="M83.5,103.61,97.09,86.68c0-.07.11-.13.16-.19a.36.36,0,0,0,0-.07h0L83.5,103.54Z" transform="translate(-5.13 -5.13)"/><path class="cls-18" d="M74.38,100.22c.08-.08.18-.14.26-.22.44-.63.85-1.26,1.19-1.86L74.42,99.9C74.4,100,74.4,100.11,74.38,100.22Z" transform="translate(-5.13 -5.13)"/><path class="cls-18" d="M83.49,103a4.47,4.47,0,0,1,0,.52L97.28,86.42C96.48,86.89,89.34,95.59,83.49,103Z" transform="translate(-5.13 -5.13)"/><path class="cls-18" d="M67.12,95.05l-.17.06-.18.09a5.36,5.36,0,0,0-.62.34,4.06,4.06,0,0,0,0-.7c-2.38,3-5,6.45-5,6.45S64.41,97.89,67.12,95.05Z" transform="translate(-5.13 -5.13)"/><path class="cls-18" d="M68.54,107.25l5.88-7.35c0-.11,0-.22,0-.33a1.51,1.51,0,0,0,0-.3c0-.12,0-.24,0-.35-2.66,3.33-5.92,8.33-5.92,8.33Z" transform="translate(-5.13 -5.13)"/><path class="cls-18" d="M83.5,103.61v-.07l-7.13,8.85c3.4-3.72,20.23-24.32,20.88-25.9,0,.06-.11.12-.16.19Z" transform="translate(-5.13 -5.13)"/><path class="cls-18" d="M83.49,103c-3.14,4-5.9,7.59-7.12,9.38h0l7.13-8.85A4.47,4.47,0,0,0,83.49,103Z" transform="translate(-5.13 -5.13)"/><path class="cls-18" d="M74.38,100.22c0-.11,0-.21,0-.32l-5.88,7.35a66.81,66.81,0,0,0,6.1-7.25C74.56,100.08,74.46,100.14,74.38,100.22Z" transform="translate(-5.13 -5.13)"/><circle class="cls-19" cx="72.83" cy="72.83" r="70.87"/></g></svg>