<svg xmlns="http://www.w3.org/2000/svg" xmlns:xlink="http://www.w3.org/1999/xlink" viewBox="0 0 145.65 145.65"><defs><style>.cls-1,.cls-16,.cls-2,.cls-26,.cls-8{fill:none;}.cls-1,.cls-4{opacity:0.8;}.cls-3{clip-path:url(#clip-path);}.cls-4{fill:#f5ad1f;}.cls-5{clip-path:url(#clip-path-2);}.cls-6{fill:#f09665;}.cls-7{fill:#3f575e;}.cls-8{stroke:#648098;stroke-linecap:round;stroke-linejoin:round;stroke-width:4px;}.cls-9{isolation:isolate;}.cls-10{fill:#455358;}.cls-11{fill:#242629;}.cls-12{fill:#234f5e;}.cls-13{fill:#6786a0;}.cls-14{fill:#a1b0d6;}.cls-15{fill:#2a3134;}.cls-16{stroke:#5b758b;stroke-width:3.76px;}.cls-16,.cls-26{stroke-miterlimit:10;}.cls-17{fill:#1d1d1b;opacity:0.1;}.cls-18{fill:#fff;}.cls-19{fill:#368784;}.cls-20{fill:#313537;}.cls-21{fill:#5d737b;}.cls-22{fill:#798c91;}.cls-23{fill:#fcea10;}.cls-24{fill:#644937;}.cls-25{fill:#f9b233;}.cls-26{stroke:#eaeaea;stroke-width:3.92px;}</style><clipPath id="clip-path" transform="translate(-4.88 -6.04)"><circle class="cls-1" cx="77.71" cy="78.87" r="70.87"/></clipPath><clipPath id="clip-path-2" transform="translate(-4.88 -6.04)"><circle class="cls-2" cx="77.71" cy="78.87" r="70.87"/></clipPath></defs><title>G08_19_01</title><g id="Livello_1" data-name="Livello 1"><g class="cls-3"><circle class="cls-4" cx="72.83" cy="72.83" r="70.87"/></g></g><g id="Livello_2" data-name="Livello 2"><g class="cls-5"><path class="cls-6" d="M6.85,79.16a70.86,70.86,0,0,0,141.72-.29c0-.46,0-.91,0-1.37l-69.25-40Z" transform="translate(-4.88 -6.04)"/><path class="cls-7" d="M84.65,120.77l0,0,.94-.44v-1l-1.88-1.13-.94.45-.42-.47L65.58,126.1a6.78,6.78,0,0,1-.58,1.28c-.14.17-1.15-.22-1.4.12a1,1,0,0,0,0,1l1.84.75a3.8,3.8,0,0,0,3.09.36,37.28,37.28,0,0,1,2.31,6.53c0,.28.37.92.71.9a21.76,21.76,0,0,0,4.51-1.77c.5-.26.34-.81.33-1.14s0-.93,0-.93L75.67,131c2.2-1,5.34-1.44,5-5.45-.06-.73-.29-.65-.79-1.36l4-1.88c.74-.35,1-1,.76-1.52Zm-6.75,7.91c-.28.19-2.28,1.2-2.56.9l-.67-2.92,3.93-1.87C79.33,126.08,79.57,127.5,77.9,128.68Z" transform="translate(-4.88 -6.04)"/><line class="cls-8" x1="23.44" y1="52.44" x2="23.44" y2="90.82"/><g class="cls-9"><polygon class="cls-10" points="22.08 85.49 22.11 106.11 20.04 104.91 20.01 85.49 22.08 85.49"/><polygon class="cls-11" points="23.84 85.49 23.87 105.09 22.11 106.11 22.08 85.49 23.84 85.49"/></g><g class="cls-9"><polygon class="cls-10" points="31.08 82.49 31.11 103.11 29.04 101.91 29.02 82.49 31.08 82.49"/><polygon class="cls-11" points="32.85 82.49 32.88 102.09 31.11 103.11 31.08 82.49 32.85 82.49"/></g><g class="cls-9"><polygon class="cls-10" points="34.08 91.49 34.11 112.11 32.05 110.91 32.02 91.49 34.08 91.49"/><polygon class="cls-11" points="35.85 91.49 35.88 111.09 34.11 112.11 34.08 91.49 35.85 91.49"/></g><g class="cls-9"><polygon class="cls-10" points="43.09 88.49 43.12 109.11 41.05 107.91 41.02 88.49 43.09 88.49"/><polygon class="cls-11" points="44.86 88.49 44.89 108.09 43.12 109.11 43.09 88.49 44.86 88.49"/></g><g class="cls-9"><path class="cls-12" d="M26.74,89.43c-3.2,1.33-3.22,3.49,0,4.82l5.1,2.13a17.24,17.24,0,0,0,11.56,0l5.14-2.13c3.2-1.33,3.22-3.49,0-4.82l-5.1-2.13a17.21,17.21,0,0,0-11.57,0Z" transform="translate(-4.88 -6.04)"/></g><g class="cls-9"><path class="cls-13" d="M24.56,91.44A4.25,4.25,0,0,0,26.7,93l5.1,2.13a15.42,15.42,0,0,0,5.92,1,15.38,15.38,0,0,0,5.64-1L48.5,93c1.61-.67,2.41-1.55,2.41-2.42v1.47c0,.88-.81,1.76-2.42,2.43l-5.13,2.13a15.63,15.63,0,0,1-5.64,1,15.81,15.81,0,0,1-5.92-1l-5.1-2.13a4.37,4.37,0,0,1-2.14-1.59,1.52,1.52,0,0,1-.24-.8V90.64A1.6,1.6,0,0,0,24.56,91.44Z" transform="translate(-4.88 -6.04)"/><path class="cls-14" d="M26.74,88.21c-3.2,1.33-3.22,3.49,0,4.82l5.1,2.13a17.24,17.24,0,0,0,11.56,0L48.5,93c3.2-1.33,3.22-3.49,0-4.82l-5.1-2.13a17.27,17.27,0,0,0-11.57,0Z" transform="translate(-4.88 -6.04)"/></g><path class="cls-15" d="M24.56,92.66a4.37,4.37,0,0,0,2.14,1.59l5.1,2.13a15.61,15.61,0,0,0,5.92,1,15.38,15.38,0,0,0,5.64-1l5.14-2.13c1.61-.67,2.41-1.55,2.41-2.43v1.47c0,.88-.81,1.76-2.42,2.43l-5.13,2.13a15.63,15.63,0,0,1-5.64,1,15.61,15.61,0,0,1-5.92-1l-5.1-2.13a4.31,4.31,0,0,1-2.14-1.59,1.52,1.52,0,0,1-.24-.8V91.85A1.66,1.66,0,0,0,24.56,92.66Z" transform="translate(-4.88 -6.04)"/><line class="cls-8" x1="72.38" y1="59.85" x2="72.38" y2="98.23"/><line class="cls-8" x1="115.55" y1="50.44" x2="115.55" y2="88.82"/><line class="cls-16" x1="23.44" y1="52.44" x2="23.44" y2="66.95"/><line class="cls-16" x1="72.38" y1="55.21" x2="72.38" y2="74.68"/><line class="cls-16" x1="115.55" y1="50.44" x2="115.55" y2="65.2"/><ellipse class="cls-13" cx="71.41" cy="54.7" rx="55.99" ry="23.02"/><ellipse class="cls-14" cx="71.41" cy="51.89" rx="55.99" ry="23.02"/><polygon class="cls-17" points="73.36 51.02 59.08 60.75 42 58.13 59.07 49.98 73.36 51.02"/><polygon class="cls-18" points="73.36 50.2 59.08 59.93 42 57.31 59.07 49.16 73.36 50.2"/><polygon class="cls-17" points="71.26 48.52 56.06 56.74 39.34 52.39 57.16 46.02 71.26 48.52"/><polygon class="cls-18" points="71.26 47.7 56.06 55.91 39.34 51.56 57.16 45.2 71.26 47.7"/><g class="cls-9"><path class="cls-19" d="M23.57,65l1.54-.89-.12.06-1.54.9.12-.07Z" transform="translate(-4.88 -6.04)"/><path class="cls-13" d="M25.11,64.1A4.25,4.25,0,0,1,28,63.82a8.45,8.45,0,0,1,2.38.94,14.19,14.19,0,0,1,3.78,3.32,16.1,16.1,0,0,1,2.27,3.64,10.05,10.05,0,0,1,.91,3.3l.89,11.19c.13,1.68-.39,2.84-1.35,3.4l-1.54.9c1-.56,1.48-1.73,1.34-3.4L35.8,75.92a10,10,0,0,0-.91-3.3A16.15,16.15,0,0,0,32.62,69a14.46,14.46,0,0,0-3.78-3.31,8.21,8.21,0,0,0-2.38-1,4.31,4.31,0,0,0-2.89.28Z" transform="translate(-4.88 -6.04)"/><path class="cls-14" d="M28.84,65.66c-3.55-2-6.7-1.06-7,2.19L20.89,78c-.3,3.25,2.39,7.62,6,9.7l3.78,2.18c3.6,2.08,6.31.83,6-2.76L35.8,75.92C35.52,72.32,32.38,67.71,28.84,65.66Z" transform="translate(-4.88 -6.04)"/></g><g class="cls-9"><polygon class="cls-15" points="24.42 90.88 25.3 90.36 25.36 69.33 24.48 69.85 24.42 90.88"/><polygon class="cls-20" points="24.48 69.85 25.36 69.33 23.09 68.02 22.2 68.53 24.48 69.85"/><polygon class="cls-10" points="22.2 68.53 22.14 89.56 24.42 90.88 24.48 69.85 22.2 68.53"/></g><polygon class="cls-17" points="71.26 46.52 56.06 54.74 39.34 50.39 57.16 44.02 71.26 46.52"/><polygon class="cls-18" points="71.26 45.7 56.06 53.91 39.34 49.56 57.16 43.2 71.26 45.7"/><ellipse class="cls-18" cx="101.28" cy="58.46" rx="11.69" ry="4.55"/><polygon class="cls-21" points="78.11 114.49 80.69 113.26 78.81 111.14 76.23 112.36 78.11 114.49"/><polygon class="cls-21" points="57.93 120.48 60.33 121.17 60.59 120.34 58 120.03 57.93 120.48"/><path class="cls-22" d="M65.58,125.09l16.75-7.93.93,1L63.6,127.5a11.92,11.92,0,0,0,1.4-1.12A6.8,6.8,0,0,0,65.58,125.09Z" transform="translate(-4.88 -6.04)"/><path class="cls-21" d="M68.53,128.61a3.8,3.8,0,0,1-3.09-.36l-1.84-.75,19.66-9.29,1.22,1.37c.49.56.21,1.33-.62,1.72l-9.19,4.36,1.72,7.47c.13.3-.06.64-.45.82l-3.59,1.63c-.63.3-1.43.07-1.51-.44A37.28,37.28,0,0,0,68.53,128.61Z" transform="translate(-4.88 -6.04)"/><path class="cls-22" d="M73.74,127.65l1.63,4.84c.14.4-.14.83-.66,1.06l-1.14.48c-.78.33-1.74.07-1.91-.53-.39-1.44-1.12-3.75-1.49-4.88-.12-.39.15-.82.67-1l1-.43C72.61,126.83,73.54,127.07,73.74,127.65Z" transform="translate(-4.88 -6.04)"/><path class="cls-21" d="M79.53,122.72a4.3,4.3,0,0,1,1.16,2.82c0,2.75-3.29,3.62-5.54,4.68l.19-1.65c.28.31,2.28-.7,2.56-.89,2.39-1.68.87-3.86-.39-5.43A2.45,2.45,0,0,1,79.53,122.72Z" transform="translate(-4.88 -6.04)"/><path class="cls-21" d="M76.24,125.37s.09.17,1.4.52c.26.07.24.34,0,.43a2,2,0,0,1-1.77.05C74.37,126,76.24,125.37,76.24,125.37Z" transform="translate(-4.88 -6.04)"/><path class="cls-22" d="M69.08,127.45l4.79-2.27c.49-.23.63-.68.32-1h0a1.4,1.4,0,0,0-1.54-.23l-4.8,2.27c-.48.23-.62.69-.31,1h0A1.38,1.38,0,0,0,69.08,127.45Z" transform="translate(-4.88 -6.04)"/><polygon class="cls-22" points="72.08 117.37 79.77 113.73 79.2 113.09 71.52 116.73 72.08 117.37"/><path class="cls-23" d="M122.34,108.41l-4.72-.74-.43,2.71,4.72.74c.29,0,.62-.52.73-1.27S122.63,108.46,122.34,108.41Z" transform="translate(-4.88 -6.04)"/><path class="cls-24" d="M117.22,110.17c-.11,0-.3-.1-.38-.48a2.13,2.13,0,0,1,0-.76c.09-.53.33-1.06.7-1.06.17,0,.36.1.44.48a1.94,1.94,0,0,1,0,.76c-.08.53-.33,1.06-.69,1.06Z" transform="translate(-4.88 -6.04)"/><path class="cls-25" d="M117.53,108.08h0c.2,0,.29.48.21,1s-.29.88-.48.88h0c-.19,0-.29-.48-.21-1s.3-.88.49-.88m0-.43h0c-.52,0-.81.65-.91,1.25-.13.81.1,1.41.57,1.48h.09c.52,0,.81-.64.9-1.25a2.31,2.31,0,0,0,0-.83c-.11-.5-.4-.62-.56-.65h-.09Z" transform="translate(-4.88 -6.04)"/><rect class="cls-23" x="106.29" y="116.07" width="4.68" height="2.83" transform="translate(-35.35 32.36) rotate(-17.62)"/><ellipse class="cls-23" cx="110.91" cy="116.77" rx="0.91" ry="1.42" transform="translate(-35.03 33.01) rotate(-17.62)"/><ellipse class="cls-25" cx="106.59" cy="118.14" rx="0.91" ry="1.42" transform="translate(-35.64 31.77) rotate(-17.62)"/><path class="cls-18" d="M126.87,109.4c0,.07.06,0,.08,0S126.85,109.41,126.87,109.4Z" transform="translate(-4.88 -6.04)"/><polygon class="cls-18" points="121.57 102.5 121.61 102.5 121.48 102.42 121.57 102.5"/><path class="cls-18" d="M126,107.9c0,.13.22.19.27.34v0h.11C126.21,108.13,126,108,126,107.9Z" transform="translate(-4.88 -6.04)"/><path class="cls-18" d="M125.78,107.42s-.1,0,.08.07v0Z" transform="translate(-4.88 -6.04)"/><path class="cls-18" d="M125.85,107.47c.07,0,0-.06,0,0Z" transform="translate(-4.88 -6.04)"/><path class="cls-18" d="M125.51,107.25l.12,0s-.09-.1,0-.09S125.48,107.18,125.51,107.25Z" transform="translate(-4.88 -6.04)"/><path class="cls-18" d="M125.37,107.27l.06,0S125.42,107.26,125.37,107.27Z" transform="translate(-4.88 -6.04)"/><path class="cls-18" d="M125.55,107.32l-.12,0s0,.06,0,0S125.5,107.31,125.55,107.32Z" transform="translate(-4.88 -6.04)"/><path class="cls-18" d="M125.6,107.38c0,.06.09.12,0,.09C125.76,107.58,125.78,107.5,125.6,107.38Z" transform="translate(-4.88 -6.04)"/><path class="cls-18" d="M125.83,108l0,.08.08,0S125.85,107.93,125.83,108Z" transform="translate(-4.88 -6.04)"/><path class="cls-18" d="M124.93,106.85s0,.08,0,.11H125S124.92,106.89,124.93,106.85Z" transform="translate(-4.88 -6.04)"/><path class="cls-18" d="M124.93,107h-.13C124.89,107,124.92,107,124.93,107Z" transform="translate(-4.88 -6.04)"/><polygon class="cls-18" points="120.4 101.33 120.62 101.36 120.37 101.31 120.4 101.33"/><polygon class="cls-18" points="119.63 100.6 119.72 100.58 119.57 100.61 119.63 100.6"/><path class="cls-18" d="M124.22,106.54c.07,0,0-.11,0-.11a.49.49,0,0,0-.24,0A.31.31,0,0,1,124.22,106.54Z" transform="translate(-4.88 -6.04)"/><path class="cls-18" d="M123.89,106.45l.12,0Z" transform="translate(-4.88 -6.04)"/><path class="cls-18" d="M124.62,106.84a.11.11,0,0,0-.06-.1l0,.08Z" transform="translate(-4.88 -6.04)"/><path class="cls-18" d="M124.58,106.83h0l-.1,0Z" transform="translate(-4.88 -6.04)"/><path class="cls-18" d="M124.63,106.85h0Z" transform="translate(-4.88 -6.04)"/><path class="cls-18" d="M125.05,107.15c-.09,0-.24,0-.14.1S124.92,107.16,125.05,107.15Z" transform="translate(-4.88 -6.04)"/><path class="cls-18" d="M124.64,107l.11.07s0-.06,0-.06Z" transform="translate(-4.88 -6.04)"/><polygon class="cls-18" points="119.7 100.91 119.77 100.91 119.73 100.89 119.7 100.91"/><path class="cls-18" d="M124.07,106.59a.38.38,0,0,1-.18,0l.2.1S124.15,106.61,124.07,106.59Z" transform="translate(-4.88 -6.04)"/><path class="cls-18" d="M124.32,106.71h0S124.31,106.72,124.32,106.71Z" transform="translate(-4.88 -6.04)"/><polygon class="cls-18" points="118.38 100.32 118.38 100.34 118.39 100.33 118.38 100.32"/><path class="cls-18" d="M124.09,106.67a.11.11,0,0,0,.12,0l-.12,0S124.07,106.67,124.09,106.67Z" transform="translate(-4.88 -6.04)"/><path class="cls-18" d="M123.7,106.42a.27.27,0,0,0,.08.07S123.72,106.41,123.7,106.42Z" transform="translate(-4.88 -6.04)"/><path class="cls-18" d="M124.29,106.68h0S124.29,106.67,124.29,106.68Z" transform="translate(-4.88 -6.04)"/><path class="cls-18" d="M124.29,106.68h-.08l.09,0Z" transform="translate(-4.88 -6.04)"/><path class="cls-18" d="M123,106.76c0-.06.17-.08.26,0s.12-.25.05-.4c0,0,0,.05-.15.06,0,0,.24.15.13.19s-.12-.06-.19-.12c0,.1-.23.06-.22.2H123S122.91,106.73,123,106.76Z" transform="translate(-4.88 -6.04)"/><path class="cls-18" d="M123.49,106.45h.05a.62.62,0,0,1-.15-.14c-.09,0-.11,0-.12.05l.24.08Z" transform="translate(-4.88 -6.04)"/><path class="cls-18" d="M123.76,106.53c-.06.06-.19,0-.14.15s.11,0,.21,0c-.23-.06.08,0-.07-.11l.13,0a.41.41,0,0,1-.11-.07h0s0,0,0,0h0l0,0c-.06,0,0,0,0,0h0l-.24,0Z" transform="translate(-4.88 -6.04)"/><path class="cls-18" d="M124.72,107.33v0S124.7,107.32,124.72,107.33Z" transform="translate(-4.88 -6.04)"/><path class="cls-18" d="M124.66,107.25a.1.1,0,0,1,.09,0s0,0,0,0,.13,0,.06-.07h0c-.08-.06-.15-.2-.13-.2A.56.56,0,0,0,124.66,107.25Z" transform="translate(-4.88 -6.04)"/><path class="cls-18" d="M124.21,106.89l-.2,0,.07.09v0C124.19,107,124.19,106.91,124.21,106.89Z" transform="translate(-4.88 -6.04)"/><polygon class="cls-18" points="118.36 100.28 118.41 100.21 118.27 100.29 118.36 100.28"/><polygon class="cls-18" points="118.11 100.22 118.13 100.16 118.06 100.18 118.11 100.22"/><path class="cls-18" d="M114.56,111.16h0Z" transform="translate(-4.88 -6.04)"/><path class="cls-18" d="M114.23,111l0,0S114.25,111,114.23,111Z" transform="translate(-4.88 -6.04)"/><path class="cls-18" d="M116.64,106.17c-.1,0-.21-.12-.19,0l0,.07A.18.18,0,0,1,116.64,106.17Z" transform="translate(-4.88 -6.04)"/><path class="cls-18" d="M113.05,108.5h0l0-.09Z" transform="translate(-4.88 -6.04)"/><path class="cls-18" d="M113.27,108.72l-.08,0A.25.25,0,0,0,113.27,108.72Z" transform="translate(-4.88 -6.04)"/><path class="cls-18" d="M116.6,111.8l.08,0C116.58,111.72,116.62,111.77,116.6,111.8Z" transform="translate(-4.88 -6.04)"/><path class="cls-18" d="M120.34,105.91a.35.35,0,0,0-.18,0C120.25,105.9,120.32,106,120.34,105.91Z" transform="translate(-4.88 -6.04)"/><path class="cls-18" d="M114,111.76s.06,0,.07,0S114,111.74,114,111.76Z" transform="translate(-4.88 -6.04)"/><path class="cls-18" d="M120,105.85l0,0a.47.47,0,0,1,.17,0A.18.18,0,0,0,120,105.85Z" transform="translate(-4.88 -6.04)"/><path class="cls-18" d="M124.34,111.27h0Z" transform="translate(-4.88 -6.04)"/><path class="cls-18" d="M126.59,110.26l0,.1S126.57,110.32,126.59,110.26Z" transform="translate(-4.88 -6.04)"/><path class="cls-18" d="M122,106c.06,0,0,0,0,0Z" transform="translate(-4.88 -6.04)"/><path class="cls-18" d="M122.17,106.35l0,0Z" transform="translate(-4.88 -6.04)"/><path class="cls-18" d="M119.41,106.31h0Z" transform="translate(-4.88 -6.04)"/><path class="cls-18" d="M122,106.07l-.07,0Z" transform="translate(-4.88 -6.04)"/><path class="cls-18" d="M122,106l0,0S122.08,106,122,106Z" transform="translate(-4.88 -6.04)"/><path class="cls-18" d="M121.88,106l.09,0a0,0,0,0,1,0,0Z" transform="translate(-4.88 -6.04)"/><path class="cls-18" d="M120.26,112.38h0S120.3,112.36,120.26,112.38Z" transform="translate(-4.88 -6.04)"/><polygon class="cls-18" points="110.62 101.23 110.63 101.23 110.62 101.23 110.62 101.23"/><path class="cls-18" d="M115.35,107.39c0-.12.08-.12.15-.12l-.13-.18Z" transform="translate(-4.88 -6.04)"/><path class="cls-18" d="M115.42,111.52l-.09-.11c.18,0,.27,0,.19-.1-.1.21-.46-.17-.57,0l0-.08s0,0,0,0c-.1-.17-.18.09-.36,0s-.09-.1,0-.1l-.17,0s0-.06,0,0l-.22-.11h0a.67.67,0,0,1-.2,0c0-.06,0,0,0,0l-.14,0c0-.08.11-.06.18,0,0-.26-.12,0-.26-.28l.12,0c0-.15-.09-.17-.12-.32,0,0,.06.33-.08.28a.18.18,0,0,0-.14-.1c.06-.06,0-.09-.07-.15l.08-.07c-.08,0-.12,0-.19,0s0-.16,0-.22-.06.18-.17,0-.12-.19-.22-.32.07,0,.09-.05l-.11,0s0,0,0,0-.1,0-.15-.1.17-.22.06-.37.06,0,.1,0a2.53,2.53,0,0,0-.07-.36l.14-.1c-.12.06-.15-.11-.14-.27l-.13,0a.9.9,0,0,1,.08-.21s0,0,.06.08v0c.08,0,.11,0,.12.12l-.1,0c0,.07.06.16.12.18a.2.2,0,0,1,0-.07s0,0,0,0,0,0,0-.07l.13,0,0,0c.08,0,.14-.1.22-.14a1.1,1.1,0,0,1,.27-.69c0,.12.07.13.13.22-.13,0-.16.17-.28.25.06,0,.08,0,.08,0s.1-.16.15-.24.08,0,.16,0c-.15-.11.11-.2.18-.31,0,0,0,.11-.08.17.2,0,.06-.28.25-.26,0,0,0,0,0,0s.24-.13.22-.07l0,0c.2-.1.63-.29.61-.44a.71.71,0,0,1,0,.21c.07-.21.15-.4.23-.6,0,.13.23.36.08.49a.31.31,0,0,0,.22-.08s-.15-.14-.1-.17.11,0,.32.1c-.07,0-.06-.21,0-.23s.06.18,0,.21l.16-.24s0,.15.1.19.18,0,.24-.07l-.11,0c.26,0,.19-.31.44-.36,0,0,0,.26.1.25s.17-.5.39-.61l0,0,.16-.09a4.79,4.79,0,0,1-.47.67c.1,0,0,.06.18,0s-.07.09-.11.1l.33,0c0-.11.23-.15.2-.24l-.33.17c0-.11.15-.36.39-.37.07,0,0,.21,0,.25a.33.33,0,0,1,.24-.08l-.09.07c.13,0,.19-.17.35-.08s.18.13.18.06a.93.93,0,0,1-.1-.62,2.05,2.05,0,0,1,.37.16c.09.1-.12.26,0,.34s.05-.08.07-.09,0,.1.1.08.25,0,.06-.11c.11,0,.12,0,.27,0,0-.08.12-.26.24-.3s0,.07,0,.09c.25,0,.38.06.61.07,0,0,.14.06.09.11a.2.2,0,0,1,.13-.06c.14.1-.16,0-.06.14,0-.07.19-.09.3-.12s-.24,0-.34,0c0-.14.19-.29.44-.33s.08.09.11.08c.37,0,.34-.23.64-.09.11.1,0,.18,0,.25-.16,0-.23-.09-.34-.1l.13.06a.28.28,0,0,1-.22,0c.09.09.61.08.88.2,0,0,.15,0,.11-.08h-.09c-.07-.08.18-.07.08-.12a.65.65,0,0,1,.44,0v.11s-.1-.08-.15-.06.22.19.33.07l-.1-.09a.73.73,0,0,1,.44,0c0-.11,0,0-.12-.13.06.16-.38-.1-.26.09-.09-.16-.18-.1-.31-.24,0,0,0,.08-.08,0l0,0h0s0,0,0,0,0,0,0,.06-.28,0-.35.06,0,0,0-.08l-.11,0c0-.07-.18-.14,0-.17l-.16,0a.42.42,0,0,0-.3-.06c-.08,0-.2.06-.13,0l-.26,0v0c-.25,0-.52.09-.8,0a.78.78,0,0,1-.32,0l0-.07c-.11,0-.33-.06-.38,0-.12-.18-.53,0-.72,0v.08a1.87,1.87,0,0,0-.42.09l0,.07c-.13.08-.36,0-.58,0,0,0,.07,0,.11,0-.29-.15-.54.21-.79.12a.17.17,0,0,1-.15,0h0l-.09,0,.08,0-.18.07,0-.07h0c-.07,0,0,0,0,.1l-.08.07c-.09-.11-.17.08-.27,0,0,.08-.33.14-.32.29,0,0,0,0,0,0a.26.26,0,0,0-.21.07l-.07-.09-.11.19c-.12,0-.17-.05-.1-.16-.19.2-.17.11-.32.3l0-.07c-.06,0-.14.16-.2.13s-.75.33-1.18.49c.19.11-.22.06-.14.19s-.12,0-.08-.08c-.16.17-.32.18-.35.38,0,0,0-.08,0-.08s0,.08-.06.08,0-.06,0-.1a.26.26,0,0,0,0,.41c-.12,0-.16.1-.13.23s-.13,0-.07-.09c0,.06-.31.44-.19.5,0,0,0,.11,0,.13a1.39,1.39,0,0,0-.06.4l0,0c.12.08,0,.15.06.3h0c0,.36.07.13.06.49l.07,0c.16,0,0,.31.2.44v-.08c.11,0,0,.37,0,.48s0,0-.07,0c.12.29.1,0,.26.09,0,.07-.14.07,0,.18s.43.13.52.32c0-.06,0-.12.08-.09s.23.35.41.3a.08.08,0,0,1,0,0,1.38,1.38,0,0,0,.43.07c0,.3.65.13.55.37l.31.09v0a.37.37,0,0,0,.37,0s0,0,0,.06a.66.66,0,0,0,.59.07v.08c.08,0,.4.24.71.18,0,0,0,0,0,0,.34,0,.76.35.92.06l.23,0c-.28-.06,0-.13-.06-.2.11,0,.28.12.14.13l0,0c-.06.16.34.08.33.19.55,0,1.09.12,1.62.11l-.07-.12h.19s.06.1-.07.1c.08.07.22-.08.22-.1.26,0-.09.15,0,.15l.1,0h0c.08-.06.09-.11.24-.12s.06.07.1.08,0,0,.06,0l.23,0-.1-.08c.09-.06.21,0,.09-.12.18.16.86,0,1,0a1,1,0,0,1,.44-.15s-.1-.11,0-.13c0,.23.29,0,.45.17-.14-.08.4-.15.2-.25.12,0,0,.08.14.11.26-.17.65-.14,1-.32,0,0-.08,0,0-.12l.25.06c.06,0,0-.19.15-.16,0,0-.07,0,0-.06a2.63,2.63,0,0,0,1-.57c.3-.25.57-.52.9-.82-.11.07-.08,0,0-.08s-.06,0-.1,0a1.31,1.31,0,0,0,.24-.28c-.07-.08.09-.37,0-.42v.11c-.11-.15-.3.14-.47.06.11.18-.3.21-.23.48,0,0,0-.06-.06-.06s0,.14-.1.21v0c-.2.27-.37.31-.7.5l.07,0a.23.23,0,0,1-.15,0c0,.16.2-.12.2,0-.18-.06-.51.33-.67.19-.12.06.08.06,0,.12l0,0v.08a.14.14,0,0,1-.16-.05s0,0,.06,0-.28.14-.32.14l.13,0c-.31.19-.74.27-1.06.46l0,0c-.24.14-.22,0-.5.12h0a.42.42,0,0,1-.2.1c.06-.06-.16-.06-.07-.12-.27.13-.13.08-.3.26l0-.06a.29.29,0,0,1-.21.14c.12-.07-.11-.08,0-.17-.33-.08-.44.2-.61,0-.12.19.28.06.2.11.08,0-.1.14-.2.14s-.19-.2-.44-.18h0c-.1,0-.18.07-.3,0-.06.11-.15,0-.16.14l.23-.05c-.13,0-.24.22-.47.14a.32.32,0,0,1,.13-.08c-.07,0-.12,0-.19,0s.28,0,.41-.16c-.07,0-.26.12-.19,0-.1.19-.25,0-.42.13v-.08a.32.32,0,0,1-.13,0l.09-.11c-.13.09-.26-.07-.39,0,.27,0,.06.1.17.15-.34.11-.19-.21-.57-.18,0,0,.19,0,.11.09a.51.51,0,0,1-.21-.1c-.25,0,0,.09-.07.13s-.13,0-.24.06v-.08c-.29-.08-.09.16-.35.08l.12-.11-.14,0,0-.09a.38.38,0,0,1-.33,0c0,.06,0,.15-.17.14s.06-.08-.12-.08c0,0,.1-.11.17,0s0,0,0-.07a.5.5,0,0,0-.29,0l.07,0-.28.08s0-.06,0-.08-.1,0-.17,0,0-.13.15-.15l-.26,0s-.11-.1-.07-.12c-.13-.06-.35.06-.52,0a.1.1,0,0,1-.07,0c-.17,0-.28-.18-.5-.14l-.08-.15c-.16,0,.11.19-.16.16s0-.12-.08-.17-.3.09-.42-.07C115.34,111.48,115.37,111.51,115.42,111.52Zm-1.66-.86s.13,0,.12.06S113.79,110.72,113.76,110.66Zm-.41-2.28s0,.06-.09.08A.24.24,0,0,1,113.35,108.38Zm8-2.38h0C121.26,106,121.29,106,121.35,106Zm.18.06s0,0,0,0-.06,0-.11,0S121.47,106.07,121.53,106.06Zm-.66,6.83,0,0C120.91,112.84,120.89,112.86,120.87,112.89Z" transform="translate(-4.88 -6.04)"/><path class="cls-18" d="M113.25,108.69h0S113.22,108.71,113.25,108.69Z" transform="translate(-4.88 -6.04)"/><path class="cls-18" d="M116.58,111.82h0v0Z" transform="translate(-4.88 -6.04)"/><path class="cls-18" d="M118.7,106.65a.11.11,0,0,1-.07,0S118.65,106.65,118.7,106.65Z" transform="translate(-4.88 -6.04)"/><path class="cls-18" d="M122.53,106.09h-.12a.22.22,0,0,1,.1,0S122.5,106.08,122.53,106.09Z" transform="translate(-4.88 -6.04)"/><path class="cls-18" d="M123.41,106.83h0v0C123.4,106.78,123.34,106.8,123.41,106.83Z" transform="translate(-4.88 -6.04)"/><path class="cls-18" d="M122.58,106.38c0,.07.08.06.16.07h0C122.77,106.36,122.68,106.37,122.58,106.38Z" transform="translate(-4.88 -6.04)"/><path class="cls-18" d="M122.76,106.45h.07S122.81,106.45,122.76,106.45Z" transform="translate(-4.88 -6.04)"/><path class="cls-18" d="M121.77,106.05s0-.09.06,0S121.55,106.06,121.77,106.05Z" transform="translate(-4.88 -6.04)"/><polygon class="cls-18" points="117.72 100.57 117.71 100.48 117.65 100.54 117.72 100.57"/><path class="cls-18" d="M122,106.43l.13,0s0,0,0,0S122,106.4,122,106.43Z" transform="translate(-4.88 -6.04)"/><path class="cls-18" d="M122.15,106.45a.19.19,0,0,0,.1,0Z" transform="translate(-4.88 -6.04)"/><polygon class="cls-18" points="117.54 100.56 117.51 100.53 117.42 100.51 117.54 100.56"/><path class="cls-18" d="M120.59,106.25h-.14s0,0,.07,0S120.61,106.28,120.59,106.25Z" transform="translate(-4.88 -6.04)"/><path class="cls-18" d="M121,106.51s0,0-.06-.07v.11Z" transform="translate(-4.88 -6.04)"/><path class="cls-18" d="M120.59,106.51s-.21.07,0,.07C120.57,106.55,120.71,106.54,120.59,106.51Z" transform="translate(-4.88 -6.04)"/><polygon class="cls-18" points="113.59 100.34 113.62 100.33 113.61 100.16 113.59 100.34"/><path class="cls-18" d="M116.7,107.05c.17,0,0-.11.17-.09s-.13,0-.09-.06S116.63,107,116.7,107.05Z" transform="translate(-4.88 -6.04)"/><path class="cls-18" d="M116.78,106.9l0,0S116.78,106.89,116.78,106.9Z" transform="translate(-4.88 -6.04)"/><polygon class="cls-18" points="121.95 103.79 122.01 103.65 121.94 103.73 121.95 103.79"/><path class="cls-18" d="M126.73,109.56l.12,0-.09-.08S126.76,109.54,126.73,109.56Z" transform="translate(-4.88 -6.04)"/><path class="cls-18" d="M113.73,110.32h0s0,0,0,.08Z" transform="translate(-4.88 -6.04)"/><polygon class="cls-18" points="109.85 105.07 109.83 105.06 109.82 105.17 109.85 105.07"/><path class="cls-18" d="M115.83,111.43l-.15,0C115.78,111.41,115.8,111.55,115.83,111.43Z" transform="translate(-4.88 -6.04)"/><path class="cls-18" d="M109.52,122.47s0,.08,0,.09S109.52,122.45,109.52,122.47Z" transform="translate(-4.88 -6.04)"/><polygon class="cls-18" points="105.52 116.15 105.51 116.18 105.63 116.08 105.52 116.15"/><path class="cls-18" d="M111.23,122.05c-.11-.13-.29.09-.45.06l0,0,0,.12C110.88,122.17,111.09,122,111.23,122.05Z" transform="translate(-4.88 -6.04)"/><path class="cls-18" d="M111.74,122.25s.08-.08-.11,0h0Z" transform="translate(-4.88 -6.04)"/><path class="cls-18" d="M111.65,122.27c-.08,0,.07,0,0,0Z" transform="translate(-4.88 -6.04)"/><path class="cls-18" d="M112.05,122.12l-.1.08s.14,0,.1,0C112.17,122.18,112.13,122.15,112.05,122.12Z" transform="translate(-4.88 -6.04)"/><path class="cls-18" d="M112.13,122l-.06,0S112.11,122,112.13,122Z" transform="translate(-4.88 -6.04)"/><path class="cls-18" d="M112,122.11l.11-.08s0-.06,0,0S112,122.06,112,122.11Z" transform="translate(-4.88 -6.04)"/><path class="cls-18" d="M111.88,122.11c-.07,0-.16,0,0-.09C111.61,122.1,111.67,122.19,111.88,122.11Z" transform="translate(-4.88 -6.04)"/><path class="cls-18" d="M111.24,121.9l-.1,0-.06.07S111.25,121.94,111.24,121.9Z" transform="translate(-4.88 -6.04)"/><path class="cls-18" d="M112.78,122s-.06-.06-.09-.09l-.07.06S112.76,121.91,112.78,122Z" transform="translate(-4.88 -6.04)"/><path class="cls-18" d="M112.69,121.86l.11-.1C112.69,121.8,112.68,121.83,112.69,121.86Z" transform="translate(-4.88 -6.04)"/><polygon class="cls-18" points="107.22 115.79 107.05 115.95 107.26 115.78 107.22 115.79"/><polygon class="cls-18" points="108.38 115.72 108.34 115.81 108.42 115.66 108.38 115.72"/><path class="cls-18" d="M113.56,121.61c0,.08.12,0,.08.11a.66.66,0,0,0,.17-.21A.36.36,0,0,1,113.56,121.61Z" transform="translate(-4.88 -6.04)"/><path class="cls-18" d="M113.88,121.4l-.07.11A.41.41,0,0,0,113.88,121.4Z" transform="translate(-4.88 -6.04)"/><path class="cls-18" d="M113,121.69a.14.14,0,0,0,.13,0l-.08-.06Z" transform="translate(-4.88 -6.04)"/><path class="cls-18" d="M113.06,121.67h0l.11,0Z" transform="translate(-4.88 -6.04)"/><path class="cls-18" d="M113,121.7h0A0,0,0,0,0,113,121.7Z" transform="translate(-4.88 -6.04)"/><path class="cls-18" d="M112.45,121.8c0-.07.18-.17,0-.19S112.53,121.69,112.45,121.8Z" transform="translate(-4.88 -6.04)"/><path class="cls-18" d="M112.9,121.63l-.13,0s0,0,0,.08A.57.57,0,0,1,112.9,121.63Z" transform="translate(-4.88 -6.04)"/><polygon class="cls-18" points="108.07 115.53 108.02 115.58 108.07 115.57 108.07 115.53"/><path class="cls-18" d="M113.63,121.44a.44.44,0,0,1,.16-.14l-.23.1S113.55,121.48,113.63,121.44Z" transform="translate(-4.88 -6.04)"/><path class="cls-18" d="M113.35,121.55h0S113.34,121.54,113.35,121.55Z" transform="translate(-4.88 -6.04)"/><polygon class="cls-18" points="109.54 114.87 109.53 114.87 109.53 114.88 109.54 114.87"/><path class="cls-18" d="M113.54,121.39a.13.13,0,0,0-.1.09l.12-.08S113.56,121.37,113.54,121.39Z" transform="translate(-4.88 -6.04)"/><path class="cls-18" d="M114.05,121.26h-.12S114.05,121.29,114.05,121.26Z" transform="translate(-4.88 -6.04)"/><path class="cls-18" d="M113.39,121.55h0S113.4,121.56,113.39,121.55Z" transform="translate(-4.88 -6.04)"/><path class="cls-18" d="M113.39,121.55l0-.07-.08.06Z" transform="translate(-4.88 -6.04)"/><path class="cls-18" d="M114.29,120.35c0,.07,0,.22-.2.22s.13.29.31.34c0,0,0,0,.06-.17-.07,0-.31.08-.25,0s.13,0,.23-.07c-.12,0,.09-.26,0-.35l-.09.14S114.33,120.34,114.29,120.35Z" transform="translate(-4.88 -6.04)"/><path class="cls-18" d="M114.18,121.05l-.05,0a.75.75,0,0,1,.23,0c.06-.08.06-.12,0-.14l-.24.14Z" transform="translate(-4.88 -6.04)"/><path class="cls-18" d="M113.91,121.22c0-.09.1-.19,0-.23s-.07.12-.13.2c.22-.15-.05.07.15,0a.47.47,0,0,1-.12.09l.14,0h0a.08.08,0,0,1,0,0c.08,0,0,0,0,0h0l.21-.18Z" transform="translate(-4.88 -6.04)"/><path class="cls-18" d="M112.53,121.39s0,0,0,0S112.56,121.38,112.53,121.39Z" transform="translate(-4.88 -6.04)"/><path class="cls-18" d="M112.65,121.4a.1.1,0,0,1-.08.07c-.06,0,0,0,0-.06s-.1.1,0,.1v0c.11,0,.28,0,.27.06A.8.8,0,0,0,112.65,121.4Z" transform="translate(-4.88 -6.04)"/><path class="cls-18" d="M113.27,121.32a.86.86,0,0,0,.18-.14h-.13l0,0C113.23,121.24,113.27,121.28,113.27,121.32Z" transform="translate(-4.88 -6.04)"/><polygon class="cls-18" points="109.59 114.89 109.62 114.99 109.65 114.81 109.59 114.89"/><polygon class="cls-18" points="109.83 114.71 109.86 114.78 109.9 114.69 109.83 114.71"/><path class="cls-18" d="M106.21,114.31l0,0Z" transform="translate(-4.88 -6.04)"/><path class="cls-18" d="M106.62,114.17v0S106.6,114.18,106.62,114.17Z" transform="translate(-4.88 -6.04)"/><path class="cls-18" d="M114.81,114.29c0-.12-.06-.28-.1-.2l0,.09A.26.26,0,0,1,114.81,114.29Z" transform="translate(-4.88 -6.04)"/><path class="cls-18" d="M110.15,113.3l0,0,.07-.08Z" transform="translate(-4.88 -6.04)"/><path class="cls-18" d="M110.07,113.65l-.12-.06Z" transform="translate(-4.88 -6.04)"/><path class="cls-18" d="M104.25,115.49v.1C104.34,115.53,104.27,115.53,104.25,115.49Z" transform="translate(-4.88 -6.04)"/><path class="cls-18" d="M116.48,118.21a1.29,1.29,0,0,0,.1-.22C116.51,118.09,116.42,118.16,116.48,118.21Z" transform="translate(-4.88 -6.04)"/><path class="cls-18" d="M106.08,113.38s0,.05,0,.07S106.09,113.4,106.08,113.38Z" transform="translate(-4.88 -6.04)"/><path class="cls-18" d="M116.61,117.73l0,0a.55.55,0,0,1,0,.22C116.62,117.92,116.68,117.82,116.61,117.73Z" transform="translate(-4.88 -6.04)"/><path class="cls-18" d="M106.25,121.14h0S106.27,121.14,106.25,121.14Z" transform="translate(-4.88 -6.04)"/><path class="cls-18" d="M108.69,122.37h0Z" transform="translate(-4.88 -6.04)"/><path class="cls-18" d="M115.63,120s0,0,0,0Z" transform="translate(-4.88 -6.04)"/><path class="cls-18" d="M115.17,120a.09.09,0,0,0,0,0A.11.11,0,0,1,115.17,120Z" transform="translate(-4.88 -6.04)"/><path class="cls-18" d="M116.07,117.1h0S116.05,117.11,116.07,117.1Z" transform="translate(-4.88 -6.04)"/><path class="cls-18" d="M115.53,120l.08,0Z" transform="translate(-4.88 -6.04)"/><path class="cls-18" d="M115.57,120l0,0S115.54,120.07,115.57,120Z" transform="translate(-4.88 -6.04)"/><path class="cls-18" d="M115.68,119.88l-.07.07h0Z" transform="translate(-4.88 -6.04)"/><path class="cls-18" d="M102.76,118.62v0S102.8,118.65,102.76,118.62Z" transform="translate(-4.88 -6.04)"/><polygon class="cls-18" points="108.15 108.27 108.16 108.27 108.15 108.27 108.15 108.27"/><path class="cls-18" d="M112.83,114.3c.11-.07.15,0,.2,0l0-.26Z" transform="translate(-4.88 -6.04)"/><path class="cls-18" d="M105.29,114.74h.15c-.08.19-.21.21,0,.25-.12-.26.45-.26.36-.51l.11,0s0,0-.05,0c.21,0,.05-.24.28-.28s.15,0,.11.06l.15-.13s0,0,0,0l.26-.11h0a1.18,1.18,0,0,1,.13-.18c.08,0,0,0,0,.07l.13-.11c.08,0,0,.15-.13.17.21.23.1-.1.44,0l-.13.06c.13.13.22,0,.4.11,0,0-.37-.17-.22-.27s.11,0,.18-.06c0,.09.11,0,.21,0l0,.13c.11-.06.09-.12.14-.19s.18.09.22.17c.21,0-.16-.14.08-.2a.93.93,0,0,0,.5-.14c.13,0,0,.08,0,.11l.1-.11s0,0,0,0,0-.13.14-.17.31.18.49,0c0,0,0,.08,0,.13a1.67,1.67,0,0,0,.42-.22l.17.09c-.12-.1,0-.2.2-.29l-.11-.11.24-.06s0,.07,0,.12l0,0c.09,0,0,.12,0,.19l-.08-.08a.35.35,0,0,0-.11.23l.08,0s0,0,0,0,0,0,.07,0l0,.14,0-.05.29.11a1.53,1.53,0,0,1,.79-.31c-.1.09,0,.17-.07.29-.07-.15-.27,0-.44,0,.09,0,.06.08,0,.1a1.83,1.83,0,0,1,.32-.07c0,.09.06.08.13.14,0-.21.25-.09.39-.13,0,.07,0,.13-.2.09.14.17.27-.19.4,0,0,0-.05,0-.07,0s.3.06.23.1h0c.24.08.72.24.82.08a1.73,1.73,0,0,1-.13.21,5.56,5.56,0,0,1,.64-.35c-.1.11-.1.49-.32.49a.32.32,0,0,0,.24.09s0-.23,0-.22a1.66,1.66,0,0,0,.16.33s.13-.23.21-.18-.1.21-.14.21l.32-.08c-.07,0-.1.16-.09.24s.17.11.23.12l0-.09c.2.16.4-.13.61.05,0,0-.23.18-.14.29a1.07,1.07,0,0,1,.82-.13V115a.82.82,0,0,1,.19.09l-.92.06c0,.1,0,.07.08.16s-.11,0-.15,0l.21.25c.09-.11.27.08.34,0l-.35-.16a.4.4,0,0,1,.57.09c0,.08-.21.11-.24.15s.21.11.2.15l-.12,0c0,.12.27.07.25.27,0,0-.06.22,0,.19a1.23,1.23,0,0,1,.62-.41,1.49,1.49,0,0,1,0,.46c-.07.13-.33,0-.39.1a.21.21,0,0,1,.12,0c0,.06-.11,0-.05.13s.06.24.13,0c.07.11,0,.14.06.27.07-.07.32.07.37.21s-.08,0-.09,0a4.45,4.45,0,0,1-.07.66s-.1.13-.15.07a.23.23,0,0,1,.05.15c-.15.12,0-.16-.15-.08.07,0,.09.21.09.32s.08-.24,0-.35a.49.49,0,0,1,.29.56c0,.23-.13,0-.12.1-.19.37.11.46-.17.72-.17.06-.18-.11-.26-.12s.18-.2.24-.31l-.11.11a.27.27,0,0,1,.08-.23c-.13.06-.34.59-.62.77,0,.06,0,.16,0,.15l.06-.08c.12,0,0,.21.08.14,0,.14-.07.34-.26.43l-.11-.06s.15,0,.16-.1c0,.1-.33.08-.28.26l.15,0c-.05.14-.1.36-.27.43.14,0,0,0,.21,0-.19-.06.35-.3.1-.32.2,0,.21-.1.43-.13,0,0-.1,0,0-.11a.07.07,0,0,1,0,0h0a.13.13,0,0,1-.1,0c0-.12.14-.29.15-.38s0,0,.08,0,0-.09,0-.14.25-.11.17.1l.12-.16a.47.47,0,0,0,.22-.3c.06-.07,0-.25,0-.15a1.67,1.67,0,0,0,.08-.3h0c.13-.29.06-.63.26-1a1,1,0,0,1,0-.39l.08,0c0-.13,0-.42,0-.47.19-.19-.11-.68-.19-.9l-.1,0a1.09,1.09,0,0,0-.3-.43l-.07.06c-.14-.1-.19-.39-.37-.58,0,0,.07,0,.09.1,0-.39-.56-.38-.67-.66a.16.16,0,0,1-.13-.1h0l0-.1a.25.25,0,0,0,0,.09l-.19-.1,0-.1h0c0-.07-.08,0-.09.09a.22.22,0,0,0-.11,0c0-.16-.2-.07-.19-.25-.08,0-.37-.14-.49,0s0,0,0,0a.27.27,0,0,0-.22-.1l0-.13-.24.08c-.07-.11-.1-.17,0-.22a3.78,3.78,0,0,0-.49,0l0-.07c-.08,0-.24,0-.26,0s-.86-.29-1.3-.49c0,.24-.2-.14-.24,0,0-.06-.08-.1,0-.14-.25,0-.35-.12-.53,0,0-.06.06-.08,0-.11s-.09,0-.11,0,0,0,.08-.06c-.25,0-.28.15-.31.31a.18.18,0,0,0-.28,0c0-.06-.11-.12,0-.13-.09,0-.52-.1-.53,0,0,0-.12,0-.14,0a1.78,1.78,0,0,0-.4,0l0,0c-.06.15-.15,0-.3.07v0c-.36-.08-.14.07-.5,0l0,.09c0,.21-.31-.07-.5,0l.08,0c-.09.09-.34-.23-.46-.23s0,0,.07-.06c-.31,0,0,.14-.22.21,0-.06,0-.18-.13-.16s-.36.3-.58.24c0,0,.11.07,0,.14s-.45-.08-.53.13l0,0c-.1.08-.33.19-.36.3-.23-.26-.6.43-.72.17l-.31.19v0a.39.39,0,0,0-.27.32c-.06,0,0,0-.05,0-.31.12-.34.16-.47.46l-.08-.06c0,.08-.49.2-.65.53a.11.11,0,0,1,0-.06c-.18.34-.82.58-.58.9l0,.26c.17-.27.12.12.23,0,0,.11-.24.23-.19.09h0c-.16-.14-.23.33-.33.29a3.36,3.36,0,0,0-.17,1.93l.12-.11,0,.21c0,.06-.08.11-.12,0-.06.1.14.23.17.22.08.29-.2,0-.17,0l.07.12v0c.1.07.16.05.23.22s0,.1,0,.14,0,0,0,.06l.14.24,0-.15c.12.07.14.21.18,0-.09.28.57.79.62.89a1.18,1.18,0,0,1,.45.27s0-.17.15-.06c-.2.19.19.26.21.5,0-.17.44.21.36,0,.11.08,0,.09,0,.19.34.07.65.38,1.06.49,0,0,0-.11.07-.13l.15.24c.08,0,.13-.17.24,0,0,0,0-.09,0-.08.75.39,1.61.2,2.4.54-.1-.07,0-.08,0-.07s0-.09,0-.14l.34.14c.06-.13.36,0,.39-.14l-.1,0c.13-.15-.21-.32-.19-.52-.15.18-.39-.24-.64,0-.06,0,0-.06,0-.1s-.15.09-.28,0v0a3.39,3.39,0,0,1-1-.25v.1a.33.33,0,0,1-.14-.09c-.13.12.26,0,.13.19-.09-.2-.65-.14-.68-.38-.14,0,0,.12-.13.08l0-.06-.06.06a.15.15,0,0,1-.09-.17h.08c-.09-.11-.33-.09-.36-.12l.12.08c-.4-.07-.79-.33-1.18-.4v0c-.31-.06-.18-.16-.47-.29h0a.32.32,0,0,1-.23-.08c.09,0-.06-.17.06-.16-.3-.11-.17,0-.43,0v-.09a.29.29,0,0,1-.25-.07c.13,0,0-.15.16-.11-.12-.32-.44-.25-.36-.51-.26,0,.09.29,0,.25s-.2,0-.26-.09.12-.31,0-.51l0,0c0-.1-.14-.14-.11-.27-.14,0-.06-.14-.21-.1l.13.2c-.1-.1-.32-.15-.3-.4,0,0,.1.06.13.09s-.06-.11,0-.18.09.26.27.34c0-.08-.19-.2,0-.19-.22,0-.06-.23-.23-.36h.1a.28.28,0,0,1-.08-.12l.14.07c-.12-.12,0-.25,0-.36,0,.25-.12.06-.18.17-.12-.33.23-.19.23-.53,0,.05-.09.17-.12.09a.66.66,0,0,1,.14-.18c0-.23-.1,0-.14-.09.13-.06,0-.13,0-.25l.09,0c.15-.24-.18-.14,0-.35a.55.55,0,0,0,.08.15.51.51,0,0,1,0-.13l.09.07a.35.35,0,0,1,.12-.31c-.08,0-.14-.1-.07-.21s0,.09.14-.07c0,.07.07.15,0,.16a.73.73,0,0,0,0,.09c.11,0,.14-.18.18-.23s0,0-.06,0a2.93,2.93,0,0,1,0-.29c.06,0,.06,0,.06.08s0-.1.06-.17.11.12.07.22l.1-.24s.15,0,.15,0,.13-.35.33-.42c0,0,0,0,0-.07s.32-.12.44-.32l.18.06c.12-.12-.23-.06,0-.26s.13.07.21.07.13-.32.34-.31C105.38,114.7,105.33,114.7,105.29,114.74Zm1.94-.78s-.1.11-.14.06S107.16,114,107.23,114Zm3.23-.46s-.08,0-.14,0A.25.25,0,0,1,110.46,113.5Zm5.53,5.83h0C116.09,119.25,116.05,119.28,116,119.33Zm-.15.16s0,0,0,0,0-.07,0-.11S115.85,119.42,115.84,119.49Zm-13.41,0v0C102.5,119.49,102.47,119.47,102.43,119.47Z" transform="translate(-4.88 -6.04)"/><path class="cls-18" d="M110.08,113.61s0,0,0,0S110,113.59,110.08,113.61Z" transform="translate(-4.88 -6.04)"/><polygon class="cls-18" points="99.37 109.42 99.37 109.42 99.37 109.44 99.37 109.42"/><path class="cls-18" d="M115.52,116.48a.17.17,0,0,1,0-.08S115.5,116.43,115.52,116.48Z" transform="translate(-4.88 -6.04)"/><path class="cls-18" d="M115.18,120.46l.09-.11a.2.2,0,0,1-.11.06S115.21,120.43,115.18,120.46Z" transform="translate(-4.88 -6.04)"/><path class="cls-18" d="M113.9,120.68l0,0,0,0C114,120.71,114,120.65,113.9,120.68Z" transform="translate(-4.88 -6.04)"/><path class="cls-18" d="M114.88,120.31c-.06,0-.11,0-.17.09h0C114.77,120.49,114.83,120.41,114.88,120.31Z" transform="translate(-4.88 -6.04)"/><path class="cls-18" d="M114.69,120.42l-.06,0S114.66,120.46,114.69,120.42Z" transform="translate(-4.88 -6.04)"/><path class="cls-18" d="M115.71,119.75s.07.08,0,.08S115.83,119.51,115.71,119.75Z" transform="translate(-4.88 -6.04)"/><polygon class="cls-18" points="109.77 114.11 109.86 114.17 109.84 114.07 109.77 114.11"/><path class="cls-18" d="M115.21,119.72l-.12.09s0,0,0,0S115.23,119.73,115.21,119.72Z" transform="translate(-4.88 -6.04)"/><path class="cls-18" d="M115.09,119.86s-.07.06-.07.09Z" transform="translate(-4.88 -6.04)"/><polygon class="cls-18" points="109.89 113.96 109.94 113.95 110.02 113.88 109.89 113.96"/><path class="cls-18" d="M116,118.4l0-.16s-.06,0-.06.07S116,118.41,116,118.4Z" transform="translate(-4.88 -6.04)"/><path class="cls-18" d="M115.6,118.72s.05,0,.09,0l-.1,0Z" transform="translate(-4.88 -6.04)"/><path class="cls-18" d="M115.74,118.32s0-.23-.08-.06C115.69,118.28,115.67,118.43,115.74,118.32Z" transform="translate(-4.88 -6.04)"/><polygon class="cls-18" points="110.85 110.09 110.87 110.13 111.05 110.03 110.85 110.09"/><path class="cls-18" d="M114.1,115c.1.14.1-.07.19.07.06,0-.07-.12,0-.13C114.16,115,114.14,114.91,114.1,115Z" transform="translate(-4.88 -6.04)"/><path class="cls-18" d="M114.28,115h0Z" transform="translate(-4.88 -6.04)"/><polygon class="cls-18" points="104.26 116.44 104.38 116.48 104.3 116.41 104.26 116.44"/><path class="cls-18" d="M109.37,122.33l0,.12.07-.11S109.39,122.35,109.37,122.33Z" transform="translate(-4.88 -6.04)"/><path class="cls-18" d="M107.59,114.15v0s0,0-.1,0Z" transform="translate(-4.88 -6.04)"/><polygon class="cls-18" points="101.25 108.43 101.27 108.42 101.18 108.33 101.25 108.43"/><path class="cls-18" d="M105.08,115.13a1.48,1.48,0,0,1,.13-.08C105.12,115.11,105,115,105.08,115.13Z" transform="translate(-4.88 -6.04)"/><path class="cls-18" d="M76.86,139.28c-.15,0-.1.1-.12.12C77,139.37,76.85,139.26,76.86,139.28Z" transform="translate(-4.88 -6.04)"/><polygon class="cls-18" points="74.43 132.93 74.39 132.97 74.74 132.84 74.43 132.93"/><path class="cls-18" d="M81.59,138.74c-.24-.16-.82.16-1.23.11l-.07,0-.17.16C80.61,138.93,81.24,138.74,81.59,138.74Z" transform="translate(-4.88 -6.04)"/><path class="cls-18" d="M82.87,138.94c-.09-.06.26-.11-.29,0h.06Z" transform="translate(-4.88 -6.04)"/><path class="cls-18" d="M82.64,139c-.24,0,.17,0,0,0Z" transform="translate(-4.88 -6.04)"/><path class="cls-18" d="M83.74,138.71l-.3.13c.07,0,.35,0,.26,0C84,138.77,83.94,138.74,83.74,138.71Z" transform="translate(-4.88 -6.04)"/><path class="cls-18" d="M84,138.52l-.16.06S83.93,138.59,84,138.52Z" transform="translate(-4.88 -6.04)"/><path class="cls-18" d="M83.52,138.71l.33-.13s-.06-.07-.15.06C83.72,138.58,83.66,138.64,83.52,138.71Z" transform="translate(-4.88 -6.04)"/><path class="cls-18" d="M83.32,138.72c-.19,0-.42,0-.11-.1C82.61,138.77,82.72,138.87,83.32,138.72Z" transform="translate(-4.88 -6.04)"/><path class="cls-18" d="M81.68,138.54l-.24,0-.19.09C81.34,138.56,81.71,138.59,81.68,138.54Z" transform="translate(-4.88 -6.04)"/><path class="cls-18" d="M85.72,138.32s-.13-.07-.17-.11l-.22.11C85.46,138.31,85.69,138.27,85.72,138.32Z" transform="translate(-4.88 -6.04)"/><path class="cls-18" d="M85.55,138.21l.32-.15C85.57,138.13,85.52,138.18,85.55,138.21Z" transform="translate(-4.88 -6.04)"/><polygon class="cls-18" points="79.14 132.28 78.61 132.53 79.25 132.25 79.14 132.28"/><polygon class="cls-18" points="82.15 131.87 81.98 132.02 82.28 131.78 82.15 131.87"/><path class="cls-18" d="M87.88,137.6c-.12.12.24.05.11.14a2.93,2.93,0,0,0,.55-.37A1.82,1.82,0,0,1,87.88,137.6Z" transform="translate(-4.88 -6.04)"/><path class="cls-18" d="M88.8,137.17a1.51,1.51,0,0,0-.26.2Z" transform="translate(-4.88 -6.04)"/><path class="cls-18" d="M86.46,137.9a.46.46,0,0,0,.3,0l-.17,0Z" transform="translate(-4.88 -6.04)"/><path class="cls-18" d="M86.59,137.85h0l.29-.1Z" transform="translate(-4.88 -6.04)"/><path class="cls-18" d="M86.43,137.91h0S86.44,137.89,86.43,137.91Z" transform="translate(-4.88 -6.04)"/><path class="cls-18" d="M85,138.2c.18-.12.58-.29.16-.27C85,138,85.23,138,85,138.2Z" transform="translate(-4.88 -6.04)"/><path class="cls-18" d="M86.22,137.84l-.37.08s.1,0,0,.1Z" transform="translate(-4.88 -6.04)"/><polygon class="cls-18" points="81.51 131.7 81.34 131.8 81.48 131.76 81.51 131.7"/><path class="cls-18" d="M88.16,137.33a2.73,2.73,0,0,1,.48-.27l-.61.23S88,137.43,88.16,137.33Z" transform="translate(-4.88 -6.04)"/><path class="cls-18" d="M87.4,137.59l0,0S87.39,137.57,87.4,137.59Z" transform="translate(-4.88 -6.04)"/><polygon class="cls-18" points="85.56 130.15 85.52 130.15 85.53 130.17 85.56 130.15"/><path class="cls-18" d="M88,137.29a.8.8,0,0,0-.32.15l.36-.15S88,137.26,88,137.29Z" transform="translate(-4.88 -6.04)"/><path class="cls-18" d="M89.29,136.9,89,137C89.1,137,89.28,136.94,89.29,136.9Z" transform="translate(-4.88 -6.04)"/><path class="cls-18" d="M87.49,137.58h0C87.53,137.59,87.52,137.59,87.49,137.58Z" transform="translate(-4.88 -6.04)"/><path class="cls-18" d="M87.49,137.58a1.41,1.41,0,0,0,.18-.14l-.24.13Z" transform="translate(-4.88 -6.04)"/><path class="cls-18" d="M90.63,135.32c0,.1-.3.37-.67.45s.07.41.44.42c0,0,0-.08.27-.3-.14,0-.79.27-.55.05.41-.27.37-.16.61-.22-.23,0,.43-.49.25-.59l-.33.29S90.74,135.27,90.63,135.32Z" transform="translate(-4.88 -6.04)"/><path class="cls-18" d="M89.76,136.52l-.13.08a2.25,2.25,0,0,1,.54-.13c.2-.16.23-.22.23-.26l-.68.35Z" transform="translate(-4.88 -6.04)"/><path class="cls-18" d="M89,136.89c.07-.15.39-.33.13-.35-.41.18-.25.2-.48.35.66-.31-.17.14.34,0l-.35.18L89,137h0s0,0,0,0h0a.09.09,0,0,1,0-.05c.21-.06,0,0,0,.05v0h0c.21-.12.44-.22.64-.36Z" transform="translate(-4.88 -6.04)"/><path class="cls-18" d="M85.41,137.61h0S85.5,137.59,85.41,137.61Z" transform="translate(-4.88 -6.04)"/><path class="cls-18" d="M85.72,137.59a.55.55,0,0,1-.25.12c-.15,0,0-.05,0-.09s-.32.17,0,.14l0,0a1.49,1.49,0,0,1,.64,0A1,1,0,0,0,85.72,137.59Z" transform="translate(-4.88 -6.04)"/><path class="cls-18" d="M87.37,137.27c.18-.09.37-.16.55-.26l-.32,0,0,.05C87.3,137.17,87.4,137.21,87.37,137.27Z" transform="translate(-4.88 -6.04)"/><polygon class="cls-18" points="85.65 130.17 85.63 130.3 85.87 130 85.65 130.17"/><polygon class="cls-18" points="86.33 129.76 86.36 129.86 86.51 129.69 86.33 129.76"/><path class="cls-18" d="M68.8,117l-.16.07Z" transform="translate(-4.88 -6.04)"/><path class="cls-18" d="M70,116.71l0-.06S70,116.71,70,116.71Z" transform="translate(-4.88 -6.04)"/><path class="cls-18" d="M92.59,119.44c-.14-.25-.32-.51-.35-.41v.13A1,1,0,0,1,92.59,119.44Z" transform="translate(-4.88 -6.04)"/><path class="cls-18" d="M80.15,115.62l.07,0,.18-.09Z" transform="translate(-4.88 -6.04)"/><path class="cls-18" d="M79.93,116l-.32-.1A1.53,1.53,0,0,0,79.93,116Z" transform="translate(-4.88 -6.04)"/><path class="cls-18" d="M62.73,119.75l-.1.19C62.88,119.78,62.74,119.8,62.73,119.75Z" transform="translate(-4.88 -6.04)"/><path class="cls-18" d="M96.61,129.68a4.18,4.18,0,0,0,.22-.55C96.69,129.39,96.54,129.58,96.61,129.68Z" transform="translate(-4.88 -6.04)"/><path class="cls-18" d="M69,115.75c-.1,0-.14.08-.13.1S69,115.77,69,115.75Z" transform="translate(-4.88 -6.04)"/><path class="cls-18" d="M97,128.46l0,.12a5.07,5.07,0,0,1-.12.55A1,1,0,0,0,97,128.46Z" transform="translate(-4.88 -6.04)"/><path class="cls-18" d="M67.69,136.59l0,0S67.73,136.6,67.69,136.59Z" transform="translate(-4.88 -6.04)"/><path class="cls-18" d="M74.59,139.06l-.3,0A1.35,1.35,0,0,0,74.59,139.06Z" transform="translate(-4.88 -6.04)"/><path class="cls-18" d="M93.83,133.91c-.12.12,0,0,0,0Z" transform="translate(-4.88 -6.04)"/><path class="cls-18" d="M92.93,134.13a.09.09,0,0,0,0-.08A.08.08,0,0,1,92.93,134.13Z" transform="translate(-4.88 -6.04)"/><path class="cls-18" d="M96.38,126.73v0C96.36,126.76,96.37,126.75,96.38,126.73Z" transform="translate(-4.88 -6.04)"/><path class="cls-18" d="M93.61,134.05a1,1,0,0,0,.18-.13Z" transform="translate(-4.88 -6.04)"/><path class="cls-18" d="M93.67,134.06l-.12.1S93.57,134.18,93.67,134.06Z" transform="translate(-4.88 -6.04)"/><path class="cls-18" d="M94,133.74a1.68,1.68,0,0,1-.21.18s0,0,0,0Z" transform="translate(-4.88 -6.04)"/><path class="cls-18" d="M57.94,128.77v0C58,128.94,58,128.88,57.94,128.77Z" transform="translate(-4.88 -6.04)"/><polygon class="cls-18" points="83.46 112.21 83.48 112.21 83.46 112.2 83.46 112.21"/><path class="cls-18" d="M87.79,118.09a.72.72,0,0,1,.55.15l0-.36Z" transform="translate(-4.88 -6.04)"/><path class="cls-18" d="M66,118c.14,0,.27,0,.41-.06-.39.33-.73.42-.33.4-.09-.37,1.43-.56,1.38-.9l.27,0c-.08,0-.08,0-.15.06.53,0,.29-.35,1-.48.23,0,.4,0,.26,0l.48-.22c.14,0,.12,0,0,.06.25-.08.5-.14.76-.2h0a3.3,3.3,0,0,1,.45-.26c.2,0-.1,0,0,.08l.42-.17c.19,0-.15.21-.45.26.47.26.34-.18,1.25-.12l-.41.1c.3.15.61,0,1.08.09-.11,0-1-.17-.51-.32a1.11,1.11,0,0,0,.56-.11c0,.12.26.06.57,0v.16c.33-.1.29-.16.49-.25a.58.58,0,0,1,.56.2c.6,0-.43-.17.28-.25a6.59,6.59,0,0,0,1.45-.18c.36,0,0,.1.07.15l.31-.14c.08,0,.06,0,0,.06.27,0,0-.16.44-.21.12-.19.85.26,1.37.09.12,0-.07.1,0,.16a9.81,9.81,0,0,0,1.2-.21l.49.15c-.36-.16.12-.25.54-.32l-.3-.17.67,0c.07,0,0,.09-.12.14l.13,0c.23.08.09.16-.08.23l-.23-.12c-.17.08-.33.17-.31.27a.65.65,0,0,1,.22,0s-.07,0-.06.06.09,0,.21,0l.12.19,0-.07a8.3,8.3,0,0,1,.82.22,6.29,6.29,0,0,1,2.17-.12c-.27.07-.1.19-.15.34-.22-.23-.74-.1-1.23-.2.26.06.19.12.12.14.3,0,.6,0,.9,0,0,.12.16.13.38.23-.12-.28.68,0,1.06,0,0,.08-.11.15-.54,0,.43.29.69-.14,1.11.15-.1,0-.16,0-.21,0,.26,0,.84.23.68.26l-.11,0c.69.2,2,.73,2.24.56a1.79,1.79,0,0,1-.24.23,14.15,14.15,0,0,1,1.46-.14c-.18.12,0,.69-.55.54a2.26,2.26,0,0,0,.67.3c-.09-.08-.15-.36,0-.31a8.52,8.52,0,0,0,.61.63c-.13-.11.17-.27.41-.13-.06,0-.12.26-.22.24l.74.08c-.18,0-.15.2-.06.34,0-.09.48.33.65.4l-.2-.21c.6.47.87.07,1.46.58-.11,0-.4.14-.12.41A2.65,2.65,0,0,1,94,121l0,.16.45.32c-.42-.1-1.36-.46-1.86-.61.18.23,0,.11.32.4,0,.16-.23-.08-.34-.15a8.81,8.81,0,0,1,.66.71c.09-.15.65.41.71.31a8.82,8.82,0,0,0-.86-.65c.06-.14.82.07,1.23.67.06.18-.32.08-.35.13a1.89,1.89,0,0,1,.5.52l-.25-.17a1.16,1.16,0,0,0,.37.36.94.94,0,0,1,.29.5c.07.14,0,.51.16.48,0-.3.52-.65.74-.56a4,4,0,0,1,.21,1.11c0,.31-.49-.24-.52,0,0,0,.15.11.19.16s-.16,0,0,.31c.19,0,.17.72.19.12a6.45,6.45,0,0,1,.16.79c0-.08.15,0,.28.14a1.69,1.69,0,0,1,.23.55s-.09.07-.12.12l0,.51c0,.16-.05.3-.07.44s-.07.56-.15.91c-.06,0-.2.36-.23.21a1.22,1.22,0,0,1,0,.41c-.25.36.1-.46-.15-.21.08.05,0,.58-.08.87.08,0,.18-.17.22-.37s0-.44.06-.6c.18,0,.34.66.07,1.4-.21.59-.23.18-.25.3a3.24,3.24,0,0,0-.39,1,1.22,1.22,0,0,1-.47.77c-.35.21-.22-.15-.35-.15.28-.39.51-.55.69-.83l-.27.31a1.58,1.58,0,0,1,.32-.58,12.23,12.23,0,0,1-1.82,2c-.08.14-.24.36-.11.31l.18-.2c.26-.1-.27.46,0,.26-.11.16-.22.33-.36.5a2.85,2.85,0,0,1-.55.46l-.17-.06s.32-.14.41-.27c-.13.19-.76.33-.83.64l.36-.14a3,3,0,0,1-1,.89c.27,0,.08-.07.47-.1-.19,0,.07-.17.3-.33s.43-.33.18-.28c.39,0,.52-.29,1-.44,0,0-.18,0,.13-.21l0-.09,0,0h0s0,0,0,0a.48.48,0,0,1-.2.09c.07-.23.53-.66.64-.85s0,.11.1.06l.17-.28c.1.06.54-.36.23.12l.33-.39a2.46,2.46,0,0,0,.64-.74c.15-.19.22-.59.18-.36L96,131h0c.17-.37.3-.76.45-1.16a5.53,5.53,0,0,1,.43-1.26,5.62,5.62,0,0,1,.06-1l.11-.09a4,4,0,0,0-.06-1.21c.25-.42-.27-1.72-.51-2.27l-.13,0a3.38,3.38,0,0,0-.27-.58l-.41-.57-.08.08c-.28-.34-.56-1-1-1.51.06,0,.16.15.22.27a2.23,2.23,0,0,0-.84-1,7.31,7.31,0,0,1-.91-.8.91.91,0,0,1-.34-.29l0,0,0,0-.17-.21a.94.94,0,0,0,.14.18,3.66,3.66,0,0,0-.48-.31v-.15l0,0c-.15-.15-.17,0-.13.09a1.3,1.3,0,0,0-.27-.1c0-.25-.49-.25-.57-.55-.17,0-1-.46-1.16-.33,0,0,0-.07.06,0a1.71,1.71,0,0,0-.59-.32l0-.18-.55,0c-.24-.21-.33-.32,0-.3a9,9,0,0,0-1.22-.26l.06-.08c-.21-.08-.59-.08-.69-.2a19.39,19.39,0,0,0-3.55-1.25c.19.34-.55-.26-.65,0-.06-.08-.23-.15,0-.17-.66,0-1-.27-1.44-.16-.06-.08.16-.07.1-.13s-.22,0-.28,0,.1,0,.21-.06c-.66-.1-.76.13-.83.31a.86.86,0,0,0-.75,0c-.11-.08-.3-.17.11-.15-.23,0-1.41-.23-1.45-.05a.7.7,0,0,0-.38,0c-.52,0-.57-.05-1.08-.06l.14,0c-.21.18-.43,0-.84.07v0c-1-.12-.4.07-1.34-.07l0,.12c-.07.25-.83-.09-1.37,0l.2.05c-.28.12-.86-.3-1.16-.28-.07,0,.1-.05.19-.08-.8,0-.09.17-.66.29-.12-.07.11-.23-.28-.19-.21,0-1.1.42-1.65.39.13,0,.26.08,0,.18s-1.16,0-1.47.28c0,0-.08,0-.08,0a6.35,6.35,0,0,0-1.13.52c-.41-.31-1.8.83-1.92.48l-.9.4v0a1.77,1.77,0,0,0-.9.59c-.14,0-.06,0-.06-.06a3.08,3.08,0,0,0-1.48,1l-.13-.06a4.33,4.33,0,0,1-.76.42,5.74,5.74,0,0,0-1.09.85.18.18,0,0,1,0-.1,12.13,12.13,0,0,1-1.25,1.1c-.39.39-.69.75-.63,1-.11.19-.19.42-.28.62.49-.71.09.22.34,0-.15.3-.58.67-.37.3l0,0c-.06-.13-.22.09-.39.33s-.26.54-.33.49a7.84,7.84,0,0,0-.65,5l.13-.23.13.56c0,.16-.09.24-.18-.17a.78.78,0,0,0,.31.64c.24.76-.32-.22-.23,0l.14.31v-.08a1.59,1.59,0,0,1,.44.67c.1.3,0,.19,0,.3s0,.05.09.17l.36.63,0-.32c.23.23.34.57.31.2a3.55,3.55,0,0,0,.82,1.31c.44.46.89.87,1,1a5.45,5.45,0,0,1,1.14.81c-.08-.11-.05-.27.31,0-.34.18.6.58.78,1-.21-.29,1.16.62.82.17.32.21,0,.12.17.33.43.18.87.42,1.34.66a7.88,7.88,0,0,0,1.5.68s-.12-.16.12-.14l.48.42c.22,0,.28-.16.62.09,0-.05-.11-.12,0-.1,2,.9,4.36.95,6.53,1.54-.29-.12-.09-.11.14-.09-.15,0,0-.1,0-.17a7.58,7.58,0,0,0,.91.23c.18-.15,1,0,1.1-.12L76,139c.39-.17-.53-.44-.46-.68-.45.21-1.1-.37-1.83-.15-.15-.06.14-.06.07-.13a1.18,1.18,0,0,1-.8,0l0,0a10.65,10.65,0,0,1-1.35-.25c-.41-.09-.83-.21-1.43-.39l.07.13a1.33,1.33,0,0,1-.42-.18c-.35.1.73.18.41.31a2.65,2.65,0,0,0-1.06-.37c-.43-.14-.86-.28-.93-.44-.4-.12.07.16-.32,0l-.09-.1-.13.06c-.25-.09-.35-.23-.34-.29l.25.06a6.31,6.31,0,0,0-1-.38l.35.18a11.43,11.43,0,0,1-1.68-.66c-.57-.24-1.11-.51-1.61-.72l0,.09c-.78-.31-.55-.38-1.33-.84h0a1.81,1.81,0,0,1-.6-.31c.21.09-.26-.38,0-.24-.75-.48-.39-.21-1-.43l0-.16a1.14,1.14,0,0,1-.58-.36c.32.21-.1-.3.26-.08-.53-.78-1.08-.91-1.12-1.43-.48-.18.39.73.19.57.07.22-.37-.16-.54-.42s0-.62-.39-1.24c0,.06,0,.06.09.12-.1-.26-.32-.44-.36-.8-.22-.11-.16-.4-.37-.39l.31.62a2.16,2.16,0,0,1-.6-1.28,1.6,1.6,0,0,1,.2.34c0-.2-.12-.34-.11-.55.23,0,.19.81.54,1.13a1.16,1.16,0,0,0-.18-.4c0-.13-.07-.22.05-.15-.31-.22-.18-.69-.41-1.15l.12,0a1.73,1.73,0,0,1-.1-.37l.18.24c-.16-.38,0-.75,0-1.12-.06.78-.17.17-.26.5a.9.9,0,0,1,.15-.78,2.05,2.05,0,0,0,.32-.82c0,.14-.22.51-.21.28a2,2,0,0,1,.29-.55c.16-.7-.15.07-.14-.25.19-.2.08-.35.16-.68l.11,0c.43-.72-.18-.34.31-1l0,.35.18-.35.07.14a1.91,1.91,0,0,1,.51-.84c-.13,0-.14-.18.11-.48s0,.19.32-.24a.44.44,0,0,1-.26.42s0,.13,0,.18a3.11,3.11,0,0,0,.58-.67.92.92,0,0,1-.15.14,5.79,5.79,0,0,1,.42-.67c.12,0,.08,0,0,.13.11-.12.15-.23.31-.4,0,.11.1.18-.1.44.15-.2.3-.4.46-.59.07,0,.38-.14.33-.06.36-.19.66-.79,1.19-1a.41.41,0,0,1,.14-.15,10.69,10.69,0,0,0,1.39-.79h.39c.4-.26-.53,0,.16-.41.51-.28.26,0,.47,0a2.09,2.09,0,0,1,1.15-.62C66.29,117.84,66.15,117.88,66,118Zm5.79-1.64c-.11,0-.33.15-.43.1C71.48,116.25,71.59,116.3,71.8,116.31ZM81,116a.7.7,0,0,1-.37-.07A.86.86,0,0,1,81,116Zm14,16.51v0C95.27,132.26,95.19,132.32,95,132.46Zm-.41.41c0,.06,0,.07,0,.06s.09-.15.19-.26C94.79,132.68,94.72,132.72,94.63,132.87ZM57.86,130.7l0-.11C58,130.79,57.93,130.74,57.86,130.7Z" transform="translate(-4.88 -6.04)"/><path class="cls-18" d="M80,116a.23.23,0,0,1,0-.07S79.86,116,80,116Z" transform="translate(-4.88 -6.04)"/><path class="cls-18" d="M62.75,119.71h0a0,0,0,0,0,0,0Z" transform="translate(-4.88 -6.04)"/><path class="cls-18" d="M95.47,124.76a.46.46,0,0,1,0-.22S95.41,124.6,95.47,124.76Z" transform="translate(-4.88 -6.04)"/><path class="cls-18" d="M92.49,135.08l.28-.25a1.21,1.21,0,0,1-.29.17S92.59,135,92.49,135.08Z" transform="translate(-4.88 -6.04)"/><path class="cls-18" d="M89.42,136.05s-.1,0-.14.09l0,0C89.51,136.08,89.63,136,89.42,136.05Z" transform="translate(-4.88 -6.04)"/><path class="cls-18" d="M92,135c-.08-.06-.25.08-.46.24l0,0C91.59,135.32,91.79,135.14,92,135Z" transform="translate(-4.88 -6.04)"/><path class="cls-18" d="M91.49,135.22l-.2.13C91.3,135.41,91.38,135.31,91.49,135.22Z" transform="translate(-4.88 -6.04)"/><path class="cls-18" d="M94.18,133.46c-.11.06,0,.14,0,.16C94.13,133.81,94.62,132.94,94.18,133.46Z" transform="translate(-4.88 -6.04)"/><polygon class="cls-18" points="86.75 128.74 86.89 128.8 86.95 128.64 86.75 128.74"/><path class="cls-18" d="M93.24,133.66l-.32.23s0,.06-.06.1C93.06,133.85,93.27,133.68,93.24,133.66Z" transform="translate(-4.88 -6.04)"/><path class="cls-18" d="M92.86,134a1.35,1.35,0,0,0-.24.22C92.67,134.16,92.79,134.07,92.86,134Z" transform="translate(-4.88 -6.04)"/><polygon class="cls-18" points="87.17 128.4 87.28 128.35 87.51 128.19 87.17 128.4"/><path class="cls-18" d="M95.85,130.27l.14-.41c0-.06-.09,0-.14.19S95.78,130.31,95.85,130.27Z" transform="translate(-4.88 -6.04)"/><path class="cls-18" d="M94.92,131.24a.37.37,0,0,1,.18-.1L95,131Z" transform="translate(-4.88 -6.04)"/><path class="cls-18" d="M95.48,130.15c0-.05.14-.59-.07-.11C95.43,130.09,95.3,130.49,95.48,130.15Z" transform="translate(-4.88 -6.04)"/><polygon class="cls-18" points="90.73 117.95 90.78 118.05 91 117.93 90.73 117.95"/><path class="cls-18" d="M91.51,120.25c.36.33.19-.06.49.28.13,0-.25-.29-.12-.25C91.61,120.14,91.49,120,91.51,120.25Z" transform="translate(-4.88 -6.04)"/><path class="cls-18" d="M91.88,120.28l.14.06Z" transform="translate(-4.88 -6.04)"/><polygon class="cls-18" points="70.93 133.21 71.27 133.27 71.05 133.18 70.93 133.21"/><path class="cls-18" d="M76.46,139.09l.08.17.2-.14A.64.64,0,0,1,76.46,139.09Z" transform="translate(-4.88 -6.04)"/><path class="cls-18" d="M72.73,116.51l0,0a.47.47,0,0,0-.28,0Z" transform="translate(-4.88 -6.04)"/><polygon class="cls-18" points="63.57 111.21 63.64 111.19 63.47 111.09 63.57 111.21"/><path class="cls-18" d="M65.12,118.68c.13-.05.28-.15.42-.2C65.26,118.63,65,118.53,65.12,118.68Z" transform="translate(-4.88 -6.04)"/></g></g><g id="Livello_3" data-name="Livello 3"><circle class="cls-26" cx="72.83" cy="72.83" r="70.87"/></g></svg>