<svg xmlns="http://www.w3.org/2000/svg" xmlns:xlink="http://www.w3.org/1999/xlink" viewBox="0 0 148.94 148.94"><defs><style>.cls-1,.cls-25,.cls-26{fill:none;}.cls-2{clip-path:url(#clip-path);}.cls-3{fill:#f5ad1f;opacity:0.8;}.cls-4{fill:#f5bbc5;}.cls-5{fill:#adadad;}.cls-6{fill:#3a3762;}.cls-7{fill:#bb745d;}.cls-8{fill:#5b5b5a;}.cls-13,.cls-9{fill:#3d3d3c;}.cls-10{fill:#3c3c3b;}.cls-11{fill:#a9b2bd;}.cls-12{fill:#eaeaea;}.cls-13{stroke:#b2b2b2;stroke-width:0.5px;}.cls-13,.cls-25,.cls-26{stroke-miterlimit:10;}.cls-14{fill:#f39200;}.cls-15{fill:#e94e1b;}.cls-16{fill:#063;}.cls-17{fill:#36a9e1;}.cls-18{fill:#312783;}.cls-19{fill:#f9b233;}.cls-20{fill:#be1622;}.cls-21{fill:#5d737b;}.cls-22{fill:#798c91;}.cls-23{fill:#87cdd3;opacity:0.5;}.cls-24{fill:#fff;}.cls-25{stroke:#1d1d1b;stroke-width:0.52px;}.cls-26{stroke:#eaeaea;stroke-width:4.37px;}</style><clipPath id="clip-path" transform="translate(-3.23 -2.82)"><circle class="cls-1" cx="77.73" cy="77.29" r="74.41"/></clipPath></defs><title>G08_19_05</title><g id="Marine"><g class="cls-2"><circle class="cls-3" cx="74.73" cy="73.05" r="70.87"/><path class="cls-4" d="M67.93,41.93V58.85s10,.37,19.07-.18l-.8-16.74Z" transform="translate(-3.23 -2.82)"/><path class="cls-5" d="M77.27,55.87a23.24,23.24,0,0,1-9.22-1.62l-.08.59,8.47,11.53,10-11.67v-.45A23.15,23.15,0,0,1,77.27,55.87Z" transform="translate(-3.23 -2.82)"/><path class="cls-4" d="M75.53,13.44C64.87,14.38,64,26.36,64.8,36.35S70.34,52.69,77.15,52.8,88.48,45.85,90,36.58,92.62,11.93,75.53,13.44Z" transform="translate(-3.23 -2.82)"/><path class="cls-6" d="M86.07,23.85s-1.38,5.15,2.05,6v5.53l.75.49s.43-2.18,1.62-2.79l2-8.71Z" transform="translate(-3.23 -2.82)"/><path class="cls-7" d="M77.37,53.28l-.74,0c-3.06-.23-7.92-4.71-7.69-4.9S74,52,76.71,52.2s8.31-3.64,8.52-3.44S80.27,53.28,77.37,53.28Z" transform="translate(-3.23 -2.82)"/><path class="cls-8" d="M115.63,62.53c-1.89-1.06-23.94-5.6-23.94-5.6l-1.28-8.2L86.52,47s0,2.46,0,7.48c0,.42-8.36,4.92-8.36,4.92S76.44,65,76.44,65.06c0-.1-1.75-5.83-1.75-5.83S68.05,55,68.05,54.61l-.12-7.85-3.34,1.92-1.68,7.5S39.32,67.62,37.43,68.67s-3.17,63.55-3.52,66.14l14,7.84,18.11,6,18.46,1,17-3.52,12.33-6.13-.25-44.87,1.72-8.22Z" transform="translate(-3.23 -2.82)"/><path class="cls-9" d="M50.88,144.19,48.62,92.58c-.32-7.28-4.32-14.37-7.77-19.74-.16-.24,8.55,8.17,8.82,19.69l3.39,52.58C53.07,145.37,50.9,144.48,50.88,144.19Z" transform="translate(-3.23 -2.82)"/><path class="cls-9" d="M102.3,146.49,105,111.57c-1-7.46,7.27-22.24,10.31-24.73,0,0-.53,2.54-1.71,9l.24,44.12Z" transform="translate(-3.23 -2.82)"/><path class="cls-6" d="M69.31,23.85s1.39,5.15-2,6v5.53l-.75.49s-.43-2.18-1.62-2.79l-2-8.71Z" transform="translate(-3.23 -2.82)"/><path class="cls-4" d="M66.83,34.25s0-4.09-3.4-3.07-.34,10.53,3.4,9.85S66.83,34.25,66.83,34.25Z" transform="translate(-3.23 -2.82)"/><path class="cls-4" d="M88.48,33.93s.53-4.05,3.77-2.6-1,10.48-4.64,9.33S88.48,33.93,88.48,33.93Z" transform="translate(-3.23 -2.82)"/><path class="cls-8" d="M93.23,26.3s-.23-2,2-5.43c2.86-4.4-8.13-9.5-16.92-9.5H76.89c-8.8,0-19.79,5.1-16.93,9.5,2.23,3.43,2,5.43,2,5.43Z" transform="translate(-3.23 -2.82)"/><path class="cls-10" d="M93.39,28.31c0,2-7,3.62-15.71,3.62S62,30.31,62,28.31c0,0,11.63-2,15.5-2S93.39,28.31,93.39,28.31Z" transform="translate(-3.23 -2.82)"/><path class="cls-11" d="M93.39,26.3s-11.94-2-15.93-2-15.5,2-15.5,2v2s11.63-2,15.5-2,15.93,2,15.93,2Z" transform="translate(-3.23 -2.82)"/><polygon class="cls-9" points="64.82 51.79 62.63 46.75 64.7 45.49 64.82 51.79"/><polygon class="cls-9" points="83.26 51.88 85.54 46.75 83.26 45.36 83.26 51.88"/><path class="cls-9" d="M64,58.16c-.1-.27,2.73,4.78,6.91,7l3.25-5.23L72.52,68.2A22,22,0,0,1,64,58.16Z" transform="translate(-3.23 -2.82)"/><path class="cls-9" d="M91.19,58.15c.12-.27-3.72,4.79-9.33,7l-3.25-5.23,1.66,8.29S88.91,63.34,91.19,58.15Z" transform="translate(-3.23 -2.82)"/><ellipse class="cls-12" cx="70.6" cy="60.79" rx="1.82" ry="1.01" transform="translate(-18.05 95.15) rotate(-64.26)"/><ellipse class="cls-12" cx="82.44" cy="60.96" rx="1.01" ry="1.82" transform="translate(-21.52 39.03) rotate(-25.74)"/><path class="cls-9" d="M73.87,150.32s-1.51-78.09,1.94-83.45c.16-.25.38,82.9.38,82.9C76.18,150,73.86,150.61,73.87,150.32Z" transform="translate(-3.23 -2.82)"/><path class="cls-9" d="M71.47,80.45S64.15,83.84,61.69,85c-2.46-1.15-9.76-4.58-9.78-4.54-.55.89,9.72,6.4,9.74,6.39h.08S72,81.34,71.47,80.45Z" transform="translate(-3.23 -2.82)"/><path class="cls-9" d="M102.49,80.45S95.16,83.84,92.71,85c-2.46-1.15-9.76-4.58-9.79-4.54-.54.89,9.73,6.4,9.74,6.39h.09S103,81.34,102.49,80.45Z" transform="translate(-3.23 -2.82)"/><circle class="cls-9" cx="58.46" cy="79.4" r="0.92"/><circle class="cls-9" cx="89.48" cy="79.4" r="0.92"/><rect class="cls-13" x="49.66" y="71.65" width="17.6" height="3.83"/><rect class="cls-14" x="79.87" y="73.29" width="2.27" height="2.61"/><rect class="cls-15" x="96.82" y="73.29" width="2.27" height="2.61"/><rect class="cls-16" x="94.55" y="73.29" width="2.27" height="2.61"/><rect class="cls-17" x="92.28" y="73.29" width="2.27" height="2.61"/><rect class="cls-18" x="82.14" y="73.29" width="7.87" height="2.61"/><rect class="cls-19" x="90.01" y="73.29" width="2.27" height="2.61"/><polygon class="cls-20" points="96.82 72.29 94.55 72.29 92.28 72.29 90.02 72.29 82.14 72.29 79.88 72.29 79.88 73.29 82.14 73.29 90.02 73.29 92.28 73.29 94.55 73.29 96.82 73.29 99.09 73.29 99.09 72.29 96.82 72.29"/><polygon class="cls-12" points="97.67 67.73 81.13 67.73 80.13 67.02 98.67 67.02 97.67 67.73"/><polygon class="cls-12" points="95.72 68.73 83.08 68.73 82.31 68.02 96.49 68.02 95.72 68.73"/><polygon class="cls-12" points="93.19 69.73 85.61 69.73 84.4 69.02 94.55 69.02 93.19 69.73"/><polygon class="cls-12" points="90.66 70.73 88.14 70.73 86.98 70.03 91.82 70.03 90.66 70.73"/><path class="cls-12" d="M90.1,69.07a2.71,2.71,0,0,1,5.41,0,4,4,0,0,0-1.14-.49,8.08,8.08,0,0,0-1.56.49,4.14,4.14,0,0,0-1.16-.49A7.94,7.94,0,0,0,90.1,69.07Z" transform="translate(-3.23 -2.82)"/><polygon class="cls-8" points="89.48 70.73 86.88 66.61 92.02 66.61 89.48 70.73"/><g id="_4" data-name="4"><polygon class="cls-21" points="72.15 102.52 71.73 97.68 66.18 97.92 66.59 102.76 72.15 102.52"/><polygon class="cls-21" points="75 135.99 74.58 131.15 69.03 131.38 69.45 136.22 75 135.99"/><path class="cls-22" d="M98.13,136.86,98,131.14a1.63,1.63,0,0,0-1.13-1.48l-2.73-1,.71,8.17,1.89.85A1,1,0,0,0,98.13,136.86Z" transform="translate(-3.23 -2.82)"/><polygon class="cls-22" points="68.13 134.94 65.09 99.73 67.84 99.61 70.87 134.82 68.13 134.94"/><path class="cls-21" d="M83.14,133.29c-2.5-.34-4.46,4.16-4.46,4.16l-4.58.2-3-35.21,3.59-.15a2.87,2.87,0,0,1,2.88,2.7L79,122.2,94.84,128a1.7,1.7,0,0,1,1.26,1.51l.45,6.64a1.46,1.46,0,0,1-2,1.56C90.23,135.84,84.7,133.5,83.14,133.29Z" transform="translate(-3.23 -2.82)"/><path class="cls-22" d="M82.17,125.62l10.66,3.06a2.2,2.2,0,0,1,1.54,2l.08,2.07a1.92,1.92,0,0,1-2.48,2c-3.09-1-8.13-2.56-10.6-3.29a2.23,2.23,0,0,1-1.53-2.05l-.07-1.82A1.92,1.92,0,0,1,82.17,125.62Z" transform="translate(-3.23 -2.82)"/><path class="cls-21" d="M77,112.41c2-.23,4.46.9,6.37,1.5,4.84,1.53,4.79,8.43,5.15,12.63l-2.67-1.48c.81,0-.28-4.46-.45-5-1.45-5.08-6.83-5.38-10.85-5.38C75.18,113.12,76,112.53,77,112.41Z" transform="translate(-3.23 -2.82)"/><path class="cls-21" d="M77.78,120.93a19.71,19.71,0,0,0,5.37-2.86.64.64,0,0,1,1,.64c-.19,2.44-3,3.85-5.6,4.86C75.43,124.76,77.78,120.93,77.78,120.93Z" transform="translate(-3.23 -2.82)"/><path class="cls-22" d="M78.26,131.72l-.77-9a1.69,1.69,0,0,0-1.76-1.54h0a1.69,1.69,0,0,0-1.62,1.84l.77,9a1.7,1.7,0,0,0,1.77,1.55h0A1.69,1.69,0,0,0,78.26,131.72Z" transform="translate(-3.23 -2.82)"/><polygon class="cls-22" points="73.17 113.82 71.93 99.44 70.26 99.51 71.5 113.89 73.17 113.82"/></g><rect class="cls-23" x="59.38" y="87.64" width="37.13" height="49.85"/><rect class="cls-20" x="59.38" y="92.58" width="37.13" height="1.57"/><path class="cls-23" d="M62.61,140.32h0V99.81h0c2.47,0,4.48,6.17,4.48,8.65v23.21C67.09,134.15,65.08,140.32,62.61,140.32Z" transform="translate(-3.23 -2.82)"/><path class="cls-23" d="M99.73,99.81h0v28h0c-2.47,0-4.48-7.42-4.48-9.89v-9.47C95.25,106,97.26,99.81,99.73,99.81Z" transform="translate(-3.23 -2.82)"/><rect class="cls-20" x="60.94" y="113.6" width="34.02" height="22.24" rx="2.27" ry="2.27"/><rect class="cls-24" x="62.78" y="118.86" width="30.48" height="15.46" rx="2.27" ry="2.27"/><line class="cls-25" x1="64.1" y1="121.33" x2="91.42" y2="121.33"/><line class="cls-25" x1="64.1" y1="123.41" x2="91.42" y2="123.41"/><line class="cls-25" x1="64.1" y1="125.49" x2="91.42" y2="125.49"/><line class="cls-25" x1="64.1" y1="127.57" x2="91.42" y2="127.57"/><line class="cls-25" x1="64.1" y1="129.65" x2="91.42" y2="129.65"/><line class="cls-25" x1="64.1" y1="131.73" x2="91.42" y2="131.73"/><path class="cls-24" d="M74.74,119.22h-.9v.59h1v.45H73.28v-2.45h1.51v.46h-1v.5h.9Z" transform="translate(-3.23 -2.82)"/><path class="cls-24" d="M75.83,120.26,75,117.81h.61l.3,1c.08.29.15.57.21.87h0c.07-.29.14-.58.23-.86l.31-1h.59l-.83,2.45Z" transform="translate(-3.23 -2.82)"/><path class="cls-24" d="M78.12,117.81v2.45h-.56v-2.45Z" transform="translate(-3.23 -2.82)"/><path class="cls-24" d="M78.6,117.84a5.21,5.21,0,0,1,.75,0,1.57,1.57,0,0,1,1,.27,1.08,1.08,0,0,1,.41.92,1.23,1.23,0,0,1-.41,1,1.76,1.76,0,0,1-1.12.31,4.64,4.64,0,0,1-.63,0Zm.55,2h.2a.75.75,0,0,0,.82-.85.7.7,0,0,0-.77-.78l-.25,0Z" transform="translate(-3.23 -2.82)"/><path class="cls-24" d="M82.58,119.22h-.9v.59h1v.45H81.13v-2.45h1.51v.46h-1v.5h.9Z" transform="translate(-3.23 -2.82)"/><path class="cls-24" d="M83.07,120.26v-2.45h.65l.5.9a5.38,5.38,0,0,1,.4.84h0c0-.33,0-.66,0-1v-.72h.51v2.45h-.58l-.53-1c-.14-.26-.3-.57-.42-.86h0c0,.33,0,.67,0,1.07v.74Z" transform="translate(-3.23 -2.82)"/><path class="cls-24" d="M87.38,120.19a1.61,1.61,0,0,1-.63.11,1.16,1.16,0,0,1-1.28-1.23,1.25,1.25,0,0,1,1.33-1.3,1.4,1.4,0,0,1,.6.11l-.11.44a1.14,1.14,0,0,0-.46-.09.81.81,0,0,0,0,1.61,1.46,1.46,0,0,0,.46-.08Z" transform="translate(-3.23 -2.82)"/><path class="cls-24" d="M89.2,119.22h-.9v.59h1v.45H87.74v-2.45h1.51v.46h-1v.5h.9Z" transform="translate(-3.23 -2.82)"/><path class="cls-8" d="M104.62,84.2l7.42,7-5.06.12s-1.2-1.06-4.55,2c-1.12,1-3.18,5-3.18,5,.1-.32,2.28,3,2.28,3a28.69,28.69,0,0,0-.6,3.32c3.3,6,27.41,3.18,35.06-.3,1.27-.58,4-4.93,4-4.93s-23.76-36-24.45-37Z" transform="translate(-3.23 -2.82)"/><path class="cls-4" d="M98.06,102.58s6.24-.6,7.09-2.24-1.05-8.28-1.05-8.28-4.06-3.24-5.48-3.69-6.75-.56-7.43,0-1.89,1.9-1.89,1.9l-5.91,1.09c-2.6.48-1.45,2-.6,2.43a23.17,23.17,0,0,0,3.56.76s-.63,2.54-.16,2.94l1.49,1.29a3,3,0,0,0-.35,1.94c.12.54,2.48,1.34,2.48,1.34s.92,1.62,1.31,1.75S98.06,102.58,98.06,102.58Z" transform="translate(-3.23 -2.82)"/></g><circle class="cls-26" cx="74.47" cy="74.47" r="72.28"/></g></svg>