<svg xmlns="http://www.w3.org/2000/svg" viewBox="0 0 185.79 175.16"><defs><style>.cls-1{isolation:isolate;}.cls-2{fill:#f18743;}.cls-3{fill:#f4aa82;}.cls-4{fill:#f09665;}.cls-19,.cls-5,.cls-6{fill:none;stroke-linecap:round;}.cls-5,.cls-6{stroke:#4d4a81;stroke-linejoin:round;}.cls-5{stroke-width:3.36px;}.cls-6{stroke-width:3px;}.cls-7{fill:#d9d9d9;mix-blend-mode:multiply;}.cls-8{fill:#f6bbc6;}.cls-9{fill:#4d4a81;}.cls-10{fill:#2fac66;}.cls-11{fill:#6673b6;}.cls-12{fill:#2b2e70;}.cls-13{fill:#575489;}.cls-14,.cls-15{fill:#1e1f42;}.cls-15{opacity:0.5;}.cls-16{fill:#f0c58a;}.cls-17{fill:#fdd6a9;}.cls-18{fill:#f7b46b;}.cls-19{stroke:#4d4471;stroke-miterlimit:10;}</style></defs><title>G08_16_03</title><g class="cls-1"><g id="Tiles"><polygon class="cls-2" points="185.79 117.64 185.79 122.39 96.32 175.16 96.32 170.41 185.79 117.64"/><polygon class="cls-3" points="96.32 170.41 96.32 175.16 0.22 119.43 0.22 114.68 96.32 170.41"/><polygon class="cls-4" points="96.1 170.43 0 114.7 0 114.43 90.31 62.53 185.79 117.66 96.25 170.52 96.1 170.43"/><path class="cls-5" d="M111.26,30.92a7.09,7.09,0,1,1,10,10" transform="translate(-6.21 -6.09)"/><path class="cls-6" d="M106.25,25.91a14.17,14.17,0,1,1,20,20.05" transform="translate(-6.21 -6.09)"/><path class="cls-6" d="M101.23,20.9A21.26,21.26,0,1,1,131.3,51" transform="translate(-6.21 -6.09)"/><path class="cls-6" d="M96.22,15.89A28.35,28.35,0,0,1,136.31,56" transform="translate(-6.21 -6.09)"/><ellipse class="cls-7" cx="92.55" cy="115.41" rx="56.69" ry="29.48"/></g><g id="Criminal"><path class="cls-8" d="M116.12,44.65s6,10.78,5.71,14.94A4.31,4.31,0,0,1,116,63.74c-1.95-.78-8.31-14.8-8.31-14.8l.13-3.77a5.06,5.06,0,0,1,4.54,2.08c1.82,2.47,4.29,10.26,4.29,10.26L114,44Z" transform="translate(-6.21 -6.09)"/><path class="cls-9" d="M102,115.49a3.63,3.63,0,0,0-.83,2.22c0,1.23.48,1.57.48,1.57a27.65,27.65,0,0,0,3.16.77c.69,0,1.83,1.13,3.48,1.24s3.75.62,4-.68c.14-.79-1.89-1.54-4.28-3.16a12.75,12.75,0,0,1-2.72-2.61Z" transform="translate(-6.21 -6.09)"/><path class="cls-9" d="M92.18,117.13S92,119,93,118.91A3.4,3.4,0,0,0,95,117.74l-.26,4.16s-.59,6.23-2.4,6.88c-1.31.47-1.88-1.17-2.09-2.13a4.38,4.38,0,0,1,0-1.2A32.43,32.43,0,0,1,92.18,117.13Z" transform="translate(-6.21 -6.09)"/><path class="cls-8" d="M95.5,96.24s1-16,.69-17.17-.69-7.73-.69-7.73L109.92,66l1.81,1.78S111.64,82,112,84.22s-6.56,30.62-6.56,30.62a1.9,1.9,0,0,1-1.89,1.19c-1.45-.07-1.35-1.13-1.35-1.13s2.25-20.55,2.25-21.58-.17-13.56-.17-13.56-2.06,10.3-2.75,14.76S95,117.74,95,117.74s-.19,1.75-1.49,2S92,118.36,92,118.36Z" transform="translate(-6.21 -6.09)"/><path class="cls-10" d="M113.78,83.61a9,9,0,0,1-9.61,7.54C95.6,90.89,92,86.21,92,86.21s3.5-15.75,3.5-16.79.92.17.92.17L110.59,67l1.75,3.92Z" transform="translate(-6.21 -6.09)"/><path class="cls-8" d="M102.43,114.45l2.79.39a12.75,12.75,0,0,0,2.72,2.61c.57.38,1.11.72,1.61,1a.76.76,0,0,1,0,.15c0,.36-.49.5-.86.53a13,13,0,0,1-5.17-1.13,2.65,2.65,0,0,1-1.17-.68,2,2,0,0,1-.4-1.18A2.39,2.39,0,0,1,102.43,114.45Z" transform="translate(-6.21 -6.09)"/><path class="cls-8" d="M94.16,120.77a22.53,22.53,0,0,1-.78,2.45.89.89,0,0,1-1.08.66c-.78-.23-.66-1-.74-1.56a17.65,17.65,0,0,1,.44-4.15c.27-1.42.14-1.56.71-1.54a3.25,3.25,0,0,1,1.56.39,1.55,1.55,0,0,1,.63.53c.15.29,0,.58-.1.89C94.59,119.21,94.37,120,94.16,120.77Z" transform="translate(-6.21 -6.09)"/><path class="cls-11" d="M101.84,46s4.83-1.18,7.17-.59a4.2,4.2,0,0,1,3.31,2.92,47,47,0,0,1,.81,5c.09,3.22-3.08,7-3.08,7l2.7,10.13S100.9,75.05,98,73.6c-3.1-1.55-3.35-3.3-3.25-4.15.06-.52,2-6.62,2-7.14l-1.58-8.77a5.59,5.59,0,0,1,2.31-4.39Z" transform="translate(-6.21 -6.09)"/><path class="cls-8" d="M116.94,43.41a2.1,2.1,0,1,1-2.1-2.1A2.1,2.1,0,0,1,116.94,43.41Z" transform="translate(-6.21 -6.09)"/><path class="cls-11" d="M93.2,54.66c-.07.18-.13.37-.18.55C93.07,55,93.13,54.84,93.2,54.66Z" transform="translate(-6.21 -6.09)"/><path class="cls-11" d="M97.72,57.71A4.69,4.69,0,0,0,96,55.19a6.94,6.94,0,0,0-1.74-.77l-.85-.31c-.08.18-.15.36-.22.54,1-2.61,3.45-5.35,5.49-6.15,2.19-.87,7.48,2,7.48,2,.57,1.37-6.63,7.21-6.63,7.21s-.62.82-1.44,2A9.15,9.15,0,0,0,97.72,57.71Z" transform="translate(-6.21 -6.09)"/><path class="cls-11" d="M88.21,83a1.42,1.42,0,0,1-.14-.16Z" transform="translate(-6.21 -6.09)"/><path class="cls-11" d="M107.81,45.17a5.06,5.06,0,0,1,4.54,2.08,10.23,10.23,0,0,1,1,1.77L112,57.64l0,0c-2.15-4.08-4.24-8.68-4.24-8.68Z" transform="translate(-6.21 -6.09)"/><path class="cls-8" d="M103.51,46s-2.08.58-2.28,1.07,1.36,2.72,3,3.93A10.71,10.71,0,0,0,107,52.56a9.06,9.06,0,0,0,1.84-5.43C108.76,44,103.51,46,103.51,46Z" transform="translate(-6.21 -6.09)"/><path class="cls-8" d="M109.11,41.45l-1.93,5.85h0a3.65,3.65,0,0,1-4.08.42h0a.9.9,0,0,1-.44-1L104.1,41Z" transform="translate(-6.21 -6.09)"/><path class="cls-12" d="M111.12,44.88l0,0-.23-.18.32-.58c.3-1.61,1.1-5.9,1.15-6.15a.63.63,0,0,1,.35-.42l2.67-1.11.16-.28.22.19c.09,0,.06.2.06.2l-1.27,6.74a.54.54,0,0,1-.1.23h0a.63.63,0,0,1-.24.19l-2.6,1.07-.28.12a.28.28,0,0,1-.17,0Z" transform="translate(-6.21 -6.09)"/><path class="cls-12" d="M114.46,42.14l-3.1.93c-.08.39-.14.74-.19,1l-.32.58.23.18,0,0h0a.28.28,0,0,0,.17,0l.28-.12,2.6-1.07a.63.63,0,0,0,.24-.19h0a.54.54,0,0,0,.1-.23c0-.07.08-.42.18-.92Z" transform="translate(-6.21 -6.09)"/><path class="cls-12" d="M115.78,36.51s0-.15-.06-.2l-.22-.19-.16.28,0,0,.2.21.23.18Z" transform="translate(-6.21 -6.09)"/><path class="cls-13" d="M111.35,44.56l2.59-1.07a.63.63,0,0,0,.35-.43c0-.3,1.26-6.74,1.26-6.74s.06-.31-.23-.19l-2.88,1.19a.63.63,0,0,0-.35.43c-.06.3-1.26,6.74-1.26,6.74s-.06.3.23.18Z" transform="translate(-6.21 -6.09)"/><polygon class="cls-14" points="104.79 37.48 105.83 31.96 109.28 30.54 108.25 36.05 104.79 37.48"/><path class="cls-14" d="M112.74,43.12c.09.07.05.27-.08.43s-.32.25-.41.17-.06-.27.08-.43S112.64,43.05,112.74,43.12Z" transform="translate(-6.21 -6.09)"/><path class="cls-14" d="M113.36,37.18s0,.06,0,.1-.08.06-.1,0,0-.06,0-.1S113.34,37.17,113.36,37.18Z" transform="translate(-6.21 -6.09)"/><path class="cls-14" d="M113.51,37.16s0,0,0,.05a0,0,0,0,1,0,0s0,0,0,0A0,0,0,0,1,113.51,37.16Z" transform="translate(-6.21 -6.09)"/><path class="cls-15" d="M114.19,36.88a0,0,0,0,1,0,0,.07.07,0,0,1,0,.05l-.57.23s0,0,0,0a.07.07,0,0,1,0-.05Z" transform="translate(-6.21 -6.09)"/><path class="cls-9" d="M108.43,34.18a4.54,4.54,0,1,1-4.54-4.53A4.53,4.53,0,0,1,108.43,34.18Z" transform="translate(-6.21 -6.09)"/><path class="cls-8" d="M112.39,38.73a5.69,5.69,0,1,1-5.69-5.68A5.68,5.68,0,0,1,112.39,38.73Z" transform="translate(-6.21 -6.09)"/><path class="cls-9" d="M111.32,37.4a1.38,1.38,0,0,0,.73-.49s0,0,0,0a5.68,5.68,0,0,0-11,1.86,4.74,4.74,0,0,0,.06.75,1.93,1.93,0,0,0,.76,0c.57-.14,2.12-1.49,1.7-2.18.21.33.41.67.62,1a1.4,1.4,0,0,0,.46-1.23A8.4,8.4,0,0,0,111.32,37.4Z" transform="translate(-6.21 -6.09)"/><path class="cls-8" d="M103.45,38.91a1.73,1.73,0,1,1-1.73-1.72A1.72,1.72,0,0,1,103.45,38.91Z" transform="translate(-6.21 -6.09)"/><polygon class="cls-16" points="88.29 67.95 98.46 73.86 99.71 83.1 94.1 85.63 81.9 77.88 82.58 68.63 84.81 67.44 86.55 66.98 88.29 67.95"/><polygon class="cls-17" points="98.46 73.86 95.72 74.97 93.71 75.51 94.1 85.63 99.71 83.1 98.46 73.86"/><polygon class="cls-18" points="93.71 75.51 82.58 68.63 81.9 77.88 94.1 85.63 93.71 75.51"/><path class="cls-14" d="M95.34,82.49c.07.45.33.79.59.75s.4-.44.34-.89-.34-.78-.59-.74S95.27,82,95.34,82.49Z" transform="translate(-6.21 -6.09)"/><path class="cls-14" d="M91.69,80.24c.06.45.33.78.58.74s.41-.43.34-.88-.33-.79-.59-.75S91.62,79.79,91.69,80.24Z" transform="translate(-6.21 -6.09)"/><path class="cls-19" d="M96.3,50.11s3.62-1.15,3.79,4c.12,3.88,1.49,25,1.49,25" transform="translate(-6.21 -6.09)"/><path class="cls-8" d="M91.59,84a2.1,2.1,0,1,1-2.1-2.09A2.1,2.1,0,0,1,91.59,84Z" transform="translate(-6.21 -6.09)"/><path class="cls-8" d="M88.07,82.84s.64-11.67.35-12.22S92.24,58,93,55.21a8.11,8.11,0,0,1,.4-1.1l.85.31a6.94,6.94,0,0,1,1.74.77,4.69,4.69,0,0,1,1.71,2.52,9.15,9.15,0,0,1,.38,2c-1.66,2.38-4.24,6.15-4.58,8-.91,5.07-2.47,12.86-3.51,15.59C89.52,84.64,88.07,82.84,88.07,82.84Z" transform="translate(-6.21 -6.09)"/></g></g></svg>