<svg xmlns="http://www.w3.org/2000/svg" xmlns:xlink="http://www.w3.org/1999/xlink" viewBox="0 0 145.65 145.65"><defs><style>.cls-1,.cls-15{fill:none;stroke:#f9b233;}.cls-1,.cls-15,.cls-2{stroke-miterlimit:10;}.cls-2{fill:#f5ad20;stroke:#eaeaea;stroke-width:3.92px;}.cls-3{fill:#cc8a13;}.cls-4{fill:#fff;}.cls-5{fill:#be1622;}.cls-6{fill:#1d1d1b;}.cls-7{fill:#231f20;}.cls-8,.cls-9{fill:#e20a17;}.cls-9{font-size:1.22px;font-family:Roboto-Condensed, Roboto;}.cls-10{letter-spacing:-0.06em;}.cls-11{letter-spacing:0em;}.cls-12{fill:#2b84c2;}.cls-13{fill:#1d71b8;}.cls-14{fill:#f9b233;}.cls-15{stroke-width:1.05px;}.cls-16{clip-path:url(#clip-path);}</style><clipPath id="clip-path" transform="translate(-5.13 -5.13)"><circle class="cls-1" cx="60.83" cy="90.36" r="15.23" transform="translate(-40.92 129.24) rotate(-76.96)"/></clipPath></defs><title>G08_03_01</title><g id="Mobile"><circle class="cls-2" cx="72.83" cy="72.83" r="70.87"/><rect class="cls-3" x="23.01" y="55.86" width="119.59" height="48.3" rx="1.45" ry="1.45" transform="translate(-26.74 123.41) rotate(-68.94)"/><rect class="cls-4" x="20.38" y="51.61" width="119.59" height="48.3" transform="translate(-24.45 118.23) rotate(-68.94)"/><rect class="cls-5" x="70.76" y="55.03" width="29.43" height="9.02" transform="translate(-5.92 112.79) rotate(-68.94)"/><rect class="cls-5" x="11.85" y="76.71" width="91.56" height="10.77" transform="translate(-44.82 101.25) rotate(-68.94)"/><rect class="cls-5" x="65.09" y="20.9" width="28.04" height="10.77" transform="translate(126.95 -43.22) rotate(111.06)"/><rect class="cls-5" x="103.44" y="39.23" width="28.04" height="3.64" transform="translate(192.85 -58.94) rotate(111.06)"/><rect class="cls-5" x="50.2" y="95.04" width="91.56" height="3.64" transform="translate(-34.03 146.5) rotate(-68.94)"/><rect class="cls-6" x="69.39" y="37.15" width="0.18" height="0.91" transform="translate(4.3 83.8) rotate(-68.94)"/><path class="cls-6" d="M114.15,54.71l-.06.16-.85-.32.06-.17Zm-1.7-.66-.06.17-.85-.33.06-.16Zm-1.7-.65-.06.16-.85-.32.06-.17Zm-1.7-.66-.06.17-.85-.33.06-.16Zm-1.7-.65-.06.16-.85-.32.06-.17Zm-1.7-.66-.06.17-.85-.33.06-.16Zm-1.7-.65-.06.16-.85-.32.06-.17Zm-1.7-.65-.06.16-.86-.33.07-.16Zm-1.7-.66-.07.16-.85-.32.07-.17Zm-1.7-.65-.07.16-.85-.33.07-.16Zm-1.7-.66-.07.17L96.23,48l.07-.17Zm-1.7-.65-.07.16-.85-.33.06-.16Zm-1.71-.66-.06.17-.85-.33.06-.17ZM92,46.2l-.06.16L91.13,46l.06-.16Zm-1.7-.66-.06.17-.85-.33.06-.17Zm-1.7-.65-.06.16-.85-.33.06-.16Zm-1.7-.66-.06.17L86,44.07l.06-.17Zm-1.7-.65-.06.16-.85-.33.06-.16Zm-1.7-.66-.06.17-.85-.33.06-.17Zm-1.7-.65-.06.16-.85-.33.06-.16Zm-1.7-.66-.07.17-.85-.33.07-.17ZM78.44,41l-.07.16-.85-.33.07-.16Zm-1.7-.66-.07.17-.85-.33.07-.16ZM75,39.65l-.07.16-.85-.33.07-.16ZM73.33,39l-.06.17-.85-.33.06-.16Zm-1.7-.65-.06.16-.85-.32.06-.17Z" transform="translate(-5.13 -5.13)"/><path class="cls-4" d="M47.13,103.5a.57.57,0,0,0-.42.32l0,0-.14.06a.84.84,0,0,0-.29.25,2.47,2.47,0,0,0-.32.77l-.14,0v0h.12s0,.1-.07.29-.7,4.18-.7,4.18-2,2.56-2.2,2.84a1.57,1.57,0,0,1-.53.46c-.08,0-.54.15-.67.22s-.09.15-.09.15.44,0,.75-.05.6-.35.79-.54l.63-.67s0,.12,0,.14l0,.12,0,0a.87.87,0,0,0,.13-.52c.22-.22.43-.45.59-.63a1,1,0,0,0,.06.26l0,0a1.15,1.15,0,0,0,.14-.51l.07-.08L44.7,112l-.06,0a0,0,0,0,0,0,0h.06l-.06.34a.65.65,0,0,1-.38.34l-1.64.59c-.18,0-.19.26-.19.26l-.05.35,2,.32s-.76,1.11-.81,1.22a1.57,1.57,0,0,0-.05.34l1-1a.92.92,0,0,0,.06.25.13.13,0,0,0,.11.06.08.08,0,0,0,.08,0l.64-1.17s.17-.12.18-.16,0-.27,0-.27a9.06,9.06,0,0,0,1-3.06,4.93,4.93,0,0,0,.3-.67c0-.08.08-.4.15-.78,0,0,0,.09,0,.1h0s.09-.17.13-.6l.15-.11a1.58,1.58,0,0,0,0,.28l0,0a1,1,0,0,0,0-.11l.08-.34.14-.12s0,.21,0,.23v0h0a1.27,1.27,0,0,0,.1-.45.32.32,0,0,0,.2-.2.19.19,0,0,0,.08,0,3.26,3.26,0,0,0,.25-1.07s.07-.31-.42-.39-.51.11-.59.59a.16.16,0,0,0-.06.12c0,.09-.07.43-.07.43h-.07a2.38,2.38,0,0,0,0-.35c.08-.38.35-2.15.35-2.15C47.51,104.12,47.41,103.48,47.13,103.5Zm-.73,1a1.66,1.66,0,0,1,0,.16s0,0,0,0l-.08-.08a.31.31,0,0,1,0-.08h0a1.28,1.28,0,0,1,0-.13h0l.11.11Zm.08-.32c0,.08,0,.15,0,.21l0,.06h0l-.11-.11h0l0,0,0-.07h0l.13,0Zm.17-.3s0,.09-.08.14l-.07.11h0l-.14,0a.3.3,0,0,0,0-.08.77.77,0,0,0,.09-.13l0,0h0l.15-.07Z" transform="translate(-5.13 -5.13)"/><path class="cls-4" d="M47.25,115.4l-.2.52.69.27-.12.31L46,115.87l.36-.94.25.1-.24.62.46.18.2-.53Z" transform="translate(-5.13 -5.13)"/><path class="cls-4" d="M47.88,115.08l.23-.61.25.1-.36.93-1.64-.63.12-.32Z" transform="translate(-5.13 -5.13)"/><path class="cls-4" d="M47.56,113.89h0l-.61-.56.14-.34.87.88.59.23-.13.32-.6-.24-1.22.07.13-.34Z" transform="translate(-5.13 -5.13)"/><path class="cls-4" d="M48.87,113.25l-.12.32-1.65-.63.12-.32Z" transform="translate(-5.13 -5.13)"/><path class="cls-4" d="M49.38,111.93l-.12.32-1.26.12h0l1,.41-.12.31-1.65-.63.13-.32,1.25-.11h0l-1-.41.12-.31Z" transform="translate(-5.13 -5.13)"/><path class="cls-4" d="M49.64,110.61a.54.54,0,0,1,.09.26.91.91,0,0,1-.06.38.67.67,0,0,1-.32.36.58.58,0,0,1-.5,0l-.5-.19a.62.62,0,0,1-.38-.32.57.57,0,0,1,0-.48.63.63,0,0,1,.28-.36.56.56,0,0,1,.42,0h0l-.11.3a.27.27,0,0,0-.21,0,.22.22,0,0,0-.13.15.28.28,0,0,0,0,.22.42.42,0,0,0,.24.17l.5.2a.51.51,0,0,0,.29,0,.27.27,0,0,0,.16-.17.49.49,0,0,0,0-.15.31.31,0,0,0,0-.11l-.33-.13L49,111l-.22-.08.22-.57Z" transform="translate(-5.13 -5.13)"/><path class="cls-4" d="M50.5,109l-.12.31-.69-.26-.2.53.68.26-.12.32-1.64-.63.12-.32.71.27.2-.53-.71-.27.12-.32Z" transform="translate(-5.13 -5.13)"/><path class="cls-4" d="M50.68,108.54l-.12.32-1.65-.63.13-.32Z" transform="translate(-5.13 -5.13)"/><path class="cls-4" d="M51,107.2a.54.54,0,0,1,.09.27.89.89,0,0,1-.06.37.66.66,0,0,1-.32.37.67.67,0,0,1-.5,0l-.5-.2a.62.62,0,0,1-.38-.32.61.61,0,0,1,0-.48.64.64,0,0,1,.28-.35.48.48,0,0,1,.42,0h0l-.11.3a.32.32,0,0,0-.21,0,.28.28,0,0,0-.13.15.26.26,0,0,0,0,.23.49.49,0,0,0,.23.17l.5.19a.51.51,0,0,0,.29,0,.27.27,0,0,0,.16-.17.34.34,0,0,0,0-.15.35.35,0,0,0,0-.11l-.33-.12-.1.25-.22-.09.22-.57Z" transform="translate(-5.13 -5.13)"/><path class="cls-4" d="M51.66,106l-.12.32-.69-.26-.2.53.68.26-.12.32-1.64-.63.12-.32.71.27.2-.53-.71-.27.12-.32Z" transform="translate(-5.13 -5.13)"/><path class="cls-4" d="M62.39,76.63l-2.84-1.1.31-.81a1.23,1.23,0,0,1,.46-.62.77.77,0,0,1,.68,0,.75.75,0,0,1,.32.23.56.56,0,0,1,.13.35.6.6,0,0,1,.37-.26.82.82,0,0,1,.46,0,.88.88,0,0,1,.53.48,1,1,0,0,1-.05.75ZM61,75.45l.11-.29a.35.35,0,0,0-.23-.51.41.41,0,0,0-.34,0,.44.44,0,0,0-.21.26l-.1.26Zm.38.14.83.32.16-.4a.37.37,0,0,0,0-.31.44.44,0,0,0-.26-.21.55.55,0,0,0-.35,0,.31.31,0,0,0-.21.21v0Z" transform="translate(-5.13 -5.13)"/><path class="cls-4" d="M63,72a1.14,1.14,0,0,1,.68.58,1.12,1.12,0,0,1,0,.86,1.09,1.09,0,0,1-.57.65,1.15,1.15,0,0,1-.89,0l-.8-.31a1.12,1.12,0,0,1-.67-.58,1.07,1.07,0,0,1,0-.86,1.06,1.06,0,0,1,.58-.64,1.14,1.14,0,0,1,.89,0Zm-1,.24a.73.73,0,0,0-.51,0,.45.45,0,0,0-.3.3.44.44,0,0,0,0,.42.79.79,0,0,0,.42.3l.8.31a.83.83,0,0,0,.52.06.53.53,0,0,0,.28-.73.86.86,0,0,0-.43-.3Z" transform="translate(-5.13 -5.13)"/><path class="cls-4" d="M64,70.54l-.28.71.56.4-.22.57-2.54-1.9.22-.57,3.16.29-.23.58Zm-.67.43.19-.48-1-.11h0Z" transform="translate(-5.13 -5.13)"/><path class="cls-4" d="M64.09,68.82l1.14.44-.22.55-2.84-1.09.33-.85a1,1,0,0,1,.48-.58.83.83,0,0,1,.71,0,.8.8,0,0,1,.34.25.74.74,0,0,1,.14.39.58.58,0,0,1,.37-.22.9.9,0,0,1,.47.07l.21.08.26.07a.42.42,0,0,0,.23,0l0,0-.22.57a.38.38,0,0,1-.24,0L65,68.4l-.2-.08a.55.55,0,0,0-.37,0,.35.35,0,0,0-.22.21Zm-.43-.16.11-.3a.34.34,0,0,0,0-.31.5.5,0,0,0-.27-.21.54.54,0,0,0-.35,0,.37.37,0,0,0-.22.22l-.11.3Z" transform="translate(-5.13 -5.13)"/><path class="cls-4" d="M65.86,67.61,63,66.51l.34-.87A1,1,0,0,1,64,65a1.29,1.29,0,0,1,1,0l.47.18a1.29,1.29,0,0,1,.74.62,1,1,0,0,1,0,.86Zm-2.19-1.48,2,.76.12-.32a.41.41,0,0,0-.08-.43,1.1,1.1,0,0,0-.49-.34l-.48-.18a1.06,1.06,0,0,0-.59-.08.41.41,0,0,0-.34.26Z" transform="translate(-5.13 -5.13)"/><path class="cls-4" d="M67,64.74l-.21.55-2.84-1.1.21-.55Z" transform="translate(-5.13 -5.13)"/><path class="cls-4" d="M67.92,62.25l-.21.55L65.55,63h0l1.81.7-.21.55-2.84-1.1.21-.55,2.16-.2h0l-1.81-.7.21-.55Z" transform="translate(-5.13 -5.13)"/><path class="cls-4" d="M68.45,59.77a1,1,0,0,1,.16.46,1.29,1.29,0,0,1-.11.64,1,1,0,0,1-1.42.62l-.86-.33a1.11,1.11,0,0,1-.66-.56,1,1,0,0,1,0-.82,1.06,1.06,0,0,1,.49-.62.84.84,0,0,1,.71,0h0l-.2.52a.47.47,0,0,0-.36,0,.44.44,0,0,0-.21.26.41.41,0,0,0,0,.39.72.72,0,0,0,.4.29l.86.33a.78.78,0,0,0,.5.06.45.45,0,0,0,.28-.29.83.83,0,0,0,.06-.27.34.34,0,0,0,0-.18L67.51,60l-.16.43L67,60.33l.37-1Z" transform="translate(-5.13 -5.13)"/><path class="cls-4" d="M68.5,57.69l1,.39-.21.55-2.84-1.09.36-.95a1,1,0,0,1,.51-.58,1,1,0,0,1,.76,0,1,1,0,0,1,.56.5,1,1,0,0,1,0,.78Zm-.43-.17.15-.4a.35.35,0,0,0,0-.33.6.6,0,0,0-.3-.23.64.64,0,0,0-.38,0,.35.35,0,0,0-.25.22l-.15.41Z" transform="translate(-5.13 -5.13)"/><path class="cls-4" d="M69.94,55.18l-.27.71.55.39-.22.58L67.47,55l.22-.57,3.15.29-.22.57Zm-.66.43.19-.49-1-.11h0Z" transform="translate(-5.13 -5.13)"/><path class="cls-4" d="M70.67,52.91a.45.45,0,0,0-.3,0,1.13,1.13,0,0,0-.31.24,2.3,2.3,0,0,1-.6.53.77.77,0,0,1-.63,0,.75.75,0,0,1-.48-.47,1,1,0,0,1,0-.72,1,1,0,0,1,.49-.58.85.85,0,0,1,.73,0h0l-.2.53a.61.61,0,0,0-.37,0,.42.42,0,0,0-.23.24.36.36,0,0,0,0,.29.48.48,0,0,0,.23.19.39.39,0,0,0,.28,0,1.29,1.29,0,0,0,.33-.27,1.94,1.94,0,0,1,.59-.49.84.84,0,0,1,.64,0,.73.73,0,0,1,.48.47,1.07,1.07,0,0,1,0,.74,1.23,1.23,0,0,1-.49.6.86.86,0,0,1-.8,0h0l.21-.53a.59.59,0,0,0,.42,0,.43.43,0,0,0,.24-.28.35.35,0,0,0,0-.3A.41.41,0,0,0,70.67,52.91Z" transform="translate(-5.13 -5.13)"/><path class="cls-4" d="M71.51,50.75a.46.46,0,0,0-.3,0,1.15,1.15,0,0,0-.32.24,1.94,1.94,0,0,1-.6.52.73.73,0,0,1-.63,0,.76.76,0,0,1-.47-.47,1,1,0,0,1,0-.72,1,1,0,0,1,.49-.58.85.85,0,0,1,.73,0h0l-.21.53a.61.61,0,0,0-.37,0,.38.38,0,0,0-.22.24.36.36,0,0,0,0,.29.55.55,0,0,0,.23.19.39.39,0,0,0,.28,0,1.3,1.3,0,0,0,.34-.27,1.68,1.68,0,0,1,.58-.49.84.84,0,0,1,.64,0,.73.73,0,0,1,.48.47,1.07,1.07,0,0,1,0,.74,1.17,1.17,0,0,1-.49.6.86.86,0,0,1-.8,0h0l.21-.53a.61.61,0,0,0,.43,0,.49.49,0,0,0,.24-.28.39.39,0,0,0,0-.3A.42.42,0,0,0,71.51,50.75Z" transform="translate(-5.13 -5.13)"/><path class="cls-4" d="M58.23,73.93l-.25.66.84.33-.1.26-1.9-.73.4-1,.21.08-.3.78.65.25.25-.67Z" transform="translate(-5.13 -5.13)"/><path class="cls-4" d="M59.32,73.61l-.1.26-1.89-.73.1-.26Z" transform="translate(-5.13 -5.13)"/><path class="cls-4" d="M58.76,72.64l.81.32-.1.26-1.89-.73.22-.55a.58.58,0,0,1,.3-.37.54.54,0,0,1,.45,0,.47.47,0,0,1,.33.44.35.35,0,0,1,.25-.15.56.56,0,0,1,.3,0l.17.06.17,0a.32.32,0,0,0,.14,0h0l-.11.27a.24.24,0,0,1-.15,0l-.19-.06-.16-.06a.4.4,0,0,0-.28,0,.29.29,0,0,0-.17.17Zm-.2-.07.1-.28a.31.31,0,0,0,0-.28.41.41,0,0,0-.21-.17.43.43,0,0,0-.29,0A.32.32,0,0,0,58,72l-.12.3Z" transform="translate(-5.13 -5.13)"/><path class="cls-4" d="M59.9,70.69a.33.33,0,0,0-.24,0,.6.6,0,0,0-.26.2,1.18,1.18,0,0,1-.37.32.43.43,0,0,1-.4,0,.47.47,0,0,1-.31-.3.57.57,0,0,1,0-.46.64.64,0,0,1,.32-.36.59.59,0,0,1,.47,0h0l-.09.26a.42.42,0,0,0-.31,0,.32.32,0,0,0-.19.19.27.27,0,0,0,0,.25.39.39,0,0,0,.19.17A.28.28,0,0,0,59,71a.74.74,0,0,0,.26-.21,1,1,0,0,1,.37-.31.49.49,0,0,1,.41,0,.51.51,0,0,1,.31.3.65.65,0,0,1,0,.47.73.73,0,0,1-.31.38.55.55,0,0,1-.5,0h0l.09-.26a.42.42,0,0,0,.33,0,.35.35,0,0,0,.19-.22.34.34,0,0,0,0-.26A.36.36,0,0,0,59.9,70.69Z" transform="translate(-5.13 -5.13)"/><path class="cls-4" d="M59.34,68.53l-.2.51,1.69.65-.1.26L59,69.3l-.19.5-.2-.08.48-1.26Z" transform="translate(-5.13 -5.13)"/><path class="cls-4" d="M61.23,67h0a.6.6,0,0,1,.37.32.76.76,0,0,1-.38.9.81.81,0,0,1-.59,0l-.53-.2a.85.85,0,0,1-.46-.38.65.65,0,0,1,0-.53.69.69,0,0,1,.33-.39.58.58,0,0,1,.5,0h0l-.09.25a.52.52,0,0,0-.34,0,.42.42,0,0,0-.2.23.36.36,0,0,0,0,.32.65.65,0,0,0,.34.24l.53.2a.64.64,0,0,0,.42,0,.32.32,0,0,0,.23-.22.35.35,0,0,0,0-.3.5.5,0,0,0-.27-.2Z" transform="translate(-5.13 -5.13)"/><path class="cls-4" d="M61.81,66.56l.29-.77.2.08-.39,1L60,66.17l.1-.27Z" transform="translate(-5.13 -5.13)"/><path class="cls-4" d="M62.26,64.57l-.22.56.42.32-.1.28-1.68-1.3.1-.26,2.11.17-.1.28Zm-.41.42.17-.44-.85-.08h0Z" transform="translate(-5.13 -5.13)"/><path class="cls-4" d="M62.83,63.08a.29.29,0,0,0-.24,0,.61.61,0,0,0-.25.2,1.12,1.12,0,0,1-.38.33.5.5,0,0,1-.4,0,.54.54,0,0,1-.31-.3.64.64,0,0,1,0-.47.6.6,0,0,1,.33-.35.53.53,0,0,1,.46,0h0l-.1.26a.42.42,0,0,0-.31,0,.32.32,0,0,0-.19.2.31.31,0,0,0,0,.25.34.34,0,0,0,.19.16.3.3,0,0,0,.23,0,.82.82,0,0,0,.26-.22,1.06,1.06,0,0,1,.38-.31.5.5,0,0,1,.4,0,.49.49,0,0,1,.31.3.7.7,0,0,1,0,.47.71.71,0,0,1-.32.38.5.5,0,0,1-.49,0h0l.1-.26a.36.36,0,0,0,.32,0,.38.38,0,0,0,.2-.21.38.38,0,0,0,0-.26A.29.29,0,0,0,62.83,63.08Z" transform="translate(-5.13 -5.13)"/><path class="cls-4" d="M63.38,61.65a.4.4,0,0,0-.24,0,.74.74,0,0,0-.26.21,1.08,1.08,0,0,1-.37.32.43.43,0,0,1-.4,0,.51.51,0,0,1-.31-.3.61.61,0,0,1,0-.46.67.67,0,0,1,.32-.36.64.64,0,0,1,.47,0h0l-.09.25a.47.47,0,0,0-.31,0,.32.32,0,0,0-.19.19.31.31,0,0,0,0,.25.38.38,0,0,0,.2.17.26.26,0,0,0,.23,0,.74.74,0,0,0,.26-.21.93.93,0,0,1,.37-.31.49.49,0,0,1,.41,0,.51.51,0,0,1,.31.3.65.65,0,0,1,0,.47.73.73,0,0,1-.31.38.55.55,0,0,1-.5,0h0l.09-.26a.42.42,0,0,0,.33,0,.35.35,0,0,0,.19-.22.34.34,0,0,0,0-.26A.32.32,0,0,0,63.38,61.65Z" transform="translate(-5.13 -5.13)"/><path class="cls-5" d="M61.55,104.26l-.12.3-1.94.23h0l1.61.62-.11.31-2.2-.85.12-.3,1.94-.23h0l-1.61-.62.12-.31Z" transform="translate(-5.13 -5.13)"/><path class="cls-5" d="M61.54,102.63l-.25.65.49.37-.12.32-1.94-1.5.12-.3,2.44.2-.12.31Zm-.47.49.2-.52-1-.09h0Z" transform="translate(-5.13 -5.13)"/><path class="cls-5" d="M62.32,101h0l-1.59-1.22.15-.39,2.19.85-.11.3L61.39,100h0l1.39,1.11-.08.21-1.8-.11h0l1.6.62-.12.3-2.19-.84.15-.4Z" transform="translate(-5.13 -5.13)"/><path class="cls-5" d="M62.63,98.42l-.29.75.79.3.34-.88.23.09-.46,1.19L61.05,99l.45-1.17.24.09-.34.87.71.27.28-.75Z" transform="translate(-5.13 -5.13)"/><path class="cls-5" d="M62.61,97.56l-.11.31-.31-.12.12-.31Zm1.32.51-.11.31-.31-.12.12-.31Z" transform="translate(-5.13 -5.13)"/><path class="cls-5" d="M64.43,95.12l-.25.65.49.37-.12.32L62.61,95l.12-.3,2.44.2-.12.31Zm-.46.49.2-.52-1-.09h0Z" transform="translate(-5.13 -5.13)"/><path class="cls-5" d="M65.27,94.6l-2.19-.84.23-.61a.76.76,0,0,1,.34-.43.6.6,0,0,1,.51,0,.55.55,0,0,1,.24.18.5.5,0,0,1,.09.29.46.46,0,0,1,.3-.23.67.67,0,0,1,.39,0,.65.65,0,0,1,.39.35.75.75,0,0,1,0,.55Zm-1.13-.78.14-.35a.33.33,0,0,0,0-.26A.38.38,0,0,0,64,93a.39.39,0,0,0-.3,0,.46.46,0,0,0-.2.23l-.11.3Zm.22.08.79.31.17-.42a.39.39,0,0,0,0-.3.5.5,0,0,0-.26-.2.51.51,0,0,0-.32,0,.34.34,0,0,0-.21.2v0Z" transform="translate(-5.13 -5.13)"/><path class="cls-5" d="M65.79,91.28h0a.67.67,0,0,1,.43.37.76.76,0,0,1,0,.59.77.77,0,0,1-.43.45.9.9,0,0,1-.68,0l-.61-.24A.94.94,0,0,1,64,92a.72.72,0,0,1,0-.61.77.77,0,0,1,.37-.46.69.69,0,0,1,.58,0h0l-.11.29a.55.55,0,0,0-.39,0,.42.42,0,0,0-.23.27.4.4,0,0,0,0,.37.91.91,0,0,0,.4.28l.61.23a.86.86,0,0,0,.48.06.41.41,0,0,0,.27-.26.41.41,0,0,0,0-.34.53.53,0,0,0-.31-.24Z" transform="translate(-5.13 -5.13)"/><path class="cls-5" d="M66.58,91.2l-2.19-.85.24-.62a.81.81,0,0,1,.48-.48,1.09,1.09,0,0,1,.77,0l.31.12a1.11,1.11,0,0,1,.59.48.79.79,0,0,1,0,.69Zm-1.84-1.06,1.73.66.12-.31a.5.5,0,0,0-.06-.44,1,1,0,0,0-.46-.33l-.31-.12a.94.94,0,0,0-.56-.06.45.45,0,0,0-.34.28Z" transform="translate(-5.13 -5.13)"/><path class="cls-5" d="M66.92,87.29l-.29.74.79.3.33-.87.24.08-.46,1.19-2.19-.85.45-1.17.24.09-.34.87.71.27.28-.74Z" transform="translate(-5.13 -5.13)"/><path class="cls-5" d="M67.54,85.79l-.29.77,1,.37-.12.31-2.19-.85.47-1.2.23.09-.35.9.75.29.3-.77Z" transform="translate(-5.13 -5.13)"/><path class="cls-5" d="M68.93,84.24a.8.8,0,0,1,.12.34.93.93,0,0,1-.07.47.84.84,0,0,1-.42.48.9.9,0,0,1-.68,0l-.65-.25a.89.89,0,0,1-.51-.43.74.74,0,0,1,0-.62.72.72,0,0,1,.37-.45.61.61,0,0,1,.53,0h0l-.11.29a.45.45,0,0,0-.34,0,.37.37,0,0,0-.22.25.42.42,0,0,0,0,.38.68.68,0,0,0,.38.28l.65.25a.66.66,0,0,0,.47,0,.43.43,0,0,0,.28-.28.69.69,0,0,0,0-.26.3.3,0,0,0-.07-.18l-.51-.2-.15.41-.23-.09.28-.71Z" transform="translate(-5.13 -5.13)"/><path class="cls-5" d="M69.94,82.48l-.12.3-1-.37-.33.86,1,.37-.12.31-2.19-.85.12-.3,1,.38.33-.86-1-.38.11-.31Z" transform="translate(-5.13 -5.13)"/><path class="cls-5" d="M70.23,81.73l-.12.3-2.19-.84.11-.31Z" transform="translate(-5.13 -5.13)"/><path class="cls-5" d="M70.28,80.88l.35-.88.23.09-.46,1.19-2.19-.84.11-.31Z" transform="translate(-5.13 -5.13)"/><path class="cls-5" d="M70.92,78.72h0L69.34,77.5l.15-.39,2.19.85-.12.3L70,77.65h0l1.38,1.11-.08.21-1.8-.11h0l1.6.62-.11.3L68.77,79l.16-.4Z" transform="translate(-5.13 -5.13)"/><path class="cls-5" d="M75.77,65.64a.33.33,0,0,0-.24,0,.83.83,0,0,0-.24.18,1.65,1.65,0,0,1-.46.41.6.6,0,0,1-.49,0,.56.56,0,0,1-.36-.36.86.86,0,0,1,.4-1,.59.59,0,0,1,.55,0h0l-.16.41a.43.43,0,0,0-.29,0,.33.33,0,0,0-.17.18.26.26,0,0,0,0,.23.33.33,0,0,0,.18.14.22.22,0,0,0,.21,0,1.13,1.13,0,0,0,.26-.2,1.38,1.38,0,0,1,.45-.38.64.64,0,0,1,.49,0,.56.56,0,0,1,.37.36.81.81,0,0,1,0,.57.88.88,0,0,1-.38.46.63.63,0,0,1-.61,0h0l.16-.42a.4.4,0,0,0,.33,0,.36.36,0,0,0,.19-.21.3.3,0,0,0,0-.23A.28.28,0,0,0,75.77,65.64Z" transform="translate(-5.13 -5.13)"/><path class="cls-5" d="M76.06,63.69l-.26.67.64.25.31-.8.33.13-.48,1.22-2.19-.84.47-1.23.34.13-.31.8.56.22.26-.67Z" transform="translate(-5.13 -5.13)"/><path class="cls-5" d="M77.08,62.51l-.21.55.43.3-.17.45-2-1.47.17-.44,2.43.22-.17.45Zm-.51.33.14-.37L76,62.38h0Z" transform="translate(-5.13 -5.13)"/><path class="cls-5" d="M76.42,60.11l-.2.51,1.86.72-.17.42-1.86-.71-.19.5-.33-.13L76.08,60Z" transform="translate(-5.13 -5.13)"/><path class="cls-5" d="M63.4,106.16l-.14.39.48.18-.06.16-1.09-.43.23-.6.12,0-.18.45.38.14.15-.38Z" transform="translate(-5.13 -5.13)"/><path class="cls-5" d="M63.91,106l.17-.45.12,0-.23.59-1.09-.42,0-.15Z" transform="translate(-5.13 -5.13)"/><path class="cls-5" d="M64.32,105.23l-.06.16L63.17,105l0-.15Z" transform="translate(-5.13 -5.13)"/><path class="cls-5" d="M64.53,104.26a.34.34,0,0,1,.06.16.48.48,0,0,1-.24.48.45.45,0,0,1-.34,0l-.33-.13a.41.41,0,0,1-.25-.21.34.34,0,0,1,0-.31.34.34,0,0,1,.18-.22.32.32,0,0,1,.27,0h0l-.05.14a.25.25,0,0,0-.17,0,.19.19,0,0,0-.11.12.21.21,0,0,0,0,.19.41.41,0,0,0,.19.14l.33.13a.38.38,0,0,0,.23,0,.22.22,0,0,0,.14-.14.39.39,0,0,0,0-.13.3.3,0,0,0,0-.1l-.25-.09-.08.2-.11,0,.14-.36Z" transform="translate(-5.13 -5.13)"/><path class="cls-5" d="M65,103.37l-.06.16-.49-.19-.16.43.48.19-.06.15-1.09-.42.06-.15.49.19.17-.43-.5-.19.06-.16Z" transform="translate(-5.13 -5.13)"/><path class="cls-5" d="M64.38,102.16l-.11.29,1,.37-.06.16-1-.38-.11.29-.12,0,.28-.73Z" transform="translate(-5.13 -5.13)"/><path class="cls-5" d="M64.94,101.66l-.06.15-.15-.06.06-.15Zm.66.25-.06.15-.15-.06.06-.15Z" transform="translate(-5.13 -5.13)"/><path class="cls-5" d="M66,107.25a.29.29,0,0,0,0-.27.61.61,0,0,0-.29-.21l-.17-.06a.36.36,0,0,1,.06.36.46.46,0,0,1-.3.29.71.71,0,0,1-.47,0,.68.68,0,0,1-.37-.31.48.48,0,0,1,0-.42.51.51,0,0,1,.32-.32.77.77,0,0,1,.53,0l.53.2a.72.72,0,0,1,.4.34.57.57,0,0,1,0,.46,1.3,1.3,0,0,1-.08.17l-.12.13-.16-.1.1-.12A.52.52,0,0,0,66,107.25Zm-.6-.27a.32.32,0,0,0,0-.19.39.39,0,0,0-.1-.16l-.2-.08a.54.54,0,0,0-.34,0,.26.26,0,0,0-.19.15.24.24,0,0,0,.05.23.62.62,0,0,0,.27.19.59.59,0,0,0,.31,0A.21.21,0,0,0,65.41,107Z" transform="translate(-5.13 -5.13)"/><path class="cls-5" d="M65.73,106.13l-.93-.46.32-.82.2.07-.24.62.51.25a.32.32,0,0,1,0-.14.35.35,0,0,1,0-.17.44.44,0,0,1,.28-.27.66.66,0,0,1,.47,0,.62.62,0,0,1,.37.29.48.48,0,0,1,0,.44.56.56,0,0,1-.26.3.43.43,0,0,1-.41,0h0l.08-.24a.32.32,0,0,0,.25,0,.25.25,0,0,0,.15-.15.23.23,0,0,0,0-.24.64.64,0,0,0-.27-.18.59.59,0,0,0-.31,0,.23.23,0,0,0-.17.16.26.26,0,0,0,0,.19.2.2,0,0,0,.1.13Z" transform="translate(-5.13 -5.13)"/><path class="cls-5" d="M65.43,104l.09-.17.11-.13.17.12a.35.35,0,0,0-.1.11.64.64,0,0,0-.08.14.28.28,0,0,0,0,.29.57.57,0,0,0,.32.23l.13.06a.76.76,0,0,1-.06-.2.54.54,0,0,1,0-.22.39.39,0,0,1,.28-.26.72.72,0,0,1,.45,0,.68.68,0,0,1,.36.3.5.5,0,0,1,0,.43.49.49,0,0,1-.33.31.83.83,0,0,1-.55,0l-.42-.17a.79.79,0,0,1-.44-.35A.56.56,0,0,1,65.43,104Zm.82.38a.29.29,0,0,0,0,.18.35.35,0,0,0,.08.16l.13,0a.78.78,0,0,0,.38,0,.25.25,0,0,0,.21-.15.24.24,0,0,0,0-.24.56.56,0,0,0-.26-.17.48.48,0,0,0-.3,0A.23.23,0,0,0,66.25,104.33Z" transform="translate(-5.13 -5.13)"/><path class="cls-5" d="M66.31,102.31a2.47,2.47,0,0,0,.51.64,2.5,2.5,0,0,0,.67.38l.19.07-.09.25-.19-.08a2.07,2.07,0,0,1-.68-.4,2.83,2.83,0,0,1-.5-.62l-.32.83-.19-.07.41-1.07Z" transform="translate(-5.13 -5.13)"/><path class="cls-5" d="M67,101.19a.49.49,0,0,1,.21.16.54.54,0,0,1,.09.24.58.58,0,0,1,.25-.15.42.42,0,0,1,.29,0,.5.5,0,0,1,.31.29.51.51,0,0,1,0,.42.6.6,0,0,1-.28.34.5.5,0,0,1-.43,0,.48.48,0,0,1-.23-.19.55.55,0,0,1-.08-.29.43.43,0,0,1-.23.14.4.4,0,0,1-.26,0,.48.48,0,0,1-.3-.27.55.55,0,0,1,0-.4.5.5,0,0,1,.26-.29A.46.46,0,0,1,67,101.19Zm-.09.25a.41.41,0,0,0-.24,0,.26.26,0,0,0-.14.13.25.25,0,0,0,0,.21.33.33,0,0,0,.19.15.33.33,0,0,0,.24,0,.23.23,0,0,0,.15-.14.24.24,0,0,0,0-.2A.35.35,0,0,0,67,101.44Zm.83.26a.42.42,0,0,0-.27,0,.25.25,0,0,0-.16.16.27.27,0,0,0,0,.25.38.38,0,0,0,.2.17.36.36,0,0,0,.27,0,.28.28,0,0,0,.17-.18.27.27,0,0,0,0-.23A.38.38,0,0,0,67.78,101.7Z" transform="translate(-5.13 -5.13)"/><path class="cls-5" d="M68.32,100.43l-.2.53.39.29-.1.25-1.55-1.19.1-.24,1.94.15-.09.26Zm-.38.4.16-.42-.79-.07h0Z" transform="translate(-5.13 -5.13)"/><path class="cls-5" d="M68.6,93.69a.38.38,0,0,1,.06.17.53.53,0,0,1,0,.24.43.43,0,0,1-.21.23.45.45,0,0,1-.34,0l-.33-.12A.42.42,0,0,1,67.5,94a.34.34,0,0,1,0-.31.37.37,0,0,1,.18-.22.32.32,0,0,1,.27,0h0l0,.15a.21.21,0,0,0-.17,0,.23.23,0,0,0-.12.12.25.25,0,0,0,0,.19.35.35,0,0,0,.19.14l.33.13a.32.32,0,0,0,.23,0,.22.22,0,0,0,.14-.14.35.35,0,0,0,0-.13.19.19,0,0,0,0-.09l-.25-.1-.08.2-.11,0,.13-.36Z" transform="translate(-5.13 -5.13)"/><path class="cls-5" d="M68.73,93l-.12.33.24.18-.06.16-1-.75.06-.15,1.22.1L69,93Zm-.23.25.1-.26-.5,0h0Z" transform="translate(-5.13 -5.13)"/><path class="cls-5" d="M68.38,91.76l-.11.29,1,.38-.06.15-1-.38-.11.29-.11,0,.28-.74Z" transform="translate(-5.13 -5.13)"/><path class="cls-5" d="M69.11,91.29l-.15.37.4.15.17-.44.11,0-.23.59-1.09-.42.22-.58.12,0-.17.44.36.13.14-.37Z" transform="translate(-5.13 -5.13)"/><path class="cls-5" d="M69.23,90.52l-.06.15L69,90.61l.06-.15Zm.66.25-.06.15-.15-.06.06-.15Z" transform="translate(-5.13 -5.13)"/><path class="cls-5" d="M70.63,93.85a.7.7,0,0,1,.42.36.71.71,0,0,1-.34.89.75.75,0,0,1-.55,0l-.48-.19a.68.68,0,0,1-.42-.35.6.6,0,0,1,0-.51.63.63,0,0,1,.35-.38.71.71,0,0,1,.55,0Zm-.58.06a.59.59,0,0,0-.38,0,.42.42,0,0,0-.23.24.34.34,0,0,0,0,.31.6.6,0,0,0,.31.23l.48.19a.6.6,0,0,0,.39,0,.32.32,0,0,0,.22-.22.36.36,0,0,0,0-.32.56.56,0,0,0-.31-.24Z" transform="translate(-5.13 -5.13)"/><path class="cls-5" d="M71.76,92.81l-.39,1-.16-.06L70.75,93a1.54,1.54,0,0,0-.21-.28.59.59,0,0,0-.19-.13.41.41,0,0,0-.24,0,.24.24,0,0,0-.14.14A.23.23,0,0,0,70,93a.48.48,0,0,0,.22.17l-.09.24h0a.59.59,0,0,1-.32-.28.5.5,0,0,1,0-.43.51.51,0,0,1,.27-.3.48.48,0,0,1,.39,0,.58.58,0,0,1,.26.18,2.9,2.9,0,0,1,.25.37l.35.52.27-.7Z" transform="translate(-5.13 -5.13)"/><path class="cls-5" d="M68.48,108.16a.23.23,0,0,0-.14,0,.4.4,0,0,0-.15.12.64.64,0,0,1-.22.19.24.24,0,0,1-.23,0,.28.28,0,0,1-.18-.17.36.36,0,0,1,0-.27.32.32,0,0,1,.19-.2.3.3,0,0,1,.26,0h0L68,108a.2.2,0,0,0-.17,0,.22.22,0,0,0-.12.11.16.16,0,0,0,0,.15.2.2,0,0,0,.11.09.15.15,0,0,0,.13,0,.35.35,0,0,0,.15-.13.87.87,0,0,1,.22-.18.3.3,0,0,1,.23,0,.32.32,0,0,1,.18.18.36.36,0,0,1,0,.27.44.44,0,0,1-.18.22.33.33,0,0,1-.29,0h0l0-.14a.21.21,0,0,0,.19,0,.19.19,0,0,0,.11-.12.2.2,0,0,0,0-.15A.18.18,0,0,0,68.48,108.16Z" transform="translate(-5.13 -5.13)"/><path class="cls-5" d="M68.57,107.22l-.14.37.39.15.17-.43.11,0-.22.59-1.1-.42.23-.59.11,0-.16.43.35.14.14-.37Z" transform="translate(-5.13 -5.13)"/><path class="cls-5" d="M69.07,106.61l-.12.32.24.19-.06.16-1-.75.06-.15,1.22.09-.06.16Zm-.23.24.1-.26-.5,0h0Z" transform="translate(-5.13 -5.13)"/><path class="cls-5" d="M68.73,105.41l-.12.3,1,.37-.06.15-1-.37-.12.29-.11-.05.28-.73Z" transform="translate(-5.13 -5.13)"/><path class="cls-5" d="M69.29,104.91l-.06.16-.16-.06.06-.15Zm.65.26-.06.15-.15-.06.06-.15Z" transform="translate(-5.13 -5.13)"/><path class="cls-5" d="M71.28,108.6l-.39,1-.16-.07-.46-.74a1.54,1.54,0,0,0-.21-.28.44.44,0,0,0-.19-.12.35.35,0,0,0-.24,0,.24.24,0,0,0-.14.14.25.25,0,0,0,0,.24.47.47,0,0,0,.22.16l-.09.24h0a.55.55,0,0,1-.32-.28.53.53,0,0,1,0-.43.48.48,0,0,1,.67-.29.64.64,0,0,1,.25.19,1.69,1.69,0,0,1,.25.36l.35.53.27-.71Z" transform="translate(-5.13 -5.13)"/><path class="cls-5" d="M71.77,107.33l-.39,1-.16-.06-.46-.75a1.83,1.83,0,0,0-.21-.27.46.46,0,0,0-.19-.13.34.34,0,0,0-.24,0,.2.2,0,0,0-.14.14.24.24,0,0,0,0,.23.47.47,0,0,0,.22.16l-.09.24h0a.52.52,0,0,1-.32-.28.5.5,0,0,1,0-.43.51.51,0,0,1,.27-.3.53.53,0,0,1,.39,0,.61.61,0,0,1,.26.19,2.69,2.69,0,0,1,.25.36l.35.53.27-.7Z" transform="translate(-5.13 -5.13)"/><path class="cls-5" d="M72.08,106.52l-1.75-.68.19-.49a.68.68,0,0,1,.39-.39.92.92,0,0,1,.61,0l.25.1a.81.81,0,0,1,.47.39.64.64,0,0,1,0,.54Zm-1.47-.85,1.38.53.1-.25a.37.37,0,0,0,0-.35.75.75,0,0,0-.37-.26l-.25-.1a.77.77,0,0,0-.44,0,.37.37,0,0,0-.27.23Z" transform="translate(-5.13 -5.13)"/><path class="cls-5" d="M72.72,95.33l-.11.29,1,.37-.06.16-1-.38-.11.29-.12,0,.29-.73Z" transform="translate(-5.13 -5.13)"/><path class="cls-5" d="M73.82,95.41l-.06.15-1.1-.42.06-.16Z" transform="translate(-5.13 -5.13)"/><path class="cls-5" d="M73.88,94.65h0l-.8-.6.08-.2,1.1.42-.06.15-.79-.3h0l.69.55,0,.11-.9-.06h0L74,95l-.06.15-1.1-.42.08-.2Z" transform="translate(-5.13 -5.13)"/><path class="cls-5" d="M74,93.34l-.15.37.4.15.17-.44.11,0-.23.59-1.09-.42.23-.59.11,0-.16.43.35.13.14-.37Z" transform="translate(-5.13 -5.13)"/><path class="cls-5" d="M74.15,92.57l-.06.15-.15-.06.06-.15Zm.66.25-.06.16-.15-.06.06-.16Z" transform="translate(-5.13 -5.13)"/><path class="cls-5" d="M75.54,96a.74.74,0,0,1,.42.32.49.49,0,0,1,0,.44.52.52,0,0,1-.32.31.9.9,0,0,1-.53,0l-.5-.2a.79.79,0,0,1-.42-.32.49.49,0,0,1,0-.44.49.49,0,0,1,.32-.31.83.83,0,0,1,.53,0Zm-.63,0a.63.63,0,0,0-.34-.05.22.22,0,0,0-.19.15.23.23,0,0,0,0,.24.55.55,0,0,0,.28.19l.57.22a.63.63,0,0,0,.34,0,.26.26,0,0,0,.2-.15.23.23,0,0,0,0-.24.64.64,0,0,0-.29-.19Z" transform="translate(-5.13 -5.13)"/><path class="cls-5" d="M74.71,94.69a.7.7,0,0,1,.09-.17.69.69,0,0,1,.11-.13l.16.12a.52.52,0,0,0-.1.11.61.61,0,0,0-.07.14.3.3,0,0,0,0,.29.65.65,0,0,0,.32.23l.14.06a.73.73,0,0,1-.06-.21.52.52,0,0,1,0-.21.39.39,0,0,1,.27-.26.66.66,0,0,1,.45,0,.67.67,0,0,1,.37.3.5.5,0,0,1,0,.43.51.51,0,0,1-.33.31.82.82,0,0,1-.55,0l-.42-.17a.72.72,0,0,1-.44-.35A.56.56,0,0,1,74.71,94.69Zm.81.38a.28.28,0,0,0,0,.18.35.35,0,0,0,.08.16l.12,0a.81.81,0,0,0,.39.05.24.24,0,0,0,.17-.39A.62.62,0,0,0,76,95a.5.5,0,0,0-.31,0A.26.26,0,0,0,75.52,95.07Z" transform="translate(-5.13 -5.13)"/><path class="cls-5" d="M76,93.46l-.09.25-.25-.1.1-.24Zm1,.41-.09.24L76.73,94l.09-.25Z" transform="translate(-5.13 -5.13)"/><path class="cls-5" d="M76.59,92.16a.26.26,0,0,0,0-.23.42.42,0,0,0-.19-.15.41.41,0,0,0-.24,0,.23.23,0,0,0-.16.16.26.26,0,0,0,0,.21.32.32,0,0,0,.18.16l-.09.24h0a.48.48,0,0,1-.29-.27.56.56,0,0,1,0-.42.51.51,0,0,1,.26-.31.57.57,0,0,1,.62.16.43.43,0,0,1,.09.23.36.36,0,0,1,.23-.13.56.56,0,0,1,.6.32.54.54,0,0,1,0,.43.58.58,0,0,1-.27.31.42.42,0,0,1-.41,0h0l.09-.24a.31.31,0,0,0,.25,0,.29.29,0,0,0,.16-.4.36.36,0,0,0-.2-.16.41.41,0,0,0-.28,0,.31.31,0,0,0-.16.19l-.06.16-.19-.07Z" transform="translate(-5.13 -5.13)"/><path class="cls-5" d="M77.64,90.51a.74.74,0,0,1,.42.32.49.49,0,0,1,0,.44.47.47,0,0,1-.32.31.8.8,0,0,1-.52,0l-.51-.2a.82.82,0,0,1-.42-.32.49.49,0,0,1,0-.44.49.49,0,0,1,.32-.31.83.83,0,0,1,.53,0Zm-.63,0a.63.63,0,0,0-.34,0,.25.25,0,0,0-.19.15.23.23,0,0,0,0,.24.6.6,0,0,0,.28.19l.58.22a.61.61,0,0,0,.34,0,.26.26,0,0,0,.19-.15.23.23,0,0,0,0-.24.64.64,0,0,0-.29-.19Z" transform="translate(-5.13 -5.13)"/><path class="cls-7" d="M54.39,122.65a.6.6,0,0,1-.26.33.36.36,0,0,1-.35,0,.43.43,0,0,1-.25-.26.63.63,0,0,1,0-.42l.15-.41a.63.63,0,0,1,.26-.33.36.36,0,0,1,.35,0,.4.4,0,0,1,.25.26.62.62,0,0,1,0,.42Zm0-.51a.57.57,0,0,0,0-.27.2.2,0,0,0-.12-.16.24.24,0,0,0-.2,0,.57.57,0,0,0-.15.23l-.18.46a.59.59,0,0,0,0,.28.22.22,0,0,0,.13.15.19.19,0,0,0,.19,0,.57.57,0,0,0,.15-.23Z" transform="translate(-5.13 -5.13)"/><path class="cls-7" d="M55.41,123a.66.66,0,0,1-.26.34.39.39,0,0,1-.35,0,.38.38,0,0,1-.25-.26.58.58,0,0,1,0-.42l.15-.4A.66.66,0,0,1,55,122a.36.36,0,0,1,.35,0,.37.37,0,0,1,.25.25.62.62,0,0,1,0,.42Zm0-.51a.57.57,0,0,0,0-.27.18.18,0,0,0-.13-.15.17.17,0,0,0-.19,0,.46.46,0,0,0-.15.23l-.18.45a.59.59,0,0,0,0,.28.2.2,0,0,0,.13.15.17.17,0,0,0,.19,0,.51.51,0,0,0,.15-.23Z" transform="translate(-5.13 -5.13)"/><path class="cls-7" d="M56.43,123.43a.66.66,0,0,1-.26.34.43.43,0,0,1-.6-.23.65.65,0,0,1,0-.43l.16-.4a.66.66,0,0,1,.26-.34.43.43,0,0,1,.6.23.6.6,0,0,1,0,.43Zm0-.51a.54.54,0,0,0,0-.27.18.18,0,0,0-.13-.15.17.17,0,0,0-.19,0,.51.51,0,0,0-.15.23l-.18.46a.54.54,0,0,0,0,.27.17.17,0,0,0,.12.15.18.18,0,0,0,.2,0,.51.51,0,0,0,.15-.23Z" transform="translate(-5.13 -5.13)"/><path class="cls-7" d="M57.45,123.82a.72.72,0,0,1-.26.34.41.41,0,0,1-.36,0,.4.4,0,0,1-.24-.25.65.65,0,0,1,0-.43l.16-.4a.65.65,0,0,1,.25-.34.41.41,0,0,1,.36,0,.37.37,0,0,1,.24.26.62.62,0,0,1,0,.42Zm0-.51a.45.45,0,0,0,0-.27.17.17,0,0,0-.12-.15.17.17,0,0,0-.19,0,.62.62,0,0,0-.16.23l-.17.46a.45.45,0,0,0,0,.27.19.19,0,0,0,.12.16.19.19,0,0,0,.19,0,.47.47,0,0,0,.16-.23Z" transform="translate(-5.13 -5.13)"/><path class="cls-7" d="M58.46,124.21a.61.61,0,0,1-.25.34.41.41,0,0,1-.36,0,.46.46,0,0,1-.25-.26.7.7,0,0,1,0-.42l.15-.41a.64.64,0,0,1,.26-.33.38.38,0,0,1,.36,0,.39.39,0,0,1,.24.26.62.62,0,0,1,0,.42Zm0-.5a.49.49,0,0,0,0-.28.18.18,0,0,0-.12-.15.17.17,0,0,0-.19,0,.45.45,0,0,0-.16.23l-.17.46a.47.47,0,0,0,0,.27.19.19,0,0,0,.12.16.21.21,0,0,0,.19,0,.55.55,0,0,0,.15-.24Z" transform="translate(-5.13 -5.13)"/><path class="cls-7" d="M59.48,124.61a.6.6,0,0,1-.26.33.39.39,0,0,1-.35,0,.43.43,0,0,1-.25-.26.63.63,0,0,1,0-.42l.15-.41a.63.63,0,0,1,.26-.33.36.36,0,0,1,.35,0,.4.4,0,0,1,.25.26.62.62,0,0,1,0,.42Zm0-.51a.57.57,0,0,0,0-.27.2.2,0,0,0-.12-.16.24.24,0,0,0-.2,0,.57.57,0,0,0-.15.23l-.18.46a.57.57,0,0,0,0,.27.2.2,0,0,0,.32.13.57.57,0,0,0,.15-.23Z" transform="translate(-5.13 -5.13)"/><path class="cls-7" d="M60.5,125a.6.6,0,0,1-.26.33.36.36,0,0,1-.35,0,.38.38,0,0,1-.25-.26.62.62,0,0,1,0-.42l.16-.4a.66.66,0,0,1,.26-.34.39.39,0,0,1,.35,0,.4.4,0,0,1,.25.26.62.62,0,0,1,0,.42Zm0-.51a.57.57,0,0,0,0-.27.18.18,0,0,0-.13-.15.17.17,0,0,0-.19,0,.46.46,0,0,0-.15.23l-.18.45a.59.59,0,0,0,0,.28.22.22,0,0,0,.13.15.17.17,0,0,0,.19,0,.51.51,0,0,0,.15-.23Z" transform="translate(-5.13 -5.13)"/><path class="cls-7" d="M61.52,125.39a.66.66,0,0,1-.26.34.43.43,0,0,1-.6-.23.65.65,0,0,1,0-.43l.16-.4a.66.66,0,0,1,.26-.34.39.39,0,0,1,.35,0,.37.37,0,0,1,.25.25.6.6,0,0,1,0,.43Zm0-.51a.54.54,0,0,0,0-.27.18.18,0,0,0-.13-.15.17.17,0,0,0-.19,0,.46.46,0,0,0-.15.23l-.18.46a.54.54,0,0,0,0,.27.17.17,0,0,0,.12.15.18.18,0,0,0,.2,0,.51.51,0,0,0,.15-.23Z" transform="translate(-5.13 -5.13)"/><path class="cls-7" d="M62.54,125.78a.72.72,0,0,1-.26.34.41.41,0,0,1-.36,0,.4.4,0,0,1-.24-.25.65.65,0,0,1,0-.43l.16-.4a.65.65,0,0,1,.25-.34.41.41,0,0,1,.36,0,.37.37,0,0,1,.24.25.65.65,0,0,1,0,.43Zm0-.51a.45.45,0,0,0,0-.27.17.17,0,0,0-.12-.15.17.17,0,0,0-.19,0,.62.62,0,0,0-.16.23l-.17.46a.45.45,0,0,0,0,.27A.19.19,0,0,0,62,126a.19.19,0,0,0,.19,0,.47.47,0,0,0,.16-.23Z" transform="translate(-5.13 -5.13)"/><path class="cls-7" d="M63.55,126.17a.61.61,0,0,1-.25.34.38.38,0,0,1-.36,0,.41.41,0,0,1-.25-.25.7.7,0,0,1,0-.42l.15-.41a.64.64,0,0,1,.26-.33.38.38,0,0,1,.36,0,.39.39,0,0,1,.24.26.62.62,0,0,1,0,.42Zm0-.5a.49.49,0,0,0,0-.28.18.18,0,0,0-.12-.15.17.17,0,0,0-.19,0,.45.45,0,0,0-.16.23l-.17.46a.47.47,0,0,0,0,.27.19.19,0,0,0,.12.16.21.21,0,0,0,.19,0,.55.55,0,0,0,.15-.24Z" transform="translate(-5.13 -5.13)"/><path class="cls-7" d="M64.57,126.57a.6.6,0,0,1-.26.33.39.39,0,0,1-.35,0,.43.43,0,0,1-.25-.26.63.63,0,0,1,0-.42l.15-.41a.63.63,0,0,1,.26-.33.36.36,0,0,1,.35,0,.4.4,0,0,1,.25.26.62.62,0,0,1,0,.42Zm0-.51a.57.57,0,0,0,0-.27.2.2,0,0,0-.12-.16.24.24,0,0,0-.2,0,.57.57,0,0,0-.15.23l-.18.46a.57.57,0,0,0,0,.27.2.2,0,0,0,.32.13.57.57,0,0,0,.15-.23Z" transform="translate(-5.13 -5.13)"/><path class="cls-7" d="M65.59,127a.6.6,0,0,1-.26.33.36.36,0,0,1-.35,0,.38.38,0,0,1-.25-.26.62.62,0,0,1,0-.42l.16-.4a.66.66,0,0,1,.26-.34.39.39,0,0,1,.35,0,.4.4,0,0,1,.25.26.62.62,0,0,1,0,.42Zm0-.51a.57.57,0,0,0,0-.27.21.21,0,0,0-.13-.16.2.2,0,0,0-.19,0,.46.46,0,0,0-.15.23l-.18.45a.59.59,0,0,0,0,.28.22.22,0,0,0,.13.15.17.17,0,0,0,.19,0,.57.57,0,0,0,.15-.23Z" transform="translate(-5.13 -5.13)"/><path class="cls-7" d="M66.14,127.74l-.19-.07.47-1.24-.28-.09.06-.14.49.12Z" transform="translate(-5.13 -5.13)"/><path class="cls-7" d="M67.45,128.25l-.82-.32.06-.13.59-.36a1.21,1.21,0,0,0,.22-.17.57.57,0,0,0,.11-.16.4.4,0,0,0,0-.18.18.18,0,0,0-.12-.12.17.17,0,0,0-.18,0,.4.4,0,0,0-.14.17l-.19-.07h0a.49.49,0,0,1,.22-.25.39.39,0,0,1,.35,0,.42.42,0,0,1,.24.21.4.4,0,0,1,0,.32.51.51,0,0,1-.15.21,1.74,1.74,0,0,1-.29.2l-.42.28.56.22Z" transform="translate(-5.13 -5.13)"/><path class="cls-7" d="M68.34,127.68a.19.19,0,0,0,.18,0,.31.31,0,0,0,.12-.15.32.32,0,0,0,0-.19.17.17,0,0,0-.12-.13.2.2,0,0,0-.17,0,.28.28,0,0,0-.13.15l-.19-.08h0a.36.36,0,0,1,.22-.23.47.47,0,0,1,.33,0,.45.45,0,0,1,.25.21.42.42,0,0,1,0,.33.35.35,0,0,1-.31.24.35.35,0,0,1,.1.19.38.38,0,0,1,0,.23.44.44,0,0,1-.23.25.52.52,0,0,1-.35,0,.54.54,0,0,1-.25-.22.37.37,0,0,1,0-.34h0L68,128a.34.34,0,0,0,0,.2.23.23,0,0,0,.13.14.25.25,0,0,0,.19,0,.29.29,0,0,0,.13-.17.32.32,0,0,0,0-.21.2.2,0,0,0-.15-.13l-.13-.06,0-.14Z" transform="translate(-5.13 -5.13)"/><path class="cls-7" d="M69.53,128.5l.17.06-.06.15-.16-.06-.13.33-.2-.08.13-.33-.54-.2,0-.12.91-.75.2.08Zm-.54-.21.35.13.25-.65h0l0,0Z" transform="translate(-5.13 -5.13)"/><path class="cls-7" d="M70,128.49l.37-.75L71,128l-.07.16-.5-.19-.2.4.12,0a.3.3,0,0,1,.13,0,.36.36,0,0,1,.23.22.58.58,0,0,1,0,.38.55.55,0,0,1-.23.3.41.41,0,0,1-.36,0,.44.44,0,0,1-.24-.2.38.38,0,0,1,0-.33h0l.18.07a.28.28,0,0,0,0,.2.18.18,0,0,0,.12.12.18.18,0,0,0,.19,0,.44.44,0,0,0,.15-.21.59.59,0,0,0,0-.25.2.2,0,0,0-.13-.14.28.28,0,0,0-.15,0,.21.21,0,0,0-.1.09Z" transform="translate(-5.13 -5.13)"/><path class="cls-7" d="M71.7,128.25l.14.07.1.09-.09.13-.09-.08-.11-.06a.24.24,0,0,0-.24,0,.52.52,0,0,0-.18.26l0,.11a.3.3,0,0,1,.16-.05.27.27,0,0,1,.17,0,.31.31,0,0,1,.21.22.58.58,0,0,1,0,.36.52.52,0,0,1-.25.29.37.37,0,0,1-.34,0,.46.46,0,0,1-.25-.26.66.66,0,0,1,0-.45l.13-.34a.67.67,0,0,1,.28-.35A.45.45,0,0,1,71.7,128.25Zm-.3.65a.26.26,0,0,0-.15,0,.21.21,0,0,0-.12.07l0,.1a.61.61,0,0,0,0,.31.2.2,0,0,0,.13.16.17.17,0,0,0,.19,0,.43.43,0,0,0,.14-.21.35.35,0,0,0,0-.24A.22.22,0,0,0,71.4,128.9Z" transform="translate(-5.13 -5.13)"/><path class="cls-7" d="M73,129a1.85,1.85,0,0,0-.51.42,1.79,1.79,0,0,0-.3.53l-.06.16L72,130l.06-.15a1.73,1.73,0,0,1,.32-.55,2.25,2.25,0,0,1,.5-.4l-.67-.26.06-.15.86.33Z" transform="translate(-5.13 -5.13)"/><path class="cls-7" d="M73.92,129.54a.37.37,0,0,1-.13.17.43.43,0,0,1-.2.07.34.34,0,0,1,.13.2.36.36,0,0,1,0,.23.42.42,0,0,1-.24.26.5.5,0,0,1-.34,0,.52.52,0,0,1-.27-.23.43.43,0,0,1,.14-.53.48.48,0,0,1,.24-.06.34.34,0,0,1-.11-.18.34.34,0,0,1,0-.22.39.39,0,0,1,.21-.24.54.54,0,0,1,.33,0,.43.43,0,0,1,.23.21A.36.36,0,0,1,73.92,129.54Zm-.41.59a.3.3,0,0,0,0-.21.21.21,0,0,0-.13-.13.23.23,0,0,0-.2,0,.34.34,0,0,0-.14.17.26.26,0,0,0,0,.21.22.22,0,0,0,.14.14.23.23,0,0,0,.18,0A.3.3,0,0,0,73.51,130.13Zm.21-.66a.25.25,0,0,0,0-.19.15.15,0,0,0-.1-.12.25.25,0,0,0-.17,0,.31.31,0,0,0-.12.15.35.35,0,0,0,0,.2.23.23,0,0,0,.12.12.16.16,0,0,0,.15,0A.31.31,0,0,0,73.72,129.47Z" transform="translate(-5.13 -5.13)"/><path class="cls-7" d="M74.14,130.68a.24.24,0,0,0,.22,0,.5.5,0,0,0,.17-.24l0-.13a.35.35,0,0,1-.14.06.24.24,0,0,1-.15,0,.37.37,0,0,1-.24-.23.64.64,0,0,1,0-.38.58.58,0,0,1,.25-.3.41.41,0,0,1,.34,0,.4.4,0,0,1,.25.26.53.53,0,0,1,0,.42l-.16.42a.57.57,0,0,1-.27.33.47.47,0,0,1-.37,0l-.13-.07a.58.58,0,0,1-.12-.1l.09-.13.09.09Zm.22-.49a.27.27,0,0,0,.15,0,.57.57,0,0,0,.13-.08l.07-.17a.44.44,0,0,0,0-.27.2.2,0,0,0-.12-.15.19.19,0,0,0-.19,0,.53.53,0,0,0-.15.22.44.44,0,0,0,0,.25A.16.16,0,0,0,74.36,130.19Z" transform="translate(-5.13 -5.13)"/><polygon class="cls-7" points="47.01 117.1 46.65 116.97 51.88 103.55 52.23 103.69 47.01 117.1"/><rect class="cls-7" x="56.59" y="108.97" width="0.19" height="11.53" transform="translate(39.88 -17.83) rotate(21.06)"/><rect class="cls-7" x="65.72" y="112.53" width="0.4" height="11.53" transform="translate(41.78 -20.91) rotate(21.06)"/><rect class="cls-7" x="68.11" y="113.44" width="0.4" height="11.53" transform="translate(42.27 -21.71) rotate(21.06)"/><rect class="cls-7" x="57.18" y="109.19" width="0.15" height="11.53" transform="translate(40 -18.02) rotate(21.06)"/><rect class="cls-7" x="65.15" y="112.25" width="0.15" height="11.53" transform="translate(41.64 -20.68) rotate(21.06)"/><rect class="cls-7" x="71.2" y="114.58" width="0.15" height="11.53" transform="translate(42.88 -22.7) rotate(21.06)"/><polygon class="cls-7" points="69.9 125.92 69.76 125.86 74.99 112.45 75.13 112.5 69.9 125.92"/><rect class="cls-7" x="74.52" y="115.86" width="0.15" height="11.53" transform="translate(43.56 -23.81) rotate(21.06)"/><rect class="cls-7" x="75.87" y="116.39" width="0.17" height="11.53" transform="translate(43.84 -24.26) rotate(21.06)"/><rect class="cls-7" x="60.84" y="110.6" width="0.15" height="11.53" transform="translate(40.75 -19.24) rotate(21.06)"/><rect class="cls-7" x="64.54" y="112.03" width="0.21" height="11.53" transform="translate(41.52 -20.49) rotate(21.06)"/><polygon class="cls-7" points="48.1 117.53 47.51 117.3 52.73 103.88 53.33 104.11 48.1 117.53"/><rect class="cls-7" x="62.66" y="111.39" width="0.64" height="11.53" transform="translate(41.18 -19.93) rotate(21.06)"/><rect class="cls-7" x="63.59" y="111.77" width="0.74" height="11.53" transform="translate(41.38 -20.26) rotate(21.06)"/><rect class="cls-7" x="73.48" y="115.59" width="0.83" height="11.53" transform="translate(43.41 -23.57) rotate(21.06)"/><rect class="cls-7" x="76.37" y="116.79" width="1.25" height="11.53" transform="translate(44.05 -24.61) rotate(21.06)"/><rect class="cls-7" x="74.78" y="116.05" width="0.61" height="11.53" transform="translate(43.66 -23.97) rotate(21.06)"/><rect class="cls-7" x="66.43" y="112.94" width="1.16" height="11.53" transform="translate(42 -21.28) rotate(21.06)"/><rect class="cls-7" x="68.65" y="113.95" width="1.94" height="11.53" transform="translate(42.54 -22.15) rotate(21.06)"/><rect class="cls-7" x="58.84" y="110.07" width="1.4" height="11.53" transform="translate(40.47 -18.78) rotate(21.06)"/><rect class="cls-7" x="57.73" y="109.45" width="0.44" height="11.53" transform="translate(40.14 -18.25) rotate(21.06)"/><rect class="cls-7" x="61.41" y="110.87" width="0.44" height="11.53" transform="matrix(0.93, 0.36, -0.36, 0.93, 40.9, -19.48)"/><rect class="cls-7" x="71.78" y="114.87" width="0.44" height="11.53" transform="translate(43.03 -22.94) rotate(21.06)"/><polygon class="cls-7" points="70.78 126.26 70.37 126.1 75.6 112.69 76.01 112.84 70.78 126.26"/><rect class="cls-7" x="72.46" y="115.13" width="0.44" height="11.53" transform="translate(43.17 -23.17) rotate(21.06)"/><path class="cls-7" d="M108.65,46l-.05.12-.8.1h0l.66.26,0,.12-.9-.34,0-.13.8-.09h0l-.66-.25,0-.13Z" transform="translate(-5.13 -5.13)"/><path class="cls-7" d="M108.35,45.75a.44.44,0,0,1-.21-.16.24.24,0,0,1,0-.23.23.23,0,0,1,.17-.16.51.51,0,0,1,.27,0h0a.4.4,0,0,1,.21.17.22.22,0,0,1,0,.22.23.23,0,0,1-.17.16.37.37,0,0,1-.27,0Zm.07-.12a.46.46,0,0,0,.19,0,.15.15,0,0,0,.11-.08.13.13,0,0,0,0-.13.37.37,0,0,0-.16-.1h0a.33.33,0,0,0-.19,0,.12.12,0,0,0-.11.08.13.13,0,0,0,0,.13.49.49,0,0,0,.16.1Z" transform="translate(-5.13 -5.13)"/><path class="cls-7" d="M108.57,44.61l0,.13-.13-.05,0-.13Zm.54.21,0,.13-.13-.05,0-.13Z" transform="translate(-5.13 -5.13)"/><path class="cls-7" d="M109.41,44l0,.13-.8-.31,0,.18-.09,0,.07-.31Z" transform="translate(-5.13 -5.13)"/><path class="cls-7" d="M109.73,43.2l-.2.52-.08,0-.24-.38a.61.61,0,0,0-.11-.14.23.23,0,0,0-.1-.07.17.17,0,0,0-.12,0,.1.1,0,0,0-.07.07.12.12,0,0,0,0,.12.19.19,0,0,0,.11.08l0,.13h0a.28.28,0,0,1-.16-.14.26.26,0,0,1,0-.23.29.29,0,0,1,.14-.15.23.23,0,0,1,.2,0,.26.26,0,0,1,.13.1.78.78,0,0,1,.13.19l.19.27.13-.36Z" transform="translate(-5.13 -5.13)"/><path class="cls-7" d="M109.36,42.63a.13.13,0,0,0,0-.12.2.2,0,0,0-.1-.07.17.17,0,0,0-.12,0s-.06,0-.08.08a.14.14,0,0,0,0,.11s.05.06.09.08l0,.12h0a.23.23,0,0,1-.15-.14.26.26,0,0,1,0-.21.28.28,0,0,1,.14-.16.26.26,0,0,1,.21,0,.28.28,0,0,1,.11.08.21.21,0,0,1,0,.12.25.25,0,0,1,.12-.07.26.26,0,0,1,.15,0,.24.24,0,0,1,.16.15.28.28,0,0,1,0,.22.31.31,0,0,1-.14.16.24.24,0,0,1-.22,0h0l0-.12a.15.15,0,0,0,.13,0,.11.11,0,0,0,.08-.08.13.13,0,0,0,0-.12.2.2,0,0,0-.11-.09.23.23,0,0,0-.14,0,.21.21,0,0,0-.08.1l0,.08-.1,0Z" transform="translate(-5.13 -5.13)"/><path class="cls-7" d="M109.89,41.86l0-.1.1,0,0,.1.21.08,0,.13-.21-.08-.13.34-.08,0-.48-.58,0-.13Zm-.13.35.08-.22-.42-.16h0l0,0Z" transform="translate(-5.13 -5.13)"/><path class="cls-7" d="M109.89,41.6l-.48-.24.16-.43.1,0-.12.32.26.13s0-.05,0-.07a.29.29,0,0,1,0-.09.24.24,0,0,1,.14-.14.34.34,0,0,1,.24,0,.35.35,0,0,1,.2.15.26.26,0,0,1,0,.23.24.24,0,0,1-.13.15.2.2,0,0,1-.21,0h0l0-.12a.2.2,0,0,0,.13,0,.16.16,0,0,0,.08-.08.11.11,0,0,0,0-.12.22.22,0,0,0-.13-.09.24.24,0,0,0-.16,0,.12.12,0,0,0-.09.08.1.1,0,0,0,0,.09s0,0,0,.07Z" transform="translate(-5.13 -5.13)"/><path class="cls-7" d="M109.73,40.47a.22.22,0,0,1,0-.08l.06-.07.08.06s0,0,0,.06a.16.16,0,0,0,0,.07.16.16,0,0,0,0,.15.37.37,0,0,0,.17.12l.07,0a.17.17,0,0,1,0-.1.21.21,0,0,1,0-.11.2.2,0,0,1,.15-.13.32.32,0,0,1,.23,0,.32.32,0,0,1,.19.15.24.24,0,0,1,0,.22.27.27,0,0,1-.17.16.43.43,0,0,1-.29,0l-.21-.08a.44.44,0,0,1-.23-.19A.31.31,0,0,1,109.73,40.47Zm.42.2a.14.14,0,0,0,0,.09.14.14,0,0,0,0,.08l.06,0a.38.38,0,0,0,.2,0,.12.12,0,0,0,.1-.08.1.1,0,0,0,0-.12.28.28,0,0,0-.13-.1.31.31,0,0,0-.16,0A.13.13,0,0,0,110.15,40.67Z" transform="translate(-5.13 -5.13)"/><path class="cls-7" d="M110.18,39.63a1.59,1.59,0,0,0,.27.33,1.21,1.21,0,0,0,.34.19l.1,0,0,.12-.1,0a1.36,1.36,0,0,1-.35-.21,1.61,1.61,0,0,1-.25-.32l-.17.43-.1,0,.22-.55Z" transform="translate(-5.13 -5.13)"/><path class="cls-7" d="M110.56,39.05a.31.31,0,0,1,.11.08.28.28,0,0,1,0,.13.25.25,0,0,1,.28-.07.24.24,0,0,1,.16.15.28.28,0,0,1,0,.22.28.28,0,0,1-.15.17.24.24,0,0,1-.22,0,.27.27,0,0,1-.12-.09.33.33,0,0,1,0-.15.26.26,0,0,1-.11.07.32.32,0,0,1-.14,0,.28.28,0,0,1-.16-.14.3.3,0,0,1,0-.21.28.28,0,0,1,.13-.15A.26.26,0,0,1,110.56,39.05Zm0,.13a.17.17,0,0,0-.12,0,.1.1,0,0,0-.07.07.12.12,0,0,0,0,.1.16.16,0,0,0,.1.08.17.17,0,0,0,.12,0s.07,0,.08-.08a.12.12,0,0,0,0-.1A.2.2,0,0,0,110.51,39.18Zm.43.13a.17.17,0,0,0-.14,0,.11.11,0,0,0-.08.08.15.15,0,0,0,0,.13.2.2,0,0,0,.11.09.17.17,0,0,0,.14,0,.14.14,0,0,0,.08-.09.13.13,0,0,0,0-.12A.2.2,0,0,0,110.94,39.31Z" transform="translate(-5.13 -5.13)"/><path class="cls-7" d="M111.29,38.91a.14.14,0,0,0,0-.14c0-.05-.07-.08-.15-.11l-.08,0a.36.36,0,0,1,0,.09.38.38,0,0,1,0,.1.23.23,0,0,1-.15.14.36.36,0,0,1-.25,0,.43.43,0,0,1-.19-.16.24.24,0,0,1,0-.22.23.23,0,0,1,.16-.16.37.37,0,0,1,.27,0l.27.1a.41.41,0,0,1,.21.17.29.29,0,0,1,0,.24.36.36,0,0,1,0,.09l-.06.07L111.2,39a.15.15,0,0,0,0-.06A.43.43,0,0,0,111.29,38.91Zm-.31-.14a.38.38,0,0,0,0-.1.22.22,0,0,0,0-.08l-.11,0a.29.29,0,0,0-.17,0,.14.14,0,0,0-.1.08.11.11,0,0,0,0,.12.34.34,0,0,0,.13.1.32.32,0,0,0,.16,0A.13.13,0,0,0,111,38.77Z" transform="translate(-5.13 -5.13)"/><path class="cls-7" d="M111.42,37.86a.41.41,0,0,1,.21.17.26.26,0,0,1,0,.23.23.23,0,0,1-.17.15.37.37,0,0,1-.27,0l-.26-.1a.39.39,0,0,1-.21-.16.26.26,0,0,1,0-.23.27.27,0,0,1,.17-.16.43.43,0,0,1,.27,0Zm-.33,0a.36.36,0,0,0-.17,0,.12.12,0,0,0-.1.08.11.11,0,0,0,0,.12.36.36,0,0,0,.15.1l.29.11a.29.29,0,0,0,.17,0,.12.12,0,0,0,.1-.08.11.11,0,0,0,0-.12.39.39,0,0,0-.14-.1Z" transform="translate(-5.13 -5.13)"/><path class="cls-7" d="M111.67,37.21a.41.41,0,0,1,.21.17.22.22,0,0,1,0,.22.25.25,0,0,1-.16.16.37.37,0,0,1-.27,0l-.26-.1a.39.39,0,0,1-.22-.16.27.27,0,0,1,.15-.39.43.43,0,0,1,.27,0Zm-.33,0a.36.36,0,0,0-.17,0,.12.12,0,0,0-.1.08.11.11,0,0,0,0,.12.36.36,0,0,0,.15.1l.29.11a.31.31,0,0,0,.18,0,.13.13,0,0,0,.07-.21.24.24,0,0,0-.14-.09Z" transform="translate(-5.13 -5.13)"/><path class="cls-7" d="M111.92,36.56a.42.42,0,0,1,.22.16.26.26,0,0,1,0,.23.25.25,0,0,1-.16.16.43.43,0,0,1-.27,0l-.26-.1a.4.4,0,0,1-.22-.17.26.26,0,0,1,.15-.38.37.37,0,0,1,.27,0Zm-.33,0a.27.27,0,0,0-.17,0,.14.14,0,0,0-.1.08.12.12,0,0,0,0,.13.27.27,0,0,0,.15.09l.29.12a.4.4,0,0,0,.18,0,.12.12,0,0,0,.1-.08.13.13,0,0,0,0-.12.36.36,0,0,0-.15-.1Z" transform="translate(-5.13 -5.13)"/><path class="cls-7" d="M112.17,35.91a.42.42,0,0,1,.22.16.26.26,0,0,1,0,.23.25.25,0,0,1-.16.16.44.44,0,0,1-.27,0l-.26-.1a.42.42,0,0,1-.22-.16.26.26,0,0,1,0-.23.25.25,0,0,1,.16-.16.44.44,0,0,1,.27,0Zm-.32,0a.31.31,0,0,0-.18,0,.14.14,0,0,0-.1.08.13.13,0,0,0,0,.12.28.28,0,0,0,.15.1l.29.11a.31.31,0,0,0,.18,0,.14.14,0,0,0,.1-.08.13.13,0,0,0,0-.12.36.36,0,0,0-.15-.1Z" transform="translate(-5.13 -5.13)"/><path class="cls-7" d="M112.42,35.25a.4.4,0,0,1,.22.17.24.24,0,0,1,0,.22.22.22,0,0,1-.16.16.37.37,0,0,1-.27,0l-.26-.1a.47.47,0,0,1-.22-.16.26.26,0,0,1,0-.23.25.25,0,0,1,.16-.16.43.43,0,0,1,.27,0Zm-.32,0a.4.4,0,0,0-.18,0,.12.12,0,0,0-.1.08.13.13,0,0,0,0,.12.36.36,0,0,0,.15.1l.3.11a.27.27,0,0,0,.17,0,.14.14,0,0,0,.1-.08.12.12,0,0,0,0-.13.35.35,0,0,0-.15-.09Z" transform="translate(-5.13 -5.13)"/><path class="cls-7" d="M112.67,34.6a.36.36,0,0,1,.22.17.24.24,0,0,1,0,.22.3.3,0,0,1-.17.16.37.37,0,0,1-.27,0l-.26-.1a.41.41,0,0,1-.21-.17.22.22,0,0,1,0-.22.25.25,0,0,1,.16-.16.37.37,0,0,1,.27,0Zm-.32,0a.42.42,0,0,0-.18,0,.11.11,0,0,0-.09.08.12.12,0,0,0,0,.13.44.44,0,0,0,.15.1l.3.11a.26.26,0,0,0,.17,0,.11.11,0,0,0,.1-.07.12.12,0,0,0,0-.13.36.36,0,0,0-.15-.1Z" transform="translate(-5.13 -5.13)"/><path class="cls-7" d="M112.93,34a.39.39,0,0,1,.21.16.26.26,0,0,1,0,.23.27.27,0,0,1-.17.16.43.43,0,0,1-.27,0l-.26-.1a.41.41,0,0,1-.21-.17.26.26,0,0,1,0-.23.24.24,0,0,1,.16-.15.4.4,0,0,1,.28,0Zm-.33,0a.31.31,0,0,0-.18,0,.12.12,0,0,0-.09.08.11.11,0,0,0,0,.12.3.3,0,0,0,.14.1l.3.12a.36.36,0,0,0,.17,0c.05,0,.09,0,.1-.08a.11.11,0,0,0,0-.12.36.36,0,0,0-.15-.1Z" transform="translate(-5.13 -5.13)"/><path class="cls-7" d="M113.18,33.29a.41.41,0,0,1,.21.17.26.26,0,0,1,0,.23.23.23,0,0,1-.17.15.37.37,0,0,1-.27,0l-.26-.1a.39.39,0,0,1-.21-.16.26.26,0,0,1,0-.23.27.27,0,0,1,.17-.16.43.43,0,0,1,.27,0Zm-.33,0a.37.37,0,0,0-.17,0,.12.12,0,0,0-.1.08.11.11,0,0,0,0,.12.36.36,0,0,0,.15.1l.29.11a.31.31,0,0,0,.18,0,.12.12,0,0,0,.09-.08.11.11,0,0,0,0-.12.3.3,0,0,0-.14-.1Z" transform="translate(-5.13 -5.13)"/><path class="cls-7" d="M113.43,32.64a.41.41,0,0,1,.21.17.22.22,0,0,1,0,.22.25.25,0,0,1-.16.16.4.4,0,0,1-.28,0l-.25-.1a.36.36,0,0,1-.22-.17.24.24,0,0,1,0-.22.25.25,0,0,1,.17-.16.37.37,0,0,1,.27,0Zm-.33,0a.27.27,0,0,0-.17,0,.11.11,0,0,0-.1.07.12.12,0,0,0,0,.13.36.36,0,0,0,.15.1l.29.11a.42.42,0,0,0,.18,0,.16.16,0,0,0,.1-.08.15.15,0,0,0,0-.13.32.32,0,0,0-.14-.1Z" transform="translate(-5.13 -5.13)"/><path class="cls-7" d="M113.68,32a.42.42,0,0,1,.22.16.26.26,0,0,1,0,.23.25.25,0,0,1-.16.16.43.43,0,0,1-.27,0l-.26-.1a.4.4,0,0,1-.22-.17.26.26,0,0,1,0-.23.25.25,0,0,1,.17-.15.37.37,0,0,1,.27,0Zm-.33,0a.27.27,0,0,0-.17,0,.14.14,0,0,0-.1.08.12.12,0,0,0,0,.13.35.35,0,0,0,.15.09l.29.12a.4.4,0,0,0,.18,0,.12.12,0,0,0,.1-.08.13.13,0,0,0,0-.12.36.36,0,0,0-.15-.1Z" transform="translate(-5.13 -5.13)"/><path class="cls-7" d="M113.93,31.33a.44.44,0,0,1,.22.17.26.26,0,0,1,0,.23.25.25,0,0,1-.16.16.44.44,0,0,1-.27,0l-.26-.1a.42.42,0,0,1-.22-.16.26.26,0,0,1,0-.23.25.25,0,0,1,.16-.16.44.44,0,0,1,.27,0Zm-.32,0a.31.31,0,0,0-.18,0,.14.14,0,0,0-.1.08.13.13,0,0,0,0,.12.36.36,0,0,0,.15.1l.29.11a.31.31,0,0,0,.18,0,.14.14,0,0,0,.1-.08.13.13,0,0,0,0-.12.36.36,0,0,0-.15-.1Z" transform="translate(-5.13 -5.13)"/><path class="cls-7" d="M114.18,30.68a.4.4,0,0,1,.22.17.24.24,0,0,1,0,.22.23.23,0,0,1-.16.16.37.37,0,0,1-.27,0l-.26-.1a.47.47,0,0,1-.22-.16.27.27,0,0,1,0-.23.25.25,0,0,1,.16-.16.43.43,0,0,1,.27,0Zm-.32,0a.4.4,0,0,0-.18,0,.12.12,0,0,0-.1.08.13.13,0,0,0,0,.12.36.36,0,0,0,.15.1l.3.11a.36.36,0,0,0,.17,0,.14.14,0,0,0,.1-.08.12.12,0,0,0,0-.13.27.27,0,0,0-.15-.09Z" transform="translate(-5.13 -5.13)"/><rect class="cls-7" x="103.48" y="40.99" width="0.25" height="7.68" transform="translate(19.41 120.28) rotate(-68.94)"/><rect class="cls-7" x="103.94" y="39.94" width="0.13" height="7.68" transform="translate(20.65 119.99) rotate(-68.94)"/><rect class="cls-7" x="106.24" y="33.79" width="0.27" height="7.68" transform="translate(27.91 118.26) rotate(-68.94)"/><rect class="cls-7" x="106.85" y="32.2" width="0.27" height="7.68" transform="translate(29.78 117.81) rotate(-68.94)"/><rect class="cls-7" x="104.1" y="39.57" width="0.1" height="7.68" transform="translate(21.09 119.88) rotate(-68.94)"/><rect class="cls-7" x="106.15" y="34.26" width="0.1" height="7.68" transform="translate(27.36 118.39) rotate(-68.94)"/><rect class="cls-7" x="107.7" y="30.23" width="0.1" height="7.68" transform="translate(32.11 117.25) rotate(-68.94)"/><rect class="cls-7" x="109.45" y="25.68" width="0.1" height="7.68" transform="translate(37.49 115.97) rotate(-68.94)"/><rect class="cls-7" x="108.55" y="28.02" width="0.1" height="7.68" transform="translate(34.72 116.63) rotate(-68.94)"/><rect class="cls-7" x="108.89" y="27.11" width="0.12" height="7.68" transform="translate(35.79 116.37) rotate(-68.94)"/><rect class="cls-7" x="105.04" y="37.13" width="0.1" height="7.68" transform="translate(23.97 119.19) rotate(-68.94)"/><rect class="cls-7" x="105.98" y="34.64" width="0.14" height="7.68" transform="translate(26.91 118.49) rotate(-68.94)"/><rect class="cls-7" x="103.64" y="40.34" width="0.43" height="7.68" transform="translate(20.18 120.1) rotate(-68.94)"/><rect class="cls-7" x="105.41" y="35.75" width="0.43" height="7.68" transform="translate(25.59 118.81) rotate(-68.94)"/><rect class="cls-7" x="105.62" y="35.1" width="0.5" height="7.68" transform="translate(26.37 118.62) rotate(-68.94)"/><rect class="cls-7" x="108.14" y="28.49" width="0.55" height="7.68" transform="translate(34.17 116.76) rotate(-68.94)"/><rect class="cls-7" x="108.8" y="26.42" width="0.83" height="7.68" transform="translate(36.61 116.18) rotate(-68.94)"/><rect class="cls-7" x="108.52" y="27.7" width="0.4" height="7.68" transform="translate(35.1 116.54) rotate(-68.94)"/><rect class="cls-7" x="106.27" y="33.07" width="0.77" height="7.68" transform="translate(28.76 118.05) rotate(-68.94)"/><rect class="cls-7" x="106.68" y="31.33" width="1.29" height="7.68" transform="translate(30.81 117.56) rotate(-68.94)"/><rect class="cls-7" x="104.27" y="38.04" width="0.93" height="7.68" transform="translate(22.89 119.45) rotate(-68.94)"/><rect class="cls-7" x="104.18" y="39.1" width="0.29" height="7.68" transform="translate(21.64 119.75) rotate(-68.94)"/><rect class="cls-7" x="105.13" y="36.65" width="0.29" height="7.68" transform="translate(24.53 119.06) rotate(-68.94)"/><rect class="cls-7" x="107.79" y="29.74" width="0.29" height="7.68" transform="translate(32.68 117.12) rotate(-68.94)"/><rect class="cls-7" x="109.54" y="25.18" width="0.29" height="7.68" transform="translate(38.07 115.83) rotate(-68.94)"/><rect class="cls-7" x="107.96" y="29.29" width="0.29" height="7.68" transform="translate(33.22 116.99) rotate(-68.94)"/><path class="cls-4" d="M86.34,65.54l-1.54,4L84,69.24l-1.59-2.7a5.06,5.06,0,0,0-.69-.9,1.83,1.83,0,0,0-.62-.44,1.36,1.36,0,0,0-.74-.1.64.64,0,0,0-.45.41.66.66,0,0,0,.11.67,1.68,1.68,0,0,0,.74.51l-.48,1.25h0a2.22,2.22,0,0,1-1.29-1.11,2,2,0,0,1,0-1.7,2.06,2.06,0,0,1,1.07-1.24,2,2,0,0,1,1.6,0,2.23,2.23,0,0,1,1,.72,11.11,11.11,0,0,1,1,1.5l1,1.39.91-2.37Z" transform="translate(-5.13 -5.13)"/><path class="cls-4" d="M88,61.16l-1.55,4-.84-.32L84,62.16a5,5,0,0,0-.68-.9,1.86,1.86,0,0,0-.63-.44,1.35,1.35,0,0,0-.74-.1.64.64,0,0,0-.44.42.62.62,0,0,0,.11.66,1.62,1.62,0,0,0,.74.51l-.48,1.25h0a2.19,2.19,0,0,1-1.28-1.1,2,2,0,0,1,0-1.71,2.08,2.08,0,0,1,1.08-1.24,2,2,0,0,1,1.59,0,2.23,2.23,0,0,1,1,.72,10.1,10.1,0,0,1,1,1.5l.95,1.39L87,60.78Z" transform="translate(-5.13 -5.13)"/><path class="cls-4" d="M88.79,59.2l-6.56-2.53.78-2a2.34,2.34,0,0,1,1.42-1.4,3.09,3.09,0,0,1,2.23.09l1.09.41a3.12,3.12,0,0,1,1.71,1.43,2.32,2.32,0,0,1,.11,2Zm-5.07-3.41,4.57,1.75.29-.75a1,1,0,0,0-.18-1A2.62,2.62,0,0,0,87.26,55l-1.1-.42a2.42,2.42,0,0,0-1.36-.18A1,1,0,0,0,84,55Z" transform="translate(-5.13 -5.13)"/><path class="cls-8" d="M101.93,32.12l-.67,1.75-.28-.11-.79-1.29a2.43,2.43,0,0,0-.37-.48,1,1,0,0,0-.33-.22.64.64,0,0,0-.4,0,.37.37,0,0,0-.26.24.46.46,0,0,0,0,.41.84.84,0,0,0,.39.28l-.16.41h0a.94.94,0,0,1-.55-.48A1,1,0,0,1,99,31.33a.92.92,0,0,1,.69,0,1.09,1.09,0,0,1,.44.33,5.41,5.41,0,0,1,.44.63l.6.91.47-1.22Z" transform="translate(-5.13 -5.13)"/><path class="cls-8" d="M102.7,30.13,102,31.88l-.29-.11L101,30.48a3.27,3.27,0,0,0-.36-.47,1.06,1.06,0,0,0-.33-.22.6.6,0,0,0-.41,0,.35.35,0,0,0-.25.24.38.38,0,0,0,0,.4.75.75,0,0,0,.38.28l-.16.42h0a.94.94,0,0,1-.55-.48.89.89,0,0,1,0-.75.82.82,0,0,1,1.15-.5,1.07,1.07,0,0,1,.45.32,5.53,5.53,0,0,1,.43.63l.61.92.47-1.22Z" transform="translate(-5.13 -5.13)"/><path class="cls-8" d="M103.08,29.15l-3-1.16.33-.86a1.09,1.09,0,0,1,.67-.67,1.56,1.56,0,0,1,1.06.05l.43.17a1.48,1.48,0,0,1,.81.67,1.07,1.07,0,0,1,.06.94Zm-2.55-1.46,2.39.92.17-.44a.62.62,0,0,0-.09-.61,1.29,1.29,0,0,0-.63-.45l-.43-.17a1.24,1.24,0,0,0-.77-.08.61.61,0,0,0-.47.39Z" transform="translate(-5.13 -5.13)"/><path class="cls-4" d="M78.5,34.78,77,34.2l.16-.42a.5.5,0,0,1,.23-.29.39.39,0,0,1,.35,0,.43.43,0,0,1,.17.13.31.31,0,0,1,.06.19.3.3,0,0,1,.2-.15.5.5,0,0,1,.27,0,.41.41,0,0,1,.27.24.53.53,0,0,1,0,.37Zm-.77-.54.09-.24a.23.23,0,0,0,0-.18.3.3,0,0,0-.16-.12.23.23,0,0,0-.21,0,.24.24,0,0,0-.13.16l-.08.2Zm.15.06.54.21.12-.29a.26.26,0,0,0-.18-.34.35.35,0,0,0-.22,0A.24.24,0,0,0,78,34h0Z" transform="translate(-5.13 -5.13)"/><path class="cls-4" d="M78.79,32.4a.59.59,0,0,1,.36.31.61.61,0,0,1-.29.76.6.6,0,0,1-.47,0L78,33.29a.68.68,0,0,1-.36-.3.56.56,0,0,1,0-.44.53.53,0,0,1,.3-.32.64.64,0,0,1,.47,0Zm-.49.05a.5.5,0,0,0-.33,0,.33.33,0,0,0-.2.2.32.32,0,0,0,0,.27.52.52,0,0,0,.27.19l.42.16a.5.5,0,0,0,.33,0,.3.3,0,0,0,.19-.19.3.3,0,0,0,0-.28.53.53,0,0,0-.27-.2Z" transform="translate(-5.13 -5.13)"/><path class="cls-4" d="M79.3,31.58l-.17.45.33.25-.08.22-1.33-1,.07-.2,1.68.14-.08.21Zm-.32.34.13-.35-.68-.07h0Z" transform="translate(-5.13 -5.13)"/><path class="cls-4" d="M79.3,30.78,80,31l-.08.21-1.51-.58.17-.44a.51.51,0,0,1,.24-.29.48.48,0,0,1,.55.14.49.49,0,0,1,.08.21.28.28,0,0,1,.19-.12.43.43,0,0,1,.24,0l.14.05.13,0a.2.2,0,0,0,.11,0h0l-.08.22a.24.24,0,0,1-.12,0l-.15,0-.13-.05a.34.34,0,0,0-.22,0,.19.19,0,0,0-.13.13Zm-.16-.06.08-.22a.25.25,0,0,0,0-.22.3.3,0,0,0-.17-.14.38.38,0,0,0-.23,0,.28.28,0,0,0-.14.16l-.09.23Z" transform="translate(-5.13 -5.13)"/><path class="cls-4" d="M80.32,30.07l-1.51-.58.16-.42a.58.58,0,0,1,.34-.33.73.73,0,0,1,.52,0l.22.08a.7.7,0,0,1,.4.33.55.55,0,0,1,0,.47Zm-1.27-.73,1.19.46.08-.22a.28.28,0,0,0,0-.29.66.66,0,0,0-.32-.23L79.75,29a.58.58,0,0,0-.38,0,.3.3,0,0,0-.24.19Z" transform="translate(-5.13 -5.13)"/><path class="cls-4" d="M80.87,28.62l-.08.21-1.5-.58.08-.21Z" transform="translate(-5.13 -5.13)"/><path class="cls-4" d="M81.38,27.32l-.08.21L80,27.68h0l1.11.43-.08.21-1.5-.58.07-.21,1.33-.15h0L79.79,27l.08-.21Z" transform="translate(-5.13 -5.13)"/><path class="cls-4" d="M81.66,26a.52.52,0,0,1,.08.23.58.58,0,0,1,0,.33.54.54,0,0,1-.29.32.57.57,0,0,1-.46,0l-.45-.17a.61.61,0,0,1-.35-.29.53.53,0,0,1,0-.43.51.51,0,0,1,.25-.3.44.44,0,0,1,.37,0h0l-.08.2a.34.34,0,0,0-.24,0,.36.36,0,0,0-.15.17.29.29,0,0,0,0,.26.46.46,0,0,0,.25.19l.45.17a.49.49,0,0,0,.33,0,.29.29,0,0,0,.18-.18.5.5,0,0,0,0-.19.22.22,0,0,0,0-.12l-.35-.13-.11.27-.15-.06.19-.48Z" transform="translate(-5.13 -5.13)"/><path class="cls-4" d="M81.62,24.91l.6.22-.08.21-1.51-.58.19-.48a.49.49,0,0,1,.25-.29.55.55,0,0,1,.38,0,.47.47,0,0,1,.28.25.5.5,0,0,1,0,.38Zm-.16-.07.11-.27a.24.24,0,0,0,0-.22.35.35,0,0,0-.19-.14.4.4,0,0,0-.24,0,.22.22,0,0,0-.15.15l-.11.28Z" transform="translate(-5.13 -5.13)"/><path class="cls-4" d="M82.4,23.52l-.17.44.34.26-.08.22-1.34-1,.08-.2,1.68.13-.09.22Zm-.32.33.14-.35-.68-.06h0Z" transform="translate(-5.13 -5.13)"/><path class="cls-4" d="M82.86,22.34a.34.34,0,0,0-.2,0,.51.51,0,0,0-.2.16.74.74,0,0,1-.29.25.4.4,0,0,1-.32,0,.45.45,0,0,1-.25-.24.5.5,0,0,1,0-.36.52.52,0,0,1,.25-.29.52.52,0,0,1,.37,0h0l-.08.2a.33.33,0,0,0-.24,0,.28.28,0,0,0-.15.15.23.23,0,0,0,0,.2.28.28,0,0,0,.15.13.31.31,0,0,0,.19,0,.92.92,0,0,0,.21-.17.83.83,0,0,1,.29-.25.4.4,0,0,1,.32,0,.36.36,0,0,1,.25.23.56.56,0,0,1,0,.38.51.51,0,0,1-.25.29.41.41,0,0,1-.39,0h0l.08-.2a.29.29,0,0,0,.26,0,.28.28,0,0,0,.15-.17.28.28,0,0,0,0-.2A.29.29,0,0,0,82.86,22.34Z" transform="translate(-5.13 -5.13)"/><path class="cls-4" d="M83.29,21.22a.28.28,0,0,0-.2,0,.68.68,0,0,0-.2.15.77.77,0,0,1-.29.26.4.4,0,0,1-.32,0A.45.45,0,0,1,82,21.4.5.5,0,0,1,82,21a.47.47,0,0,1,.26-.29.48.48,0,0,1,.37,0h0l-.08.2a.33.33,0,0,0-.24,0,.22.22,0,0,0-.15.15.2.2,0,0,0,0,.2.27.27,0,0,0,.33.13.77.77,0,0,0,.21-.18A1,1,0,0,1,83,21a.47.47,0,0,1,.33,0,.41.41,0,0,1,.24.24.48.48,0,0,1,0,.37.53.53,0,0,1-.25.3.41.41,0,0,1-.39,0h0l.07-.2a.29.29,0,0,0,.26,0,.28.28,0,0,0,.15-.17.24.24,0,0,0,0-.2A.26.26,0,0,0,83.29,21.22Z" transform="translate(-5.13 -5.13)"/><path class="cls-4" d="M76.28,33.41l-.14.35.45.17,0,.14-1-.38.21-.55.11,0-.16.41.35.13.13-.35Z" transform="translate(-5.13 -5.13)"/><path class="cls-4" d="M76.85,33.25l0,.14-1-.39,0-.14Z" transform="translate(-5.13 -5.13)"/><path class="cls-4" d="M76.55,32.74l.44.17-.06.13-1-.38.11-.29a.37.37,0,0,1,.16-.2.33.33,0,0,1,.37.09.34.34,0,0,1,.05.14.17.17,0,0,1,.13-.07.31.31,0,0,1,.16,0l.09,0,.09,0h.09l-.06.14a.11.11,0,0,1-.08,0l-.1,0-.08,0a.27.27,0,0,0-.15,0,.13.13,0,0,0-.09.09Zm-.1,0,0-.15a.14.14,0,0,0,0-.14.25.25,0,0,0-.12-.1.26.26,0,0,0-.15,0,.17.17,0,0,0-.09.11l-.06.15Z" transform="translate(-5.13 -5.13)"/><path class="cls-4" d="M77.15,31.71a.24.24,0,0,0-.12,0,.32.32,0,0,0-.14.11.58.58,0,0,1-.19.17.28.28,0,0,1-.22,0,.25.25,0,0,1-.16-.16.33.33,0,0,1,0-.24.4.4,0,0,1,.17-.19.36.36,0,0,1,.25,0h0l0,.13a.3.3,0,0,0-.16,0,.17.17,0,0,0-.1.1.17.17,0,0,0,0,.14.27.27,0,0,0,.1.08.15.15,0,0,0,.13,0,.92.92,0,0,0,.14-.11.58.58,0,0,1,.19-.17.34.34,0,0,1,.22,0,.26.26,0,0,1,.16.15.36.36,0,0,1,0,.25.38.38,0,0,1-.17.2.29.29,0,0,1-.26,0h0l0-.13a.21.21,0,0,0,.17,0,.23.23,0,0,0,.1-.12.23.23,0,0,0,0-.14A.2.2,0,0,0,77.15,31.71Z" transform="translate(-5.13 -5.13)"/><path class="cls-4" d="M76.85,30.58l-.1.26.9.35-.06.14L76.7,31l-.1.26-.11,0,.26-.66Z" transform="translate(-5.13 -5.13)"/><path class="cls-4" d="M77.85,29.76h0a.27.27,0,0,1,.19.17.3.3,0,0,1,0,.26.35.35,0,0,1-.2.21.42.42,0,0,1-.31,0l-.28-.1a.45.45,0,0,1-.24-.2.34.34,0,0,1,0-.28.41.41,0,0,1,.17-.21.36.36,0,0,1,.27,0h0l0,.14a.24.24,0,0,0-.18,0,.2.2,0,0,0-.1.12.2.2,0,0,0,0,.17.52.52,0,0,0,.18.13l.28.1a.33.33,0,0,0,.23,0,.2.2,0,0,0,.12-.12c0-.06,0-.11,0-.15a.27.27,0,0,0-.14-.11Z" transform="translate(-5.13 -5.13)"/><path class="cls-4" d="M78.16,29.54l.15-.4.11,0-.21.54-1-.38.05-.14Z" transform="translate(-5.13 -5.13)"/><path class="cls-4" d="M78.39,28.5l-.11.29.22.17,0,.15-.89-.69,0-.13,1.12.09-.06.14Zm-.21.22.09-.23-.45,0h0Z" transform="translate(-5.13 -5.13)"/><path class="cls-4" d="M78.69,27.71a.24.24,0,0,0-.12,0,.32.32,0,0,0-.14.11.58.58,0,0,1-.19.17A.28.28,0,0,1,78,28a.25.25,0,0,1-.16-.16.33.33,0,0,1,0-.24A.4.4,0,0,1,78,27.4a.36.36,0,0,1,.25,0h0l0,.13a.22.22,0,0,0-.16,0,.17.17,0,0,0-.1.1.17.17,0,0,0,0,.14.27.27,0,0,0,.1.08.15.15,0,0,0,.13,0,.92.92,0,0,0,.14-.11.58.58,0,0,1,.19-.17.28.28,0,0,1,.22,0,.31.31,0,0,1,.16.16.36.36,0,0,1,0,.25.37.37,0,0,1-.17.2.29.29,0,0,1-.26,0h0l0-.13a.17.17,0,0,0,.17,0,.18.18,0,0,0,.1-.11.23.23,0,0,0,0-.14A.2.2,0,0,0,78.69,27.71Z" transform="translate(-5.13 -5.13)"/><path class="cls-4" d="M79,27a.17.17,0,0,0-.12,0,.42.42,0,0,0-.14.11.52.52,0,0,1-.2.17.29.29,0,0,1-.37-.16.33.33,0,0,1,0-.24.35.35,0,0,1,.17-.19.31.31,0,0,1,.25,0h0l0,.13a.3.3,0,0,0-.16,0,.17.17,0,0,0-.1.1.17.17,0,0,0,0,.14.16.16,0,0,0,.1.08.15.15,0,0,0,.13,0,.4.4,0,0,0,.13-.11.47.47,0,0,1,.2-.16.28.28,0,0,1,.22,0,.25.25,0,0,1,.16.16.33.33,0,0,1,0,.24.38.38,0,0,1-.17.2.27.27,0,0,1-.26,0h0l.06-.14a.2.2,0,0,0,.17,0,.2.2,0,0,0,.1-.12.15.15,0,0,0,0-.13S79,27,79,27Z" transform="translate(-5.13 -5.13)"/><path class="cls-8" d="M83.77,36.72l-.12.31.4.15,0,.13L83.11,37l.19-.49.09,0-.14.37.31.12.12-.32Z" transform="translate(-5.13 -5.13)"/><path class="cls-8" d="M84.19,36.54l.14-.36.09,0-.18.48-.9-.34,0-.12Z" transform="translate(-5.13 -5.13)"/><path class="cls-8" d="M84.52,36l0,.13-.89-.35,0-.12Z" transform="translate(-5.13 -5.13)"/><path class="cls-8" d="M84.69,35.17a.19.19,0,0,1,0,.13.38.38,0,0,1,0,.2.29.29,0,0,1-.17.19.32.32,0,0,1-.27,0l-.27-.1a.41.41,0,0,1-.21-.17.39.39,0,0,1,0-.26.35.35,0,0,1,.15-.18.28.28,0,0,1,.22,0h0l0,.11a.23.23,0,0,0-.14,0,.17.17,0,0,0-.09.11.16.16,0,0,0,0,.15.24.24,0,0,0,.15.12l.26.1a.28.28,0,0,0,.2,0,.15.15,0,0,0,.11-.11.23.23,0,0,0,0-.11.09.09,0,0,0,0-.07l-.2-.08-.07.16-.09,0,.11-.29Z" transform="translate(-5.13 -5.13)"/><path class="cls-8" d="M85.1,34.45l0,.12-.4-.15-.13.35.39.15,0,.13L84,34.7l0-.12.4.16.14-.35-.41-.16,0-.12Z" transform="translate(-5.13 -5.13)"/><path class="cls-8" d="M84.57,33.46l-.09.23.8.31,0,.12-.8-.3-.09.23-.09,0,.22-.6Z" transform="translate(-5.13 -5.13)"/><path class="cls-8" d="M85,33.05l0,.12-.13,0L84.9,33Zm.53.21,0,.12-.12-.05,0-.12Z" transform="translate(-5.13 -5.13)"/><path class="cls-8" d="M85.9,37.61a.24.24,0,0,0,0-.22.58.58,0,0,0-.24-.18l-.14-.05a.34.34,0,0,1,.07.15.26.26,0,0,1,0,.15.41.41,0,0,1-.24.24.64.64,0,0,1-.38,0,.65.65,0,0,1-.31-.25.39.39,0,0,1,0-.35.39.39,0,0,1,.25-.25.55.55,0,0,1,.43,0l.43.16a.57.57,0,0,1,.33.27.46.46,0,0,1,0,.38.91.91,0,0,1-.07.14l-.09.11-.14-.09a.38.38,0,0,0,.09-.09Zm-.49-.23a.25.25,0,0,0-.07-.28L85.18,37a.42.42,0,0,0-.28,0,.22.22,0,0,0-.15.13.2.2,0,0,0,0,.19.53.53,0,0,0,.22.15.45.45,0,0,0,.25,0A.16.16,0,0,0,85.41,37.38Z" transform="translate(-5.13 -5.13)"/><path class="cls-8" d="M85.67,36.7l-.76-.38.26-.67.16.06-.19.5.41.21a.5.5,0,0,1,0-.12.2.2,0,0,1,0-.13.33.33,0,0,1,.23-.23.65.65,0,0,1,.38,0,.62.62,0,0,1,.3.24.38.38,0,0,1,0,.36.44.44,0,0,1-.21.25.38.38,0,0,1-.33,0h0l.07-.19a.32.32,0,0,0,.21,0,.2.2,0,0,0,.12-.13.19.19,0,0,0,0-.19.47.47,0,0,0-.22-.15.57.57,0,0,0-.25,0,.2.2,0,0,0-.14.13.28.28,0,0,0,0,.15.19.19,0,0,0,.09.11Z" transform="translate(-5.13 -5.13)"/><path class="cls-8" d="M85.43,34.92a.61.61,0,0,1,.07-.14l.09-.1.13.09-.08.09a.67.67,0,0,0-.06.12.22.22,0,0,0,0,.23.54.54,0,0,0,.26.19l.11,0a.43.43,0,0,1,0-.16.38.38,0,0,1,0-.18.33.33,0,0,1,.22-.21.55.55,0,0,1,.37,0,.53.53,0,0,1,.3.24.43.43,0,0,1,0,.35.42.42,0,0,1-.27.25.71.71,0,0,1-.45,0l-.35-.14a.64.64,0,0,1-.35-.29A.39.39,0,0,1,85.43,34.92Zm.66.3a.31.31,0,0,0,0,.16.47.47,0,0,0,.07.12l.1,0a.66.66,0,0,0,.32.05.23.23,0,0,0,.17-.13.22.22,0,0,0,0-.19.53.53,0,0,0-.22-.15.57.57,0,0,0-.25,0A.23.23,0,0,0,86.09,35.22Z" transform="translate(-5.13 -5.13)"/><path class="cls-8" d="M86.14,33.58a1.9,1.9,0,0,0,.42.52,1.87,1.87,0,0,0,.54.31l.16.06-.08.2L87,34.61a1.79,1.79,0,0,1-.55-.33,3,3,0,0,1-.41-.5l-.26.67-.15-.06.34-.87Z" transform="translate(-5.13 -5.13)"/><path class="cls-8" d="M86.73,32.67a.4.4,0,0,1,.18.13A.48.48,0,0,1,87,33a.39.39,0,0,1,.2-.13.4.4,0,0,1,.24,0,.46.46,0,0,1,.26.23.53.53,0,0,1,0,.35.54.54,0,0,1-.23.28.43.43,0,0,1-.35,0,.32.32,0,0,1-.19-.15.39.39,0,0,1-.06-.24.36.36,0,0,1-.41.09.38.38,0,0,1-.24-.22.44.44,0,0,1,0-.32.36.36,0,0,1,.21-.24A.36.36,0,0,1,86.73,32.67Zm-.07.2a.25.25,0,0,0-.19,0,.18.18,0,0,0-.12.1.2.2,0,0,0,0,.17.23.23,0,0,0,.15.12.29.29,0,0,0,.2,0,.2.2,0,0,0,.11-.28A.4.4,0,0,0,86.66,32.87Zm.68.22a.28.28,0,0,0-.22,0,.2.2,0,0,0-.14.13.28.28,0,0,0,0,.2.34.34,0,0,0,.17.14.34.34,0,0,0,.22,0,.24.24,0,0,0,.13-.15.21.21,0,0,0,0-.19A.33.33,0,0,0,87.34,33.09Z" transform="translate(-5.13 -5.13)"/><path class="cls-8" d="M87.77,32.05l-.16.43.32.24-.08.21-1.26-1,.08-.19,1.58.12-.08.21Zm-.3.32L87.6,32,87,32h0Z" transform="translate(-5.13 -5.13)"/><path class="cls-8" d="M92.1,39.77a.38.38,0,0,1,.05.14.34.34,0,0,1,0,.19.32.32,0,0,1-.17.19.34.34,0,0,1-.28,0l-.26-.11A.31.31,0,0,1,91.2,40a.28.28,0,0,1,0-.25.32.32,0,0,1,.15-.19.25.25,0,0,1,.22,0h0l0,.12a.17.17,0,0,0-.14,0,.19.19,0,0,0-.08.26.37.37,0,0,0,.15.11l.27.1a.27.27,0,0,0,.19,0,.2.2,0,0,0,.11-.11A.16.16,0,0,0,92,40a.19.19,0,0,0,0-.08l-.21-.08-.06.17-.1,0,.12-.29Z" transform="translate(-5.13 -5.13)"/><path class="cls-8" d="M92.2,39.17l-.1.27.2.15,0,.13-.79-.61.05-.13,1,.08,0,.13Zm-.19.2.08-.21-.4,0h0Z" transform="translate(-5.13 -5.13)"/><path class="cls-8" d="M91.92,38.2l-.09.24.8.3,0,.13-.8-.31-.09.23-.09,0,.22-.6Z" transform="translate(-5.13 -5.13)"/><path class="cls-8" d="M92.51,37.81l-.12.31.32.12.14-.36.09,0-.18.48-.89-.34.18-.48.1,0L92,38l.29.11.11-.3Z" transform="translate(-5.13 -5.13)"/><path class="cls-8" d="M92.61,37.19l0,.12-.12-.05,0-.12Zm.54.2-.05.13L93,37.47l0-.13Z" transform="translate(-5.13 -5.13)"/><path class="cls-8" d="M93.75,39.9a.59.59,0,0,1,.34.29.58.58,0,0,1-.28.73.57.57,0,0,1-.44,0l-.4-.15a.58.58,0,0,1-.34-.29.49.49,0,0,1,0-.41.51.51,0,0,1,.28-.31.59.59,0,0,1,.45,0Zm-.47.05a.44.44,0,0,0-.31,0,.3.3,0,0,0-.19.19.29.29,0,0,0,0,.26.46.46,0,0,0,.25.18l.39.15a.54.54,0,0,0,.32,0,.31.31,0,0,0,.18-.19.3.3,0,0,0,0-.26.49.49,0,0,0-.26-.19Z" transform="translate(-5.13 -5.13)"/><path class="cls-8" d="M94.67,39.06l-.32.82-.13-.05-.37-.61a1.64,1.64,0,0,0-.18-.22.53.53,0,0,0-.15-.11.32.32,0,0,0-.19,0,.15.15,0,0,0-.12.11.19.19,0,0,0,0,.19.35.35,0,0,0,.18.13l-.08.2h0a.46.46,0,0,1-.26-.23.46.46,0,0,1,.2-.59.47.47,0,0,1,.33,0,.54.54,0,0,1,.21.16,2.31,2.31,0,0,1,.2.29l.29.43.22-.57Z" transform="translate(-5.13 -5.13)"/><path class="cls-8" d="M87.9,38.35a.14.14,0,0,0-.11,0,.44.44,0,0,0-.12.1.73.73,0,0,1-.17.15.23.23,0,0,1-.2,0,.24.24,0,0,1-.14-.14.33.33,0,0,1,.16-.38.28.28,0,0,1,.22,0h0l-.05.12a.23.23,0,0,0-.14,0,.2.2,0,0,0-.09.09.13.13,0,0,0,0,.12.18.18,0,0,0,.09.08h.11a.35.35,0,0,0,.12-.1.48.48,0,0,1,.18-.15.21.21,0,0,1,.19,0,.26.26,0,0,1,.15.14.36.36,0,0,1-.16.4.28.28,0,0,1-.24,0h0l0-.12a.19.19,0,0,0,.15,0,.22.22,0,0,0,.09-.1.2.2,0,0,0,0-.13A.15.15,0,0,0,87.9,38.35Z" transform="translate(-5.13 -5.13)"/><path class="cls-8" d="M88,37.58l-.12.3.32.13.14-.36.1,0-.19.48-.89-.35.18-.47.1,0-.14.36.29.11.12-.31Z" transform="translate(-5.13 -5.13)"/><path class="cls-8" d="M88.39,37.08l-.1.27.2.15,0,.13L87.65,37l0-.13,1,.08,0,.13Zm-.19.2.08-.21-.4,0h0Z" transform="translate(-5.13 -5.13)"/><path class="cls-8" d="M88.11,36.11l-.09.24.79.3,0,.13-.8-.31-.09.24-.1,0,.23-.6Z" transform="translate(-5.13 -5.13)"/><path class="cls-8" d="M88.56,35.7l0,.13-.13,0,0-.13Zm.54.21,0,.12-.12,0,0-.13Z" transform="translate(-5.13 -5.13)"/><path class="cls-8" d="M90.19,38.7l-.32.82-.13-.05-.37-.6-.17-.23a.47.47,0,0,0-.16-.1.26.26,0,0,0-.19,0,.15.15,0,0,0-.12.11.18.18,0,0,0,0,.19.44.44,0,0,0,.18.14l-.08.19h0a.44.44,0,0,1-.26-.22.41.41,0,0,1,0-.36.39.39,0,0,1,.21-.24.42.42,0,0,1,.33,0,.51.51,0,0,1,.21.15,2.57,2.57,0,0,1,.2.3l.29.42.22-.57Z" transform="translate(-5.13 -5.13)"/><path class="cls-8" d="M90.59,37.67l-.32.82-.13-.05-.38-.61a1.12,1.12,0,0,0-.17-.22.44.44,0,0,0-.15-.1.27.27,0,0,0-.19,0,.15.15,0,0,0-.12.11.19.19,0,0,0,0,.19.31.31,0,0,0,.18.13l-.08.2h0a.45.45,0,0,1-.26-.23.43.43,0,0,1,0-.35.36.36,0,0,1,.21-.24.44.44,0,0,1,.32,0,.54.54,0,0,1,.21.16,2.22,2.22,0,0,1,.21.29l.29.43.21-.57Z" transform="translate(-5.13 -5.13)"/><path class="cls-8" d="M90.84,37l-1.42-.55.15-.4a.53.53,0,0,1,.32-.32.7.7,0,0,1,.49,0l.21.08a.66.66,0,0,1,.38.31.52.52,0,0,1,0,.44Zm-1.2-.69,1.13.43.07-.2a.3.3,0,0,0,0-.29.68.68,0,0,0-.3-.21L90.3,36a.58.58,0,0,0-.36,0,.29.29,0,0,0-.22.18Z" transform="translate(-5.13 -5.13)"/><path class="cls-8" d="M95.45,41.1l-.09.24.8.31,0,.12-.79-.3-.1.23-.09,0,.23-.59Z" transform="translate(-5.13 -5.13)"/><path class="cls-8" d="M96.34,41.17l0,.12L95.4,41l0-.12Z" transform="translate(-5.13 -5.13)"/><path class="cls-8" d="M96.39,40.55h0l-.64-.5.06-.16.89.35,0,.12L96,40.11h0l.56.45,0,.09-.73,0h0l.65.25,0,.12-.89-.34.06-.16Z" transform="translate(-5.13 -5.13)"/><path class="cls-8" d="M96.52,39.49l-.12.3.32.12.14-.36.09,0-.18.48-.9-.34.19-.48.09,0-.13.35.28.11.12-.3Z" transform="translate(-5.13 -5.13)"/><path class="cls-8" d="M96.62,38.86l-.05.12-.13,0,0-.13Zm.53.21,0,.12-.13,0L97,39Z" transform="translate(-5.13 -5.13)"/><path class="cls-8" d="M97.75,41.63a.62.62,0,0,1,.34.26.41.41,0,0,1,0,.36.43.43,0,0,1-.26.25.6.6,0,0,1-.43,0L97,42.3a.65.65,0,0,1-.35-.26.41.41,0,0,1,0-.36.4.4,0,0,1,.26-.25.66.66,0,0,1,.43,0Zm-.52,0a.46.46,0,0,0-.27,0,.19.19,0,0,0-.16.12.24.24,0,0,0,0,.2.55.55,0,0,0,.24.15l.46.18a.49.49,0,0,0,.28,0,.17.17,0,0,0,.15-.12.18.18,0,0,0,0-.2.51.51,0,0,0-.23-.15Z" transform="translate(-5.13 -5.13)"/><path class="cls-8" d="M97.07,40.59a.61.61,0,0,1,.07-.14.52.52,0,0,1,.1-.11l.13.1-.08.09a.23.23,0,0,0-.06.12.24.24,0,0,0,0,.23.59.59,0,0,0,.26.19l.11,0a.42.42,0,0,1,0-.16.37.37,0,0,1,0-.18.34.34,0,0,1,.23-.21.61.61,0,0,1,.37,0,.58.58,0,0,1,.3.25.42.42,0,0,1,0,.35.42.42,0,0,1-.27.25.66.66,0,0,1-.45,0l-.34-.13A.63.63,0,0,1,97.1,41,.45.45,0,0,1,97.07,40.59Zm.66.3a.27.27,0,0,0,0,.15.24.24,0,0,0,.07.13l.1,0a.62.62,0,0,0,.31,0,.2.2,0,0,0,.17-.13.17.17,0,0,0,0-.19.57.57,0,0,0-.21-.15.59.59,0,0,0-.25,0A.22.22,0,0,0,97.73,40.89Z" transform="translate(-5.13 -5.13)"/><path class="cls-8" d="M98.13,39.58l-.08.21-.19-.08.07-.2Zm.86.33-.08.21-.2-.08.08-.2Z" transform="translate(-5.13 -5.13)"/><path class="cls-8" d="M98.6,38.52a.19.19,0,0,0,0-.18.4.4,0,0,0-.16-.12.29.29,0,0,0-.2,0,.18.18,0,0,0-.12.13.17.17,0,0,0,0,.17.28.28,0,0,0,.15.13l-.08.19h0A.38.38,0,0,1,98,38.6a.47.47,0,0,1,0-.33.48.48,0,0,1,.22-.26.41.41,0,0,1,.34,0,.31.31,0,0,1,.16.12.32.32,0,0,1,.07.19.4.4,0,0,1,.2-.11.39.39,0,0,1,.23,0,.43.43,0,0,1,.26.23.47.47,0,0,1,0,.35.51.51,0,0,1-.22.26.4.4,0,0,1-.34,0h0l.08-.19a.28.28,0,0,0,.2,0,.24.24,0,0,0,.14-.14.25.25,0,0,0,0-.19.39.39,0,0,0-.39-.15.22.22,0,0,0-.13.15l0,.13-.15-.05Z" transform="translate(-5.13 -5.13)"/><path class="cls-8" d="M99.46,37.18a.62.62,0,0,1,.34.26.38.38,0,0,1,0,.36.4.4,0,0,1-.26.25.65.65,0,0,1-.43,0l-.41-.16a.62.62,0,0,1-.34-.26.39.39,0,0,1,0-.36.4.4,0,0,1,.26-.25.65.65,0,0,1,.43,0Zm-.52,0a.55.55,0,0,0-.27,0,.21.21,0,0,0-.16.13.19.19,0,0,0,0,.19.47.47,0,0,0,.23.16l.46.18a.59.59,0,0,0,.28,0,.21.21,0,0,0,.16-.13.19.19,0,0,0,0-.19.41.41,0,0,0-.23-.16Z" transform="translate(-5.13 -5.13)"/><text class="cls-9" transform="translate(92.37 27.49) rotate(-68.94)">SE<tspan class="cls-10" x="1.25" y="0">A</tspan><tspan class="cls-11" x="1.84" y="0" xml:space="preserve">T :    </tspan></text><path class="cls-5" d="M77.08,110.64l-.31.79,1,.39-.12.32-2.27-.88.48-1.24.24.09-.36.93.78.3.31-.79Z" transform="translate(-5.13 -5.13)"/><path class="cls-5" d="M77.4,109.91l1,.37-.13.32L76,109.72l.26-.67a.81.81,0,0,1,.36-.44.7.7,0,0,1,.55,0,.58.58,0,0,1,.28.2.6.6,0,0,1,.12.32.48.48,0,0,1,.29-.18.87.87,0,0,1,.37.06l.2.07a.76.76,0,0,0,.2.06.32.32,0,0,0,.17,0l0,0-.12.32a.3.3,0,0,1-.19,0l-.22-.07-.19-.07a.52.52,0,0,0-.34,0,.33.33,0,0,0-.2.2Zm-.24-.1.13-.34a.38.38,0,0,0,0-.33.46.46,0,0,0-.26-.2.49.49,0,0,0-.33,0,.38.38,0,0,0-.22.24l-.13.35Z" transform="translate(-5.13 -5.13)"/><path class="cls-5" d="M78.7,107a.94.94,0,0,1,.55.47.86.86,0,0,1,0,.67.81.81,0,0,1-.45.49,1,1,0,0,1-.71,0l-.62-.24a1,1,0,0,1-.55-.46.8.8,0,0,1,0-.66.85.85,0,0,1,.46-.5.92.92,0,0,1,.71,0Zm-.75.08a.73.73,0,0,0-.49,0,.5.5,0,0,0-.3.3.45.45,0,0,0,0,.41.72.72,0,0,0,.4.3l.63.24a.72.72,0,0,0,.51,0A.45.45,0,0,0,79,108a.47.47,0,0,0,0-.42.8.8,0,0,0-.41-.3Z" transform="translate(-5.13 -5.13)"/><path class="cls-5" d="M79.62,105.81h0L78,104.54l.15-.4,2.27.87-.12.32-1.63-.63h0l1.44,1.15-.08.22L78.13,106h0l1.66.64-.12.32-2.28-.88.16-.41Z" transform="translate(-5.13 -5.13)"/><path class="cls-5" d="M79.32,103.74l-.12.32-.32-.12.13-.32Zm1.37.53-.12.32-.32-.12.12-.32Z" transform="translate(-5.13 -5.13)"/><path class="cls-5" d="M79.79,110.09l2.4.92a1.36,1.36,0,0,1,.81.7,1.27,1.27,0,0,1,0,1,1.21,1.21,0,0,1-.67.73,1.33,1.33,0,0,1-1.07,0l-2.4-.92.2-.51,2.4.93a1.06,1.06,0,0,0,.73.06.65.65,0,0,0,.43-.41.67.67,0,0,0,0-.6,1.1,1.1,0,0,0-.58-.45l-2.4-.93Z" transform="translate(-5.13 -5.13)"/><path class="cls-5" d="M83.39,108.83a.67.67,0,0,0-.46,0,1.53,1.53,0,0,0-.49.39,2.14,2.14,0,0,1-.71.63.94.94,0,0,1-.77,0,1,1,0,0,1-.59-.58,1.17,1.17,0,0,1,0-.88,1.13,1.13,0,0,1,.62-.69,1.08,1.08,0,0,1,.88,0h0l-.19.49a.84.84,0,0,0-.58,0,.62.62,0,0,0-.37.37.54.54,0,0,0,0,.48.61.61,0,0,0,.37.31.54.54,0,0,0,.45,0,1.71,1.71,0,0,0,.49-.42,2.08,2.08,0,0,1,.72-.59,1,1,0,0,1,.77,0,1,1,0,0,1,.59.58,1.28,1.28,0,0,1,0,.9,1.4,1.4,0,0,1-.61.72,1,1,0,0,1-.94,0h0l.19-.49a.77.77,0,0,0,.63,0,.7.7,0,0,0,.36-.41.65.65,0,0,0,0-.51A.66.66,0,0,0,83.39,108.83Z" transform="translate(-5.13 -5.13)"/><path class="cls-5" d="M84.42,106.15,84,107.24l.82.61-.21.53-3.2-2.49.19-.49,4,.32-.21.53Zm-.78.82.33-.86L82.34,106v0Z" transform="translate(-5.13 -5.13)"/><path class="cls-5" d="M87,81.75l-.23.6,2,.78-.12.32-2-.78-.23.6-.25-.1.59-1.52Z" transform="translate(-5.13 -5.13)"/><path class="cls-5" d="M88.92,80.45a.94.94,0,0,1,.54.47.78.78,0,0,1,0,.67.81.81,0,0,1-.45.49,1,1,0,0,1-.71,0l-.62-.24a1,1,0,0,1-.55-.46.8.8,0,0,1,0-.66.85.85,0,0,1,.46-.5.92.92,0,0,1,.71,0Zm-.75.08a.76.76,0,0,0-.5,0,.49.49,0,0,0-.3.31.43.43,0,0,0,0,.4.76.76,0,0,0,.4.3l.63.24a.8.8,0,0,0,.51.06.47.47,0,0,0,.28-.3.47.47,0,0,0,0-.42.76.76,0,0,0-.41-.3Z" transform="translate(-5.13 -5.13)"/><path class="cls-5" d="M88.58,79.71l-.13.32-.31-.12.12-.32Zm1.36.53-.12.32-.32-.12.13-.32Z" transform="translate(-5.13 -5.13)"/><path class="cls-5" d="M90.24,83l.2-.51,2.55,1a1.35,1.35,0,0,1,.72.59,1,1,0,0,1,0,.83,1,1,0,0,1-1.44.58h0l.18-.48A.86.86,0,0,0,93,85a.48.48,0,0,0,.32-.3.46.46,0,0,0-.07-.42,1.08,1.08,0,0,0-.5-.34Z" transform="translate(-5.13 -5.13)"/><path class="cls-5" d="M93.09,82.1l1.43.55-.19.5L90.7,81.76l.46-1.18a1.09,1.09,0,0,1,.61-.69,1.15,1.15,0,0,1,.91,0,1.17,1.17,0,0,1,.68.6,1.13,1.13,0,0,1,0,.92ZM92.7,82l.26-.68a.53.53,0,0,0,0-.52.81.81,0,0,0-.44-.34.89.89,0,0,0-.57,0,.56.56,0,0,0-.38.37l-.26.67Z" transform="translate(-5.13 -5.13)"/><path class="cls-5" d="M96.35,77.9l-.2.51-3.21.38h0l2.66,1-.19.51-3.62-1.4.19-.5,3.21-.38v0l-2.66-1,.19-.51Z" transform="translate(-5.13 -5.13)"/><path class="cls-8" d="M88,25.59l-.12.29.38.15,0,.11-.84-.32.18-.46.09,0-.13.35.28.11.12-.3Z" transform="translate(-5.13 -5.13)"/><path class="cls-8" d="M88.13,25.32l.36.14,0,.11-.84-.32.1-.25a.27.27,0,0,1,.13-.16.23.23,0,0,1,.2,0,.23.23,0,0,1,.11.08.34.34,0,0,1,0,.12A.19.19,0,0,1,88.3,25a.21.21,0,0,1,.13,0l.08,0,.07,0h.08l0,.12a.08.08,0,0,1-.07,0l-.08,0-.07,0a.2.2,0,0,0-.13,0,.1.1,0,0,0-.07.07Zm-.09,0,0-.12a.13.13,0,0,0,0-.12s0-.06-.09-.08a.17.17,0,0,0-.12,0,.11.11,0,0,0-.08.09l0,.13Z" transform="translate(-5.13 -5.13)"/><path class="cls-8" d="M88.62,24.24a.31.31,0,0,1,.2.17.33.33,0,0,1,0,.24.35.35,0,0,1-.17.19.35.35,0,0,1-.26,0l-.23-.08a.35.35,0,0,1-.2-.17.28.28,0,0,1,0-.25.29.29,0,0,1,.16-.18.36.36,0,0,1,.27,0Zm-.28,0a.31.31,0,0,0-.19,0c-.05,0-.08.05-.1.11a.19.19,0,0,0,0,.15.37.37,0,0,0,.15.11l.23.09a.33.33,0,0,0,.19,0,.17.17,0,0,0,.11-.11.18.18,0,0,0,0-.16.27.27,0,0,0-.15-.11Z" transform="translate(-5.13 -5.13)"/><path class="cls-8" d="M89,23.81h0l-.61-.46.06-.15.83.32,0,.12-.6-.23h0l.53.42,0,.08-.69,0h0l.62.23,0,.12-.84-.32.06-.16Z" transform="translate(-5.13 -5.13)"/><path class="cls-8" d="M88.94,22.78l0,.12-.12,0,0-.12Zm.51.2,0,.12-.11-.05,0-.12Z" transform="translate(-5.13 -5.13)"/><path class="cls-8" d="M89,25.39l.88.34a.46.46,0,0,1,.3.26.43.43,0,0,1,0,.37.46.46,0,0,1-.24.27.55.55,0,0,1-.4,0l-.88-.34.07-.19.88.34a.37.37,0,0,0,.27,0,.22.22,0,0,0,.16-.15.24.24,0,0,0,0-.22.4.4,0,0,0-.22-.17L89,25.57Z" transform="translate(-5.13 -5.13)"/><path class="cls-8" d="M90.35,24.92a.25.25,0,0,0-.17,0,.37.37,0,0,0-.18.14.79.79,0,0,1-.27.23.34.34,0,0,1-.28,0,.37.37,0,0,1-.22-.22.4.4,0,0,1,0-.32.43.43,0,0,1,.23-.26.42.42,0,0,1,.33,0h0l-.07.18a.31.31,0,0,0-.21,0,.23.23,0,0,0-.14.31.28.28,0,0,0,.14.12.25.25,0,0,0,.17,0,.79.79,0,0,0,.18-.16.75.75,0,0,1,.26-.22.48.48,0,0,1,.29,0,.4.4,0,0,1,.22.22.48.48,0,0,1,0,.33.54.54,0,0,1-.22.27.39.39,0,0,1-.35,0h0l.07-.18a.27.27,0,0,0,.23,0,.29.29,0,0,0,.14-.15.25.25,0,0,0,0-.19A.26.26,0,0,0,90.35,24.92Z" transform="translate(-5.13 -5.13)"/><path class="cls-8" d="M90.73,23.93l-.16.4.3.23-.07.19-1.18-.91.07-.18,1.49.11-.08.2Zm-.29.3.12-.31-.6-.06h0Z" transform="translate(-5.13 -5.13)"/><path class="cls-8" d="M92.9,27.15l-.09.23.75.29,0,.11-.75-.28-.09.21-.09,0,.22-.56Z" transform="translate(-5.13 -5.13)"/><path class="cls-8" d="M93.59,26.68a.37.37,0,0,1,.21.17.36.36,0,0,1,0,.25.37.37,0,0,1-.17.18.39.39,0,0,1-.26,0l-.23-.09a.41.41,0,0,1-.21-.17.36.36,0,0,1,0-.25.3.3,0,0,1,.17-.18.34.34,0,0,1,.26,0Zm-.27,0a.32.32,0,0,0-.19,0s-.08,0-.11.11A.16.16,0,0,0,93,27a.3.3,0,0,0,.15.11l.23.09a.33.33,0,0,0,.19,0,.16.16,0,0,0,.1-.11.14.14,0,0,0,0-.15.31.31,0,0,0-.15-.12Z" transform="translate(-5.13 -5.13)"/><path class="cls-8" d="M93.59,26.09l0,.11-.12,0,0-.12Zm.51.19,0,.12-.12,0,0-.11Z" transform="translate(-5.13 -5.13)"/><path class="cls-8" d="M94.08,27.6l.08-.19.94.36a.52.52,0,0,1,.26.22.35.35,0,0,1,0,.3.38.38,0,0,1-.2.24.43.43,0,0,1-.33,0h0l.07-.18a.32.32,0,0,0,.21,0,.15.15,0,0,0,.11-.11.16.16,0,0,0,0-.15A.42.42,0,0,0,95,28Z" transform="translate(-5.13 -5.13)"/><path class="cls-8" d="M95.14,27.28l.52.21-.07.18-1.34-.51.17-.44a.44.44,0,0,1,.23-.25.42.42,0,0,1,.33,0,.48.48,0,0,1,.26.22.47.47,0,0,1,0,.35ZM95,27.23l.1-.25a.21.21,0,0,0,0-.19.33.33,0,0,0-.17-.13.31.31,0,0,0-.21,0,.24.24,0,0,0-.14.14l-.09.25Z" transform="translate(-5.13 -5.13)"/><path class="cls-8" d="M96.34,25.74l-.07.18-1.19.14h0l1,.38-.07.18-1.34-.51.07-.19,1.19-.14h0l-1-.38.07-.19Z" transform="translate(-5.13 -5.13)"/><path class="cls-5" d="M88.24,88a.56.56,0,0,0-.41.3l0,0-.14.06a.69.69,0,0,0-.27.24,2.36,2.36,0,0,0-.31.73l-.14,0v0h.11l-.06.28c0,.19-.68,4-.68,4s-1.88,2.45-2.1,2.72a1.47,1.47,0,0,1-.51.43c-.08,0-.52.15-.64.21s-.1.15-.1.15l.73,0c.3,0,.58-.33.75-.52s.32-.33.61-.63c0,0,0,.11,0,.13l0,.12h0a.88.88,0,0,0,.13-.49l.57-.61a.62.62,0,0,0,0,.25l0,0a1.26,1.26,0,0,0,.13-.49l.07-.08-.2,1.21-.06,0a0,0,0,0,0,0,0h.06l-.05.32a.61.61,0,0,1-.37.33l-1.57.56c-.17,0-.18.26-.18.26l0,.33,1.88.3s-.72,1.07-.77,1.17a1.51,1.51,0,0,0-.05.33l.92-1a.92.92,0,0,0,.06.25.13.13,0,0,0,.11,0,.08.08,0,0,0,.07,0l.62-1.12a1.07,1.07,0,0,0,.17-.15s0-.26,0-.26a8.66,8.66,0,0,0,.92-2.94,3.69,3.69,0,0,0,.29-.64c0-.07.08-.38.15-.74a.17.17,0,0,0,0,.09h0s.09-.16.13-.57l.14-.11a1.48,1.48,0,0,0,0,.27l0,0a.64.64,0,0,0,0-.1s.08-.33.08-.33l.14-.12s0,.2,0,.23v0h0a1.16,1.16,0,0,0,.1-.43A.32.32,0,0,0,89.1,92a.19.19,0,0,0,.08,0,3.14,3.14,0,0,0,.24-1s.06-.3-.4-.38-.5.11-.58.56a.22.22,0,0,0,0,.12c0,.09-.06.41-.06.41h-.07a2.33,2.33,0,0,0,0-.33c.08-.37.33-2.07.33-2.07C88.6,88.54,88.51,87.93,88.24,88Zm-.7,1-.05.16h0L87.4,89s0-.07,0-.08h0a.77.77,0,0,0,0-.12s0,0,0,0l.11.11Zm.08-.3c0,.07,0,.14,0,.19l0,.06a0,0,0,0,1,0,0l-.11-.11h0v0l0-.08h0l.13,0Zm.16-.29s0,.08-.08.13a.6.6,0,0,0-.06.11h0l-.13,0a.25.25,0,0,0,0-.07l.08-.12s0,0,0,0h0a.54.54,0,0,1,.13-.07Z" transform="translate(-5.13 -5.13)"/><path class="cls-5" d="M92.72,23.17a.22.22,0,0,0-.16.13h0l-.05,0a.27.27,0,0,0-.11.09.92.92,0,0,0-.13.3l0,0h0s0,0,0,.11-.28,1.63-.28,1.63l-.85,1.1a.81.81,0,0,1-.21.18l-.26.08c-.05,0,0,.06,0,.06l.3,0c.12,0,.23-.13.3-.21a3.49,3.49,0,0,0,.25-.26v.06a.17.17,0,0,1,0,.05h0a.32.32,0,0,0,.06-.2l.23-.24a.22.22,0,0,0,0,.1h0s0,0,0-.2l0,0-.08.5h0l0,.13a.24.24,0,0,1-.15.14L91,27c-.07,0-.08.11-.08.11l0,.13.77.12s-.3.44-.31.48a.4.4,0,0,0,0,.13l.37-.39a.31.31,0,0,0,0,.1s0,0,0,0l0,0,.25-.45s.06-.05.06-.07a.44.44,0,0,0,0-.1,3.53,3.53,0,0,0,.38-1.19c0-.06.09-.2.11-.26a2.46,2.46,0,0,0,.06-.3,0,0,0,0,1,0,0h0a.77.77,0,0,0,0-.23l.06-.05a.52.52,0,0,0,0,.11h0a.15.15,0,0,0,0,0s0-.14,0-.14l.06,0a.31.31,0,0,0,0,.09h0a.63.63,0,0,0,0-.17s0,0,.07-.08l0,0a1.65,1.65,0,0,0,.09-.41s0-.13-.16-.16-.2.05-.23.23a.08.08,0,0,0,0,0s0,.16,0,.16h0a.89.89,0,0,0,0-.13c0-.15.13-.84.13-.84C92.87,23.41,92.83,23.16,92.72,23.17Zm-.28.39,0,.06h0a0,0,0,0,1,0,0s0,0,0,0h0v0h0l0,0Zm0-.13s0,.06,0,.09v0h0l0,0h0l0,0h0Zm.07-.11,0,.05,0,.05h0s0,0,0,0l0,0h0l.06,0Z" transform="translate(-5.13 -5.13)"/><rect class="cls-5" x="51.72" y="79.4" width="66.78" height="0.18" transform="translate(-24.78 125.23) rotate(-68.94)"/><rect class="cls-12" x="32.12" y="46.39" width="51.5" height="70.2" rx="3.85" ry="3.85" transform="translate(-27.94 17.38) rotate(-18.45)"/><path class="cls-13" d="M72.41,43.7,92.19,103a3.84,3.84,0,0,1-2.43,4.87L48.21,121.71a3.84,3.84,0,0,1-4.87-2.43Z" transform="translate(-5.13 -5.13)"/><path class="cls-14" d="M33.89,64.84l1.47-.48c1.14-.39,2-.26,2.42.86s-.24,1.84-1.36,2.22l-.84.28.67,2L35.6,70Zm2.27,2.09c.89-.3,1.21-.76,1-1.49s-.78-.83-1.68-.53l-.73.25.68,2Z" transform="translate(-5.13 -5.13)"/><path class="cls-14" d="M39,63.15l.73-.25,3.44,4.55-.69.22-1.85-2.56c-.37-.51-.72-1-1.08-1.55h0c0,.65.07,1.26.07,1.89l0,3.16-.66.23Zm.19,3.31,2.36-.78.17.52L39.34,67Z" transform="translate(-5.13 -5.13)"/><path class="cls-14" d="M43.28,66.66l.24-.58a2.15,2.15,0,0,0,1.63.17c.67-.23,1-.7.79-1.19s-.6-.57-1.16-.62l-.84-.08a1.52,1.52,0,0,1-1.48-1,1.54,1.54,0,0,1,1.16-1.9,2.25,2.25,0,0,1,1.72.13l-.21.54a1.71,1.71,0,0,0-1.32-.09c-.57.19-.86.6-.7,1.06s.67.53,1.13.57l.83.07a1.5,1.5,0,0,1,1.51,1,1.63,1.63,0,0,1-1.26,2A2.57,2.57,0,0,1,43.28,66.66Z" transform="translate(-5.13 -5.13)"/><path class="cls-14" d="M47.34,65.31l.24-.58a2.08,2.08,0,0,0,1.62.16c.67-.22,1-.69.79-1.19s-.6-.56-1.15-.61L48,63a1.44,1.44,0,0,1-.32-2.87,2.25,2.25,0,0,1,1.72.13l-.21.53a1.72,1.72,0,0,0-1.32-.09c-.58.19-.86.61-.71,1.07s.68.53,1.13.56l.84.08a1.48,1.48,0,0,1,1.51,1,1.63,1.63,0,0,1-1.26,2A2.61,2.61,0,0,1,47.34,65.31Z" transform="translate(-5.13 -5.13)"/><path class="cls-14" d="M50.39,59.34l1.46-.49c1.15-.38,2-.25,2.42.87s-.24,1.84-1.36,2.21l-.84.28.68,2-.65.22Zm2.26,2.09c.9-.3,1.22-.77,1-1.49s-.78-.83-1.68-.53l-.73.24.68,2Z" transform="translate(-5.13 -5.13)"/><path class="cls-14" d="M55.36,60.51c-.55-1.64,0-2.94,1.31-3.37s2.52.27,3.07,1.9,0,3-1.3,3.41S55.9,62.15,55.36,60.51Zm3.7-1.24c-.42-1.28-1.29-1.86-2.2-1.56S55.61,59,56,60.28s1.3,1.9,2.22,1.59S59.49,60.54,59.06,59.27Z" transform="translate(-5.13 -5.13)"/><path class="cls-14" d="M60,56.13l1.6-.53c1-.35,1.92-.22,2.28.84s-.25,1.77-1.29,2.12l-.95.31L62.35,61l-.65.21Zm2.32,1.93c.8-.27,1.13-.74.91-1.4s-.75-.77-1.54-.5l-.86.29.63,1.89Zm.08.36.4-.51,2.46,2.16-.74.25Z" transform="translate(-5.13 -5.13)"/><path class="cls-14" d="M65.58,54.88,64,55.4l-.19-.55,3.75-1.25.19.55-1.55.52,1.52,4.57-.65.21Z" transform="translate(-5.13 -5.13)"/><circle class="cls-15" cx="60.83" cy="90.36" r="15.23" transform="translate(-46.04 124.11) rotate(-76.96)"/><path class="cls-15" d="M68.49,87.8c3.12,9.36-2.83,17-2.83,17a18.32,18.32,0,0,1-12.48-11.9c-3.07-9.19,2.83-17,2.83-17S64.91,77.09,68.49,87.8Z" transform="translate(-5.13 -5.13)"/><line class="cls-15" x1="50.89" y1="70.78" x2="60.53" y2="99.68"/><line class="cls-15" x1="41.26" y1="90.05" x2="70.16" y2="80.41"/><g class="cls-16"><path class="cls-15" d="M58.5,83.37c-9.35,3.13-17-2.83-17-2.83A18.32,18.32,0,0,1,53.4,68.06c9.19-3.06,17,2.84,17,2.84S69.22,79.8,58.5,83.37Z" transform="translate(-5.13 -5.13)"/><path class="cls-15" d="M68.27,112.65c-9.35,3.12-17-2.83-17-2.83a18.32,18.32,0,0,1,11.9-12.48c9.19-3.07,17,2.83,17,2.83S79,109.07,68.27,112.65Z" transform="translate(-5.13 -5.13)"/></g><circle class="cls-1" cx="60.83" cy="90.36" r="15.23" transform="translate(-46.04 124.11) rotate(-76.96)"/></g></svg>