<svg xmlns="http://www.w3.org/2000/svg" xmlns:xlink="http://www.w3.org/1999/xlink" viewBox="0 0 529.18 350.03"><defs><style>.cls-1{isolation:isolate;}.cls-2{fill:url(#linear-gradient);}.cls-3{fill:#a2dbf4;}.cls-4{fill:#009444;}.cls-5{fill:#87c6e7;}.cls-6{fill:#9ea57c;}.cls-7{fill:#898aa9;}.cls-8{fill:#74714e;}.cls-9{fill:#8dc63f;}.cls-10{opacity:0.4;}.cls-11{fill:#249e30;}.cls-12{fill:#355500;}.cls-13{fill:#4c781f;}.cls-14{fill:#d0f975;}.cls-15{fill:#e5c689;}.cls-16{fill:#588d23;}.cls-17,.cls-25{fill:#9bb6bc;}.cls-18{fill:#c12c27;}.cls-19{fill:#e9f1f3;}.cls-20{fill:#32262c;}.cls-21{fill:#0f0c16;}.cls-22{fill:#2d404c;}.cls-23,.cls-36{fill:#fff;}.cls-24{fill:#2f4254;}.cls-25{opacity:0.3;}.cls-26{fill:#777057;}.cls-27{fill:#ca4737;}.cls-28{fill:#8cb630;}.cls-29{fill:#ccc9a6;}.cls-30{fill:#c96f32;}.cls-31{fill:#e89b67;}.cls-32{fill:#cfd1d2;mix-blend-mode:multiply;}.cls-33{opacity:0.5;}.cls-34{fill:#4d3b02;}.cls-35{fill:#77a226;}.cls-36{opacity:0.1;}.cls-37{fill:none;stroke:#ed1c24;stroke-miterlimit:10;stroke-width:0.9px;}</style><linearGradient id="linear-gradient" x1="262.59" y1="-91.68" x2="262.59" y2="215.6" gradientUnits="userSpaceOnUse"><stop offset="0" stop-color="#7be6f0"/><stop offset="0.21" stop-color="#80e8f1"/><stop offset="0.45" stop-color="#8decf4"/><stop offset="0.7" stop-color="#a3f4f8"/><stop offset="0.83" stop-color="#b2f9fb"/></linearGradient></defs><title>G08_18_03</title><g class="cls-1"><g id="Layer_1" data-name="Layer 1"><rect class="cls-2" x="0.38" width="524.41" height="195.53"/><polygon class="cls-3" points="155.22 207.37 218.31 163.21 234.14 170.78 291.13 142.04 339.52 158.36 387.38 121.7 411.59 131.01 427.61 117.25 444.05 129.84 478.6 97.5 514.47 123.44 524.8 116.46 524.8 203.1 155.22 207.37"/><path class="cls-4" d="M524.41,349.8H0V253.21S353.68,213.28,524.41,233Z" transform="translate(0.38)"/><polygon class="cls-5" points="343.03 199.37 262.95 169.21 224.1 185.79 170.51 152.05 147.09 167.36 96.2 130.7 70.46 140.01 53.43 136.26 35.95 138.85 18.23 128.52 0.38 129.75 0.39 208.27 98.87 197.74 343.03 199.37"/><polygon class="cls-6" points="0.73 148.59 44.91 169.54 91.41 161.68 164.23 193.1 182.65 188.74 201.34 196.41 49.27 216.96 0.73 219.92 0.73 148.59"/><polygon class="cls-7" points="343.25 169.21 383.33 177.75 420.56 161.61 463.2 178.44 473.39 172.96 493.49 184.66 514.31 178.87 524.8 184.22 524.93 207.01 394.75 224.59 300.3 192 343.25 169.21"/><path class="cls-8" d="M.35,225.36V162.51l9.42,35.3,6-12.6,6.11,12.41,5.14-6.4,6,7.76,6.79-22.5L47,197.81l3.5-8.14,1.16,7L54.38,192l1.94,6.21L68.74,178l3.1,8.92,7-1.55,3.11,9.31,8.92-11.25,10.86,10.47,7-3.49,1.94,11.25,1.94,8.15,5.82-15.52,1.94,15.13,5-12.41,1.55,15.13L137,192.38,141.67,206l6.59-21,5.82,22.5,26.76-5.82,5,7.76L189,225l-52.37,4.26-27.05,3.34-35.4-6.83s-22.11,1.55-26,.39S.35,225.36.35,225.36Z" transform="translate(0.38)"/><path class="cls-9" d="M524.42,189.62s-36.7-.61-55.66,1.81c-7.55,1-221.92-4.87-349.75,13-33.42,4.67-119,7-119,7v50.81l135.7-3.88,64.78-12.79,114.33-5.66,209.61-2.3Z" transform="translate(0.38)"/><g class="cls-10"><path class="cls-11" d="M235.38,194.57c-15.67.76-31.27,1.67-46.47,2.78l23.94,2.6Z" transform="translate(0.38)"/><path class="cls-11" d="M453.63,208.81c1.86,0,15.17-11.45,22.72-18.08-2.58.18-5,.41-7.25.7-2.87.36-35.64-.25-82.17-.17l47.49,28,45.39-.88S451,208.81,453.63,208.81Z" transform="translate(0.38)"/><path class="cls-11" d="M321.62,191.86q-10.23.18-20.76.42l10.8,4.31Z" transform="translate(0.38)"/></g><path class="cls-12" d="M377.57,227.83l9.36-17.43,7.66,8.62,6-17.1,6.38,14.88S415,202.71,415,204.46s10.42,10.46,10.42,10.46l8.86-14.39,10.11,9.7,8.95-12,9.74,8.46,4.25-7.73,5.11,18.23L476.29,204l3.93,6.06,8.2-12.16,10.21,14.35,7.87-17,10.22,10.27,7.69-41.1v62.84Z" transform="translate(0.38)"/><path class="cls-13" d="M4.55,233.11c4.26,0,37.62,3.49,41.89,4.46s21.14,1.17,33,1.17,11.84-6,3.5-6.21S53,232,50.32,232.34,4.55,233.11,4.55,233.11Z" transform="translate(0.38)"/><path class="cls-14" d="M.35,206.48s30.35,2.88,48.73,1.3c12.31-1.06,36.19-5.51,73-5.51,27.14,0,63.57,12.22,100.66,14s54.69-1.94,88.44,0c18.75,1.08,36.11-1.74,64.59,3.68l-46.25-3.24-1.2,5.86-47.39,2s-139.65-14.74-167.19-15.91c-11-.46-54.17,7.22-65.11,8.29-34.2,3.35-48.28,1-48.28,1Z" transform="translate(0.38)"/><path class="cls-15" d="M25.49,234.86C15,234,2.22,232,.77,232.24c-.15,0-.35-1.46-.76-1.44v5.57c1.19.11-.21.45,15.89,2.85a280.6,280.6,0,0,0,54,2.62c11.63-.64,19.59,4.66,42.57-2s-12.22-.87-20.36,0-23-1.26-34.33-1.74S36,235.73,31.9,235.44Z" transform="translate(0.38)"/><polygon class="cls-12" points="102.48 221.09 111.02 179.97 118.39 221.09 124.59 199.75 126.92 223.03 131.19 219.15 138.94 180.36 151.75 222.25 156.01 230.79 184.33 226.13 192.87 228.07 197.52 203.24 202.56 231.37 159.5 236.22 132.74 234.66 104.42 233.89 51.28 226.13 48.56 227.29 19.08 228.85 27.23 164.45 41.19 222.64 48.56 186.95 53.6 221.09 102.48 221.09"/><polygon class="cls-12" points="318.08 221.12 305.2 221.29 310.4 204.6 318.08 221.12"/><polygon class="cls-12" points="350.44 218.99 340.7 220.36 345.94 197.15 350.44 218.99"/><polygon class="cls-12" points="361.68 222.25 351.94 223.62 357.83 205.03 361.68 222.25"/><path class="cls-16" d="M524.41,234.59V217.24s-11.83,2.28-18,3c-14.55,1.84-43.86,3.49-58.64,3.15-11.7-.26-67.56-5.38-73.45-5.56-8.17-.26-19.48-.73-27.59-1.5-31.08-3-52.16,3-78.5,5.39-36.17,3.34-158.7,10.8-158.7,10.8s65.89,1,124.46-.2,103.67,2,103.67,2L460.5,236h64.12Z" transform="translate(0.38)"/><polygon class="cls-17" points="148.42 223.29 148.42 224.72 147.11 224.72 147.11 238.21 91.18 238.21 79.56 231.41 79.56 208.38 76.71 206.41 76.71 204.76 90.3 209.69 138.22 209.81 138.33 211.23 136.69 211.34 136.8 222.96 148.42 223.29"/><polygon class="cls-18" points="114.54 199.94 100.17 199.94 76.71 204.76 90.24 209.81 138.22 209.81 114.54 199.94"/><rect class="cls-17" x="107.46" y="195.11" width="3.67" height="4.82"/><rect class="cls-19" x="105.66" y="195.11" width="1.81" height="4.82"/><rect class="cls-20" x="126.71" y="225.7" width="2.3" height="5.48"/><rect class="cls-21" x="121.52" y="225.7" width="4.28" height="5.48"/><rect class="cls-21" x="118.3" y="225.7" width="2.08" height="5.48"/><rect class="cls-22" x="100.03" y="212.98" width="4.28" height="5.48"/><rect class="cls-22" x="96.81" y="212.98" width="2.08" height="5.48"/><polygon class="cls-23" points="90.24 209.81 90.16 211.38 91.47 211.38 91.18 238.21 79.56 234.08 79.56 208.38 76.71 206.41 76.71 204.76 90.24 209.81"/><path class="cls-24" d="M146.72,238.2v2.19l-55.47.87a42.23,42.23,0,0,0-8.32-3.06c-1-.29-4.27-.8-4.27-.8l.51-4.29L90.8,238.2Z" transform="translate(0.38)"/><polygon class="cls-23" points="42.03 234.27 42.18 212.67 0.39 209.2 0.39 230.8 42.03 234.27"/><polygon class="cls-25" points="0.38 213.11 42.46 215.37 42.46 209.4 0.39 208.27 0.39 211.8 0.38 213.11"/><polygon class="cls-17" points="64.69 231.95 42.03 234.27 42.18 212.67 54.02 187.19 65.13 207.63 64.69 231.95"/><polygon class="cls-20" points="5.32 231.27 10.3 231.69 10.3 214.36 4.88 214.2 5.32 231.27"/><polygon class="cls-20" points="26.54 215.27 26.54 223.52 17.64 223.16 17.64 214.98 26.54 215.27"/><polygon class="cls-26" points="30.84 215.48 31.14 223.36 36.52 223.66 36.52 215.95 30.84 215.48"/><polygon class="cls-22" points="55.1 198.69 55.1 206.01 56.95 206.01 56.6 198.69 55.1 198.69"/><rect class="cls-22" x="50.86" y="198.69" width="2.03" height="7.68"/><path class="cls-24" d="M64.31,232l-.56,5.82-12.27.39a104.94,104.94,0,0,1-10.66-1c-2.09-.45-6.4-.41-8.5-.81C29.16,235.79,0,233.12,0,233.12V230.8l41.64,3.47Z" transform="translate(0.38)"/><polygon class="cls-27" points="54.9 184.71 8.84 184.71 0.39 200.89 0.39 211.8 42.18 212.67 54.02 187.19 65.13 207.63 66.45 206.05 54.9 184.71"/><path class="cls-28" d="M140.7,244.75c10.76-1.45,25-6.69,37.82-7.56s24.73,1.16,32.58,1.74-26.76,3.78-34,4.66S140.7,244.75,140.7,244.75Z" transform="translate(0.38)"/><polygon class="cls-29" points="343.25 169.21 371.6 180.98 383.33 177.75 343.25 169.21"/><polygon class="cls-29" points="420.56 161.61 434.42 175.91 443.6 175.28 456.79 182.24 463.2 178.44 420.56 161.61"/><path class="cls-23" d="M22.58,52.9H365.34c8.3,0,15.17-7.91-13.42-12.68-37.83-6.31-104.74,15.13-158.25-2.91C180,32.72,163.74,16.59,128.48,16.59c-57.61,0-60.16,25.47-60.16,25.47S37.34,27,19,45.71C17,47.7,16,52.9,22.58,52.9Z" transform="translate(0.38)"/><path class="cls-23" d="M493.88,82.71H338.07c-5.89,0-10.76-3.08,9.52-6.69,26.82-4.79,44.15,10.32,89-5.12C471,59,459,74.5,459,74.5s11.83-9.78,31,2.58C491.92,78.27,498.56,82.71,493.88,82.71Z" transform="translate(0.38)"/><path class="cls-30" d="M43.69,312.09c-6.86,0-12.44-2-12.73-4.63-.72,5.94-1.46,11.73-2.06,17.22.25.18.51.37.75.57a29.44,29.44,0,0,0,9.62,5.48c.57.19,1.16.35,1.76.49l.15,0a26,26,0,0,0,5.61.55v0l.82,0H48c.53,0,1.06-.05,1.58-.09v0c.17,0,.35,0,.52,0,.81-.08,6.71-3.84,6.71-3.84.08-8.05-.09-14.58-.44-20C55.6,310.22,50.22,312.09,43.69,312.09Z" transform="translate(0.38)"/><path class="cls-31" d="M56.44,307.24a1.91,1.91,0,0,0-.19-.8c0,.45.07.91.1,1.37A2.12,2.12,0,0,0,56.44,307.24Z" transform="translate(0.38)"/><path class="cls-31" d="M30.93,307.24a1.92,1.92,0,0,0,0,.22c0-.3.07-.59.1-.89A2.27,2.27,0,0,0,30.93,307.24Z" transform="translate(0.38)"/><path class="cls-31" d="M43.69,302.45c-7,0-12.61,2.15-12.61,4.79s5.64,4.8,12.61,4.8,12.6-2.15,12.6-4.8S50.65,302.45,43.69,302.45Z" transform="translate(0.38)"/><path class="cls-31" d="M43.69,302.39c-6.45,0-11.77,1.82-12.63,4.18,0,.3-.07.59-.1.89.29,2.58,5.87,4.63,12.73,4.63,6.53,0,11.91-1.87,12.66-4.28,0-.46-.07-.92-.1-1.37C55.24,304.14,50,302.39,43.69,302.39Zm0,9.65c-7,0-12.61-2.15-12.61-4.8s5.64-4.79,12.61-4.79,12.6,2.15,12.6,4.79S50.65,312,43.69,312Z" transform="translate(0.38)"/><path class="cls-30" d="M108.65,321.09c-6.86,0-12.43-2-12.73-4.63-.72,5.94-1.46,11.73-2.06,17.22.25.18.51.37.75.57a29.44,29.44,0,0,0,9.62,5.48c.57.19,1.16.35,1.76.49l.15,0a26,26,0,0,0,5.61.55l0,0,.81,0h.36c.52,0,1-.05,1.57-.09v0c.18,0,.35,0,.52,0,.81-.08,6.71-3.84,6.71-3.84.09-8.05-.09-14.58-.44-20C120.56,319.22,115.18,321.09,108.65,321.09Z" transform="translate(0.38)"/><path class="cls-31" d="M121.4,316.24a1.91,1.91,0,0,0-.19-.8c0,.45.07.91.1,1.37A1.79,1.79,0,0,0,121.4,316.24Z" transform="translate(0.38)"/><path class="cls-31" d="M95.89,316.24a1.92,1.92,0,0,0,0,.22c0-.3.07-.59.11-.89A2,2,0,0,0,95.89,316.24Z" transform="translate(0.38)"/><path class="cls-31" d="M108.65,311.45c-7,0-12.61,2.15-12.61,4.79s5.65,4.8,12.61,4.8,12.6-2.15,12.6-4.8S115.61,311.45,108.65,311.45Z" transform="translate(0.38)"/><path class="cls-31" d="M108.65,311.39c-6.45,0-11.76,1.82-12.62,4.18,0,.3-.07.59-.11.89.3,2.58,5.87,4.63,12.73,4.63,6.53,0,11.91-1.87,12.66-4.28,0-.46-.06-.92-.1-1.37C120.2,313.14,115,311.39,108.65,311.39Zm0,9.65c-7,0-12.61-2.15-12.61-4.8s5.65-4.79,12.61-4.79,12.6,2.15,12.6,4.79S115.61,321,108.65,321Z" transform="translate(0.38)"/><path class="cls-30" d="M178.69,311.09c-6.85,0-12.43-2.06-12.73-4.64-.71,5.94-1.45,11.73-2.06,17.22l.76.58a29.21,29.21,0,0,0,9.62,5.47c.56.19,1.15.35,1.75.49l.16,0a25.89,25.89,0,0,0,5.6.55l0,0H183c.53,0,1.05,0,1.57-.09h0l.52,0c.81-.08,6.7-3.84,6.7-3.84.09-8.05-.09-14.57-.44-20C190.61,309.22,185.23,311.09,178.69,311.09Z" transform="translate(0.38)"/><path class="cls-31" d="M191.45,306.24a2.09,2.09,0,0,0-.19-.81q0,.68.09,1.38A1.9,1.9,0,0,0,191.45,306.24Z" transform="translate(0.38)"/><path class="cls-31" d="M165.94,306.24c0,.07,0,.14,0,.21,0-.29.08-.59.11-.88A2,2,0,0,0,165.94,306.24Z" transform="translate(0.38)"/><path class="cls-31" d="M178.69,301.44c-7,0-12.6,2.15-12.6,4.8s5.64,4.79,12.6,4.79,12.61-2.15,12.61-4.79S185.65,301.44,178.69,301.44Z" transform="translate(0.38)"/><path class="cls-31" d="M178.69,301.39c-6.45,0-11.76,1.82-12.62,4.18,0,.29-.07.59-.11.88.3,2.58,5.88,4.64,12.73,4.64,6.54,0,11.92-1.87,12.66-4.28q0-.71-.09-1.38C190.25,303.14,185,301.39,178.69,301.39Zm0,9.64c-7,0-12.6-2.15-12.6-4.79s5.64-4.8,12.6-4.8,12.61,2.15,12.61,4.8S185.65,311,178.69,311Z" transform="translate(0.38)"/><path class="cls-30" d="M278.76,311.09c-6.86,0-12.44-2.06-12.73-4.64-.72,5.94-1.46,11.73-2.06,17.22l.75.58a29.42,29.42,0,0,0,9.62,5.47c.57.19,1.16.35,1.75.49l.16,0a25.92,25.92,0,0,0,5.61.55v0H283c.53,0,1,0,1.57-.09h0l.52,0c.81-.08,6.7-3.84,6.7-3.84.09-8.05-.09-14.57-.44-20C290.67,309.22,285.29,311.09,278.76,311.09Z" transform="translate(0.38)"/><path class="cls-31" d="M291.51,306.24a1.92,1.92,0,0,0-.19-.81q0,.68.09,1.38A1.9,1.9,0,0,0,291.51,306.24Z" transform="translate(0.38)"/><path class="cls-31" d="M266,306.24a1.52,1.52,0,0,0,0,.21c0-.29.07-.59.1-.88A2,2,0,0,0,266,306.24Z" transform="translate(0.38)"/><path class="cls-31" d="M278.76,301.44c-7,0-12.61,2.15-12.61,4.8s5.64,4.79,12.61,4.79,12.6-2.15,12.6-4.79S285.72,301.44,278.76,301.44Z" transform="translate(0.38)"/><path class="cls-31" d="M278.76,301.39c-6.45,0-11.77,1.82-12.63,4.18,0,.29-.07.59-.1.88.29,2.58,5.87,4.64,12.73,4.64,6.53,0,11.91-1.87,12.65-4.28q0-.71-.09-1.38C290.31,303.14,285.08,301.39,278.76,301.39Zm0,9.64c-7,0-12.61-2.15-12.61-4.79s5.64-4.8,12.61-4.8,12.6,2.15,12.6,4.8S285.72,311,278.76,311Z" transform="translate(0.38)"/><path class="cls-30" d="M384.78,297.09c-6.86,0-12.43-2.06-12.73-4.64-.71,5.94-1.45,11.73-2.06,17.22l.76.58a29.21,29.21,0,0,0,9.62,5.47c.56.19,1.15.35,1.75.49l.15,0a26,26,0,0,0,5.61.55l0,0h1.17c.52,0,1.05,0,1.57-.09h0l.51,0c.82-.08,6.71-3.84,6.71-3.84.09-8.05-.09-14.57-.44-20C396.69,295.22,391.32,297.09,384.78,297.09Z" transform="translate(0.38)"/><path class="cls-31" d="M397.54,292.24a2.09,2.09,0,0,0-.19-.81q0,.68.09,1.38A1.9,1.9,0,0,0,397.54,292.24Z" transform="translate(0.38)"/><path class="cls-31" d="M372,292.24a1.52,1.52,0,0,0,0,.21c0-.29.07-.59.11-.88A2,2,0,0,0,372,292.24Z" transform="translate(0.38)"/><path class="cls-31" d="M384.78,287.44c-7,0-12.61,2.15-12.61,4.8s5.65,4.79,12.61,4.79,12.61-2.15,12.61-4.79S391.74,287.44,384.78,287.44Z" transform="translate(0.38)"/><path class="cls-31" d="M384.78,287.39c-6.45,0-11.76,1.82-12.62,4.18,0,.29-.07.59-.11.88.3,2.58,5.87,4.64,12.73,4.64,6.54,0,11.91-1.87,12.66-4.28q0-.71-.09-1.38C396.33,289.14,391.1,287.39,384.78,287.39Zm0,9.64c-7,0-12.61-2.15-12.61-4.79s5.65-4.8,12.61-4.8,12.61,2.15,12.61,4.8S391.74,297,384.78,297Z" transform="translate(0.38)"/><path class="cls-30" d="M0,308.07a20.89,20.89,0,0,0,3.37.25h.91l1.21-.07h0l.4,0c.62-.06,5.15-2.95,5.15-2.95.07-6.18-.07-11.2-.34-15.37-.57,1.85-4.7,3.29-9.72,3.29l-1,0Z" transform="translate(0.38)"/><path class="cls-31" d="M10.79,289.45a1.57,1.57,0,0,0-.15-.62c0,.35,0,.7.07,1.06A1.32,1.32,0,0,0,10.79,289.45Z" transform="translate(0.38)"/><path class="cls-31" d="M0,293.16l1,0c5,0,9.15-1.44,9.72-3.29,0-.36-.05-.71-.07-1.06-.78-1.76-4.8-3.1-9.65-3.1H0" transform="translate(0.38)"/><path class="cls-30" d="M36.77,280c-5.26,0-9.55-1.58-9.77-3.57-.56,4.57-1.12,9-1.59,13.24.2.14.39.28.58.44a22.37,22.37,0,0,0,7.39,4.2c.44.15.89.27,1.35.38l.12,0a19.76,19.76,0,0,0,4.31.43h.91c.4,0,.81,0,1.2-.06l0,0,.4,0c.62-.06,5.15-2.95,5.15-2.95.07-6.19-.07-11.2-.34-15.37C45.93,278.56,41.79,280,36.77,280Z" transform="translate(0.38)"/><path class="cls-31" d="M46.57,276.27a1.51,1.51,0,0,0-.14-.62c0,.35,0,.7.07,1.06A1.68,1.68,0,0,0,46.57,276.27Z" transform="translate(0.38)"/><path class="cls-31" d="M27,276.27a.76.76,0,0,0,0,.16c0-.22.05-.45.08-.67A1.5,1.5,0,0,0,27,276.27Z" transform="translate(0.38)"/><path class="cls-31" d="M36.77,272.59c-5.35,0-9.68,1.65-9.68,3.68S31.42,280,36.77,280s9.69-1.65,9.69-3.68S42.12,272.59,36.77,272.59Z" transform="translate(0.38)"/><path class="cls-31" d="M36.77,272.54c-5,0-9,1.4-9.69,3.22,0,.22-.06.45-.08.67.22,2,4.51,3.57,9.77,3.57,5,0,9.16-1.44,9.73-3.29,0-.36,0-.71-.07-1.06C45.65,273.89,41.63,272.54,36.77,272.54Zm0,7.41c-5.35,0-9.68-1.65-9.68-3.68s4.33-3.68,9.68-3.68,9.69,1.65,9.69,3.68S42.12,280,36.77,280Z" transform="translate(0.38)"/><path class="cls-30" d="M108.45,281.94c-5.26,0-9.55-1.58-9.77-3.56-.55,4.57-1.12,9-1.59,13.23.2.14.39.29.58.44a22.78,22.78,0,0,0,7.39,4.21,12.22,12.22,0,0,0,1.35.37l.12,0a20.46,20.46,0,0,0,4.31.42v0l.62,0h.28c.4,0,.81,0,1.21-.07h0c.13,0,.27,0,.4,0,.62-.06,5.15-3,5.15-3,.07-6.18-.07-11.19-.34-15.37C117.61,280.51,113.48,281.94,108.45,281.94Z" transform="translate(0.38)"/><path class="cls-31" d="M118.25,278.22a1.48,1.48,0,0,0-.14-.62c0,.34,0,.7.07,1A1.29,1.29,0,0,0,118.25,278.22Z" transform="translate(0.38)"/><path class="cls-31" d="M98.66,278.22a1,1,0,0,0,0,.16c0-.23,0-.45.08-.68A1.55,1.55,0,0,0,98.66,278.22Z" transform="translate(0.38)"/><path class="cls-31" d="M108.45,274.53c-5.34,0-9.68,1.65-9.68,3.69s4.34,3.68,9.68,3.68,9.69-1.65,9.69-3.68S113.8,274.53,108.45,274.53Z" transform="translate(0.38)"/><path class="cls-31" d="M108.45,274.49c-5,0-9,1.4-9.69,3.21,0,.23-.06.45-.08.68.22,2,4.51,3.56,9.77,3.56,5,0,9.16-1.43,9.73-3.29,0-.35-.05-.71-.07-1C117.33,275.83,113.31,274.49,108.45,274.49Zm0,7.41c-5.34,0-9.68-1.65-9.68-3.68s4.34-3.69,9.68-3.69,9.69,1.65,9.69,3.69S113.8,281.9,108.45,281.9Z" transform="translate(0.38)"/><path class="cls-30" d="M170.86,283.53c-5.27,0-9.55-1.58-9.78-3.56-.55,4.57-1.12,9-1.58,13.23.19.15.39.29.58.45a22.37,22.37,0,0,0,7.39,4.2,13.86,13.86,0,0,0,1.34.38l.12,0a20.46,20.46,0,0,0,4.31.43h.91c.41,0,.81,0,1.21-.06v0l.4,0c.62-.06,5.15-2.95,5.15-2.95.07-6.19-.07-11.2-.34-15.37C180,282.1,175.88,283.53,170.86,283.53Z" transform="translate(0.38)"/><path class="cls-31" d="M180.66,279.81a1.53,1.53,0,0,0-.15-.62c0,.35.05.7.07,1.06A1.36,1.36,0,0,0,180.66,279.81Z" transform="translate(0.38)"/><path class="cls-31" d="M161.06,279.81a.88.88,0,0,0,0,.16c0-.22,0-.45.08-.68A1.55,1.55,0,0,0,161.06,279.81Z" transform="translate(0.38)"/><path class="cls-31" d="M170.86,276.13c-5.35,0-9.69,1.64-9.69,3.68s4.34,3.68,9.69,3.68,9.68-1.65,9.68-3.68S176.2,276.13,170.86,276.13Z" transform="translate(0.38)"/><path class="cls-31" d="M170.86,276.08c-5,0-9,1.4-9.7,3.21,0,.23,0,.46-.08.68.23,2,4.51,3.56,9.78,3.56,5,0,9.15-1.43,9.72-3.28,0-.36,0-.71-.07-1.06C179.73,277.43,175.71,276.08,170.86,276.08Zm0,7.41c-5.35,0-9.69-1.65-9.69-3.68s4.34-3.68,9.69-3.68,9.68,1.64,9.68,3.68S176.2,283.49,170.86,283.49Z" transform="translate(0.38)"/><path class="cls-30" d="M252.11,278.09c-5.27,0-9.55-1.58-9.78-3.56-.55,4.57-1.12,9-1.59,13.23.2.14.39.29.58.44a22.78,22.78,0,0,0,7.39,4.21,12.22,12.22,0,0,0,1.35.37l.12,0a20.46,20.46,0,0,0,4.31.42v0l.63,0h.27c.4,0,.81,0,1.21-.07h0c.13,0,.27,0,.4,0,.62-.06,5.15-2.95,5.15-2.95.07-6.18-.07-11.19-.34-15.37C261.26,276.65,257.13,278.09,252.11,278.09Z" transform="translate(0.38)"/><path class="cls-31" d="M261.91,274.36a1.48,1.48,0,0,0-.15-.61c0,.34.05.69.07,1.05A1.32,1.32,0,0,0,261.91,274.36Z" transform="translate(0.38)"/><path class="cls-31" d="M242.31,274.36a1,1,0,0,0,0,.17c0-.23,0-.45.08-.68A1.54,1.54,0,0,0,242.31,274.36Z" transform="translate(0.38)"/><path class="cls-31" d="M252.11,270.68c-5.35,0-9.69,1.65-9.69,3.68s4.34,3.69,9.69,3.69,9.68-1.65,9.68-3.69S257.45,270.68,252.11,270.68Z" transform="translate(0.38)"/><path class="cls-31" d="M252.11,270.64c-5,0-9,1.4-9.7,3.21,0,.23,0,.45-.08.68.23,2,4.51,3.56,9.78,3.56,5,0,9.15-1.44,9.72-3.29,0-.36-.05-.71-.07-1.05C261,272,257,270.64,252.11,270.64Zm0,7.41c-5.35,0-9.69-1.65-9.69-3.69s4.34-3.68,9.69-3.68,9.68,1.65,9.68,3.68S257.45,278.05,252.11,278.05Z" transform="translate(0.38)"/><path class="cls-30" d="M322.26,266.83c-5.27,0-9.55-1.58-9.78-3.56-.55,4.57-1.12,9-1.58,13.23.2.14.39.29.58.44a22.57,22.57,0,0,0,7.39,4.21,12.22,12.22,0,0,0,1.35.37l.12,0a20.37,20.37,0,0,0,4.3.42l0,0,.62,0h.28c.4,0,.8,0,1.2-.07h0l.39,0c.63-.06,5.16-2.95,5.16-2.95.06-6.18-.07-11.19-.34-15.37C331.41,265.39,327.28,266.83,322.26,266.83Z" transform="translate(0.38)"/><path class="cls-31" d="M332.06,263.1a1.64,1.64,0,0,0-.14-.61c0,.34,0,.69.07,1.05A1.62,1.62,0,0,0,332.06,263.1Z" transform="translate(0.38)"/><path class="cls-31" d="M312.46,263.1c0,.06,0,.11,0,.17l.09-.68A1.34,1.34,0,0,0,312.46,263.1Z" transform="translate(0.38)"/><path class="cls-31" d="M322.26,259.42c-5.35,0-9.68,1.65-9.68,3.68s4.33,3.69,9.68,3.69,9.69-1.65,9.69-3.69S327.61,259.42,322.26,259.42Z" transform="translate(0.38)"/><path class="cls-31" d="M322.26,259.38c-4.95,0-9,1.4-9.69,3.21l-.09.68c.23,2,4.51,3.56,9.78,3.56,5,0,9.15-1.44,9.73-3.29,0-.36-.05-.71-.07-1.05C331.14,260.72,327.12,259.38,322.26,259.38Zm0,7.41c-5.35,0-9.68-1.65-9.68-3.69s4.33-3.68,9.68-3.68,9.69,1.65,9.69,3.68S327.61,266.79,322.26,266.79Z" transform="translate(0.38)"/><path class="cls-30" d="M426.09,276.15c-5.26,0-9.55-1.58-9.78-3.56-.55,4.57-1.11,9-1.58,13.23l.58.44a22.4,22.4,0,0,0,7.39,4.21c.44.15.89.27,1.35.38l.12,0a19.76,19.76,0,0,0,4.31.42v0h.9c.4,0,.81,0,1.2-.06l0,0,.4,0c.62-.06,5.15-2.95,5.15-2.95.07-6.19-.07-11.2-.34-15.37C435.25,274.72,431.11,276.15,426.09,276.15Z" transform="translate(0.38)"/><path class="cls-31" d="M435.89,272.43a1.51,1.51,0,0,0-.14-.62c0,.34.05.7.07,1.06A1.68,1.68,0,0,0,435.89,272.43Z" transform="translate(0.38)"/><path class="cls-31" d="M416.29,272.43c0,.05,0,.11,0,.16l.09-.68A1.56,1.56,0,0,0,416.29,272.43Z" transform="translate(0.38)"/><path class="cls-31" d="M426.09,268.74c-5.35,0-9.68,1.65-9.68,3.69s4.33,3.68,9.68,3.68,9.69-1.65,9.69-3.68S431.44,268.74,426.09,268.74Z" transform="translate(0.38)"/><path class="cls-31" d="M426.09,268.7c-4.95,0-9,1.4-9.69,3.21l-.09.68c.23,2,4.52,3.56,9.78,3.56,5,0,9.16-1.43,9.73-3.28,0-.36-.05-.72-.07-1.06C435,270,431,268.7,426.09,268.7Zm0,7.41c-5.35,0-9.68-1.65-9.68-3.68s4.33-3.69,9.68-3.69,9.69,1.65,9.69,3.69S431.44,276.11,426.09,276.11Z" transform="translate(0.38)"/><path class="cls-30" d="M513.68,262.94c-5.27,0-9.55-1.58-9.78-3.57-.55,4.57-1.12,9-1.58,13.24.2.14.39.28.58.44a22.37,22.37,0,0,0,7.39,4.2c.43.15.89.27,1.35.38l.12,0a19.67,19.67,0,0,0,4.3.43H517c.41,0,.81,0,1.21-.06l0,0,.39,0c.63-.06,5.15-3,5.15-3,.07-6.19-.06-11.2-.33-15.37C522.83,261.5,518.7,262.94,513.68,262.94Z" transform="translate(0.38)"/><path class="cls-31" d="M523.48,259.21a1.53,1.53,0,0,0-.15-.62c0,.35,0,.7.08,1.06A1.68,1.68,0,0,0,523.48,259.21Z" transform="translate(0.38)"/><path class="cls-31" d="M503.88,259.21c0,.06,0,.11,0,.16,0-.22.06-.45.08-.67A1.49,1.49,0,0,0,503.88,259.21Z" transform="translate(0.38)"/><path class="cls-31" d="M513.68,255.53c-5.35,0-9.68,1.65-9.68,3.68s4.33,3.68,9.68,3.68,9.69-1.65,9.69-3.68S519,255.53,513.68,255.53Z" transform="translate(0.38)"/><path class="cls-31" d="M513.68,255.48c-4.95,0-9,1.4-9.7,3.22,0,.22-.05.45-.08.67.23,2,4.51,3.57,9.78,3.57,5,0,9.15-1.44,9.73-3.29,0-.36,0-.71-.08-1.06C522.56,256.83,518.54,255.48,513.68,255.48Zm0,7.41c-5.35,0-9.68-1.65-9.68-3.68s4.33-3.68,9.68-3.68,9.69,1.65,9.69,3.68S519,262.89,513.68,262.89Z" transform="translate(0.38)"/><path class="cls-30" d="M349.24,253.64c-4.34,0-7.87-1.3-8.06-2.93-.45,3.76-.92,7.42-1.3,10.9q.24.17.48.36a18.61,18.61,0,0,0,6.08,3.46c.36.12.73.22,1.11.31l.1,0a16.64,16.64,0,0,0,3.55.35H352l1-.06h0l.33,0a37.72,37.72,0,0,0,4.24-2.43c.06-5.09,0-9.22-.28-12.65C356.77,252.46,353.37,253.64,349.24,253.64Z" transform="translate(0.38)"/><path class="cls-31" d="M357.3,250.58a1.13,1.13,0,0,0-.12-.51q0,.42.06.87A1.13,1.13,0,0,0,357.3,250.58Z" transform="translate(0.38)"/><path class="cls-31" d="M341.17,250.58s0,.09,0,.13c0-.18.05-.37.07-.56A1.26,1.26,0,0,0,341.17,250.58Z" transform="translate(0.38)"/><path class="cls-31" d="M349.24,247.54c-4.41,0-8,1.36-8,3s3.57,3,8,3,8-1.36,8-3S353.64,247.54,349.24,247.54Z" transform="translate(0.38)"/><path class="cls-31" d="M349.24,247.51c-4.08,0-7.45,1.15-8,2.64,0,.19,0,.38-.07.56.19,1.63,3.72,2.93,8.06,2.93,4.13,0,7.53-1.18,8-2.7q0-.45-.06-.87C356.54,248.61,353.23,247.51,349.24,247.51Zm0,6.1c-4.41,0-8-1.36-8-3s3.57-3,8-3,8,1.36,8,3S353.64,253.61,349.24,253.61Z" transform="translate(0.38)"/><path class="cls-30" d="M387.61,252.25c-4.33,0-7.86-1.3-8.05-2.93-.45,3.76-.92,7.42-1.3,10.89l.48.37a18.61,18.61,0,0,0,6.08,3.46c.36.12.73.22,1.11.31l.1,0a16.54,16.54,0,0,0,3.54.35h.76l1-.06h0l.33,0a37.72,37.72,0,0,0,4.24-2.43c.06-5.09-.06-9.22-.28-12.65C395.15,251.07,391.75,252.25,387.61,252.25Z" transform="translate(0.38)"/><path class="cls-31" d="M395.68,249.18a1.19,1.19,0,0,0-.12-.51l.06.88A1.15,1.15,0,0,0,395.68,249.18Z" transform="translate(0.38)"/><path class="cls-31" d="M379.54,249.18s0,.09,0,.14c0-.19.05-.37.07-.56A1.27,1.27,0,0,0,379.54,249.18Z" transform="translate(0.38)"/><path class="cls-31" d="M387.61,246.15c-4.4,0-8,1.36-8,3s3.57,3,8,3,8-1.36,8-3S392,246.15,387.61,246.15Z" transform="translate(0.38)"/><path class="cls-31" d="M387.61,246.11c-4.07,0-7.44,1.16-8,2.65,0,.19-.05.37-.07.56.19,1.63,3.72,2.93,8.05,2.93,4.14,0,7.54-1.18,8-2.7l-.06-.88C394.92,247.22,391.61,246.11,387.61,246.11Zm0,6.11c-4.4,0-8-1.36-8-3s3.57-3,8-3,8,1.36,8,3S392,252.22,387.61,252.22Z" transform="translate(0.38)"/><path class="cls-30" d="M122.3,255.25c-4.34,0-7.87-1.31-8-2.94-.46,3.76-.93,7.42-1.31,10.9l.48.36A18.43,18.43,0,0,0,119.5,267a8.72,8.72,0,0,0,1.11.31l.1,0a16.08,16.08,0,0,0,3.55.35H125l1,0v0l.33,0a37.72,37.72,0,0,0,4.24-2.43c.06-5.09-.05-9.22-.27-12.65C129.83,254.06,126.43,255.25,122.3,255.25Z" transform="translate(0.38)"/><path class="cls-31" d="M130.37,252.18a1.27,1.27,0,0,0-.12-.51q0,.42.06.87A1.51,1.51,0,0,0,130.37,252.18Z" transform="translate(0.38)"/><path class="cls-31" d="M114.23,252.18a.59.59,0,0,0,0,.13l.06-.55A1.16,1.16,0,0,0,114.23,252.18Z" transform="translate(0.38)"/><path class="cls-31" d="M122.3,249.15c-4.41,0-8,1.35-8,3s3.57,3,8,3,8-1.36,8-3S126.7,249.15,122.3,249.15Z" transform="translate(0.38)"/><path class="cls-31" d="M122.3,249.11c-4.08,0-7.44,1.15-8,2.65l-.06.55c.18,1.63,3.71,2.94,8,2.94,4.13,0,7.53-1.19,8-2.71q0-.45-.06-.87C129.61,250.22,126.3,249.11,122.3,249.11Zm0,6.1c-4.41,0-8-1.36-8-3s3.57-3,8-3,8,1.35,8,3S126.7,255.21,122.3,255.21Z" transform="translate(0.38)"/><path class="cls-30" d="M200.54,246.56c-4.34,0-7.87-1.3-8.06-2.94-.45,3.76-.92,7.43-1.3,10.9l.48.36a18.64,18.64,0,0,0,6.08,3.47,10.06,10.06,0,0,0,1.11.3l.1,0a16,16,0,0,0,3.55.35v0h.74l1,0h0l.33,0a37.79,37.79,0,0,0,4.24-2.42c.06-5.1,0-9.22-.28-12.66C208.07,245.37,204.67,246.56,200.54,246.56Z" transform="translate(0.38)"/><path class="cls-31" d="M208.6,243.49a1.16,1.16,0,0,0-.12-.51c0,.28,0,.58.06.87A1.13,1.13,0,0,0,208.6,243.49Z" transform="translate(0.38)"/><path class="cls-31" d="M192.47,243.49s0,.09,0,.13c0-.18.05-.37.07-.55A1.2,1.2,0,0,0,192.47,243.49Z" transform="translate(0.38)"/><path class="cls-31" d="M200.54,240.46c-4.41,0-8,1.35-8,3s3.57,3,8,3,8-1.36,8-3S204.94,240.46,200.54,240.46Z" transform="translate(0.38)"/><path class="cls-31" d="M200.54,240.42c-4.08,0-7.44,1.15-8,2.65,0,.18,0,.37-.07.55.19,1.64,3.72,2.94,8.06,2.94,4.13,0,7.53-1.19,8-2.71,0-.29,0-.59-.06-.87C207.84,241.53,204.53,240.42,200.54,240.42Zm0,6.1c-4.41,0-8-1.36-8-3s3.57-3,8-3,8,1.35,8,3S204.94,246.52,200.54,246.52Z" transform="translate(0.38)"/><path class="cls-30" d="M279.28,243.39c-4.33,0-7.86-1.31-8-2.94-.45,3.76-.92,7.42-1.3,10.9l.48.36a18.43,18.43,0,0,0,6.08,3.46,8.28,8.28,0,0,0,1.11.31l.1,0a15.93,15.93,0,0,0,3.54.35H282l1,0h0l.33,0a37.79,37.79,0,0,0,4.24-2.42c.05-5.1-.06-9.23-.28-12.66C286.82,242.2,283.42,243.39,279.28,243.39Z" transform="translate(0.38)"/><path class="cls-31" d="M287.35,240.32a1.27,1.27,0,0,0-.12-.51l.06.87A1.13,1.13,0,0,0,287.35,240.32Z" transform="translate(0.38)"/><path class="cls-31" d="M271.21,240.32s0,.09,0,.13c0-.18,0-.37.07-.55A1.17,1.17,0,0,0,271.21,240.32Z" transform="translate(0.38)"/><path class="cls-31" d="M279.28,237.29c-4.4,0-8,1.35-8,3s3.57,3,8,3,8-1.36,8-3S283.69,237.29,279.28,237.29Z" transform="translate(0.38)"/><path class="cls-31" d="M279.28,237.25c-4.08,0-7.44,1.15-8,2.65,0,.18-.05.37-.07.55.19,1.63,3.72,2.94,8,2.94,4.14,0,7.54-1.19,8-2.71l-.06-.87C286.59,238.36,283.28,237.25,279.28,237.25Zm0,6.1c-4.4,0-8-1.36-8-3s3.57-3,8-3,8,1.35,8,3S283.69,243.35,279.28,243.35Z" transform="translate(0.38)"/><path class="cls-30" d="M64.84,255.86c-4.34,0-7.87-1.3-8.05-2.93-.46,3.76-.93,7.42-1.31,10.9l.48.36A18.61,18.61,0,0,0,62,267.65c.36.12.74.22,1.11.31l.1,0a16.7,16.7,0,0,0,3.55.35h.75q.49,0,1-.06h0l.33,0a37.72,37.72,0,0,0,4.24-2.43c.06-5.09-.05-9.22-.28-12.65C72.37,254.68,69,255.86,64.84,255.86Z" transform="translate(0.38)"/><path class="cls-31" d="M72.91,252.8a1.27,1.27,0,0,0-.12-.51c0,.28,0,.57,0,.87A1.15,1.15,0,0,0,72.91,252.8Z" transform="translate(0.38)"/><path class="cls-31" d="M56.77,252.8a.59.59,0,0,0,0,.13l.06-.56A1.26,1.26,0,0,0,56.77,252.8Z" transform="translate(0.38)"/><path class="cls-31" d="M64.84,249.76c-4.41,0-8,1.36-8,3s3.57,3,8,3,8-1.36,8-3S69.24,249.76,64.84,249.76Z" transform="translate(0.38)"/><path class="cls-31" d="M64.84,249.73c-4.08,0-7.44,1.15-8,2.64l-.06.56c.18,1.63,3.71,2.93,8.05,2.93,4.13,0,7.53-1.18,8-2.7,0-.3,0-.59,0-.87C72.15,250.83,68.84,249.73,64.84,249.73Zm0,6.1c-4.41,0-8-1.36-8-3s3.57-3,8-3,8,1.36,8,3S69.24,255.83,64.84,255.83Z" transform="translate(0.38)"/><path class="cls-30" d="M342.47,328.33c-6.85,0-12.43-2.06-12.73-4.63-.71,5.94-1.45,11.73-2.06,17.22.26.18.51.37.76.57a29.24,29.24,0,0,0,9.62,5.48c.56.19,1.15.35,1.75.49l.16,0a25.89,25.89,0,0,0,5.6.55l0,0,.81,0h.36c.53,0,1.05-.05,1.57-.09l0,0c.17,0,.35,0,.52,0,.81-.08,6.7-3.84,6.7-3.84.09-8.05-.09-14.58-.44-20C354.39,326.46,349,328.33,342.47,328.33Z" transform="translate(0.38)"/><path class="cls-31" d="M355.23,323.48a2.08,2.08,0,0,0-.19-.8l.09,1.37A1.8,1.8,0,0,0,355.23,323.48Z" transform="translate(0.38)"/><path class="cls-31" d="M329.72,323.48c0,.07,0,.14,0,.22,0-.3.08-.59.11-.89A2,2,0,0,0,329.72,323.48Z" transform="translate(0.38)"/><path class="cls-31" d="M342.47,318.69c-7,0-12.6,2.14-12.6,4.79s5.64,4.8,12.6,4.8,12.61-2.15,12.61-4.8S349.43,318.69,342.47,318.69Z" transform="translate(0.38)"/><path class="cls-31" d="M342.47,318.63c-6.44,0-11.76,1.82-12.62,4.18,0,.3-.07.59-.11.89.3,2.57,5.88,4.63,12.73,4.63,6.54,0,11.92-1.87,12.66-4.28l-.09-1.37C354,320.38,348.79,318.63,342.47,318.63Zm0,9.65c-7,0-12.6-2.15-12.6-4.8s5.64-4.79,12.6-4.79,12.61,2.14,12.61,4.79S349.43,328.28,342.47,328.28Z" transform="translate(0.38)"/><path class="cls-32" d="M524.41,338.79c-13.48,1.38-30,2.19-47.82,2.19-45.5,0-82.39-5.29-82.39-11.82s36.89-11.83,82.39-11.83c17.83,0,34.34.81,47.82,2.19Z" transform="translate(0.38)"/><path class="cls-16" d="M524.62,190.73c-3.86-6-9.58-8.08-17.25-8.08A21.64,21.64,0,0,0,492,189a21.71,21.71,0,0,0-35.74-.06,21.71,21.71,0,0,0-35.63-5.28,29.91,29.91,0,1,0,7.9,48.33,21.71,21.71,0,0,0,30.33,4.12A21.71,21.71,0,0,0,491.47,235a21.66,21.66,0,0,0,16.79,8c7.49,0,12.26-5.38,16.16-11.15Z" transform="translate(0.38)"/><path class="cls-30" d="M432.43,329.16s30.47-12.63,30.47-32.32,1.88-27.3-2.92-36.69-58.26-24.51-58.26-24.51l4.66-12s34.32,13.09,36.51,11.1-1.75-32.91-1.75-32.91l8.35-2.26S454.82,231,455,237.94s13.64,17.47,15.43,8.08,4.19-45.93,4.19-45.93l8.42-1.73s-1.49,22.45,0,25.86,26.24-24.82,26.24-24.82l8,4.5-29.9,29.75s-3.81,11.11.75,15.58,36.54-26,36.54-26v11.93s-29.43,24.64-29.68,31-.73,7.62.2,27.51S523,329.16,523,329.16s-19.13,3.42-33.65,2.88c-15.24-.57-10.35,4.33-20.83,4.33-11.29,0-5.68-6.51-12.09-5.56C439.46,333.36,432.43,329.16,432.43,329.16Z" transform="translate(0.38)"/><g class="cls-33"><path class="cls-34" d="M524.62,235.19V223.26s-14.4,14-29.05,23.31a74.27,74.27,0,0,0-10.56,27c-3.29,18.46,9,41.27,3,58.42,0,0,6.59.23,15.11-.35,6.37-.43,20-2.49,20-2.49s-27-15.6-27.9-35.49-.45-21.18-.2-27.51S524.62,235.19,524.62,235.19Z" transform="translate(0.38)"/><path class="cls-34" d="M440.75,234.85c-8-1.13-34.37-11.2-34.37-11.2l-1.84,4.75C415.1,235,428.82,238.63,440.75,234.85Z" transform="translate(0.38)"/><path class="cls-34" d="M462.09,248.1c-3.61-2.32-7-6.68-7.09-10.16-.18-7-5.51-38.36-5.51-38.36l-2.89.78C448.78,216.42,446.23,239.56,462.09,248.1Z" transform="translate(0.38)"/><path class="cls-34" d="M483,198.36l-4.38.9c2,7.6-.48,16.22,4,23.21C481.86,216.18,483,198.36,483,198.36Z" transform="translate(0.38)"/></g><path class="cls-35" d="M524.42,51.34a21.06,21.06,0,0,0-14,.22,31.11,31.11,0,0,0-53.33,9.56A26.44,26.44,0,0,0,413.5,74.18a26.44,26.44,0,0,0-37.72,36.27,26.44,26.44,0,0,0-16.73,43.84,31.12,31.12,0,0,0,14.21,58.81c.46,0,.92,0,1.37,0a21.64,21.64,0,0,0-.47,4.44,21.15,21.15,0,0,0,41.61,5.34,21.19,21.19,0,0,0,13.66-12.76A21.12,21.12,0,0,0,448,196.17a21.1,21.1,0,0,0,26.54,2.15,27.11,27.11,0,0,0,36.76,4.44,21.19,21.19,0,0,0,13.13,13.54Z" transform="translate(0.38)"/><path class="cls-36" d="M452.33,118.91a22.4,22.4,0,0,1,35.56,5.6,22.38,22.38,0,1,0-42,13.33A22.36,22.36,0,0,1,452.33,118.91Z" transform="translate(0.38)"/><path class="cls-36" d="M379.51,124.72A14.93,14.93,0,0,1,401.85,116a14.91,14.91,0,1,0-19.72,21.76A14.88,14.88,0,0,1,379.51,124.72Z" transform="translate(0.38)"/><path class="cls-36" d="M380,87.42a26.3,26.3,0,0,1,36.77-5.6,25.9,25.9,0,0,1,5.52,5.49A26.29,26.29,0,1,0,376,110.58,26.24,26.24,0,0,1,380,87.42Z" transform="translate(0.38)"/><path class="cls-36" d="M516,56.65a21.41,21.41,0,0,1,8.41,2.66v-8a20.56,20.56,0,0,0-4.41-.92,21.47,21.47,0,0,0-21.95,13A21.44,21.44,0,0,1,516,56.65Z" transform="translate(0.38)"/></g><g id="Livello_2" data-name="Livello 2"><line class="cls-37" x1="216.97" y1="241.26" x2="201.96" y2="349.8"/><line class="cls-37" x1="0.38" y1="241.26" x2="524.79" y2="241.26"/><line class="cls-37" x1="186.13" y1="241.26" x2="161.11" y2="349.8"/><line class="cls-37" x1="247.82" y1="241.26" x2="242.82" y2="349.8"/><line class="cls-37" x1="278.67" y1="241.26" x2="283.67" y2="349.8"/><line class="cls-37" x1="155.28" y1="241.26" x2="120.26" y2="349.8"/><line class="cls-37" x1="124.43" y1="241.26" x2="79.4" y2="349.8"/><line class="cls-37" x1="93.58" y1="241.26" x2="38.55" y2="349.8"/><line class="cls-37" x1="62.74" y1="241.26" x2="0.38" y2="342.59"/><line class="cls-37" x1="340.36" y1="241.26" x2="365.38" y2="349.8"/><line class="cls-37" x1="309.52" y1="241.26" x2="324.53" y2="349.8"/><line class="cls-37" x1="371.21" y1="241.26" x2="406.23" y2="349.8"/><line class="cls-37" x1="402.06" y1="241.26" x2="447.09" y2="349.8"/><line class="cls-37" x1="432.91" y1="241.26" x2="487.94" y2="349.8"/><line class="cls-37" x1="463.75" y1="241.26" x2="528.8" y2="349.8"/><line class="cls-37" x1="32.72" y1="241.26" x2="0.38" y2="274.7"/><line class="cls-37" x1="493.77" y1="241.26" x2="525.01" y2="280.74"/><line class="cls-37" x1="0.38" y1="250.4" x2="524.79" y2="250.4"/><line class="cls-37" x1="0.38" y1="268.67" x2="524.79" y2="268.67"/><line class="cls-37" x1="0.38" y1="296.09" x2="524.79" y2="296.09"/><line class="cls-37" x1="0.38" y1="329.9" x2="524.79" y2="329.9"/></g></g></svg>