<svg xmlns="http://www.w3.org/2000/svg" viewBox="0 0 596.28 597.73"><defs><style>.cls-1{fill:#e5effb;}.cls-1,.cls-10,.cls-11,.cls-5,.cls-6,.cls-9{stroke:#fff;stroke-miterlimit:10;}.cls-10,.cls-2{fill:#f0d29e;}.cls-3{fill:#fff;}.cls-4{fill:#bacfe5;}.cls-12,.cls-5{fill:#f0a28f;}.cls-14,.cls-6{fill:#b2cea1;}.cls-11,.cls-7{fill:#64a8ba;}.cls-8,.cls-9{fill:none;}.cls-13{fill:#9db3d0;}</style></defs><title>G08_01</title><g id="Map"><path class="cls-1" d="M354.44,50.54c-.81.8-3.2,2.29-5.25,4,1,1.67.81,4.53,2.77,4.71,2.77.27,2.51,4.49-.53,3.83s-3,4.08-.4,8.17-5,8.69-2.89,10.8.4,4.61,1.31,5.93,12.13-.53,17-5.54,6.19-4.34,8.7-3.68,5-1.85,3.68-3.83S376.06,68,376.46,62c.23-3.52-4.57-9.89-9.23-15a6.87,6.87,0,0,1-4.7,1.78C359.36,48.78,355.85,49.13,354.44,50.54Z" transform="translate(0.5 1.95)"/><path class="cls-1" d="M50.56,210.05c-1.57-8.73-2.45-17.2-3.6-17.2-1.6,0-3.73,7.47-6.4,6.93s-2.67-9.6.53-9.6S48,183.24,48,181.1s-3.2-2.13-6.4-2.13-10.15.53-10.15.53-4.28-1.59-4.28-4.27-1.59-4.81-5.87-4.81-4.26-4.26-7.47,0,6.94,4.27,5.87,7.49-4.27,1.06-4.8,3.73.54,9.61,2.14,13.34a52.05,52.05,0,0,1,3.14,16.3c2.48-.47,3.65-1.63,5.95-1.63,2.9,0,6.85-.39,7.12-3.42s3.55-5.27,5.39-4.35,4.62,8.3,4.75,12.12a12.06,12.06,0,0,0,1.39,4.5A25.5,25.5,0,0,1,48,215.89S49.08,211.83,50.56,210.05Z" transform="translate(0.5 1.95)"/><path class="cls-1" d="M388,1.42c-3.44,1.15-4.59-2.87-7.47-2.87s-2.29,6.89-5.16,6.89-2.3,4-6.32,4.59-5.16.57-3.44,3.45-2.29,1.72-5.74,1.72-3.45-2.3-5.74-2.3-4,4-5.74,6.31-13.2,7.47-16.65,9.19c-1,.49-1.81,2-2.51,3.92,4.11.33,8.35,2.69,10.19,5,2.51,3.16-2.9,6.72-5.27,9.61s1.45,3,1.58,5.41,3.3,4.34,4.49,2.24,3.15-1.32,6.85-1.32a2.27,2.27,0,0,1,2.1,1.21c2.05-1.66,4.44-3.15,5.25-4,1.41-1.41,4.92-1.76,8.09-1.76a6.87,6.87,0,0,0,4.7-1.78,54.75,54.75,0,0,0-7.9-7.42c-3-1.84-1.18-7,2.51-7.9s12.78-7.91,15.55-9.49.92-6.72,3.16-10.8c1.16-2.14,5.54-6.21,9.92-9.61A3.58,3.58,0,0,0,388,1.42Z" transform="translate(0.5 1.95)"/><path class="cls-1" d="M44.88,154.69c-5.31-4.87-6.75-.94-10.29-2.81-3.75-2-5.53-2.56-7.31-1.18s-4.55,1.18-6.33,5.53A20,20,0,0,1,19,160c.61,1.32,1.55,2.25,2.31,2.06,1.41-.35,3.17,2.12,6,1.41s4.58,1.76,8.46.71,7.38,1.4,8.79-1.06-1.06-7.74-1.06-7.74S44.07,155.06,44.88,154.69Z" transform="translate(0.5 1.95)"/><path class="cls-2" d="M205.9,402.92c-1.23,0-2.51-1.11-3.74-2.19-1-.88-2.06-1.79-2.76-1.79s-1.89-.69-3.15-6.08l-.18-.76.76.15a26.55,26.55,0,0,1,5.15,2c2.33,1.09,4.74,2.22,6.27,2.22.83,0,1.1-.35,1.24-.65a10.89,10.89,0,0,0,.56-3.82c.14-3.3.3-7.4,5.65-7.8,1.74-.13,3.34-.13,4.76-.14,4.84,0,7-.15,7.7-3.42,1-4.93,5.81-12.78,8.39-12.78a.75.75,0,0,1,.24,0l.24,0,.14.22c3.1,5.74,4.2,6,4.39,6a4.6,4.6,0,0,0,3.06-1.21,3.64,3.64,0,0,1,2.2-1,3.13,3.13,0,0,1,.66.08c.36-.41-.44-3.54-.7-4.57l-.12-.46.45-.14c1.29-.41,1.73-.94,1.59-1.91-.34-2.4,1.38-3.38,2.76-4.18,1-.58,1.9-1.09,2-2,.29-2.94,4.16-9.41,7.62-9.41s8.67,4.53,8.67,7.35c0,.55.48,1,1.45,1.34a11,11,0,0,0,3.5.5,11.21,11.21,0,0,0,2.34-.22,3.81,3.81,0,0,1,.78-.08,7.11,7.11,0,0,1,5.28,2.74,3.48,3.48,0,0,1,.58,3.26c-.66,2-3.76,2.27-6.25,2.48a13.63,13.63,0,0,0-2.18.3l.12.11a1.73,1.73,0,0,1,.68,1.56c-.22,1.67-3.06,3.05-5.8,4.4l-.74.36-.22-.11a10.83,10.83,0,0,0-4-1.38l-1.55,0c-.67,0-1.41,0-2.18,0-2.81,0-6.74.22-8.51,2.13a4,4,0,0,0-1,3.18c.34,4.3-1.92,5.23-3.57,5.91-1.29.54-1.86.82-1.7,2a4.82,4.82,0,0,1-1.28,4,5.33,5.33,0,0,0-1.35,4.42c.39,3.48-1.23,3.81-3.47,4.27a17.55,17.55,0,0,0-4.71,1.51,7,7,0,0,1-2.93.92,2.85,2.85,0,0,1-2.1-1,4.39,4.39,0,0,0-3.62-1.4,8.4,8.4,0,0,0-5.89,2,9.87,9.87,0,0,1-2.91,1.66,11.67,11.67,0,0,1-3.63.42c-.7,0-1.42,0-2.14-.05s-1.39,0-2.06,0c-1.28,0-2.85.07-3.62.65A1.94,1.94,0,0,1,205.9,402.92ZM144,398.27a88.23,88.23,0,0,1-13-7.72l-2.29-1.62c-3.6-2.51-5.41-3.78-6.45-6.79a30.13,30.13,0,0,0-3.2-5.26c-2.6-3.8-5.83-8.53-5.93-12-.09-4.12-.37-8.89-2.42-13.45l-.3-.66.72,0c.39,0,.79,0,1.19,0a22.61,22.61,0,0,1,4.11.38,5.66,5.66,0,0,1,4.78,5.75c0,.24.48.4.68.46a8.41,8.41,0,0,0,2.2.22,21.22,21.22,0,0,0,3.54-.3,1.42,1.42,0,0,1,0-.45,3.49,3.49,0,0,1,2.65-3.13l.35-.11.21.3a5,5,0,0,1,.76,1.42c.27.91.68,1,1.37,1.22,1,.27,2.16.6,3,3.12.51,1.56,1.73,2.36,3,3.22,1.84,1.21,3.92,2.59,3.84,6.29a52.9,52.9,0,0,1-.62,6c-.6,4.34-1.22,8.83.61,10.74a34.73,34.73,0,0,1,5.2,7.88l.23.48-2.67,1.12-1.06,3.17Z" transform="translate(0.5 1.95)"/><path class="cls-3" d="M261.06,350c3.16,0,8.17,4.48,8.17,6.85,0,1.73,2.94,2.34,5.45,2.34a12.07,12.07,0,0,0,2.45-.23,2.87,2.87,0,0,1,.67-.07c2.48,0,6.35,2.45,5.39,5.34-1.05,3.16-10.54,1.32-8.17,3.43,2.06,1.82-2.41,3.84-5.53,5.38a11.39,11.39,0,0,0-4.22-1.43c-1,0-2.31-.06-3.73-.06-4.62,0-10.37.62-10,5.85.53,6.85-5.79,4.21-5.27,7.91s-3.16,3.69-2.64,8.43-2.62,2.63-7.9,5.27a6.42,6.42,0,0,1-2.71.87c-2,0-1.7-2.45-5.72-2.45-5.27,0-5.8,2.64-9,3.68a11.3,11.3,0,0,1-3.47.4c-1.38,0-2.85-.09-4.2-.09-1.65,0-3.1.13-3.92.75a1.47,1.47,0,0,1-.88.29c-2,0-4.67-4-6.5-4-1.08,0-2-2.88-2.67-5.7,3.11.63,8.61,4.27,11.52,4.27a1.67,1.67,0,0,0,1.69-.94c1.58-3.43-1.31-10.8,5.8-11.33s11.86,1.05,12.91-3.95,5.8-12.39,7.9-12.39a1.16,1.16,0,0,1,.18,0c1.92,3.56,3.75,6.29,4.83,6.29,2.87,0,3.57-2.18,5.25-2.18a2.11,2.11,0,0,1,.54.07l.19,0c.93,0,.49-2.22-.28-5.22,1.21-.38,2.15-1,1.94-2.45-.53-3.69,4.48-3.42,4.74-6.06s3.95-9,7.12-9m-148.74,1.22a21.79,21.79,0,0,1,4,.37,5.15,5.15,0,0,1,4.37,5.26c0,.93,1.66,1.18,3.38,1.18a21.86,21.86,0,0,0,3.64-.31c.84-.16-.24-2.63,2.75-3.59a5,5,0,0,1,.68,1.27c.79,2.63,3,.27,4.35,4.35s7,3.42,6.85,9.35-2.77,14.1.13,17.13A34.66,34.66,0,0,1,147.6,394l-2.39,1-1,2.86a88.42,88.42,0,0,1-13-7.68c-5.14-3.69-7.38-4.74-8.56-8.17s-9-11.86-9.1-17.12c-.09-4-.36-9-2.47-13.64.38,0,.76,0,1.16,0M261.06,349c-4,0-7.84,7.08-8.11,9.86-.06.62-.7,1-1.74,1.62-1.43.82-3.39,1.95-3,4.68.08.54,0,1-1.25,1.36l-.9.29.23.91a26.61,26.61,0,0,1,.78,3.88h-.25a4.1,4.1,0,0,0-2.5,1.07,4.14,4.14,0,0,1-2.72,1.11c-.18-.08-1.25-.7-4-5.77l-.24-.44-.49-.07a1.25,1.25,0,0,0-.33-.05c-3,0-7.88,8.46-8.88,13.18-.61,2.89-2.53,3-7.21,3-1.43,0-3,0-4.79.14-5.8.43-6,5-6.12,8.28a10.47,10.47,0,0,1-.52,3.64c-.06.13-.16.35-.78.35-1.42,0-3.88-1.16-6.05-2.17a26.35,26.35,0,0,0-5.27-2.08l-1.53-.31.36,1.52c1.08,4.6,2.13,6.47,3.64,6.47.52,0,1.62,1,2.43,1.67,1.3,1.14,2.65,2.31,4.07,2.31a2.42,2.42,0,0,0,1.48-.5c.65-.49,2.21-.54,3.32-.54.66,0,1.35,0,2,0s1.45.05,2.16.05a11.94,11.94,0,0,0,3.78-.45,10.44,10.44,0,0,0,3.06-1.72,7.86,7.86,0,0,1,5.59-1.91,3.88,3.88,0,0,1,3.27,1.26,3.35,3.35,0,0,0,2.45,1.19,7.34,7.34,0,0,0,3.16-1,17.15,17.15,0,0,1,4.58-1.46c2.22-.45,4.31-.88,3.87-4.81a4.83,4.83,0,0,1,1.25-4.07,5.32,5.32,0,0,0,1.38-4.4c-.1-.71.05-.87,1.39-1.43,1.69-.69,4.25-1.75,3.88-6.41a3.54,3.54,0,0,1,.83-2.8c1.64-1.77,5.44-2,8.15-2,.77,0,1.5,0,2.17,0l1.56,0a10,10,0,0,1,3.78,1.33l.44.22.44-.22.52-.26c3.4-1.66,5.83-3,6.08-4.77a2.07,2.07,0,0,0-.33-1.41l1.25-.13c2.64-.23,5.92-.51,6.69-2.83a4,4,0,0,0-.66-3.71,7.66,7.66,0,0,0-5.68-2.94,3.57,3.57,0,0,0-.89.1,11.65,11.65,0,0,1-2.23.2c-2.66,0-4.45-.7-4.45-1.34,0-3.08-5.57-7.85-9.17-7.85Zm-148.74,1.22c-.41,0-.82,0-1.21,0l-1.46.08.6,1.33c2,4.47,2.29,9.18,2.38,13.25.1,3.64,3.25,8.24,6,12.29a30.78,30.78,0,0,1,3.13,5.14c1.1,3.17,3.07,4.55,6.64,7l2.29,1.62a88.91,88.91,0,0,0,13.13,7.77l1,.45.36-1,.82-2.44,2-.83,1-.41-.46-.94a35.4,35.4,0,0,0-5.29-8c-1.66-1.74-1.05-6.1-.47-10.32a56.06,56.06,0,0,0,.62-6.1c.09-4-2.22-5.49-4.07-6.72-1.28-.84-2.38-1.56-2.83-2.95-.9-2.78-2.35-3.19-3.32-3.46-.65-.18-.83-.23-1-.88a5.57,5.57,0,0,0-.83-1.56l-.42-.6-.7.23a4,4,0,0,0-3,3.52l0,.11a23.13,23.13,0,0,1-3.07.22,5.35,5.35,0,0,1-2.38-.33,6.13,6.13,0,0,0-5.19-6.09,22.71,22.71,0,0,0-4.2-.39Z" transform="translate(0.5 1.95)"/><path class="cls-4" d="M311.38,287.52c5-.8,11.86,5.53,10.81,7.9s.26,10,2.63,7.9,6.06.53,3.69,3.95,3.69,6.85,4.47,11.07,3.43.79,2.91-2.37.52-2.9,3.95-5.27-.27-6.32-2.37-10.8-10-2.9-10-7.12-5.79-5.53-6.06-7.9-7.9-4.75-12.38-2.11-1.32-4.74-4.48-8.17,2.37-8.43,6.06-12.64-1-11.33-.53-14.5.27-4.21-1.58-3.16-9.48-3.15-12.9-1.05-.27,19.5-1.85,20.82-3.63-2.82-4.22-1.06c-.79,2.37.27,12.12,2.37,12.12s3.7,2.64,2.38,6.85,3.94,4.74,8.95,2.9S306.37,288.31,311.38,287.52Zm-16.86,2.37c.79,3.69,2.64,11.33,8.43,9.48S294,287.24,294.52,289.89Zm14.75,25.55c1.32-.26,4.49,0,4.74-2.63s3.17,4.74.8,7.11-2.38,9,1.32,9.75,10.53-11.85,9.48-14.23-4.22,1.58-3.42-1.57-9.49-11.34-13.44-10.55S306.17,316.06,309.27,315.44Zm-31.09,5c-3.68,4.74-12.49,12.62-11.33,14.76,1.58,2.89,11.33-11.6,16.08-15s3.95-6.32,2.37-9.49S281.87,315.71,278.18,320.45Zm46.9,5.27c1.06,2.63,8.7-1.58,6.59-4.22S324.3,323.75,325.08,325.72Zm23.72,20.55c3.16-3.69-2.11-13.44-2.11-19.75S338,322,340.36,326s-4.47.79-5,4.74-5.54.79-5.27,3.95-5.27,0-7.9-1.84-6.33,5-10.28,6.06-6.05,9.45-3.43,9.22c3.17-.26,4.74-4.48,7.91-4.21s2.11-3.16,6.58-2.37,1.32,14.23,7.39,15.28,6.32,4.74,9.21,4.74-.52-8.43-.26-11.32S345.63,350,348.8,346.27Z" transform="translate(0.5 1.95)"/><path class="cls-1" d="M559.84,501.73c-1.84-.8-6.58-4-6.32-6.06s-5.27-1.85-8.95-4.22-2.38-10-6.33-11.86-6.85-7.64-2.11-7.38,5.54-2.37,1.85-5.79-17.13-4.74-17.66-9.75-24.5-16.86-35-19.24a65.93,65.93,0,0,1-6.59-1.93v56.24a18.12,18.12,0,0,0,9.49,3.14c11.59.52,8.7-6.06,10.8-6.06s2.9-3.69,5.27-6.59,12.65-.53,18.71,4.21,13.17,18.71,19.49,17.39,12.92,3.7,18.71,3.43S561.69,502.52,559.84,501.73Zm15-46.9c0,2.36-4.21,3.69-10.8,6.31s-18.55-3-19,.8c-.26,2.37,7.38,6.59,14.49,6.59S578,461.41,578,459.31s4.48-5.8,2.63-7.91S574.86,452.45,574.86,454.83Zm9-10c-4.21-2.64-7.9-4.48-2.64.53s2.44,9.25,5.54,8.43C591.73,452.46,588,447.45,583.82,444.81Z" transform="translate(0.5 1.95)"/><path class="cls-5" d="M98.75,420.58c-.52,1.31,2.38,6.58,4.22,5S100.42,416.4,98.75,420.58Zm86.16,16.06c0-2.36-6.8-1.22-4.74,2.12S184.91,439,184.91,436.64ZM85.84,397.91c-.53,2.64,2.37,10.27,5.53,7.12S86.36,395.33,85.84,397.91ZM284.77,443c4,.26,3.43,6.06,2.64,9.48s-2.39,11.57,1,10.27c4.22-1.58,6.85-6.84,4.48-8.69s-2.11-13.44-1.06-16.33,8.18-.79,5.8,3.69,4.48,3.95,4.48,9,3.95,2.37,8.17,1,3.43-3.69.52-6.85,2.11-7.64-1.84-10.27-6.59-6.59-2.9-7.38,14.76-7.12,13.44-9.75-16.86.53-18.18,5.27-12.38-.53-11.07-8.7,23.19-9.49,29.51-6.58,13.17-4.75,15.55-9.23-5,.79-9.49,3.7-16.33-.27-22.39-2.38-5.8,3.69-10.81,4.48-3.95,11.86-6.32,13.17S284,426.37,279.24,434,280.82,442.71,284.77,443Zm-120.41,6.85c-.26-3.69,1.32-7.38,1.32-9.23s1.31-2.62,3.68-2.1,2.12-5,.27-5.53-2.9-7.12-7.39-7.12-3.68,3.69-1,4,4.21,2.37,3.42,4.22-1.84-1.85-5.53-1.58-1.32-4.49-5.54-4.75-3.42-7.91-7.9-7.91-4.74-3.69-1.84-6.32-4.48-5-4.48-8.17-4.75-1.31-4.75-4-2.1-1.31-4.48-4.48-3.42-.27-5.53-2.63-5-3.69-6.85-2.9-6.06-3.43-7.64-7.65c-1.25-3.35-13.43-8.95-15-13.43s-5.79-6.33-12.9-6.06-9.93-7-11.6-3.43c-2.11,4.48,7.64,14.5,12.12,17.13S89.53,390,94.8,390.54s5.79,17.13,9.74,17.91,12.4,13.71,13.71,20.55,10,10.28,12.91,15.29,14.49,11.86,16.07,14,3.16,6.85,4.48,4.47,6.85,0,9.49.27S164.62,453.51,164.36,449.82Zm201.3-42.15c5.8.52,3.16-2.9,3.16-6.6s-5.27-.52-5.27-2.37-1.84-9.22-6.06-3.42,1.36,20.12,4.74,19.5C365.13,414.25,359.86,407.14,365.66,407.67Zm-21.61,32.92c1.06,4.22,8.7,6.59,10.81,2.91S342.84,435.71,344.05,440.59Zm-20.81,44.54c-7.11-1.05-11.86,4.21-19,1.58s-17.76.05-16.6,2.37c1.05,2.11,7.37,2.37,14.49,2.64s13.44-3.7,18.18-4S330.36,486.18,323.24,485.13Zm56.38-48.22c-6.85-2.11-18.55-.31-17.39,3.16,1.06,3.16,6.59,1.85,12.12,1.85s8.43,3.95,11.33,3.95S386.48,439,379.62,436.91ZM240.77,482.23c-.26-3.16-10.54-.27-15.55-2.37s5.54-3.95,9-6.07-2.11-2.89-10.54-.25-18.18-5.8-18.44-2.12-15.29-1.58-19-4.21-17.92-6.07-20.82-1-5.4.51-4.21,5.26c.79,3.16,4.21,1.32,6.58,1.32s1.32,4.48,4.74,5,14.76,3.7,15.82,1.33,11.59,0,16.86,4.21,17.39,4.48,22.13,3.7,10,3.15,11.86.51,5.26,4.23,10.54.27S241,485.39,240.77,482.23Zm207.36-57.45c-3.95.27-4.48,7.12-7.91,7.12s-8.16,7.11-14.49,9.23S419.14,423,416.25,419s-18.71-7.11-20.29-2.63-7.07,2.11-7.64,5.8c-.53,3.42,1.32,2.36,4.74,2.36s3.42,2.64,5,6.06,11.08,1.06,14.23.8,3.69,4.21-.78,2.64-4.48,2.1-7.65,1.31-7.38-.53-5.27,1.31,5.53,3.69,5.53,7.91,6.07,3.43,6.07,0,3.16,1.05,9.22,2.63,1.85,4,7.9,4.22,19.76,4.75,25,8.7,1.58,6.58,5,10.28,4.48,7.9-.27,7.9-9.74,4.74-8.42,7.11,16.86-1.05,20.55-1.05c2.41,0,4.84,4.28,9.48,7.4V435.5C467.29,431.66,451.38,424.57,448.13,424.78ZM334.07,491.57a8.7,8.7,0,0,1-2.9,1.23,5.9,5.9,0,0,1-1.31,2.54c-.74.58-2-.57-2.91-1.6-5.09,2.11-7.78,8.21-4.24,10.09s8.35-3,11.18-6.39c.47-.55.87-1.07,1.21-1.51a4.24,4.24,0,0,1,.89-.8,9.82,9.82,0,0,1,.89-.59A14.64,14.64,0,0,0,334.07,491.57ZM260.8,423.74c4.74-2.9,5.79-8.44,5.26-13.71s11.59-5.53,13.44-7.64-2.64-5.53-6.06-7.11-.53-5-2.9-7.11-6.32-7.65-2.89-7.91-2.38-5,.52-6.58c.39-.22.84-.45,1.32-.68a11.39,11.39,0,0,0-4.22-1.43c-4.21,0-14.22-1.06-13.7,5.79s-5.79,4.21-5.27,7.91-3.16,3.69-2.64,8.43-2.62,2.63-7.9,5.27-3.16-1.58-8.43-1.58-5.8,2.64-9,3.68-9.48-.52-11.59,1.06-5.27-3.69-7.38-3.69c-1.08,0-2-2.88-2.67-5.7a4.23,4.23,0,0,0-1-.1c-3.42.27-9.09,9.32-5.8,12.39,4,3.69,2.9,9.48,4.74,12.38s7.66,3.42,7.66,9,5,14.22,8.42,11.86,6.06,1,7.11,3.42,9.22-1.84,11.86-1.32,10.8,2.11,11.34,5.27,7.9-.26,12.9-2.1S256.05,426.63,260.8,423.74Zm19.75,73.77c1.59,2.37,6.06,2.37,7.91,3.95s8.43,5,8.43.53S278.8,494.87,280.55,497.51ZM267.38,484.6c-1.05,2.38-5.53,2.89-8.17,1s-5.9,2.5-4.21,4.74a11.36,11.36,0,0,0,12.91,2.12c6.59-3.17,11.06-.27,12.64-3.69S268.43,482.23,267.38,484.6Z" transform="translate(0.5 1.95)"/><path class="cls-6" d="M106.4,299.62c0-3.51-2.81-3.86-2.81-6.67s0-7.75-3.52-10.91-5.28-7.75-3.17-9.51.35-6.68,1.41-6.33,2.46-3.17.35-4.22,0-5.27-1.76-6-6.68-6.33-6.68-8.09S91.63,236.3,92,233.84,95.84,231,96.9,231s5.28.35,6.69-2.11,7.38-2.81,8.09-4.58,4.58-1.75,4.58-3.86,4.56-7.39,4.56-7.39.12,0,.19,0c-.53-.94-1.69-.09-4,.83-3.95,1.59-5.92-.59-5.53-3s-2.76-2.37-4.94-2.37-.79-3.56,0-5.93-.79-3.75-3.36-3.95-3.75-5.73-2.77-7.31-5.33-3-8.09-1.58-.8-2.38-1.58-4.35S94.27,176.78,98,173s2.17-8.7,2.17-13-1.78-4.35-3.55-4.35-2-2.57-2-4.94-3.75-4.15-5.92-2.57a14,14,0,0,1-1.5.88l.16,0s-.7,3.52-2.11,4.23-1.41,2.81.7,6-3.16,1.75-3.87,0-4.93,1.05-7.38,3.16-6,3.17-6,7-3.16,7.74-2.46,10.91-3.52,9.14-3.16,10.91-6-.35-7-.35-.35,6.67-1.76,8.79-.36,9.49-2.47,9.49S48,215.89,48,215.89a25.5,25.5,0,0,0-3.19,2.61c1.72,3.53,4.87,7.38,8.36,8.81,5.14,2.11,8.56,12.51,10.14,18.05s.53,11.2-1.31,14.36.65,3.29,3.68,4.87,6.46,2.11,8.7-1,6.85-5.4,7.51-9,2.77,1.71,4.61,3.56,3.16,5.4,3.56,9.87.79,15.68,4.6,19.24,4.49,11.33,3.43,14.1,2,7.51,1.19,10.54c-.16.6-.33,1.46-.52,2.42C102.19,315,106.4,299.62,106.4,299.62Z" transform="translate(0.5 1.95)"/><path class="cls-6" d="M179.22,213.08c-2.45-.35-8.79-4.92-8.79-6.69s3.17-4.57-2.46-5.27-6.33-2.82-7.39-3.88-5.63,2.12-7,4.58-2.81-.7-6,1.05-6.32-2.46-7.73,0-4.93-1.4-6.69.71a7.72,7.72,0,0,1-2.43,1.89c1.54,1.72,3.21,3.4,3.21,4.7,0,2.26,4.52,4,4.52,6.77s5.65,5.09,7.34,3.95,5.65-2.26,6.21,1.7,2.83,3.95,2.83,6.77-5.65,1.13-6.78,3.95,9.59,6.21,9.59,8.47,3.39,5.08,4.52,7.9,6.21,6.21,7.34,9.6,5.64,5.08,7.34,6.77,2.25,5.64,1.69,9-.57,9.59,2.82,14.68-4,7.33-6.21,10.15-1.13,6.78-7.9,5.09,1.13,5.64,0,7.89-10.16-2.25-10.16,0c0,1.36-3,3.12-5.49,4.31a14,14,0,0,0,3.95,3c2.11,1.31-2.63,3.56-2.5,7.77s3.29,5.27,4.47,3.55,6.07-5.53,8.05-6.18,0-3.56,2.1-3.43,1.45-3,2.38-4.75,2.36-1,5.53-.91,7.63-2.91,12.12-5.8,5.26-3.56,7-11.86-2-18.18-2.1-20.68-6.19-14.1-8.43-14-12.51-10.41-14.36-12.12-1.32-4.61-3.95-6.85-2.9-8-2.24-12.12,6.46-5,6.33-7.77.52-5.14,3.41-5.27,5.67-2.51,7-4.62a1.77,1.77,0,0,1,.75-.64A4,4,0,0,0,179.22,213.08Z" transform="translate(0.5 1.95)"/><path class="cls-6" d="M157.07,312.89c0-2.25,9,2.27,10.16,0s-6.77-9.59,0-7.89,5.65-2.26,7.9-5.09,9.6-5.07,6.21-10.15a20.1,20.1,0,0,1-3.09-11.09,6.8,6.8,0,0,1-6.32,1.26c-1.9-.77-6.08-1.14-6.08,1.9s-3,3.8-2.67,2.28-3-1.14-4.94-3.42-8.75.76-12.17-.38-8.75,1.9-12.16,6.09.37,4.18.37,8,2.28,3.81,1.15,6.84c0,.08-.06.19-.09.27,3.35,1.48,2,5.67,2.41,8s3.69,1.05,5.53.92-1.19,2.89.39,4.74,6.2-1.58,7.12.66a5.93,5.93,0,0,0,.79,1.36C154,316,157.07,314.25,157.07,312.89Z" transform="translate(0.5 1.95)"/><path class="cls-6" d="M157.63,241.78c0-2.26-10.72-5.65-9.59-8.47s6.78-1.13,6.78-3.95-2.27-2.82-2.83-6.77-4.51-2.83-6.21-1.7-7.34-1.13-7.34-3.95-4.52-4.51-4.52-6.77c0-1.3-1.67-3-3.21-4.7-1.43.72-2.9.88-3.55.22-1.06-1.06-2.46,3.51-1.41,4.57s2.47,7.74-.35,7-2.82-4.57-4.58-4.22c0,0-4.56,5.28-4.56,7.39,0,1.42-1.76,1.89-3.12,2.58a13.15,13.15,0,0,1,1.74,1.73c.77,1.14-.37,4.19.76,6.85s5-1.52,6.09,2.28-.76,5.71-.76,9.5-3,3.44-2.28,6.85,4.94-.75,8-3,5.33-1.9,6.47-.37,4.94.37,5.71-1.53,6.46-2.66,8.36-.38,3.8,4.94,6.46,6.47-1.9,9.88.77,10.64,6.46,4.95,6.09,9.51c-.33,3.93,1.86,6.73-1.16,10.1,1.88,1.22,4.13,1.21,3.81,2.45-.37,1.52,2.67.76,2.67-2.28s4.18-2.67,6.08-1.9a6.8,6.8,0,0,0,6.32-1.26,21.73,21.73,0,0,1,.27-3.59c.56-3.39,0-7.34-1.69-9s-6.21-3.39-7.34-6.77-6.21-6.78-7.34-9.6S157.63,244,157.63,241.78Z" transform="translate(0.5 1.95)"/><path class="cls-6" d="M134.28,294.38c0-3.8-3.8-3.8-.37-8s8.74-7.24,12.16-6.09,10.27-1.9,12.17.38a5.11,5.11,0,0,0,1.13,1c3-3.37.83-6.17,1.16-10.1.37-4.56-3.43-8.75-6.09-9.51s1.9-9.13-.77-10.64-4.55-4.19-6.46-6.47-7.6-1.52-8.36.38-4.57,3-5.71,1.53-3.42-1.92-6.47.37-7.22,6.46-8,3,2.28-3,2.28-6.85,1.91-5.7.76-9.5-5,.38-6.09-2.28,0-5.71-.76-6.85a13.15,13.15,0,0,0-1.74-1.73,2.83,2.83,0,0,0-1.46,1.28c-.71,1.77-6.68,2.12-8.09,4.58S98,231,96.9,231s-4.57.35-4.92,2.82-1.76,12.31-1.76,14.07,4.92,7.39,6.68,8.09-.35,4.93,1.76,6,.7,4.58-.35,4.22.7,4.58-1.41,6.33-.35,6.34,3.17,9.51,3.52,8.09,3.52,10.91,2.81,3.16,2.81,6.67c0,0-4.21,15.35-7.64,14.69-.74,3.83-1.66,9.86-2.51,13.12-1,4.08-1.84,7.64.53,7.91s7.11,5.66,11.72,11.46a20.07,20.07,0,0,1,2.66,4.41,21.65,21.65,0,0,1,5.18.34,5.15,5.15,0,0,1,4.37,5.26c0,1.76,5.93,1.1,7,.87.84-.16-.24-2.63,2.75-3.59-1.8-2.54-6.45-5.64-10.26-6-4.47-.39-6.59-7.11-6.19-10.14s-3.29-5.66-3.29-8.3-2.64-2.77-5.66-4.22.65-10.4,1-14.22,6.72-14.76,4.88-18.18,6.45-6.06,7.51-2.25,1.44,5.67,6.71,5.41,5.27,3.82,9.49,5a5,5,0,0,1,.62.27c0-.08,0-.19.09-.27C136.56,298.19,134.28,298.19,134.28,294.38Z" transform="translate(0.5 1.95)"/><path class="cls-6" d="M241.56,374.73c3.16,0,3.69-2.64,5.79-2.11,1.17.29.72-2-.09-5.19-1.87.6-4.38.58-4.38,2,0,2.31-4-.87-6.15-1C238.65,372,240.48,374.73,241.56,374.73Z" transform="translate(0.5 1.95)"/><path class="cls-6" d="M329.82,493a9.37,9.37,0,0,0-2.87.71c.9,1,2.17,2.18,2.91,1.6a5.9,5.9,0,0,0,1.31-2.54,10.36,10.36,0,0,1-1.18.2A.86.86,0,0,1,329.82,493Zm12.65-6.85c-3.56-.18-5,2.76-7.63,4.85-.25.19-.51.36-.77.54a14.64,14.64,0,0,1,2.81,3c5.1-3,18.09-6.81,18.77-8.62C356.44,483.81,347.74,486.44,342.47,486.18Z" transform="translate(0.5 1.95)"/><path class="cls-7" d="M145,398.44c2,.88,3.51,1.33,4.16,1,.91-.42.35-2.48-.81-4.89l-2.39,1Z" transform="translate(0.5 1.95)"/><path class="cls-8" d="M378.74,0h4.82a4.79,4.79,0,0,0-3-1.45C379.71-1.45,379.16-.85,378.74,0Z" transform="translate(0.5 1.95)"/><path class="cls-9" d="M15.17,152.07l-.19.17Z" transform="translate(0.5 1.95)"/><path class="cls-9" d="M595.28,0H508.54c-3.46.89-6.15,2.61-6.66,5.33-.79,4.22-1.85,5.53-5.8,2.1s-10.27-4.74-13.43-3.16-7.12-1.84-7.38.79,5.8,4,5.27,6.59c-.44,2.19-2.64-1.32-4.74,1s-5,4.22-4.49,1.85,1.85-5.8,0-6.85-2.1-3.69,1.58-5.27A2.63,2.63,0,0,0,474.78,0H392.63a.66.66,0,0,1,0,.14c-.72.52-1.44,1.07-2.17,1.64A3.58,3.58,0,0,0,388,1.42c-2,.67-3.22-.4-4.46-1.42h-4.82c-1,2-1.33,5.44-3.35,5.44-2.87,0-2.3,4-6.32,4.59s-5.16.57-3.44,3.45-2.29,1.72-5.74,1.72-3.45-2.3-5.74-2.3-4,4-5.74,6.31-13.2,7.47-16.65,9.19c-1,.49-1.81,2-2.51,3.92a9.54,9.54,0,0,0-4.3.54c-5,2-11.33,5.93-16.47,9.22s-8.82,2.64-6.19.13-.13-3.56,1.32-6.85,10.4-8.7,6.06-12.12-10.14.13-15.15,5.93-8.17.66-10.41,7.25-7.51,2.76-11.06,3.29-5.8,11.33.13,11.06,10.67-.39,9.22,3.17,1.32,9.09,5.53,7.11,9.75-10.94,11.86-7.77a8.08,8.08,0,0,0,8.69,3.55c3-.79,7.38,4.09,5.14,5.67s-8.69,1.45-10.14,3-4-.26-5.4,2.77-3,3.82-4.88,3.42-.13,3-4.21,4.74-5.53,6.33-4.22,8.31,6.85,2.49,7.9,5.53,4.22,9.75,5.67,10.8-.79,3.55,1.58,5.4,8.83,7.11,7.51,8.43-4.87,0-7.9-1.58-7.65.26-5,.26,5.4,5.93,7.9,5.8,7.38,4.22,5.41,4.88-6.46,4-9.36,4.61,1.59,3.82,3.16,1.84,3.43,3.16,5.14,1.85,6.85.13,3.69,1-5.4,4.22-3.82,5.4-2,.4-1.45,3.43-.13,6.59-1.85,7.24-5.39,2.9-5.79,5.4a9,9,0,0,1-4.09,6.2c-2.23,1.44-6.58,1.71-6.18,2.9s3.28,3.68,1.18,4.34,0,5.27-1.18,6.85-3.82,1.19-3.82,3.3-4.35,2.63-4.49,4.34-6.06,2.24-6.06,3.82-2,4.48-5.13,5.41-2.51,2-5.27,4.22-2.63,4.47-5.27,4.6-12.65.4-15.42,2.51-8.56-1.58-8.69-.27-9.09,7.38-17.39,10.15-13,5.14-12.52,7.51.13,6.18-2.37,3.82-3.56-6.46-2-7.77.27-6.07-2.37-3.7-3.95,2-5.14,0-4.08-2.63-4.86-.25c-.68,2-3.74.61-5.45,1.45a4,4,0,0,0-1.83-1.46c-2.45-.35-8.79-4.92-8.79-6.69s3.17-4.57-2.46-5.27-6.33-2.82-7.39-3.88-5.63,2.12-7,4.58-2.81-.7-6,1.05-6.32-2.46-7.73,0-4.93-1.4-6.69.71-4.92,3.16-6,2.11-2.46,3.51-1.41,4.57,2.47,7.74-.35,7-2.82-4.25-4.39-4.2c-.53-.94-1.69-.09-4,.83-3.95,1.59-5.92-.59-5.53-3s-2.76-2.37-4.94-2.37-.79-3.56,0-5.93-.79-3.75-3.36-3.95-3.75-5.73-2.77-7.31-5.33-3-8.09-1.58-.8-2.38-1.58-4.35S94.27,176.78,98,173s2.17-8.7,2.17-13-1.78-4.35-3.55-4.35-2-2.57-2-4.94-3.75-4.15-5.92-2.57a14,14,0,0,1-1.5.88l-.62-.12c.47.11.78.15.78.15s-.7,3.52-2.11,4.23-1.41,2.81.7,6-3.16,1.75-3.87,0-4.93,1.05-7.38,3.16-6,3.17-6,7-3.16,7.74-2.46,10.91-3.52,9.14-3.16,10.91-6-.35-7-.35-.35,6.67-1.76,8.79-.36,9.49-2.47,9.49a1.92,1.92,0,0,0-1.3.85c-1.57-8.73-2.45-17.2-3.6-17.2-1.6,0-3.73,7.47-6.4,6.93s-2.67-9.6.53-9.6S48,183.24,48,181.1s-3.2-2.13-6.4-2.13-10.15.53-10.15.53-4.28-1.59-4.28-4.27-1.59-4.81-5.87-4.81-4.26-4.26-7.47,0,6.94,4.27,5.87,7.49-4.27,1.06-4.8,3.73.54,9.61,2.14,13.34a52.05,52.05,0,0,1,3.14,16.3,11,11,0,0,1-2.22.22c-4.22,0-15.28,1.59-15.94,5.4-.6,3.52.46,5.37-2,8.42v370H274.44c2.31-.83,4.71,0,7-1.93,2.76-2.37,11.66.59,15.81-4.35s11.26-11.66,12.84-12.65-3.16-6.71.4-10.47,6.91-6.52,6.91-3.55,2.18,8.1,3.56,6.71,3.56-1.18,2.77-4.54-4-5.93-1.38-6.72,6.91,3.55,6.52.59-.8-8.69,1.77-8.69,2.57-2.77,4.15-3-1.38-3.55,1.58-4,7.32,2.57,6.92-.2.2-4.14,2.77-4.14,2.57-2.77,5.13-3,6.72,3.36,7.52,5.53,5.53.4,4.94,4.15,3.15,5.34,3,2,2.77-3.36,5.73-.4,7.9,2.77,4.55-1-3.17-5.74-.4-7.52,1-3.75,3.56-6.52,3.16-8.3,6.32-8.1-1.18-3.75,2.57-2.56,16.6-1,13.63-4.16-5.92-4.93-3.36-5.92,4,4.54,8.3,5.13,15.42,2.77,17.4,5.34,5.72-2.57,6.71-2.77,2.18,5.14,3.36,4.74.2-4.14,3.36-3.55,4.94,3.16,2,4.35,1,3.75-3,5.92-7.32,1.58-5.74,4.15,2.18,5.34-.79,7.52-3.94,2.17-.79,4.34,4.54,2.77,5.93,6.72,4.74-.2,9.09,3.16,5.93,7.31,8.69,6.92,8.11,1.18,7.91,3.75,6.13,6.32,10.87,4.55,5.14-7.12,7.51-10.48,2.17-8.69,2.77-13.63-1.59-13.64.78-15.81-.59-8.3,1.19-9.88,2.37-4.55,2.17-7.12,4.35-7.7,5.74-6.52,1.58,8.7,4.34,10.87,4.55,9.68,4.15,14.23-.59,9.28,2.77,8.9,6.72-2.38,6.92-.2,6.32,3.16,5.93,7.11,1.38,7.31,1.18,10.87,5.33,4.94,5.33,9.29.6,9.48,2.18,10.87-1.58,5.33,2.17,6.12c2.88.61,13.55,5.86,18.27,9.44h49.38ZM205.2,239.82c-.27,3.16-11.59,7.9-15,.79s5.27-12.11,8.69-12.11,10.54-1.06,11.07.79C210.63,231.69,205.46,236.66,205.2,239.82Zm92.48-31.88c-.89.62-7.64-4.74-4.74-15.28s13.43-15.54,15.81-12.38S300.31,206.1,297.68,207.94ZM381,517.86c-3-2.4,11.07-5.14,11.47-2.76S383,519.44,381,517.86ZM398.33,107c-3.95,5-7.38,14.49-10,15-3.12.62-5.8-6.06-3.42-10.8s-.27-11.86-1.33-9-3.42,5.53-5,2.63-.26-3.43,3.69-6.32,7.9-4.22,8.17-1.85,6.05,1.85,6.05,4.49S402.28,102,398.33,107Zm19.24-7.12c-2.64-1.31-6.86-.25-7.65,2.91s-2.63,3.15-5,2.37c-3-1-2.9-11.07,1.32-11.86s7.37.53,8.43-2.37,9-2.9,9,1.05S420.2,101.24,417.57,99.91ZM488.18,43c-3.43,3.16-10.28,5.8-8.17,9.75s0,10.54-2.11,13.7.79,9.22-2.37,12.66-8.16,4.2-8.43,1.31-2.11,5-5.27,5.26-3.95-4.74-6.59-.52-9.22,4-11.32.79-5.54-1-2.64,1.31.26,2.12-3.16,6.07-10,4.74-10.54.53,4.21-8.18-3.69-7.91-20.81,3.16-22.39,5.53-6.59.79-9.76,2.38c-1.89.94-4.47-4.48,0-5.27S402,81.74,405.45,78.31s7.11,1.58,13.17-.79,11.07-3.69,10.8-1.32,7.38.8,5.53-1.84,5.8-3.16,5.53-9,7.65-9.49,6.59-7.11,1.33,6.32,5.8,2.89,7.38-2.63,8.17-6.33,5.79-3.68,5.53-8.69,7.38-9.48,4.49-11.86S470,23.77,472.63,22.45s11.07-7.9,11.33-3.16S491.61,39.84,488.18,43Z" transform="translate(0.5 1.95)"/><path class="cls-9" d="M12.17,155s0,.07,0,.11S12.17,155,12.17,155Z" transform="translate(0.5 1.95)"/><path class="cls-9" d="M14.78,152.41h0Z" transform="translate(0.5 1.95)"/><path class="cls-9" d="M18.33,156.83a1.94,1.94,0,0,1,0-.24A1.94,1.94,0,0,0,18.33,156.83Z" transform="translate(0.5 1.95)"/><path class="cls-9" d="M46.35,154.07l-.24.1Z" transform="translate(0.5 1.95)"/><path class="cls-9" d="M18.31,157.51c0-.14,0-.27,0-.4C18.3,157.24,18.31,157.37,18.31,157.51Z" transform="translate(0.5 1.95)"/><path class="cls-9" d="M83.25,147.56Z" transform="translate(0.5 1.95)"/><path class="cls-9" d="M47.46,153.71l-.18,0Z" transform="translate(0.5 1.95)"/><path class="cls-9" d="M82.9,147.29l0,0Z" transform="translate(0.5 1.95)"/><path class="cls-9" d="M47.12,153.8l-.21.07Z" transform="translate(0.5 1.95)"/><path class="cls-9" d="M46.75,153.93l-.23.08Z" transform="translate(0.5 1.95)"/><path class="cls-9" d="M34.59,151.88c-3.75-2-5.53-2.56-7.31-1.18s-4.55,1.18-6.33,5.53A20,20,0,0,1,19,160a6.66,6.66,0,0,1-.63-2.4c.14,2.41,1.78,4.75,2.94,4.46,1.41-.35,3.17,2.12,6,1.41s4.58,1.76,8.46.71,7.38,1.4,8.79-1.06-1.06-7.74-1.06-7.74,1.29-.64,2.53-1.15l-1.07.46C39.57,149.82,38.13,153.75,34.59,151.88Z" transform="translate(0.5 1.95)"/><path class="cls-9" d="M47.75,153.64l-.12,0Z" transform="translate(0.5 1.95)"/><path class="cls-9" d="M82.6,147l-.06-.06Z" transform="translate(0.5 1.95)"/><path class="cls-9" d="M82.34,146.66l0-.07Z" transform="translate(0.5 1.95)"/><path class="cls-9" d="M15.63,151.51a4.91,4.91,0,0,1-.33.41A4.91,4.91,0,0,0,15.63,151.51Z" transform="translate(0.5 1.95)"/><path class="cls-1" d="M18,211.5a11,11,0,0,0,2.22-.22A52.05,52.05,0,0,0,17.07,195c-1.6-3.73-2.68-10.68-2.14-13.34s3.73-.54,4.8-3.73-9.07-3.22-5.87-7.49,3.21,0,7.47,0,5.87,2.14,5.87,4.81,4.28,4.27,4.28,4.27,6.94-.53,10.15-.53,6.4,0,6.4,2.13-3.74,9.08-6.94,9.08-3.2,9.08-.53,9.6,4.8-6.93,6.4-6.93c1.15,0,2,8.47,3.6,17.2a1.92,1.92,0,0,1,1.3-.85c2.11,0,1.06-7.38,2.47-9.49s.7-8.79,1.76-8.79,7.39,2.1,7,.35,3.86-7.75,3.16-10.91,2.46-7,2.46-10.91,3.52-4.92,6-7,6.68-4.92,7.38-3.16,6,3.16,3.87,0-2.11-5.28-.7-6S87.4,149,87.4,149s-.31,0-.78-.15a10.33,10.33,0,0,1-3.37-1.33h0a3.24,3.24,0,0,1-.35-.27l0,0L82.6,147l-.06-.06a2.83,2.83,0,0,1-.2-.28l0-.07a3,3,0,0,1-.17-.36c-.7-2.11-3.52-4.22-3.52-6s-2.46-1.06-4.57.71-6-2.12-10.56.35-5.62,5.27-7.73,4.92S54,148,52.22,149.75s-3.17,3.87-4.22,3.87l-.25,0-.12,0-.17,0-.18,0-.16,0-.21.07-.16.06-.23.08-.17.06-.24.1-.16.06c-1.24.51-2.53,1.15-2.53,1.15s2.47,5.27,1.06,7.74-4.93,0-8.79,1.06-5.64-1.41-8.46-.71-4.56-1.76-6-1.41c-1.16.29-2.8-2.05-2.94-4.46a.28.28,0,0,0,0-.09c0-.14,0-.27,0-.4a2.46,2.46,0,0,1,0-.28,1.94,1.94,0,0,1,0-.24,4.54,4.54,0,0,1,.09-.51c.71-2.81-1.41-6.68-2.81-4.57a4.91,4.91,0,0,1-.33.41l-.13.15-.19.17-.2.17h0a17.75,17.75,0,0,0-2,1.29,2.31,2.31,0,0,0-.55,1.26s0,.07,0,.11a4.28,4.28,0,0,0,0,.65c0,3.16,1.75,7-.36,9.15-1.5,1.5-7.59,2.46-11.76,2.27v58.17c2.51-3,1.45-4.9,2.05-8.42C2.71,213.09,13.77,211.5,18,211.5Z" transform="translate(0.5 1.95)"/><path class="cls-1" d="M91.82,2c4.59.57,17.8,0,21.24.57s11.48,0,16.07,3.44,6.89.58,9.76,2.3,5.16,2.87,9.18,2.29,4,2.88,6.89,3.45,8-4.59,15.5-8,16.07-1.14,20.09-.57c3.62.52,10-1.3,14.61-5.44H80a3.25,3.25,0,0,1,.35.85C80.91,3.14,87.23,1.42,91.82,2Z" transform="translate(0.5 1.95)"/><path class="cls-1" d="M10.68,153.66C6,153.84,3,151.77,0,151.51v15.64c4.17.19,10.26-.77,11.76-2.27,2.11-2.11.36-6,.36-9.15a4.28,4.28,0,0,1,0-.65s0-.08,0-.11a2.27,2.27,0,0,1,.54-1.26A18.48,18.48,0,0,0,10.68,153.66Z" transform="translate(0.5 1.95)"/><path class="cls-1" d="M12.17,155a2.31,2.31,0,0,1,.55-1.26h0A2.27,2.27,0,0,0,12.17,155Z" transform="translate(0.5 1.95)"/><path class="cls-1" d="M12.16,155.08a4.28,4.28,0,0,0,0,.65A4.28,4.28,0,0,1,12.16,155.08Z" transform="translate(0.5 1.95)"/><path class="cls-1" d="M396.48,101.24c0-2.64-5.79-2.12-6.05-4.49s-4.22-1-8.17,1.85-5.27,3.42-3.69,6.32,3.95.27,5-2.63,3.7,4.21,1.33,9,.3,11.42,3.42,10.8c2.63-.53,6.06-10,10-15S396.48,103.86,396.48,101.24Z" transform="translate(0.5 1.95)"/><path class="cls-1" d="M414.67,91c-1.06,2.9-4.22,1.58-8.43,2.37s-4.36,10.84-1.32,11.86c2.37.78,4.22.78,5-2.37s5-4.22,7.65-2.91,6.06-4,6.06-7.9S415.72,88.06,414.67,91Z" transform="translate(0.5 1.95)"/><path class="cls-1" d="M472.89,2.43c-3.68,1.58-3.42,4.21-1.58,5.27s.53,4.47,0,6.85,2.37.53,4.49-1.85,4.3,1.14,4.74-1C481.07,9,475,7.7,475.27,5.06s4.21.79,7.38-.79,9.48-.26,13.43,3.16,5,2.12,5.8-2.1c.51-2.72,3.2-4.44,6.66-5.33H474.78A2.63,2.63,0,0,1,472.89,2.43Z" transform="translate(0.5 1.95)"/><path class="cls-1" d="M472.63,22.45c-2.63,1.32-4.48,9.49-1.57,11.85s-4.75,6.86-4.49,11.86-4.74,5-5.53,8.69-3.69,2.91-8.17,6.33-6.85-.53-5.8-2.89-6.85,1.31-6.59,7.11-7.37,6.32-5.53,9-5.79,4.21-5.53,1.84-4.75-1-10.8,1.32-9.75-2.64-13.17.79-9.23,9.49-13.71,10.28-1.89,6.21,0,5.27c3.17-1.59,8.18,0,9.76-2.38S416,86.22,423.89,86s3.16,3.69,3.69,7.91,7.11,3.42,10.54-.53,6.06-3.69,3.16-6.07.53-4.47,2.64-1.31,8.69,3.43,11.32-.79,3.43.79,6.59.52,5-8.16,5.27-5.26,5.27,2.1,8.43-1.31.27-9.5,2.37-12.66,4.22-9.75,2.11-13.7,4.74-6.59,8.17-9.75S484.23,24,484,19.29,475.27,21.13,472.63,22.45Z" transform="translate(0.5 1.95)"/><path class="cls-1" d="M198.87,228.5c-3.42,0-12.12,5-8.69,12.11s14.75,2.37,15-.79,5.43-8.13,4.74-10.53C209.41,227.44,202.31,228.5,198.87,228.5Z" transform="translate(0.5 1.95)"/><path class="cls-1" d="M292.94,192.66c-2.9,10.54,3.85,15.9,4.74,15.28,2.63-1.84,13.44-24.5,11.07-27.66S295.84,182.12,292.94,192.66Z" transform="translate(0.5 1.95)"/><path class="cls-1" d="M190.55,5.44c-4-.57-12.63-2.87-20.09.57s-12.63,8.62-15.5,8-2.87-4-6.89-3.45-6.3-.57-9.18-2.29-5.16,1.15-9.76-2.3S116.5,3.14,113.06,2.57,96.41,2.57,91.82,2,80.91,3.14,80.34.85A3.25,3.25,0,0,0,80,0H0V151.51c3,.26,6,2.33,10.68,2.15a18.48,18.48,0,0,1,2,.05c.52-.56,1.3-.73,2-1.29h0l.2-.17.19-.17.13-.15a4.91,4.91,0,0,0,.33-.41c1.4-2.11,3.52,1.76,2.81,4.57a4.54,4.54,0,0,0-.09.51,1.94,1.94,0,0,0,0,.24,2.46,2.46,0,0,0,0,.28c0,.13,0,.26,0,.4a.28.28,0,0,1,0,.09A6.66,6.66,0,0,0,19,160a20,20,0,0,0,2-3.77c1.78-4.35,4.55-4.15,6.33-5.53s3.56-.79,7.31,1.18c3.54,1.87,5-2.06,10.29,2.81l1.07-.46.16-.06.24-.1.17-.06.23-.08.16-.06.21-.07.16,0,.18,0,.17,0,.12,0,.25,0c1,0,2.46-2.11,4.22-3.87s1.4-3.88,3.52-3.52,3.16-2.46,7.73-4.92S71.92,142.72,74,141s4.57-2.47,4.57-.71,2.82,3.87,3.52,6a4,4,0,0,0,.17.36l0,.07a2.83,2.83,0,0,0,.2.28l.06.06.26.26,0,0c.11.09.22.18.35.27h0a10.7,10.7,0,0,0,3.37,1.33l.62.12a14,14,0,0,0,1.5-.88c2.17-1.58,5.92.2,5.92,2.57s.2,4.94,2,4.94,3.55,0,3.55,4.35,1.58,9.29-2.17,13-8.11,10.47-7.31,12.45-1.19,5.73,1.58,4.35,9.09,0,8.09,1.58.2,7.11,2.77,7.31,4.15,1.58,3.36,3.95-2.17,5.93,0,5.93,5.34,0,4.94,2.37,1.58,4.55,5.53,3c2.33-.92,3.49-1.77,4-.83,1.57,0,1.68,3.52,4.39,4.2s1.41-6,.35-7,.35-5.63,1.41-4.57,4.22,0,6-2.11,5.28,1.76,6.69-.71,4.56,1.76,7.73,0,4.58,1.41,6-1.05,6-5.63,7-4.58,1.76,3.17,7.39,3.88,2.46,3.51,2.46,5.27,6.34,6.34,8.79,6.69a4,4,0,0,1,1.83,1.46c1.71-.84,4.77.56,5.45-1.45.78-2.38,3.68-1.73,4.86.25s2.51,2.37,5.14,0,3.95,2.37,2.37,3.7-.52,5.39,2,7.77,2.9-1.45,2.37-3.82,4.22-4.75,12.52-7.51,17.25-8.83,17.39-10.15,5.93,2.37,8.69.27,12.78-2.37,15.42-2.51,2.5-2.37,5.27-4.6,2.1-3.31,5.27-4.22,5.13-3.83,5.13-5.41,5.93-2.1,6.06-3.82,4.49-2.23,4.49-4.34,2.63-1.72,3.82-3.3-.93-6.19,1.18-6.85-.79-3.16-1.18-4.34,4-1.46,6.18-2.9a9,9,0,0,0,4.09-6.2c.4-2.5,4.08-4.74,5.79-5.4s2.38-4.21,1.85-7.24,3-2.25,1.45-3.43.66-4.48,3.82-5.4-2-2.37-3.69-1-3.56-3.82-5.14-1.85-6.05-1.19-3.16-1.84,7.38-4,9.36-4.61-2.91-5-5.41-4.88-5.26-5.8-7.9-5.8,2-1.84,5-.26,6.58,2.9,7.9,1.58-5.14-6.58-7.51-8.43-.13-4.35-1.58-5.4-4.61-7.77-5.67-10.8-6.58-3.56-7.9-5.53.13-6.59,4.22-8.31,2.37-5.14,4.21-4.74,3.42-.4,4.88-3.42,3.95-1.19,5.4-2.77,7.9-1.45,10.14-3-2.11-6.46-5.14-5.67a8.08,8.08,0,0,1-8.69-3.55c-2.11-3.17-7.64,5.79-11.86,7.77s-7-3.56-5.53-7.11-3.29-3.43-9.22-3.17-3.69-10.54-.13-11.06,8.82,3.29,11.06-3.29,5.4-1.45,10.41-7.25,10.8-9.35,15.15-5.93-4.61,8.83-6.06,12.12,1.31,4.35-1.32,6.85,1,3.16,6.19-.13,11.46-7.24,16.47-9.22a9.54,9.54,0,0,1,4.3-.54c.7-1.91,1.54-3.43,2.51-3.92,3.45-1.72,14.93-6.89,16.65-9.19s3.45-6.31,5.74-6.31,2.29,2.3,5.74,2.3,7.46,1.15,5.74-1.72-.57-2.88,3.44-3.45,3.45-4.59,6.32-4.59c2,0,2.34-3.42,3.35-5.44H205.16C200.57,4.14,194.17,6,190.55,5.44Z" transform="translate(0.5 1.95)"/><path class="cls-1" d="M388,1.42a3.58,3.58,0,0,1,2.45.36c.73-.57,1.45-1.12,2.17-1.64a.66.66,0,0,0,0-.14h-9.07C384.8,1,386,2.09,388,1.42Z" transform="translate(0.5 1.95)"/><path class="cls-1" d="M82.54,146.94a2.83,2.83,0,0,1-.2-.28A2.83,2.83,0,0,0,82.54,146.94Z" transform="translate(0.5 1.95)"/><path class="cls-1" d="M83.25,147.56c-.13-.09-.24-.18-.35-.27A3.24,3.24,0,0,0,83.25,147.56Z" transform="translate(0.5 1.95)"/><path class="cls-1" d="M86.62,148.89a10.7,10.7,0,0,1-3.37-1.33A10.33,10.33,0,0,0,86.62,148.89Z" transform="translate(0.5 1.95)"/><path class="cls-1" d="M82.86,147.26,82.6,147Z" transform="translate(0.5 1.95)"/><path class="cls-1" d="M82.29,146.59a4,4,0,0,1-.17-.36A3,3,0,0,0,82.29,146.59Z" transform="translate(0.5 1.95)"/><path class="cls-1" d="M46.11,154.17l-.16.06Z" transform="translate(0.5 1.95)"/><path class="cls-1" d="M18.35,156.59a4.54,4.54,0,0,1,.09-.51A4.54,4.54,0,0,0,18.35,156.59Z" transform="translate(0.5 1.95)"/><path class="cls-1" d="M46.52,154l-.17.06Z" transform="translate(0.5 1.95)"/><path class="cls-1" d="M15.3,151.92l-.13.15Z" transform="translate(0.5 1.95)"/><path class="cls-1" d="M18.32,157.6a.28.28,0,0,0,0-.09A.28.28,0,0,1,18.32,157.6Z" transform="translate(0.5 1.95)"/><path class="cls-1" d="M18.31,157.11a2.46,2.46,0,0,1,0-.28A2.46,2.46,0,0,0,18.31,157.11Z" transform="translate(0.5 1.95)"/><path class="cls-1" d="M48,153.62l-.25,0Z" transform="translate(0.5 1.95)"/><path class="cls-1" d="M47.63,153.67l-.17,0Z" transform="translate(0.5 1.95)"/><path class="cls-1" d="M15,152.24l-.2.17Z" transform="translate(0.5 1.95)"/><path class="cls-1" d="M46.91,153.87l-.16.06Z" transform="translate(0.5 1.95)"/><path class="cls-1" d="M12.71,153.71h0a17.75,17.75,0,0,1,2-1.29C14,153,13.23,153.15,12.71,153.71Z" transform="translate(0.5 1.95)"/><path class="cls-1" d="M47.28,153.76l-.16,0Z" transform="translate(0.5 1.95)"/><path class="cls-1" d="M525.46,579.72c-1.58-1.39-2.18-6.53-2.18-10.87s-5.53-5.74-5.33-9.29-1.58-6.92-1.18-10.87-5.74-4.94-5.93-7.11-3.56-.2-6.92.2-3.16-4.35-2.77-8.9-1.38-12-4.15-14.23-3-9.68-4.34-10.87-5.93,4-5.74,6.52-.39,5.54-2.17,7.12,1.19,7.71-1.19,9.88-.19,10.86-.78,15.81-.4,10.27-2.77,13.63-2.77,8.7-7.51,10.48-11.07-2-10.87-4.55-5.14-4.15-7.91-3.75-4.34-3.56-8.69-6.92-7.7.79-9.09-3.16-2.77-4.54-5.93-6.72-2.17-2.17.79-4.34,2.37-4.95.79-7.52,1.78-2,5.74-4.15,0-4.74,3-5.92,1.19-3.76-2-4.35-2.17,3.16-3.36,3.55-2.37-4.94-3.36-4.74-4.73,5.34-6.71,2.77-13.05-4.74-17.4-5.34-5.72-6.12-8.3-5.13.4,2.76,3.36,5.92-9.88,5.34-13.63,4.16.59,2.76-2.57,2.56-3.75,5.33-6.32,8.1-.79,4.75-3.56,6.52-3,3.76.4,7.52-1.58,3.95-4.55,1-5.93-3-5.73.4-3.56,1.78-3-2-4.16-2-4.94-4.15-4.95-5.73-7.52-5.53-2.56,3-5.13,3-3.16,1.38-2.77,4.14-3.95-.19-6.92.2,0,3.75-1.58,4-1.58,3-4.15,3-2.17,5.72-1.77,8.69-4-1.38-6.52-.59.59,3.36,1.38,6.72-1.38,3.16-2.77,4.54-3.56-3.75-3.56-6.71-3.36-.2-6.91,3.55,1.19,9.49-.4,10.47-8.69,7.71-12.84,12.65-13.05,2-15.81,4.35c-2.26,1.94-4.66,1.1-7,1.93H545.9c-4.72-3.58-15.39-8.83-18.27-9.44C523.88,585.05,527,581.1,525.46,579.72Z" transform="translate(0.5 1.95)"/><path class="cls-1" d="M381,517.86c2,1.58,11.86-.39,11.47-2.76S378,515.46,381,517.86Z" transform="translate(0.5 1.95)"/></g><g id="Legenda"><rect class="cls-6" x="18.41" y="568.2" width="14.17" height="14.17"/><rect class="cls-10" x="18.41" y="542.94" width="14.17" height="14.17"/><rect class="cls-5" x="135.68" y="542.94" width="14.17" height="14.17"/><rect class="cls-4" x="264.94" y="542.94" width="14.17" height="14.17"/><rect class="cls-11" x="394.21" y="542.94" width="14.17" height="14.17"/></g><g id="People"><path class="cls-2" d="M276.52,60.29a1.34,1.34,0,1,0,2.68,0V47.59h1.38v12.7a1.34,1.34,0,1,0,2.68,0V38.89h.65v7.92a1.16,1.16,0,0,0,.49,1,.87.87,0,0,0,1,0,1.12,1.12,0,0,0,.52-1V38.63a3,3,0,0,0-.91-2.26,3.43,3.43,0,0,0-2.49-.89h-5.3a3.61,3.61,0,0,0-2.46.85,2.87,2.87,0,0,0-.94,2.23v8.31a.93.93,0,0,0,.52.92,1.08,1.08,0,0,0,1,0,1,1,0,0,0,.49-.92v-8h.65Zm0,0" transform="translate(0.5 1.95)"/><path class="cls-2" d="M277,31.92a2.8,2.8,0,0,0,2.79,2.78,2.57,2.57,0,0,0,1.93-.82,2.85,2.85,0,0,0,0-3.92,2.57,2.57,0,0,0-1.93-.82A2.8,2.8,0,0,0,277,31.92Zm0,0" transform="translate(0.5 1.95)"/><path class="cls-2" d="M296.52,60.29a1.34,1.34,0,1,0,2.68,0V47.59h1.38v12.7a1.34,1.34,0,1,0,2.68,0V38.89h.65v7.92a1.16,1.16,0,0,0,.49,1,.87.87,0,0,0,1,0,1.12,1.12,0,0,0,.52-1V38.63a3,3,0,0,0-.91-2.26,3.43,3.43,0,0,0-2.49-.89h-5.3a3.61,3.61,0,0,0-2.46.85,2.87,2.87,0,0,0-.94,2.23v8.31a.93.93,0,0,0,.52.92,1.08,1.08,0,0,0,1,0,1,1,0,0,0,.49-.92v-8h.65Zm0,0" transform="translate(0.5 1.95)"/><path class="cls-2" d="M297,31.92a2.8,2.8,0,0,0,2.79,2.78,2.57,2.57,0,0,0,1.93-.82,2.85,2.85,0,0,0,0-3.92,2.57,2.57,0,0,0-1.93-.82A2.8,2.8,0,0,0,297,31.92Zm0,0" transform="translate(0.5 1.95)"/><path class="cls-2" d="M316.52,60.29a1.34,1.34,0,1,0,2.68,0V47.59h1.38v12.7a1.34,1.34,0,1,0,2.68,0V38.89h.65v7.92a1.16,1.16,0,0,0,.49,1,.87.87,0,0,0,1,0,1.12,1.12,0,0,0,.52-1V38.63a3,3,0,0,0-.91-2.26,3.43,3.43,0,0,0-2.49-.89h-5.3a3.61,3.61,0,0,0-2.46.85,2.87,2.87,0,0,0-.94,2.23v8.31a.93.93,0,0,0,.52.92,1.08,1.08,0,0,0,1,0,1,1,0,0,0,.49-.92v-8h.65Zm0,0" transform="translate(0.5 1.95)"/><path class="cls-2" d="M317,31.92a2.8,2.8,0,0,0,2.79,2.78,2.57,2.57,0,0,0,1.93-.82,2.85,2.85,0,0,0,0-3.92,2.57,2.57,0,0,0-1.93-.82A2.8,2.8,0,0,0,317,31.92Zm0,0" transform="translate(0.5 1.95)"/><path class="cls-2" d="M336.52,60.29a1.34,1.34,0,1,0,2.68,0V47.59h1.38v12.7a1.34,1.34,0,1,0,2.68,0V38.89h.65v7.92a1.16,1.16,0,0,0,.49,1,.87.87,0,0,0,1,0,1.12,1.12,0,0,0,.52-1V38.63a3,3,0,0,0-.91-2.26,3.43,3.43,0,0,0-2.49-.89h-5.3a3.61,3.61,0,0,0-2.46.85,2.87,2.87,0,0,0-.94,2.23v8.31a.93.93,0,0,0,.52.92,1.08,1.08,0,0,0,1,0,1,1,0,0,0,.49-.92v-8h.65Zm0,0" transform="translate(0.5 1.95)"/><path class="cls-2" d="M337,31.92a2.8,2.8,0,0,0,2.79,2.78,2.57,2.57,0,0,0,1.93-.82,2.85,2.85,0,0,0,0-3.92,2.57,2.57,0,0,0-1.93-.82A2.8,2.8,0,0,0,337,31.92Zm0,0" transform="translate(0.5 1.95)"/><path class="cls-2" d="M356.52,60.29a1.34,1.34,0,1,0,2.68,0V47.59h1.38v12.7a1.34,1.34,0,1,0,2.68,0V38.89h.65v7.92a1.16,1.16,0,0,0,.49,1,.87.87,0,0,0,1,0,1.12,1.12,0,0,0,.52-1V38.63a3,3,0,0,0-.91-2.26,3.43,3.43,0,0,0-2.49-.89h-5.3a3.61,3.61,0,0,0-2.46.85,2.87,2.87,0,0,0-.94,2.23v8.31a.93.93,0,0,0,.52.92,1.08,1.08,0,0,0,1,0,1,1,0,0,0,.49-.92v-8h.65Zm0,0" transform="translate(0.5 1.95)"/><path class="cls-2" d="M357,31.92a2.8,2.8,0,0,0,2.79,2.78,2.57,2.57,0,0,0,1.93-.82,2.85,2.85,0,0,0,0-3.92,2.57,2.57,0,0,0-1.93-.82A2.8,2.8,0,0,0,357,31.92Zm0,0" transform="translate(0.5 1.95)"/><path class="cls-2" d="M376.52,60.29a1.34,1.34,0,1,0,2.68,0V47.59h1.38v12.7a1.34,1.34,0,1,0,2.68,0V38.89h.65v7.92a1.16,1.16,0,0,0,.49,1,.87.87,0,0,0,1,0,1.12,1.12,0,0,0,.52-1V38.63a3,3,0,0,0-.91-2.26,3.43,3.43,0,0,0-2.49-.89h-5.3a3.61,3.61,0,0,0-2.46.85,2.87,2.87,0,0,0-.94,2.23v8.31a.93.93,0,0,0,.52.92,1.08,1.08,0,0,0,1,0,1,1,0,0,0,.49-.92v-8h.65Zm0,0" transform="translate(0.5 1.95)"/><path class="cls-2" d="M377,31.92a2.8,2.8,0,0,0,2.79,2.78,2.57,2.57,0,0,0,1.93-.82,2.85,2.85,0,0,0,0-3.92,2.57,2.57,0,0,0-1.93-.82A2.8,2.8,0,0,0,377,31.92Zm0,0" transform="translate(0.5 1.95)"/><path class="cls-2" d="M396.52,60.29a1.34,1.34,0,1,0,2.68,0V47.59h1.38v12.7a1.34,1.34,0,1,0,2.68,0V38.89h.65v7.92a1.16,1.16,0,0,0,.49,1,.87.87,0,0,0,1,0,1.12,1.12,0,0,0,.52-1V38.63a3,3,0,0,0-.91-2.26,3.43,3.43,0,0,0-2.49-.89h-5.3a3.61,3.61,0,0,0-2.46.85,2.87,2.87,0,0,0-.94,2.23v8.31a.93.93,0,0,0,.52.92,1.08,1.08,0,0,0,1,0,1,1,0,0,0,.49-.92v-8h.65Zm0,0" transform="translate(0.5 1.95)"/><path class="cls-2" d="M397,31.92a2.8,2.8,0,0,0,2.79,2.78,2.57,2.57,0,0,0,1.93-.82,2.85,2.85,0,0,0,0-3.92,2.57,2.57,0,0,0-1.93-.82A2.8,2.8,0,0,0,397,31.92Zm0,0" transform="translate(0.5 1.95)"/><path class="cls-2" d="M416.52,60.29a1.34,1.34,0,1,0,2.68,0V47.59h1.38v12.7a1.34,1.34,0,1,0,2.68,0V38.89h.65v7.92a1.16,1.16,0,0,0,.49,1,.87.87,0,0,0,1,0,1.12,1.12,0,0,0,.52-1V38.63a3,3,0,0,0-.91-2.26,3.43,3.43,0,0,0-2.49-.89h-5.3a3.61,3.61,0,0,0-2.46.85,2.87,2.87,0,0,0-.94,2.23v8.31a.93.93,0,0,0,.52.92,1.08,1.08,0,0,0,1,0,1,1,0,0,0,.49-.92v-8h.65Zm0,0" transform="translate(0.5 1.95)"/><path class="cls-2" d="M417,31.92a2.8,2.8,0,0,0,2.79,2.78,2.57,2.57,0,0,0,1.93-.82,2.85,2.85,0,0,0,0-3.92,2.57,2.57,0,0,0-1.93-.82A2.8,2.8,0,0,0,417,31.92Zm0,0" transform="translate(0.5 1.95)"/><path class="cls-2" d="M436.52,60.29a1.34,1.34,0,1,0,2.68,0V47.59h1.38v12.7a1.34,1.34,0,1,0,2.68,0V38.89h.65v7.92a1.16,1.16,0,0,0,.49,1,.87.87,0,0,0,1,0,1.12,1.12,0,0,0,.52-1V38.63a3,3,0,0,0-.91-2.26,3.43,3.43,0,0,0-2.49-.89h-5.3a3.61,3.61,0,0,0-2.46.85,2.87,2.87,0,0,0-.94,2.23v8.31a.93.93,0,0,0,.52.92,1.08,1.08,0,0,0,1,0,1,1,0,0,0,.49-.92v-8h.65Zm0,0" transform="translate(0.5 1.95)"/><path class="cls-2" d="M437,31.92a2.8,2.8,0,0,0,2.79,2.78,2.57,2.57,0,0,0,1.93-.82,2.85,2.85,0,0,0,0-3.92,2.57,2.57,0,0,0-1.93-.82A2.8,2.8,0,0,0,437,31.92Zm0,0" transform="translate(0.5 1.95)"/><path class="cls-2" d="M456.52,60.29a1.34,1.34,0,1,0,2.68,0V47.59h1.38v12.7a1.34,1.34,0,1,0,2.68,0V38.89h.65v7.92a1.16,1.16,0,0,0,.49,1,.87.87,0,0,0,1,0,1.12,1.12,0,0,0,.52-1V38.63a3,3,0,0,0-.91-2.26,3.43,3.43,0,0,0-2.49-.89h-5.3a3.61,3.61,0,0,0-2.46.85,2.87,2.87,0,0,0-.94,2.23v8.31a.93.93,0,0,0,.52.92,1.08,1.08,0,0,0,1,0,1,1,0,0,0,.49-.92v-8h.65Zm0,0" transform="translate(0.5 1.95)"/><path class="cls-2" d="M457,31.92a2.8,2.8,0,0,0,2.79,2.78,2.57,2.57,0,0,0,1.93-.82,2.85,2.85,0,0,0,0-3.92,2.57,2.57,0,0,0-1.93-.82A2.8,2.8,0,0,0,457,31.92Zm0,0" transform="translate(0.5 1.95)"/><path class="cls-2" d="M476.52,60.29a1.34,1.34,0,1,0,2.68,0V47.59h1.38v12.7a1.34,1.34,0,1,0,2.68,0V38.89h.65v7.92a1.16,1.16,0,0,0,.49,1,.87.87,0,0,0,1,0,1.12,1.12,0,0,0,.52-1V38.63a3,3,0,0,0-.91-2.26,3.43,3.43,0,0,0-2.49-.89h-5.3a3.61,3.61,0,0,0-2.46.85,2.87,2.87,0,0,0-.94,2.23v8.31a.93.93,0,0,0,.52.92,1.08,1.08,0,0,0,1,0,1,1,0,0,0,.49-.92v-8h.65Zm0,0" transform="translate(0.5 1.95)"/><path class="cls-2" d="M477,31.92a2.8,2.8,0,0,0,2.79,2.78,2.57,2.57,0,0,0,1.93-.82,2.85,2.85,0,0,0,0-3.92,2.57,2.57,0,0,0-1.93-.82A2.8,2.8,0,0,0,477,31.92Zm0,0" transform="translate(0.5 1.95)"/><path class="cls-2" d="M496.52,60.29a1.34,1.34,0,1,0,2.68,0V47.59h1.38v12.7a1.34,1.34,0,1,0,2.68,0V38.89h.65v7.92a1.16,1.16,0,0,0,.49,1,.87.87,0,0,0,1,0,1.12,1.12,0,0,0,.52-1V38.63a3,3,0,0,0-.91-2.26,3.43,3.43,0,0,0-2.49-.89h-5.3a3.61,3.61,0,0,0-2.46.85,2.87,2.87,0,0,0-.94,2.23v8.31a.93.93,0,0,0,.52.92,1.08,1.08,0,0,0,1,0,1,1,0,0,0,.49-.92v-8h.65Zm0,0" transform="translate(0.5 1.95)"/><path class="cls-2" d="M497,31.92a2.8,2.8,0,0,0,2.79,2.78,2.57,2.57,0,0,0,1.93-.82,2.85,2.85,0,0,0,0-3.92,2.57,2.57,0,0,0-1.93-.82A2.8,2.8,0,0,0,497,31.92Zm0,0" transform="translate(0.5 1.95)"/><path class="cls-12" d="M276.52,100.29a1.34,1.34,0,1,0,2.68,0V87.59h1.38v12.7a1.34,1.34,0,1,0,2.68,0V78.89h.65v7.92a1.16,1.16,0,0,0,.49,1,.87.87,0,0,0,1,0,1.12,1.12,0,0,0,.52-1V78.63a3,3,0,0,0-.91-2.26,3.43,3.43,0,0,0-2.49-.89h-5.3a3.61,3.61,0,0,0-2.46.85,2.87,2.87,0,0,0-.94,2.23v8.31a.93.93,0,0,0,.52.92,1.08,1.08,0,0,0,1,0,1,1,0,0,0,.49-.92v-8h.65Zm0,0" transform="translate(0.5 1.95)"/><path class="cls-12" d="M277,71.92a2.8,2.8,0,0,0,2.79,2.78,2.57,2.57,0,0,0,1.93-.82,2.85,2.85,0,0,0,0-3.92,2.57,2.57,0,0,0-1.93-.82A2.8,2.8,0,0,0,277,71.92Zm0,0" transform="translate(0.5 1.95)"/><path class="cls-12" d="M296.52,100.29a1.34,1.34,0,1,0,2.68,0V87.59h1.38v12.7a1.34,1.34,0,1,0,2.68,0V78.89h.65v7.92a1.16,1.16,0,0,0,.49,1,.87.87,0,0,0,1,0,1.12,1.12,0,0,0,.52-1V78.63a3,3,0,0,0-.91-2.26,3.43,3.43,0,0,0-2.49-.89h-5.3a3.61,3.61,0,0,0-2.46.85,2.87,2.87,0,0,0-.94,2.23v8.31a.93.93,0,0,0,.52.92,1.08,1.08,0,0,0,1,0,1,1,0,0,0,.49-.92v-8h.65Zm0,0" transform="translate(0.5 1.95)"/><path class="cls-12" d="M297,71.92a2.8,2.8,0,0,0,2.79,2.78,2.57,2.57,0,0,0,1.93-.82,2.85,2.85,0,0,0,0-3.92,2.57,2.57,0,0,0-1.93-.82A2.8,2.8,0,0,0,297,71.92Zm0,0" transform="translate(0.5 1.95)"/><path class="cls-12" d="M316.52,100.29a1.34,1.34,0,1,0,2.68,0V87.59h1.38v12.7a1.34,1.34,0,1,0,2.68,0V78.89h.65v7.92a1.16,1.16,0,0,0,.49,1,.87.87,0,0,0,1,0,1.12,1.12,0,0,0,.52-1V78.63a3,3,0,0,0-.91-2.26,3.43,3.43,0,0,0-2.49-.89h-5.3a3.61,3.61,0,0,0-2.46.85,2.87,2.87,0,0,0-.94,2.23v8.31a.93.93,0,0,0,.52.92,1.08,1.08,0,0,0,1,0,1,1,0,0,0,.49-.92v-8h.65Zm0,0" transform="translate(0.5 1.95)"/><path class="cls-12" d="M317,71.92a2.8,2.8,0,0,0,2.79,2.78,2.57,2.57,0,0,0,1.93-.82,2.85,2.85,0,0,0,0-3.92,2.57,2.57,0,0,0-1.93-.82A2.8,2.8,0,0,0,317,71.92Zm0,0" transform="translate(0.5 1.95)"/><path class="cls-12" d="M336.52,100.29a1.34,1.34,0,1,0,2.68,0V87.59h1.38v12.7a1.34,1.34,0,1,0,2.68,0V78.89h.65v7.92a1.16,1.16,0,0,0,.49,1,.87.87,0,0,0,1,0,1.12,1.12,0,0,0,.52-1V78.63a3,3,0,0,0-.91-2.26,3.43,3.43,0,0,0-2.49-.89h-5.3a3.61,3.61,0,0,0-2.46.85,2.87,2.87,0,0,0-.94,2.23v8.31a.93.93,0,0,0,.52.92,1.08,1.08,0,0,0,1,0,1,1,0,0,0,.49-.92v-8h.65Zm0,0" transform="translate(0.5 1.95)"/><path class="cls-12" d="M337,71.92a2.8,2.8,0,0,0,2.79,2.78,2.57,2.57,0,0,0,1.93-.82,2.85,2.85,0,0,0,0-3.92,2.57,2.57,0,0,0-1.93-.82A2.8,2.8,0,0,0,337,71.92Zm0,0" transform="translate(0.5 1.95)"/><path class="cls-12" d="M356.52,100.29a1.34,1.34,0,1,0,2.68,0V87.59h1.38v12.7a1.34,1.34,0,1,0,2.68,0V78.89h.65v7.92a1.16,1.16,0,0,0,.49,1,.87.87,0,0,0,1,0,1.12,1.12,0,0,0,.52-1V78.63a3,3,0,0,0-.91-2.26,3.43,3.43,0,0,0-2.49-.89h-5.3a3.61,3.61,0,0,0-2.46.85,2.87,2.87,0,0,0-.94,2.23v8.31a.93.93,0,0,0,.52.92,1.08,1.08,0,0,0,1,0,1,1,0,0,0,.49-.92v-8h.65Zm0,0" transform="translate(0.5 1.95)"/><path class="cls-12" d="M357,71.92a2.8,2.8,0,0,0,2.79,2.78,2.57,2.57,0,0,0,1.93-.82,2.85,2.85,0,0,0,0-3.92,2.57,2.57,0,0,0-1.93-.82A2.8,2.8,0,0,0,357,71.92Zm0,0" transform="translate(0.5 1.95)"/><path class="cls-12" d="M376.52,100.29a1.34,1.34,0,1,0,2.68,0V87.59h1.38v12.7a1.34,1.34,0,1,0,2.68,0V78.89h.65v7.92a1.16,1.16,0,0,0,.49,1,.87.87,0,0,0,1,0,1.12,1.12,0,0,0,.52-1V78.63a3,3,0,0,0-.91-2.26,3.43,3.43,0,0,0-2.49-.89h-5.3a3.61,3.61,0,0,0-2.46.85,2.87,2.87,0,0,0-.94,2.23v8.31a.93.93,0,0,0,.52.92,1.08,1.08,0,0,0,1,0,1,1,0,0,0,.49-.92v-8h.65Zm0,0" transform="translate(0.5 1.95)"/><path class="cls-12" d="M377,71.92a2.8,2.8,0,0,0,2.79,2.78,2.57,2.57,0,0,0,1.93-.82,2.85,2.85,0,0,0,0-3.92,2.57,2.57,0,0,0-1.93-.82A2.8,2.8,0,0,0,377,71.92Zm0,0" transform="translate(0.5 1.95)"/><path class="cls-12" d="M396.52,100.29a1.34,1.34,0,1,0,2.68,0V87.59h1.38v12.7a1.34,1.34,0,1,0,2.68,0V78.89h.65v7.92a1.16,1.16,0,0,0,.49,1,.87.87,0,0,0,1,0,1.12,1.12,0,0,0,.52-1V78.63a3,3,0,0,0-.91-2.26,3.43,3.43,0,0,0-2.49-.89h-5.3a3.61,3.61,0,0,0-2.46.85,2.87,2.87,0,0,0-.94,2.23v8.31a.93.93,0,0,0,.52.92,1.08,1.08,0,0,0,1,0,1,1,0,0,0,.49-.92v-8h.65Zm0,0" transform="translate(0.5 1.95)"/><path class="cls-12" d="M397,71.92a2.8,2.8,0,0,0,2.79,2.78,2.57,2.57,0,0,0,1.93-.82,2.85,2.85,0,0,0,0-3.92,2.57,2.57,0,0,0-1.93-.82A2.8,2.8,0,0,0,397,71.92Zm0,0" transform="translate(0.5 1.95)"/><path class="cls-12" d="M416.52,100.29a1.34,1.34,0,1,0,2.68,0V87.59h1.38v12.7a1.34,1.34,0,1,0,2.68,0V78.89h.65v7.92a1.16,1.16,0,0,0,.49,1,.87.87,0,0,0,1,0,1.12,1.12,0,0,0,.52-1V78.63a3,3,0,0,0-.91-2.26,3.43,3.43,0,0,0-2.49-.89h-5.3a3.61,3.61,0,0,0-2.46.85,2.87,2.87,0,0,0-.94,2.23v8.31a.93.93,0,0,0,.52.92,1.08,1.08,0,0,0,1,0,1,1,0,0,0,.49-.92v-8h.65Zm0,0" transform="translate(0.5 1.95)"/><path class="cls-12" d="M417,71.92a2.8,2.8,0,0,0,2.79,2.78,2.57,2.57,0,0,0,1.93-.82,2.85,2.85,0,0,0,0-3.92,2.57,2.57,0,0,0-1.93-.82A2.8,2.8,0,0,0,417,71.92Zm0,0" transform="translate(0.5 1.95)"/><path class="cls-12" d="M436.52,100.29a1.34,1.34,0,1,0,2.68,0V87.59h1.38v12.7a1.34,1.34,0,1,0,2.68,0V78.89h.65v7.92a1.16,1.16,0,0,0,.49,1,.87.87,0,0,0,1,0,1.12,1.12,0,0,0,.52-1V78.63a3,3,0,0,0-.91-2.26,3.43,3.43,0,0,0-2.49-.89h-5.3a3.61,3.61,0,0,0-2.46.85,2.87,2.87,0,0,0-.94,2.23v8.31a.93.93,0,0,0,.52.92,1.08,1.08,0,0,0,1,0,1,1,0,0,0,.49-.92v-8h.65Zm0,0" transform="translate(0.5 1.95)"/><path class="cls-12" d="M437,71.92a2.8,2.8,0,0,0,2.79,2.78,2.57,2.57,0,0,0,1.93-.82,2.85,2.85,0,0,0,0-3.92,2.57,2.57,0,0,0-1.93-.82A2.8,2.8,0,0,0,437,71.92Zm0,0" transform="translate(0.5 1.95)"/><path class="cls-12" d="M456.52,100.29a1.34,1.34,0,1,0,2.68,0V87.59h1.38v12.7a1.34,1.34,0,1,0,2.68,0V78.89h.65v7.92a1.16,1.16,0,0,0,.49,1,.87.87,0,0,0,1,0,1.12,1.12,0,0,0,.52-1V78.63a3,3,0,0,0-.91-2.26,3.43,3.43,0,0,0-2.49-.89h-5.3a3.61,3.61,0,0,0-2.46.85,2.87,2.87,0,0,0-.94,2.23v8.31a.93.93,0,0,0,.52.92,1.08,1.08,0,0,0,1,0,1,1,0,0,0,.49-.92v-8h.65Zm0,0" transform="translate(0.5 1.95)"/><path class="cls-12" d="M457,71.92a2.8,2.8,0,0,0,2.79,2.78,2.57,2.57,0,0,0,1.93-.82,2.85,2.85,0,0,0,0-3.92,2.57,2.57,0,0,0-1.93-.82A2.8,2.8,0,0,0,457,71.92Zm0,0" transform="translate(0.5 1.95)"/><path class="cls-12" d="M476.52,100.29a1.34,1.34,0,1,0,2.68,0V87.59h1.38v12.7a1.34,1.34,0,1,0,2.68,0V78.89h.65v7.92a1.16,1.16,0,0,0,.49,1,.87.87,0,0,0,1,0,1.12,1.12,0,0,0,.52-1V78.63a3,3,0,0,0-.91-2.26,3.43,3.43,0,0,0-2.49-.89h-5.3a3.61,3.61,0,0,0-2.46.85,2.87,2.87,0,0,0-.94,2.23v8.31a.93.93,0,0,0,.52.92,1.08,1.08,0,0,0,1,0,1,1,0,0,0,.49-.92v-8h.65Zm0,0" transform="translate(0.5 1.95)"/><path class="cls-12" d="M477,71.92a2.8,2.8,0,0,0,2.79,2.78,2.57,2.57,0,0,0,1.93-.82,2.85,2.85,0,0,0,0-3.92,2.57,2.57,0,0,0-1.93-.82A2.8,2.8,0,0,0,477,71.92Zm0,0" transform="translate(0.5 1.95)"/><path class="cls-12" d="M496.52,100.29a1.34,1.34,0,1,0,2.68,0V87.59h1.38v12.7a1.34,1.34,0,1,0,2.68,0V78.89h.65v7.92a1.16,1.16,0,0,0,.49,1,.87.87,0,0,0,1,0,1.12,1.12,0,0,0,.52-1V78.63a3,3,0,0,0-.91-2.26,3.43,3.43,0,0,0-2.49-.89h-5.3a3.61,3.61,0,0,0-2.46.85,2.87,2.87,0,0,0-.94,2.23v8.31a.93.93,0,0,0,.52.92,1.08,1.08,0,0,0,1,0,1,1,0,0,0,.49-.92v-8h.65Zm0,0" transform="translate(0.5 1.95)"/><path class="cls-12" d="M497,71.92a2.8,2.8,0,0,0,2.79,2.78,2.57,2.57,0,0,0,1.93-.82,2.85,2.85,0,0,0,0-3.92,2.57,2.57,0,0,0-1.93-.82A2.8,2.8,0,0,0,497,71.92Zm0,0" transform="translate(0.5 1.95)"/><path class="cls-12" d="M276.52,140.29a1.34,1.34,0,1,0,2.68,0v-12.7h1.38v12.7a1.34,1.34,0,1,0,2.68,0v-21.4h.65v7.92a1.16,1.16,0,0,0,.49,1,.87.87,0,0,0,1,0,1.12,1.12,0,0,0,.52-1v-8.18a3,3,0,0,0-.91-2.26,3.43,3.43,0,0,0-2.49-.89h-5.3a3.61,3.61,0,0,0-2.46.85,2.87,2.87,0,0,0-.94,2.23v8.31a.93.93,0,0,0,.52.92,1.08,1.08,0,0,0,1,0,1,1,0,0,0,.49-.92v-8h.65Zm0,0" transform="translate(0.5 1.95)"/><path class="cls-12" d="M277,111.92a2.8,2.8,0,0,0,2.79,2.78,2.57,2.57,0,0,0,1.93-.82,2.85,2.85,0,0,0,0-3.92,2.57,2.57,0,0,0-1.93-.82,2.8,2.8,0,0,0-2.79,2.78Zm0,0" transform="translate(0.5 1.95)"/><path class="cls-12" d="M296.52,140.29a1.34,1.34,0,1,0,2.68,0v-12.7h1.38v12.7a1.34,1.34,0,1,0,2.68,0v-21.4h.65v7.92a1.16,1.16,0,0,0,.49,1,.87.87,0,0,0,1,0,1.12,1.12,0,0,0,.52-1v-8.18a3,3,0,0,0-.91-2.26,3.43,3.43,0,0,0-2.49-.89h-5.3a3.61,3.61,0,0,0-2.46.85,2.87,2.87,0,0,0-.94,2.23v8.31a.93.93,0,0,0,.52.92,1.08,1.08,0,0,0,1,0,1,1,0,0,0,.49-.92v-8h.65Zm0,0" transform="translate(0.5 1.95)"/><path class="cls-12" d="M297,111.92a2.8,2.8,0,0,0,2.79,2.78,2.57,2.57,0,0,0,1.93-.82,2.85,2.85,0,0,0,0-3.92,2.57,2.57,0,0,0-1.93-.82,2.8,2.8,0,0,0-2.79,2.78Zm0,0" transform="translate(0.5 1.95)"/><path class="cls-12" d="M316.52,140.29a1.34,1.34,0,1,0,2.68,0v-12.7h1.38v12.7a1.34,1.34,0,1,0,2.68,0v-21.4h.65v7.92a1.16,1.16,0,0,0,.49,1,.87.87,0,0,0,1,0,1.12,1.12,0,0,0,.52-1v-8.18a3,3,0,0,0-.91-2.26,3.43,3.43,0,0,0-2.49-.89h-5.3a3.61,3.61,0,0,0-2.46.85,2.87,2.87,0,0,0-.94,2.23v8.31a.93.93,0,0,0,.52.92,1.08,1.08,0,0,0,1,0,1,1,0,0,0,.49-.92v-8h.65Zm0,0" transform="translate(0.5 1.95)"/><path class="cls-12" d="M317,111.92a2.8,2.8,0,0,0,2.79,2.78,2.57,2.57,0,0,0,1.93-.82,2.85,2.85,0,0,0,0-3.92,2.57,2.57,0,0,0-1.93-.82,2.8,2.8,0,0,0-2.79,2.78Zm0,0" transform="translate(0.5 1.95)"/><path class="cls-12" d="M336.52,140.29a1.34,1.34,0,1,0,2.68,0v-12.7h1.38v12.7a1.34,1.34,0,1,0,2.68,0v-21.4h.65v7.92a1.16,1.16,0,0,0,.49,1,.87.87,0,0,0,1,0,1.12,1.12,0,0,0,.52-1v-8.18a3,3,0,0,0-.91-2.26,3.43,3.43,0,0,0-2.49-.89h-5.3a3.61,3.61,0,0,0-2.46.85,2.87,2.87,0,0,0-.94,2.23v8.31a.93.93,0,0,0,.52.92,1.08,1.08,0,0,0,1,0,1,1,0,0,0,.49-.92v-8h.65Zm0,0" transform="translate(0.5 1.95)"/><path class="cls-12" d="M337,111.92a2.8,2.8,0,0,0,2.79,2.78,2.57,2.57,0,0,0,1.93-.82,2.85,2.85,0,0,0,0-3.92,2.57,2.57,0,0,0-1.93-.82,2.8,2.8,0,0,0-2.79,2.78Zm0,0" transform="translate(0.5 1.95)"/><path class="cls-12" d="M356.52,140.29a1.34,1.34,0,1,0,2.68,0v-12.7h1.38v12.7a1.34,1.34,0,1,0,2.68,0v-21.4h.65v7.92a1.16,1.16,0,0,0,.49,1,.87.87,0,0,0,1,0,1.12,1.12,0,0,0,.52-1v-8.18a3,3,0,0,0-.91-2.26,3.43,3.43,0,0,0-2.49-.89h-5.3a3.61,3.61,0,0,0-2.46.85,2.87,2.87,0,0,0-.94,2.23v8.31a.93.93,0,0,0,.52.92,1.08,1.08,0,0,0,1,0,1,1,0,0,0,.49-.92v-8h.65Zm0,0" transform="translate(0.5 1.95)"/><path class="cls-12" d="M357,111.92a2.8,2.8,0,0,0,2.79,2.78,2.57,2.57,0,0,0,1.93-.82,2.85,2.85,0,0,0,0-3.92,2.57,2.57,0,0,0-1.93-.82,2.8,2.8,0,0,0-2.79,2.78Zm0,0" transform="translate(0.5 1.95)"/><path class="cls-12" d="M376.52,140.29a1.34,1.34,0,1,0,2.68,0v-12.7h1.38v12.7a1.34,1.34,0,1,0,2.68,0v-21.4h.65v7.92a1.16,1.16,0,0,0,.49,1,.87.87,0,0,0,1,0,1.12,1.12,0,0,0,.52-1v-8.18a3,3,0,0,0-.91-2.26,3.43,3.43,0,0,0-2.49-.89h-5.3a3.61,3.61,0,0,0-2.46.85,2.87,2.87,0,0,0-.94,2.23v8.31a.93.93,0,0,0,.52.92,1.08,1.08,0,0,0,1,0,1,1,0,0,0,.49-.92v-8h.65Zm0,0" transform="translate(0.5 1.95)"/><path class="cls-12" d="M377,111.92a2.8,2.8,0,0,0,2.79,2.78,2.57,2.57,0,0,0,1.93-.82,2.85,2.85,0,0,0,0-3.92,2.57,2.57,0,0,0-1.93-.82,2.8,2.8,0,0,0-2.79,2.78Zm0,0" transform="translate(0.5 1.95)"/><path class="cls-12" d="M396.52,140.29a1.34,1.34,0,1,0,2.68,0v-12.7h1.38v12.7a1.34,1.34,0,1,0,2.68,0v-21.4h.65v7.92a1.16,1.16,0,0,0,.49,1,.87.87,0,0,0,1,0,1.12,1.12,0,0,0,.52-1v-8.18a3,3,0,0,0-.91-2.26,3.43,3.43,0,0,0-2.49-.89h-5.3a3.61,3.61,0,0,0-2.46.85,2.87,2.87,0,0,0-.94,2.23v8.31a.93.93,0,0,0,.52.92,1.08,1.08,0,0,0,1,0,1,1,0,0,0,.49-.92v-8h.65Zm0,0" transform="translate(0.5 1.95)"/><path class="cls-12" d="M397,111.92a2.8,2.8,0,0,0,2.79,2.78,2.57,2.57,0,0,0,1.93-.82,2.85,2.85,0,0,0,0-3.92,2.57,2.57,0,0,0-1.93-.82,2.8,2.8,0,0,0-2.79,2.78Zm0,0" transform="translate(0.5 1.95)"/><path class="cls-12" d="M416.52,140.29a1.34,1.34,0,1,0,2.68,0v-12.7h1.38v12.7a1.34,1.34,0,1,0,2.68,0v-21.4h.65v7.92a1.16,1.16,0,0,0,.49,1,.87.87,0,0,0,1,0,1.12,1.12,0,0,0,.52-1v-8.18a3,3,0,0,0-.91-2.26,3.43,3.43,0,0,0-2.49-.89h-5.3a3.61,3.61,0,0,0-2.46.85,2.87,2.87,0,0,0-.94,2.23v8.31a.93.93,0,0,0,.52.92,1.08,1.08,0,0,0,1,0,1,1,0,0,0,.49-.92v-8h.65Zm0,0" transform="translate(0.5 1.95)"/><path class="cls-12" d="M417,111.92a2.8,2.8,0,0,0,2.79,2.78,2.57,2.57,0,0,0,1.93-.82,2.85,2.85,0,0,0,0-3.92,2.57,2.57,0,0,0-1.93-.82,2.8,2.8,0,0,0-2.79,2.78Zm0,0" transform="translate(0.5 1.95)"/><path class="cls-12" d="M436.52,140.29a1.34,1.34,0,1,0,2.68,0v-12.7h1.38v12.7a1.34,1.34,0,1,0,2.68,0v-21.4h.65v7.92a1.16,1.16,0,0,0,.49,1,.87.87,0,0,0,1,0,1.12,1.12,0,0,0,.52-1v-8.18a3,3,0,0,0-.91-2.26,3.43,3.43,0,0,0-2.49-.89h-5.3a3.61,3.61,0,0,0-2.46.85,2.87,2.87,0,0,0-.94,2.23v8.31a.93.93,0,0,0,.52.92,1.08,1.08,0,0,0,1,0,1,1,0,0,0,.49-.92v-8h.65Zm0,0" transform="translate(0.5 1.95)"/><path class="cls-12" d="M437,111.92a2.8,2.8,0,0,0,2.79,2.78,2.57,2.57,0,0,0,1.93-.82,2.85,2.85,0,0,0,0-3.92,2.57,2.57,0,0,0-1.93-.82,2.8,2.8,0,0,0-2.79,2.78Zm0,0" transform="translate(0.5 1.95)"/><path class="cls-12" d="M456.52,140.29a1.34,1.34,0,1,0,2.68,0v-12.7h1.38v12.7a1.34,1.34,0,1,0,2.68,0v-21.4h.65v7.92a1.16,1.16,0,0,0,.49,1,.87.87,0,0,0,1,0,1.12,1.12,0,0,0,.52-1v-8.18a3,3,0,0,0-.91-2.26,3.43,3.43,0,0,0-2.49-.89h-5.3a3.61,3.61,0,0,0-2.46.85,2.87,2.87,0,0,0-.94,2.23v8.31a.93.93,0,0,0,.52.92,1.08,1.08,0,0,0,1,0,1,1,0,0,0,.49-.92v-8h.65Zm0,0" transform="translate(0.5 1.95)"/><path class="cls-12" d="M457,111.92a2.8,2.8,0,0,0,2.79,2.78,2.57,2.57,0,0,0,1.93-.82,2.85,2.85,0,0,0,0-3.92,2.57,2.57,0,0,0-1.93-.82,2.8,2.8,0,0,0-2.79,2.78Zm0,0" transform="translate(0.5 1.95)"/><path class="cls-12" d="M476.52,140.29a1.34,1.34,0,1,0,2.68,0v-12.7h1.38v12.7a1.34,1.34,0,1,0,2.68,0v-21.4h.65v7.92a1.16,1.16,0,0,0,.49,1,.87.87,0,0,0,1,0,1.12,1.12,0,0,0,.52-1v-8.18a3,3,0,0,0-.91-2.26,3.43,3.43,0,0,0-2.49-.89h-5.3a3.61,3.61,0,0,0-2.46.85,2.87,2.87,0,0,0-.94,2.23v8.31a.93.93,0,0,0,.52.92,1.08,1.08,0,0,0,1,0,1,1,0,0,0,.49-.92v-8h.65Zm0,0" transform="translate(0.5 1.95)"/><path class="cls-12" d="M477,111.92a2.8,2.8,0,0,0,2.79,2.78,2.57,2.57,0,0,0,1.93-.82,2.85,2.85,0,0,0,0-3.92,2.57,2.57,0,0,0-1.93-.82,2.8,2.8,0,0,0-2.79,2.78Zm0,0" transform="translate(0.5 1.95)"/><path class="cls-12" d="M496.52,140.29a1.34,1.34,0,1,0,2.68,0v-12.7h1.38v12.7a1.34,1.34,0,1,0,2.68,0v-21.4h.65v7.92a1.16,1.16,0,0,0,.49,1,.87.87,0,0,0,1,0,1.12,1.12,0,0,0,.52-1v-8.18a3,3,0,0,0-.91-2.26,3.43,3.43,0,0,0-2.49-.89h-5.3a3.61,3.61,0,0,0-2.46.85,2.87,2.87,0,0,0-.94,2.23v8.31a.93.93,0,0,0,.52.92,1.08,1.08,0,0,0,1,0,1,1,0,0,0,.49-.92v-8h.65Zm0,0" transform="translate(0.5 1.95)"/><path class="cls-12" d="M497,111.92a2.8,2.8,0,0,0,2.79,2.78,2.57,2.57,0,0,0,1.93-.82,2.85,2.85,0,0,0,0-3.92,2.57,2.57,0,0,0-1.93-.82,2.8,2.8,0,0,0-2.79,2.78Zm0,0" transform="translate(0.5 1.95)"/><path class="cls-12" d="M276.52,180.29a1.34,1.34,0,1,0,2.68,0v-12.7h1.38v12.7a1.34,1.34,0,1,0,2.68,0v-21.4h.65v7.92a1.16,1.16,0,0,0,.49,1,.87.87,0,0,0,1,0,1.12,1.12,0,0,0,.52-1v-8.18a3,3,0,0,0-.91-2.26,3.43,3.43,0,0,0-2.49-.89h-5.3a3.61,3.61,0,0,0-2.46.85,2.87,2.87,0,0,0-.94,2.23v8.31a.93.93,0,0,0,.52.92,1.08,1.08,0,0,0,1,0,1,1,0,0,0,.49-.92v-8h.65Zm0,0" transform="translate(0.5 1.95)"/><path class="cls-12" d="M277,151.92a2.8,2.8,0,0,0,2.79,2.78,2.57,2.57,0,0,0,1.93-.82,2.85,2.85,0,0,0,0-3.92,2.57,2.57,0,0,0-1.93-.82,2.8,2.8,0,0,0-2.79,2.78Zm0,0" transform="translate(0.5 1.95)"/><path class="cls-12" d="M296.52,180.29a1.34,1.34,0,1,0,2.68,0v-12.7h1.38v12.7a1.34,1.34,0,1,0,2.68,0v-21.4h.65v7.92a1.16,1.16,0,0,0,.49,1,.87.87,0,0,0,1,0,1.12,1.12,0,0,0,.52-1v-8.18a3,3,0,0,0-.91-2.26,3.43,3.43,0,0,0-2.49-.89h-5.3a3.61,3.61,0,0,0-2.46.85,2.87,2.87,0,0,0-.94,2.23v8.31a.93.93,0,0,0,.52.92,1.08,1.08,0,0,0,1,0,1,1,0,0,0,.49-.92v-8h.65Zm0,0" transform="translate(0.5 1.95)"/><path class="cls-12" d="M297,151.92a2.8,2.8,0,0,0,2.79,2.78,2.57,2.57,0,0,0,1.93-.82,2.85,2.85,0,0,0,0-3.92,2.57,2.57,0,0,0-1.93-.82,2.8,2.8,0,0,0-2.79,2.78Zm0,0" transform="translate(0.5 1.95)"/><path class="cls-12" d="M316.52,180.29a1.34,1.34,0,1,0,2.68,0v-12.7h1.38v12.7a1.34,1.34,0,1,0,2.68,0v-21.4h.65v7.92a1.16,1.16,0,0,0,.49,1,.87.87,0,0,0,1,0,1.12,1.12,0,0,0,.52-1v-8.18a3,3,0,0,0-.91-2.26,3.43,3.43,0,0,0-2.49-.89h-5.3a3.61,3.61,0,0,0-2.46.85,2.87,2.87,0,0,0-.94,2.23v8.31a.93.93,0,0,0,.52.92,1.08,1.08,0,0,0,1,0,1,1,0,0,0,.49-.92v-8h.65Zm0,0" transform="translate(0.5 1.95)"/><path class="cls-12" d="M317,151.92a2.8,2.8,0,0,0,2.79,2.78,2.57,2.57,0,0,0,1.93-.82,2.85,2.85,0,0,0,0-3.92,2.57,2.57,0,0,0-1.93-.82,2.8,2.8,0,0,0-2.79,2.78Zm0,0" transform="translate(0.5 1.95)"/><path class="cls-12" d="M336.52,180.29a1.34,1.34,0,1,0,2.68,0v-12.7h1.38v12.7a1.34,1.34,0,1,0,2.68,0v-21.4h.65v7.92a1.16,1.16,0,0,0,.49,1,.87.87,0,0,0,1,0,1.12,1.12,0,0,0,.52-1v-8.18a3,3,0,0,0-.91-2.26,3.43,3.43,0,0,0-2.49-.89h-5.3a3.61,3.61,0,0,0-2.46.85,2.87,2.87,0,0,0-.94,2.23v8.31a.93.93,0,0,0,.52.92,1.08,1.08,0,0,0,1,0,1,1,0,0,0,.49-.92v-8h.65Zm0,0" transform="translate(0.5 1.95)"/><path class="cls-12" d="M337,151.92a2.8,2.8,0,0,0,2.79,2.78,2.57,2.57,0,0,0,1.93-.82,2.85,2.85,0,0,0,0-3.92,2.57,2.57,0,0,0-1.93-.82,2.8,2.8,0,0,0-2.79,2.78Zm0,0" transform="translate(0.5 1.95)"/><path class="cls-12" d="M356.52,180.29a1.34,1.34,0,1,0,2.68,0v-12.7h1.38v12.7a1.34,1.34,0,1,0,2.68,0v-21.4h.65v7.92a1.16,1.16,0,0,0,.49,1,.87.87,0,0,0,1,0,1.12,1.12,0,0,0,.52-1v-8.18a3,3,0,0,0-.91-2.26,3.43,3.43,0,0,0-2.49-.89h-5.3a3.61,3.61,0,0,0-2.46.85,2.87,2.87,0,0,0-.94,2.23v8.31a.93.93,0,0,0,.52.92,1.08,1.08,0,0,0,1,0,1,1,0,0,0,.49-.92v-8h.65Zm0,0" transform="translate(0.5 1.95)"/><path class="cls-12" d="M357,151.92a2.8,2.8,0,0,0,2.79,2.78,2.57,2.57,0,0,0,1.93-.82,2.85,2.85,0,0,0,0-3.92,2.57,2.57,0,0,0-1.93-.82,2.8,2.8,0,0,0-2.79,2.78Zm0,0" transform="translate(0.5 1.95)"/><path class="cls-12" d="M376.52,180.29a1.34,1.34,0,1,0,2.68,0v-12.7h1.38v12.7a1.34,1.34,0,1,0,2.68,0v-21.4h.65v7.92a1.16,1.16,0,0,0,.49,1,.87.87,0,0,0,1,0,1.12,1.12,0,0,0,.52-1v-8.18a3,3,0,0,0-.91-2.26,3.43,3.43,0,0,0-2.49-.89h-5.3a3.61,3.61,0,0,0-2.46.85,2.87,2.87,0,0,0-.94,2.23v8.31a.93.93,0,0,0,.52.92,1.08,1.08,0,0,0,1,0,1,1,0,0,0,.49-.92v-8h.65Zm0,0" transform="translate(0.5 1.95)"/><path class="cls-12" d="M377,151.92a2.8,2.8,0,0,0,2.79,2.78,2.57,2.57,0,0,0,1.93-.82,2.85,2.85,0,0,0,0-3.92,2.57,2.57,0,0,0-1.93-.82,2.8,2.8,0,0,0-2.79,2.78Zm0,0" transform="translate(0.5 1.95)"/><path class="cls-12" d="M396.52,180.29a1.34,1.34,0,1,0,2.68,0v-12.7h1.38v12.7a1.34,1.34,0,1,0,2.68,0v-21.4h.65v7.92a1.16,1.16,0,0,0,.49,1,.87.87,0,0,0,1,0,1.12,1.12,0,0,0,.52-1v-8.18a3,3,0,0,0-.91-2.26,3.43,3.43,0,0,0-2.49-.89h-5.3a3.61,3.61,0,0,0-2.46.85,2.87,2.87,0,0,0-.94,2.23v8.31a.93.93,0,0,0,.52.92,1.08,1.08,0,0,0,1,0,1,1,0,0,0,.49-.92v-8h.65Zm0,0" transform="translate(0.5 1.95)"/><path class="cls-12" d="M397,151.92a2.8,2.8,0,0,0,2.79,2.78,2.57,2.57,0,0,0,1.93-.82,2.85,2.85,0,0,0,0-3.92,2.57,2.57,0,0,0-1.93-.82,2.8,2.8,0,0,0-2.79,2.78Zm0,0" transform="translate(0.5 1.95)"/><path class="cls-12" d="M416.52,180.29a1.34,1.34,0,1,0,2.68,0v-12.7h1.38v12.7a1.34,1.34,0,1,0,2.68,0v-21.4h.65v7.92a1.16,1.16,0,0,0,.49,1,.87.87,0,0,0,1,0,1.12,1.12,0,0,0,.52-1v-8.18a3,3,0,0,0-.91-2.26,3.43,3.43,0,0,0-2.49-.89h-5.3a3.61,3.61,0,0,0-2.46.85,2.87,2.87,0,0,0-.94,2.23v8.31a.93.93,0,0,0,.52.92,1.08,1.08,0,0,0,1,0,1,1,0,0,0,.49-.92v-8h.65Zm0,0" transform="translate(0.5 1.95)"/><path class="cls-12" d="M417,151.92a2.8,2.8,0,0,0,2.79,2.78,2.57,2.57,0,0,0,1.93-.82,2.85,2.85,0,0,0,0-3.92,2.57,2.57,0,0,0-1.93-.82,2.8,2.8,0,0,0-2.79,2.78Zm0,0" transform="translate(0.5 1.95)"/><path class="cls-12" d="M436.52,180.29a1.34,1.34,0,1,0,2.68,0v-12.7h1.38v12.7a1.34,1.34,0,1,0,2.68,0v-21.4h.65v7.92a1.16,1.16,0,0,0,.49,1,.87.87,0,0,0,1,0,1.12,1.12,0,0,0,.52-1v-8.18a3,3,0,0,0-.91-2.26,3.43,3.43,0,0,0-2.49-.89h-5.3a3.61,3.61,0,0,0-2.46.85,2.87,2.87,0,0,0-.94,2.23v8.31a.93.93,0,0,0,.52.92,1.08,1.08,0,0,0,1,0,1,1,0,0,0,.49-.92v-8h.65Zm0,0" transform="translate(0.5 1.95)"/><path class="cls-12" d="M437,151.92a2.8,2.8,0,0,0,2.79,2.78,2.57,2.57,0,0,0,1.93-.82,2.85,2.85,0,0,0,0-3.92,2.57,2.57,0,0,0-1.93-.82,2.8,2.8,0,0,0-2.79,2.78Zm0,0" transform="translate(0.5 1.95)"/><path class="cls-12" d="M456.52,180.29a1.34,1.34,0,1,0,2.68,0v-12.7h1.38v12.7a1.34,1.34,0,1,0,2.68,0v-21.4h.65v7.92a1.16,1.16,0,0,0,.49,1,.87.87,0,0,0,1,0,1.12,1.12,0,0,0,.52-1v-8.18a3,3,0,0,0-.91-2.26,3.43,3.43,0,0,0-2.49-.89h-5.3a3.61,3.61,0,0,0-2.46.85,2.87,2.87,0,0,0-.94,2.23v8.31a.93.93,0,0,0,.52.92,1.08,1.08,0,0,0,1,0,1,1,0,0,0,.49-.92v-8h.65Zm0,0" transform="translate(0.5 1.95)"/><path class="cls-12" d="M457,151.92a2.8,2.8,0,0,0,2.79,2.78,2.57,2.57,0,0,0,1.93-.82,2.85,2.85,0,0,0,0-3.92,2.57,2.57,0,0,0-1.93-.82,2.8,2.8,0,0,0-2.79,2.78Zm0,0" transform="translate(0.5 1.95)"/><path class="cls-12" d="M476.52,180.29a1.34,1.34,0,1,0,2.68,0v-12.7h1.38v12.7a1.34,1.34,0,1,0,2.68,0v-21.4h.65v7.92a1.16,1.16,0,0,0,.49,1,.87.87,0,0,0,1,0,1.12,1.12,0,0,0,.52-1v-8.18a3,3,0,0,0-.91-2.26,3.43,3.43,0,0,0-2.49-.89h-5.3a3.61,3.61,0,0,0-2.46.85,2.87,2.87,0,0,0-.94,2.23v8.31a.93.93,0,0,0,.52.92,1.08,1.08,0,0,0,1,0,1,1,0,0,0,.49-.92v-8h.65Zm0,0" transform="translate(0.5 1.95)"/><path class="cls-12" d="M477,151.92a2.8,2.8,0,0,0,2.79,2.78,2.57,2.57,0,0,0,1.93-.82,2.85,2.85,0,0,0,0-3.92,2.57,2.57,0,0,0-1.93-.82,2.8,2.8,0,0,0-2.79,2.78Zm0,0" transform="translate(0.5 1.95)"/><path class="cls-12" d="M496.52,180.29a1.34,1.34,0,1,0,2.68,0v-12.7h1.38v12.7a1.34,1.34,0,1,0,2.68,0v-21.4h.65v7.92a1.16,1.16,0,0,0,.49,1,.87.87,0,0,0,1,0,1.12,1.12,0,0,0,.52-1v-8.18a3,3,0,0,0-.91-2.26,3.43,3.43,0,0,0-2.49-.89h-5.3a3.61,3.61,0,0,0-2.46.85,2.87,2.87,0,0,0-.94,2.23v8.31a.93.93,0,0,0,.52.92,1.08,1.08,0,0,0,1,0,1,1,0,0,0,.49-.92v-8h.65Zm0,0" transform="translate(0.5 1.95)"/><path class="cls-12" d="M497,151.92a2.8,2.8,0,0,0,2.79,2.78,2.57,2.57,0,0,0,1.93-.82,2.85,2.85,0,0,0,0-3.92,2.57,2.57,0,0,0-1.93-.82,2.8,2.8,0,0,0-2.79,2.78Zm0,0" transform="translate(0.5 1.95)"/><path class="cls-12" d="M276.52,220.29a1.34,1.34,0,1,0,2.68,0v-12.7h1.38v12.7a1.34,1.34,0,1,0,2.68,0v-21.4h.65v7.92a1.16,1.16,0,0,0,.49,1,.87.87,0,0,0,1,0,1.12,1.12,0,0,0,.52-1v-8.18a3,3,0,0,0-.91-2.26,3.43,3.43,0,0,0-2.49-.89h-5.3a3.61,3.61,0,0,0-2.46.85,2.87,2.87,0,0,0-.94,2.23v8.31a.93.93,0,0,0,.52.92,1.08,1.08,0,0,0,1,0,1,1,0,0,0,.49-.92v-8h.65Zm0,0" transform="translate(0.5 1.95)"/><path class="cls-12" d="M277,191.92a2.8,2.8,0,0,0,2.79,2.78,2.57,2.57,0,0,0,1.93-.82,2.85,2.85,0,0,0,0-3.92,2.57,2.57,0,0,0-1.93-.82,2.8,2.8,0,0,0-2.79,2.78Zm0,0" transform="translate(0.5 1.95)"/><path class="cls-12" d="M296.52,220.29a1.34,1.34,0,1,0,2.68,0v-12.7h1.38v12.7a1.34,1.34,0,1,0,2.68,0v-21.4h.65v7.92a1.16,1.16,0,0,0,.49,1,.87.87,0,0,0,1,0,1.12,1.12,0,0,0,.52-1v-8.18a3,3,0,0,0-.91-2.26,3.43,3.43,0,0,0-2.49-.89h-5.3a3.61,3.61,0,0,0-2.46.85,2.87,2.87,0,0,0-.94,2.23v8.31a.93.93,0,0,0,.52.92,1.08,1.08,0,0,0,1,0,1,1,0,0,0,.49-.92v-8h.65Zm0,0" transform="translate(0.5 1.95)"/><path class="cls-12" d="M297,191.92a2.8,2.8,0,0,0,2.79,2.78,2.57,2.57,0,0,0,1.93-.82,2.85,2.85,0,0,0,0-3.92,2.57,2.57,0,0,0-1.93-.82,2.8,2.8,0,0,0-2.79,2.78Zm0,0" transform="translate(0.5 1.95)"/><path class="cls-12" d="M316.52,220.29a1.34,1.34,0,1,0,2.68,0v-12.7h1.38v12.7a1.34,1.34,0,1,0,2.68,0v-21.4h.65v7.92a1.16,1.16,0,0,0,.49,1,.87.87,0,0,0,1,0,1.12,1.12,0,0,0,.52-1v-8.18a3,3,0,0,0-.91-2.26,3.43,3.43,0,0,0-2.49-.89h-5.3a3.61,3.61,0,0,0-2.46.85,2.87,2.87,0,0,0-.94,2.23v8.31a.93.93,0,0,0,.52.92,1.08,1.08,0,0,0,1,0,1,1,0,0,0,.49-.92v-8h.65Zm0,0" transform="translate(0.5 1.95)"/><path class="cls-12" d="M317,191.92a2.8,2.8,0,0,0,2.79,2.78,2.57,2.57,0,0,0,1.93-.82,2.85,2.85,0,0,0,0-3.92,2.57,2.57,0,0,0-1.93-.82,2.8,2.8,0,0,0-2.79,2.78Zm0,0" transform="translate(0.5 1.95)"/><path class="cls-12" d="M336.52,220.29a1.34,1.34,0,1,0,2.68,0v-12.7h1.38v12.7a1.34,1.34,0,1,0,2.68,0v-21.4h.65v7.92a1.16,1.16,0,0,0,.49,1,.87.87,0,0,0,1,0,1.12,1.12,0,0,0,.52-1v-8.18a3,3,0,0,0-.91-2.26,3.43,3.43,0,0,0-2.49-.89h-5.3a3.61,3.61,0,0,0-2.46.85,2.87,2.87,0,0,0-.94,2.23v8.31a.93.93,0,0,0,.52.92,1.08,1.08,0,0,0,1,0,1,1,0,0,0,.49-.92v-8h.65Zm0,0" transform="translate(0.5 1.95)"/><path class="cls-12" d="M337,191.92a2.8,2.8,0,0,0,2.79,2.78,2.57,2.57,0,0,0,1.93-.82,2.85,2.85,0,0,0,0-3.92,2.57,2.57,0,0,0-1.93-.82,2.8,2.8,0,0,0-2.79,2.78Zm0,0" transform="translate(0.5 1.95)"/><path class="cls-12" d="M356.52,220.29a1.34,1.34,0,1,0,2.68,0v-12.7h1.38v12.7a1.34,1.34,0,1,0,2.68,0v-21.4h.65v7.92a1.16,1.16,0,0,0,.49,1,.87.87,0,0,0,1,0,1.12,1.12,0,0,0,.52-1v-8.18a3,3,0,0,0-.91-2.26,3.43,3.43,0,0,0-2.49-.89h-5.3a3.61,3.61,0,0,0-2.46.85,2.87,2.87,0,0,0-.94,2.23v8.31a.93.93,0,0,0,.52.92,1.08,1.08,0,0,0,1,0,1,1,0,0,0,.49-.92v-8h.65Zm0,0" transform="translate(0.5 1.95)"/><path class="cls-12" d="M357,191.92a2.8,2.8,0,0,0,2.79,2.78,2.57,2.57,0,0,0,1.93-.82,2.85,2.85,0,0,0,0-3.92,2.57,2.57,0,0,0-1.93-.82,2.8,2.8,0,0,0-2.79,2.78Zm0,0" transform="translate(0.5 1.95)"/><path class="cls-12" d="M376.52,220.29a1.34,1.34,0,1,0,2.68,0v-12.7h1.38v12.7a1.34,1.34,0,1,0,2.68,0v-21.4h.65v7.92a1.16,1.16,0,0,0,.49,1,.87.87,0,0,0,1,0,1.12,1.12,0,0,0,.52-1v-8.18a3,3,0,0,0-.91-2.26,3.43,3.43,0,0,0-2.49-.89h-5.3a3.61,3.61,0,0,0-2.46.85,2.87,2.87,0,0,0-.94,2.23v8.31a.93.93,0,0,0,.52.92,1.08,1.08,0,0,0,1,0,1,1,0,0,0,.49-.92v-8h.65Zm0,0" transform="translate(0.5 1.95)"/><path class="cls-12" d="M377,191.92a2.8,2.8,0,0,0,2.79,2.78,2.57,2.57,0,0,0,1.93-.82,2.85,2.85,0,0,0,0-3.92,2.57,2.57,0,0,0-1.93-.82,2.8,2.8,0,0,0-2.79,2.78Zm0,0" transform="translate(0.5 1.95)"/><path class="cls-12" d="M396.52,220.29a1.34,1.34,0,1,0,2.68,0v-12.7h1.38v12.7a1.34,1.34,0,1,0,2.68,0v-21.4h.65v7.92a1.16,1.16,0,0,0,.49,1,.87.87,0,0,0,1,0,1.12,1.12,0,0,0,.52-1v-8.18a3,3,0,0,0-.91-2.26,3.43,3.43,0,0,0-2.49-.89h-5.3a3.61,3.61,0,0,0-2.46.85,2.87,2.87,0,0,0-.94,2.23v8.31a.93.93,0,0,0,.52.92,1.08,1.08,0,0,0,1,0,1,1,0,0,0,.49-.92v-8h.65Zm0,0" transform="translate(0.5 1.95)"/><path class="cls-12" d="M397,191.92a2.8,2.8,0,0,0,2.79,2.78,2.57,2.57,0,0,0,1.93-.82,2.85,2.85,0,0,0,0-3.92,2.57,2.57,0,0,0-1.93-.82,2.8,2.8,0,0,0-2.79,2.78Zm0,0" transform="translate(0.5 1.95)"/><path class="cls-12" d="M416.52,220.29a1.34,1.34,0,1,0,2.68,0v-12.7h1.38v12.7a1.34,1.34,0,1,0,2.68,0v-21.4h.65v7.92a1.16,1.16,0,0,0,.49,1,.87.87,0,0,0,1,0,1.12,1.12,0,0,0,.52-1v-8.18a3,3,0,0,0-.91-2.26,3.43,3.43,0,0,0-2.49-.89h-5.3a3.61,3.61,0,0,0-2.46.85,2.87,2.87,0,0,0-.94,2.23v8.31a.93.93,0,0,0,.52.92,1.08,1.08,0,0,0,1,0,1,1,0,0,0,.49-.92v-8h.65Zm0,0" transform="translate(0.5 1.95)"/><path class="cls-12" d="M417,191.92a2.8,2.8,0,0,0,2.79,2.78,2.57,2.57,0,0,0,1.93-.82,2.85,2.85,0,0,0,0-3.92,2.57,2.57,0,0,0-1.93-.82,2.8,2.8,0,0,0-2.79,2.78Zm0,0" transform="translate(0.5 1.95)"/><path class="cls-12" d="M436.52,220.29a1.34,1.34,0,1,0,2.68,0v-12.7h1.38v12.7a1.34,1.34,0,1,0,2.68,0v-21.4h.65v7.92a1.16,1.16,0,0,0,.49,1,.87.87,0,0,0,1,0,1.12,1.12,0,0,0,.52-1v-8.18a3,3,0,0,0-.91-2.26,3.43,3.43,0,0,0-2.49-.89h-5.3a3.61,3.61,0,0,0-2.46.85,2.87,2.87,0,0,0-.94,2.23v8.31a.93.93,0,0,0,.52.92,1.08,1.08,0,0,0,1,0,1,1,0,0,0,.49-.92v-8h.65Zm0,0" transform="translate(0.5 1.95)"/><path class="cls-12" d="M437,191.92a2.8,2.8,0,0,0,2.79,2.78,2.57,2.57,0,0,0,1.93-.82,2.85,2.85,0,0,0,0-3.92,2.57,2.57,0,0,0-1.93-.82,2.8,2.8,0,0,0-2.79,2.78Zm0,0" transform="translate(0.5 1.95)"/><path class="cls-12" d="M456.52,220.29a1.34,1.34,0,1,0,2.68,0v-12.7h1.38v12.7a1.34,1.34,0,1,0,2.68,0v-21.4h.65v7.92a1.16,1.16,0,0,0,.49,1,.87.87,0,0,0,1,0,1.12,1.12,0,0,0,.52-1v-8.18a3,3,0,0,0-.91-2.26,3.43,3.43,0,0,0-2.49-.89h-5.3a3.61,3.61,0,0,0-2.46.85,2.87,2.87,0,0,0-.94,2.23v8.31a.93.93,0,0,0,.52.92,1.08,1.08,0,0,0,1,0,1,1,0,0,0,.49-.92v-8h.65Zm0,0" transform="translate(0.5 1.95)"/><path class="cls-12" d="M457,191.92a2.8,2.8,0,0,0,2.79,2.78,2.57,2.57,0,0,0,1.93-.82,2.85,2.85,0,0,0,0-3.92,2.57,2.57,0,0,0-1.93-.82,2.8,2.8,0,0,0-2.79,2.78Zm0,0" transform="translate(0.5 1.95)"/><path class="cls-12" d="M476.52,220.29a1.34,1.34,0,1,0,2.68,0v-12.7h1.38v12.7a1.34,1.34,0,1,0,2.68,0v-21.4h.65v7.92a1.16,1.16,0,0,0,.49,1,.87.87,0,0,0,1,0,1.12,1.12,0,0,0,.52-1v-8.18a3,3,0,0,0-.91-2.26,3.43,3.43,0,0,0-2.49-.89h-5.3a3.61,3.61,0,0,0-2.46.85,2.87,2.87,0,0,0-.94,2.23v8.31a.93.93,0,0,0,.52.92,1.08,1.08,0,0,0,1,0,1,1,0,0,0,.49-.92v-8h.65Zm0,0" transform="translate(0.5 1.95)"/><path class="cls-12" d="M477,191.92a2.8,2.8,0,0,0,2.79,2.78,2.57,2.57,0,0,0,1.93-.82,2.85,2.85,0,0,0,0-3.92,2.57,2.57,0,0,0-1.93-.82,2.8,2.8,0,0,0-2.79,2.78Zm0,0" transform="translate(0.5 1.95)"/><path class="cls-12" d="M496.52,220.29a1.34,1.34,0,1,0,2.68,0v-12.7h1.38v12.7a1.34,1.34,0,1,0,2.68,0v-21.4h.65v7.92a1.16,1.16,0,0,0,.49,1,.87.87,0,0,0,1,0,1.12,1.12,0,0,0,.52-1v-8.18a3,3,0,0,0-.91-2.26,3.43,3.43,0,0,0-2.49-.89h-5.3a3.61,3.61,0,0,0-2.46.85,2.87,2.87,0,0,0-.94,2.23v8.31a.93.93,0,0,0,.52.92,1.08,1.08,0,0,0,1,0,1,1,0,0,0,.49-.92v-8h.65Zm0,0" transform="translate(0.5 1.95)"/><path class="cls-12" d="M497,191.92a2.8,2.8,0,0,0,2.79,2.78,2.57,2.57,0,0,0,1.93-.82,2.85,2.85,0,0,0,0-3.92,2.57,2.57,0,0,0-1.93-.82,2.8,2.8,0,0,0-2.79,2.78Zm0,0" transform="translate(0.5 1.95)"/><path class="cls-12" d="M516.52,60.29a1.34,1.34,0,1,0,2.68,0V47.59h1.38v12.7a1.34,1.34,0,1,0,2.68,0V38.89h.65v7.92a1.16,1.16,0,0,0,.49,1,.87.87,0,0,0,1,0,1.12,1.12,0,0,0,.52-1V38.63a3,3,0,0,0-.91-2.26,3.43,3.43,0,0,0-2.49-.89h-5.3a3.61,3.61,0,0,0-2.46.85,2.87,2.87,0,0,0-.94,2.23v8.31a.93.93,0,0,0,.52.92,1.08,1.08,0,0,0,1,0,1,1,0,0,0,.49-.92v-8h.65Zm0,0" transform="translate(0.5 1.95)"/><path class="cls-12" d="M517,31.92a2.8,2.8,0,0,0,2.79,2.78,2.57,2.57,0,0,0,1.93-.82,2.85,2.85,0,0,0,0-3.92,2.57,2.57,0,0,0-1.93-.82A2.8,2.8,0,0,0,517,31.92Zm0,0" transform="translate(0.5 1.95)"/><path class="cls-12" d="M536.52,60.29a1.34,1.34,0,1,0,2.68,0V47.59h1.38v12.7a1.34,1.34,0,1,0,2.68,0V38.89h.65v7.92a1.16,1.16,0,0,0,.49,1,.87.87,0,0,0,1,0,1.12,1.12,0,0,0,.52-1V38.63a3,3,0,0,0-.91-2.26,3.43,3.43,0,0,0-2.49-.89h-5.3a3.61,3.61,0,0,0-2.46.85,2.87,2.87,0,0,0-.94,2.23v8.31a.93.93,0,0,0,.52.92,1.08,1.08,0,0,0,1,0,1,1,0,0,0,.49-.92v-8h.65Zm0,0" transform="translate(0.5 1.95)"/><path class="cls-12" d="M537,31.92a2.8,2.8,0,0,0,2.79,2.78,2.57,2.57,0,0,0,1.93-.82,2.85,2.85,0,0,0,0-3.92,2.57,2.57,0,0,0-1.93-.82A2.8,2.8,0,0,0,537,31.92Zm0,0" transform="translate(0.5 1.95)"/><path class="cls-12" d="M556.52,60.29a1.34,1.34,0,1,0,2.68,0V47.59h1.38v12.7a1.34,1.34,0,1,0,2.68,0V38.89h.65v7.92a1.16,1.16,0,0,0,.49,1,.87.87,0,0,0,1,0,1.12,1.12,0,0,0,.52-1V38.63a3,3,0,0,0-.91-2.26,3.43,3.43,0,0,0-2.49-.89h-5.3a3.61,3.61,0,0,0-2.46.85,2.87,2.87,0,0,0-.94,2.23v8.31a.93.93,0,0,0,.52.92,1.08,1.08,0,0,0,1,0,1,1,0,0,0,.49-.92v-8h.65Zm0,0" transform="translate(0.5 1.95)"/><path class="cls-12" d="M557,31.92a2.8,2.8,0,0,0,2.79,2.78,2.57,2.57,0,0,0,1.93-.82,2.85,2.85,0,0,0,0-3.92,2.57,2.57,0,0,0-1.93-.82A2.8,2.8,0,0,0,557,31.92Zm0,0" transform="translate(0.5 1.95)"/><path class="cls-12" d="M516.52,100.29a1.34,1.34,0,1,0,2.68,0V87.59h1.38v12.7a1.34,1.34,0,1,0,2.68,0V78.89h.65v7.92a1.16,1.16,0,0,0,.49,1,.87.87,0,0,0,1,0,1.12,1.12,0,0,0,.52-1V78.63a3,3,0,0,0-.91-2.26,3.43,3.43,0,0,0-2.49-.89h-5.3a3.61,3.61,0,0,0-2.46.85,2.87,2.87,0,0,0-.94,2.23v8.31a.93.93,0,0,0,.52.92,1.08,1.08,0,0,0,1,0,1,1,0,0,0,.49-.92v-8h.65Zm0,0" transform="translate(0.5 1.95)"/><path class="cls-12" d="M517,71.92a2.8,2.8,0,0,0,2.79,2.78,2.57,2.57,0,0,0,1.93-.82,2.85,2.85,0,0,0,0-3.92,2.57,2.57,0,0,0-1.93-.82A2.8,2.8,0,0,0,517,71.92Zm0,0" transform="translate(0.5 1.95)"/><path class="cls-12" d="M536.52,100.29a1.34,1.34,0,1,0,2.68,0V87.59h1.38v12.7a1.34,1.34,0,1,0,2.68,0V78.89h.65v7.92a1.16,1.16,0,0,0,.49,1,.87.87,0,0,0,1,0,1.12,1.12,0,0,0,.52-1V78.63a3,3,0,0,0-.91-2.26,3.43,3.43,0,0,0-2.49-.89h-5.3a3.61,3.61,0,0,0-2.46.85,2.87,2.87,0,0,0-.94,2.23v8.31a.93.93,0,0,0,.52.92,1.08,1.08,0,0,0,1,0,1,1,0,0,0,.49-.92v-8h.65Zm0,0" transform="translate(0.5 1.95)"/><path class="cls-12" d="M537,71.92a2.8,2.8,0,0,0,2.79,2.78,2.57,2.57,0,0,0,1.93-.82,2.85,2.85,0,0,0,0-3.92,2.57,2.57,0,0,0-1.93-.82A2.8,2.8,0,0,0,537,71.92Zm0,0" transform="translate(0.5 1.95)"/><path class="cls-12" d="M556.52,100.29a1.34,1.34,0,1,0,2.68,0V87.59h1.38v12.7a1.34,1.34,0,1,0,2.68,0V78.89h.65v7.92a1.16,1.16,0,0,0,.49,1,.87.87,0,0,0,1,0,1.12,1.12,0,0,0,.52-1V78.63a3,3,0,0,0-.91-2.26,3.43,3.43,0,0,0-2.49-.89h-5.3a3.61,3.61,0,0,0-2.46.85,2.87,2.87,0,0,0-.94,2.23v8.31a.93.93,0,0,0,.52.92,1.08,1.08,0,0,0,1,0,1,1,0,0,0,.49-.92v-8h.65Zm0,0" transform="translate(0.5 1.95)"/><path class="cls-12" d="M557,71.92a2.8,2.8,0,0,0,2.79,2.78,2.57,2.57,0,0,0,1.93-.82,2.85,2.85,0,0,0,0-3.92,2.57,2.57,0,0,0-1.93-.82A2.8,2.8,0,0,0,557,71.92Zm0,0" transform="translate(0.5 1.95)"/><path class="cls-12" d="M516.52,140.29a1.34,1.34,0,1,0,2.68,0v-12.7h1.38v12.7a1.34,1.34,0,1,0,2.68,0v-21.4h.65v7.92a1.16,1.16,0,0,0,.49,1,.87.87,0,0,0,1,0,1.12,1.12,0,0,0,.52-1v-8.18a3,3,0,0,0-.91-2.26,3.43,3.43,0,0,0-2.49-.89h-5.3a3.61,3.61,0,0,0-2.46.85,2.87,2.87,0,0,0-.94,2.23v8.31a.93.93,0,0,0,.52.92,1.08,1.08,0,0,0,1,0,1,1,0,0,0,.49-.92v-8h.65Zm0,0" transform="translate(0.5 1.95)"/><path class="cls-12" d="M517,111.92a2.8,2.8,0,0,0,2.79,2.78,2.57,2.57,0,0,0,1.93-.82,2.85,2.85,0,0,0,0-3.92,2.57,2.57,0,0,0-1.93-.82,2.8,2.8,0,0,0-2.79,2.78Zm0,0" transform="translate(0.5 1.95)"/><path class="cls-12" d="M536.52,140.29a1.34,1.34,0,1,0,2.68,0v-12.7h1.38v12.7a1.34,1.34,0,1,0,2.68,0v-21.4h.65v7.92a1.16,1.16,0,0,0,.49,1,.87.87,0,0,0,1,0,1.12,1.12,0,0,0,.52-1v-8.18a3,3,0,0,0-.91-2.26,3.43,3.43,0,0,0-2.49-.89h-5.3a3.61,3.61,0,0,0-2.46.85,2.87,2.87,0,0,0-.94,2.23v8.31a.93.93,0,0,0,.52.92,1.08,1.08,0,0,0,1,0,1,1,0,0,0,.49-.92v-8h.65Zm0,0" transform="translate(0.5 1.95)"/><path class="cls-12" d="M537,111.92a2.8,2.8,0,0,0,2.79,2.78,2.57,2.57,0,0,0,1.93-.82,2.85,2.85,0,0,0,0-3.92,2.57,2.57,0,0,0-1.93-.82,2.8,2.8,0,0,0-2.79,2.78Zm0,0" transform="translate(0.5 1.95)"/><path class="cls-12" d="M556.52,140.29a1.34,1.34,0,1,0,2.68,0v-12.7h1.38v12.7a1.34,1.34,0,1,0,2.68,0v-21.4h.65v7.92a1.16,1.16,0,0,0,.49,1,.87.87,0,0,0,1,0,1.12,1.12,0,0,0,.52-1v-8.18a3,3,0,0,0-.91-2.26,3.43,3.43,0,0,0-2.49-.89h-5.3a3.61,3.61,0,0,0-2.46.85,2.87,2.87,0,0,0-.94,2.23v8.31a.93.93,0,0,0,.52.92,1.08,1.08,0,0,0,1,0,1,1,0,0,0,.49-.92v-8h.65Zm0,0" transform="translate(0.5 1.95)"/><path class="cls-12" d="M557,111.92a2.8,2.8,0,0,0,2.79,2.78,2.57,2.57,0,0,0,1.93-.82,2.85,2.85,0,0,0,0-3.92,2.57,2.57,0,0,0-1.93-.82,2.8,2.8,0,0,0-2.79,2.78Zm0,0" transform="translate(0.5 1.95)"/><path class="cls-12" d="M516.52,180.29a1.34,1.34,0,1,0,2.68,0v-12.7h1.38v12.7a1.34,1.34,0,1,0,2.68,0v-21.4h.65v7.92a1.16,1.16,0,0,0,.49,1,.87.87,0,0,0,1,0,1.12,1.12,0,0,0,.52-1v-8.18a3,3,0,0,0-.91-2.26,3.43,3.43,0,0,0-2.49-.89h-5.3a3.61,3.61,0,0,0-2.46.85,2.87,2.87,0,0,0-.94,2.23v8.31a.93.93,0,0,0,.52.92,1.08,1.08,0,0,0,1,0,1,1,0,0,0,.49-.92v-8h.65Zm0,0" transform="translate(0.5 1.95)"/><path class="cls-12" d="M517,151.92a2.8,2.8,0,0,0,2.79,2.78,2.57,2.57,0,0,0,1.93-.82,2.85,2.85,0,0,0,0-3.92,2.57,2.57,0,0,0-1.93-.82,2.8,2.8,0,0,0-2.79,2.78Zm0,0" transform="translate(0.5 1.95)"/><path class="cls-12" d="M536.52,180.29a1.34,1.34,0,1,0,2.68,0v-12.7h1.38v12.7a1.34,1.34,0,1,0,2.68,0v-21.4h.65v7.92a1.16,1.16,0,0,0,.49,1,.87.87,0,0,0,1,0,1.12,1.12,0,0,0,.52-1v-8.18a3,3,0,0,0-.91-2.26,3.43,3.43,0,0,0-2.49-.89h-5.3a3.61,3.61,0,0,0-2.46.85,2.87,2.87,0,0,0-.94,2.23v8.31a.93.93,0,0,0,.52.92,1.08,1.08,0,0,0,1,0,1,1,0,0,0,.49-.92v-8h.65Zm0,0" transform="translate(0.5 1.95)"/><path class="cls-12" d="M537,151.92a2.8,2.8,0,0,0,2.79,2.78,2.57,2.57,0,0,0,1.93-.82,2.85,2.85,0,0,0,0-3.92,2.57,2.57,0,0,0-1.93-.82,2.8,2.8,0,0,0-2.79,2.78Zm0,0" transform="translate(0.5 1.95)"/><path class="cls-12" d="M556.52,180.29a1.34,1.34,0,1,0,2.68,0v-12.7h1.38v12.7a1.34,1.34,0,1,0,2.68,0v-21.4h.65v7.92a1.16,1.16,0,0,0,.49,1,.87.87,0,0,0,1,0,1.12,1.12,0,0,0,.52-1v-8.18a3,3,0,0,0-.91-2.26,3.43,3.43,0,0,0-2.49-.89h-5.3a3.61,3.61,0,0,0-2.46.85,2.87,2.87,0,0,0-.94,2.23v8.31a.93.93,0,0,0,.52.92,1.08,1.08,0,0,0,1,0,1,1,0,0,0,.49-.92v-8h.65Zm0,0" transform="translate(0.5 1.95)"/><path class="cls-12" d="M557,151.92a2.8,2.8,0,0,0,2.79,2.78,2.57,2.57,0,0,0,1.93-.82,2.85,2.85,0,0,0,0-3.92,2.57,2.57,0,0,0-1.93-.82,2.8,2.8,0,0,0-2.79,2.78Zm0,0" transform="translate(0.5 1.95)"/><path class="cls-13" d="M516.52,220.29a1.34,1.34,0,1,0,2.68,0v-12.7h1.38v12.7a1.34,1.34,0,1,0,2.68,0v-21.4h.65v7.92a1.16,1.16,0,0,0,.49,1,.87.87,0,0,0,1,0,1.12,1.12,0,0,0,.52-1v-8.18a3,3,0,0,0-.91-2.26,3.43,3.43,0,0,0-2.49-.89h-5.3a3.61,3.61,0,0,0-2.46.85,2.87,2.87,0,0,0-.94,2.23v8.31a.93.93,0,0,0,.52.92,1.08,1.08,0,0,0,1,0,1,1,0,0,0,.49-.92v-8h.65Zm0,0" transform="translate(0.5 1.95)"/><path class="cls-13" d="M517,191.92a2.8,2.8,0,0,0,2.79,2.78,2.57,2.57,0,0,0,1.93-.82,2.85,2.85,0,0,0,0-3.92,2.57,2.57,0,0,0-1.93-.82,2.8,2.8,0,0,0-2.79,2.78Zm0,0" transform="translate(0.5 1.95)"/><path class="cls-13" d="M536.52,220.29a1.34,1.34,0,1,0,2.68,0v-12.7h1.38v12.7a1.34,1.34,0,1,0,2.68,0v-21.4h.65v7.92a1.16,1.16,0,0,0,.49,1,.87.87,0,0,0,1,0,1.12,1.12,0,0,0,.52-1v-8.18a3,3,0,0,0-.91-2.26,3.43,3.43,0,0,0-2.49-.89h-5.3a3.61,3.61,0,0,0-2.46.85,2.87,2.87,0,0,0-.94,2.23v8.31a.93.93,0,0,0,.52.92,1.08,1.08,0,0,0,1,0,1,1,0,0,0,.49-.92v-8h.65Zm0,0" transform="translate(0.5 1.95)"/><path class="cls-13" d="M537,191.92a2.8,2.8,0,0,0,2.79,2.78,2.57,2.57,0,0,0,1.93-.82,2.85,2.85,0,0,0,0-3.92,2.57,2.57,0,0,0-1.93-.82,2.8,2.8,0,0,0-2.79,2.78Zm0,0" transform="translate(0.5 1.95)"/><path class="cls-13" d="M556.52,220.29a1.34,1.34,0,1,0,2.68,0v-12.7h1.38v12.7a1.34,1.34,0,1,0,2.68,0v-21.4h.65v7.92a1.16,1.16,0,0,0,.49,1,.87.87,0,0,0,1,0,1.12,1.12,0,0,0,.52-1v-8.18a3,3,0,0,0-.91-2.26,3.43,3.43,0,0,0-2.49-.89h-5.3a3.61,3.61,0,0,0-2.46.85,2.87,2.87,0,0,0-.94,2.23v8.31a.93.93,0,0,0,.52.92,1.08,1.08,0,0,0,1,0,1,1,0,0,0,.49-.92v-8h.65Zm0,0" transform="translate(0.5 1.95)"/><path class="cls-13" d="M557,191.92a2.8,2.8,0,0,0,2.79,2.78,2.57,2.57,0,0,0,1.93-.82,2.85,2.85,0,0,0,0-3.92,2.57,2.57,0,0,0-1.93-.82,2.8,2.8,0,0,0-2.79,2.78Zm0,0" transform="translate(0.5 1.95)"/><path class="cls-14" d="M216.52,60.29a1.34,1.34,0,1,0,2.68,0V47.59h1.38v12.7a1.34,1.34,0,1,0,2.68,0V38.89h.65v7.92a1.16,1.16,0,0,0,.49,1,.87.87,0,0,0,1,0,1.12,1.12,0,0,0,.52-1V38.63a3,3,0,0,0-.91-2.26,3.43,3.43,0,0,0-2.49-.89h-5.3a3.61,3.61,0,0,0-2.46.85,2.87,2.87,0,0,0-.94,2.23v8.31a.93.93,0,0,0,.52.92,1.08,1.08,0,0,0,1,0,1,1,0,0,0,.49-.92v-8h.65Zm0,0" transform="translate(0.5 1.95)"/><path class="cls-14" d="M217,31.92a2.8,2.8,0,0,0,2.79,2.78,2.57,2.57,0,0,0,1.93-.82,2.85,2.85,0,0,0,0-3.92,2.57,2.57,0,0,0-1.93-.82A2.8,2.8,0,0,0,217,31.92Zm0,0" transform="translate(0.5 1.95)"/><path class="cls-2" d="M236.52,60.29a1.34,1.34,0,1,0,2.68,0V47.59h1.38v12.7a1.34,1.34,0,1,0,2.68,0V38.89h.65v7.92a1.16,1.16,0,0,0,.49,1,.87.87,0,0,0,1,0,1.12,1.12,0,0,0,.52-1V38.63a3,3,0,0,0-.91-2.26,3.43,3.43,0,0,0-2.49-.89h-5.3a3.61,3.61,0,0,0-2.46.85,2.87,2.87,0,0,0-.94,2.23v8.31a.93.93,0,0,0,.52.92,1.08,1.08,0,0,0,1,0,1,1,0,0,0,.49-.92v-8h.65Zm0,0" transform="translate(0.5 1.95)"/><path class="cls-2" d="M237,31.92a2.8,2.8,0,0,0,2.79,2.78,2.57,2.57,0,0,0,1.93-.82,2.85,2.85,0,0,0,0-3.92,2.57,2.57,0,0,0-1.93-.82A2.8,2.8,0,0,0,237,31.92Zm0,0" transform="translate(0.5 1.95)"/><path class="cls-2" d="M256.52,60.29a1.34,1.34,0,1,0,2.68,0V47.59h1.38v12.7a1.34,1.34,0,1,0,2.68,0V38.89h.65v7.92a1.16,1.16,0,0,0,.49,1,.87.87,0,0,0,1,0,1.12,1.12,0,0,0,.52-1V38.63a3,3,0,0,0-.91-2.26,3.43,3.43,0,0,0-2.49-.89h-5.3a3.61,3.61,0,0,0-2.46.85,2.87,2.87,0,0,0-.94,2.23v8.31a.93.93,0,0,0,.52.92,1.08,1.08,0,0,0,1,0,1,1,0,0,0,.49-.92v-8h.65Zm0,0" transform="translate(0.5 1.95)"/><path class="cls-2" d="M257,31.92a2.8,2.8,0,0,0,2.79,2.78,2.57,2.57,0,0,0,1.93-.82,2.85,2.85,0,0,0,0-3.92,2.57,2.57,0,0,0-1.93-.82A2.8,2.8,0,0,0,257,31.92Zm0,0" transform="translate(0.5 1.95)"/><path class="cls-12" d="M216.52,100.29a1.34,1.34,0,1,0,2.68,0V87.59h1.38v12.7a1.34,1.34,0,1,0,2.68,0V78.89h.65v7.92a1.16,1.16,0,0,0,.49,1,.87.87,0,0,0,1,0,1.12,1.12,0,0,0,.52-1V78.63a3,3,0,0,0-.91-2.26,3.43,3.43,0,0,0-2.49-.89h-5.3a3.61,3.61,0,0,0-2.46.85,2.87,2.87,0,0,0-.94,2.23v8.31a.93.93,0,0,0,.52.92,1.08,1.08,0,0,0,1,0,1,1,0,0,0,.49-.92v-8h.65Zm0,0" transform="translate(0.5 1.95)"/><path class="cls-12" d="M217,71.92a2.8,2.8,0,0,0,2.79,2.78,2.57,2.57,0,0,0,1.93-.82,2.85,2.85,0,0,0,0-3.92,2.57,2.57,0,0,0-1.93-.82A2.8,2.8,0,0,0,217,71.92Zm0,0" transform="translate(0.5 1.95)"/><path class="cls-12" d="M236.52,100.29a1.34,1.34,0,1,0,2.68,0V87.59h1.38v12.7a1.34,1.34,0,1,0,2.68,0V78.89h.65v7.92a1.16,1.16,0,0,0,.49,1,.87.87,0,0,0,1,0,1.12,1.12,0,0,0,.52-1V78.63a3,3,0,0,0-.91-2.26,3.43,3.43,0,0,0-2.49-.89h-5.3a3.61,3.61,0,0,0-2.46.85,2.87,2.87,0,0,0-.94,2.23v8.31a.93.93,0,0,0,.52.92,1.08,1.08,0,0,0,1,0,1,1,0,0,0,.49-.92v-8h.65Zm0,0" transform="translate(0.5 1.95)"/><path class="cls-12" d="M237,71.92a2.8,2.8,0,0,0,2.79,2.78,2.57,2.57,0,0,0,1.93-.82,2.85,2.85,0,0,0,0-3.92,2.57,2.57,0,0,0-1.93-.82A2.8,2.8,0,0,0,237,71.92Zm0,0" transform="translate(0.5 1.95)"/><path class="cls-12" d="M256.52,100.29a1.34,1.34,0,1,0,2.68,0V87.59h1.38v12.7a1.34,1.34,0,1,0,2.68,0V78.89h.65v7.92a1.16,1.16,0,0,0,.49,1,.87.87,0,0,0,1,0,1.12,1.12,0,0,0,.52-1V78.63a3,3,0,0,0-.91-2.26,3.43,3.43,0,0,0-2.49-.89h-5.3a3.61,3.61,0,0,0-2.46.85,2.87,2.87,0,0,0-.94,2.23v8.31a.93.93,0,0,0,.52.92,1.08,1.08,0,0,0,1,0,1,1,0,0,0,.49-.92v-8h.65Zm0,0" transform="translate(0.5 1.95)"/><path class="cls-12" d="M257,71.92a2.8,2.8,0,0,0,2.79,2.78,2.57,2.57,0,0,0,1.93-.82,2.85,2.85,0,0,0,0-3.92,2.57,2.57,0,0,0-1.93-.82A2.8,2.8,0,0,0,257,71.92Zm0,0" transform="translate(0.5 1.95)"/><path class="cls-12" d="M216.52,140.29a1.34,1.34,0,1,0,2.68,0v-12.7h1.38v12.7a1.34,1.34,0,1,0,2.68,0v-21.4h.65v7.92a1.16,1.16,0,0,0,.49,1,.87.87,0,0,0,1,0,1.12,1.12,0,0,0,.52-1v-8.18a3,3,0,0,0-.91-2.26,3.43,3.43,0,0,0-2.49-.89h-5.3a3.61,3.61,0,0,0-2.46.85,2.87,2.87,0,0,0-.94,2.23v8.31a.93.93,0,0,0,.52.92,1.08,1.08,0,0,0,1,0,1,1,0,0,0,.49-.92v-8h.65Zm0,0" transform="translate(0.5 1.95)"/><path class="cls-12" d="M217,111.92a2.8,2.8,0,0,0,2.79,2.78,2.57,2.57,0,0,0,1.93-.82,2.85,2.85,0,0,0,0-3.92,2.57,2.57,0,0,0-1.93-.82,2.8,2.8,0,0,0-2.79,2.78Zm0,0" transform="translate(0.5 1.95)"/><path class="cls-12" d="M236.52,140.29a1.34,1.34,0,1,0,2.68,0v-12.7h1.38v12.7a1.34,1.34,0,1,0,2.68,0v-21.4h.65v7.92a1.16,1.16,0,0,0,.49,1,.87.87,0,0,0,1,0,1.12,1.12,0,0,0,.52-1v-8.18a3,3,0,0,0-.91-2.26,3.43,3.43,0,0,0-2.49-.89h-5.3a3.61,3.61,0,0,0-2.46.85,2.87,2.87,0,0,0-.94,2.23v8.31a.93.93,0,0,0,.52.92,1.08,1.08,0,0,0,1,0,1,1,0,0,0,.49-.92v-8h.65Zm0,0" transform="translate(0.5 1.95)"/><path class="cls-12" d="M237,111.92a2.8,2.8,0,0,0,2.79,2.78,2.57,2.57,0,0,0,1.93-.82,2.85,2.85,0,0,0,0-3.92,2.57,2.57,0,0,0-1.93-.82,2.8,2.8,0,0,0-2.79,2.78Zm0,0" transform="translate(0.5 1.95)"/><path class="cls-12" d="M256.52,140.29a1.34,1.34,0,1,0,2.68,0v-12.7h1.38v12.7a1.34,1.34,0,1,0,2.68,0v-21.4h.65v7.92a1.16,1.16,0,0,0,.49,1,.87.87,0,0,0,1,0,1.12,1.12,0,0,0,.52-1v-8.18a3,3,0,0,0-.91-2.26,3.43,3.43,0,0,0-2.49-.89h-5.3a3.61,3.61,0,0,0-2.46.85,2.87,2.87,0,0,0-.94,2.23v8.31a.93.93,0,0,0,.52.92,1.08,1.08,0,0,0,1,0,1,1,0,0,0,.49-.92v-8h.65Zm0,0" transform="translate(0.5 1.95)"/><path class="cls-12" d="M257,111.92a2.8,2.8,0,0,0,2.79,2.78,2.57,2.57,0,0,0,1.93-.82,2.85,2.85,0,0,0,0-3.92,2.57,2.57,0,0,0-1.93-.82,2.8,2.8,0,0,0-2.79,2.78Zm0,0" transform="translate(0.5 1.95)"/><path class="cls-12" d="M216.52,180.29a1.34,1.34,0,1,0,2.68,0v-12.7h1.38v12.7a1.34,1.34,0,1,0,2.68,0v-21.4h.65v7.92a1.16,1.16,0,0,0,.49,1,.87.87,0,0,0,1,0,1.12,1.12,0,0,0,.52-1v-8.18a3,3,0,0,0-.91-2.26,3.43,3.43,0,0,0-2.49-.89h-5.3a3.61,3.61,0,0,0-2.46.85,2.87,2.87,0,0,0-.94,2.23v8.31a.93.93,0,0,0,.52.92,1.08,1.08,0,0,0,1,0,1,1,0,0,0,.49-.92v-8h.65Zm0,0" transform="translate(0.5 1.95)"/><path class="cls-12" d="M217,151.92a2.8,2.8,0,0,0,2.79,2.78,2.57,2.57,0,0,0,1.93-.82,2.85,2.85,0,0,0,0-3.92,2.57,2.57,0,0,0-1.93-.82,2.8,2.8,0,0,0-2.79,2.78Zm0,0" transform="translate(0.5 1.95)"/><path class="cls-12" d="M236.52,180.29a1.34,1.34,0,1,0,2.68,0v-12.7h1.38v12.7a1.34,1.34,0,1,0,2.68,0v-21.4h.65v7.92a1.16,1.16,0,0,0,.49,1,.87.87,0,0,0,1,0,1.12,1.12,0,0,0,.52-1v-8.18a3,3,0,0,0-.91-2.26,3.43,3.43,0,0,0-2.49-.89h-5.3a3.61,3.61,0,0,0-2.46.85,2.87,2.87,0,0,0-.94,2.23v8.31a.93.93,0,0,0,.52.92,1.08,1.08,0,0,0,1,0,1,1,0,0,0,.49-.92v-8h.65Zm0,0" transform="translate(0.5 1.95)"/><path class="cls-12" d="M237,151.92a2.8,2.8,0,0,0,2.79,2.78,2.57,2.57,0,0,0,1.93-.82,2.85,2.85,0,0,0,0-3.92,2.57,2.57,0,0,0-1.93-.82,2.8,2.8,0,0,0-2.79,2.78Zm0,0" transform="translate(0.5 1.95)"/><path class="cls-12" d="M256.52,180.29a1.34,1.34,0,1,0,2.68,0v-12.7h1.38v12.7a1.34,1.34,0,1,0,2.68,0v-21.4h.65v7.92a1.16,1.16,0,0,0,.49,1,.87.87,0,0,0,1,0,1.12,1.12,0,0,0,.52-1v-8.18a3,3,0,0,0-.91-2.26,3.43,3.43,0,0,0-2.49-.89h-5.3a3.61,3.61,0,0,0-2.46.85,2.87,2.87,0,0,0-.94,2.23v8.31a.93.93,0,0,0,.52.92,1.08,1.08,0,0,0,1,0,1,1,0,0,0,.49-.92v-8h.65Zm0,0" transform="translate(0.5 1.95)"/><path class="cls-12" d="M257,151.92a2.8,2.8,0,0,0,2.79,2.78,2.57,2.57,0,0,0,1.93-.82,2.85,2.85,0,0,0,0-3.92,2.57,2.57,0,0,0-1.93-.82,2.8,2.8,0,0,0-2.79,2.78Zm0,0" transform="translate(0.5 1.95)"/><path class="cls-12" d="M216.52,220.29a1.34,1.34,0,1,0,2.68,0v-12.7h1.38v12.7a1.34,1.34,0,1,0,2.68,0v-21.4h.65v7.92a1.16,1.16,0,0,0,.49,1,.87.87,0,0,0,1,0,1.12,1.12,0,0,0,.52-1v-8.18a3,3,0,0,0-.91-2.26,3.43,3.43,0,0,0-2.49-.89h-5.3a3.61,3.61,0,0,0-2.46.85,2.87,2.87,0,0,0-.94,2.23v8.31a.93.93,0,0,0,.52.92,1.08,1.08,0,0,0,1,0,1,1,0,0,0,.49-.92v-8h.65Zm0,0" transform="translate(0.5 1.95)"/><path class="cls-12" d="M217,191.92a2.8,2.8,0,0,0,2.79,2.78,2.57,2.57,0,0,0,1.93-.82,2.85,2.85,0,0,0,0-3.92,2.57,2.57,0,0,0-1.93-.82,2.8,2.8,0,0,0-2.79,2.78Zm0,0" transform="translate(0.5 1.95)"/><path class="cls-12" d="M236.52,220.29a1.34,1.34,0,1,0,2.68,0v-12.7h1.38v12.7a1.34,1.34,0,1,0,2.68,0v-21.4h.65v7.92a1.16,1.16,0,0,0,.49,1,.87.87,0,0,0,1,0,1.12,1.12,0,0,0,.52-1v-8.18a3,3,0,0,0-.91-2.26,3.43,3.43,0,0,0-2.49-.89h-5.3a3.61,3.61,0,0,0-2.46.85,2.87,2.87,0,0,0-.94,2.23v8.31a.93.93,0,0,0,.52.92,1.08,1.08,0,0,0,1,0,1,1,0,0,0,.49-.92v-8h.65Zm0,0" transform="translate(0.5 1.95)"/><path class="cls-12" d="M237,191.92a2.8,2.8,0,0,0,2.79,2.78,2.57,2.57,0,0,0,1.93-.82,2.85,2.85,0,0,0,0-3.92,2.57,2.57,0,0,0-1.93-.82,2.8,2.8,0,0,0-2.79,2.78Zm0,0" transform="translate(0.5 1.95)"/><path class="cls-12" d="M256.52,220.29a1.34,1.34,0,1,0,2.68,0v-12.7h1.38v12.7a1.34,1.34,0,1,0,2.68,0v-21.4h.65v7.92a1.16,1.16,0,0,0,.49,1,.87.87,0,0,0,1,0,1.12,1.12,0,0,0,.52-1v-8.18a3,3,0,0,0-.91-2.26,3.43,3.43,0,0,0-2.49-.89h-5.3a3.61,3.61,0,0,0-2.46.85,2.87,2.87,0,0,0-.94,2.23v8.31a.93.93,0,0,0,.52.92,1.08,1.08,0,0,0,1,0,1,1,0,0,0,.49-.92v-8h.65Zm0,0" transform="translate(0.5 1.95)"/><path class="cls-12" d="M257,191.92a2.8,2.8,0,0,0,2.79,2.78,2.57,2.57,0,0,0,1.93-.82,2.85,2.85,0,0,0,0-3.92,2.57,2.57,0,0,0-1.93-.82,2.8,2.8,0,0,0-2.79,2.78Zm0,0" transform="translate(0.5 1.95)"/></g></svg>