<svg xmlns="http://www.w3.org/2000/svg" xmlns:xlink="http://www.w3.org/1999/xlink" viewBox="0 0 145.65 145.65"><defs><style>.cls-1,.cls-15{fill:none;}.cls-1,.cls-4{opacity:0.8;}.cls-2{isolation:isolate;}.cls-3{clip-path:url(#clip-path);}.cls-4{fill:#f5ad1f;}.cls-5{fill:#f5d2ae;}.cls-6{fill:#e1bc9c;}.cls-7{fill:#e5e5e4;}.cls-8{fill:#711515;}.cls-9{fill:#452f27;}.cls-10{fill:#1d1d1b;}.cls-11{fill:#9ea6b0;}.cls-12{fill:#be1622;}.cls-13{opacity:0.67;mix-blend-mode:multiply;}.cls-14{fill:#6a6a69;}.cls-15{stroke:#eaeaea;stroke-miterlimit:10;stroke-width:3.92px;}</style><clipPath id="clip-path" transform="translate(-5.13 -5.13)"><circle class="cls-1" cx="77.95" cy="77.95" r="70.87"/></clipPath></defs><title>G08_04_02</title><g class="cls-2"><g id="Mobile"><g class="cls-3"><circle class="cls-4" cx="73.34" cy="73.25" r="70.87"/></g><path class="cls-5" d="M108.64,57.11c0,3.91-1.62,7.29-4,9a7.47,7.47,0,0,1-.73.47C102.52,75.44,98.63,83,93.24,88.06c-4.34,4.07-9.66,9.45-15.39,9.45-6.33,0-12.13-5.9-16.69-10.74a37.81,37.81,0,0,1-9.32-19.91,6.72,6.72,0,0,1-1.21-.71c-2.39-1.76-4-5.14-4-9C46.63,52,49.37,47.81,53,47c3.83-13.16,13.52-22.49,24.85-22.49s21.09,9.4,24.89,22.62C106.13,48.19,108.64,52.26,108.64,57.11Z" transform="translate(-5.13 -5.13)"/><path class="cls-6" d="M57.5,94.32a33.91,33.91,0,0,1,4.87,8.2,21.61,21.61,0,0,1-5.39-8Z" transform="translate(-5.13 -5.13)"/><path class="cls-6" d="M93.24,88.06v5.22c-.82,3.86-7.69,6.87-16,6.87-8.52,0-15.51-3.14-16.08-7.12h0V86.77a24.58,24.58,0,0,0,2,1.94c4.2,3.66,9.24,8.8,14.67,8.8,5.13,0,9.93-4.9,14-8.23C92.32,88.9,92.79,88.48,93.24,88.06Z" transform="translate(-5.13 -5.13)"/><path class="cls-7" d="M97.42,94.51c-.07.19-.15.39-.23.58h0c-.12.26-.23.53-.36.79l-.27.58c-.17.32-.33.63-.51,1s-.28.48-.43.72-.41.65-.64,1c-.11.15-.21.31-.33.46-.33.45-.67.88-1,1.3l0,0c-.25.29-.51.57-.77.84l-.4.41-.41.39-.42.39-.37.31a11.82,11.82,0,0,1-1,.77l-.46.34-.47.32c-.31.22-.63.42-1,.62l-.44.26-.08,0c-.31.17-.62.34-.94.49l-.59.29-.49.22,0,0-.49.21c-.4.16-.8.31-1.21.44l-.43.14c-.37.12-.75.23-1.13.32l-.55.13c-.39.09-.78.17-1.18.23-.19,0-.39.06-.58.09h0l-.59.08h-.13a5.48,5.48,0,0,1-.57,0l-.83.06H76.44l-.32,0c-.21,0-.42,0-.64,0s-.52,0-.78-.07l-.15,0c-.23,0-.44,0-.66-.09s-.6-.1-.9-.16l-.68-.14a22.4,22.4,0,0,1-2.49-.74c-.22-.08-.45-.16-.66-.25l-.11,0c-.3-.12-.6-.26-.89-.39s-.5-.23-.75-.36l-.33-.17-.55-.3-.23-.13-.56-.34c-.39-.25-.78-.5-1.15-.78-.21-.14-.41-.29-.61-.44l-.2-.17c-.23-.17-.45-.36-.67-.54l-.74-.67a33.91,33.91,0,0,0-4.87-8.2L61.12,93c.57,4,7.56,7.12,16.08,7.12,8.35,0,15.22-3,16-6.87v0Z" transform="translate(-5.13 -5.13)"/><path class="cls-8" d="M98.44,93.45l-1.25,1.64c.08-.19.16-.39.23-.58l-4.18-1.19V88.06c5.39-5,9.28-12.62,10.67-21.43a7.47,7.47,0,0,0,.73-.47C107.5,74.47,100.1,91.37,98.44,93.45Z" transform="translate(-5.13 -5.13)"/><path class="cls-8" d="M61.16,86.77V93l-3.66,1.3c-1.87-2.43-9.73-19.86-6.87-28.17a6.72,6.72,0,0,0,1.21.71A37.81,37.81,0,0,0,61.16,86.77Z" transform="translate(-5.13 -5.13)"/><path class="cls-9" d="M87,49.41a10.68,10.68,0,0,0,2.61,2.85,80.74,80.74,0,0,1-12.84-1C71.18,50.1,67.9,47.58,64,43.82c4.12-4.06,8.83-6.89,13.62-6.89,6.61,0,13.09,5.39,18,12C93,49.73,89.6,49.6,87,49.41Z" transform="translate(-5.13 -5.13)"/><path class="cls-9" d="M62.13,45.83a7.37,7.37,0,0,1-2,5.41c-1.81,1.91-2.27,2.93-4.08,3A53.21,53.21,0,0,1,62.13,45.83Z" transform="translate(-5.13 -5.13)"/><path class="cls-10" d="M73.87,68H58.46a1.14,1.14,0,0,1-1.13-1l-.86-9a1.13,1.13,0,0,1,1.13-1.24H74.74A1.13,1.13,0,0,1,75.87,58L75,67A1.14,1.14,0,0,1,73.87,68Z" transform="translate(-5.13 -5.13)"/><path class="cls-10" d="M97.53,68H82.13A1.14,1.14,0,0,1,81,67l-.86-9a1.13,1.13,0,0,1,.29-.87,1.15,1.15,0,0,1,.84-.37H98.41a1.17,1.17,0,0,1,.84.37,1.18,1.18,0,0,1,.29.88l-.88,9A1.12,1.12,0,0,1,97.53,68Z" transform="translate(-5.13 -5.13)"/><path class="cls-10" d="M74.46,61.92h-.11a1.14,1.14,0,0,1-1-1.24c.17-1.72,2-2.82,4.63-2.82h0c2.2,0,4.52.87,4.7,2.82a1.14,1.14,0,1,1-2.26.22c0-.23-.88-.78-2.45-.78h0c-1.51,0-2.34.51-2.37.78A1.14,1.14,0,0,1,74.46,61.92Z" transform="translate(-5.13 -5.13)"/><path class="cls-10" d="M58.77,59a1.13,1.13,0,0,1-.94.33l-5.62-.69a1.14,1.14,0,0,1,.28-2.26l5.62.7A1.12,1.12,0,0,1,58.77,59Z" transform="translate(-5.13 -5.13)"/><path class="cls-10" d="M97.46,58.47a1,1,0,0,1-.1-.43,1.14,1.14,0,0,1,1.08-1.18l7.37-.31a1.14,1.14,0,0,1,.09,2.27l-7.36.31A1.14,1.14,0,0,1,97.46,58.47Z" transform="translate(-5.13 -5.13)"/><polygon class="cls-11" points="60.09 61.02 55.01 61.02 54.01 53.11 59.09 53.11 60.09 61.02"/><polygon class="cls-11" points="62.09 61.02 61.01 61.02 60.01 53.11 61.09 53.11 62.09 61.02"/><polygon class="cls-11" points="84.08 61.02 79 61.02 78 53.11 83.08 53.11 84.08 61.02"/><polygon class="cls-11" points="86.08 61.02 85 61.02 84 53.11 85.08 53.11 86.08 61.02"/><path class="cls-12" d="M78,148.82a70.79,70.79,0,0,0,59.65-32.63c-.51-1.87-1-3.64-1.43-5.19-2.47-9.06-7-9.76-7-9.76l-11.46-2.91c-6.73-1.87-10.1-7.41-8.43-15.48,8.43-40.68-20.17-61.23-32.09-60.1-11.91-1.13-40.51,19.42-32.09,60.1,1.67,8.07-1.7,13.61-8.42,15.48l-11.46,2.91s-4.58.68-7,9.76c-.29,1.09-.62,2.29-1,3.56A70.82,70.82,0,0,0,78,148.82ZM50.63,66.15a75.75,75.75,0,0,1,3.08-7.49c4.73-10,14.18-21.73,23.92-21.73s19.2,11.72,23.92,21.73a76,76,0,0,1,3.09,7.5c2.86,8.31-4.54,25.21-6.2,27.29l-1.25,1.64h0c-.12.26-.23.53-.36.79l-.27.58c-.17.32-.33.63-.51,1s-.28.48-.43.72-.41.65-.64,1c-.11.15-.21.31-.33.46-.33.45-.67.88-1,1.3l0,0c-.25.29-.51.57-.77.84l-.4.41-.41.39-.35.32a.46.46,0,0,0-.07.07l-.37.31a11.82,11.82,0,0,1-1,.77l-.46.34-.47.32c-.31.22-.63.42-1,.62l-.44.26-.08,0c-.31.17-.62.34-.94.49l-.59.29-.49.22,0,0-.49.21c-.4.16-.8.31-1.21.44l-.43.14c-.37.12-.75.23-1.13.32l-.55.13c-.39.09-.78.17-1.18.23-.19,0-.39.06-.58.09h0l-.59.08h-.13a5.48,5.48,0,0,1-.57,0l-.83.06H76.44l-.32,0c-.21,0-.42,0-.64,0s-.52,0-.78-.07l-.15,0c-.23,0-.44,0-.66-.09s-.6-.1-.9-.16l-.68-.14a22.4,22.4,0,0,1-2.49-.74c-.22-.08-.45-.16-.66-.25l-.11,0c-.3-.12-.6-.26-.89-.39s-.5-.23-.75-.36l-.33-.17-.55-.3-.23-.13-.56-.34c-.39-.25-.78-.5-1.15-.78-.21-.14-.41-.29-.61-.44l-.2-.17c-.23-.17-.45-.36-.67-.54l-.36-.33-.38-.34a33.91,33.91,0,0,0-4.87-8.2C55.63,91.89,47.77,74.46,50.63,66.15Z" transform="translate(-5.13 -5.13)"/><g class="cls-13"><path class="cls-14" d="M104.64,66.11c-.24.18-12.33-14.84-27-14.84-13.25,0-26.64,15.12-27,14.83a75.75,75.75,0,0,1,3.08-7.49c4.73-10,14.18-21.73,23.92-21.73s19.2,11.72,23.92,21.73A76,76,0,0,1,104.64,66.11Z" transform="translate(-5.13 -5.13)"/></g><circle class="cls-15" cx="72.83" cy="72.83" r="70.87"/></g></g></svg>